<?xml version="1.0" standalone="no"?>
<!DOCTYPE svg PUBLIC "-//W3C//DTD SVG 1.1//EN" "http://www.w3.org/Graphics/SVG/1.1/DTD/svg11.dtd" >
<svg xmlns="http://www.w3.org/2000/svg" xmlns:xlink="http://www.w3.org/1999/xlink" version="1.1">
<metadata>
Created by FontForge 20150318 at Fri Aug 28 14:00:37 2015
 By uniteet7
(c) !22! Soft 1992
</metadata>
<defs>
<font id="newspsan" horiz-adv-x="757" >
  <font-face 
    font-family="newspsan"
    font-weight="400"
    font-stretch="normal"
    units-per-em="2048"
    panose-1="2 0 5 6 2 0 0 2 0 4"
    ascent="1638"
    descent="-410"
    x-height="1036"
    cap-height="1462"
    bbox="0 -463 1313 1868"
    underline-thickness="155"
    underline-position="-113"
    unicode-range="U+000D-2122"
  />
<missing-glyph horiz-adv-x="748" 
d="M68 0v1365h544v-1365h-544zM136 68h408v1229h-408v-1229z" />
    <glyph glyph-name=".notdef" horiz-adv-x="748" 
d="M68 0v1365h544v-1365h-544zM136 68h408v1229h-408v-1229z" />
    <glyph glyph-name="glyph1" horiz-adv-x="2048" 
 />
    <glyph glyph-name="glyph1" horiz-adv-x="2048" 
 />
    <glyph glyph-name="uni000D" unicode="&#xd;" horiz-adv-x="2048" 
 />
    <glyph glyph-name="space" unicode=" " horiz-adv-x="741" 
 />
    <glyph glyph-name="exclam" unicode="!" horiz-adv-x="423" 
d="M96 1337.5q-2 30.5 7.5 56t34 43t75.5 17.5q49 0 72.5 -17.5t33 -43t7.5 -56t-2 -57.5l-25 -985h-176l-25 985q0 27 -2 57.5zM100 102q0 14 1 35t9.5 39.5t26 33.5t47.5 21q25 2 49 0q31 -6 48.5 -20t25.5 -32.5t10 -39t2 -37.5q0 -16 -2 -35.5t-10 -38t-25.5 -33.5
t-48.5 -22q-25 -4 -49 0q-31 6 -48 21.5t-25.5 35t-9.5 39t-1 33.5z" />
    <glyph glyph-name="quotedbl" unicode="&#x22;" horiz-adv-x="755" 
d="M98 911q20 33 51 98.5t48 174.5q-25 0 -41.5 9t-25.5 21.5t-14 25.5t-7 20q-10 37 -8.5 73.5t15 65t38 46t59.5 17.5q41 2 64.5 -19.5t37.5 -62.5q14 -53 5 -123.5t-33.5 -142.5t-57 -136.5t-63.5 -103.5zM442 911q18 33 49 98.5t48 174.5q-23 0 -38.5 9t-25.5 21.5
t-14 25.5t-6 20q-10 37 -8 73.5t14 65t35.5 46t58.5 17.5q80 2 102 -82q18 -53 9 -123.5t-33.5 -142.5t-58 -136.5t-64.5 -103.5z" />
    <glyph glyph-name="numbersign" unicode="#" horiz-adv-x="999" 
d="M74 498l28 135h125l58 246h-129l30 137h127l37 164h139l-38 -164h204l39 164h135l-36 -164h131l-29 -137h-133l-53 -246h131l-29 -135h-133l-43 -201h-135l41 201h-203l-45 -201h-139l45 201h-125zM365 633h206l56 246h-205z" />
    <glyph glyph-name="dollar" unicode="$" horiz-adv-x="817" 
d="M99.5 300q-9.5 79 0.5 155l187 47q-4 -82 0 -135.5t15 -87t27.5 -52t39.5 -28.5v391q-10 14 -18.5 26.5t-18.5 24.5q-16 29 -36 55.5t-40 53.5q-70 100 -110 188t-37 203q2 63 18 121.5t49 105.5t82 78t115 37v102h61v-106q86 -12 138.5 -60.5t80 -110t36.5 -126
t9 -109.5l-186 -45q4 72 -2 118t-17.5 73.5t-26.5 41t-32 19.5v-346q98 -117 154.5 -212t85 -169t37 -128t8.5 -89q2 -102 -26.5 -169t-71.5 -107t-93.5 -57t-93.5 -21v-105h-65v103q-82 12 -138.5 59t-89 114.5t-42 146.5zM297 1180q0 -55 17.5 -98.5t58.5 -80.5v279
q-39 -4 -57.5 -30.5t-18.5 -69.5zM434 188q41 -2 62.5 23t25.5 70q2 18 0 43.5t-11 56.5t-27.5 64.5t-49.5 66.5v-324z" />
    <glyph glyph-name="percent" unicode="%" horiz-adv-x="1335" 
d="M47 1053q0 115 19.5 196.5t51.5 133t75 75t92 23.5q20 0 59 -10.5t78 -52.5t67.5 -128t28.5 -237q0 -135 -24.5 -219t-59.5 -131.5t-76 -63.5t-71 -16q-35 0 -76 16t-78 64.5t-61.5 132.5t-24.5 217zM207 989.5q0 -30.5 2 -59.5q0 -29 2 -61.5t9 -61.5t21.5 -48.5
t43.5 -19.5q33 0 49 34t22 83t5 103.5t-1 93.5q0 37 1 90t-5 101t-22.5 82t-48.5 34q-31 0 -47.5 -32t-23.5 -79t-7 -100v-98v-61.5zM258 -78l717 1712l137 -61l-719 -1716zM817 410q0 115 18.5 196.5t51.5 133t75 75t89 23.5q20 0 60 -10.5t79 -52.5t67.5 -128t28.5 -237
q0 -135 -24.5 -219.5t-60.5 -130.5t-76 -62t-72 -16q-33 0 -74 16t-77 62t-60.5 130.5t-24.5 219.5zM973 345.5q0 -29.5 2 -58.5q0 -29 2 -61.5t9 -61.5t21.5 -48.5t43.5 -19.5q33 0 50 34t23 83t6 103.5v93.5v90t-6 101t-22.5 82t-50.5 34q-31 0 -47.5 -32t-23.5 -79
t-7 -100v-98v-62.5z" />
    <glyph glyph-name="ampersand" unicode="&#x26;" horiz-adv-x="913" 
d="M39 418q0 68 13.5 126t38 114.5t61 112.5t86.5 120q-4 16 -10.5 33.5t-10.5 36.5q-8 27 -15 51t-14 49q-8 35 -12 67.5t-2 67.5q0 55 15.5 107.5t45 93.5t73.5 63.5t102 20.5q45 -2 86 -20.5t71.5 -52.5t49 -83t16.5 -113q0 -25 -6 -61.5t-25.5 -81.5t-55.5 -100.5
t-97 -116.5l182 -451q12 31 17 62t7 69q2 29 0 62t-6 57l160 -35q4 -109 -16.5 -206t-73.5 -199q25 -55 72 -69.5t88 -4.5l-64 -155q-70 -8 -123 13t-98 68q-43 -49 -84 -64t-82 -17q-88 -6 -159.5 27.5t-123 93t-79 141.5t-27.5 174zM266 414q2 -66 15.5 -107t32 -65.5
t40 -35.5t39.5 -16q14 -2 46 3.5t61 42.5l-176 407q-41 -78 -50.5 -135t-7.5 -94zM342 1210q0 -16 6 -54.5t35 -104.5q45 57 59.5 100t18.5 66q4 29 0 48t-12.5 31.5t-19.5 18.5t-19 6q-23 0 -46.5 -25.5t-21.5 -85.5z" />
    <glyph glyph-name="quotesingle" unicode="'" horiz-adv-x="315" 
d="M47 1075q23 35 52.5 100.5t45.5 176.5q-25 0 -40 8t-24 20.5t-13.5 25.5t-6.5 21q-10 37 -8 74t15.5 64.5t37 45t58.5 17.5q74 0 102 -84q16 -53 6 -123.5t-34.5 -141.5t-58.5 -135.5t-64 -103.5z" />
    <glyph glyph-name="parenleft" unicode="(" horiz-adv-x="585" 
d="M98 535q0 229 40 403t91.5 293t97.5 184.5t58 79.5l102 -65q-25 -41 -52 -108t-52 -172.5t-41 -256t-16 -358.5q0 -209 16 -359.5t41 -255t52.5 -170t51.5 -106.5l-102 -72q-80 96 -134 217t-88 250t-49.5 257t-15.5 239z" />
    <glyph glyph-name="parenright" unicode=")" horiz-adv-x="585" 
d="M98 -356q20 37 48 101.5t52.5 168.5t41 256t16.5 365q0 215 -16.5 367.5t-41 257t-52 168t-48.5 102.5l103 65q80 -94 134 -215t88 -250t49 -257t15 -238q0 -111 -15 -239t-49 -257t-88 -250t-134 -217z" />
    <glyph glyph-name="asterisk" unicode="*" horiz-adv-x="796" 
d="M98 1343q-4 14 1 39t15.5 50.5t24 44t29.5 20.5q16 0 57 -29l119 -79l10 6l-41 139q-6 23 -9 40t4 29.5t27.5 18.5t61.5 6t62.5 -7t29 -19.5t4 -30t-9.5 -37.5l-41 -139l9 -6l120 79q43 31 60 29q12 -2 25.5 -19.5t23.5 -42t15 -50t3 -39.5q-4 -27 -26.5 -30t-48.5 -5
l-144 -8l-2 -11l113 -86q23 -20 32 -29.5t13 -19.5q2 -12 -11.5 -30.5t-34 -36t-43 -30.5t-36.5 -16q-27 -4 -37 15.5t-20 48.5l-50 135l-10 -2l-49 -133q-10 -29 -20.5 -48.5t-36.5 -15.5q-14 2 -37 14.5t-43.5 30t-33.5 36t-9 32.5q4 10 13 19.5t32 29.5l113 86l-5 11
l-141 8q-31 0 -52.5 4t-25.5 28z" />
    <glyph glyph-name="plus" unicode="+" horiz-adv-x="985" 
d="M63 678v139h367v359h135v-359h359v-139h-359v-361h-135v361h-367z" />
    <glyph glyph-name="comma" unicode="," horiz-adv-x="413" 
d="M98 -297q20 35 51 99.5t48 174.5q-25 0 -41.5 8.5t-25.5 20.5t-14 24.5t-7 18.5q-10 37 -8.5 74t15 64.5t38 45t59.5 17.5q41 2 64.5 -17.5t37.5 -60.5q14 -55 5 -126t-33.5 -141.5t-57 -134t-63.5 -102.5z" />
    <glyph glyph-name="hyphen" unicode="-" horiz-adv-x="407" 
d="M74 451v165h260v-165h-260z" />
    <glyph glyph-name="period" unicode="." horiz-adv-x="417" 
d="M98 131q0 14 1 34.5t9.5 39t26 34t49.5 19.5q23 8 47 0q31 -4 49.5 -18.5t26.5 -33t10 -39t2 -36.5t-2 -36.5t-10 -40t-26.5 -34t-49.5 -20.5h-47q-33 6 -50 21.5t-25.5 35t-9.5 39t-1 35.5z" />
    <glyph glyph-name="slash" unicode="/" horiz-adv-x="487" 
d="M0 -127l356 1661h131l-358 -1661h-129z" />
    <glyph glyph-name="zero" unicode="0" horiz-adv-x="708" 
d="M47 721q0 72 3 156t13.5 168.5t31 162.5t54 138.5t84 97.5t121.5 37q72 0 122 -37t84 -97.5t53.5 -138.5t29.5 -162.5t12 -168.5t2 -156q0 -106 -8 -235.5t-37.5 -241t-90 -187t-167.5 -75.5q-70 0 -120 34.5t-84.5 93t-54 135.5t-30 158.5t-14.5 163.5t-4 154z
M249 825.5q1 -53.5 1 -106.5q0 -76 2 -131.5t4 -95t4 -66.5t6 -45q2 -27 5 -52.5t8 -49.5q4 -23 8 -45.5t16 -38.5q10 -12 22.5 -22.5t28.5 -10.5q14 0 27.5 9t24.5 22q14 16 17 39.5t5 46.5q2 27 4 51t4 51q2 29 4 73t3 91t2 93t1 81q0 33 1.5 87t0 117.5t-6.5 128t-15 118
t-27.5 88t-44.5 36.5q-18 2 -35.5 -8t-27.5 -26t-14.5 -36t-6.5 -42q-4 -27 -7 -51.5t-7 -51.5q-4 -35 -4 -72.5t-2 -72.5q-2 -55 -1 -108.5z" />
    <glyph glyph-name="one" unicode="1" horiz-adv-x="524" 
d="M31 1212q37 29 65.5 54.5t55 55.5t51 63.5t55.5 76.5h143v-1462h-215v1130q-25 -16 -48 -29.5t-46 -23.5z" />
    <glyph glyph-name="two" unicode="2" horiz-adv-x="673" 
d="M47 0v170q41 78 80 153.5t80 153.5q31 66 63.5 130.5t61.5 133.5q31 70 56.5 174.5t14.5 268.5q-2 20 -4 41.5t-8 38t-16 26.5t-29 10q-18 0 -31.5 -13t-20.5 -29.5t-11 -35t-7 -28.5q-8 -41 -13 -81t-9 -81q-4 -23 -5 -46t-3 -46l-180 37q-6 166 25.5 272.5t85.5 163.5
t124 67.5t139 -16.5q37 -18 71 -46.5t59.5 -74t40 -110t14.5 -154.5q-2 -115 -30 -214t-89 -216q-35 -66 -73 -129t-77 -127q-29 -53 -55.5 -103t-54.5 -102h362v-188h-561z" />
    <glyph glyph-name="three" unicode="3" horiz-adv-x="651" 
d="M47 518l186 19q0 -29 1.5 -55.5t3.5 -53.5q2 -25 2 -51.5t2 -50.5q2 -25 3 -50.5t5 -50.5q4 -16 16.5 -43.5t46.5 -29.5q31 0 46.5 24.5t21.5 61t7 78.5t1 77q2 47 0 96q-2 59 -10 99.5t-29.5 65t-56.5 35.5t-88 11v150q59 -4 96 10t57.5 47t27.5 81t7 112q0 31 -1 67.5
t-7 68.5t-19.5 53.5t-39.5 21.5q-33 -2 -50.5 -38t-26.5 -85t-11 -103.5t-5 -93.5l-167 31q-2 160 28.5 251t75.5 138t92 58.5t76 11.5q33 0 78 -13.5t85 -52.5t67.5 -112.5t29.5 -192.5q0 -23 -3 -70t-20.5 -98t-54.5 -95t-104 -59q49 -12 82.5 -41.5t54 -67.5t32 -81
t15.5 -82t4 -69.5v-45.5q-2 -66 -13 -138.5t-42 -134.5t-85 -104t-145 -42q-72 0 -119.5 25.5t-78.5 70.5t-45.5 106.5t-20.5 130.5q-6 63 -6 134q0 16 -1 34.5t-1 34.5z" />
    <glyph glyph-name="four" unicode="4" horiz-adv-x="673" 
d="M29 279v153q12 39 25.5 77t25.5 75q39 106 74 225q25 70 46 139.5t44 138.5q16 53 33.5 108.5t33.5 109.5q10 41 22.5 78.5t22.5 78.5h238l2 -1030h47v-153h-47v-279h-197v279h-370zM229 428h168v641q-23 -92 -42 -172t-38.5 -156.5t-41 -152.5t-46.5 -160z" />
    <glyph glyph-name="five" unicode="5" horiz-adv-x="649" 
d="M49 498l184 22q-12 -188 12.5 -279t67.5 -91q25 0 40.5 27.5t23.5 68.5t12 92t4 99t-2 88t-2 61q-2 33 -5 68.5t-11 66.5t-23.5 51.5t-42.5 20.5q-25 0 -37 -15q-8 -6 -11 -14t-7 -14q-4 -12 -4 -19h-152v731h459v-190h-268v-332q18 14 46.5 23.5t72.5 1.5
q61 -12 99 -57.5t58.5 -100.5t27.5 -110.5t11 -88.5q12 -199 -13.5 -321.5t-71.5 -190t-102.5 -91t-101.5 -23.5q-92 0 -146 46t-82 119.5t-34 166t-2 184.5z" />
    <glyph glyph-name="six" unicode="6" horiz-adv-x="692" 
d="M41 671.5q2 106.5 6 205.5q8 143 24.5 254.5t47.5 188.5t82 117t129 44q55 2 104 -16.5t84 -67.5t54.5 -131t17.5 -207l-184 -21v46.5t-3 45.5v30t-4 32q-2 20 -5 42.5t-9 41t-17.5 31t-29.5 10.5q-20 -2 -31.5 -20.5t-16.5 -45t-7 -57.5t-2 -57q-2 -37 -2 -71t-3 -69
q-2 -37 -2 -72.5t-2 -72.5q14 16 47 36.5t87 18.5q33 -2 72.5 -17.5t74.5 -61.5t60.5 -128t29.5 -215t-17.5 -227t-60.5 -155.5t-93 -90t-116 -30.5q-84 -2 -140 35.5t-92 103t-54.5 155t-24.5 189.5t-4 206.5zM285 383q0 -39 2 -74v-33.5t4 -35.5q0 -8 3 -21.5t9 -26
t18.5 -22.5t32.5 -10q33 0 49.5 32.5t21.5 78.5t4 98.5t-1 89.5t1 86t-4 93t-21.5 74.5t-49.5 32.5q-25 0 -39 -12t-20 -33.5t-7 -47t-1 -50.5v-71.5t-2 -69.5v-78z" />
    <glyph glyph-name="seven" unicode="7" horiz-adv-x="604" 
d="M37 1272v190h524l-231 -1462h-238l242 1272h-297z" />
    <glyph glyph-name="eight" unicode="8" horiz-adv-x="704" 
d="M47 539q2 20 8 63t23.5 89t50.5 87.5t88 57.5q-57 25 -87 66.5t-44 88.5t-15 90t1 72q6 98 34.5 161.5t69.5 100.5t87 51.5t87 14.5q39 0 86 -14.5t89 -51.5t71 -100.5t35 -161.5q2 -31 1 -76t-15.5 -91t-45 -86t-88.5 -64q57 -16 90 -57.5t50.5 -87.5t22.5 -89t7 -63
q14 -184 -13.5 -294t-75.5 -168.5t-106.5 -76.5t-107.5 -18q-47 0 -105.5 18t-106.5 76.5t-75.5 168t-15.5 294.5zM268 455q0 -37 2 -74t2 -76q0 -27 1 -52.5t14 -49.5q10 -18 26.5 -34.5t36.5 -16.5q20 2 36.5 17t27.5 34q12 25 13 50.5t1 51.5q0 37 1 74t3 74
q0 37 -1 73.5t-1 75.5q0 23 -2 46.5t-14 45.5q-10 18 -26.5 32.5t-37.5 14.5q-18 0 -35.5 -14t-27.5 -33q-10 -23 -12.5 -46t-2.5 -46q-2 -39 -3 -74.5t-1 -72.5zM281 1128q0 -29 2 -65.5t8 -69t20 -55.5t39 -23q27 0 41.5 21.5t21.5 53.5t8 70t1 68q0 29 -1 64t-9.5 64.5
t-22.5 49t-39 19.5t-38 -19.5t-20 -49t-9 -64.5t-2 -64z" />
    <glyph glyph-name="nine" unicode="9" horiz-adv-x="692" 
d="M47 975q-4 133 17.5 228t61.5 156.5t93 90.5t113 31q84 2 140 -36t92 -104.5t55.5 -155.5t25.5 -189.5t4 -206t-6 -203.5q-6 -145 -22.5 -256t-48 -186.5t-83 -116.5t-129.5 -45q-55 -2 -103 16t-83 67.5t-54.5 131.5t-17.5 204l185 23v-92q2 -16 2 -31.5t2 -32.5
q2 -18 5 -40.5t10 -41t18.5 -31t29.5 -12.5q20 2 31.5 20.5t18 46.5t8.5 58.5t2 57.5q0 35 1 69.5t1 67.5q2 39 3 74.5t3 70.5q-16 -16 -49 -36.5t-86 -18.5q-33 2 -73 18.5t-75 61.5t-60.5 127t-31.5 215zM268 920.5q-2 -50.5 2 -95.5t17.5 -76.5t48.5 -33.5q27 0 41 13
t20 33.5t7.5 46.5t1.5 50q2 37 2 73v70v76t-2 74q0 18 -1.5 36t-3.5 34q-2 8 -4 21t-9 26.5t-19.5 22.5t-32.5 9q-35 0 -49.5 -31.5t-17.5 -76.5t-1 -95t2 -89q0 -37 -2 -87.5z" />
    <glyph glyph-name="colon" unicode=":" horiz-adv-x="417" 
d="M98 131q0 14 2 34.5t10.5 39t26 34t47.5 19.5q23 8 47 0q31 -4 49.5 -18.5t26.5 -33t10 -39t2 -36.5t-2 -36.5t-10 -40t-26.5 -34t-49.5 -20.5h-47q-31 6 -48 21.5t-25.5 35t-10.5 39t-2 35.5zM98 754q0 16 2 36.5t10.5 40t26 34t47.5 20.5q23 2 47 0q31 -6 49.5 -20.5
t26.5 -34t10 -40t2 -36.5t-2 -36t-10 -39.5t-26.5 -33.5t-49.5 -20q-25 -2 -47 0q-31 6 -48 20t-25.5 33.5t-10.5 39.5t-2 36z" />
    <glyph glyph-name="semicolon" unicode=";" horiz-adv-x="421" 
d="M98 -295q18 35 50 100.5t49 176.5q-25 -2 -41.5 6t-25.5 20t-14 25.5t-7 21.5q-10 37 -8.5 73t15 63.5t38 45t59.5 17.5q41 0 64.5 -19.5t37.5 -60.5q14 -55 5 -126t-33.5 -141.5t-57 -134t-63.5 -102.5zM102 752q0 18 2 38.5t10.5 39t26 33t47.5 20.5q23 2 48 0
q33 -6 50 -20.5t25 -34t9.5 -40t1.5 -36.5q0 -14 -1.5 -34t-9.5 -38t-25.5 -33.5t-49.5 -21.5q-25 -6 -48 0q-31 6 -48 20t-25.5 32.5t-10.5 38.5t-2 36z" />
    <glyph glyph-name="less" unicode="&#x3c;" horiz-adv-x="1015" 
d="M74 688v109l868 377v-142l-682 -293l682 -286v-140z" />
    <glyph glyph-name="equal" unicode="=" horiz-adv-x="985" 
d="M59 547v131h871v-131h-871zM59 819v127h871v-127h-871z" />
    <glyph glyph-name="greater" unicode="&#x3e;" horiz-adv-x="1015" 
d="M74 313v140l680 286l-680 293v142l868 -377v-109z" />
    <glyph glyph-name="question" unicode="?" horiz-adv-x="729" 
d="M98 989q-2 121 19.5 209t60.5 145.5t89 86t104 30.5q96 4 169.5 -65.5t90.5 -194.5q14 -104 -17 -209q-16 -49 -40.5 -97t-53.5 -95q-23 -37 -43 -76t-33 -80q-12 -41 -17 -87t-9 -93q-4 -41 -7 -82t-3 -82h-144q-6 115 -1 198t16.5 145.5t29 112.5t39.5 99q20 45 39 88
t29 90q6 33 7 69t-1 73q-2 33 -9 51t-16.5 27.5t-19.5 12.5t-17 3q-10 0 -21 -9.5t-20 -21.5q-23 -31 -26.5 -62.5t-7.5 -64.5q-4 -39 -10.5 -76t-10.5 -76zM227 106q0 14 1 35t9.5 39.5t26 33.5t49.5 22q25 6 47 0q31 -6 48.5 -20.5t25.5 -33t10 -39t2 -37.5
q0 -16 -2 -35.5t-10 -38t-25.5 -32.5t-48.5 -20q-23 -4 -47 0q-33 6 -50 20t-25.5 33.5t-9.5 39t-1 33.5z" />
    <glyph glyph-name="at" unicode="@" horiz-adv-x="1206" 
d="M74 72v1024q0 61 4 129.5t30.5 126t85 94.5t166.5 37h463q63 0 119.5 -2t98.5 -32t67 -101.5t25 -212.5v-762q0 -141 -18.5 -220t-53.5 -118t-84 -48.5t-111 -11.5q-33 0 -60.5 2.5t-53 12.5t-51 33.5t-52.5 64.5q-23 -41 -45 -64.5t-43.5 -35t-42 -12.5t-39.5 1
q-29 2 -48 10.5t-31.5 31t-17.5 64.5t-5 114v747v41t2 41q0 35 3 74t24 67q12 16 34.5 33t59.5 12q43 -4 79.5 -35.5t57.5 -72.5v82h182v-922q0 -29 1 -58.5t8.5 -52t22.5 -36t44 -11.5q27 0 41 19.5t20.5 47.5t6.5 58.5v55.5v848q0 12 -1 25.5t-1 25.5v30.5t-5 28.5
q-10 37 -31.5 55.5t-48 26.5t-54 9t-48.5 1h-342h-46t-50.5 -6t-46 -23.5t-33.5 -50.5q-6 -16 -7 -34.5t-3 -40.5q0 -18 -1 -37t-1 -37v-1104v-51q0 -18 1 -32.5t5 -29.5q23 -55 72 -62t108 -7h295v-146h-352q-86 0 -144.5 10.5t-92.5 50.5t-48 118.5t-14 216.5zM552 212.5
q-1 -17.5 2 -32t11 -24t27 -9.5q33 -2 39 32t6 67v694q0 18 1 37.5t-2 35t-11.5 26t-26.5 10.5q-10 0 -19.5 -6.5t-13.5 -12.5q-10 -16 -10 -43q-2 -14 -2 -25.5v-23.5v-690q0 -18 -1 -35.5z" />
    <glyph glyph-name="A" unicode="A" horiz-adv-x="821" 
d="M35 0l268 1462h234l258 -1462h-230l-41 279h-221l-47 -279h-221zM328 463h170l-86 575z" />
    <glyph glyph-name="B" unicode="B" horiz-adv-x="833" 
d="M127 0v1462h227q78 0 147.5 -12t123 -48t86 -98.5t39.5 -162.5q1 -13 1 -27q0 -104 -42 -188q-47 -96 -152 -131q106 -23 167.5 -109t63.5 -260v-12q0 -151 -47 -235q-49 -87 -118.5 -127t-144.5 -46t-124 -6h-227zM354 190h10q20 0 44 6q30 8 59 32t48.5 72t21.5 130v19
q-1 75 -15 125q-16 56 -43.5 85t-60.5 39q-19 5 -37 5q-14 0 -27 -3v-510zM354 879q11 -1 22 -1q18 0 32 4q24 7 41.5 18t27.5 24.5t17 23.5q16 29 18 64t2 69q-2 35 -4 68t-16 61q-16 29 -37 44.5t-40.5 20.5t-35.5 5t-27 -2v-399z" />
    <glyph glyph-name="C" unicode="C" horiz-adv-x="724" 
d="M55 774q2 119 11.5 244t41 227.5t93 169t170.5 66.5h7q92 1 150 -53q60 -56 90 -136q32 -80 40 -170q5 -49 4 -92q0 -35 -3 -67l-200 -29v59.5t-2 59.5q-4 31 -7.5 61.5t-7.5 63.5q-2 20 -5 38.5t-15 34.5q-8 6 -16.5 11.5t-18.5 5.5q-10 2 -20.5 -4.5t-16.5 -12.5
q-14 -16 -18 -34.5t-8 -40.5q-2 -35 -6.5 -68t-8.5 -66q-6 -76 -7 -152v-50q0 -51 1 -103q0 -76 1 -150.5t7 -148.5q2 -25 4 -50.5t4 -53.5q2 -29 5.5 -58.5t21.5 -54.5q8 -10 18.5 -18t22.5 -8q10 -2 22.5 6t20.5 18q20 25 22.5 55.5t6.5 59.5q2 33 6 62.5t8 58.5
q4 31 6 60.5t4 57.5l195 -24q1 -22 1 -48.5t-1 -56.5q-2 -60 -12.5 -122t-31 -122.5t-54 -108.5t-82.5 -78.5t-117 -30.5h-6q-117 0 -183 74q-68 76 -99.5 193.5t-36.5 257.5q-3 78 -3 152q0 59 2 115z" />
    <glyph glyph-name="D" unicode="D" horiz-adv-x="786" 
d="M53 -6v1462h142q45 0 103 -2t117.5 -21.5t116 -60.5t101.5 -118.5t72.5 -198.5t29.5 -299q0 -186 -23.5 -314.5t-65.5 -213.5t-97 -132t-114.5 -69.5t-121 -27.5t-114.5 -5h-146zM279 186q63 0 103 40t63.5 112t30.5 170t7 215q0 88 -4 182t-23.5 173t-60.5 131.5
t-116 58.5v-1082z" />
    <glyph glyph-name="E" unicode="E" 
d="M127 0v1462h549v-190h-322v-416h242v-194h-242v-474h361v-188h-588z" />
    <glyph glyph-name="F" unicode="F" horiz-adv-x="655" 
d="M96 0v1462h543v-188h-317v-418h241v-194h-241v-662h-226z" />
    <glyph glyph-name="G" unicode="G" horiz-adv-x="729" 
d="M38 636v44q0 45 1 94q2 127 13 253t46 226.5t99.5 164t175.5 63.5h9q68 0 117 -28q52 -30 84.5 -77t52 -105.5t28 -116.5t9.5 -109.5t1 -81.5l-211 -29q1 33 1 63q0 73 -4 121q-5 68 -15.5 101.5t-24.5 41t-31 7.5q-18 0 -35.5 -11.5t-31 -63.5t-21.5 -158.5t-10 -299.5
q-1 -60 -1 -122v-62q1 -94 10 -172t29.5 -129t59.5 -55q25 -4 39 8t21.5 32.5t9.5 48t2 54.5l2 223h-55v195h290v-756h-133l-26 35q-25 -20 -63 -35.5t-95 -17.5h-10q-53 0 -99 20q-49 21 -87 57.5t-63.5 87t-35.5 107.5q-16 70 -26.5 132.5t-15.5 124.5t-6 125z" />
    <glyph glyph-name="H" unicode="H" horiz-adv-x="897" 
d="M123 0v1462h227v-598h197v598h227v-1462h-227v674h-197v-674h-227z" />
    <glyph glyph-name="I" unicode="I" horiz-adv-x="419" 
d="M96 0v1462h226v-1462h-226z" />
    <glyph glyph-name="J" unicode="J" horiz-adv-x="548" 
d="M27 160q6 -4 29.5 -8.5t49.5 -4.5q47 2 73 21.5t39 46.5t16.5 52.5t3.5 41.5v45q-2 14 -2 28.5v27.5v1052h227v-1061q0 -27 -1 -68.5t-8.5 -88.5t-25.5 -95.5t-54 -85t-92 -59.5q-53 -22 -128 -22h-13q-14 0 -27.5 1t-27.5 3q-16 4 -45 8q-4 2 -8 2z" />
    <glyph glyph-name="K" unicode="K" horiz-adv-x="854" 
d="M96 0v1462h226v-602l32 -2l213 604h230l-265 -671l304 -791h-240l-240 676h-34v-676h-226z" />
    <glyph glyph-name="L" unicode="L" horiz-adv-x="638" 
d="M96 0v1462h226v-1274h299v-188h-525z" />
    <glyph glyph-name="M" unicode="M" horiz-adv-x="1105" 
d="M123 0v1462h303l125 -712l127 712h303v-1462h-213v975h-10l-140 -975h-133l-141 975h-10v-975h-211z" />
    <glyph glyph-name="N" unicode="N" horiz-adv-x="811" 
d="M86 -6v1462h203l219 -700v700h225v-1462h-203l-219 813v-813h-225z" />
    <glyph glyph-name="O" unicode="O" horiz-adv-x="798" 
d="M47 626.5v104.5v104.5t4 104.5q8 102 26.5 199.5t58.5 173.5t103.5 122t159.5 46t160 -46t102.5 -122t57 -173.5t26.5 -199.5q4 -53 4.5 -104.5t0.5 -104.5v-104.5t-5 -104.5q-8 -96 -25.5 -193.5t-56 -174t-102 -124.5t-162.5 -48q-100 0 -163.5 49t-102.5 125.5
t-56.5 173t-25.5 192.5q-4 53 -4 104.5zM300 518q1 -62 6 -126t16 -114q12 -50 30 -82q17 -30 45 -30h4q29 0 47.5 32.5t29.5 85t16 116.5q4 64 5 126q0 31 0.5 60t-0.5 56q-1 54 -1 89t1 89q0 27 1 56q0 28 -1 60q-1 62 -5.5 126t-15.5 116.5t-29.5 84t-47.5 33.5
q-31 0 -49 -30.5t-29.5 -80.5t-16.5 -113.5t-6 -125.5v-61.5v-58.5q1 -58 1 -95t-1 -94v-58v-61z" />
    <glyph glyph-name="P" unicode="P" horiz-adv-x="825" 
d="M127 0v1462h197q74 0 153.5 -12t146 -60.5t110.5 -145.5t46 -267v-15q0 -150 -38 -246q-40 -100 -102 -156t-139 -76.5t-147 -20.5v-463h-227zM354 633q27 0 61 10t63 45q28 34 46 100q17 59 17 156v21q-2 113 -22.5 177t-50.5 95t-60 36q-22 4 -40 4q-7 0 -14 -1v-643z
" />
    <glyph glyph-name="Q" unicode="Q" horiz-adv-x="802" 
d="M39 731q0 53 1 104.5t5 104.5q8 102 27.5 199.5t57.5 173.5t101.5 122t161.5 46q94 0 157.5 -46t102.5 -122t57.5 -173.5t26.5 -199.5q4 -53 4 -104.5v-104.5v-104.5t-4 -104.5q-8 -113 -24.5 -189.5t-37 -128.5t-41 -84t-36.5 -50q2 -33 12.5 -75t29.5 -80t51 -65.5
t79 -29.5l-43 -162q-9 -1 -18 -1q-49 0 -95 19q-53 21 -93 63t-63 105q-22 59 -22 135v13h-2q-10 -4 -21.5 -6t-23.5 -4q-9 -1 -18 -1q-48 0 -95 18q-57 21 -104 80.5t-81 167t-46 275.5q-4 53 -5 104.5t-1 104.5zM294 518q1 -63 5 -126.5t15.5 -114t29.5 -81.5
q17 -30 45 -30h4q29 0 47.5 32.5t29.5 85t15 116t5 126.5q1 31 1 60t-1 56q-1 54 -1 89t1 89q1 27 1 56t-1 60q-1 63 -5 126.5t-15 116t-29.5 84t-47.5 33.5q-31 0 -49 -30.5t-29.5 -80.5t-15.5 -113.5t-5 -125.5v-62v-58q1 -58 1 -95t-1 -94v-58.5v-60.5z" />
    <glyph glyph-name="R" unicode="R" horiz-adv-x="813" 
d="M96 1462h228q18 0 57 -2t85 -13t94 -34.5t88 -65.5t64.5 -107.5t24.5 -160.5q-2 -127 -65.5 -218t-171.5 -116q25 -2 58.5 -12t65 -35.5t54 -71.5t22.5 -122v-252q0 -63 13.5 -94t64.5 -35l17 -123q-29 -10 -68 -16q-22 -4 -43 -4q-16 0 -31 2q-88 10 -138 72.5
t-50 195.5v248q0 57 -15.5 87.5t-37 45t-46 15.5t-42.5 -1v-645h-226zM324 825h9q65 1 109 55q48 58 52 175q0 39 -6.5 79t-26 72.5t-53 52t-84.5 19.5v-453z" />
    <glyph glyph-name="S" unicode="S" horiz-adv-x="686" 
d="M45 455l197 45q2 -10 2 -24.5v-24.5q2 -23 3 -44.5t1 -44.5q2 -29 5 -59.5t12 -57t28.5 -45t52.5 -18.5q16 0 33.5 6.5t31 23.5t19.5 45q3 14 3 31.5t-3 39.5q-4 49 -21.5 93t-46.5 91q-18 35 -38.5 66.5t-42.5 62.5q-55 76 -97.5 138.5t-72 118.5t-43.5 114
q-11 46 -12 99q0 15 1 30q4 154 79 245t192 95h19q77 0 129 -29q60 -33 94 -90t51.5 -133t23.5 -156l-192 -47q-2 10 -3 22.5t-4 22.5q-4 25 -6 46.5t-6 43.5q-4 20 -8 45t-13.5 44.5t-24.5 31.5t-40 10q-20 -2 -42.5 -22.5t-24.5 -77.5v-13q0 -35 9 -68q11 -40 31.5 -78
t45 -73.5t49.5 -66.5q25 -35 50.5 -70t49.5 -71q63 -94 102 -194q34 -87 34 -190q0 -16 -1 -32q-4 -82 -29.5 -147.5t-68.5 -111.5t-97.5 -70.5t-111.5 -24.5q-76 0 -136.5 37.5t-101 102t-56.5 150.5q-10 50 -10 103q0 39 5 80z" />
    <glyph glyph-name="T" unicode="T" horiz-adv-x="720" 
d="M29 1272v190h663v-190h-219v-1272h-227v1272h-217z" />
    <glyph glyph-name="U" unicode="U" horiz-adv-x="843" 
d="M96 352v1110h226v-960q0 -37 1 -73t3 -73q2 -31 4 -62.5t12 -66.5q2 -10 6 -22t13.5 -24.5t23.5 -20.5t37 -8q20 0 34.5 8t23.5 20.5t13.5 24.5t6.5 22q8 35 10 67t6 62q2 37 3 73t1 73v960h228v-1110q0 -37 -9.5 -100.5t-42 -122.5t-97 -103t-177.5 -44t-178.5 44
t-98 103t-41 122.5t-8.5 100.5z" />
    <glyph glyph-name="V" unicode="V" horiz-adv-x="786" 
d="M57 1462h238l104 -973l105 973h237l-237 -1480h-209z" />
    <glyph glyph-name="W" unicode="W" horiz-adv-x="1222" 
d="M43 1462h240l106 -973l152 969h145l148 -969l106 973h244l-244 -1480h-190l-138 768l-137 -768h-192z" />
    <glyph glyph-name="X" unicode="X" horiz-adv-x="821" 
d="M29 0l270 768l-248 694h248l121 -420l117 420h241l-241 -694l254 -768h-242l-129 494l-148 -494h-243z" />
    <glyph glyph-name="Y" unicode="Y" horiz-adv-x="847" 
d="M51 1462h240l139 -641l137 641h244l-268 -938v-524h-228v524z" />
    <glyph glyph-name="Z" unicode="Z" horiz-adv-x="718" 
d="M39 0l356 1272h-305v190h598l-356 -1272h356v-190h-649z" />
    <glyph glyph-name="bracketleft" unicode="[" horiz-adv-x="460" 
d="M74 0v1479h315v-136h-125v-1208h125v-135h-315z" />
    <glyph glyph-name="backslash" unicode="\" horiz-adv-x="487" 
d="M0 1534h129l358 -1661h-131z" />
    <glyph glyph-name="bracketright" unicode="]" horiz-adv-x="460" 
d="M74 0v135h123v1208h-123v136h315v-1479h-315z" />
    <glyph glyph-name="asciicircum" unicode="^" horiz-adv-x="780" 
d="M74 1210v138l245 114h140l248 -114v-138l-314 136z" />
    <glyph glyph-name="underscore" unicode="_" horiz-adv-x="927" 
d="M0 -248h928v-129h-928v129z" />
    <glyph glyph-name="grave" unicode="`" horiz-adv-x="315" 
d="M41 1248q10 71 34.5 141.5t57.5 134t64 104.5l69 -37q-23 -33 -52.5 -98.5t-45.5 -173.5q23 0 38 -9.5t25.5 -21.5t14.5 -25.5t6 -19.5q10 -37 8 -73.5t-15.5 -65.5t-37 -46.5t-57.5 -17.5q-41 0 -64 20.5t-39 63.5q-16 53 -6 124z" />
    <glyph glyph-name="a" unicode="a" horiz-adv-x="675" 
d="M35 221q-4 31 -4 60q-1 62 17 114q26 76 77 128t120.5 80t147.5 32v160q0 57 -23.5 77.5t-39.5 20.5h-3q-31 0 -57 -47q-26 -49 -28 -135l-172 39q0 63 19.5 119.5t56 98.5t88 65.5t114.5 23.5q104 0 171 -68.5t67 -197.5v-533q0 -59 7 -104t50 -82l-72 -86
q-20 4 -59 21.5t-86 64.5q-25 -33 -49.5 -50.5t-47 -25.5t-41 -9t-32.5 1q-92 6 -148.5 70.5t-72.5 162.5zM244 301q0 -53 10 -84t24.5 -47t30 -21.5t25.5 -5.5q25 0 37 12.5t17 29t5 36v33.5v244h-8q-31 0 -57 -14q-28 -16 -47 -44t-28 -64t-9 -75z" />
    <glyph glyph-name="b" unicode="b" horiz-adv-x="661" 
d="M35 0v1491h184v-541h6q4 14 13.5 32.5t25 35t38 28t52.5 11.5q10 0 32 -3t48.5 -21.5t52 -56.5t45.5 -108q21 -70 32 -176q7 -69 7 -157q0 -48 -2 -103q-6 -135 -27.5 -221t-51 -135t-65.5 -68.5t-69 -21.5h-12q-26 0 -46 7q-24 9 -42 24.5t-28.5 34t-16.5 32.5h-4
l-21 -84h-151zM219 234.5q0 -27.5 6 -50t19.5 -38t42.5 -17.5h7q28 1 43 29q17 32 25.5 79.5t9.5 100.5t1 94q0 52 1 100v32q0 32 -1 63q0 41 -1 88t-8.5 85t-24.5 62q-15 21 -41 22q-4 0 -9 -1q-25 -2 -39 -17.5t-21.5 -37t-8.5 -46t-1 -47.5v-448v-52.5z" />
    <glyph glyph-name="c" unicode="c" horiz-adv-x="571" 
d="M35 537q0 94 10 184t35.5 162.5t73 120t125.5 53.5q8 1 17 1q31 0 66 -12q44 -14 80.5 -56t61 -113.5t24.5 -184.5l-170 -30q0 25 -2 62.5t-9 74.5t-19.5 63.5t-34.5 24.5q-25 -2 -37 -46t-17.5 -102.5t-5.5 -117v-84.5v-97.5t6.5 -124t20.5 -107.5t43 -46q23 0 37 26.5
t21.5 65.5t10.5 79t3 68l162 -20q1 -18 1 -35q0 -78 -15 -139q-18 -74 -52.5 -123t-78.5 -73.5t-93 -24.5q-90 0 -142.5 55t-79 138t-34.5 179.5t-8 178.5z" />
    <glyph glyph-name="d" unicode="d" horiz-adv-x="661" 
d="M35 432q-2 54 -2 103q0 89 7 157q11 106 31.5 176t47 108t52.5 56.5t47.5 21.5t31.5 3q31 0 54.5 -11.5t38.5 -28t24.5 -34.5t13.5 -33h6v541h182v-1491h-151l-19 84h-4q-6 -14 -16 -32.5t-28.5 -34t-44.5 -24.5q-21 -7 -46 -7h-12q-33 2 -69 21.5t-66.5 68.5t-52 135
t-25.5 221zM233 432q0 -41 1.5 -94t8.5 -100.5t25 -79.5q16 -29 47 -29h7q29 2 43 24.5t19 55.5q4 28 4 57v12q-1 36 -1 68v332v65.5t-6 65.5t-20.5 51.5t-43.5 22.5q-5 1 -9 1q-28 0 -42 -22q-16 -24 -23 -62t-8.5 -85t-1.5 -88q-1 -47 -1 -96t1 -99z" />
    <glyph glyph-name="e" unicode="e" horiz-adv-x="602" 
d="M35 502q0 172 24.5 280.5t64.5 170t88 83t95 21.5t98.5 -24.5t91.5 -90t59 -179.5q11 -66 11 -152q0 -64 -6 -138h-317q-3 -47 -3 -86q0 -33 2 -59q5 -60 15 -97.5t25.5 -55t31.5 -19.5q23 0 38.5 24.5t24.5 59t13 72.5t8 63l162 -25q-4 -119 -32.5 -190.5t-66.5 -110.5
t-79 -51t-72 -12q-86 0 -140 43t-84 114.5t-41 164.5t-11 194zM247 682v-19q0 -19 1 -38h129q3 46 3 85q0 80 -14 124q-20 68 -53 67q-23 0 -32 -17.5t-13 -25.5q-12 -29 -15 -58.5t-5 -58.5q0 -29 -1 -59z" />
    <glyph glyph-name="f" unicode="f" horiz-adv-x="432" 
d="M16 872v158h88q0 94 10.5 173t40 137.5t86 95.5t148.5 49l27 -156q-55 -12 -83 -39.5t-39 -65.5q-10 -35 -10 -79v-9q1 -49 3 -106h129v-158h-129v-872h-183v872h-88z" />
    <glyph glyph-name="g" unicode="g" horiz-adv-x="661" 
d="M34 504v43q0 41 1 74q6 129 26.5 211.5t49 132t64.5 70t73 22.5h11q26 0 47 -7q26 -10 43.5 -25t28.5 -32.5t17 -31.5h4l19 81h151v-968q0 -98 1 -190v-8q0 -86 -20 -152q-22 -70 -76 -112t-161 -42q-70 0 -121 24.5t-83.5 65.5t-46.5 93q-9 36 -9 74q0 17 2 34l170 30
v-20q2 -10 2 -20.5t2 -20.5q2 -12 4.5 -25.5t6.5 -23.5q10 -29 31.5 -39t41.5 -8q31 2 46.5 21.5t21.5 48t6 62.5v66v158h-6q-4 -16 -13.5 -33.5t-24.5 -33t-38.5 -25.5t-54.5 -12h-6q-49 0 -85 30q-38 33 -61.5 87.5t-38 123t-19.5 140t-6 137.5zM233 344q0 -47 7.5 -87
t25.5 -65q16 -24 46 -24h5q31 2 45.5 24.5t19.5 55.5t5 68.5v66.5v324v61.5t-5 62t-19.5 50t-40.5 22.5h-4q-30 0 -46 -25q-18 -28 -26 -71t-10.5 -93t-2.5 -93q-1 -47 -1 -95t1 -96v-86z" />
    <glyph glyph-name="h" unicode="h" horiz-adv-x="653" 
d="M70 0v1462h178v-493h4q30 55 66 73q32 16 73 15h10q106 -2 145.5 -70.5t39.5 -218.5v-768h-195v754q0 27 -1 53.5t-7 48t-20.5 34.5t-40.5 11q-31 0 -46.5 -21.5t-21.5 -53t-6 -68.5v-70v-688h-178z" />
    <glyph glyph-name="i" unicode="i" horiz-adv-x="342" 
d="M80 0v1042h180v-1042h-180zM80 1341q0 10 2 29t11 37t27.5 31.5t51.5 13.5q31 0 49.5 -13.5t26.5 -31.5t10 -36.5t2 -29.5q0 -10 -2 -28.5t-10 -37t-26.5 -31.5t-49.5 -13q-33 0 -51.5 13t-27.5 31.5t-11 37t-2 28.5z" />
    <glyph glyph-name="j" unicode="j" horiz-adv-x="299" 
d="M16 -174q33 10 50.5 33.5t25.5 50.5t9 51.5t1 38.5v1042h181v-1026v-39q-2 -102 -33 -161.5t-73 -90t-86 -39t-75 -8.5v148zM102 1341q0 10 2 29t10.5 37t27 31.5t48.5 13.5q33 0 51.5 -13.5t28 -31.5t11.5 -36.5t2 -29.5q0 -10 -2 -28.5t-11.5 -37t-28 -31.5t-51.5 -13
q-31 0 -49 13t-26.5 31.5t-10.5 37t-2 28.5z" />
    <glyph glyph-name="k" unicode="k" horiz-adv-x="657" 
d="M70 0v1462h178v-848l31 2l149 426h180l-180 -505l213 -537h-213l-149 467h-31v-467h-178z" />
    <glyph glyph-name="l" unicode="l" horiz-adv-x="342" 
d="M80 0v1462h180v-1462h-180z" />
    <glyph glyph-name="m" unicode="m" horiz-adv-x="991" 
d="M70 0v1051h143l31 -90h4q30 66 70 82q35 14 73 14h10q8 0 28 -2t44.5 -11.5t51 -29t46.5 -56.5h9q16 37 38.5 56.5t45 30t43 11.5t32.5 1q100 -2 142.5 -64.5t42.5 -224.5v-768h-183v754q0 86 -12 115.5t-53 31.5q-37 2 -55.5 -13.5t-26.5 -44t-8 -68.5v-87v-688h-180
v754q0 86 -12.5 115.5t-55.5 31.5q-37 2 -55.5 -13.5t-25.5 -44t-8 -68.5t-1 -87v-688h-178z" />
    <glyph glyph-name="n" unicode="n" horiz-adv-x="653" 
d="M70 0v1051h143l31 -90h4q32 61 70 79q35 17 74 17h9q106 -2 145.5 -70.5t39.5 -218.5v-768h-195v754q0 27 -1 53.5t-7 48t-20.5 34.5t-40.5 11q-31 0 -46.5 -21.5t-21.5 -53t-6 -68.5v-70v-688h-178z" />
    <glyph glyph-name="o" unicode="o" horiz-adv-x="659" 
d="M35 522q0 150 24.5 252.5t65.5 164.5t94 90t111 28q53 0 106 -25.5t95 -87t68 -165t26 -257.5q0 -168 -31 -272.5t-76 -162.5t-96 -79.5t-90 -21.5q-8 0 -34 3t-58.5 18.5t-68.5 48t-66.5 93t-50 150.5t-19.5 223zM231 522q0 -41 1.5 -78.5t3.5 -74.5t4 -79t10 -77
t26.5 -58.5t51.5 -23.5q43 0 63.5 43t28.5 104.5t8 129v116.5v111.5t-7 127t-27.5 103.5t-63.5 43q-39 0 -59.5 -41t-29 -99t-9.5 -124.5t-1 -122.5z" />
    <glyph glyph-name="p" unicode="p" horiz-adv-x="677" 
d="M94 -446v1488h154l20 -84q25 45 62 74q33 25 79 25h13q37 -2 73.5 -22.5t67.5 -72t52.5 -137.5t25.5 -217q2 -45 2 -87q0 -122 -13 -212q-18 -121 -50.5 -192.5t-75.5 -102.5q-40 -28 -79 -28h-5q-55 4 -85 38.5t-52 77.5v-548h-189zM283 317q0 -12 1 -23t1 -22
q2 -20 3 -39.5t11 -35.5q10 -14 23.5 -25.5t29.5 -11.5q4 -1 9 -1l27 9q18 12 28 29q10 16 12 35.5t2 39.5q4 37 5 72t3 70q1 48 1 96.5t-1 97.5q-2 39 -4 90.5t-10 95.5t-25.5 74.5t-50.5 30.5q-29 0 -42 -20.5t-18 -51t-5 -66.5v-65v-379z" />
    <glyph glyph-name="q" unicode="q" horiz-adv-x="626" 
d="M36 504v43q0 41 1 74q4 129 24.5 211.5t50 132t65.5 70t73 22.5h11q26 0 47 -7q24 -10 41.5 -25t27.5 -32.5t16 -31.5h4l23 81h149v-1448h-184v496h-6q-4 -16 -13.5 -33.5t-24.5 -33t-37.5 -25.5t-53.5 -12h-6q-49 0 -84 30q-37 33 -61.5 87.5t-38 123t-18.5 140
t-6 137.5zM233 430q0 -41 1.5 -85t8.5 -81t23 -60q16 -22 46 -22h5q29 2 43.5 22.5t19.5 50.5t5 63.5v64.5v324v61.5t-5 62t-18.5 50t-39.5 22.5h-4q-30 0 -46 -25q-18 -28 -26 -71t-10.5 -93t-2.5 -93q-1 -47 -1 -95t1 -96z" />
    <glyph glyph-name="r" unicode="r" horiz-adv-x="466" 
d="M49 0v1042l156 -2l20 -55h2q20 29 44 49.5t65 22.5q6 1 12 1q32 0 56 -18q30 -22 47 -55l-99 -147q-4 8 -8 20q-6 10 -10 25q-16 29 -45 28q-23 -2 -35 -20.5t-18.5 -44t-7.5 -55t-1 -54.5v-737h-178z" />
    <glyph glyph-name="s" unicode="s" horiz-adv-x="528" 
d="M31 324l151 32v-18t2 -16q0 -16 1 -32t3 -32q2 -20 6.5 -41.5t12.5 -39t21.5 -30t35.5 -12.5q26 -1 46 25q17 22 17 60q0 8 -1 16q-2 29 -14.5 59.5t-30 59t-37 54t-33.5 48.5q-16 20 -30.5 38.5t-30.5 39.5q-51 70 -83 132t-32 146q4 104 61.5 172t151.5 72h11
q60 1 102 -19q45 -22 73.5 -62t41.5 -95.5t20 -116.5l-152 -33q0 10 -1 16.5t-3 16.5q-4 18 -5 33.5t-5 29.5q-6 31 -20.5 58.5t-43.5 25.5q-16 0 -34.5 -14t-18.5 -57q0 -51 25.5 -97.5t76.5 -105.5q20 -25 40 -49.5t38 -50.5q49 -67 80 -139q27 -63 28 -139q0 -10 -1 -19
q-2 -55 -21.5 -101.5t-52.5 -80t-75 -53t-91 -19.5q-57 0 -104 26.5t-79 72.5q-33 45 -45 107q-7 33 -6 68q0 31 5 64z" />
    <glyph glyph-name="t" unicode="t" horiz-adv-x="432" 
d="M16 895v156h88v297h183v-297h129v-156h-129v-619q0 -25 1 -53t10 -53t28.5 -43t56.5 -21l-51 -120q-17 -1 -32 -1q-63 -1 -100 19q-46 24 -67.5 71.5t-25 112t-3.5 136.5v571h-88z" />
    <glyph glyph-name="u" unicode="u" horiz-adv-x="653" 
d="M70 274v768h194v-755v-53.5t6 -48t19.5 -34t40.5 -10.5q33 0 48 20.5t21.5 52.5t6.5 68.5v69.5v690h180v-1042h-146l-30 80l-4 2q-33 -61 -71 -78.5t-85 -17.5q-53 0 -88 17t-55.5 52t-28.5 89.5t-8 129.5z" />
    <glyph glyph-name="v" unicode="v" horiz-adv-x="620" 
d="M16 1042h185l106 -649l107 649h186l-211 -1042h-162z" />
    <glyph glyph-name="w" unicode="w" horiz-adv-x="903" 
d="M29 1036h182l78 -579l96 579h135l101 -579l75 579h181l-181 -1042h-147l-96 592l-97 -592h-145z" />
    <glyph glyph-name="x" unicode="x" horiz-adv-x="651" 
d="M25 0l200 549l-170 493h187l84 -284l88 284h192l-178 -493l199 -549h-199l-102 342l-113 -342h-188z" />
    <glyph glyph-name="y" unicode="y" horiz-adv-x="630" 
d="M29 -264q16 -2 40.5 3t49 28.5t44 70.5t23.5 131l2 31l-159 1042h180l84 -831l133 831h182l-243 -1128q-6 -31 -16.5 -74t-26 -88t-39 -86t-57 -66.5t-78.5 -30.5q-7 -1 -15 -1q-39 0 -88 20z" />
    <glyph glyph-name="z" unicode="z" horiz-adv-x="546" 
d="M27 0l264 899h-264v143h493l-272 -899h241v-143h-462z" />
    <glyph glyph-name="braceleft" unicode="{" horiz-adv-x="475" 
d="M74 684v55v56q51 0 59 34.5t8 92.5v323q0 82 27 130t65.5 73t83.5 30t82 -1v-109q-29 0 -44 -11t-22 -31.5t-8 -48.5t-1 -56v-293v-52.5t-8.5 -57t-25.5 -49.5t-52 -30q35 -10 52 -31.5t25.5 -49t8.5 -56.5v-51v-295q0 -29 1 -55.5t8 -47t22.5 -32.5t43.5 -12v-109
q-37 -4 -82 1t-83.5 29.5t-65.5 73t-27 129.5v324q0 57 -8 92t-59 35z" />
    <glyph glyph-name="bar" unicode="|" horiz-adv-x="286" 
d="M74 -377v2116h137v-2116h-137z" />
    <glyph glyph-name="braceright" unicode="}" horiz-adv-x="475" 
d="M74 0v109q27 0 41 12t21 32.5t8 47t1 55.5v295q0 23 1 51.5t9.5 56t27 50t53.5 30.5q-35 8 -53.5 30t-27 49.5t-9.5 57t-1 52.5v293q0 29 -1 55.5t-8 46.5t-21.5 32.5t-40.5 12.5v109q37 6 81 1t82.5 -30t64.5 -73t26 -130v-323q0 -55 10 -91t61 -36v-56v-55
q-51 2 -61 -34t-10 -93v-324q0 -82 -26 -130t-64.5 -72.5t-82.5 -29.5t-81 -1z" />
    <glyph glyph-name="asciitilde" unicode="~" horiz-adv-x="794" 
d="M74 1245v141q18 10 45.5 24.5t59.5 26t67 19.5t67 6q23 0 44.5 -5t41.5 -13q23 -8 44.5 -17.5t45.5 -19.5q18 -8 39 -13t43 -5q14 0 35 5t42.5 12t40 14t30.5 14v-146q-23 -12 -55.5 -25.5t-59.5 -17.5q-53 -8 -105.5 8.5t-80.5 26.5q-29 12 -58 20q-16 8 -34.5 13.5
t-36.5 5.5q-23 0 -43.5 -5t-40.5 -16q-20 -8 -41 -15t-39 -15q-14 -6 -26.5 -12.5t-24.5 -10.5z" />
    <glyph glyph-name="uni00A0" unicode="&#xa0;" horiz-adv-x="741" 
 />
    <glyph glyph-name="sterling" unicode="&#xa3;" horiz-adv-x="638" 
d="M96 0v1462h226v-1274h299v-188h-525z" />
    <glyph glyph-name="copyright" unicode="&#xa9;" horiz-adv-x="1191" 
d="M74 25v567v565q0 51 2 102.5t15 95.5t40 74.5t76 43.5q20 6 38.5 7t41.5 1q18 2 35.5 2h33.5h240h238h35.5t35.5 -2q18 0 39 -1t39 -7q49 -12 76.5 -44t41 -75t15.5 -94.5t2 -102.5v-565v-567q0 -51 -2 -101.5t-15.5 -93.5t-41 -76t-76.5 -45q-18 -4 -38.5 -5t-39.5 -1
q-18 -2 -35.5 -2h-35.5h-238h-240h-33.5t-35.5 2q-23 0 -41.5 1t-38.5 5q-49 12 -76 45t-40 76t-15 93t-2 102zM240 16v-43q2 -10 2 -22t2 -23q6 -68 45 -84t106 -16h201h201q68 0 104.5 16.5t46.5 83.5q2 10 2 22.5v22.5q2 16 2 28.5v29.5v561v559v30.5t-2 30.5v20.5
t-2 20.5q-10 68 -47 84.5t-104 16.5h-201h-201q-74 0 -109.5 -17.5t-41.5 -83.5q-2 -10 -2 -20t-2 -21v-61v-578v-557zM389 170v870q0 25 1 55.5t14.5 58.5t44 46.5t92.5 18.5h118q61 0 93 -19.5t45.5 -47.5t14.5 -58.5t1 -53.5v-229h-172v268q0 18 -12.5 28.5t-26.5 10.5
q-16 2 -28.5 -9t-12.5 -30v-956q0 -16 12.5 -27.5t28.5 -11.5q14 0 26.5 11t12.5 28v307h172v-260q0 -23 -1 -53.5t-15.5 -58t-45 -47t-89.5 -19.5h-121q-25 0 -51.5 2t-49 19.5t-37 53t-14.5 103.5z" />
    <glyph glyph-name="guillemotleft" unicode="&#xab;" 
d="M98 465l238 364h98l-180 -362l170 -369h-105zM373 465l196 297h90l-153 -295l145 -299h-82z" />
    <glyph glyph-name="uni00AD" unicode="&#xad;" horiz-adv-x="407" 
d="M74 451v165h260v-165h-260z" />
    <glyph glyph-name="registered" unicode="&#xae;" horiz-adv-x="892" 
d="M74 586v346v348q0 72 15 125t81 68q14 4 28.5 4h26.5q14 0 25.5 1t25.5 1h168h168q14 0 25.5 -1t24.5 -1h30.5t26.5 -4q35 -6 54.5 -23.5t29.5 -43.5t12 -57.5t2 -68.5v-348v-346q0 -37 -2 -69t-12 -57.5t-29.5 -43t-54.5 -23.5q-12 -4 -26.5 -4h-30.5h-50h-168h-168h-51
h-26.5t-28.5 4q-35 6 -53.5 24.5t-28.5 45t-12 57.5t-2 66zM201 616q0 -53 6 -79.5t19.5 -37t35 -11.5t51.5 -1h131h134q49 0 75.5 10.5t32.5 53.5q2 8 2 15v14q0 10 1 19t1 19v314v295q0 41 -1 69.5t-11 47t-33.5 26.5t-66.5 8h-134h-131q-43 0 -66.5 -7t-33.5 -25.5
t-11 -47t-1 -71.5v-314v-297zM291 582v682h192q43 0 65.5 -9.5t33 -23.5t11.5 -31.5t1 -32.5v-229v-21.5t-5 -28t-17.5 -25.5t-34.5 -17l81 -264h-126l-70 252l-8 -3v-249h-123zM414 895h16q20 0 31.5 12.5t11.5 28.5v233q0 23 -13.5 29t-27.5 6h-18v-309z" />
    <glyph glyph-name="guillemotright" unicode="&#xbb;" 
d="M98 762h90l199 -297l-199 -297h-82l144 299zM322 829h100l237 -364l-221 -367h-106l170 369z" />
    <glyph glyph-name="afii10023" unicode="&#x401;" 
d="M127 0v1462h549v-190h-322v-416h242v-194h-242v-474h361v-188h-588zM137 1647q0 14 1 34.5t9.5 39t25.5 33.5t48 22q25 6 51 0q31 -6 48.5 -20.5t24.5 -33t9 -39t2 -36.5t-2 -37t-9 -39.5t-24.5 -32.5t-48.5 -20q-27 -6 -51 0q-31 6 -48 20t-25.5 33.5t-9.5 39.5t-1 36z
M457 1647q0 14 2 34.5t10 39t25.5 33.5t48.5 22q23 6 49 0q31 -6 48 -20.5t25.5 -33t10.5 -39t2 -36.5t-2 -37t-10.5 -39.5t-25.5 -32.5t-48 -20q-27 -6 -49 0q-31 6 -48.5 20t-25.5 33.5t-10 39.5t-2 36z" />
    <glyph glyph-name="afii10017" unicode="&#x410;" horiz-adv-x="821" 
d="M35 0l268 1462h234l258 -1462h-230l-41 279h-221l-47 -279h-221zM328 463h170l-86 575z" />
    <glyph glyph-name="afii10018" unicode="&#x411;" horiz-adv-x="835" 
d="M127 0v1462h559v-190h-332v-328q147 -2 234.5 -48t132.5 -116.5t57.5 -154.5t12.5 -158q0 -35 -4.5 -84t-18.5 -101.5t-42 -102.5t-77 -90t-120.5 -64.5t-174.5 -24.5h-227zM354 188q31 -4 64 5.5t59.5 40t45 88t18.5 151.5t-17.5 151.5t-45 90.5t-61.5 44t-63 11v-582z
" />
    <glyph glyph-name="afii10019" unicode="&#x412;" horiz-adv-x="833" 
d="M127 0v1462h227q78 0 147.5 -12t123 -48t86 -98.5t39.5 -162.5q6 -119 -41 -214.5t-152 -131.5q106 -23 167.5 -109t63.5 -260q2 -160 -47 -247t-118.5 -127t-144.5 -46t-124 -6h-227zM354 190q23 -2 53.5 5.5t59.5 32t48.5 72.5t21.5 130q2 88 -14.5 143.5t-44 85
t-60.5 39t-64 2.5v-510zM354 879q31 -4 54.5 3t41 18t27.5 24.5t17 23.5q16 29 18 64t2 69q-2 35 -4 68t-16 61q-16 29 -37 44.5t-40.5 20.5t-35.5 5t-27 -2v-399z" />
    <glyph glyph-name="afii10020" unicode="&#x413;" horiz-adv-x="677" 
d="M127 0v1462h526v-190h-299v-1272h-227z" />
    <glyph glyph-name="afii10021" unicode="&#x414;" horiz-adv-x="919" 
d="M29 225h96q20 139 33.5 268.5t21.5 236t12.5 183t6.5 111.5l16 438h565v-1237h111l-29 -661h-166l-34 436h-406l-41 -436h-160zM358 225h195v1047h-115l-16 -283q-2 -31 -3 -61.5t-3 -63.5q-4 -57 -7 -112.5t-8 -114.5q-6 -94 -17 -208t-26 -204z" />
    <glyph glyph-name="afii10022" unicode="&#x415;" 
d="M127 0v1462h549v-190h-322v-416h242v-194h-242v-474h361v-188h-588z" />
    <glyph glyph-name="afii10024" unicode="&#x416;" horiz-adv-x="1230" 
d="M29 0l18 117q45 -2 57.5 33.5t12.5 89.5v221q0 125 46 206t161 103q-63 14 -99.5 41t-54.5 61.5t-23.5 72.5t-5.5 75v201v40.5t-5 41t-20.5 29.5t-45.5 9l-23 123q18 6 47 13.5t64 8.5t69.5 -9.5t63 -38t47 -78.5t18.5 -131v-223q0 -57 14.5 -91t36 -51.5t48 -19.5
t49.5 2v616h219v-616q55 -10 85 9t43 49t16 59.5t3 42.5v223q0 80 18.5 131t47.5 78.5t63.5 38t69.5 9.5t64.5 -8.5t46.5 -13.5l-19 -123q-33 2 -48 -9t-21.5 -29.5t-5.5 -41t1 -40.5v-201q0 -39 -5 -78t-24.5 -72.5t-55 -60.5t-97.5 -39q115 -23 161 -103.5t46 -205.5v-221
q0 -53 12.5 -89t55.5 -34l20 -117q-27 -10 -61.5 -16.5t-81.5 -1.5q-61 6 -98 35.5t-56.5 66.5t-26 76t-6.5 65v252q0 39 -3 78t-17 69.5t-44 47t-83 10.5v-682h-219v682q-53 6 -83 -11.5t-44.5 -47t-17.5 -68.5t-3 -78v-252q0 -27 -5 -65.5t-23.5 -75.5t-55 -66.5
t-98.5 -35.5q-47 -4 -82 2t-63 16z" />
    <glyph glyph-name="afii10025" unicode="&#x417;" horiz-adv-x="714" 
d="M55 543l197 22q-2 -49 -1 -116.5t10 -128t29.5 -102.5t59.5 -42q10 0 33 12.5t37 61.5q8 43 8 83t2 83v87t-12 85q-10 35 -30.5 55.5t-45.5 29.5t-48.5 11t-41.5 0v172q59 -2 96 13.5t57.5 47t25.5 81t3 112.5q-2 25 -4 52.5t-8 51t-18.5 39t-32.5 15.5q-29 0 -47.5 -29
t-28.5 -72t-16.5 -90t-10.5 -82l-188 33q6 90 23.5 173t52 145.5t91 99.5t140.5 35q127 -2 202 -99.5t79 -271.5q0 -16 -2 -64.5t-19.5 -103.5t-56.5 -104.5t-113 -67.5q72 -20 112 -62t58.5 -93.5t21.5 -105.5t1 -97q-2 -37 -11.5 -108t-41 -140.5t-94 -122.5t-169.5 -59
q-25 -2 -58.5 2t-68 20t-68.5 52t-58.5 99.5t-38 158t-7.5 229.5z" />
    <glyph glyph-name="afii10026" unicode="&#x418;" horiz-adv-x="899" 
d="M123 0v1462h227v-721l199 420v301h227v-1462h-227v741l-199 -432v-309h-227z" />
    <glyph glyph-name="afii10027" unicode="&#x419;" horiz-adv-x="899" 
d="M123 0v1462h227v-721l199 420v301h227v-1462h-227v741l-199 -434v-307h-227zM174 1868l158 -31q6 -66 26.5 -118t85.5 -54q33 0 52.5 14.5t32 39t17.5 55t9 63.5l160 31q2 -57 -11.5 -118.5t-46 -112t-85 -82t-128.5 -31.5q-78 0 -130 31.5t-83.5 82t-45 111.5t-11.5 119
z" />
    <glyph glyph-name="afii10028" unicode="&#x41a;" horiz-adv-x="854" 
d="M127 0v1462h227v-614q45 -8 72 5t40 37.5t17 56.5t4 61v215q0 27 3.5 70.5t24 85.5t63.5 73t120 29q10 0 37 -1t66 -12l-21 -141q-25 0 -38 -10t-19 -25.5t-6 -33v-31.5v-223q0 -10 -3 -43t-19.5 -72t-50.5 -74t-97 -49q88 -14 143 -76.5t55 -157.5v-268v-58.5t6.5 -49
t20.5 -31.5t45 -6l10 -121q-43 -16 -98 -21.5t-104.5 16t-84 75t-34.5 153.5v311q0 31 -4 57.5t-19.5 47t-45 31t-83.5 6.5v-674h-227z" />
    <glyph glyph-name="afii10029" unicode="&#x41b;" horiz-adv-x="925" 
d="M35 129q49 27 80.5 60.5t49 76.5t25 97.5t9.5 119.5l37 979h565v-1462h-230v1253h-110l-35 -833q-4 -100 -32.5 -186.5t-76 -146.5t-112 -89t-139.5 -10z" />
    <glyph glyph-name="afii10030" unicode="&#x41c;" horiz-adv-x="1105" 
d="M123 0v1462h303l125 -712l127 712h303v-1462h-213v975h-10l-140 -975h-133l-141 975h-10v-975h-211z" />
    <glyph glyph-name="afii10031" unicode="&#x41d;" horiz-adv-x="897" 
d="M123 0v1462h227v-598h197v598h227v-1462h-227v674h-197v-674h-227z" />
    <glyph glyph-name="afii10032" unicode="&#x41e;" horiz-adv-x="798" 
d="M47 626.5v104.5v104.5t4 104.5q8 102 26.5 199.5t58.5 173.5t103.5 122t159.5 46t160 -46t102.5 -122t57 -173.5t26.5 -199.5q4 -53 4.5 -104.5t0.5 -104.5v-104.5t-5 -104.5q-8 -96 -25.5 -193.5t-56 -174t-102 -124.5t-162.5 -48q-100 0 -163.5 49t-102.5 125.5
t-56.5 173t-25.5 192.5q-4 53 -4 104.5zM300 517.5q1 -62.5 6 -126t16.5 -114t30 -82t48.5 -29.5q29 0 47.5 32.5t29.5 85t15.5 116t5.5 126t0 116.5t-1 89t1 89t0 116.5t-5.5 126t-15.5 116t-29.5 84t-47.5 33.5q-31 0 -49 -30.5t-29.5 -80.5t-16.5 -113.5t-6 -126t0 -120
t1 -94.5t-1 -94t0 -119.5z" />
    <glyph glyph-name="afii10033" unicode="&#x41f;" horiz-adv-x="897" 
d="M123 0v1462h651v-1462h-227v1272h-197v-1272h-227z" />
    <glyph glyph-name="afii10034" unicode="&#x420;" horiz-adv-x="825" 
d="M127 0v1462h197q74 0 153.5 -12t146 -60.5t110.5 -145.5t46 -267q2 -160 -38 -260.5t-102 -156.5t-139 -76.5t-147 -20.5v-463h-227zM354 633q27 0 61 10t62.5 45t47 100.5t16.5 176.5q-2 113 -22.5 177t-50.5 95t-60.5 36t-53.5 3v-643z" />
    <glyph glyph-name="afii10035" unicode="&#x421;" horiz-adv-x="724" 
d="M55 774q2 119 11.5 244t41 227.5t93 169t170.5 66.5q98 2 157.5 -53.5t90 -135.5t39 -170t1.5 -159l-200 -29v59.5t-2 59.5q-4 31 -7.5 61.5t-7.5 63.5q-2 20 -5 38.5t-15 34.5q-8 6 -16.5 11.5t-18.5 5.5q-10 2 -20.5 -4.5t-16.5 -12.5q-14 -16 -18 -34.5t-8 -40.5
q-2 -35 -6.5 -68t-8.5 -66q-6 -76 -7 -151.5t1 -153.5q0 -76 1 -150.5t7 -148.5q2 -25 4 -50.5t4 -53.5q2 -29 5.5 -58.5t21.5 -54.5q8 -10 18.5 -18t22.5 -8q10 -2 22.5 6t20.5 18q20 25 22.5 55.5t6.5 59.5q2 33 6 62.5t8 58.5q4 31 6 60.5t4 57.5l195 -24q2 -45 0 -104.5
t-12.5 -122t-31 -123t-54 -108.5t-82.5 -78.5t-117 -30.5q-121 -2 -188.5 73.5t-99.5 193.5t-37 258t-1 267z" />
    <glyph glyph-name="afii10036" unicode="&#x422;" horiz-adv-x="720" 
d="M29 1272v190h663v-190h-219v-1272h-227v1272h-217z" />
    <glyph glyph-name="afii10037" unicode="&#x423;" horiz-adv-x="794" 
d="M35 1462h237l131 -684l121 684h240l-287 -1218q-18 -80 -59 -137.5t-96.5 -89t-119 -37t-124.5 19.5l-15 150q78 -4 125.5 25.5t65.5 107.5l33 116z" />
    <glyph glyph-name="afii10038" unicode="&#x424;" horiz-adv-x="1124" 
d="M47 750q6 162 45 269t96.5 170.5t126 88.5t134.5 22v160h227v-160q66 2 134.5 -22.5t124.5 -88t94 -171t44 -268.5q6 -190 -30.5 -308t-97 -183.5t-133.5 -89.5t-136 -26v-143h-227v143q-63 2 -136 26t-134.5 89.5t-99.5 183t-32 308.5zM297 743q-4 -231 30.5 -339.5
t121.5 -112.5v870q-37 -4 -65 -28.5t-46.5 -74.5t-28.5 -127t-12 -188zM676 291q86 4 119.5 112.5t29.5 339.5q-4 219 -39.5 314.5t-109.5 103.5v-870z" />
    <glyph glyph-name="afii10039" unicode="&#x425;" horiz-adv-x="821" 
d="M29 0l270 768l-248 694h248l121 -420l117 420h241l-241 -694l254 -768h-242l-129 494l-148 -494h-243z" />
    <glyph glyph-name="afii10040" unicode="&#x426;" horiz-adv-x="897" 
d="M127 0v1462h227v-1274h199v1274h227v-1274h92l-32 -557h-158l-25 369h-530z" />
    <glyph glyph-name="afii10041" unicode="&#x427;" horiz-adv-x="849" 
d="M109 793v669h237v-649q0 -31 2 -61.5t11.5 -53t28 -36t50.5 -11.5q23 2 42.5 11.5t23.5 13.5v786h227v-1462h-227v512q-16 -8 -62.5 -22.5t-107.5 -10.5q-82 6 -128 43t-67.5 86t-25.5 99.5t-4 85.5z" />
    <glyph glyph-name="afii10042" unicode="&#x428;" horiz-adv-x="1312" 
d="M123 0v1462h227v-1274h191v1274h227v-1274h195v1274h225v-1462h-1065z" />
    <glyph glyph-name="afii10043" unicode="&#x429;" horiz-adv-x="1337" 
d="M127 0v1464h227v-1274h193v1274h227v-1274h191v1274h227l-2 -1274h123l-37 -563h-160l-29 373h-960z" />
    <glyph glyph-name="afii10044" unicode="&#x42a;" horiz-adv-x="964" 
d="M35 1272v190h457v-512q70 2 145.5 -19.5t139 -73.5t105.5 -141t44 -224q4 -258 -111 -375t-336 -117h-215v1272h-229zM492 195q53 -4 87.5 17t56 61t30 96.5t8.5 124.5q0 131 -40 203.5t-142 82.5v-585z" />
    <glyph glyph-name="afii10045" unicode="&#x42b;" horiz-adv-x="1257" 
d="M123 0v1462h227v-512q70 2 145.5 -19.5t139 -73.5t105.5 -141t46 -224q2 -258 -112.5 -375t-337.5 -117h-213zM350 195q53 -4 89 17t56.5 61t28.5 96.5t8 124.5q2 131 -37.5 203.5t-144.5 82.5v-585zM907 0v1462h228v-1462h-228z" />
    <glyph glyph-name="afii10046" unicode="&#x42c;" horiz-adv-x="829" 
d="M127 0v1462h227v-512q70 2 145.5 -19.5t139 -73.5t105.5 -141t44 -224q4 -258 -109.5 -375t-336.5 -117h-215zM354 195q53 -4 89 17t56.5 61t29 96.5t8.5 124.5q0 131 -39 202.5t-144 83.5v-585z" />
    <glyph glyph-name="afii10047" unicode="&#x42d;" horiz-adv-x="714" 
d="M55 539l195 16q2 -14 2 -28.5t2 -28.5q2 -31 2 -59.5t2 -57.5t5 -60.5t9.5 -59.5t19.5 -47t38 -21q12 -2 29.5 9t33 59t24.5 144.5t7 266.5q-51 4 -113.5 -1t-117.5 -18v224q12 -2 22 -4.5t23 -4.5q20 -2 39.5 -3t39.5 -5q16 -2 35 -2h39h15.5t17.5 2q4 76 2 149.5
t-9 132t-22.5 95.5t-38.5 39q-10 0 -25.5 -11.5t-27.5 -43.5q-10 -27 -13 -53.5t-7 -55.5q-4 -35 -9.5 -71.5t-9.5 -75.5l-190 34q0 125 25.5 216.5t65.5 149.5t91 87t104 29q76 2 129.5 -34t88 -96.5t53 -137t28 -159.5t10.5 -163t1 -143q0 -61 -4 -143.5t-16.5 -167.5
t-35 -168t-59.5 -147.5t-93 -103t-136 -36.5q-66 2 -121 35.5t-93 102t-54.5 173t-2.5 246.5z" />
    <glyph glyph-name="afii10048" unicode="&#x42e;" horiz-adv-x="1198" 
d="M127 0v1462h227v-600h109q2 106 16.5 217t51 200t103 145.5t175.5 56.5q86 0 145.5 -37t97.5 -98.5t58 -140.5t29.5 -161.5t11.5 -164.5t2 -148t-1 -146.5t-11.5 -163.5t-30.5 -163t-58 -141.5t-97.5 -98t-145.5 -36.5q-68 0 -131.5 29.5t-112.5 107.5t-77.5 211
t-24.5 342h-109v-672h-227zM707 637q0 -57 1 -119.5t7 -126t17 -114t30.5 -82t48.5 -29.5q27 0 45 31.5t29.5 81t16.5 111t7 123.5t2 119.5v98.5v98.5t-1 120t-6 124t-16 110.5t-29.5 79.5t-47.5 32.5q-31 0 -49.5 -30.5t-30.5 -80.5t-17 -112.5t-6 -126t-1 -121v-94.5v-94z
" />
    <glyph glyph-name="afii10049" unicode="&#x42f;" horiz-adv-x="847" 
d="M35 0l14 123q53 4 65.5 35.5t12.5 93.5v252q0 76 22.5 122t54.5 71.5t66.5 35.5t57.5 12q-109 25 -172.5 116t-65.5 218q0 96 25.5 163t66.5 109t90.5 64.5t95.5 33.5t82.5 12t51.5 1h227v-1462h-227v645q-18 2 -43 1t-47.5 -15.5t-38 -45t-15.5 -87.5v-248
q0 -133 -49 -195.5t-135 -72.5q-35 -4 -73 2t-66 16zM334 1055q4 -117 52 -175.5t116 -54.5v453q-53 0 -86 -19.5t-51.5 -52t-24.5 -72.5t-6 -79z" />
    <glyph glyph-name="afii10065" unicode="&#x430;" horiz-adv-x="675" 
d="M35 221q-12 98 13.5 174t76.5 128t120.5 80t147.5 32v160q0 57 -23.5 77.5t-39.5 20.5q-33 2 -59.5 -47t-28.5 -135l-172 39q0 63 19.5 119.5t56 98.5t88 65.5t114.5 23.5q104 0 171 -68.5t67 -197.5v-533q0 -59 7 -104t50 -82l-72 -86q-20 4 -59 21.5t-86 64.5
q-25 -33 -49.5 -50.5t-47 -25.5t-41 -9t-32.5 1q-92 6 -148.5 70.5t-72.5 162.5zM244 301q0 -53 10 -84t24.5 -47t30 -21.5t25.5 -5.5q25 0 37 12.5t17 29t5 36v33.5v244q-37 2 -65.5 -14.5t-47 -44t-27.5 -63.5t-9 -75z" />
    <glyph glyph-name="afii10066" unicode="&#x431;" horiz-adv-x="669" 
d="M35 516q-4 199 11 345.5t46 248.5t79 167.5t110 102.5q31 18 65.5 32.5t69.5 27.5q45 18 86 41.5t69 70.5l64 -30q-2 -61 -21.5 -122t-81.5 -112q-27 -20 -57.5 -32.5t-60.5 -28.5q-61 -29 -106.5 -67t-75 -84t-46 -96t-22.5 -101q8 27 22.5 58.5t38 58t54 45t71.5 20.5
q88 4 142.5 -46t84 -131t39 -178.5t9.5 -187.5q0 -86 -8.5 -181t-39 -174t-88 -130t-155.5 -47q-102 4 -160.5 65.5t-89.5 145.5t-40 172t-9 147zM232 399.5q-1 -65.5 6.5 -122t27 -95.5t62.5 -41q45 0 65.5 39t28.5 95.5t7 122t-1 120.5q0 57 1 126t-6 127t-28.5 96
t-64.5 36q-47 0 -71.5 -50.5t-18.5 -107.5q-6 -115 -7 -227q0 -53 -1 -118.5z" />
    <glyph glyph-name="afii10067" unicode="&#x432;" horiz-adv-x="657" 
d="M94 0v1042h185q31 0 81 -1t99 -21.5t88 -67.5t47 -141q6 -84 -32 -152.5t-116 -95.5q66 -23 102 -62.5t51 -82.5t17 -80t2 -51q-4 -94 -34.5 -150.5t-75.5 -87.5t-94 -40t-86 -9h-234zM279 152q45 -6 73.5 7t43 36.5t19.5 56.5t5 67q0 61 -16.5 95.5t-39 50.5t-47 19
t-38.5 1v-333zM279 625q41 -8 81.5 21.5t45.5 111.5q2 55 -12.5 85.5t-36 44t-44 15.5t-34.5 0v-278z" />
    <glyph glyph-name="afii10068" unicode="&#x433;" horiz-adv-x="534" 
d="M94 0v1042h416v-155h-231v-887h-185z" />
    <glyph glyph-name="afii10069" unicode="&#x434;" horiz-adv-x="692" 
d="M25 152h59q12 33 18 61q6 35 10.5 68.5t8.5 68.5q4 41 8 79t8 79q4 47 5 94t5 94q2 57 3.5 115.5t3.5 118.5q2 27 4 55.5t4 56.5h436v-890h70l-19 -404h-137l-16 252h-297l-21 -252h-139zM274 152h136v739h-80q-2 -27 -2 -51.5t-2 -51.5q-2 -39 -2 -77.5t-2 -77.5
q-4 -80 -7.5 -140.5t-8.5 -113.5t-13 -106.5t-19 -120.5z" />
    <glyph glyph-name="afii10070" unicode="&#x435;" horiz-adv-x="602" 
d="M35 502q0 172 24.5 280.5t64.5 170t88 83t95 21.5t98.5 -24.5t91.5 -90t59 -179.5t5 -290h-317q-6 -86 -1 -145.5t15 -97t25.5 -55t31.5 -19.5q23 0 38.5 24.5t24.5 59t13 72.5t8 63l162 -25q-4 -119 -32.5 -190.5t-66.5 -110.5t-79 -51t-72 -12q-86 0 -140 43t-84 114.5
t-41 164.5t-11 194zM247 682.5q-1 -29.5 1 -57.5h129q10 141 -10.5 208.5t-53.5 67.5q-23 0 -32 -17.5t-13 -25.5q-12 -29 -15 -58.5t-5 -58.5q0 -29 -1 -58.5z" />
    <glyph glyph-name="afii10072" unicode="&#x436;" horiz-adv-x="974" 
d="M27 6l12 92q4 2 9 2t11 2q20 4 29 9q10 10 13 31.5t3 33.5v219q0 20 5.5 44t23 44.5t49 37t84.5 22.5q-53 10 -83.5 31.5t-45 48t-17.5 53t-3 47.5v162q0 25 -7.5 42t-48.5 21v94q20 8 60.5 15.5t79.5 -5t67.5 -53.5t28.5 -127v-147q0 -14 2 -34.5t11 -39t26.5 -31
t50.5 -10.5l2 432h197v-432q33 -4 52 9.5t27.5 32t10.5 39t2 34.5v147q0 86 28.5 127t68.5 53.5t80 5.5t63 -16v-94q-45 -4 -52.5 -21.5t-7.5 -41.5v-162q0 -20 -3 -47t-16.5 -53.5t-43 -48t-82.5 -31.5q49 -6 79.5 -20.5t48 -35t24.5 -45t7 -47.5v-219q0 -10 4.5 -32.5
t14.5 -32.5q6 -4 29 -9q4 -2 8 -2t8 -2l14 -92q-25 -10 -46 -14t-54 -6q-14 0 -43 2t-57.5 16t-50 45t-21.5 88v250q0 6 -1 23.5t-10.5 35t-27.5 28.5t-53 7v-481h-199v479q-35 4 -52.5 -7t-26.5 -27.5t-10 -34t-1 -23.5v-250q0 -55 -20.5 -86t-49 -45t-57.5 -17t-43 -3
q-33 2 -54.5 6t-45.5 14z" />
    <glyph glyph-name="afii10073" unicode="&#x437;" horiz-adv-x="587" 
d="M35 395l178 23v-39t2 -41q2 -23 3 -46.5t5 -49.5q0 -6 3 -18.5t10.5 -25t19.5 -21.5t31 -9q25 0 36 18.5t16 46t6 58.5t1 57q2 35 0 61.5t-13 45t-37 30t-73 13.5v129q74 -4 103.5 26.5t31.5 108.5q2 74 -15 97.5t-34 25.5q-12 2 -26.5 -6.5t-26.5 -30.5q-14 -31 -20 -72
q-4 -18 -7.5 -35.5t-5.5 -35.5l-166 22q2 70 22.5 130.5t54.5 104.5t81 69.5t102 25.5q94 4 161 -64.5t71 -197.5q2 -68 -13.5 -112t-38 -69.5t-46 -38t-37.5 -16.5q14 -6 39.5 -19.5t49 -43t38 -79.5t8.5 -130q-6 -84 -29.5 -141.5t-59.5 -92.5t-79 -51t-88 -16
q-82 0 -133 37.5t-79 96t-37 131.5t-9 144z" />
    <glyph glyph-name="afii10074" unicode="&#x438;" horiz-adv-x="698" 
d="M94 0v1042h189v-471l133 310v161h190v-1042h-190v522l-133 -303v-219h-189z" />
    <glyph glyph-name="afii10075" unicode="&#x439;" horiz-adv-x="698" 
d="M94 0v1042h189v-471l133 310v161h190v-1042h-190v522l-133 -303v-219h-189zM147 1462l140 -32q-4 -41 2 -65t16 -36t22.5 -16t22.5 -4q8 0 22.5 4t26 16t17.5 36t0 65l133 32q14 -61 4 -111.5t-39 -87t-72 -57t-92 -20.5q-35 0 -73.5 12t-71.5 44t-50.5 85t-7.5 135z" />
    <glyph glyph-name="afii10076" unicode="&#x43a;" horiz-adv-x="661" 
d="M94 0v1042h189v-417q14 -2 33.5 1t36 15t28.5 34.5t12 63.5v146q0 82 25.5 122t62.5 50t76 1t68 -22l-17 -100q-27 -2 -31 -21.5t-4 -52.5v-151q0 -41 -16 -70t-39.5 -46t-48.5 -26.5t-41 -13.5q78 -18 111.5 -50t33.5 -110v-192q0 -45 3.5 -71t48.5 -28l12 -106
q-92 -27 -141.5 -9.5t-72 52.5t-26.5 73t-4 54v201q0 37 -11 59.5t-27.5 35.5t-36 16t-35.5 1v-481h-189z" />
    <glyph glyph-name="afii10077" unicode="&#x43b;" horiz-adv-x="702" 
d="M25 117q59 39 76.5 81t23.5 76q6 33 8 64t6 65q2 18 3 38t1 38l27 563h438v-1042h-186v887h-80l-20 -455q-4 -90 -15.5 -174t-40 -146.5t-80 -98.5t-135.5 -27z" />
    <glyph glyph-name="afii10078" unicode="&#x43c;" horiz-adv-x="874" 
d="M94 1042h234l104 -507l117 507h231v-1042h-168v668l-110 -668h-125l-111 668v-668h-170z" />
    <glyph glyph-name="afii10079" unicode="&#x43d;" horiz-adv-x="692" 
d="M94 0v1042h187v-411h131l2 411h184v-1042h-184l-2 475h-131v-475h-187z" />
    <glyph glyph-name="afii10080" unicode="&#x43e;" horiz-adv-x="659" 
d="M35 522q0 150 24.5 252.5t65.5 164.5t94 90t111 28q53 0 106 -25.5t95 -87t68 -165t26 -257.5q0 -168 -31 -272.5t-76 -162.5t-96 -79.5t-90 -21.5q-8 0 -34 3t-58.5 18.5t-68.5 48t-66.5 93t-50 150.5t-19.5 223zM231 522q0 -41 1.5 -78.5t3.5 -74.5t4 -79t10 -77
t26.5 -58.5t51.5 -23.5q43 0 63.5 43t28.5 104.5t8 129v116.5v111.5t-7 127t-27.5 103.5t-63.5 43q-39 0 -59.5 -41t-29 -99t-9.5 -124.5t-1 -122.5z" />
    <glyph glyph-name="afii10081" unicode="&#x43f;" horiz-adv-x="702" 
d="M94 0v1042h514v-1042h-194v891h-127v-891h-193z" />
    <glyph glyph-name="afii10082" unicode="&#x440;" horiz-adv-x="677" 
d="M94 -446v1488h154l20 -84q25 45 62 74t92 25q37 -2 73.5 -22.5t67.5 -72t52.5 -137.5t25.5 -217q6 -178 -11.5 -299t-50 -192.5t-75.5 -102t-84 -28.5q-55 4 -85 38.5t-52 77.5v-548h-189zM283 317q0 -12 1 -23t1 -22q2 -20 3 -39.5t11 -35.5q10 -14 23.5 -25.5
t29.5 -11.5q18 -4 36 8t28 29q10 16 12 35.5t2 39.5q4 37 5 72t3 70q2 96 0 194q-2 39 -4 90.5t-10 95.5t-25.5 74.5t-50.5 30.5q-29 0 -42 -20.5t-18 -51t-5 -66.5v-65v-379z" />
    <glyph glyph-name="afii10083" unicode="&#x441;" horiz-adv-x="571" 
d="M35 537q0 94 10 184t35.5 162.5t73 120t125.5 53.5q39 4 83 -10.5t80.5 -56.5t61 -113.5t24.5 -184.5l-170 -30q0 25 -2 62.5t-9 74.5t-19.5 63.5t-34.5 24.5q-25 -2 -37 -46t-17.5 -102.5t-5.5 -117v-84.5v-97.5t6.5 -124t20.5 -107.5t43 -46q23 0 37 26.5t21.5 65.5
t10.5 79t3 68l162 -20q4 -100 -14.5 -174t-52.5 -123t-78 -73.5t-93 -24.5q-90 0 -142.5 55t-79 138t-34.5 179.5t-8 178.5z" />
    <glyph glyph-name="afii10084" unicode="&#x442;" horiz-adv-x="565" 
d="M25 891v151h514v-151h-166v-891h-193v891h-155z" />
    <glyph glyph-name="afii10085" unicode="&#x443;" horiz-adv-x="630" 
d="M29 -264q16 -2 40.5 3t49 28.5t44 70.5t23.5 131l2 31l-159 1042h180l84 -831l133 831h182l-243 -1128q-6 -31 -16.5 -74t-26 -88t-39 -86t-57 -66.5t-78 -30.5t-103.5 19z" />
    <glyph glyph-name="afii10086" unicode="&#x444;" horiz-adv-x="1001" 
d="M35 598q8 135 29.5 225t52 142.5t69.5 73t82 20.5q35 0 75 -20.5t65 -67.5v506h184v-506q23 45 60.5 66.5t76.5 21.5q35 0 74 -17.5t71.5 -68.5t57 -141.5t31.5 -233.5v-89t-6.5 -127t-19.5 -140.5t-39 -129t-65.5 -93t-97.5 -33.5q-43 2 -70.5 15t-43 30.5t-21.5 33
t-8 21.5v-549h-186l2 549q-16 -51 -57.5 -75.5t-86.5 -24.5q-70 0 -116 63.5t-72.5 157.5t-35.5 200.5t-5 190.5zM244 545q0 -47 2 -96.5t6 -96.5q4 -29 9 -56.5t11 -57.5q2 -16 5.5 -29.5t11.5 -28.5q8 -8 20.5 -16t24.5 -8q31 0 46 18.5t21.5 48t6.5 64.5v65v398
q0 18 -2.5 43.5t-9.5 47t-21.5 38t-40.5 16.5q-47 0 -67.5 -79t-22.5 -271zM592 352q0 -27 1 -53.5t3 -54.5q2 -16 3 -30.5t9 -27.5q10 -12 24.5 -21t29.5 -9q33 2 51 46t27.5 105.5t11.5 127t2 108.5q0 104 -6.5 171.5t-18.5 107.5t-28.5 56.5t-36.5 16.5q-41 -2 -60.5 -46
t-11.5 -97v-400z" />
    <glyph glyph-name="afii10087" unicode="&#x445;" horiz-adv-x="651" 
d="M25 0l200 549l-170 493h187l84 -284l88 284h192l-178 -493l199 -549h-199l-102 342l-113 -342h-188z" />
    <glyph glyph-name="afii10088" unicode="&#x446;" horiz-adv-x="710" 
d="M94 0v1042h187v-890h131v890h190v-890h84l-24 -410h-140l-18 258h-410z" />
    <glyph glyph-name="afii10089" unicode="&#x447;" horiz-adv-x="665" 
d="M80 594v448h188v-421v-47.5t4 -41t17.5 -31t38.5 -16.5q16 -2 33.5 3.5t27.5 11.5v542h182v-1042h-182v362q-10 -4 -38.5 -13t-63.5 -11q-78 -4 -119 28.5t-61.5 76.5t-23.5 88t-3 63z" />
    <glyph glyph-name="afii10090" unicode="&#x448;" horiz-adv-x="1015" 
d="M94 0v1042h191v-890h125v890h194v-890h125v890h195v-1042h-830z" />
    <glyph glyph-name="afii10091" unicode="&#x449;" horiz-adv-x="1038" 
d="M94 0v1042h191v-890h127v890h190v-890h131v890h191v-890h90l-15 -406h-137l-28 254h-740z" />
    <glyph glyph-name="afii10092" unicode="&#x44a;" horiz-adv-x="741" 
d="M25 891v151h354v-366q68 -4 126 -22.5t101 -57.5t68.5 -99.5t30.5 -148.5q4 -94 -21 -159.5t-70 -107.5t-106.5 -61.5t-128.5 -19.5h-191v891h-163zM379 156q72 4 97.5 48t23.5 144q0 72 -24.5 123t-96.5 59v-374z" />
    <glyph glyph-name="afii10093" unicode="&#x44b;" horiz-adv-x="983" 
d="M94 0v1042h189v-366q68 -4 126 -22.5t101 -57.5t68.5 -99.5t29.5 -148.5q4 -94 -21.5 -159.5t-70.5 -107.5t-105.5 -61.5t-127.5 -19.5h-189zM283 156q72 4 98.5 48t21.5 144q0 37 -5 67.5t-18 55.5t-37 40t-60 19v-374zM707 0v1042h186v-1042h-186z" />
    <glyph glyph-name="afii10094" unicode="&#x44c;" horiz-adv-x="643" 
d="M94 0v1042h189v-366q68 -4 126 -22.5t101 -57.5t68.5 -99.5t29.5 -148.5q4 -94 -21.5 -159.5t-70.5 -107.5t-105.5 -61.5t-127.5 -19.5h-189zM283 156q72 4 98.5 48t21.5 144q0 37 -5 67.5t-18 55.5t-37 40t-60 19v-374z" />
    <glyph glyph-name="afii10095" unicode="&#x44d;" horiz-adv-x="563" 
d="M35 362l162 23q2 -23 5 -59.5t10 -72.5t21.5 -62.5t36.5 -26.5q10 0 19.5 6t15.5 14q12 16 14.5 34t4.5 36q2 23 3 41t1 37v135q-43 2 -86 -1t-88 -9v168q86 -16 174 -13v125q0 23 -1 48.5t-6.5 49t-16.5 39t-30 17.5q-23 0 -45 -37t-32 -152l-162 23q-2 57 11 116.5
t42 107.5t75 78t111 30q82 0 132.5 -45t76 -118t34.5 -164t9 -183q0 -76 -5 -172t-29.5 -181t-75.5 -145.5t-142 -62.5q-78 -2 -125 43t-72.5 107.5t-33.5 126t-8 99.5z" />
    <glyph glyph-name="afii10096" unicode="&#x44e;" horiz-adv-x="1003" 
d="M94 0v1042h189v-405h94q2 47 16.5 118.5t48 138.5t89 115t141.5 48q70 0 119 -31t81.5 -79t51 -107.5t28 -118.5t11.5 -112.5t2 -86.5q0 -193 -37 -300t-86 -159.5t-98.5 -64.5t-71.5 -12q-74 0 -131.5 43t-95 113.5t-56 159.5t-12.5 181h-94v-483h-189zM571 443.5
q0 -37.5 2 -78.5q2 -35 5.5 -76t12.5 -77t26.5 -59.5t52.5 -23.5q43 0 63.5 43t27.5 104.5t7 129v116.5q0 47 1 113.5t-6 128t-27.5 104.5t-63.5 43q-41 0 -61.5 -41t-29 -100t-9.5 -125.5t-1 -122.5v-78.5z" />
    <glyph glyph-name="afii10097" unicode="&#x44f;" horiz-adv-x="688" 
d="M25 0l12 98q25 -4 38 4.5t19 23.5t8 34.5t2 42.5v129q0 33 3.5 61.5t17.5 51t43 42t80 37.5q-43 8 -75 32t-53.5 54.5t-31.5 67.5t-12 72q-2 80 24.5 136t65.5 91t83 50t79 15h268v-1042h-195v459q-41 6 -62.5 -6.5t-30.5 -33t-11 -43t-2 -34.5v-170q0 -68 -21.5 -104.5
t-51 -55t-58.5 -22.5t-43 -4q-29 0 -49.5 2t-46.5 12zM274 760q0 -47 14.5 -75t34 -42t41 -17t37.5 -3v282q-16 2 -38.5 -1t-42 -18.5t-33 -45t-13.5 -80.5z" />
    <glyph glyph-name="afii10071" unicode="&#x451;" horiz-adv-x="602" 
d="M35 502q0 172 24.5 280.5t64.5 170t88 83t95 21.5t98.5 -24.5t91.5 -90t59 -179.5t5 -290h-317q-6 -86 -1 -145.5t15 -97t25.5 -55t31.5 -19.5q23 0 38.5 24.5t24.5 59t13 72.5t8 63l162 -25q-4 -119 -32.5 -190.5t-66.5 -110.5t-79 -51t-72 -12q-86 0 -140 43t-84 114.5
t-41 164.5t-11 194zM88 1266q0 29 10.5 63.5t63.5 44.5q18 2 39 0q27 -4 41 -16t21 -28.5t9 -33t2 -30.5q0 -12 -1 -28.5t-8 -33t-22.5 -30t-41.5 -17.5q-20 -2 -39 0q-27 4 -41.5 16.5t-21.5 29t-9 33t-2 30.5zM247 682.5q-1 -29.5 1 -57.5h129q10 141 -10.5 208.5
t-53.5 67.5q-23 0 -32 -17.5t-13 -25.5q-12 -29 -15 -58.5t-5 -58.5q0 -29 -1 -58.5zM332 1266q0 12 1 28.5t8 32.5t21.5 28.5t43.5 18.5q18 2 38 0q27 -4 41.5 -17.5t21.5 -28.5t9 -32.5t2 -29.5q0 -14 -2 -30.5t-9 -33t-21.5 -29t-41.5 -16.5q-20 -6 -38 0
q-29 4 -43.5 17.5t-21.5 30t-8 33t-1 28.5z" />
    <glyph glyph-name="endash" unicode="&#x2013;" horiz-adv-x="1007" 
d="M74 678v139h858v-139h-858z" />
    <glyph glyph-name="emdash" unicode="&#x2014;" horiz-adv-x="1079" 
d="M29 641v147h1022v-147h-1022z" />
    <glyph glyph-name="quoteleft" unicode="&#x2018;" horiz-adv-x="315" 
d="M41 1248q10 71 34.5 141.5t57.5 134t64 104.5l69 -37q-23 -33 -52.5 -98.5t-45.5 -173.5q23 0 38 -9.5t25.5 -21.5t14.5 -25.5t6 -19.5q10 -37 8 -73.5t-15.5 -65.5t-37 -46.5t-57.5 -17.5q-41 0 -64 20.5t-39 63.5q-16 53 -6 124z" />
    <glyph glyph-name="quoteright" unicode="&#x2019;" horiz-adv-x="315" 
d="M47 1075q23 35 52.5 100.5t45.5 176.5q-25 0 -40 8t-24 20.5t-13.5 25.5t-6.5 21q-10 37 -8 74t15.5 64.5t37 45t58.5 17.5q74 0 102 -84q16 -53 6 -123.5t-34.5 -141.5t-58.5 -135.5t-64 -103.5z" />
    <glyph glyph-name="quotedblleft" unicode="&#x201c;" horiz-adv-x="755" 
d="M92 1082q10 71 34 142.5t56.5 135t63.5 102.5l69 -35q-23 -33 -52.5 -99t-47.5 -177q25 0 41 -8t25.5 -20.5t14.5 -26t7 -21.5q16 -76 -9.5 -137t-92.5 -64q-43 0 -66.5 22t-36.5 62q-16 53 -6 124zM435 1082q9 71 34 142.5t58.5 135t64.5 102.5l65 -35
q-18 -33 -47.5 -99t-48.5 -177q25 0 40 -8t24.5 -20.5t14.5 -26t5 -21.5q20 -76 -5.5 -137t-94.5 -64q-78 0 -103 84q-16 53 -7 124z" />
    <glyph glyph-name="quotedblright" unicode="&#x201d;" horiz-adv-x="755" 
d="M98 911q20 33 51 98.5t48 174.5q-25 0 -41.5 9t-25.5 21.5t-14 25.5t-7 20q-10 37 -8.5 73.5t15 65t38 46t59.5 17.5q41 2 64.5 -19.5t37.5 -62.5q14 -53 5 -123.5t-33.5 -142.5t-57 -136.5t-63.5 -103.5zM442 911q18 33 49 98.5t48 174.5q-23 0 -38.5 9t-25.5 21.5
t-14 25.5t-6 20q-10 37 -8 73.5t14 65t35.5 46t58.5 17.5q80 2 102 -82q18 -53 9 -123.5t-33.5 -142.5t-58 -136.5t-64.5 -103.5z" />
    <glyph glyph-name="bullet" unicode="&#x2022;" horiz-adv-x="985" 
d="M322 760q0 76 51 125t121 49q76 0 124 -52.5t48 -121.5q0 -76 -52.5 -123t-119.5 -47q-37 0 -69 14t-55.5 38t-35.5 54.5t-12 63.5z" />
    <glyph glyph-name="ellipsis" unicode="&#x2026;" horiz-adv-x="1247" 
d="M98 131q0 14 1 34.5t9.5 39t26 34t49.5 19.5q23 8 47 0q31 -4 49.5 -18.5t26.5 -33t10 -39t2 -36.5t-2 -36.5t-10 -40t-26.5 -34t-49.5 -20.5h-47q-33 6 -50 21.5t-25.5 35t-9.5 39t-1 35.5zM516 131q0 14 1 34.5t9.5 39t25.5 34t50 19.5q23 8 47 0q31 -4 49.5 -18.5
t26.5 -33t10 -39t2 -36.5t-2 -36.5t-10 -40t-26.5 -34t-49.5 -20.5h-47q-33 6 -50 21.5t-25.5 35t-9.5 39t-1 35.5zM934 131q0 14 1 34.5t9 39t25.5 34t50.5 19.5q23 8 47 0q31 -4 49.5 -18.5t26.5 -33t10 -39t2 -36.5t-2 -36.5t-10 -40t-26.5 -34t-49.5 -20.5h-47
q-33 6 -50.5 21.5t-25.5 35t-9 39t-1 35.5z" />
    <glyph glyph-name="trademark" unicode="&#x2122;" horiz-adv-x="1026" 
d="M123 1372v90h307v-90h-102v-592h-105v592h-100zM502 780v682h141l59 -332l58 332h141v-682h-98v457h-4l-66 -457h-63l-64 457h-4v-457h-100z" />
  </font>
</defs>
</svg>
