<svg xmlns="http://www.w3.org/2000/svg" xmlns:xlink="http://www.w3.org/1999/xlink" width="50" height="50" viewBox="0 0 50 50"><circle cx="25.097" cy="24.448" r="23.415" fill="#EC2227"/><g opacity=".2"><defs><circle id="a" cx="25.097" cy="24.448" r="23.415" opacity=".2"/></defs><clipPath id="b"><use xlink:href="#a" overflow="visible"/></clipPath><path clip-path="url(#b)" fill="#010101" d="M21.14 32.875l2.39 3.108L27.1 34.57l2.168-3.37-4.622-8.132-3.51-4.064 1.473-5.237h4.267l3.04.816 40.665 40.483L53.26 68.95 19.793 36.086"/></g><path d="M25.672 13.084c1.64 0 2.996.412 4.055 1.232 1.062.818 1.596 1.855 1.596 3.113 0 .718-.246 1.34-.744 1.857-.493.52-1.132.782-1.92.782-.638 0-1.2-.19-1.692-.57-.494-.377-.744-.915-.744-1.62 0-.283.076-.602.23-.953.104-.236.154-.412.154-.527 0-.586-.445-.877-1.334-.877-.637 0-1.205.23-1.697.69-.496.458-.742 1.1-.742 1.92 0 .702.23 1.368.678 1.996.45.627 1.643 1.638 3.564 3.025 1.86 1.34 3.158 2.575 3.895 3.704.736 1.13 1.104 2.406 1.104 3.83 0 2.258-.725 4.016-2.186 5.26-1.45 1.246-3.188 1.87-5.2 1.87-1.905 0-3.45-.454-4.634-1.366-1.178-.914-1.766-2.076-1.766-3.48 0-.77.234-1.435.7-1.995.47-.56 1.147-.843 2.034-.843 1.61 0 2.414.762 2.414 2.285 0 .252-.053.575-.152.98-.107.365-.158.63-.158.777 0 .82.588 1.23 1.762 1.23.89 0 1.625-.28 2.213-.84s.88-1.2.88-1.92c0-.792-.257-1.514-.765-2.176-.512-.663-1.514-1.562-3.004-2.698-2.008-1.542-3.424-2.87-4.242-3.983-.824-1.11-1.232-2.448-1.232-4.004 0-1.994.707-3.61 2.11-4.85 1.408-1.237 3.01-1.856 4.822-1.856" fill="#FFF"/><path fill="#EC2227" d="M2.334 9.7V2.335H9.7M40.3 2.334h7.366V9.7M47.665 40.3v7.367H40.3M9.7 47.666H2.333V40.3"/></svg>