<?xml version="1.0" standalone="no"?>
<!DOCTYPE svg PUBLIC "-//W3C//DTD SVG 1.1//EN" "http://www.w3.org/Graphics/SVG/1.1/DTD/svg11.dtd" >
<svg xmlns="http://www.w3.org/2000/svg" xmlns:xlink="http://www.w3.org/1999/xlink" version="1.1">
<metadata>
Created by FontForge 20150318 at Fri Aug 28 14:28:38 2015
 By uniteet7
Copyright 1993 DoubleAlex Team. All rights reserved.
</metadata>
<defs>
<font id="favoritcondcbold" horiz-adv-x="1003" >
  <font-face 
    font-family="favoritcondcbold"
    font-weight="700"
    font-stretch="normal"
    units-per-em="2048"
    panose-1="0 0 8 0 0 0 0 0 0 0"
    ascent="1534"
    descent="-514"
    x-height="1034"
    cap-height="1544"
    bbox="-217 -514 2048 2015"
    underline-thickness="102"
    underline-position="-102"
    unicode-range="U+000D-2122"
  />
<missing-glyph horiz-adv-x="748" 
d="M68 0v1365h544v-1365h-544zM136 68h408v1229h-408v-1229z" />
    <glyph glyph-name=".notdef" horiz-adv-x="748" 
d="M68 0v1365h544v-1365h-544zM136 68h408v1229h-408v-1229z" />
    <glyph glyph-name="glyph1" horiz-adv-x="2048" 
 />
    <glyph glyph-name="glyph1" horiz-adv-x="2048" 
 />
    <glyph glyph-name="uni000D" unicode="&#xd;" horiz-adv-x="2048" 
 />
    <glyph glyph-name="space" unicode=" " horiz-adv-x="501" 
 />
    <glyph glyph-name="exclam" unicode="!" horiz-adv-x="503" 
d="M57 170q0 80 57.5 137.5t137.5 57.5q79 0 136.5 -57.5t57.5 -137.5t-57.5 -137.5t-136.5 -57.5q-80 0 -137.5 57.5t-57.5 137.5zM102 463v1081h301v-1081h-301z" />
    <glyph glyph-name="quotedbl" unicode="&#x22;" horiz-adv-x="737" 
d="M39 1544h285l-31 -596h-223zM414 1544h284l-30 -596h-224z" />
    <glyph glyph-name="numbersign" unicode="#" 
d="M53 487v205h201l22 193h-172v205h195l55 454h170l-53 -454h154l53 454h172l-55 -454h155v-205h-180l-22 -193h153v-205h-176l-59 -487h-170l57 487h-152l-59 -487h-172l57 487h-174zM426 692h149l25 193h-151z" />
    <glyph glyph-name="dollar" unicode="$" 
d="M39 1120q0 182 103.5 294t285.5 142v146h150v-146q215 -32 329 -180l-168 -184q-104 119 -235 119q-80 0 -127 -41t-47 -121q0 -37 12.5 -66t37.5 -50.5t49.5 -35t62.5 -28.5q50 -20 80.5 -33t76.5 -34.5t74.5 -39t65.5 -43.5t60 -51t48 -59t38.5 -70t22.5 -81t9 -95
q0 -183 -106 -319t-283 -169v-176h-150v176q-244 33 -385 181l143 227q41 -40 68 -62.5t66.5 -49t81 -38.5t87.5 -12q81 0 134 57t53 144q0 44 -15 78.5t-46 60t-57.5 41t-70.5 35.5q-173 80 -238 122q-157 100 -195 244q-15 54 -15 117z" />
    <glyph glyph-name="percent" unicode="%" horiz-adv-x="1757" 
d="M78 1114q0 68 8.5 128.5t31 120t57.5 101.5t92.5 68.5t131.5 26.5q92 0 157.5 -38.5t100 -105.5t49.5 -140.5t15 -160.5t-15 -160.5t-49.5 -140t-100 -105t-157.5 -38.5t-157.5 38.5t-99.5 105t-49 140t-15 160.5zM324 1114q0 -26 2 -52.5t8.5 -67.5t23 -66t41.5 -25
t42 25t23.5 65t8.5 67.5t2 53.5t-2 53.5t-8.5 67.5t-23.5 65t-42 25q-75 0 -75 -211zM403 0l732 1544h219l-731 -1544h-220zM1034 430q0 87 15 160.5t49.5 140t100 105t157.5 38.5t157.5 -38.5t99.5 -105t49 -140t15 -160.5t-15 -160.5t-49 -140t-99.5 -105t-157.5 -38.5
t-157.5 38.5t-100 105t-49.5 140t-15 160.5zM1280 430q0 -26 2 -53t8.5 -67t23.5 -65.5t42 -25.5t42 25t23.5 65t8.5 67.5t2 53.5t-2 53.5t-8.5 67.5t-23.5 65t-42 25q-76 0 -76 -211z" />
    <glyph glyph-name="ampersand" unicode="&#x26;" horiz-adv-x="1208" 
d="M53 436q0 239 223 408q-108 189 -108 319q0 152 103 245t257 93q145 0 250 -82.5t105 -224.5q0 -120 -68 -221.5t-180 -196.5l205 -317q15 16 49 51t59 62.5t45 54.5l162 -219q-47 -57 -158 -152l-12 -10l162 -246h-324l-59 90q-58 -50 -133.5 -80t-149.5 -30
q-122 0 -221.5 63.5t-153 167.5t-53.5 225zM350 457q0 -84 48.5 -142.5t121.5 -58.5q58 0 107 43l-203 309q-32 -25 -53 -68t-21 -83zM432 1174q0 -17 3.5 -33t12 -34t14 -28.5t19 -32t17.5 -28.5q48 26 77 69t29 95q0 35 -21 59.5t-57 24.5q-40 0 -67 -25.5t-27 -66.5z" />
    <glyph glyph-name="quotesingle" unicode="'" horiz-adv-x="512" 
d="M115 1544h284l-30 -596h-224z" />
    <glyph glyph-name="parenleft" unicode="(" horiz-adv-x="614" 
d="M86 637q0 239 58 482.5t169 449.5l265 -58q-205 -425 -205 -880q0 -421 205 -850l-265 -60q-227 437 -227 916z" />
    <glyph glyph-name="parenright" unicode=")" horiz-adv-x="614" 
d="M37 -221q205 425 205 880q0 421 -205 850l264 60q227 -437 227 -916q0 -239 -58 -482.5t-169 -449.5z" />
    <glyph glyph-name="asterisk" unicode="*" horiz-adv-x="770" 
d="M47 1075l213 121l-213 119l66 115l211 -130v244h131v-244l202 130l66 -115l-215 -119l215 -121l-66 -117l-202 134v-252h-131v252l-211 -134z" />
    <glyph glyph-name="plus" unicode="+" 
d="M43 412v225h346v385h225v-385h349v-225h-349v-398h-225v398h-346z" />
    <glyph glyph-name="comma" unicode="," horiz-adv-x="501" 
d="M-68 -295l205 627h309l-309 -627h-205z" />
    <glyph glyph-name="hyphen" unicode="-" horiz-adv-x="651" 
d="M70 541v272h512v-272h-512z" />
    <glyph glyph-name="period" unicode="." horiz-adv-x="501" 
d="M55 170q0 80 57 137.5t138 57.5t137.5 -57.5t56.5 -137.5t-56.5 -137.5t-137.5 -57.5t-138 57.5t-57 137.5z" />
    <glyph glyph-name="slash" unicode="/" horiz-adv-x="1120" 
d="M63 -340l805 1993h234l-805 -1993h-234z" />
    <glyph glyph-name="zero" unicode="0" 
d="M68 772q0 65 4.5 130.5t17 146t32.5 151.5t54 140.5t77.5 118.5t107.5 79.5t141 30.5t141 -30.5t107.5 -79.5t77.5 -118.5t54 -140.5t32.5 -151.5t17 -146t4.5 -130.5t-4.5 -130.5t-17 -146t-32.5 -151.5t-54 -140.5t-77.5 -118.5t-107.5 -79.5t-141 -30.5t-141 30.5
t-107.5 79.5t-77.5 118.5t-54 140.5t-32.5 151.5t-17 146t-4.5 130.5zM365 664.5q2 -49.5 3.5 -104t11.5 -109.5t23.5 -98.5t39 -71t59.5 -27.5t59.5 27.5t39 71t23.5 98.5t11.5 109.5t3.5 104t0 82.5v9.5v8v7.5v25q2 33 0 82.5t-3.5 104t-11.5 109.5t-23.5 98.5t-39 71
t-59.5 27.5t-59.5 -27.5t-39 -71t-23.5 -98.5t-11.5 -109.5t-3.5 -104t0 -82.5v-9.5v-8v-7.5v-25q-2 -33 0 -82.5z" />
    <glyph glyph-name="one" unicode="1" 
d="M225 1278v266h445v-1544h-297v1278h-148z" />
    <glyph glyph-name="two" unicode="2" 
d="M84 0l348 639q107 197 144 290q55 137 55 236q0 46 -9.5 86t-38.5 72.5t-75 32.5q-41 0 -68.5 -26t-38.5 -68.5t-14.5 -80t-1.5 -75.5l4 -98h-283l-4 84q-5 112 12.5 196.5t63 149.5t128 99t200.5 34q197 0 306.5 -100t109.5 -295q0 -109 -32 -204.5t-95 -215.5
l-258 -490h358v-266h-811z" />
    <glyph glyph-name="three" unicode="3" 
d="M70 406h286l-2 -44q-2 -44 28 -82t87 -38q44 0 73 20t41 56.5t15.5 67.5t3.5 75q0 128 -50.5 174t-180.5 41v266q131 0 182 40t51 163q0 158 -104 158q-103 0 -103 -160v-31h-264q-5 97 11.5 176.5t57 144t115 100.5t177.5 36q185 0 288 -109t103 -295q0 -289 -191 -364
v-4q62 -16 109 -52t74.5 -86t41 -107.5t13.5 -121.5q0 -212 -122.5 -333.5t-334.5 -121.5q-194 0 -304 118t-101 313z" />
    <glyph glyph-name="four" unicode="4" 
d="M57 373v229l410 942h336v-938h125v-233h-125v-373h-297v373h-449zM272 606h234v586h-4z" />
    <glyph glyph-name="five" unicode="5" 
d="M100 45l52 268q88 -71 188 -71q115 0 177.5 81.5t62.5 198.5q0 139 -84.5 207t-227.5 68q-36 0 -116 -13l120 760h590v-266h-377l-41 -250q230 -12 345.5 -145t115.5 -365q0 -254 -128.5 -398.5t-379.5 -144.5q-154 0 -297 70z" />
    <glyph glyph-name="six" unicode="6" 
d="M76 518q0 192 56 367t163 397l127 262h295l-295 -602l4 -4q47 42 91 63t101 21q67 0 121.5 -32t89 -82.5t58.5 -115.5t33.5 -127.5t9.5 -121.5q0 -86 -13.5 -165t-45.5 -153.5t-80.5 -129t-123.5 -87.5t-169 -33q-89 0 -161.5 31t-120 82.5t-80 122t-46.5 147t-14 160.5z
M373 485q0 -32 6 -70.5t19.5 -81t40.5 -70t63 -27.5q41 0 69.5 30.5t40.5 79t16.5 87.5t4.5 77q0 34 -5 70.5t-17 78t-38 67.5t-63 26q-33 0 -58.5 -20.5t-39.5 -50.5t-23.5 -68.5t-12.5 -69.5t-3 -58z" />
    <glyph glyph-name="seven" unicode="7" 
d="M84 0l481 1278h-415v266h833l-582 -1544h-317z" />
    <glyph glyph-name="eight" unicode="8" 
d="M59 422q0 321 269 409v5q-101 34 -156 123t-55 202q0 174 107 291t280 117q171 0 278 -117t107 -291q0 -113 -54.5 -201.5t-156.5 -125.5v-3q268 -85 268 -409q0 -192 -125 -319.5t-317 -127.5q-193 0 -319 128t-126 319zM373 461q0 -35 5.5 -69t18.5 -70t40.5 -58
t64.5 -22t64 23t41 59t20 70.5t6 66.5t-7 67.5t-21.5 72t-42 60t-62.5 23.5q-37 0 -63.5 -23t-39.5 -59.5t-18.5 -71t-5.5 -69.5zM414 1167q0 -176 84 -176q27 0 46 13.5t28 30.5t14 45t5.5 44t0.5 41q0 26 -3 50t-12 52t-29 45t-50 17q-26 0 -44 -17t-26 -44.5t-11 -51.5
t-3 -49z" />
    <glyph glyph-name="nine" unicode="9" 
d="M76 1004q0 86 13.5 165t45.5 153t80.5 128t123.5 86.5t169 32.5q90 0 162.5 -30.5t120 -82t79.5 -122t46 -147.5t14 -161q0 -190 -56 -365.5t-163 -396.5l-127 -264h-295l295 604l-4 4q-48 -43 -92 -64.5t-101 -21.5q-67 0 -121.5 32.5t-89 83.5t-58 117t-33 128
t-9.5 121zM373 1034q0 -34 5 -70t17 -77t38 -67.5t63 -26.5q33 0 59 21t40 50.5t23 68.5t12 69.5t3 58.5q0 33 -6 70.5t-19 78.5t-40 68t-64 27q-41 -1 -69.5 -31t-40.5 -77.5t-16.5 -86t-4.5 -76.5z" />
    <glyph glyph-name="colon" unicode=":" horiz-adv-x="501" 
d="M55 170q0 80 57 137.5t138 57.5t137.5 -57.5t56.5 -137.5t-56.5 -137.5t-137.5 -57.5t-138 57.5t-57 137.5zM55 860q0 80 57 137.5t138 57.5t137.5 -57.5t56.5 -137.5t-56.5 -137t-137.5 -57t-138 57t-57 137z" />
    <glyph glyph-name="semicolon" unicode=";" horiz-adv-x="501" 
d="M-68 -295l205 627h307l-307 -627h-205zM57 860q0 80 57 137.5t138 57.5t137.5 -57.5t56.5 -137.5t-56.5 -137t-137.5 -57t-138 57t-57 137z" />
    <glyph glyph-name="less" unicode="&#x3c;" 
d="M41 426v203l922 465v-228l-676 -342l676 -331v-228z" />
    <glyph glyph-name="equal" unicode="=" 
d="M43 211v225h920v-225h-920zM43 610v226h920v-226h-920z" />
    <glyph glyph-name="greater" unicode="&#x3e;" 
d="M43 -35v228l674 331l-674 342v228l920 -465v-203z" />
    <glyph glyph-name="question" unicode="?" horiz-adv-x="929" 
d="M51 1118q-8 203 93 327t300 124t314.5 -129.5t115.5 -331.5q0 -90 -23.5 -174.5t-82 -156t-143.5 -93.5v-201h-306v381q27 -6 52 -6q50 0 86 22t55.5 59t28 77.5t8.5 85.5q0 30 -4 60t-14.5 64.5t-34 55.5t-56.5 21q-52 0 -76 -45.5t-24 -102.5v-37h-289zM281 170
q0 79 57 137t135 58q81 0 139 -57.5t58 -137.5t-58 -137.5t-139 -57.5q-78 0 -135 58t-57 137z" />
    <glyph glyph-name="at" unicode="@" horiz-adv-x="1705" 
d="M78 780q0 67 12 137.5t41 148.5t71.5 149.5t108.5 136.5t147 112.5t192.5 76t240.5 28.5q208 0 376 -80.5t264.5 -227t96.5 -331.5q0 -100 -24 -187t-63 -147.5t-90 -110t-102 -79.5t-102 -50.5t-88.5 -28.5t-62.5 -8q-41 0 -69 36t-17 91l-4 5q-132 -123 -252 -123
q-159 0 -252.5 106t-93.5 266q0 125 52.5 235t153.5 179.5t228 69.5q175 0 260 -123l22 108h201l-108 -626q-8 -47 27 -45q43 2 102 67q95 104 117 249q4 29 5 58q4 166 -70 291t-207 190.5t-306 65.5q-140 0 -260.5 -48t-205.5 -132.5t-133 -203t-48 -255.5
q0 -202 86.5 -351.5t240 -226.5t355.5 -77q211 0 419 188h197q-117 -160 -279 -249t-354 -89q-249 0 -437 101.5t-288 284t-100 419.5zM633 737q-6 -96 35.5 -154t109.5 -67q44 -7 84 6t69 38.5t51.5 60t34.5 71.5t15 72q8 101 -34.5 169.5t-133.5 61.5q-94 -7 -159.5 -82.5
t-71.5 -175.5z" />
    <glyph glyph-name="A" unicode="A" horiz-adv-x="1081" 
d="M16 0l359 1544h321l371 -1544h-326l-57 260h-309l-56 -260h-303zM424 502h215l-78 411l-35 234h-4l-33 -234z" />
    <glyph glyph-name="B" unicode="B" horiz-adv-x="980" 
d="M109 0v1544h299q110 0 181.5 -15t137.5 -69q75 -60 116.5 -154.5t41.5 -193.5q0 -206 -166 -319q90 -43 140 -147t50 -212q0 -111 -39 -196t-108.5 -136t-159 -76.5t-196.5 -25.5h-297zM414 256h11q82 0 131 55q52 59 52 158q0 93 -52 151q-50 55 -133 54h-9v-418z
M414 911q85 0 133.5 53t48.5 142q0 86 -48 136q-44 46 -121 46h-13v-377z" />
    <glyph glyph-name="C" unicode="C" horiz-adv-x="925" 
d="M53 786q0 115 29 227.5t87.5 211.5t137.5 174.5t187 119.5t229 44q74 0 156 -29v-281q-66 17 -115 17q-97 0 -172.5 -41.5t-121 -111t-68.5 -153.5t-23 -176q0 -71 14 -141.5t44.5 -137.5t74.5 -118.5t108.5 -83t141.5 -31.5q42 0 117 23v-289q-65 -26 -142 -26
q-128 0 -239.5 44.5t-192 121t-138 178.5t-86 218.5t-28.5 239.5z" />
    <glyph glyph-name="D" unicode="D" horiz-adv-x="1085" 
d="M109 0v1544h231h13q23 1 46 1q297 0 462 -195q171 -201 171 -590q0 -136 -21 -248.5t-69.5 -208.5t-123 -162.5t-185.5 -103.5t-252 -37h-272zM414 274h12q62 0 114 28q56 32 90.5 83t57 119t31 131.5t8.5 126.5q0 65 -8 129t-30 134.5t-55.5 123t-90.5 87t-129 34.5
v-996z" />
    <glyph glyph-name="E" unicode="E" horiz-adv-x="802" 
d="M109 0v1544h614v-287h-309v-335h272v-287h-272v-348h313v-287h-618z" />
    <glyph glyph-name="F" unicode="F" horiz-adv-x="806" 
d="M109 0v1544h616v-287h-311v-329h280v-287h-280v-641h-305z" />
    <glyph glyph-name="G" unicode="G" horiz-adv-x="1153" 
d="M53 764q0 80 7.5 157t25.5 158t46 151.5t72 133.5t100 108t132.5 71t167.5 26q172 0 288 -98.5t167 -268.5l-297 -115q-5 30 -10 51t-17 51t-27.5 48.5t-42 33t-59.5 15.5h-7q-45 0 -81 -24q-39 -27 -63 -74.5t-40 -100.5t-23.5 -116.5t-10 -108.5t-2.5 -90
q0 -514 235 -514q55 0 93.5 33t56 86t24.5 100.5t7 95.5h-195v287h500v-121q0 -76 -5.5 -146t-20.5 -148.5t-38 -144.5t-62 -127.5t-89.5 -104t-122.5 -68t-158 -25.5q-101 0 -185 34.5t-143 94.5t-103 137t-69.5 167t-38 178.5t-12.5 177.5z" />
    <glyph glyph-name="H" unicode="H" horiz-adv-x="1136" 
d="M109 0v1544h305v-604h309v604h305v-1544h-305v653h-309v-653h-305z" />
    <glyph glyph-name="I" unicode="I" horiz-adv-x="522" 
d="M109 0v1544h305v-1544h-305z" />
    <glyph glyph-name="J" unicode="J" horiz-adv-x="720" 
d="M25 23v305q29 -38 71 -62t88 -24q28 0 49.5 9t35.5 20t24 34t14.5 38.5t7 47t2.5 45v45.5v6.5v6v6.5v1044h306v-1044v-13q0 -34 -0.5 -55t-3.5 -65t-9 -75t-18.5 -75t-30.5 -75t-46.5 -64.5t-64.5 -54.5t-86 -34.5t-110 -13.5q-138 0 -229 48z" />
    <glyph glyph-name="K" unicode="K" horiz-adv-x="1050" 
d="M109 0v1544h305v-690h4l254 690h311l-285 -713l322 -831h-322l-280 786h-4v-786h-305z" />
    <glyph glyph-name="L" unicode="L" horiz-adv-x="763" 
d="M109 0v1544h305v-1257h319v-287h-624z" />
    <glyph glyph-name="M" unicode="M" horiz-adv-x="1478" 
d="M47 0l135 1544h402l149 -911h4l123 911h410l162 -1544h-314l-74 1112h-4l-49 -381l-131 -731h-235l-150 739l-51 344v29h-4l-45 -1112h-328z" />
    <glyph glyph-name="N" unicode="N" horiz-adv-x="1173" 
d="M109 0v1544h292l381 -932l4 4q-24 99 -24 234v694h305v-1544h-289l-377 932l-4 -4l15 -156l2 -63v-709h-305z" />
    <glyph glyph-name="O" unicode="O" horiz-adv-x="1191" 
d="M53 772q0 169 30.5 305t82 226.5t122 151.5t147.5 87.5t161 26.5t161 -26.5t147.5 -87.5t122 -151.5t82 -226.5t30.5 -305t-30.5 -305t-82 -226.5t-122 -151.5t-147.5 -87.5t-161 -26.5t-161 26.5t-147.5 87.5t-122 151.5t-82 226.5t-30.5 305zM379 772q0 -41 2 -82
t8.5 -105t22 -117t38 -103t60.5 -78.5t86 -28.5t86 28.5t60.5 78.5t38 103t22 117t8.5 105t2 82q0 44 -2 86.5t-8.5 106.5t-22 116.5t-38 101t-60.5 76t-86 27.5t-86 -27.5t-60.5 -76t-38 -101t-22 -116.5t-8.5 -106.5t-2 -86.5z" />
    <glyph glyph-name="P" unicode="P" horiz-adv-x="997" 
d="M109 0v1544h317h14q10 2 22 2q8 0 18 -1q24 -2 52.5 -2t62 -7.5t68.5 -15.5t70 -27t67 -41.5t59 -58t47.5 -78t32 -101t11.5 -127.5q0 -217 -128 -341q-117 -114 -304 -114q-18 0 -37 1l-67 4v-637h-305zM414 885h21q99 -1 152 43q58 48 58 164q0 200 -174 200h-57v-407z
" />
    <glyph glyph-name="Q" unicode="Q" horiz-adv-x="1191" 
d="M53 772q0 169 30.5 305t82 226.5t122 151.5t147.5 87.5t161 26.5t161 -26.5t147.5 -87.5t122 -151.5t82 -226.5t30.5 -305q0 -352 -115 -545l133 -135l-160 -151l-118 129q-124 -95 -283 -95q-84 0 -161 26.5t-147.5 87.5t-122 151.5t-82 226.5t-30.5 305zM379 772
q0 -41 2 -82t8.5 -105t22 -117t38 -103t60.5 -78.5t86 -28.5q36 0 74 27l-183 190l158 154l139 -154q29 102 29 297q0 44 -2 86.5t-8.5 106.5t-22 116.5t-38 101t-60.5 76t-86 27.5t-86 -27.5t-60.5 -76t-38 -101t-22 -116.5t-8.5 -106.5t-2 -86.5z" />
    <glyph glyph-name="R" unicode="R" horiz-adv-x="1085" 
d="M109 0v1544h307q52 0 92 -2t99.5 -12t104.5 -27t93.5 -50t80 -78.5t52 -115.5t20.5 -157q0 -132 -54 -235.5t-165 -164.5l269 -702h-322l-268 713h-4v-713h-305zM414 881l53 -2h12q90 -1 135 57q48 62 48 164q0 192 -207 192h-41v-411z" />
    <glyph glyph-name="S" unicode="S" horiz-adv-x="901" 
d="M70 1114q0 124 45 226t138.5 165.5t219.5 63.5q140 0 270 -76v-297q-113 98 -221 98q-71 0 -112 -40.5t-41 -110.5q0 -51 25.5 -95.5t66.5 -79t90.5 -70t99.5 -77t91 -89.5t66.5 -119t25.5 -156q0 -212 -118 -347t-327 -135q-67 0 -139 20.5t-123 57.5v291
q120 -82 231 -82q75 0 126 46.5t51 121.5q0 22 -5 42t-10.5 35t-19 31.5t-22.5 26t-29 25t-29 22t-33.5 22.5t-32.5 21q-72 50 -119 92.5t-87 97t-59 121t-19 148.5z" />
    <glyph glyph-name="T" unicode="T" horiz-adv-x="847" 
d="M31 1257v287h786v-287h-242v-1257h-305v1257h-239z" />
    <glyph glyph-name="U" unicode="U" horiz-adv-x="1114" 
d="M100 397v1147h306v-999v-27q0 -25 -0.5 -51t3 -52t8 -50t16 -44.5t27 -36t40.5 -24t57 -8.5q28 0 50 4.5t37.5 15t26.5 21.5t18 30t11.5 33.5t6 39t2 40.5t0.5 43v1065h305v-1126q0 -44 -2 -77t-12 -82t-28 -85t-52 -75.5t-81.5 -65t-120 -42t-163.5 -16.5
q-219 0 -337 105t-118 317z" />
    <glyph glyph-name="V" unicode="V" horiz-adv-x="1157" 
d="M16 1544h328l184 -741q10 -39 56 -264h4q5 31 13 85t16 98.5t18 84.5l186 737h320l-428 -1544h-250z" />
    <glyph glyph-name="W" unicode="W" horiz-adv-x="1624" 
d="M16 1544h312l131 -737q8 -49 13.5 -101t11 -125.5t8.5 -101.5h4q4 30 12 102t15.5 124.5t17.5 101.5l153 737h242l197 -1065h4q3 36 7.5 102t9.5 120t13 102l121 741h320l-320 -1544h-264l-158 815q-4 18 -43 283h-4q-45 -263 -49 -283l-176 -815h-266z" />
    <glyph glyph-name="X" unicode="X" horiz-adv-x="1116" 
d="M45 0l328 797l-328 747h344l88 -215q52 -123 74 -235h4q27 137 70 235l92 215h330l-330 -747l354 -797h-354l-99 246q-22 55 -67 231h-4q-8 -26 -20.5 -73t-23.5 -85t-24 -73l-90 -246h-344z" />
    <glyph glyph-name="Y" unicode="Y" horiz-adv-x="1052" 
d="M8 1544h336l160 -420l22 -75h4l35 114l137 381h342l-360 -805v-739h-305v739z" />
    <glyph glyph-name="Z" unicode="Z" horiz-adv-x="1040" 
d="M37 0l514 1257h-449v287h908l-529 -1257h486v-287h-930z" />
    <glyph glyph-name="bracketleft" unicode="[" horiz-adv-x="655" 
d="M109 -254v1798h514v-201h-248v-1396h252v-201h-518z" />
    <glyph glyph-name="backslash" unicode="\" horiz-adv-x="512" 
d="M-217 1653h233l713 -1653h-233zM496 0h233h-233z" />
    <glyph glyph-name="bracketright" unicode="]" horiz-adv-x="655" 
d="M29 -53h252v1396h-248v201h514v-1798h-518v201z" />
    <glyph glyph-name="asciicircum" unicode="^" 
d="M43 772l336 772h246l338 -772l-205 -96l-256 596l-254 -596z" />
    <glyph glyph-name="underscore" unicode="_" horiz-adv-x="1024" 
d="M0 -229h1024v-154h-1024v154z" />
    <glyph glyph-name="grave" unicode="`" horiz-adv-x="614" 
d="M104 1450l209 94l197 -295l-141 -82z" />
    <glyph glyph-name="a" unicode="a" horiz-adv-x="886" 
d="M53 518q0 63 5 125t23 140t46.5 135.5t81 97t121.5 39.5t118.5 -40.5t75.5 -107.5h4v127h289v-1034h-289v117h-4q-68 -137 -190 -137q-66 0 -118 40.5t-82 100.5t-49 136.5t-25.5 140t-6.5 120.5zM342 522q0 -28 1 -55t7.5 -70.5t17 -74.5t31.5 -54.5t50 -23.5
q32 0 54 34t31 86.5t12 89.5t3 68q0 33 -3 69.5t-12 88.5t-32.5 85.5t-57.5 33.5q-33 0 -56 -33t-31.5 -85.5t-11.5 -88.5t-3 -70z" />
    <glyph glyph-name="b" unicode="b" horiz-adv-x="886" 
d="M72 0v1653h288v-746h5q26 67 75.5 107.5t116.5 40.5q50 0 92 -21t70 -54t49.5 -80.5t33.5 -95t19.5 -102.5t10 -98t2.5 -86q0 -58 -6 -120.5t-24.5 -140t-48 -137t-81.5 -100t-119 -40.5q-125 0 -190 137h-5v-117h-288zM340 522q0 -24 1 -50.5t7 -70t16 -76t29.5 -57
t46.5 -24.5q34 0 57 32t32.5 84t12.5 89t3 73q0 32 -3.5 69.5t-12.5 89t-31.5 85t-55.5 33.5q-28 0 -48 -24.5t-30 -56t-16 -75.5t-7 -69.5t-1 -51.5z" />
    <glyph glyph-name="c" unicode="c" horiz-adv-x="645" 
d="M53 510q0 81 13 156.5t43 147.5t75 124.5t114.5 84.5t156.5 32q70 0 143 -31v-254q-36 33 -84 33q-50 0 -86 -27.5t-53.5 -72t-25 -88.5t-7.5 -89q0 -49 6.5 -91.5t23 -87t52 -71t86.5 -26.5q42 0 88 31v-265q-76 -36 -166 -36q-81 0 -147 32.5t-108 85.5t-71 123.5
t-41 142.5t-12 146z" />
    <glyph glyph-name="d" unicode="d" horiz-adv-x="886" 
d="M53 518q0 63 5 125t23 140t46.5 135.5t81 97t121.5 39.5t118.5 -40.5t75.5 -107.5h4v746h289v-1653h-289v117h-4q-68 -137 -190 -137q-66 0 -118 40.5t-82 100.5t-49 136.5t-25.5 140t-6.5 120.5zM342 522q0 -28 1 -55t7.5 -70.5t17 -74.5t31.5 -54.5t50 -23.5
q32 0 54 34t31 86.5t12 89.5t3 68q0 33 -3 69.5t-12 88.5t-32.5 85.5t-57.5 33.5q-33 0 -56 -33t-31.5 -85.5t-11.5 -88.5t-3 -70z" />
    <glyph glyph-name="e" unicode="e" horiz-adv-x="847" 
d="M53 496q0 79 11.5 154t40 149.5t71.5 130.5t112 90.5t156 34.5q154 0 258 -132q95 -119 94 -321q0 -21 -1 -43l-7 -119h-456q3 -108 13 -149q25 -89 95 -90q92 0 92 118h246q-20 -155 -99 -247t-228 -92q-85 0 -153.5 29.5t-113.5 78.5t-75 116t-43 139.5t-13 152.5z
M334 618h211v25q0 30 -4 59t-14.5 61t-32.5 51.5t-54 19.5q-31 0 -53.5 -19t-33 -49.5t-15 -59t-4.5 -57.5v-31z" />
    <glyph glyph-name="f" unicode="f" horiz-adv-x="612" 
d="M39 797v237h106v291q0 64 6 111.5t24.5 94.5t50.5 76.5t86.5 47.5t129.5 18q55 0 125 -24v-279q-29 16 -51 16q-15 0 -27 -3.5t-20.5 -11t-14.5 -14.5t-10 -20.5t-6 -21.5t-3 -25t-1 -24v-25v-22v-185h133v-237h-133v-797h-289v797h-106z" />
    <glyph glyph-name="g" unicode="g" horiz-adv-x="894" 
d="M53 502q0 44 2.5 87.5t10 100t19.5 106t34 98.5t50 83.5t70 56t93 21.5q69 0 120.5 -40.5t77.5 -105.5h5v125h288v-1124q0 -222 -96.5 -323t-290.5 -101q-351 0 -373 377h256q9 -148 105 -148q23 0 41.5 9t30.5 22t20 36t12 41t6 47.5t2 45.5t-0.5 45t-0.5 37v131h-5
q-36 -71 -77 -110t-109 -39q-135 0 -223 172q-68 136 -68 350zM342 522q0 -28 1 -55t7.5 -70.5t17 -74.5t32.5 -54.5t51 -23.5q32 0 53.5 33.5t30 86.5t11.5 89t3 69q0 25 -1 51.5t-7 70t-16 75.5t-30.5 56t-48.5 24q-34 0 -57 -33t-32 -85.5t-12 -88.5t-3 -70z" />
    <glyph glyph-name="h" unicode="h" horiz-adv-x="868" 
d="M72 0v1653h288v-779h5q31 78 94.5 129.5t144.5 51.5q41 0 73 -12t52.5 -32.5t35 -48t20.5 -59.5q7 -33 11 -67q4 -28 3 -56v-12q0 -17 -0.5 -34t0.5 -33v-33v-668h-289v567q0 6 1 32.5t1 43t-3.5 42t-11 41t-22.5 27t-37 11.5q-78 0 -78 -119v-645h-288z" />
    <glyph glyph-name="i" unicode="i" horiz-adv-x="428" 
d="M31 1343q0 78 55 130.5t133 52.5q74 0 126 -56t52 -131q0 -74 -54.5 -128t-129.5 -54t-128.5 54.5t-53.5 131.5zM70 0v1034h288v-1034h-288z" />
    <glyph glyph-name="j" unicode="j" horiz-adv-x="428" 
d="M31 1343q0 78 55 130.5t133 52.5q74 0 126 -56t52 -131q0 -74 -54.5 -128t-129.5 -54t-128.5 54.5t-53.5 131.5zM70 -510v1544h288v-1544h-288z" />
    <glyph glyph-name="k" unicode="k" horiz-adv-x="901" 
d="M72 0v1653h288v-981h5l157 362h314l-234 -422l285 -612h-318l-204 479h-5v-479h-288z" />
    <glyph glyph-name="l" unicode="l" horiz-adv-x="430" 
d="M72 0v1653h288v-1653h-288z" />
    <glyph glyph-name="m" unicode="m" horiz-adv-x="1308" 
d="M72 0v1034h288l2 -166h5q92 187 254 187q75 0 121 -50t57 -126h4q38 75 104 125.5t144 50.5q30 0 55 -8t43.5 -19.5t32.5 -32t23 -38t15.5 -46.5t9.5 -48.5t5 -51.5t2 -49v-47v-715h-289v561q0 5 0.5 27.5t0.5 37t-1.5 38t-6.5 39t-12.5 31.5t-20.5 24t-31 8
q-78 0 -78 -117v-649h-289v580q0 5 0.5 25.5t0 33t-1.5 34t-5.5 34.5t-12 27t-20 21t-29.5 7q-82 0 -82 -119v-63v-580h-288z" />
    <glyph glyph-name="n" unicode="n" horiz-adv-x="868" 
d="M72 0v1034h288v-160h5q31 78 94.5 129.5t144.5 51.5q41 0 73 -12t52.5 -32.5t35 -48t20.5 -59.5q7 -33 11 -67q4 -28 3 -56v-12q0 -17 -0.5 -34t0.5 -33v-33v-668h-289v567q0 6 1 32.5t1 43t-3.5 42t-11 41t-22.5 27t-37 11.5q-78 0 -78 -119v-645h-288z" />
    <glyph glyph-name="o" unicode="o" horiz-adv-x="892" 
d="M53 516q0 84 11 158t39 145.5t71 122.5t112.5 82t159.5 31t159.5 -31t113 -82t71.5 -122.5t39 -145.5t11 -158t-11 -157.5t-39 -144.5t-71.5 -121.5t-113 -81.5t-159.5 -31t-159.5 31t-112.5 81.5t-71 121.5t-39 144.5t-11 157.5zM342 516q0 -27 1 -52.5t7 -70t16 -76
t31 -55.5t49 -24q35 0 58 33t32 86t12 88.5t3 70.5t-3 70.5t-12 89t-32 86.5t-58 33q-28 0 -49 -24.5t-31 -56t-16 -76t-7 -70t-1 -52.5z" />
    <glyph glyph-name="p" unicode="p" horiz-adv-x="886" 
d="M72 -510v1544h288v-127h5q26 67 75.5 107.5t116.5 40.5q50 0 92 -21t70 -54t49.5 -80.5t33.5 -95t19.5 -102.5t10 -98t2.5 -86q0 -58 -6 -120.5t-24.5 -140t-48 -137t-81.5 -100t-119 -40.5q-125 0 -190 137h-5v-627h-288zM340 522q0 -24 1 -50.5t7 -70t16 -76t29.5 -57
t46.5 -24.5q105 0 105 278q0 32 -3.5 69.5t-12.5 89t-31.5 85t-55.5 33.5q-28 0 -48 -24.5t-30 -56t-16 -75.5t-7 -69.5t-1 -51.5z" />
    <glyph glyph-name="q" unicode="q" horiz-adv-x="886" 
d="M53 518q0 63 5 125t23 140t46.5 135.5t81 97t121.5 39.5t118.5 -40.5t75.5 -107.5h4v127h289v-1544h-289v627h-4q-68 -137 -190 -137q-66 0 -118 40.5t-82 100.5t-49 136.5t-25.5 140t-6.5 120.5zM342 522q0 -28 1 -55t7.5 -70.5t17 -74.5t31.5 -54.5t50 -23.5
q32 0 54 34t31 86.5t12 89.5t3 68q0 33 -3 69.5t-12 88.5t-32.5 85.5t-57.5 33.5q-33 0 -56 -33t-31.5 -85.5t-11.5 -88.5t-3 -70z" />
    <glyph glyph-name="r" unicode="r" horiz-adv-x="645" 
d="M72 0v1034h288v-125h5q89 151 235 164v-280q-28 4 -45 4q-32 0 -57.5 -5t-45 -12.5t-34 -22t-24.5 -27t-16.5 -34.5t-10 -38t-5 -44.5t-2 -46.5t-0.5 -51v-516h-288z" />
    <glyph glyph-name="s" unicode="s" horiz-adv-x="770" 
d="M86 752q0 141 101 222t245 81q148 0 230 -64v-229q-31 24 -83 42.5t-106 18.5q-98 0 -98 -75q0 -28 24.5 -51t61 -39t79.5 -42.5t79.5 -57.5t61 -87t24.5 -129q0 -159 -88.5 -260.5t-243.5 -101.5q-144 0 -256 81v242q87 -67 174 -67q64 0 94.5 20t30.5 66q0 27 -18 49
t-47.5 39t-64.5 35t-70 43.5t-64.5 58.5t-47.5 85.5t-18 119.5z" />
    <glyph glyph-name="t" unicode="t" horiz-adv-x="630" 
d="M61 797v237h101v287h289v-287h118v-237h-118v-797h-289v797h-101z" />
    <glyph glyph-name="u" unicode="u" horiz-adv-x="866" 
d="M72 414v620h288v-567q0 -7 -1 -35t-1 -47t3.5 -47t10.5 -45t23 -30t39 -13q21 0 35.5 10.5t21.5 23.5t10.5 36.5t4 36t0.5 36.5v10l2 631h287v-659q0 -187 -91.5 -291t-277.5 -104q-68 0 -122.5 14.5t-91 38t-63.5 59.5t-41.5 71.5t-22.5 82.5t-10.5 84t-2.5 84z" />
    <glyph glyph-name="v" unicode="v" horiz-adv-x="925" 
d="M31 1034h286l140 -583h4l135 583h299l-299 -1034h-268z" />
    <glyph glyph-name="w" unicode="w" horiz-adv-x="1421" 
d="M31 1034h280l140 -606h4l135 606h248l131 -606h4l20 111l123 495h275l-287 -1034h-238l-94 350l-61 299h-4l-60 -330l-82 -319h-241z" />
    <glyph glyph-name="x" unicode="x" horiz-adv-x="1001" 
d="M47 0l297 557l-258 477h299l82 -157l31 -64l116 221h299l-264 -477l305 -557h-305l-151 285l-154 -285h-297z" />
    <glyph glyph-name="y" unicode="y" horiz-adv-x="925" 
d="M31 1034h291l108 -418l35 -172h4l135 590h291l-444 -1544h-285l166 530z" />
    <glyph glyph-name="z" unicode="z" horiz-adv-x="821" 
d="M47 0l328 795h-295v239h694l-319 -794h284v-240h-692z" />
    <glyph glyph-name="braceleft" unicode="{" horiz-adv-x="614" 
d="M37 563v156q82 0 117.5 61.5t35.5 155.5v332q0 143 58 209.5t194 66.5h179v-155q-95 0 -129.5 -52.5t-34.5 -152.5v-271q0 -121 -34.5 -183t-133.5 -85v-4q52 -9 87 -36t52 -69.5t23 -85.5t6 -100v-244q0 -95 35 -149.5t129 -54.5v-156h-134q-91 0 -150 18.5t-91 61
t-44 97.5t-12 140v283q0 103 -34.5 160t-118.5 57z" />
    <glyph glyph-name="bar" unicode="|" horiz-adv-x="512" 
d="M143 0v1653h226v-1653h-226z" />
    <glyph glyph-name="braceright" unicode="}" horiz-adv-x="614" 
d="M-6 -98q94 0 129 54.5t35 149.5v244q0 57 6 100t23 85.5t52 69.5t87 36v4q-99 23 -133.5 85t-34.5 183v271q0 100 -34.5 152.5t-129.5 52.5v155h178q136 0 194 -66.5t58 -209.5v-332q0 -94 36 -155.5t118 -61.5v-156q-154 0 -154 -217v-283q0 -85 -12 -140t-44 -97.5
t-91 -61t-150 -18.5h-133v156z" />
    <glyph glyph-name="asciitilde" unicode="~" 
d="M43 465q25 52 49 90.5t57.5 79t76 62.5t89.5 22q45 0 104 -21t105.5 -46.5t96 -46.5t77.5 -21q22 0 40.5 9t34.5 27.5t26.5 34t26 42.5t22.5 38l115 -149q-64 -114 -99 -154q-74 -85 -166 -86q-53 0 -134 34t-151 67.5t-96 33.5q-20 0 -38.5 -8.5t-31 -18.5t-27 -31.5
t-21.5 -33.5t-21 -40l-18 -36z" />
    <glyph glyph-name="uni00A0" unicode="&#xa0;" horiz-adv-x="501" 
 />
    <glyph glyph-name="sterling" unicode="&#xa3;" 
d="M23 573v158h176q-4 49 -26.5 174.5t-22.5 196.5q0 204 116.5 329t319.5 125q404 0 397 -460h-262l2 32q2 43 -7 81t-38 67t-74 29q-55 0 -91.5 -31.5t-50 -73t-13.5 -90.5q0 -66 21.5 -192.5t23.5 -186.5h260v-158h-267q-13 -180 -96 -323l43 2q55 2 159.5 -19.5
t156.5 -21.5q124 0 223 51v-242q-74 -43 -178 -43q-83 0 -242.5 30t-241.5 30q-109 0 -221 -37v231q130 132 123 342h-190z" />
    <glyph glyph-name="copyright" unicode="&#xa9;" horiz-adv-x="1699" 
d="M45 776q0 162 64 309t172 253t257.5 168.5t313.5 62.5t312.5 -62.5t256 -168.5t171 -253t63.5 -309q0 -218 -107.5 -402.5t-292.5 -291.5t-403 -107q-219 0 -405 107t-294 291.5t-108 402.5zM205 776q0 -106 32 -205t91.5 -179t139 -140.5t178.5 -93.5t206 -33
q175 0 323 87.5t234 237.5t86 326q0 174 -86 322t-234 234.5t-323 86.5q-133 0 -253.5 -51t-206.5 -137.5t-136.5 -205t-50.5 -249.5zM504 784q0 101 33 198t92 174t149 124t195 47q58 0 108 -20v-197q-41 12 -80 12q-68 0 -121 -29t-85 -77.5t-48 -107.5t-16 -124
q0 -63 16 -124t47.5 -114.5t84.5 -86.5t120 -33q28 0 82 16v-202q-49 -19 -98 -19q-90 0 -168 31t-134.5 85t-96.5 125.5t-60 153.5t-20 168z" />
    <glyph glyph-name="guillemotleft" unicode="&#xab;" horiz-adv-x="886" 
d="M53 676l269 479l155 -80l-209 -399l209 -387l-155 -88zM408 676l266 479l157 -80l-210 -399l210 -387l-157 -88z" />
    <glyph glyph-name="uni00AD" unicode="&#xad;" horiz-adv-x="651" 
d="M70 541v272h512v-272h-512z" />
    <glyph glyph-name="registered" unicode="&#xae;" horiz-adv-x="1699" 
d="M45 776q0 162 64 309t172 253t257.5 168.5t313.5 62.5t312.5 -62.5t256 -168.5t171 -253t63.5 -309q0 -218 -107.5 -402.5t-292.5 -291.5t-403 -107q-219 0 -405 107t-294 291.5t-108 402.5zM205 776q0 -106 32 -205t91.5 -179t139 -140.5t178.5 -93.5t206 -33
q175 0 323 87.5t234 237.5t86 326q0 174 -86 322t-234 234.5t-323 86.5q-133 0 -253.5 -51t-206.5 -137.5t-136.5 -205t-50.5 -249.5zM592 246v1081h215q36 0 64.5 -1.5t70.5 -8.5t73 -19t65.5 -35t56.5 -54.5t36.5 -80.5t14.5 -110q0 -194 -154 -281l187 -491h-226
l-186 499h-4v-499h-213zM805 862l39 -2q68 -3 101.5 40.5t33.5 115.5q0 135 -145 135h-29v-289z" />
    <glyph glyph-name="guillemotright" unicode="&#xbb;" horiz-adv-x="886" 
d="M55 289l209 387l-209 399l156 80l268 -479l-268 -475zM410 289l208 387l-208 399l155 80l269 -479l-269 -475z" />
    <glyph glyph-name="afii10023" unicode="&#x401;" horiz-adv-x="802" 
d="M37 1860q0 65 45 110t111 45q62 0 105.5 -45.5t43.5 -109.5q0 -61 -45.5 -105.5t-108.5 -44.5q-62 0 -106.5 44.5t-44.5 105.5zM109 0v1544h614v-287h-309v-335h272v-287h-272v-348h313v-287h-618zM463 1860q0 65 44.5 110t110.5 45q63 0 106.5 -46t43.5 -109
q0 -61 -45.5 -105.5t-108.5 -44.5q-62 0 -106.5 44.5t-44.5 105.5z" />
    <glyph glyph-name="afii10017" unicode="&#x410;" horiz-adv-x="1081" 
d="M16 0l359 1544h321l371 -1544h-326l-57 260h-309l-56 -260h-303zM424 502h215l-78 411l-35 234h-4l-33 -234z" />
    <glyph glyph-name="afii10018" unicode="&#x411;" horiz-adv-x="980" 
d="M109 0v1544h657v-287h-352v-346h41q94 0 175 -26.5t144 -78.5t99 -137t36 -194q0 -129 -38.5 -223.5t-109 -148t-158.5 -78.5t-197 -25h-297zM414 256q90 -4 142 55t52 158q0 93 -52.5 150.5t-141.5 54.5v-418z" />
    <glyph glyph-name="afii10019" unicode="&#x412;" horiz-adv-x="980" 
d="M109 0v1544h299q110 0 181.5 -15t137.5 -69q75 -60 116.5 -154.5t41.5 -193.5q0 -206 -166 -319q90 -43 140 -147t50 -212q0 -111 -39 -196t-108.5 -136t-159 -76.5t-196.5 -25.5h-297zM414 256q90 -4 142 55t52 158q0 93 -52.5 150.5t-141.5 54.5v-418zM414 911
q85 0 133.5 53t48.5 142q0 87 -48 136.5t-134 45.5v-377z" />
    <glyph glyph-name="afii10020" unicode="&#x413;" horiz-adv-x="782" 
d="M109 0v1544h616v-287h-311v-1257h-305z" />
    <glyph glyph-name="afii10021" unicode="&#x414;" horiz-adv-x="1136" 
d="M6 287h14q66 0 117.5 68t78 178t26.5 241v770h786v-1257h111v-688h-305v401h-523v-401h-305v688zM420 287h303v970h-176v-421q0 -223 -30 -356.5t-97 -192.5z" />
    <glyph glyph-name="afii10022" unicode="&#x415;" horiz-adv-x="802" 
d="M109 0v1544h614v-287h-309v-335h272v-287h-272v-348h313v-287h-618z" />
    <glyph glyph-name="afii10024" unicode="&#x416;" horiz-adv-x="1556" 
d="M20 0l322 831l-285 713h312l254 -690h4v690h305v-690h4l254 690h311l-284 -713l321 -831h-321l-281 786h-4v-786h-305v786h-4l-281 -786h-322z" />
    <glyph glyph-name="afii10025" unicode="&#x417;" horiz-adv-x="901" 
d="M96 53v291q120 -82 232 -82q76 0 126 51t50 138q0 127 -59.5 178.5t-190.5 46.5v266q131 0 182 40t51 163q0 56 -46 102.5t-113 46.5q-109 0 -222 -98v297q130 76 271 76q189 0 290 -113t101 -291q0 -289 -190 -364v-4q225 -56 225 -340q0 -212 -118 -347t-327 -135
q-67 0 -139 20.5t-123 57.5z" />
    <glyph glyph-name="afii10026" unicode="&#x418;" horiz-adv-x="1136" 
d="M109 0v1544h305v-624l-31 -302h10l330 926h305v-1544h-305v688l31 242h-11l-329 -930h-305z" />
    <glyph glyph-name="afii10027" unicode="&#x419;" horiz-adv-x="1136" 
d="M109 0v1544h305v-624l-31 -302h10l330 926h305v-1544h-305v688l31 242h-11l-329 -930h-305zM213 1915l182 59q19 -54 66.5 -79t103.5 -25q54 0 103 25t69 77l174 -57q-24 -106 -123.5 -166.5t-222.5 -60.5q-124 0 -221.5 59.5t-130.5 167.5z" />
    <glyph glyph-name="afii10028" unicode="&#x41a;" horiz-adv-x="1050" 
d="M109 0v1544h305v-690h4l254 690h311l-285 -713l322 -831h-322l-280 786h-4v-786h-305z" />
    <glyph glyph-name="afii10029" unicode="&#x41b;" horiz-adv-x="1136" 
d="M25 0v287h4q105 0 141.5 68t36.5 220v969h821v-1544h-305v1257h-213v-663q0 -294 -105.5 -444t-345.5 -150h-34z" />
    <glyph glyph-name="afii10030" unicode="&#x41c;" horiz-adv-x="1478" 
d="M47 0l135 1544h402l149 -911h4l123 911h410l162 -1544h-314l-74 1112h-4l-49 -381l-131 -731h-235l-150 739l-51 344v29h-4l-45 -1112h-328z" />
    <glyph glyph-name="afii10031" unicode="&#x41d;" horiz-adv-x="1136" 
d="M109 0v1544h305v-604h309v604h305v-1544h-305v653h-309v-653h-305z" />
    <glyph glyph-name="afii10032" unicode="&#x41e;" horiz-adv-x="1191" 
d="M53 772q0 169 30.5 305t82 226.5t122 151.5t147.5 87.5t161 26.5t161 -26.5t147.5 -87.5t122 -151.5t82 -226.5t30.5 -305t-30.5 -305t-82 -226.5t-122 -151.5t-147.5 -87.5t-161 -26.5t-161 26.5t-147.5 87.5t-122 151.5t-82 226.5t-30.5 305zM379 772q0 -41 2 -82
t8.5 -105t22 -117t38 -103t60.5 -78.5t86 -28.5t86 28.5t60.5 78.5t38 103t22 117t8.5 105t2 82q0 44 -2 86.5t-8.5 106.5t-22 116.5t-38 101t-60.5 76t-86 27.5t-86 -27.5t-60.5 -76t-38 -101t-22 -116.5t-8.5 -106.5t-2 -86.5z" />
    <glyph glyph-name="afii10033" unicode="&#x41f;" horiz-adv-x="1136" 
d="M109 0v1544h919v-1544h-305v1257h-309v-1257h-305z" />
    <glyph glyph-name="afii10034" unicode="&#x420;" horiz-adv-x="997" 
d="M109 0v1544h317h14q16 3 39.5 1t52.5 -2t62.5 -7.5t68.5 -15.5t70 -27t67 -41.5t59 -58t47.5 -78t32 -101t11.5 -127.5q0 -217 -128.5 -341.5t-340.5 -112.5l-67 4v-637h-305zM414 885q115 -5 173 43.5t58 163.5q0 200 -174 200h-57v-407z" />
    <glyph glyph-name="afii10035" unicode="&#x421;" horiz-adv-x="925" 
d="M53 786q0 115 29 227.5t87.5 211.5t137.5 174.5t187 119.5t229 44q74 0 156 -29v-281q-66 17 -115 17q-97 0 -172.5 -41.5t-121 -111t-68.5 -153.5t-23 -176q0 -71 14 -141.5t44.5 -137.5t74.5 -118.5t108.5 -83t141.5 -31.5q42 0 117 23v-289q-65 -26 -142 -26
q-128 0 -239.5 44.5t-192 121t-138 178.5t-86 218.5t-28.5 239.5z" />
    <glyph glyph-name="afii10036" unicode="&#x422;" horiz-adv-x="847" 
d="M31 1257v287h786v-287h-242v-1257h-305v1257h-239z" />
    <glyph glyph-name="afii10037" unicode="&#x423;" horiz-adv-x="1157" 
d="M29 1544h338l211 -670l217 670h329l-563 -1544h-311l188 463z" />
    <glyph glyph-name="afii10038" unicode="&#x424;" horiz-adv-x="1325" 
d="M53 791q0 140 28 253t73 186t107 122.5t126 71t133 24.5v96h285v-96q69 -3 133 -24.5t126 -71t107 -122.5t73 -186t28 -253q0 -139 -28 -251.5t-73.5 -186t-107 -123.5t-125.5 -72t-133 -25v-133h-285v133q-69 3 -133 25t-125.5 72t-107 123.5t-73.5 186t-28 251.5z
M354 791q0 -154 44.5 -267t121.5 -131v795q-75 -18 -120.5 -136.5t-45.5 -260.5zM805 393q77 18 121.5 131t44.5 267q0 142 -45.5 260.5t-120.5 136.5v-795z" />
    <glyph glyph-name="afii10039" unicode="&#x425;" horiz-adv-x="1116" 
d="M45 0l328 797l-328 747h344l88 -215q52 -123 74 -235h4q27 137 70 235l92 215h330l-330 -747l354 -797h-354l-99 246q-22 55 -67 231h-4q-8 -26 -20.5 -73t-23.5 -85t-24 -73l-90 -246h-344z" />
    <glyph glyph-name="afii10040" unicode="&#x426;" horiz-adv-x="1136" 
d="M109 0v1544h305v-1257h309v1257h305v-1257h111v-688h-305v401h-725z" />
    <glyph glyph-name="afii10041" unicode="&#x427;" horiz-adv-x="1042" 
d="M92 1116v426h305v-323q0 -53 1.5 -86.5t5.5 -67.5t13 -53.5t23 -38t35.5 -27t50 -13.5t68.5 -5h35v616h305v-1544h-305v651h-119q-229 0 -323.5 109.5t-94.5 355.5z" />
    <glyph glyph-name="afii10042" unicode="&#x428;" horiz-adv-x="1607" 
d="M109 0v1544h305v-1257h248v1257h305v-1257h247v1257h306v-1544h-1411z" />
    <glyph glyph-name="afii10043" unicode="&#x429;" horiz-adv-x="1607" 
d="M109 0v1544h305v-1257h248v1257h305v-1257h247v1257h306v-1257h110v-688h-305v401h-1216z" />
    <glyph glyph-name="afii10044" unicode="&#x42a;" horiz-adv-x="1136" 
d="M31 1257v287h557v-633h41q94 0 175 -26.5t144 -78.5t99 -137t36 -194q0 -129 -38.5 -223.5t-109 -148t-158.5 -78.5t-197 -25h-297v1257h-252zM588 256q90 -4 142 55t52 158q0 93 -52.5 150.5t-141.5 54.5v-418z" />
    <glyph glyph-name="afii10045" unicode="&#x42b;" horiz-adv-x="1437" 
d="M109 0v1544h305v-633h41q94 0 175 -26.5t144 -78.5t99 -137t36 -194q0 -129 -38.5 -223.5t-109 -148t-158.5 -78.5t-197 -25h-297zM414 256q90 -4 142 55t52 158q0 93 -52.5 150.5t-141.5 54.5v-418zM1030 0v1544h305v-1544h-305z" />
    <glyph glyph-name="afii10046" unicode="&#x42c;" horiz-adv-x="962" 
d="M109 0v1544h305v-633h41q94 0 175 -26.5t144 -78.5t99 -137t36 -194q0 -129 -38.5 -223.5t-109 -148t-158.5 -78.5t-197 -25h-297zM414 256q90 -4 142 55t52 158q0 93 -52.5 150.5t-141.5 54.5v-418z" />
    <glyph glyph-name="afii10047" unicode="&#x42d;" horiz-adv-x="925" 
d="M63 10v289q75 -23 117 -23q75 0 139 29.5t108 81.5t74 114t46 134h-404v287h408q-14 73 -43.5 134t-75 110t-110.5 76.5t-144 27.5q-49 0 -115 -17v281q82 29 156 29q121 0 229 -44t187 -119.5t137.5 -174.5t87.5 -211.5t29 -227.5q0 -123 -28.5 -239.5t-86 -218.5
t-138 -178.5t-192 -121t-239.5 -44.5q-77 0 -142 26z" />
    <glyph glyph-name="afii10048" unicode="&#x42e;" horiz-adv-x="1669" 
d="M109 0v1544h305v-604h139q14 133 50.5 240t87.5 178.5t116.5 119.5t135 69.5t144.5 21.5q84 0 161 -26.5t147.5 -87.5t122 -151.5t82 -226.5t30.5 -305t-30.5 -305t-82 -226.5t-122 -151.5t-147.5 -87.5t-161 -26.5q-78 0 -149.5 23t-138.5 74.5t-118 128.5t-86.5 193
t-45.5 259h-135v-653h-305zM870 772q0 -41 2 -82t8.5 -105t22 -117t38 -103t60.5 -78.5t86 -28.5t86 28.5t61 78.5t38 103t21.5 117t9 105.5t2.5 81.5q0 55 -3 107.5t-15.5 131t-34.5 135.5t-64.5 98.5t-100.5 41.5q-48 0 -86 -27.5t-60.5 -76t-38 -101t-22 -116.5
t-8.5 -106.5t-2 -86.5z" />
    <glyph glyph-name="afii10049" unicode="&#x42f;" horiz-adv-x="1085" 
d="M66 0l268 702q-111 61 -165 164.5t-54 235.5q0 87 20.5 157t52 115.5t80 78.5t93.5 50t104.5 27t99.5 12t92 2h308v-1544h-306v713h-4l-268 -713h-321zM412 1100q0 -103 47.5 -164t146.5 -57l53 2v411h-41q-206 0 -206 -192z" />
    <glyph glyph-name="afii10065" unicode="&#x430;" horiz-adv-x="886" 
d="M53 518q0 63 5 125t23 140t46.5 135.5t81 97t121.5 39.5t118.5 -40.5t75.5 -107.5h4v127h289v-1034h-289v117h-4q-68 -137 -190 -137q-66 0 -118 40.5t-82 100.5t-49 136.5t-25.5 140t-6.5 120.5zM342 522q0 -28 1 -55t7.5 -70.5t17 -74.5t31.5 -54.5t50 -23.5
q32 0 54 34t31 86.5t12 89.5t3 68q0 33 -3 69.5t-12 88.5t-32.5 85.5t-57.5 33.5q-33 0 -56 -33t-31.5 -85.5t-11.5 -88.5t-3 -70z" />
    <glyph glyph-name="afii10066" unicode="&#x431;" horiz-adv-x="892" 
d="M53 596q0 273 52.5 485t144.5 316q38 42 90.5 79.5t92.5 58.5t77 52t53 66h281q0 -40 -21.5 -97t-50.5 -86q-53 -57 -159.5 -112.5t-141.5 -79.5q-85 -58 -132.5 -141t-64.5 -211l7 -6q82 114 227 114q86 0 151.5 -43t104 -117.5t57.5 -164.5t19 -193q0 -84 -11 -157.5
t-39 -144.5t-71.5 -121.5t-113 -81.5t-159.5 -31q-281 0 -362 290q-20 71 -25.5 138.5t-5.5 187.5zM342 516q0 -27 1 -52.5t7 -70t16 -76t31 -55.5t49 -24q35 0 58 33t32 86t12 88.5t3 70.5t-3 70.5t-12 89t-32 86.5t-58 33q-28 0 -49 -24.5t-31 -56t-16 -76t-7 -70
t-1 -52.5z" />
    <glyph glyph-name="afii10067" unicode="&#x432;" horiz-adv-x="847" 
d="M72 0v1034h374q159 0 232.5 -75t73.5 -197q0 -64 -24 -114.5t-56 -69.5q48 -19 84.5 -91t36.5 -168q0 -138 -90 -228.5t-246 -90.5h-385zM340 631h57q40 0 69.5 25t29.5 63q0 33 -28 60.5t-67 27.5h-61v-176zM342 223h68q45 0 78.5 35.5t33.5 77.5q0 49 -34 79.5
t-76 30.5h-70v-223z" />
    <glyph glyph-name="afii10068" unicode="&#x433;" horiz-adv-x="645" 
d="M72 0v1034h551v-237h-263v-797h-288z" />
    <glyph glyph-name="afii10069" unicode="&#x434;" horiz-adv-x="968" 
d="M23 240h43q17 11 31 23t25 22t18.5 27t13 26t9 32t5.5 32t3 38.5t1 40v47.5v50v456h690v-794h107v-609h-269v369h-409v-369h-268v609zM389 240h184v555h-112v-156q0 -158 -14.5 -253.5t-57.5 -145.5z" />
    <glyph glyph-name="afii10070" unicode="&#x435;" horiz-adv-x="847" 
d="M53 496q0 79 11.5 154t40 149.5t71.5 130.5t112 90.5t156 34.5q153 0 257.5 -132t93.5 -364l-7 -119h-456q3 -108 13 -149q25 -89 95 -90q92 0 92 118h246q-20 -155 -99 -247t-228 -92q-85 0 -153.5 29.5t-113.5 78.5t-75 116t-43 139.5t-13 152.5zM334 618h211v25
q0 30 -4 59t-14.5 61t-32.5 51.5t-54 19.5q-31 0 -53.5 -19t-33 -49.5t-15 -59t-4.5 -57.5v-31z" />
    <glyph glyph-name="afii10072" unicode="&#x436;" horiz-adv-x="1366" 
d="M12 0l285 559l-244 475h314l163 -436h9v436h278v-436h8l164 436h314l-244 -475l284 -559h-317l-201 512h-8v-512h-278v512h-9l-200 -512h-318z" />
    <glyph glyph-name="afii10073" unicode="&#x437;" horiz-adv-x="729" 
d="M53 68v260q27 -41 83.5 -74t113.5 -33q69 0 103 36t34 91q0 117 -111 117h-108v178h76q63 0 93 24t30 78q0 41 -31.5 68t-91.5 27q-42 0 -92 -26.5t-80 -65.5v249q32 24 97 41t148 17q85 0 150.5 -26t100.5 -67t52 -84.5t17 -86.5q0 -89 -37.5 -148t-77.5 -72v-4
q21 -5 45 -21.5t49 -44.5t41.5 -74.5t16.5 -102.5q0 -67 -18.5 -125t-58.5 -108.5t-111 -79.5t-167 -29q-151 0 -266 86z" />
    <glyph glyph-name="afii10074" unicode="&#x438;" horiz-adv-x="868" 
d="M72 0v1034h278v-352l-10 -176h4l197 528h262v-1034h-279v377l11 155h-5l-196 -532h-262z" />
    <glyph glyph-name="afii10075" unicode="&#x439;" horiz-adv-x="868" 
d="M72 0v1034h278v-352l-10 -176h4l197 528h262v-1034h-279v377l11 155h-5l-196 -532h-262zM104 1407l172 55q17 -51 62 -74.5t98 -23.5q52 0 98 23t66 73l164 -53q-15 -68 -66.5 -118t-119 -73.5t-142.5 -23.5q-116 0 -208.5 56t-123.5 159z" />
    <glyph glyph-name="afii10076" unicode="&#x43a;" horiz-adv-x="901" 
d="M72 0v1034h288v-436h9l163 436h314l-244 -475l285 -559h-318l-200 512h-9v-512h-288z" />
    <glyph glyph-name="afii10077" unicode="&#x43b;" horiz-adv-x="868" 
d="M8 0v240h4q56 0 78.5 32.5t22.5 130.5v631h690v-1034h-289v795h-113v-375q0 -210 -82 -315t-276 -105h-35z" />
    <glyph glyph-name="afii10078" unicode="&#x43c;" horiz-adv-x="1339" 
d="M29 0l225 1034h258l123 -475l33 -174h4l33 174l122 475h258l226 -1034h-305l-91 563h-4l-123 -563h-237l-123 563h-4l-90 -563h-305z" />
    <glyph glyph-name="afii10079" unicode="&#x43d;" horiz-adv-x="868" 
d="M72 0v1034h288v-354h154v354h289v-1034h-289v440h-154v-440h-288z" />
    <glyph glyph-name="afii10080" unicode="&#x43e;" horiz-adv-x="892" 
d="M53 516q0 84 11 158t39 145.5t71 122.5t112.5 82t159.5 31t159.5 -31t113 -82t71.5 -122.5t39 -145.5t11 -158t-11 -157.5t-39 -144.5t-71.5 -121.5t-113 -81.5t-159.5 -31t-159.5 31t-112.5 81.5t-71 121.5t-39 144.5t-11 157.5zM342 516q0 -27 1 -52.5t7 -70t16 -76
t31 -55.5t49 -24q35 0 58 33t32 86t12 88.5t3 70.5t-3 70.5t-12 89t-32 86.5t-58 33q-28 0 -49 -24.5t-31 -56t-16 -76t-7 -70t-1 -52.5z" />
    <glyph glyph-name="afii10081" unicode="&#x43f;" horiz-adv-x="868" 
d="M72 0v1034h731v-1034h-289v795h-154v-795h-288z" />
    <glyph glyph-name="afii10082" unicode="&#x440;" horiz-adv-x="886" 
d="M72 -510v1544h288v-127h5q26 67 75.5 107.5t116.5 40.5q50 0 92 -21t70 -54t49.5 -80.5t33.5 -95t19.5 -102.5t10 -98t2.5 -86q0 -58 -6 -120.5t-24.5 -140t-48 -137t-81.5 -100t-119 -40.5q-125 0 -190 137h-5v-627h-288zM340 522q0 -24 1 -50.5t7 -70t16 -76t29.5 -57
t46.5 -24.5q105 0 105 278q0 32 -3.5 69.5t-12.5 89t-31.5 85t-55.5 33.5q-28 0 -48 -24.5t-30 -56t-16 -75.5t-7 -69.5t-1 -51.5z" />
    <glyph glyph-name="afii10083" unicode="&#x441;" horiz-adv-x="645" 
d="M53 510q0 81 13 156.5t43 147.5t75 124.5t114.5 84.5t156.5 32q70 0 143 -31v-254q-36 33 -84 33q-50 0 -86 -27.5t-53.5 -72t-25 -88.5t-7.5 -89q0 -49 6.5 -91.5t23 -87t52 -71t86.5 -26.5q42 0 88 31v-265q-76 -36 -166 -36q-81 0 -147 32.5t-108 85.5t-71 123.5
t-41 142.5t-12 146z" />
    <glyph glyph-name="afii10084" unicode="&#x442;" horiz-adv-x="692" 
d="M33 797v237h629v-237h-170v-797h-289v797h-170z" />
    <glyph glyph-name="afii10085" unicode="&#x443;" horiz-adv-x="925" 
d="M31 1034h291l108 -418l35 -172h4l135 590h291l-444 -1544h-285l166 530z" />
    <glyph glyph-name="afii10086" unicode="&#x444;" horiz-adv-x="1210" 
d="M53 516q0 118 23.5 213t72.5 167.5t129.5 113.5t188.5 45l2 598h274v-598q108 -4 188.5 -45t129.5 -113.5t72.5 -167.5t23.5 -213q0 -114 -23.5 -208t-72 -167t-129.5 -115t-189 -46v-492h-276v492q-108 4 -189 46t-129.5 115t-72 167t-23.5 208zM332 516
q0 -131 35.5 -210.5t99.5 -96.5v614q-63 -17 -99 -100t-36 -207zM743 209q64 17 100 97t36 210q0 123 -36.5 206.5t-99.5 100.5v-614z" />
    <glyph glyph-name="afii10087" unicode="&#x445;" horiz-adv-x="1001" 
d="M47 0l297 557l-258 477h299l82 -157l31 -64l116 221h299l-264 -477l305 -557h-305l-151 285l-154 -285h-297z" />
    <glyph glyph-name="afii10088" unicode="&#x446;" horiz-adv-x="909" 
d="M72 0v1034h288v-794h154v794h289v-794h106v-609h-268v369h-569z" />
    <glyph glyph-name="afii10089" unicode="&#x447;" horiz-adv-x="819" 
d="M45 739v295h289v-233q0 -92 27.5 -138.5t97.5 -46.5h6v418h289v-1034h-289v377h-105q-153 0 -234 90.5t-81 271.5z" />
    <glyph glyph-name="afii10090" unicode="&#x448;" horiz-adv-x="1284" 
d="M72 0v1034h288v-794h138v794h288v-794h138v794h288v-1034h-1140z" />
    <glyph glyph-name="afii10091" unicode="&#x449;" horiz-adv-x="1318" 
d="M72 0v1034h288v-794h138v794h288v-794h138v794h288v-794h107v-609h-268v369h-979z" />
    <glyph glyph-name="afii10092" unicode="&#x44a;" horiz-adv-x="925" 
d="M27 797v237h465v-350h61q88 0 154 -28t103 -76t55 -105.5t18 -124.5q0 -65 -18.5 -124.5t-56.5 -111.5t-106.5 -83t-158.5 -31h-334v797h-182zM473 205h12q58 0 91.5 36t33.5 101q0 53 -35 96t-92 43h-10v-276z" />
    <glyph glyph-name="afii10093" unicode="&#x44b;" horiz-adv-x="1175" 
d="M72 0v1034h282v-350h62q88 0 154 -28t103 -76t54.5 -105.5t17.5 -124.5q0 -51 -11 -99.5t-36.5 -94.5t-63 -80t-96.5 -55t-132 -21h-334zM336 205h12q58 0 91.5 36t33.5 101q0 53 -35 96t-92 43h-10v-276zM821 0v1034h289v-1034h-289z" />
    <glyph glyph-name="afii10094" unicode="&#x44c;" horiz-adv-x="788" 
d="M72 0v1034h282v-350h62q88 0 154 -28t103 -76t54.5 -105.5t17.5 -124.5q0 -51 -11 -99.5t-36.5 -94.5t-63 -80t-96.5 -55t-132 -21h-334zM336 205h12q58 0 91.5 36t33.5 101q0 53 -35 96t-92 43h-10v-276z" />
    <glyph glyph-name="afii10095" unicode="&#x44d;" horiz-adv-x="645" 
d="M55 16v265q47 -31 88 -31q138 0 162 190h-201v178h199q-12 79 -52 132t-112 53q-48 0 -84 -33v254q73 31 144 31q87 0 156.5 -32t114.5 -84.5t75 -124.5t42.5 -147.5t12.5 -156.5q0 -74 -12 -146t-41 -142.5t-71 -123.5t-108 -85.5t-147 -32.5q-90 0 -166 36z" />
    <glyph glyph-name="afii10096" unicode="&#x44e;" horiz-adv-x="1261" 
d="M72 0v1034h288v-354h74q13 80 39.5 144.5t70.5 118t113 83t158 29.5q90 0 159.5 -31t112.5 -82t71 -122.5t39 -145.5t11 -158t-11 -157.5t-39 -144.5t-71 -121.5t-112.5 -81.5t-159.5 -31q-101 0 -176.5 37.5t-119 104.5t-66.5 145t-29 173h-64v-440h-288zM711 516
q0 -27 1 -52.5t7 -70t16 -76t31 -55.5t49 -24q35 0 58 33t32 86t12 88.5t3 70.5t-3 70.5t-12 89t-32 86.5t-58 33q-28 0 -49 -24.5t-31 -56t-16 -76t-7 -70t-1 -52.5z" />
    <glyph glyph-name="afii10097" unicode="&#x44f;" horiz-adv-x="841" 
d="M-4 0l219 485q-50 16 -99.5 88.5t-49.5 163.5q0 135 82 216t212 81h416v-1034h-289v440h-14l-154 -440h-323zM342 715q0 -55 36.5 -84t88.5 -29h31v221h-58q-39 0 -68.5 -33.5t-29.5 -74.5z" />
    <glyph glyph-name="afii10071" unicode="&#x451;" horiz-adv-x="847" 
d="M53 496q0 79 11.5 154t40 149.5t71.5 130.5t112 90.5t156 34.5q153 0 257.5 -132t93.5 -364l-7 -119h-456q3 -108 13 -149q25 -89 95 -90q92 0 92 118h246q-20 -155 -99 -247t-228 -92q-85 0 -153.5 29.5t-113.5 78.5t-75 116t-43 139.5t-13 152.5zM59 1350q0 65 45 110
t111 45q63 0 106.5 -46t43.5 -109q0 -61 -45.5 -105.5t-108.5 -44.5q-62 0 -107 44.5t-45 105.5zM334 618h211v25q0 30 -4 59t-14.5 61t-32.5 51.5t-54 19.5q-31 0 -53.5 -19t-33 -49.5t-15 -59t-4.5 -57.5v-31zM485 1350q0 65 45 110t111 45q63 0 106.5 -46t43.5 -109
q0 -61 -45.5 -105.5t-108.5 -44.5q-62 0 -107 44.5t-45 105.5z" />
    <glyph glyph-name="endash" unicode="&#x2013;" horiz-adv-x="1024" 
d="M0 541v272h1024v-272h-1024z" />
    <glyph glyph-name="emdash" unicode="&#x2014;" horiz-adv-x="2048" 
d="M0 541v272h2048v-272h-2048z" />
    <glyph glyph-name="quoteleft" unicode="&#x2018;" horiz-adv-x="618" 
d="M53 918l307 626h205l-205 -626h-307z" />
    <glyph glyph-name="quoteright" unicode="&#x2019;" horiz-adv-x="618" 
d="M53 918l205 626h307l-307 -626h-205z" />
    <glyph glyph-name="quotesinglbase" unicode="&#x201a;" horiz-adv-x="620" 
d="M53 -295l205 627h309l-309 -627h-205z" />
    <glyph glyph-name="quotedblleft" unicode="&#x201c;" horiz-adv-x="1005" 
d="M53 918l307 626h205l-205 -626h-307zM440 918l308 626h204l-204 -626h-308z" />
    <glyph glyph-name="quotedblright" unicode="&#x201d;" horiz-adv-x="1005" 
d="M53 918l205 626h307l-307 -626h-205zM440 918l205 626h307l-307 -626h-205z" />
    <glyph glyph-name="quotedblbase" unicode="&#x201e;" horiz-adv-x="1005" 
d="M53 -295l205 627h307l-307 -627h-205zM440 -295l205 627h307l-307 -627h-205z" />
    <glyph glyph-name="bullet" unicode="&#x2022;" horiz-adv-x="860" 
d="M43 762q0 159 112 271t273 112q160 0 273.5 -112.5t113.5 -270.5q0 -161 -113.5 -275t-273.5 -114q-161 0 -273 113.5t-112 275.5z" />
    <glyph glyph-name="ellipsis" unicode="&#x2026;" horiz-adv-x="2048" 
d="M147 170q0 80 57 137.5t138 57.5t138 -57.5t57 -137.5t-57 -137.5t-138 -57.5t-138 57.5t-57 137.5zM829 170q0 80 57 137.5t138 57.5t138 -57.5t57 -137.5t-57 -137.5t-138 -57.5t-138 57.5t-57 137.5zM1511 170q0 80 57 137.5t138 57.5t138 -57.5t57 -137.5t-57 -137.5
t-138 -57.5t-138 57.5t-57 137.5z" />
    <glyph glyph-name="guilsinglleft" unicode="&#x2039;" horiz-adv-x="532" 
d="M53 680l266 475l158 -88l-211 -387l211 -399l-158 -80z" />
    <glyph glyph-name="guilsinglright" unicode="&#x203a;" horiz-adv-x="532" 
d="M55 281l211 399l-211 387l158 88l266 -475l-266 -479z" />
    <glyph glyph-name="Euro" unicode="&#x20ac;" 
d="M33 506l57 201h72q-2 18 -2 67q0 40 2 60h-129l57 200h86q71 535 477 535q92 0 164.5 -21.5t104.5 -48.5v-282q-70 81 -217 81q-105 0 -163 -65t-75 -199h399l-57 -200h-360q0 -8 -1.5 -28.5t-1.5 -29.5q0 -13 1.5 -37t1.5 -32h321l-57 -201h-244q17 -133 76 -196.5
t162 -63.5q141 0 215 78v-283q-31 -25 -101 -44.5t-168 -19.5q-202 0 -321 129.5t-152 399.5h-147z" />
    <glyph glyph-name="trademark" unicode="&#x2122;" horiz-adv-x="1525" 
d="M2 1343v201h551v-201h-168v-880h-215v880h-168zM539 463l94 1081h280l107 -639h2l86 639h287l112 -1081h-219l-51 778h-2l-35 -266l-92 -512h-166l-104 518l-35 240v20h-4l-31 -778h-229z" />
    </font>
</defs>
</svg>
