<?xml version="1.0" standalone="no"?>
<!DOCTYPE svg PUBLIC "-//W3C//DTD SVG 1.1//EN" "http://www.w3.org/Graphics/SVG/1.1/DTD/svg11.dtd" >
<svg xmlns="http://www.w3.org/2000/svg" xmlns:xlink="http://www.w3.org/1999/xlink" version="1.1">
<metadata>
Created by FontForge 20150318 at Fri Aug 28 13:18:09 2015
 By uniteet7
Copyright 1992 Just van Rossum, Letterror, published by FontShop International for FontFont release 5.Copyright (c) 1990-2000 ParaType, Inc. All rights reserved.
</metadata>
<defs>
<font id="confic" horiz-adv-x="1024" >
  <font-face 
    font-family="confic"
    font-weight="400"
    font-stretch="normal"
    units-per-em="2048"
    panose-1="2 0 5 6 4 0 0 2 0 4"
    ascent="1638"
    descent="-410"
    x-height="1468"
    cap-height="1528"
    bbox="-25 -285 1708 1919"
    underline-thickness="102"
    underline-position="-102"
    unicode-range="U+000D-2122"
  />
<missing-glyph horiz-adv-x="748" 
d="M68 0v1365h544v-1365h-544zM136 68h408v1229h-408v-1229z" />
    <glyph glyph-name=".notdef" horiz-adv-x="748" 
d="M68 0v1365h544v-1365h-544zM136 68h408v1229h-408v-1229z" />
    <glyph glyph-name="glyph1" horiz-adv-x="2048" 
 />
    <glyph glyph-name="glyph1" horiz-adv-x="2048" 
 />
    <glyph glyph-name="uni000D" unicode="&#xd;" horiz-adv-x="2048" 
 />
    <glyph glyph-name="space" unicode=" " horiz-adv-x="477" 
 />
    <glyph glyph-name="exclam" unicode="!" horiz-adv-x="657" 
d="M219 141l78 68l96 -27l45 -51l2 -86l-57 -53l-109 -2l-53 51zM229 1360l25 110l57 46h51l60 -99l12 -518l-4 -481l-27 -39l-65 -17h-43l-55 66z" />
    <glyph glyph-name="quotedbl" unicode="&#x22;" horiz-adv-x="968" 
d="M195 1110l12 80l33 170l12 94l37 45h71l78 -61l-20 -156l-41 -182l-43 -45l-80 -2zM551 1110l12 80l33 170l12 94l37 45h72l78 -61l-21 -156l-41 -182l-43 -45l-80 -2z" />
    <glyph glyph-name="numbersign" unicode="#" 
d="M117 57l12 82l23 43l24 135l55 97l-2 71l-71 66l-2 70l43 38l65 17l70 82l12 114l-14 11h-29l-29 -39l-65 -2l-14 -15l-31 123l-2 29l71 53l95 -12l65 74l13 110l36 219l66 68l67 2l58 -66l-27 -57l2 -82l-37 -57l11 -66l-21 -82v-28l39 -43l55 30h43l11 15l-54 65
l25 183l49 149l41 29l82 2l16 -137l31 -39l-68 -183l3 -108l43 -37l2 -96l-109 -74l-25 -111l29 -26l68 -15l43 -65l-13 -66l-79 -30l-82 -2l-41 -43l-13 -97l-41 -110l-10 -140l-37 -81l-71 -43l-52 12l-84 108l-81 -127l-97 13zM381 322l18 -123l41 43l37 233h-26l-29 -29
v-53zM481 723l31 -41l43 -14l37 45v28l-25 23l11 139l-43 12l-13 -67z" />
    <glyph glyph-name="dollar" unicode="$" 
d="M207 356l26 95l29 30h43l53 -65l45 -41l-14 -53l29 -29l24 31l-8 352l-67 69l-29 -2l-98 109l-9 342l29 31l12 108l52 53l71 -26l39 2l27 29l-15 14l41 111l52 28l57 -26l16 -68v-14l29 -27l68 14l53 -80l2 -40l-51 -46l-111 41l-43 -2l-31 43l-8 15l-84 -88l-82 -2
l-14 -15l31 -80l2 -53l28 -26l52 53l12 71l65 29l43 2l45 -57l-26 -66v-71l-27 -39v-43l45 -29l31 -109l68 -26l43 -23l53 -84l59 -108l4 -191l-102 -264l-72 -41l-65 -14l-56 -98h-81l-68 106l-88 37l-96 106zM360 1008l29 -29h39l-2 29l-39 39zM592 444l59 -94l15 17
l-21 245h-14l16 -108zM686 1161v15l107 59l28 2l31 -29v-57l-55 -39l-31 37l-66 -2z" />
    <glyph glyph-name="percent" unicode="%" 
d="M172 1133l41 45v14l43 -43l2 -66l14 -14h25l55 68l13 110h24l14 -10l-22 -72l-14 -14l67 -80l-12 -65l-29 -31h-51l-29 -29l-65 -2l-74 94zM182 1286h15l28 -29l2 -14h-28zM262 150l49 153l56 111l12 80l65 124l-2 82l56 97l-2 57l24 29l12 110l68 140l23 81l-2 80
l84 125l51 2l-27 -82l-6 -122l-29 -31l-12 -109l-27 -30l-26 -123l-37 -54l-12 -110v-43l-93 -125l-12 -82l-43 -68l-12 -57h-14l-9 -14l25 -43l-12 -162l-37 -43l-13 -82l-43 -29l-51 13zM264 1454v39l10 14h15l14 -14v-39h-39zM385 1370h14l17 -12v-39h-29zM621 104
l30 367l27 72l57 2l2 -72l-39 -192l31 -95l25 -43l43 2l26 82l13 72l14 14l-43 37l-2 123l-14 14l26 2l55 -51l2 -182h-8v-39l2 -55l-55 -111l-29 -31h-79z" />
    <glyph glyph-name="ampersand" unicode="&#x26;" 
d="M143 569v52l76 182l29 31l-19 122l-39 37l-16 137l66 70l12 43v14l-57 27l-25 51l23 72l135 84l14 2l31 -57l65 -13l29 58l43 14l37 2l45 -43l14 -80l31 -28l51 30l14 -14v-14l-55 -29v-10l43 -43l58 2l24 -43l-35 -148l-82 -127l-39 -14l-69 -74l-37 -65l2 -58l70 -118
l45 -138v-43l16 -14l23 2l69 125l80 16h43l31 -65l-41 -111v-43l-64 -153l56 -52l65 2l17 -57v-39l-37 -57l-152 -4l-82 55l-96 -29l-209 -20l-149 135l-45 66zM293 1325l26 -82l19 -174l86 -70l96 2l-2 72l66 82l-2 94l-113 135l-51 -57h-29l-43 27l-16 43l28 24h-28v-24z
M315 309l27 -65l57 -56l97 -12l41 43v29l-101 203l-45 137l-29 28h-28l-15 -45z" />
    <glyph glyph-name="quotesingle" unicode="'" horiz-adv-x="538" 
d="M147 1110l13 80l33 170l12 94l37 45h71l78 -61l-20 -156l-41 -182l-43 -45l-80 -2z" />
    <glyph glyph-name="parenleft" unicode="(" horiz-adv-x="753" 
d="M145 762l13 237l37 177l12 18l2 23l-8 10l12 20l6 58l37 92l27 39l10 8l22 51l70 49l29 35l82 27l88 4l47 -31l18 -45l-14 -59l-29 -33l-96 -35l-113 -197l-26 -114l6 -15l-6 -39l-19 -41l-12 -59l8 -96l-8 -148l-10 -106l18 -109l4 -112l21 -90l22 -37l4 -64l78 -125
l103 -39l57 -73l20 -60l-57 -78l-84 9l-18 26l-60 4l-37 25l-36 82l-37 24l-23 48l-8 14h-18l-11 39l-43 59l-22 62l-15 120l7 117l-31 180z" />
    <glyph glyph-name="parenright" unicode=")" horiz-adv-x="753" 
d="M109 -115l14 56l61 75l101 37l80 131l2 60l24 39l19 88l4 112l18 109l-18 254l8 98l-14 57l-17 41l-6 52l8 8l-26 106l-113 199l-100 35l-29 31l-12 61l20 47l43 29l90 -4l76 -25l41 -45l61 -41l25 -53l10 -12l25 -37l37 -86l8 -56l6 -55l10 -22l39 -175l12 -237
l-16 -148l-33 -178l8 -117l-18 -122l-25 -64l-36 -57l-11 -39h-22l-10 -12l-19 -52l-39 -26l-37 -80l-36 -23l-54 -4l-18 -26l-82 -9z" />
    <glyph glyph-name="asterisk" unicode="*" 
d="M111 1149l28 29l137 26l25 29l-86 151v15l29 28l65 -12l88 -69l39 -15l27 43l-2 96l51 72l29 2l43 -43l18 -137l14 -14l66 30l80 68l57 2l39 -66l-8 -57l-96 -98v-23l110 -41l72 2l-29 -45l2 -37l-28 -28l-109 -19l-14 -14l102 -121l-12 -96l-109 -2l-88 94l-37 -39
l-12 -110l-57 -45l-80 12l-47 137l-10 10l-136 -55l-73 27v82l96 110v14l-125 27l-29 -2l-28 25z" />
    <glyph glyph-name="plus" unicode="+" 
d="M178 717l12 80l41 45l111 16h37l29 29l10 178l51 57l100 2l39 -41l19 -165v-39l57 -27l147 -12l31 -41l-12 -82l-66 -53l-139 -5l-27 -28l5 -191l-80 -59l-58 -2l-53 65l-4 183l-45 41l-162 6z" />
    <glyph glyph-name="comma" unicode="," horiz-adv-x="481" 
d="M100 -2l13 80l69 127l13 94l36 45h72l53 -55l4 -162l-77 -139l-43 -45l-80 -2z" />
    <glyph glyph-name="hyphen" unicode="-" 
d="M166 705v67l41 43l166 33l424 -19l45 -28l2 -94l-43 -45l-479 -11l-97 13h-14z" />
    <glyph glyph-name="period" unicode="." horiz-adv-x="618" 
d="M152 117l26 71l80 68l55 16l82 -41l74 -65l2 -109l-98 -88l-133 -4l-58 58z" />
    <glyph glyph-name="slash" unicode="/" horiz-adv-x="874" 
d="M158 109l102 321l82 207l49 164l-2 57l43 43l12 96l35 82l39 176l64 168l55 45h53l60 -69l-29 -53l-25 -181l-75 -192l-13 -82l-241 -750l-39 -137l-66 -41l-100 23z" />
    <glyph glyph-name="zero" unicode="0" 
d="M178 262l12 469l-4 191l21 370l78 140l98 69l203 33l39 2l112 -106l74 -123l-12 -82v-43l30 -27v-53l-41 -29l31 -96l19 -246l-27 -31l31 -94l-13 -123l2 -53l5 -219l-93 -139l-149 -76l-193 10l-110 84l-88 107zM387 668l8 -371l41 -86l101 -21l94 54l-8 305l22 53
l-4 191l27 153l-9 299l-67 70h-43l-39 14l-98 -74l2 -110l-21 -133z" />
    <glyph glyph-name="one" unicode="1" 
d="M229 1194l13 94l55 82l109 62l77 81l43 15l97 -12l39 -52l-11 -151v-43l33 -191l8 -999l-49 -60l-111 -2l-59 95l4 1056h-43l-51 -39l-109 7z" />
    <glyph glyph-name="two" unicode="2" 
d="M166 279l223 442l260 487l-2 66l-67 57l-109 -18l-109 -125l-122 -4l-45 57l12 133l121 127l151 60l111 -25l94 -12l141 -160l33 -152l-27 -82l-79 -210l-211 -400l-9 -57l-55 -53l-55 -113l-8 -57l24 -23l328 8l74 -55l2 -111l-70 -59l-534 -12l-68 71z" />
    <glyph glyph-name="three" unicode="3" 
d="M174 137l6 101l86 69l178 -78l58 -41l37 15l55 67l37 125l-15 152l-43 53l-45 41h-36l-97 64l6 110l193 119l22 80l-14 190l-29 58l-45 36l-94 -16l-94 -70h-72l-67 78l10 125l174 113l211 -8l125 -78l70 -109l45 -94l-9 -276l-26 -111l-41 -68l76 -231l-7 -330l-77 -139
l-113 -84l-80 -31l-190 11l-127 77z" />
    <glyph glyph-name="four" unicode="4" 
d="M209 532l65 211l21 162l10 168v37l41 74l12 65l43 45l-2 37l37 74l27 108l41 31l96 -12l39 -55l-18 -250l-25 -109l-104 -303l-27 -43l-10 -149l-37 -86l2 -52h51l64 125l24 207l70 68l67 -13l58 -65l32 -342l60 -80l-27 -86l-51 -55l4 -176l-70 -72l-53 12h-43l-67 64
l-19 125l-28 41l-205 10l-74 65z" />
    <glyph glyph-name="five" unicode="5" 
d="M186 1399l27 94l109 47l204 -24l41 28l68 27l43 -15h8l45 -36l2 -95l-28 -30l-299 -6l-44 -43l-6 -302l43 -40l181 4l110 -52l123 -163l37 -285l-25 -248l-49 -125l-149 -98l-219 -6l-125 63l-25 43l-59 80l-2 94l55 60l96 -13l135 -135l101 31l49 82l-4 219l-19 195
l-67 51l-82 -2l-84 -82l-80 -17l-43 -2l-53 80l10 168l12 82l-4 137l-29 37z" />
    <glyph glyph-name="six" unicode="6" 
d="M180 1282l6 72l99 151l22 29l123 45l166 -10l164 -78l45 -70l-12 -67l-52 -58l-100 11l-53 57l-68 -2l-112 -84l-33 -182l31 -80l241 -23l88 -41l99 -121l57 -256l-17 -290l-69 -142l-64 -82l-166 -41l-163 19l-97 70l-102 159l-16 715l26 57l-18 148zM420 727l10 -395
l74 -80h43l51 12l55 58l-10 438l-43 41l-82 12l-69 -43z" />
    <glyph glyph-name="seven" unicode="7" 
d="M211 1477l27 39l71 45l301 -37l80 2l43 30h66l45 -40l-10 -177l-29 -59l-33 -233l-27 -54l-12 -123l-41 -45l-49 -176l-68 -127l-61 -262l-90 -207l-29 -30h-80l-59 55l12 137l68 150l88 307l63 178l-2 57l56 82l20 125l41 111l55 53l9 86l-39 37l-152 -41l-92 -127
l-125 -2l-43 51z" />
    <glyph glyph-name="eight" unicode="8" 
d="M186 334l21 411l63 97l-55 137l-8 328l51 110l107 99l57 28l176 -10l100 -35l84 -84l41 -147l-4 -305l-53 -97v-37l70 -108l10 -481l-92 -140l-136 -84l-229 9l-72 36l-98 136zM403 1040l74 -55l94 2l52 43l10 248l-55 65l-72 -2l-51 -14l-41 -45zM412 668l8 -357l31 -80
h28l15 -14l108 31l25 39l4 372l-29 66l-110 12z" />
    <glyph glyph-name="nine" unicode="9" 
d="M195 1305l104 165l109 60l139 2l8 14l100 -26l138 -121l28 -51l6 -248l43 -604l15 -41l2 -39l-29 -29l4 -139l-65 -96l-95 -84l-122 -45l-138 12l-110 53l-88 109l12 79l70 56l67 -8l72 -56l110 -26l66 73l8 285l-2 29l-248 10l-110 49l-84 150zM401 1186l7 -262l98 -93
h41l51 60l29 53l12 80l-6 262l-60 55l-67 37l-27 -14l-51 -53z" />
    <glyph glyph-name="colon" unicode=":" horiz-adv-x="602" 
d="M156 135l34 111l95 55l110 -35l45 -86l-12 -94l-66 -70l-122 13zM166 727l27 125l69 39l39 16l80 -26l59 -80l-12 -96l-78 -74l-96 12z" />
    <glyph glyph-name="semicolon" unicode=";" horiz-adv-x="602" 
d="M143 -57l13 80l69 127l13 94l36 45h72l53 -56l4 -161l-77 -140l-43 -45l-80 -2zM160 727l26 125l70 39l39 16l80 -26l59 -80l-12 -96l-78 -74l-96 12z" />
    <glyph glyph-name="less" unicode="&#x3c;" 
d="M145 788l35 64l99 78l24 20l82 27l39 70h20l91 81l71 56l101 28l30 -28l41 -43l-24 -60v-32l-17 -11l-43 -30l-28 -27l-68 -49l-41 -19l-22 -12l-91 -74l-98 -67l-18 -39l41 -45l82 -74l92 -72l43 -30l53 -11l51 -51l23 -45l28 -37l29 -18l-14 -72l-27 -33l-41 -10
l-29 13l-14 24l-82 49l-49 35l-41 72l-31 -8l-6 20l-82 43l-24 35h-19l-18 41l-41 26l-43 56l-45 67z" />
    <glyph glyph-name="equal" unicode="=" 
d="M174 541l12 86l95 55l309 -10l147 6l97 2l53 -51l2 -86l-29 -39l-145 -31l-469 16l-43 25zM197 905l26 53l66 46l233 20l320 -23l39 -51l-13 -86l-37 -39l-219 -4l-290 31l-29 -10h-37z" />
    <glyph glyph-name="greater" unicode="&#x3e;" 
d="M188 301l25 59v33l16 10l43 31l29 27l68 49l41 18l22 13l86 90l92 53l29 37l-64 29l-81 88l-66 55l-53 35l-47 24l-52 52l-22 45l-29 36l-28 19l14 72l27 32l41 11l28 -13l15 -24l81 -49l50 -35l18 -33l53 -31l6 -20l82 -43l25 -35h18l19 -41l41 -27l43 -55l41 -92
l22 -68l-35 -63l-98 -78l-24 -20l-82 -27l-39 -70h-21l-90 -82l-72 -55l-100 -29l-31 29z" />
    <glyph glyph-name="question" unicode="?" 
d="M166 1055l6 291l160 165l80 31l166 -10l127 -78l67 -94l33 -137l4 -205l-49 -168l-189 -223l-24 -205l-66 -31l-43 -2l-55 94l10 219l225 312l-4 219l-45 94l-43 27l-110 -2l-66 -88l-8 -228l-109 -45zM377 156l55 57l37 16l45 -14l68 -84l2 -68l-66 -53l-96 -2l-43 51z
" />
    <glyph glyph-name="at" unicode="@" horiz-adv-x="1189" 
d="M117 389v178l35 78l-25 586l53 147l2 58l252 151l354 6l183 -69l135 -262l-8 -342l6 -310l-6 -215l-11 -37l-137 -159h-78l-100 69l-39 -10l-37 -63l-186 4l-82 84l-18 55l-25 57l-39 -8v-127l170 -192l389 -2l41 -15l12 -33l-84 -77l-55 6l-274 -17l-41 15l-96 2l-58 16
l-127 164l-57 35zM299 1288l14 -178l2 -324l27 -22l16 45l2 340l39 111l174 73l158 -41l45 41l62 -39l16 -69l-14 -160l37 -209l-9 -186l-22 -23l10 -53l39 -53h29l28 59l9 96l-7 545l35 12l-39 125l-121 82l-380 17l-123 -78zM510 766l12 -88l-4 -57l-2 -66l57 -57h50
l90 209v92l-15 80l7 241l-101 39l-63 -72l6 -204l-19 -92z" />
    <glyph glyph-name="A" unicode="A" 
d="M53 88l13 123l26 43l25 139l49 150l12 96l53 139l7 109l75 403l47 205l70 70l162 -6l59 -99l2 -37l25 -28l2 -109l45 -57l31 -133l35 -181l24 -36l19 -181l30 -51l17 -123l30 -43l2 -67l39 -41l2 -123l47 -109l-40 -82l-37 -45l-111 -2l-76 164l-18 148l-53 55l-95 -2
l-30 29l-166 -33l-64 -74l-24 -164l-27 -57l-80 -68l-67 13zM410 688l16 -53l53 -27l111 -12l41 31v37l-17 14l-16 86l-39 65l-2 66l-45 123l-29 -29l-24 -162l-49 -96v-43z" />
    <glyph glyph-name="B" unicode="B" 
d="M174 1100l14 373l27 43l43 38l66 17l358 -29l96 -55l60 -92l-15 -521l-26 -86l32 -137l-16 -477l-37 -74l-106 -82l-387 -10l-43 27l-54 80l-10 356zM383 367l33 -152l190 21l12 57l7 342l-125 35l-80 -17l-27 -82zM403 1245l9 -344l204 6l15 43l6 330l-31 51l-180 -6z
" />
    <glyph glyph-name="C" unicode="C" 
d="M174 287l14 381l-8 262l6 356l54 113l120 112l80 31l168 -10l125 -68l101 -131l4 -153l-58 -58l-65 13l-45 41l-17 79l-39 29l-86 27l-79 -17l-52 -82l9 -276l-27 -125l4 -139l-18 -357v-53l84 -78l86 2l51 25l41 45l12 94l51 60l94 2l76 -121l-90 -209l-121 -74l-305 6
l-127 121z" />
    <glyph glyph-name="D" unicode="D" 
d="M182 1247l23 287l41 43l39 14l194 -8l111 2h51l88 -41l53 -65l31 -109l4 -194v-39l31 -27l-12 -82l-27 -125l8 -342l-6 -373l-94 -96l-166 -33l-328 7l-24 28l-9 316l23 65l84 74l-29 29l-43 -3l-30 68zM348 1317l29 -41l12 -600l-24 -111l4 -233l30 -86l176 -4l58 39
l18 180l-14 725l41 71l-2 68l-68 70l-96 8l-111 24l-41 -28v-39z" />
    <glyph glyph-name="E" unicode="E" 
d="M213 743l18 424l-6 219l27 82l22 43l70 45l191 -24l167 6l39 -68l43 3l2 -43l-43 -31l-299 -35l-28 -25l-6 -262l2 -82l30 -84l29 -24l248 -6l55 -72l-26 -94l-52 -31l-262 -16l-26 -86l32 -176l-12 -82l4 -113l29 -25l219 21l94 2l60 -27l38 -55l-8 -53l-55 -60
l-520 -12l-58 70z" />
    <glyph glyph-name="F" unicode="F" horiz-adv-x="960" 
d="M180 76l21 401l-11 410l27 108l-6 277l22 207l39 28l72 2l66 43l247 -8l82 -26l95 -13l30 -41v-67l-80 -45l-96 41l-98 -45l-162 -19l-27 -82l17 -123l6 -233l43 -23l162 4l71 -26l41 -72l-12 -80l-24 -30l-261 -19l-43 -41l-2 -536l-65 -70l-94 -2z" />
    <glyph glyph-name="G" unicode="G" 
d="M184 1014l35 315l78 125l123 84l80 16l139 -24l96 -51l105 -136v-81l-70 -72l-94 27l-45 69l-68 51l-96 -2l-70 -96l9 -291l-23 -121l29 -231l-23 -57l6 -263l56 -79l43 -29l94 45l80 84l-9 303l-67 66l-72 12l-24 67l12 43v29l65 39l191 4l88 -78l-4 -452l-12 -82
l-54 -154l-123 -98l-219 -4l-139 104l-70 80l-30 109l20 387z" />
    <glyph glyph-name="H" unicode="H" 
d="M174 895l8 233l27 58l-16 139l-5 148l56 71l67 2l58 -55l28 -162l-22 -110l31 -246l-15 -31l2 -43l43 -37l191 19l43 602l51 45l86 -15l41 -65l-23 -109l21 -438l-25 -29l27 -481l29 -248l-23 -94l-70 -45l-67 12l-58 56l-6 233l23 330l-113 92l-151 -59l-23 -25l10 -496
l-26 -96l-70 -57l-53 12l-57 84z" />
    <glyph glyph-name="I" unicode="I" horiz-adv-x="651" 
d="M213 889l33 454l-2 123l65 68l43 -8h23l28 -27l7 -262l-27 -68l-51 -57l67 -65l-34 -82l53 -58l-12 -137l8 -330l18 -188l4 -168l-28 -68l-119 -2l-58 52z" />
    <glyph glyph-name="J" unicode="J" horiz-adv-x="706" 
d="M66 59l12 82l43 43l147 19l27 28l2 578l14 657l64 82l43 2l55 -65l47 -209l-8 -244l-37 -125l19 -342l4 -205l-4 -194l-41 -96l-109 -70l-219 -6z" />
    <glyph glyph-name="K" unicode="K" 
d="M215 836l12 495l25 166l43 39l65 2l60 -51l20 -313l25 -44l57 54l64 155l104 168l58 17h43l24 -27l-10 -154l-115 -249l-82 -150l17 -137l30 -29l17 -80l28 -43l13 -82l28 -41l31 -137l117 -297l-27 -53l-80 -45l-67 27l-74 131l-104 331l-43 66l-15 14l-24 -28l-11 -154
l7 -256l-56 -127l-108 12l-56 66z" />
    <glyph glyph-name="L" unicode="L" horiz-adv-x="960" 
d="M213 813l23 660l57 43l125 -11l39 -43l-43 -1052l28 -72l-24 -154l16 -37l342 -6l82 -26l31 -54l-12 -100l-95 -39l-483 17l-37 24l-31 27z" />
    <glyph glyph-name="M" unicode="M" 
d="M78 403l22 205l9 330l-3 43l29 29l-31 118l-10 371l66 60l86 16l84 -84l32 -219l89 -299l30 -94l25 -41l14 -15l41 97l25 137l37 96l24 139l68 221l51 58l137 -10l53 -56l-22 -645l24 -436l3 -96l-9 -248l-57 -60h-37l-74 56l-39 518l-26 86l-103 -279l-43 -30l-139 12
l-39 27l-45 137l-16 96l-29 27l-22 -58l-7 -370l-12 -111l2 -39l-86 -59l-67 28l-29 37z" />
    <glyph glyph-name="N" unicode="N" 
d="M143 106l23 293v629l27 467l28 14l82 -12l98 -145l17 -86l43 -66l102 -260l31 -123l29 -37h10l31 549l-5 137l43 54l95 4l30 -82l19 -166l26 -162l-24 -575l8 -402l-41 -82l-41 -28l-67 -2l-68 55l-61 205l-29 41l-17 82l-24 41l-33 133l-59 151l-25 27l-29 -29l-22 -315
l8 -314l-41 -71l-39 -17h-43z" />
    <glyph glyph-name="O" unicode="O" 
d="M201 326l28 53l9 166l36 96l-2 53l-57 209l-8 271l41 81l-2 101l172 137l67 16l138 -10l127 -63l84 -109l16 -698l-12 -410l-54 -113l-122 -88l-95 -26l-125 10l-125 64l-84 108zM383 287l41 -66l139 -39l55 45l35 111l6 905l-69 64l-137 12l-43 -59l-25 -162l31 -66
l-19 -336l4 -176z" />
    <glyph glyph-name="P" unicode="P" 
d="M199 260l24 658l-6 276l21 315l57 39h410l110 -67l45 -80l10 -496l-39 -125l-137 -84l-256 -20l-28 -53l-23 -220l6 -305l-65 -67l-86 12l-39 51zM422 1333l10 -424l25 -28l100 2l80 30l12 82l13 109l-7 225l-219 19z" />
    <glyph glyph-name="Q" unicode="Q" 
d="M164 395l22 248l-4 191l6 342l25 178l149 155l37 29l219 -8l111 -66l98 -149l19 -795l-2 -276l112 -123l-14 -37l-70 -74l-96 27l-123 -2l-28 -31l-191 10l-139 68l-98 80zM381 698l8 -393l68 -86l53 -12l86 45l20 139l11 109l-9 438l21 330l-45 55l-133 12l-29 -16
l-41 -86z" />
    <glyph glyph-name="R" unicode="R" 
d="M211 961l6 399l23 96l14 14l94 41l70 15l250 -23l82 -37l43 -41l41 -176l10 -438l-107 -154l31 -108l90 -399l31 -37l-27 -86l-94 -56l-53 13l-45 67l-31 152l-16 94l-31 94l-29 180l-31 68l-57 41l-39 -2l-41 -43l13 -576l-27 -43l-25 -24l-86 -2l-53 80l-4 823z
M416 1022l4 -168l43 2l160 18l43 68l-9 328l-45 69l-176 -4l-8 -219z" />
    <glyph glyph-name="S" unicode="S" 
d="M199 1270l67 135l109 102l108 41l148 -10l86 -37l69 -94l17 -70l-29 -30l2 -80l-28 -29l-23 -2l-102 123l-25 27l-139 -31l-53 -164l18 -152l2 -43l96 -77l140 -27l112 -121l21 -299l28 -43l4 -190l-77 -125l-109 -41l-100 -17l-52 -2l-96 37l-110 82l-60 80l-4 176
l55 45l82 -12l45 -66l11 -86l102 -63l94 16l66 96l10 123l-2 97l-45 108l-25 29l-211 37l-96 65l-67 80l-33 109z" />
    <glyph glyph-name="T" unicode="T" horiz-adv-x="866" 
d="M104 1380l13 86l80 56l495 -25l45 -29l15 -43l2 -36l-84 -74l-125 -4l-23 -43l27 -985l-8 -248l-27 -39l-29 -31l-82 12l-45 95l-8 329l-2 43l-12 533l6 287l-53 41l-111 12z" />
    <glyph glyph-name="U" unicode="U" 
d="M176 770v576l23 124l69 46h43l68 -84l10 -439l-24 -176l34 -219l-28 -43l30 -109l7 -190l53 -55l151 16l27 45l25 191l-19 823l10 162l11 43l69 30l53 2l72 -55l2 -739l-39 -125l47 -217l-24 -154l-49 -110l-109 -99l-70 -30l-235 10l-51 26l-103 109l-41 80z" />
    <glyph glyph-name="V" unicode="V" 
d="M164 1276l10 162l70 59l67 -12l56 -80l79 -436l3 -43l38 -58l2 -80l31 -81v-15l15 -12l55 96l20 111l25 194l67 207l7 137l55 56l82 2l57 -66l-10 -125l-51 -276l-23 -68l-37 -221v-57l-26 -29l-27 -162l-20 -71l2 -148l-66 -235l-51 -60l-139 12l-29 27l-31 125l-12 137
l-47 189l-19 125l-49 284l-24 56l-21 219z" />
    <glyph glyph-name="W" unicode="W" 
d="M51 1409l72 70h80l53 -52l33 -137l18 -246l33 -139l2 -65l14 -15l23 29l12 121l84 86l94 2l70 -84l16 -148l15 -12h28l23 82l35 373l26 123l-2 14l66 41l72 -8l55 -84l-12 -125l-21 -111l2 -123l-27 -38l3 -140l-27 -80l-10 -196l-27 -53l-4 -248l-37 -262l-27 -39
l-96 -31l-57 12l-68 80l-18 166l-29 39l-47 -221l-14 -43l-29 -25l-147 10l-60 109l-2 133l-67 647l-33 137l-17 162l-30 56l-2 110l-17 80z" />
    <glyph glyph-name="X" unicode="X" 
d="M164 1380l12 66l37 45h57l84 -107l86 -202l60 -70h26l78 139l12 97l23 82l84 100l51 2l74 -70l-25 -139l-131 -317l-12 -95l-37 -59v-37l-41 -45l260 -555l17 -82l24 -55l-8 -53l-55 -45h-58l-69 65l-45 98l-56 174l-59 123l-2 15l-8 14h-29l-82 -156l-22 -123l-82 -178
l-23 -30l-96 12l-29 29l13 133l116 250l49 182l56 84l-19 151l-114 240l-31 100z" />
    <glyph glyph-name="Y" unicode="Y" horiz-adv-x="858" 
d="M115 1444l57 45l53 -12l74 -123l16 -123l25 -25l49 -245l29 -43l14 -15l14 2l76 248l13 82l49 139l12 82l80 60l43 -15l31 -28l-25 -220l-47 -247l-68 -193l-39 -168l-22 -53l-25 -111l29 -41l10 -409l-57 -60l-80 13l-45 57l6 395l-2 72l-117 311l-18 191l-70 94v43
l-30 27l-33 233z" />
    <glyph glyph-name="Z" unicode="Z" horiz-adv-x="952" 
d="M164 45l10 205l193 471l28 82l35 86l143 385l15 29v43l-31 26l-65 -29l-277 9l-39 65l64 96l204 -10l277 -8l39 -51l-4 -152l-68 -250l-90 -192l-41 -125l-219 -553l29 -29l370 11l54 -37l-7 -86l-43 -25l-495 -12l-53 22z" />
    <glyph glyph-name="bracketleft" unicode="[" horiz-adv-x="847" 
d="M195 233l12 117l6 12v21l-6 12l-12 115l2 121l24 53l-14 53l6 201l8 51l-12 29v78h2l20 164l-12 90l27 71l37 60l77 4l78 16l43 -20l39 14l66 -4l51 -6l39 -23l16 -59l-4 -70l-33 -30l-47 -11l-35 2l-53 9l-59 2l-49 -35l-13 -94v-62l-12 -168l21 -162l-27 -77v-27l6 -59
l19 -109l-27 -66l20 -22v-86l-14 10l12 -147v-35l-10 -31v-41l45 -39l94 -2l80 2l60 -20l22 -80l-14 -47l-45 -29l-76 -16l-45 6l-23 16h-71l-58 11l-47 -19l-43 8l-24 15v37l-13 12l-12 31l19 22l-11 25l21 26l-33 56l6 86z" />
    <glyph glyph-name="backslash" unicode="\" 
d="M180 1399l60 69h53l55 -45l64 -168l39 -176l34 -82l13 -96l43 -43l-2 -57l49 -164l82 -207l102 -321l-4 -123l-100 -23l-66 41l-39 137l-241 750l-13 82l-76 192l-24 181z" />
    <glyph glyph-name="bracketright" unicode="]" horiz-adv-x="847" 
d="M162 -23l4 70l33 31l47 10l33 -2l53 -8h61l51 33l11 96v61l12 166l-21 160l27 80l-6 88l-18 106l30 66l-22 22v86l14 -8l-14 148v37l10 28l2 39l-49 39h-170l-62 21l-22 79l14 45l45 31l76 17l45 -7l21 -16h73l58 -10l47 18l43 -8l26 -14v-39l11 -10l12 -31l-16 -21
l8 -26l-19 -25l31 -57l-8 -84l26 -43l-12 -119l-6 -6v-23l6 -12l12 -113v-118l-26 -56l14 -55l-6 -199l-8 -53l14 -29v-79h-4l-20 -164l12 -88l-27 -72l-37 -59l-77 -6l-76 -15l-43 21l-41 -15l-68 4l-49 5l-39 22z" />
    <glyph glyph-name="asciicircum" unicode="^" 
d="M279 1352l6 47l26 35l111 71l49 27l88 -6l53 -33l50 -29l63 -53l18 -51l-8 -31l-57 -33l-60 21l-59 39l-35 35l-51 -2l-145 -84l-41 14z" />
    <glyph glyph-name="underscore" unicode="_" 
d="M-25 -70l41 43l166 33l811 -18l45 -29l2 -94l-43 -45l-866 -10l-96 12h-15l-45 41v67z" />
    <glyph glyph-name="grave" unicode="`" 
d="M307 1872l25 22l86 13l94 -62l80 -33l117 -83l8 -80l-60 -33l-59 20l-59 39l-95 56l-82 30l-49 68z" />
    <glyph glyph-name="a" unicode="a" 
d="M129 88l31 358l69 111l13 137l34 140l29 38l-31 80l41 101l41 53l6 182h15l29 25l-3 71h29l-12 -137l31 -28l-15 -68l2 -29h-14l-29 -28v-39l29 -27l-10 -110l-13 -111l-67 -29l-27 -53l31 -86v-37l39 -43l248 6l69 68v43h37l31 -55l-29 -25l2 -111l-133 -16l-70 -31
l-190 -4l-70 -153l-6 -80l-12 -125l-43 -29l-43 12h-10zM401 1436l15 57l43 2l14 -57l39 -23l45 -43l16 -108l-30 28l-43 -2l-25 123h-43zM588 1184l10 8l57 2l31 -80l27 -162l-21 -182l-14 -14l-45 86l-39 116zM637 1360v67h14l15 -10zM739 362l27 68l43 -39l55 -123l2 -57
l58 -27l-15 -53l-57 -14l31 -43l-54 14l-28 27l-31 96zM745 705v28l43 25l15 -37v-43h-29zM791 596l14 25l39 -37v-29l-8 -14z" />
    <glyph glyph-name="b" unicode="b" 
d="M137 260l35 154l55 53l-34 289l-9 358l21 395l51 58l319 22l109 -26l98 -70l39 -51l10 -496l-22 -53l4 -152l27 -151l-15 -424l-120 -127l-467 -10l-31 43l12 137l-57 22zM365 483l69 -106l-14 -17l-51 -67l2 -43l24 -37l209 14l21 125l10 262l-31 56l-176 6l-43 -25
l2 -28zM395 909l203 4l29 29v43l-21 219l27 125l-45 51l-176 -4l-13 -14z" />
    <glyph glyph-name="c" unicode="c" 
d="M219 440l8 934l174 166l80 29l168 -10l111 -78l84 -166l-23 -68l-28 -28l-58 14l-67 121l-84 80l-84 -17l-54 -28l-55 -68l-20 -168l10 -25v-41l-37 -45l31 -65l12 -123l-65 -98l28 -41l8 -330v-51l54 -72l45 -37l123 -24l79 82l56 139l22 14h43l60 -69l-27 -134
l-92 -112h-43l-66 -60l-209 -18l-98 70l-84 147z" />
    <glyph glyph-name="d" unicode="d" 
d="M182 1092l25 125l-4 190l37 45l57 -14l29 28l-45 58l28 39l123 2l31 -29l-14 -66l2 -43l-123 -26l-43 -60l67 -41l31 -94l-35 -82l4 -204l-10 -152l-29 -31l45 -94l9 -381l53 -41l180 4l37 43l10 258l25 111v43l28 -29l11 15l-2 43l-11 14h-26l-33 131l6 344l80 74v14
l-68 37v27l-73 57l-66 8l-31 27l29 43l-16 43v24l96 -12l86 -22l39 -27h57l29 -70l2 -53l-41 -43l31 -94l16 -111l2 -151l-26 -39l-15 -15l31 -79l-14 -60l-27 -80l45 -80l8 -344l-26 -100l-41 -68l-80 -59l-291 -29l-148 35l-45 55l5 453l-9 410l29 28zM530 1501l54 -28
l-2 28h-52z" />
    <glyph glyph-name="e" unicode="e" 
d="M197 172l24 229l-8 320l23 53l-3 86h15l28 25l-69 84l37 121l10 137l10 233l164 90l162 27l190 -10l43 -23l31 -57l-14 -43l-64 -68l-211 10l-82 27l-137 10l-65 -57l53 -51l43 -43l22 -314l-43 -43v-28l31 -25l94 12l234 7l43 -39l-13 -94l-69 -46l-68 -2l-96 41
l-123 -2l-29 -28l9 -359l18 -123l43 -26l371 8l53 -66l-27 -82l-79 -59l-424 19l-86 26z" />
    <glyph glyph-name="f" unicode="f" horiz-adv-x="921" 
d="M213 1257l27 97l79 59v14l-96 27v8l27 31h82l14 -12l80 71l43 17l176 -56l168 5l2 -80l-29 -31l-110 27l-109 -17l-67 -28l-101 12l-37 -2l-28 -29l-12 -110l30 -23l-28 -72l30 -53l4 -209l-14 -10l43 -41l125 16l123 2l39 -41l2 -53l-39 -43l-109 -2l-57 41l-137 -59
l-15 -43l46 -66l-11 -190l4 -219l45 -86l-86 -68l-65 -2l-31 43l12 176l-8 410l4 495l27 29z" />
    <glyph glyph-name="g" unicode="g" 
d="M240 938l20 152l41 110l12 14l39 3l4 -183v-51l31 -68l-27 -57l9 -424l-23 -72l-88 84l-4 220l41 96l-2 53l-14 14zM260 338h72l112 -150v-28l15 -15l39 2l28 29l80 17l109 96l-13 96l-28 27l10 178l12 98v25l-168 24l-2 82l58 43l53 -12l96 -94l15 16h28l15 -14v-43
l-27 -25l45 -108l-29 -43l45 -152l2 -29l-43 -24l-14 -15l14 -14h29l-27 -110l-161 -156l-179 -2l-110 78l-60 84zM268 1337l29 68l78 82l28 2l31 -68l37 17l14 43l-2 37l58 16l82 2l110 -94v-29l-41 -29v-24l29 -27h43l2 -57l-43 -10h-29l-2 53l-82 55l-147 35l-84 -113
l-51 -28z" />
    <glyph glyph-name="h" unicode="h" 
d="M211 819l10 248l-2 82l-2 43l12 94l68 17l12 14l-80 26l-2 68l27 29v28l-43 23l12 57l111 2l43 -41l-12 -96l-70 -53v-29l14 -14h43l33 -166l-25 -176l68 -66l74 -41l80 45l80 2l28 25l27 94l37 31l14 14l-84 80v72l-4 123l27 147l36 45h15l30 -108l5 -219l30 -43
l-24 -191l-92 -192l-109 -31l-72 -2l-67 51l-58 -12l-34 -72l2 -152l30 -79l-24 -154l31 -133l-13 -111l-41 -43l-96 -2l-43 56l12 110l-10 410l29 43l51 2l14 10l-67 70zM666 104l32 412l13 94l37 74h57l29 -27l-7 -344l2 -71l31 -80l-26 -82l-82 -31l-58 29z" />
    <glyph glyph-name="i" unicode="i" horiz-adv-x="673" 
d="M246 295l22 244l-20 245l41 88l-31 66l6 313l-6 219l29 46l41 14l39 2l59 -70l2 -121l-70 -71l45 -29l29 -22v-43l-55 -31l-10 -123v-39l59 -55v-68l-70 -43l60 -65l-10 -140v-43l-41 -28l-11 -11l27 -86l-23 -24v-27l68 -69l18 -125l2 -119l-55 -57l-80 -5l-59 58z" />
    <glyph glyph-name="j" unicode="j" horiz-adv-x="673" 
d="M92 186l66 58l108 -13l43 45l2 353l19 442l-2 111l6 356l28 25l80 16h15l28 -27l-26 -110l-13 -15l43 -36l-24 -222l45 -55l-53 -221l2 -51l43 -43l-13 -80l-26 -60l2 -108l59 -51l-53 -262l2 -82l-121 -127l-205 10l-43 22l-10 15z" />
    <glyph glyph-name="k" unicode="k" horiz-adv-x="960" 
d="M233 930l25 205l-6 219l29 45l-17 94l29 29l65 2l45 -43l-28 -66l6 -315l-12 -29v-43l43 -37l67 39l27 29l-14 57l40 39l23 111l92 153l41 45h14l31 -71h25v-15h-10l-29 29l-29 -29l-10 -149l-78 -182l-12 -95l-29 -30l31 -80l-51 -58v-10l10 -14l29 24l43 -36l71 -218
v-96l74 -84l4 -137l37 -39l-27 -72l-8 -10h-43l-69 80l-15 80l-31 29l-30 151l-17 109l-39 39l-30 108l-97 -2l-41 -39l31 -166l-26 -28l45 -109l-29 -39l4 -219l-27 -31h-53l-57 37l6 344l-4 209v66l24 153z" />
    <glyph glyph-name="l" unicode="l" horiz-adv-x="937" 
d="M205 915l20 125l4 467l43 43l95 -12l30 -55l11 -439l-13 -96l-28 -53l4 -123l30 -137l-10 -197l-26 -24l14 -56l16 -110v-15l45 -36l381 8l29 -27l-12 -96l-37 -43l-510 -12l-43 28l-25 27l6 330l23 82l-25 55l6 190l-4 125z" />
    <glyph glyph-name="m" unicode="m" 
d="M92 1083l84 54l23 30l-39 95l-15 14l15 14h28v-39l11 -12h43l-2 68l-56 106l-16 111l51 43l29 2l69 -94l5 -183l59 -108l-12 -109l43 -43l16 -94l70 -145h14l29 24l6 123l28 29l11 168l76 243l28 58l12 16l-28 27v53l69 57l111 -12l53 -70l2 -123l-26 -38l-68 36l-14 15
l-53 -56l83 -106l52 29h14l14 -13l-26 -45l-51 -57l30 -80l27 -162v-43l-51 -57l16 -82l18 -248l56 -94l-51 -96l41 -80l-23 -57v-52l-41 -30l-68 12h-14l-29 29l-18 833l-14 14l-27 -38l-12 -154l-37 -82l-10 -137l-41 -86l-66 -70l-43 15l-67 26l-31 53l-17 166l-86 189
l-14 14l-26 -68l12 -618l-27 -57l-24 -11l-43 -2l-43 80l-9 359l29 28l-18 176l-15 29l-2 37l56 88l14 14l-43 37z" />
    <glyph glyph-name="n" unicode="n" 
d="M199 946l28 25l13 86l41 53l22 111l14 14l-28 27l-2 53l-11 14h-14l37 72l-14 37l55 59h29l2 -57l14 -15l27 -122l-15 -11l43 -55l31 -80l53 -57l33 -146l43 -86l16 -94l17 -67l39 -41h14l6 409l27 43l-2 111l22 108l58 -51l-41 -86l73 -131l9 -401l-25 -152l31 -123
l-8 -287l-43 -43l-80 -2l-86 207l-29 54l-18 137l-70 159l-61 209l-3 111l-43 66l-10 14l-14 -2l-12 -94v-768l-41 -86l-37 -29l-43 12l-45 72l6 452zM727 1434v57l8 29l15 -43l2 -43h-25z" />
    <glyph glyph-name="o" unicode="o" 
d="M180 276l21 125v43h14l41 45l12 95l-14 14h-29l-2 80l41 16l86 -149l4 -205l-41 -45l88 -64l39 -43l123 5l80 96l19 387l-23 313l-16 15v43l28 28l25 96l-45 95l-127 135l12 39v43l-39 26l53 -26l56 30l96 -40l115 -150l30 -94l2 -629l-26 -45l8 -328l-55 -110l-107 -99
l-65 -30l-205 8l-158 149zM203 883l10 190l27 31l-31 70v10l29 28l36 2l29 29l-41 94l129 142h29l4 -138l-51 -67l-54 -125l3 -43l43 -51l-9 -211l-55 -111l-51 -2l-14 14l-5 97z" />
    <glyph glyph-name="p" unicode="p" 
d="M248 94l8 262l-2 95v81l10 125v56l-6 315l23 248l-31 137l12 125l313 45l140 -27l125 -77l16 -82l39 -41v-25h-14l-23 -28l27 -205l2 -58l-25 -28l-12 -111l-41 -82l-107 -82l-290 -20l-23 -29l10 -577l-55 -54l-39 -14zM389 1389l27 -166l4 -244l31 -100l190 18l29 29
l6 426l-31 26l-94 13l-29 28l-125 -2z" />
    <glyph glyph-name="q" unicode="q" 
d="M176 229l25 154l41 25l-6 219l28 28l68 -65l22 -275l31 -94l113 -80l94 19l41 67l31 277v39l-7 166l29 43l-45 65l-10 395l-84 99l-137 -4l-66 -43l2 -68l-43 -45l-80 12l-2 54l41 43l-31 81l37 72l70 53l94 47l139 -12l125 -63l99 -150l30 -69l-6 -330l-26 -39l2 -72
l28 -547l41 -94l-20 -139h-43l-68 55l-43 -2l-28 -28l-314 6l-143 135zM188 819l39 113l-28 26l-2 82l55 43l84 -84l-8 -256l-13 -14l-67 21z" />
    <glyph glyph-name="r" unicode="r" 
d="M184 45l4 453l25 194l-4 133l10 621l98 96l234 -22l82 -37l53 -70l2 -14l-80 -53l-162 -5l-28 -28l-8 -273l2 -139l30 -41l220 4l26 45l-20 260l-2 111l36 39l72 -12l41 -54l-12 -94l-51 -59l14 -43v-23l70 -55v-29l-54 -2l-26 -24v-29l43 -27l-13 -82l-55 -71l2 -121
l49 -193l45 -342l-51 -53l-82 -2l-73 121l-35 256l-25 29l-18 204l-43 41l-68 15l-41 -60l12 -532l-79 -84l-111 12z" />
    <glyph glyph-name="s" unicode="s" 
d="M209 1356l149 155l95 25l108 -6h39l57 -41l-14 -14l2 -15l80 -14l31 -80l30 -94v-58l-26 -24l-53 8l-17 86v39l-74 70l-96 34v43l-14 15l-29 -29v-14l15 -15h-52l-69 -69l-52 -139l19 -138l55 -131l111 -108l100 -41l39 2l59 -58l52 3l-13 -82l-22 -29l6 -381l-41 -72
l-27 -82l-36 -28l-58 -2l-28 -29l-162 10l-88 56l-68 94l-4 219l43 14l37 2l29 -28l2 -109l170 -121l38 -14h29l107 141l24 197l-16 80l-31 108v29l-29 22l-10 -14l-166 -2l-96 41l-82 55l-45 51z" />
    <glyph glyph-name="t" unicode="t" horiz-adv-x="817" 
d="M113 1399l49 100l262 -6l151 -10l68 -13l14 -14l-34 -82l-101 -45l-20 -53l-10 -182l-15 -15l39 -51l-4 -182l-29 -25l43 -149l-16 -316l29 -123l-19 -206l-71 -43l-68 26l-29 66l-6 766l10 153l-4 152l-18 176l-154 25h-24z" />
    <glyph glyph-name="u" unicode="u" 
d="M195 369l10 221l6 399l-6 287l10 209l51 53l72 -12l45 -66l-41 -96l29 -43l-15 -672l23 -370l53 -52l166 2l66 84l26 95l-35 342l-6 276l25 139l-33 285l27 82l137 -12l31 -52l2 -71l-29 -25l8 -452l31 -41l-51 -287l-29 -29l45 -82l4 -194h-57v-82l16 -15l-22 -67
l-152 -103l-151 -2l-140 68l-69 80z" />
    <glyph glyph-name="v" unicode="v" 
d="M168 1360l12 82l94 59l43 -12l54 -51l18 -140l31 -55l4 -219l47 -123l29 -205l2 -55l30 -53l17 -94l14 -15h15l36 45l-24 37l-2 29l24 28l43 3l29 -72l-25 -82l29 -41l-26 -39l4 -205l-48 -153l-57 -60l-80 13l-30 28l-17 152l-2 39l-55 84l6 133v43l-25 28l-18 138
l-47 174l-19 125l-26 137zM635 825l82 549l41 74l41 25h39l43 -37l4 -123l-56 -74l-12 -109l-61 -163l-49 -168v-15l10 -14l-8 -10h-29z" />
    <glyph glyph-name="w" unicode="w" 
d="M74 1386l55 82l111 -6l28 -26l54 -547l-27 -101l-64 -135l84 -98v-39l31 -27h14l27 29v39l23 29l-25 43l31 248l-25 51l21 96l57 45l123 -12l41 -66l-6 -108l-29 -60h-43l-49 -67l4 -154l-43 -43l-10 -96l6 -299l16 -68l2 -43l-41 -57l-24 -25l-109 -2l-74 64l-43 547
l27 57l-33 162v43l-2 53l-71 164zM535 551h28l29 -27l-27 -30h-28zM547 84l39 164h43l39 -66l2 -57l43 -37l-11 -100l-96 -2zM559 727l27 31h43l10 -15l2 -43h-68v15zM705 446l26 25h39l14 -14l2 -37l-28 -17h-39zM721 885l18 205l-6 204l27 111l55 59l96 -12l7 -248
l-62 -168l-12 -135l-41 -86l-41 -14l-14 -2z" />
    <glyph glyph-name="x" unicode="x" 
d="M145 92l13 82l80 88l12 123l26 39l64 182l41 53l55 60l-28 26l-17 82l-117 326l-28 29l-2 123l55 24l53 -22l-12 -86l88 -121l14 -10l39 2l70 82l22 96l68 125l37 110l41 43l57 2l53 -71l-12 -37v-43l-37 -68l-106 -321l-25 -25l-24 -125l-29 -43l33 -137l69 -123
l47 -203l70 -108l45 -137v-54l-51 -43l-57 -2l-68 66l-117 317l-43 66l-2 43l-14 12h-14l-78 -154l-103 -303l-43 -43l-94 27zM268 1438l29 2l14 -10l2 -44h-43z" />
    <glyph glyph-name="y" unicode="y" horiz-adv-x="888" 
d="M135 1393l8 82h56l30 -23l-12 -72l-43 -16h-14zM219 1243l14 43h15l10 -14v-29h-39zM279 1010h14l29 30l-3 43h43l25 -26l4 -139l58 -52l28 2l78 97l14 14l-43 37l25 182l76 150l-2 100l14 25l55 2l2 -82l-41 -43l31 -109l-8 -235l-39 -134l-37 -45l4 -108l-43 -60l4 -94
l-41 -110l45 -80l-6 -344l-41 -43l-65 -2l-56 69l-14 520l-59 121l-2 82l-29 29z" />
    <glyph glyph-name="z" unicode="z" horiz-adv-x="897" 
d="M152 57l24 181l37 81l12 82l107 207l24 125l29 29l39 153l51 97l41 139l107 149l-2 43l-43 27l-234 -18l-137 -2l-39 51l12 86l80 39l191 -35l276 -8l16 -15l-43 -71l15 -8h14l-41 -89l2 -108l15 -14l-41 -82l-9 -80l-55 -98l-61 -209l-56 -99v-22l-41 -31l-8 -123
l-26 -28l-15 -68l-55 -57l-8 -97l67 -41l344 7l29 -23l-12 -100l-43 -2l-29 28h-24l-29 -53l-152 35l-39 -25l-223 -33l-39 27z" />
    <glyph glyph-name="braceleft" unicode="{" horiz-adv-x="727" 
d="M55 725l6 47l29 37l47 2l70 16l29 29l-15 184l8 195l-22 27v24l39 41l16 82l125 78l102 26l117 -10l33 -57l-33 -94l-63 -2l-29 -29l-57 -12l-31 -27l-2 -123l8 -180l-24 -29l8 -119l-45 -69l-19 -19l19 -28l45 -76l-8 -205l24 -28l-8 -181l2 -123l31 -26l57 -13l29 -28
l63 -2l33 -94l-33 -58l-117 -10l-102 27l-125 77l-16 82l-39 41v25l22 27l-8 194l15 270l-29 29l-31 10l-20 -2l-84 25z" />
    <glyph glyph-name="bar" unicode="|" horiz-adv-x="741" 
d="M272 1225l25 178l-10 61l73 49l56 -14l39 -57l14 -180l-10 -181l10 -88l-14 -96l30 -53l-20 -53l4 -170l20 -224l9 -338l-37 -114l-103 4l-51 57l2 144l-26 788l10 80z" />
    <glyph glyph-name="braceright" unicode="}" horiz-adv-x="727" 
d="M74 -61l32 94l64 2l29 28l57 13l31 26l2 123l-8 181l24 28l-8 205l45 76l18 28l-18 19l-45 69l8 119l-24 29l8 180l-2 123l-31 27l-57 12l-29 29l-64 2l-32 94l32 57l117 10l103 -26l125 -78l16 -82l39 -41v-24l-23 -27l9 -195l-15 -184l29 -29l69 -16l48 -2l28 -37
l6 -47l-16 -49l-84 -25l-20 2l-31 -10l-29 -29l15 -270l-9 -194l23 -27v-25l-39 -41l-16 -82l-125 -77l-103 -27l-117 10z" />
    <glyph glyph-name="asciitilde" unicode="~" 
d="M268 1278l6 108l113 70l80 31l96 -27l43 -37l43 2l37 39l86 -12l25 -22l2 -87l-49 -67l-82 -31l-138 10l-43 13h-38l-56 -45l-67 -2z" />
    <glyph glyph-name="uni00A0" unicode="&#xa0;" horiz-adv-x="477" 
 />
    <glyph glyph-name="sterling" unicode="&#xa3;" 
d="M137 106l10 148l41 74l95 39l153 -11l29 -22h10l27 24l-17 152l-41 53l-16 82l-16 23l-41 49l-115 16l-51 35l-2 82l28 29h52l36 10l48 -2h14l8 14v29h-39l-53 137l-45 72l27 82l12 94l65 98l136 96l110 -10l111 -51l73 -107l11 -96l-37 -28l-80 -3l-59 80l-68 27
l-72 -31l-63 -96l-12 -94l96 -152l6 -71l115 -7l51 -12l16 -82l-24 -37l-101 -4l-14 -14l14 -51l39 -150l35 -74l29 -57l-11 -162l68 -12h43l27 53l51 45l43 -14l31 -80l2 -72l-84 -81l-133 -48l-101 13l-67 41l-150 -60l-147 -4l-45 29z" />
    <glyph glyph-name="dieresis" unicode="&#xa8;" 
d="M219 1774l51 43l68 2l57 -66l2 -72l-80 -55l-43 14l-53 52zM631 1716l12 43l66 68l57 -12l41 -66l-14 -82l-23 -29l-96 13z" />
    <glyph glyph-name="copyright" unicode="&#xa9;" 
d="M117 739l20 172l-12 283l53 86l-2 106l215 144l88 16l172 -10l162 -66l76 -114l51 -133l-8 -310l6 -290l-14 -430l-68 -119l-156 -92l-118 -29l-158 12l-158 66l-106 114l-41 158l10 82zM221 694l8 -213l4 -295l93 -80l307 -47l121 54l75 135v663l13 318l-37 119l-115 75
l-303 17l-92 -74l-59 -195l-9 -153zM301 426l10 266l-6 182l4 250l39 80l84 78l55 23l117 -9l88 -47l70 -92l4 -106l-41 -41l-45 8l-33 29l-10 57l-27 18l-61 19l-55 -11l-37 -57l6 -194l-19 -86l5 -99l-15 -250v-36l60 -54h59l37 19l28 30l9 66l35 43h67l53 -84l-63 -145
l-86 -54l-213 4l-88 86z" />
    <glyph glyph-name="guillemotleft" unicode="&#xab;" horiz-adv-x="1064" 
d="M86 788l27 64l73 78l19 20l61 27l29 70h16l68 81l53 56l76 28l47 -28l43 -47l-18 -60v-33l-13 -10l-32 -30l-21 -27l-51 -49l-31 -19l-16 -12l-68 -74l-61 -55l-15 -39l31 -45l62 -74l69 -71l33 -31l39 -10l39 -52l16 -45l23 -36l8 -31l-19 -51l-49 -50l-30 -10l-21 13
l-12 24l-35 29l-27 20l-37 35l-30 72l-23 -8l-4 20l-61 43l-19 35h-14l-14 41l-31 26l-31 56l-47 67zM496 788l26 64l74 78l18 20l62 27l29 70h16l67 81l54 56l76 28l47 -28l43 -47l-19 -60v-33l-12 -10l-33 -30l-20 -27l-52 -49l-30 -19l-17 -12l-67 -74l-62 -55l-14 -39
l31 -45l61 -74l70 -71l33 -31l38 -10l39 -52l17 -45l22 -36l8 -31l-18 -51l-49 -50l-31 -10l-20 13l-13 24l-34 29l-27 20l-37 35l-31 72l-22 -8l-4 20l-62 43l-18 35h-14l-15 41l-31 26l-30 56l-47 67z" />
    <glyph glyph-name="uni00AD" unicode="&#xad;" 
d="M166 705v67l41 43l166 33l424 -19l45 -28l2 -94l-43 -45l-479 -11l-97 13h-14z" />
    <glyph glyph-name="registered" unicode="&#xae;" 
d="M117 739l20 172l-12 283l53 86l-2 106l215 144l88 16l172 -10l162 -66l76 -114l51 -133l-8 -310l6 -290l-14 -430l-68 -119l-156 -92l-118 -29l-158 12l-158 66l-106 114l-41 158l10 82zM221 694l8 -213l4 -295l93 -80l307 -47l121 54l75 135v663l13 318l-37 119l-115 75
l-303 17l-92 -74l-59 -195l-9 -153zM311 844l4 327l15 68l10 10l68 29l47 10l176 -16l57 -27l29 -28l28 -123l9 -308l-76 -106l22 -76l64 -280l20 -25l-18 -61l-66 -39l-36 10l-33 47l-33 172l-20 66l-21 124l-20 50l-41 28l-27 -2l-29 -30l9 -404l-19 -29l-18 -18h-60
l-37 55zM455 934l2 -117l30 2l111 12l31 48l-6 229l-31 49l-123 -4l-6 -152z" />
    <glyph glyph-name="acute" unicode="&#xb4;" 
d="M307 1661l12 82l113 82l80 33l94 61l86 -12l25 -23l-10 -86l-50 -43l-82 -31l-94 -55l-59 -39l-68 -14z" />
    <glyph glyph-name="guillemotright" unicode="&#xbb;" horiz-adv-x="1064" 
d="M68 301l18 59v33l12 10l33 31l21 27l51 49l30 18l17 13l67 73l62 56l14 39l-31 45l-61 73l-70 72l-32 31l-39 10l-39 51l-17 45l-22 37l-8 31l18 51l49 49l31 10l21 -12l12 -24l35 -29l26 -21l37 -34l31 -72l22 8l4 -20l62 -43l18 -35h15l14 -41l31 -27l30 -55l48 -68
l2 -92l-27 -63l-74 -78l-18 -21l-62 -26l-28 -70h-17l-67 -82l-54 -55l-75 -29l-47 29zM477 301l19 59v33l12 10l33 31l20 27l51 49l31 18l16 13l68 73l61 56l15 39l-31 45l-61 73l-70 72l-33 31l-39 10l-39 51l-16 45l-22 37l-9 31l19 51l49 49l31 10l20 -12l12 -24l35 -29
l27 -21l37 -34l30 -72l23 8l4 -20l61 -43l19 -35h14l15 -41l30 -27l31 -55l47 -68l2 -92l-26 -63l-74 -78l-19 -21l-61 -26l-29 -70h-16l-68 -82l-53 -55l-76 -29l-47 29z" />
    <glyph glyph-name="afii10023" unicode="&#x401;" horiz-adv-x="1038" 
d="M213 473l8 305l37 19l-41 194l8 176l-6 219l10 76l58 66l151 14l105 4l59 49l-2 27l-41 45h-80l-8 -43l-35 -41l-55 -8l-43 82l-80 6l-37 31l33 82l55 32l94 -8l48 -41l65 -16l68 59l78 27l122 -47l7 -94l-13 -43l-37 -33v-35l66 -14l41 -52l8 -57l-18 -45l-47 -51
l-127 -29l-183 10l-30 -67l6 -361l28 -24l193 -2l98 -90l-4 -74l-57 -45l-88 26h-107l-84 -47l-43 -67l6 -152l70 -217l53 -29l172 17l94 2l60 -27l39 -55l-8 -53l-56 -60l-217 6l-129 -20l-133 12l-119 181z" />
    <glyph glyph-name="afii10017" unicode="&#x410;" 
d="M53 88l13 123l26 43l25 139l49 150l12 96l53 139l7 109l75 403l47 205l70 70l162 -6l59 -99l2 -37l25 -28l2 -109l45 -57l31 -133l35 -181l24 -36l19 -181l30 -51l17 -123l30 -43l2 -67l39 -41l2 -123l47 -109l-40 -82l-37 -45l-111 -2l-76 164l-18 148l-53 55l-95 -2
l-30 29l-166 -33l-64 -74l-24 -164l-27 -57l-80 -68l-67 13zM410 688l16 -53l53 -27l111 -12l41 31v37l-17 14l-16 86l-39 65l-2 66l-45 123l-29 -29l-24 -162l-49 -96v-43z" />
    <glyph glyph-name="afii10018" unicode="&#x411;" horiz-adv-x="1005" 
d="M199 385l10 277l-10 657l4 166l39 51l86 12l147 -20l53 24l197 -2l92 -49l6 -117l-69 -57l-197 -6l-94 20l-72 -47l33 -43l-4 -264l242 4l151 -100l39 -125l-10 -158l-8 -377l-56 -41l-65 -112l-97 -47h-340l-57 39zM416 223l14 -14l219 18l6 267l-14 71l-10 119l-80 31
l-100 2l-31 -31z" />
    <glyph glyph-name="afii10019" unicode="&#x412;" 
d="M174 1100l14 373l27 43l43 38l66 17l358 -29l96 -55l60 -92l-15 -521l-26 -86l32 -137l-16 -477l-37 -74l-106 -82l-387 -10l-43 27l-54 80l-10 356zM383 367l33 -152l190 21l12 57l7 342l-125 35l-80 -17l-27 -82zM403 1245l9 -344l204 6l15 43l6 330l-31 51l-180 -6z
" />
    <glyph glyph-name="afii10020" unicode="&#x413;" horiz-adv-x="940" 
d="M213 662l6 815l51 53l125 20l158 -49h254l61 -65l-6 -50l-55 -38l-385 -21l-16 -37l24 -153l-29 -72l43 -1053l-38 -43l-125 -10l-58 43z" />
    <glyph glyph-name="afii10021" unicode="&#x414;" horiz-adv-x="1204" 
d="M102 -49l7 72l-3 124l29 74l68 64l53 90l25 119l-2 606l14 373l26 43l43 38l66 17l387 -4l92 -80l60 -92l2 -359l-17 -278l6 -191l-45 -12l-24 -37l69 -41v-176l39 -47l66 -4l27 -119v-115l-11 -151l-37 -78l-81 -49l-60 18l-39 82l2 107l-30 71l-66 19h-236l-55 26
l-76 -43l-20 -57v-70l-39 -104l-113 -43l-86 25zM502 477l35 -198l206 10l15 43l6 948l-31 51l-182 -6l-23 -80z" />
    <glyph glyph-name="afii10022" unicode="&#x415;" 
d="M213 743l18 424l-6 219l27 82l22 43l70 45l191 -24l167 6l39 -68l43 3l2 -43l-43 -31l-299 -35l-28 -25l-6 -262l2 -82l30 -84l29 -24l248 -6l55 -72l-26 -94l-52 -31l-262 -16l-26 -86l32 -176l-12 -82l4 -113l29 -25l219 21l94 2l60 -27l38 -55l-8 -53l-55 -60
l-520 -12l-58 70z" />
    <glyph glyph-name="afii10024" unicode="&#x416;" horiz-adv-x="1363" 
d="M143 1288l19 154l41 37l43 47l100 -33l43 -92l2 -170l43 -238l39 -41l72 31l22 66l-4 110l-6 90v172l18 72l58 43l76 2l59 -51l27 -256v-164l24 -59l60 28l34 37l17 68l24 178l45 123l-4 57l86 31l66 -43l22 -86l-2 -150l-41 -213l-59 -178l-2 -72l18 -106l31 -152
l25 -141l90 -276l-33 -68l-51 -39l-119 49l-41 138l-51 227l-57 47l-41 88l-43 -35v-133l6 -256l-56 -127l-88 12l-55 66l-4 383l-8 106l-41 74l-72 -18l-39 -66l-6 -104l-82 -277l10 -53l-28 -96l-88 -35l-56 22l-28 60l12 131l49 164l33 250l45 104l-64 104l-8 74l-47 164
l6 148z" />
    <glyph glyph-name="afii10025" unicode="&#x417;" horiz-adv-x="903" 
d="M174 1212l4 121l101 131l124 68l168 10l80 -31l121 -112l19 -96l-7 -369l-55 -10l-6 -60l-86 -69l-25 -39l109 -41l78 -125v-35l4 -55l-49 -103l14 -45l-47 -30l-27 -50l-14 -143l-47 -66h-41l6 -45l-192 -16l-80 29l-72 90l-59 80l-5 176l56 45l82 -12l45 -66l10 -86
l102 -63l107 6l61 28l2 201l-2 96l-12 56l-51 92l-43 -17l-180 15l-80 82l4 67l49 15l-10 55l-6 6l36 31l105 10l88 -2l57 127l4 149l-59 103l-72 -4l-88 8l-47 -35l-6 -76l-45 -41l-66 -12zM684 45l35 53l20 6l21 -36l-60 -33z" />
    <glyph glyph-name="afii10026" unicode="&#x418;" horiz-adv-x="1009" 
d="M143 1020l17 270v166l100 68l68 -2l45 -64l24 -119l-18 -335l18 -80l-6 -72l111 90v55l110 283l33 180l47 41h41l21 -100l12 -283l-2 -114l35 -121l24 -260l35 -56l-12 -305l12 -41l-14 -151l-53 -47l-66 12l-43 26l-43 31l4 137l-20 144l14 92l4 252l-4 164l-43 -29
l-70 -150l-37 -104l-20 12l-88 -245l22 -60l-43 -225l-67 -55l-49 2l-41 28l-41 82l8 402z" />
    <glyph glyph-name="afii10027" unicode="&#x419;" horiz-adv-x="1021" 
d="M143 1450l101 86l12 53l-53 60l16 94l31 53l26 16l64 -8l43 -14l2 -74l27 -20l86 14h65l47 19l11 55l61 41l80 -10l55 -74v-115l-53 -63l-107 -43h-135l-116 -25l-13 -18l15 -172l-33 -250l6 -64l39 -4l24 139l91 91l26 139l57 112l95 29l80 2l43 -59l24 -140l2 -843
l-10 -152l18 -115l-26 -120l-53 -47l-66 12l-43 26l-43 31l-18 479l36 58l-6 135l-16 72l-35 22l-53 -125l-74 -129l-2 -117l-51 -98l-70 -192l-33 -109l-26 -45l-49 -16l-41 28l-23 115l21 84l-21 98l-22 97l4 354z" />
    <glyph glyph-name="afii10028" unicode="&#x41a;" horiz-adv-x="1077" 
d="M215 836l12 495l25 166l43 39l65 2l60 -51l20 -313l2 -130l-8 -61l49 -43h31l74 59l43 222l57 75l31 158l39 49h33l22 -86l-25 -166l-45 -346l-41 -82l-45 -47l-18 -55l74 -148l35 -41l24 -137l117 -297l-27 -53l-80 -45l-67 27l-74 131l-92 252l-43 100l-27 33l-22 -56
l-13 -100l7 -256l-56 -127l-108 12l-56 66z" />
    <glyph glyph-name="afii10029" unicode="&#x41b;" horiz-adv-x="1073" 
d="M96 119l13 80l47 34l57 29l47 39l4 100l35 52l-25 174l9 463l-2 213l8 147l43 61h84l108 15l148 -35l141 14l59 -82l9 -98l-17 -139l27 -58l8 -233l-18 -784l-58 -84l-53 -13l-70 58l-26 96l16 229l-2 174l-18 365l20 51l-10 113l2 82l-12 90h-27l-29 12l-53 -14l-45 -64
l-12 -82l2 -96l-17 -190l-34 -176l47 -64l-31 -328l-35 -37l-4 -92l-78 -94l-80 -37l-135 13z" />
    <glyph glyph-name="afii10030" unicode="&#x41c;" 
d="M78 403l22 205l9 330l-3 43l29 29l-31 118l-10 371l66 60l86 16l84 -84l32 -219l89 -299l30 -94l25 -41l14 -15l41 97l25 137l37 96l24 139l68 221l51 58l137 -10l53 -56l-22 -645l24 -436l3 -96l-9 -248l-57 -60h-37l-74 56l-39 518l-26 86l-103 -279l-43 -30l-139 12
l-39 27l-45 137l-16 96l-29 27l-22 -58l-7 -370l-12 -111l2 -39l-86 -59l-67 28l-29 37z" />
    <glyph glyph-name="afii10031" unicode="&#x41d;" 
d="M174 895l8 233l27 58l-16 139l-5 148l56 71l67 2l58 -55l28 -162l-22 -110l31 -246l-15 -31l2 -43l43 -37l191 19l43 602l51 45l86 -15l41 -65l-23 -109l21 -438l-25 -29l27 -481l29 -248l-23 -94l-70 -45l-67 12l-58 56l-6 233l23 330l-113 92l-151 -59l-23 -25l10 -496
l-26 -96l-70 -57l-53 12l-57 84z" />
    <glyph glyph-name="afii10032" unicode="&#x41e;" 
d="M201 326l28 53l9 166l36 96l-49 164l-10 98l-8 271l41 81l-2 101l172 137l67 16l138 -10l127 -63l84 -109l16 -698l-12 -410l-54 -113l-122 -88l-95 -26l-125 10l-125 64l-84 108zM383 287l41 -66l139 -39l55 45l35 111l6 905l-69 64l-137 12l-43 -59l-25 -162l31 -66
l-19 -336l4 -176z" />
    <glyph glyph-name="afii10033" unicode="&#x41f;" horiz-adv-x="1001" 
d="M174 895l8 233l27 58l-19 139v117l56 78l39 8l231 -33l102 33l189 -15l27 -38l-17 -136l29 -438l-25 -29l29 -229l4 -594l-70 -45l-67 12l-58 56l-8 233v184l41 74l-20 459l-13 156l-34 90l-97 35l-39 -23l-63 14l-31 -34l-12 -195l33 -363l-10 -110l-3 -232l15 -213
l-27 -96l-88 -57l-53 12l-57 84z" />
    <glyph glyph-name="afii10034" unicode="&#x420;" 
d="M199 260l24 658l-6 276l21 315l57 39h410l110 -67l45 -80l10 -496l-39 -125l-137 -84l-256 -20l-28 -53l-23 -220l6 -305l-65 -67l-86 12l-39 51zM422 1333l10 -424l25 -28l100 2l80 30l12 82l13 109l-7 225l-219 19z" />
    <glyph glyph-name="afii10035" unicode="&#x421;" 
d="M174 287l14 381l-8 262l6 356l54 113l120 112l80 31l168 -10l125 -68l101 -131l4 -153l-58 -58l-65 13l-45 41l-17 79l-39 29l-86 27l-79 -17l-52 -82l9 -276l-27 -125l4 -139l-18 -357v-53l84 -78l86 2l51 25l41 45l12 94l51 60l94 2l76 -121l-90 -209l-121 -74l-305 6
l-127 121z" />
    <glyph glyph-name="afii10036" unicode="&#x422;" horiz-adv-x="866" 
d="M104 1380l13 86l80 56l495 -25l45 -29l15 -43l2 -36l-84 -74l-125 -4l-23 -43l27 -985l-8 -248l-27 -39l-29 -31l-82 12l-45 95l-8 329l-2 43l-12 533l6 287l-53 41l-111 12z" />
    <glyph glyph-name="afii10037" unicode="&#x423;" horiz-adv-x="892" 
d="M115 1413l14 68l39 47l47 -4l31 -117l-13 -49l35 -19l39 -159v-76l101 -293l43 -8l67 164l-8 69l41 56l-16 98l45 131l20 168l109 47l55 -31l20 -61l-53 -299l-18 -166l-6 -21l-31 -28v-96l-12 -97l-23 -22l-84 -553l-68 -156h-24l-121 -35l-133 4l-47 56l-14 47v72
l28 -5l47 68l119 25l43 38l47 158l-22 -6l-23 70l-80 92l-98 325l14 70l-59 213l-6 80z" />
    <glyph glyph-name="afii10038" unicode="&#x424;" horiz-adv-x="1431" 
d="M199 510l20 229l-20 129l6 105l-2 229l45 141l82 50l53 14h170l51 41v78l70 76l100 18l51 -29l27 -35l10 -120l162 -13l186 -82l29 -57l29 -33l8 -104l8 -524l-12 -119l-113 -219l-94 -29h-70l-182 -90l35 -78l-6 -76l-90 -73l-93 12l-61 55l-4 164v72l-156 -4l-129 65
l-69 72zM412 1026l18 -96l-16 -113l2 -260l12 -45l96 -37l86 29l11 485l30 76l-12 145l-135 -2l-92 -63v-119zM809 535l45 -17l39 -76l176 4l-4 148l-12 178l26 123l-22 281l-195 20l-37 -43v-336z" />
    <glyph glyph-name="afii10039" unicode="&#x425;" 
d="M164 1380l12 66l37 45h57l84 -107l86 -202l60 -70h26l78 139l12 97l23 82l84 100l51 2l74 -70l-25 -139l-131 -317l-12 -95l-37 -59v-37l-41 -45l260 -555l17 -82l24 -55l-8 -53l-55 -45h-58l-69 65l-45 98l-56 174l-59 123l-2 15l-8 14h-29l-82 -156l-22 -123l-82 -178
l-23 -30l-96 12l-29 29l13 133l116 250l49 182l56 84l-19 151l-114 240l-31 100z" />
    <glyph glyph-name="afii10040" unicode="&#x426;" horiz-adv-x="1116" 
d="M176 770v576l23 124l106 39l68 -57l18 -180l-2 -279l-24 -176l34 -219l-28 -43l30 -109l-6 -159l19 -78l178 -4l47 57l25 191l-19 823l10 162l11 43l69 30l53 2l72 -55l2 -739l-39 -125l35 -113l-4 -129l12 -61l37 -47l60 -23l45 -55l-13 -98v-240l-18 -78l-51 -35
l-82 39l-35 31l-8 78l2 57l-39 70l-88 24l-88 -30l-205 8l-139 -6l-51 57z" />
    <glyph glyph-name="afii10041" unicode="&#x427;" horiz-adv-x="921" 
d="M102 1374l23 125l70 45h43l67 -84l21 -213l-29 -43l31 -108l6 -191l53 -55l123 16l41 45v234l-8 168l10 162l10 43l70 30l53 2l72 -55l2 -582l-39 -125l47 -262l-14 -317l10 -107l-53 -92l-76 -8l-37 31l-35 33v59l-16 29l-4 170l10 194l-2 84l-35 53l-156 -6l-100 33
l-84 88l-61 88z" />
    <glyph glyph-name="afii10042" unicode="&#x428;" horiz-adv-x="1529" 
d="M176 1346l23 124l106 39l55 -57l19 -180l-2 -228l-25 -176l35 -219l-29 -43l31 -108l-6 -160l18 -78l37 -27l47 -20l45 4l50 39l47 57l24 191l-18 772l10 162l10 43l82 30l70 2l72 -79l2 -686l-39 -125l34 -113l-4 -129l13 -62l43 -45l114 -4l88 107l15 139l12 492
l-41 241l-2 160l70 113l65 -2l35 -19l45 -160l-6 -323l-12 -82l20 -29l6 -704l-14 -115l-59 -57l-88 -45l-248 10l-146 -6l-145 37l-96 -47l-156 12l-139 -6l-54 67v717z" />
    <glyph glyph-name="afii10043" unicode="&#x429;" horiz-adv-x="1583" 
d="M176 1346l41 124l107 39l118 -57l19 -180l-10 -117l-25 -199l-4 -618l18 -78l25 -45l57 10l82 -10l35 82l2 207l-18 772l10 162l10 43l92 30l41 -2l78 -57l18 -180l-12 -109l17 -278l-25 -31v-299l31 -109l-6 -159l18 -78l43 -14l102 88l58 120l-4 80l22 265l-6 690
l10 43l86 30l54 2l53 -51l20 -114l-8 -596l8 -379l43 -70l58 -20l57 -129l-8 -160l8 -152l-45 -78l-82 -49l-59 19l-43 110v45l-62 70l-104 31l-242 2l-78 43l-43 -43l-194 -12l-156 12l-139 -6l-54 67v717z" />
    <glyph glyph-name="afii10044" unicode="&#x42a;" horiz-adv-x="1175" 
d="M90 1526l43 41l55 12l383 2l52 -12l47 -53v-195l-41 -109l2 -143l28 -104l89 -9l116 19l164 -66l37 -204l14 -521l-59 -92l-96 -55l-359 -29l-65 17l-43 38l-27 43l-14 373l16 377v449l14 47l-22 57l-66 -2l-190 55l-64 -10zM645 303l23 -80l180 -6l31 51l-7 410l-14 43
l-205 6z" />
    <glyph glyph-name="afii10045" unicode="&#x42b;" horiz-adv-x="1458" 
d="M248 1532l57 51l39 -14l55 -53l-10 -510l23 -29l290 -21l107 -82l41 -81l12 -111l25 -29l-2 -57l-27 -272l23 -29h14v-25l-39 -41l-16 -82l-125 -77l-140 -27l-210 10l-99 78l-10 283l8 555l-10 125v82l2 94zM389 238l8 -29l125 -2l29 29l63 12l31 26l-6 494l-29 29
l-159 18l-31 -100l-4 -312zM1040 229l13 64l-11 110l58 27l-37 207l-4 350l12 158l-22 69l10 293l41 60l43 28l102 -28l-6 -103v-358l25 -168l-25 -27l8 -106l-2 -197l29 -239l-19 -142l-2 -112l-39 -70l-75 -6l-39 2l-53 80z" />
    <glyph glyph-name="afii10046" unicode="&#x42c;" horiz-adv-x="1005" 
d="M199 385l10 277l-10 657l4 166l39 51l55 16l80 -18l47 -168l-33 -121l33 -43l-4 -215l242 4l151 -100l39 -125l-10 -158l-8 -295l-56 -41l-63 -161l-92 -29l-19 -49l-328 -2l-57 39zM416 223l14 -14l219 18l6 267l-14 71l-10 119l-80 31l-100 2l-31 -31z" />
    <glyph glyph-name="afii10047" unicode="&#x42d;" 
d="M164 254l26 63l99 54l96 -58l12 -57l41 -45l51 -25l86 -2l58 68l26 63l-18 314l-39 45l-43 -17l-180 15l-80 82l4 82l31 61l37 31l104 10h146l22 23v245l-68 88l-79 17l-86 -27l-39 -29l-17 -47l-45 -41l-65 -12l-58 57l4 121l101 131l125 68l168 10l80 -31l120 -112
l54 -113l6 -356l-8 -262l14 -381l-62 -170l-116 -121l-297 12l-121 74l-55 76z" />
    <glyph glyph-name="afii10048" unicode="&#x42e;" horiz-adv-x="1251" 
d="M164 592l35 125v194l-19 443l6 86l58 33l30 55l43 -6l62 -35l10 -121l10 -184v-199l76 -47l88 29l21 385l63 116l90 41l29 31l147 -10l140 -68l98 -80l33 -233l-23 -248l10 -190v-342l-24 -179l-150 -155l-36 -29l-177 8l-110 66l-99 149l-8 310l-26 161l-49 60l-43 -4
l-72 -121l-6 -166l-2 -246l-4 -100l-33 -109l-78 2l-55 37l-29 72zM748 1153l26 -113l4 -407l-26 -359l45 -55l94 -12l29 16l41 86l10 535l-8 393l-68 86l-33 12l-67 -45z" />
    <glyph glyph-name="afii10049" unicode="&#x42f;" 
d="M211 66v65l43 109l76 309l47 110l-76 78l-47 119l10 393l41 176l43 41l82 37l250 23l70 -15l94 -41l14 -14l23 -96l-11 -643l17 -301l2 -330l-62 -96l-86 2l-24 24l-27 43l12 498l-40 51l-50 15l-53 -5l-84 -321l-16 -94l-31 -152l-45 -67l-64 -21h-47zM469 950l61 -90
h103l57 21l12 143l-10 293l-33 35h-137l-47 -78z" />
    <glyph glyph-name="afii10065" unicode="&#x430;" 
d="M129 88l31 358l69 111l13 137l34 140l29 38l-31 80l41 101l41 53l6 182h15l29 25l-3 71h29l-12 -137l31 -28l-15 -68l2 -29h-14l-29 -28v-39l29 -27l-10 -110l-13 -111l-67 -29l-27 -53l31 -86v-37l39 -43l248 6l69 68v43h37l31 -55l-29 -25l2 -111l-133 -16l-70 -31
l-190 -4l-70 -153l-6 -80l-12 -125l-43 -29l-43 12h-10zM401 1436l15 57l43 2l14 -57l39 -23l45 -43l16 -108l-30 28l-43 -2l-25 123h-43zM588 1184l10 8l57 2l31 -80l27 -162l-21 -182l-14 -14l-45 86l-39 116zM637 1360v67h14l15 -10zM739 362l27 68l43 -39l55 -123l2 -57
l58 -27l-15 -53l-57 -14l31 -43l-54 14l-28 27l-31 96zM745 705v28l43 25l15 -37v-43h-29zM791 596l14 25l39 -37v-29l-8 -14z" />
    <glyph glyph-name="afii10066" unicode="&#x431;" horiz-adv-x="1048" 
d="M248 1491l69 82l150 -19l35 25l119 -18l145 12l55 -21l19 -57l-21 -63l-76 -60l-286 25l-86 -99l4 -81l24 -66l-14 -57l-55 -50l69 -57l295 19l115 -113l41 -82l12 -197l25 -28l-2 -58l-27 -204l23 -29h14v-25l-39 -41l-16 -82l-125 -77l-140 -27l-294 12l-31 158l31 137
l-19 248l21 311l-29 185v82l2 94l14 53l-14 31l18 37l-24 22zM399 279l15 -35l88 -2l6 57l131 20l18 54l2 354l-61 133h-168l-31 -92l41 -389z" />
    <glyph glyph-name="afii10067" unicode="&#x432;" 
d="M137 260l35 154l55 53l-34 289l-9 358l21 395l51 58l319 22l109 -26l98 -70l39 -51l10 -496l-22 -53l4 -152l27 -151l-15 -424l-120 -127l-467 -10l-31 43l12 137l-57 22zM365 483l69 -106l-14 -17l-51 -67l2 -43l24 -37l209 14l21 125l10 262l-31 56l-176 6l-43 -25
l2 -28zM395 909l203 4l29 29v43l-21 219l27 125l-45 51l-176 -4l-13 -14z" />
    <glyph glyph-name="afii10068" unicode="&#x433;" horiz-adv-x="937" 
d="M205 662l24 51l4 125l-6 190l25 55l-23 82l-6 330l25 27l43 28l510 -16l37 -43l12 -84l-29 -27h-381l-45 -37v-14l-16 -110l-14 -56l26 -24l10 -197l-30 -137l-4 -123l28 -53l13 -97l-11 -438l-30 -55l-95 -12l-43 43l-4 467z" />
    <glyph glyph-name="afii10069" unicode="&#x434;" horiz-adv-x="1232" 
d="M102 2l23 47v72l37 88l74 2l61 -100l-25 -58l21 -30l-12 -209l-27 -54l-31 -32l-76 57l9 59l-11 113zM246 276l8 41l37 27l18 -18l-8 -50l-27 -24zM256 616l20 60l-4 293l29 28l-39 95l25 125l-4 190l36 45l89 -14l28 28l-45 58l29 39l100 2l31 -29l-14 -66l2 -43
l-101 -26l-43 -60l68 -41l31 -94l-35 -82l4 -94v-90l-62 -29l21 -69v-135l12 -154l-14 -162l-41 -33l53 -30l-26 -119l26 -45l76 26l158 35l92 -30l-45 331l24 111v43l29 -29l10 15l-2 43l-10 14h-27l-32 131l6 383l80 74v14l-68 37v27l-74 32l-47 -8l-31 27l29 37l31 -9h41
l-19 37l-53 -22l-16 43v24l118 -12l46 18l38 -26h58l28 -70l2 -53l-40 -43l30 -94l17 -150l2 -151l-27 -39l-14 -15l30 -79l-14 -60l-27 -80l46 -80l6 -337l39 -48l65 -4l41 -73l-45 -177l-43 -43l43 -75l-25 -86l-57 -47l-74 61v195l35 43l-96 67l-29 -47l-55 25l-197 4
l-22 43l-92 67l-29 72l-31 227z" />
    <glyph glyph-name="afii10070" unicode="&#x435;" 
d="M197 172l24 229l-8 320l23 53l-3 86h15l28 25l-69 84l37 121l10 137l10 233l164 90l162 27l190 -10l43 -23l31 -57l-14 -43l-64 -68l-211 10l-82 27l-137 10l-65 -57l53 -51l43 -43l22 -314l-43 -43v-28l31 -25l94 12l234 7l43 -39l-13 -94l-69 -46l-68 -2l-96 41
l-123 -2l-29 -28l9 -359l18 -123l43 -26l371 8l53 -66l-27 -82l-79 -59l-424 19l-86 26z" />
    <glyph glyph-name="afii10072" unicode="&#x436;" horiz-adv-x="1335" 
d="M143 1319l19 158l43 4l22 45l97 -13l45 -96l4 -186l-11 -230l29 -49l86 -8l51 -131l-71 -82l-86 -47l-29 -63l59 -269l-10 -157l-72 -15l33 -65l-51 -84l-57 -35l-56 22l15 56l14 329l66 95l47 153l-47 92l-45 37l-35 146l41 71l-29 179zM567 817l58 256l-47 176v172
l18 72l57 43l76 2l37 -82l-29 -123l-4 -321l103 -99l108 -4l53 -84l-61 -125l-59 -34l-62 -45l-12 8l-19 -185l39 -47l13 -129l-19 -71l2 -66l-55 -127l-88 12l-55 66l-23 104l23 99v196l-25 72l53 55l49 -12l27 51l4 29l-41 29l-37 -21l-39 -4zM1006 664h28l29 -27l-27 -31
h-28zM1030 276l17 37l55 4l106 -69l-14 -41l35 -98l-37 -80l-31 -19l-102 23l-25 88l6 84zM1032 1040l19 121l-7 205l27 111l55 59l97 -12l6 -248l-35 -64l-33 -51l-6 -104l-47 -51l-49 -62l-21 12zM1059 399l26 25h39l15 -14l2 -37l-29 -17h-39z" />
    <glyph glyph-name="afii10073" unicode="&#x437;" horiz-adv-x="972" 
d="M174 1235v86l43 127l135 94l215 -6l88 -57l99 -97v-303l-35 -6l35 -72l-19 -40l-123 -70l-2 -25l95 -55l79 -102l-6 -131l-33 -60l-18 -274l-47 -64l-10 -76l-35 -28l-53 -2l-27 -27l-135 10l-129 76l-66 70l19 209l55 2l61 -62v-43l56 -37l12 -92l41 -37l31 72l75 -25
l95 84l37 181l-39 241l-43 6l-25 50l-53 8l-154 -31l-69 14l-15 35l60 96h67l33 -63l70 41l-13 55l70 88l63 74l-12 61l33 -18l22 35l-24 27h-21l-22 -11l-2 58l-51 86l-21 55l-78 37l-174 -23l-16 -100l-47 -86l-41 6z" />
    <glyph glyph-name="afii10074" unicode="&#x438;" horiz-adv-x="946" 
d="M143 614l15 371l2 453l45 73l45 2l24 -112l-2 -139l-22 -97l49 -121l4 -215l-22 -92l4 -78l18 -14l-2 -96l-20 -55l20 -50l39 19h29l30 -53l-43 -45l-4 -54l-16 -47l12 -10l-29 -121l-14 -14l-2 -58h-29l-59 -6l-51 35l-10 72l4 92l28 33l-41 57l9 96l28 64l-12 86z
M360 549l23 22l25 -26l-11 -31l-26 10zM397 670l29 57l72 252l24 20l58 187l24 141l2 47l49 125l80 -2l43 -41l15 -287l-23 -204l21 -70l-3 -401l-6 -146l13 -205l-62 -82l-76 25l-12 379l-43 194l-4 150l-18 22l-68 -6l-27 -45l-18 -6l-31 -84z" />
    <glyph glyph-name="afii10075" unicode="&#x439;" horiz-adv-x="1038" 
d="M199 393l30 123l-24 152l8 401l74 131l-70 45l-18 82l32 55l-22 68l45 47l98 -18l21 -49l-6 -218l-43 -94l26 -43l6 -409h15l39 41l16 67l16 94l43 86l33 146l53 57l31 80l43 55l-35 11l27 122l14 15l2 57h49l23 -20l14 -56l19 -88l-15 -37l37 -71h-14l-10 -15l-2 -53
l-29 -27l14 -14l23 -110l41 -54l12 -86l29 -24l-8 -267l6 -452l-45 -72l-43 -12l-37 29l-41 86v768l-12 94l-15 2l-10 -14l-43 -66l-2 -111l-62 -209l-69 -159l-19 -137l-28 -54l-86 -207l-80 2l-43 43zM248 1755l41 64l90 -11l35 -77l-19 -62l64 -6l47 39l72 4l43 43l34 41
l17 14l24 -12l-8 -51l-35 -60l-10 -59l-22 -25l-31 -18l-53 -2l-195 10l-53 41l-33 45zM713 1604l14 86l16 32l41 -6l19 -24l8 -56l-80 -47zM811 1047l8 45l33 -7l6 -49l-31 -16z" />
    <glyph glyph-name="afii10076" unicode="&#x43a;" horiz-adv-x="1030" 
d="M233 686l33 356l-10 312l14 63l-2 76l29 29l39 2l10 -56l57 -260l-2 -196l31 -49h78l59 38l41 60l-10 108l31 7l-17 49l50 268l81 33l43 -47l27 -138l-47 -266l-23 -26l-16 -82l-8 -64l-29 -53l-37 -12l-4 -52l62 -180l86 -334l26 -71l13 -66l4 -35l-47 -47l-66 13
l-55 77l10 125l-78 90l-24 191l-50 106l-53 25l-45 -21l-24 -61l-9 -104l2 -279l-28 -129l-27 -31h-53l-41 37l-8 160l12 92l-20 68z" />
    <glyph glyph-name="afii10077" unicode="&#x43b;" horiz-adv-x="1187" 
d="M176 135l31 82l96 37l59 92l3 432l8 72l-27 39l-6 330l31 69l-11 148l39 53l185 12l139 12l135 -20l57 -45l9 -107l-31 -81l41 -43l-2 -54l-80 -12l-43 45l2 68l-66 43l-124 6l-41 -101l2 -395l-58 -65l29 -43v-273l-23 -102l-4 -121l-30 -111l-58 -41l-63 -47l-135 9z
M756 201l30 94l23 274l82 66l29 -29v-219l30 -27l-2 -206l8 -88l-61 -27l-90 -8zM803 999l84 84l55 -43l-2 -82l-29 -26l39 -113l-59 -69l-68 -21l-12 14z" />
    <glyph glyph-name="afii10078" unicode="&#x43c;" 
d="M92 1083l84 54l23 30l-39 95l-15 14l15 14h28v-39l11 -12h43l-2 68l-56 106l-16 111l51 43l29 2l69 -94l5 -183l59 -108l-12 -109l43 -43l16 -94l70 -145h14l29 24l6 123l28 29l11 168l76 243l28 58l12 16l-28 27v53l69 57l111 -12l53 -70l2 -123l-26 -38l-68 36l-14 15
l-53 -56l83 -106l52 29h14l14 -13l-26 -45l-51 -57l30 -80l27 -162v-43l-51 -57l16 -82l18 -248l56 -94l-51 -96l41 -80l-23 -57v-52l-41 -30l-68 12h-14l-29 29l-18 833l-14 14l-27 -38l-12 -154l-37 -82l-10 -137l-41 -86l-66 -70l-43 15l-67 26l-31 53l-17 166l-86 189
l-14 14l-26 -68l12 -618l-27 -57l-24 -11l-43 -2l-43 80l-9 359l29 28l-18 176l-15 29l-2 37l56 88l14 14l-43 37z" />
    <glyph glyph-name="afii10079" unicode="&#x43d;" 
d="M211 819l10 248l-2 82l-2 43l12 94l68 17l12 14l-80 26l-2 68l27 29v28l-43 23l12 57l111 2l43 -41l-12 -96l-70 -53v-29l14 -14h43l33 -166l-25 -176l68 -66l74 -41l80 45l80 2l28 25l27 94l37 31l14 14l-84 80v72l-4 123l27 147l36 45h15l30 -108l5 -219l30 -43
l-24 -191l-92 -192l-109 -31l-72 -2l-67 51l-58 -12l-34 -72l2 -152l30 -79l-24 -154l31 -133l-13 -111l-41 -43l-96 -2l-43 56l12 110l-10 410l29 43l51 2l14 10l-67 70zM666 104l32 412l13 94l37 74h57l29 -27l-7 -344l2 -71l31 -80l-26 -82l-82 -31l-58 29z" />
    <glyph glyph-name="afii10080" unicode="&#x43e;" 
d="M180 276l21 125v43h14l41 45l12 95l-14 14h-29l-2 80l41 16l86 -149l4 -205l-41 -45l88 -64l39 -43l123 5l80 96l19 387l-23 313l-16 15v43l28 28l25 96l-45 95l-127 135l12 39v43l-39 26l53 -26l56 30l96 -40l115 -150l30 -94l2 -629l-26 -45l8 -328l-55 -110l-107 -99
l-65 -30l-205 8l-158 149zM203 883l10 190l27 31l-31 70v10l29 28l36 2l29 29l-41 94l129 142h29l4 -138l-51 -67l-54 -125l3 -43l43 -51l-9 -211l-55 -111l-51 -2l-14 14l-5 97z" />
    <glyph glyph-name="afii10081" unicode="&#x43f;" horiz-adv-x="989" 
d="M174 299l12 330l27 37v71l-18 549l-19 94l37 105l43 2l31 -25h43l28 29l314 -10l141 -121l16 -84l-16 -154l-41 -30l2 -211l-29 -29l-67 66l-16 276l-29 94l-113 82l-94 -16l-41 -68l-37 -276l2 -205l-28 -41l45 -68l4 -567l-52 -117l-81 17l-37 65l4 133zM666 440l8 246
l24 16l88 -53l31 -47l-41 -110l29 -29l6 -199l-12 -213l-56 -41l-32 15l-4 131l16 172z" />
    <glyph glyph-name="afii10082" unicode="&#x440;" 
d="M248 94l8 262l-2 95v81l10 125v56l-6 315l23 248l-31 137l12 125l313 45l140 -27l125 -77l16 -82l39 -41v-25h-14l-23 -28l27 -205l2 -58l-25 -28l-12 -111l-41 -82l-107 -82l-290 -20l-23 -29l10 -577l-55 -54l-39 -14zM389 1389l27 -166l4 -244l31 -100l190 18l29 29
l6 426l-31 26l-94 13l-29 28l-125 -2z" />
    <glyph glyph-name="afii10083" unicode="&#x441;" 
d="M219 440l8 934l174 166l80 29l168 -10l111 -78l84 -166l-23 -68l-28 -28l-58 14l-67 121l-84 80l-84 -17l-54 -28l-55 -68l-20 -168l10 -25v-41l-37 -45l31 -65l12 -123l-65 -98l28 -41l8 -330v-51l54 -72l45 -37l123 -24l79 82l56 139l22 14h43l60 -69l-27 -134
l-92 -112h-43l-66 -60l-209 -18l-98 70l-84 147z" />
    <glyph glyph-name="afii10084" unicode="&#x442;" horiz-adv-x="817" 
d="M113 1399l49 100l262 -6l151 -10l68 -13l14 -14l-34 -82l-101 -45l-20 -53l-10 -182l-15 -15l39 -51l-4 -182l-29 -25l43 -149l-16 -316l29 -123l-19 -206l-71 -43l-68 26l-29 66l-6 766l10 153l-4 152l-18 176l-154 25h-24z" />
    <glyph glyph-name="afii10085" unicode="&#x443;" horiz-adv-x="899" 
d="M92 1466l27 97l96 24l41 -16l41 -58l37 -217l-4 -206l41 -21l-21 -139l25 -21l18 -141l47 -55h37l27 32l4 29l4 33l16 22l41 -4l15 -57l-27 -68l47 -45l-12 -41l22 -41l-34 -211l14 -18l-27 -188l-61 -56l-8 -92h-62l-86 -37l-117 25l-47 59l-6 103l66 69l94 -2l63 -20
l41 45l2 57l-32 2l-17 51l45 82l-2 76l-135 117l-67 283l-74 153l24 113l-34 20zM578 987l47 494l41 73l39 23h38l41 -33l7 -121l-54 -71l-10 -107l-22 -65l-58 -219l-2 -13l12 -12l-8 -10l-28 -2z" />
    <glyph glyph-name="afii10086" unicode="&#x444;" horiz-adv-x="1343" 
d="M199 627l14 577l39 35l27 49l-3 60l66 49l72 30h127l49 -24l65 31l-2 114l74 51l74 7l45 -50l28 -94l70 -47l53 -98l-26 -62l-53 -8l-3 -22l-69 -148l-60 -4l35 -104l23 -31v-98l-10 -252l-33 -29l-4 -80l55 4l20 29l54 -59l26 -74l76 8l4 -51l-41 -2l-24 -17l-119 15
l-8 -53l-60 -41l-110 16l-17 20l-18 43h-70l-92 -47l-164 15l-53 92zM383 737l49 -307l176 -35l84 54l-10 720l-57 9l-47 24h-39l-111 -63zM645 47l47 127l66 14l35 -32l55 -11l-19 -53l25 -20l-12 -113l-92 -31l-97 25zM1044 459l39 35l-4 34l72 -4l25 -78l-43 -55l-41 12z
M1085 934l27 123l-4 190l14 17l43 -33l31 -66l-12 -86l-29 -39l4 -108l15 -14l-35 -97l-23 19z" />
    <glyph glyph-name="afii10087" unicode="&#x445;" 
d="M145 92l13 82l80 88l12 123l26 39l64 182l41 53l55 60l-28 26l-17 82l-117 326l-28 29l-2 123l55 24l53 -22l-12 -86l88 -121l14 -10l39 2l70 82l22 96l68 125l37 110l41 43l57 2l53 -71l-12 -37v-43l-37 -68l-106 -321l-25 -25l-24 -125l-29 -43l33 -137l69 -123
l47 -203l70 -108l45 -137v-54l-51 -43l-57 -2l-68 66l-117 317l-43 66l-2 43l-14 12h-14l-78 -154l-103 -303l-43 -43l-94 27zM268 1438l29 2l14 -10l2 -44h-43z" />
    <glyph glyph-name="afii10088" unicode="&#x446;" horiz-adv-x="1085" 
d="M195 590l6 399l-6 287l10 209l51 53l72 -12l45 -66l-41 -96l28 -43l13 -131l-15 -53l-6 -78l33 -62l-39 -348l23 -203l20 -69l-6 -195l61 45l144 2l65 84l27 95l-35 342l-6 276l25 139l-33 285l26 82l138 -12l30 -52l2 -71l-28 -25l8 -452l31 -41l-15 -82l13 -166
l-35 -80l22 -88l17 -119l-17 -80l47 -57l41 14l47 -14l29 -78l6 -27l-8 -92l-51 -33l-41 3l-41 55l-74 26l-43 -43l-143 2l-152 -2l-153 -8l-58 21l-30 135l14 110l-8 93zM862 -199l27 60l41 18l45 -10l-8 -43l14 -41l-47 -23l-39 5z" />
    <glyph glyph-name="afii10089" unicode="&#x447;" horiz-adv-x="1007" 
d="M164 1114l31 43l-15 301l25 49l90 45l59 -26l6 -180l-38 -58l8 -168l-27 -88l-49 -31l37 -30l26 -94l33 -41l76 14l80 -45l74 41l67 65l-24 176l32 230h43l15 14v29l-70 53l-12 96l43 41l110 -2l13 -57l-43 -23v-28l26 -29l-2 -68l-2 -24l-65 -16l67 -17l13 -94l-3 -43
l-2 -82l11 -248l-31 -65l-68 -70l15 -10l51 -2l29 -43l-11 -410l13 -110l-43 -56l-97 2l-41 43l-12 111l31 133l-25 133l31 80l2 111l-35 71l-41 6l-69 -55l-168 -8l-74 108l-2 95z" />
    <glyph glyph-name="afii10090" unicode="&#x448;" horiz-adv-x="1538" 
d="M195 1217l24 268l51 53l72 -12l45 -66l-41 -96l29 -43l12 -131l-14 -53l-6 -78l32 -62l-39 -348l23 -203l20 -69l-6 -195l62 45l143 2l66 84l26 95l-22 344l-2 276l26 139l-26 285l28 82l136 -16l30 -52v-71l-28 -25v-452l30 -41l-16 -82l10 -166l-37 -80l21 -88l10 -117
l-16 -80l47 -57l41 14l47 -14l80 -10l88 43l43 79l51 13l6 180l-27 94l5 53l41 11l14 202l-66 125l43 76l47 -4l25 12l-14 -127l12 -155l-37 -115l53 -176l-14 -184l20 -166l-2 -76l-51 -16l-94 -52l-139 4l-92 -22l-41 61l-62 -12l-8 61l-86 -34l-18 -54l-144 2l-151 -2
l-154 -8l-76 41l-12 115l31 123l-25 80l-10 221l14 364zM1196 1483l45 59l41 -6l35 14l-8 -75l12 -64l-33 -61l-18 67l-68 23zM1219 1159l4 29l34 4l9 -64z" />
    <glyph glyph-name="afii10091" unicode="&#x449;" horiz-adv-x="1552" 
d="M195 1290l4 170l45 66l71 12l52 -53l10 -209l-2 -352l-39 -340l59 -215l-37 -62l9 -104l98 -25l123 70l65 84l27 94l-12 76l53 26l57 -67l17 -154l28 -24l47 -58l41 15l47 -15l80 -10l66 43l35 78l-25 67v332l33 68l-41 139l-2 334l10 209l27 41h71l52 -88l-2 -105
l-39 -82l39 -47l6 -160l-35 -12l2 -125l29 -51l-11 -410l27 -98l-14 -98l43 -27l59 17l25 -58l-2 -129l69 -98l-12 -70l8 -57l-29 -64l-75 -20l-52 29l-28 45l20 137l-35 70l-96 -11l-166 4l-209 -4l-77 56l-117 -50l-152 -2l-153 -8l-58 21l-30 135l14 110l-2 328l12 62
l-24 96l8 131l-8 180l18 80zM629 1384l22 123h35l59 13l48 -41l36 -62v-59l-43 -66l11 -67l-17 -62l-20 -2v-57l12 -82l-31 -12l4 -109l-45 -49l-2 -45l97 -23l6 -79l-25 -70l-69 -8l-39 47l12 321l-31 78l-16 127l49 27z" />
    <glyph glyph-name="afii10092" unicode="&#x44a;" horiz-adv-x="1146" 
d="M82 1483l2 61l63 29h328l113 -21l14 -32v-111l-31 -53l-8 -68l-45 -4l72 -76v-178l22 -29l236 -26l106 -82l41 -82l13 -197l24 -28l-2 -58l-26 -204l22 -29h14v-25l-39 -41l-16 -82l-125 -77l-139 -27l-281 37l-45 133l31 43l-23 342l7 315v56l-11 125v82l2 94l15 53
l-15 31l19 37l-49 2l-23 59l-69 -53l-123 -10l-45 18zM535 238l8 -29l125 -2l28 29l95 12l30 26l4 418l-39 123l-190 19l-31 -101l-4 -330z" />
    <glyph glyph-name="afii10093" unicode="&#x44b;" horiz-adv-x="1302" 
d="M137 283l10 579v215l43 84l-45 39v76l7 211l10 59l31 43l120 10l80 -73l-8 -43l-41 -64l10 -45l-22 -31l30 -75l-38 -78l-2 -84l32 -2l-12 -72l2 -49l45 -37h129l131 -37l27 54h76l16 -86l-4 -152l22 -53l-10 -496l-39 -51l-98 -70l-109 -26l-303 20l-51 64zM350 690
l4 -434l13 -14l176 -4l45 51l-27 168l21 110l-33 49l-12 80zM918 973l71 61l-33 103l2 139l35 8l-22 170l24 98l37 33l29 4l57 -37l23 -55l24 -108l-12 -295l-35 -105l10 -467l33 -30l-2 -371l-37 -72l-90 -18l-49 16l-41 72l-8 147l18 111l-8 303l19 47z" />
    <glyph glyph-name="afii10094" unicode="&#x44c;" horiz-adv-x="942" 
d="M184 1491l29 39l111 12l79 -84l-12 -428l41 -59l68 14l57 -29l98 -4l76 -26l55 -72l13 -82l-43 -27v-28l26 -25l54 -2v-28l-70 -56v-22l-14 -43l51 -60l12 -94l-41 -53l-72 -12l-36 38l2 111l20 260l-26 45l-220 4l-30 -41l-2 -243l8 -273l28 -28l162 -5l80 -53l-2 -14
l-53 -70l-82 -37l-234 -22l-98 96l-10 621l4 133l-25 194z" />
    <glyph glyph-name="afii10095" unicode="&#x44d;" horiz-adv-x="1021" 
d="M180 1315l60 164l84 71l157 19l94 -6l99 -52l123 -137l6 -1114l-62 -113l-123 -75l-198 -33l-74 82h-43l-92 112l-27 134l60 69l65 -12l25 -70l31 -71l79 -82l123 24l45 37l54 72v51l8 291l28 41l-53 53l-35 -14l-43 -58l-69 15l-60 -4l-84 -4l-24 63l6 82l37 76l72 14
l24 -27l82 7l94 18l31 66l-37 45v41l10 24l-16 154l-53 92l-80 -8l-64 28l-63 -32l-17 -91l-110 -32l-47 22z" />
    <glyph glyph-name="afii10096" unicode="&#x44e;" horiz-adv-x="1300" 
d="M176 137l2 457l29 139l-29 82l2 522l15 113l59 61h115l16 -49l37 -92l-82 -209l16 -270l45 -37l88 20l60 64h88l31 -66l-2 -204l-21 -52l-63 11l-35 145l-33 -31l-125 7l-12 -82l2 -170l-23 -52l17 -262l-31 -174h-70l-67 45zM530 229l9 80l41 25l-7 219l29 29l68 -66
l22 -201l31 -94l80 -80l94 19l41 67l31 277v39l-6 166l28 43l-45 65l-10 395l-84 99l-104 -4l-66 -43l2 -68l-43 -45l-80 12l-2 54l41 43l-31 81l37 72l70 53l94 47l107 -12l124 -63l99 -150l30 -69l-6 -330l-26 -39l2 -72l28 -547l-47 -147l-114 -61l-281 6l-127 135z" />
    <glyph glyph-name="afii10097" unicode="&#x44f;" horiz-adv-x="1019" 
d="M184 150l49 251l56 158l22 166l-47 31l-33 39l-26 102l24 328l-26 75l28 144l82 51l58 23l94 2l233 22l99 -96l10 -621l-4 -133l24 -194l4 -453l-28 -39l-111 -12l-80 84l13 532l-41 60l-68 -15l-61 -18l-47 -246l2 -96l-72 -260l-98 -29l-52 53zM309 1165l23 -254
l28 -51l207 8l43 35v135l-8 275l-41 33l-166 -7l-73 -32z" />
    <glyph glyph-name="afii10071" unicode="&#x451;" horiz-adv-x="964" 
d="M197 1503l30 39l117 10l39 -30l41 30l45 2l51 -41l142 23l77 27l72 -45l2 -80l-29 -31l-127 -6l-8 24l-41 13l-43 -21l-67 -28l-101 45l-37 -35l-49 -39l13 -86h59l-23 -117l41 -6l-24 -92l12 -82l43 -41l125 16l96 4l66 -43l16 -65l-53 -72l-102 -12l-113 14l-84 -80
l2 -123l31 -79l-25 -154l94 -117l-6 -57l-47 -72l-59 -35l-76 -2l-68 99l21 118l-19 353l29 43l43 18l12 82l-30 41l-47 12v150l4 115l47 104l6 109l-49 40l-39 68zM268 1698v71l29 23l61 10l27 -18h18l21 -12l12 -19l-12 -45l-27 -25l-16 -14l-43 35l-37 -21zM301 1638
l10 17l37 4l8 -12l-6 -27h-45zM352 1329l21 17l14 -29l-27 -4zM485 141l54 78l143 10l80 -24l22 -41l-22 -58l-45 -43l-109 -4l-55 15zM535 1737l10 39l39 24l45 10l33 5l57 -29l20 -43l-4 -47l-33 -31l-55 -16z" />
    <glyph glyph-name="endash" unicode="&#x2013;" horiz-adv-x="1155" 
d="M80 705v67l61 43l248 33l637 -19l68 -28l2 -94l-64 -45l-719 -11l-145 13h-21z" />
    <glyph glyph-name="emdash" unicode="&#x2014;" horiz-adv-x="1677" 
d="M82 705v67l92 43l371 33l956 -19l101 -28l4 -94l-97 -45l-1077 -11l-219 13h-31z" />
    <glyph glyph-name="quoteleft" unicode="&#x2018;" horiz-adv-x="481" 
d="M117 1360l78 139l43 45l79 2l60 -57l-12 -80l-70 -127l-12 -94l-37 -45h-72l-53 55z" />
    <glyph glyph-name="quoteright" unicode="&#x2019;" horiz-adv-x="481" 
d="M100 1202l13 80l69 127l13 94l36 45h72l53 -55l4 -162l-77 -139l-43 -45l-80 -2z" />
    <glyph glyph-name="quotedblleft" unicode="&#x201c;" horiz-adv-x="792" 
d="M102 1366l78 139l43 45l80 2l59 -57l-12 -80l-69 -127l-13 -94l-37 -45h-71l-54 55zM440 1366l78 139l43 45l80 2l59 -57l-12 -80l-70 -127l-12 -94l-37 -45h-71l-54 55z" />
    <glyph glyph-name="quotedblright" unicode="&#x201d;" horiz-adv-x="792" 
d="M100 1208l13 80l69 127l13 94l36 45h72l53 -55l4 -162l-77 -139l-43 -45l-80 -2zM438 1208l13 80l69 127l12 94l37 45h72l53 -55l4 -162l-77 -139l-43 -45l-80 -2z" />
    <glyph glyph-name="quotedblbase" unicode="&#x201e;" horiz-adv-x="792" 
d="M100 -88l13 80l69 127l13 94l36 45h72l53 -55l4 -162l-77 -139l-43 -45l-80 -2zM438 -88l13 80l69 127l12 94l37 45h72l53 -55l4 -162l-77 -139l-43 -45l-80 -2z" />
    <glyph glyph-name="bullet" unicode="&#x2022;" 
d="M119 748l8 43l70 57l110 4l15 8l-3 43l-43 29l-38 37l-2 57l24 29l57 2l68 -41h29l14 -15l27 29l8 96l41 43l71 2l39 -41l19 -190h29l94 98l80 2l16 -28v-39l-80 -74l-55 -14l-15 -25v-43l72 -26l139 2l25 -27v-39l-66 -45l-94 -2l-14 -14v-29l98 -107l-12 -81l-39 -15
l-70 -2l-98 84l-29 -29l-10 -110l-65 -45l-58 14l-41 55l-2 111l-57 -2l-80 -74l-65 13l-31 28l14 82l107 96v15l-140 26h-28z" />
    <glyph glyph-name="ellipsis" unicode="&#x2026;" horiz-adv-x="1855" 
d="M152 117l26 71l80 68l55 16l82 -41l74 -65l2 -109l-98 -88l-133 -4l-58 58zM770 117l27 71l80 68l55 16l82 -41l73 -65l3 -109l-99 -88l-133 -4l-57 58zM1389 117l26 71l80 68l55 16l82 -41l74 -65l2 -109l-98 -88l-133 -4l-58 58z" />
    <glyph glyph-name="trademark" unicode="&#x2122;" 
d="M39 1454l6 51l49 33l297 -14l27 -17l8 -26l2 -23l-51 -43l-74 -2l-14 -27l16 -591l-6 -148l-14 -24l-19 -19l-49 8l-27 58l-4 196l-2 27l-8 319l4 172l-30 25l-68 6zM418 819l14 123l4 197l-2 26l19 17l-19 71l-6 224l39 34l51 11l51 -52l19 -131l53 -178l18 -57l15 -25
l10 -8l25 57l14 82l22 58l15 84l41 133l30 35l82 -7l31 -32l-12 -387l14 -263l2 -57l-6 -149l-35 -35h-20l-45 33l-23 311l-16 51l-62 -168l-26 -18l-84 8l-23 16l-26 82l-11 58l-16 16l-14 -35l-4 -223l-7 -66v-22l-51 -37l-41 18l-16 21z" />
  </font>
</defs>
</svg>
