<svg xmlns="http://www.w3.org/2000/svg" width="512" height="512"><path fill="#D8CBBA" d="M256.02 7.064c-137.469 0-248.91 111.442-248.91 248.91 0 137.469 111.441 248.91 248.91 248.91s248.91-111.441 248.91-248.91c0-137.468-111.442-248.91-248.91-248.91zm0 400.876c-83.93 0-151.966-68.035-151.966-151.966 0-83.93 68.036-151.966 151.966-151.966 83.925 0 151.966 68.036 151.966 151.966-.001 83.931-68.042 151.966-151.966 151.966z"/><path fill="none" stroke="#000" stroke-width="3.713" stroke-miterlimit="10" d="M506.895 255.975c0 138.554-112.327 250.875-250.875 250.875-138.556 0-250.875-112.321-250.875-250.875S117.463 5.1 256.02 5.1c138.547 0 250.875 112.321 250.875 250.875z"/><path fill="none" stroke="#000" stroke-width="11.141" stroke-miterlimit="10" d="M406.016 255.975c0 82.84-67.156 149.996-149.996 149.996-82.846 0-150.001-67.156-150.001-149.996 0-82.846 67.155-149.996 150.001-149.996 82.839 0 149.996 67.15 149.996 149.996z"/><path fill="red" d="M256.02 199.796c-83.93 0-151.966 68.036-151.966 151.966 0 83.931 68.036 151.967 151.966 151.967 83.925 0 151.966-68.036 151.966-151.967-.001-83.93-68.042-151.966-151.966-151.966z"/><path d="M266.397 339.496v-62.074c0-11.494-3.521-14.048-10.225-14.048-7.016 0-10.534 2.554-10.534 14.048v28.1c0 16.288 54.605 65.461 54.605 88.454v40.232c0 29.691-23.31 38.319-44.386 38.319-20.759 0-44.061-8.628-44.061-38.319v-52.371l33.841-14.615v64.116c0 11.493 3.519 14.047 10.534 14.047 6.704 0 10.225-2.554 10.225-14.047v-23.955c0-31.922-54.6-63.226-54.6-100.265v-32.572c0-29.691 23.302-38.314 44.061-38.314 21.076 0 44.386 8.623 44.386 38.314v50.34l-33.846 14.61z"/><path fill="#D8CBBA" d="M266.397 334.256v-62.074c0-11.494-3.521-14.048-10.225-14.048-7.016 0-10.534 2.554-10.534 14.048v28.1c0 16.288 54.605 65.461 54.605 88.454v40.232c0 29.691-23.31 38.319-44.386 38.319-20.759 0-44.061-8.628-44.061-38.319v-52.371l33.841-14.615v64.116c0 11.493 3.519 14.047 10.534 14.047 6.704 0 10.225-2.554 10.225-14.047v-23.955c0-31.922-54.6-63.226-54.6-100.265v-32.572c0-29.691 23.302-38.314 44.061-38.314 21.076 0 44.386 8.623 44.386 38.314v50.34l-33.846 14.61z"/></svg>