<svg xmlns="http://www.w3.org/2000/svg" width="240" height="210" viewBox="0 -25.294 240 210"><path d="M100.339 166.794H86.573s-.457.063-.457.443c0 .44.457.467.457.467h12.649a10.948 10.948 0 0 1-.491 1.779h-7.226v.023h-10.45s-.441.01-.419.465c.021.41.419.443.419.443h12.648a11.009 11.009 0 0 1-.58 2.017h-6.551s-.404.017-.404.437c0 .421.404.474.404.474h6.15c-.845 1.72-2.099 3.225-3.593 4.421a11.71 11.71 0 0 1-2.681.317c-1.224 0-2.413-.185-3.548-.522a14.805 14.805 0 0 1-.944-.879c-2.232-2.481-3.844-6.035-3.844-9.756 0-3.764 1.612-7.277 3.844-9.755.162-.162.327-.321.496-.474a12.342 12.342 0 0 1 3.997-.674c1.115 0 2.211.146 3.27.414a12.66 12.66 0 0 1 3.324 4.845s.183.376.615.31c.391-.059.336-.31.336-.31a13.17 13.17 0 0 0-2.432-4.234c3.11 1.298 5.688 3.774 7 7.164 0 0 .223.465.639.372.417-.093.311-.372.311-.372-1.514-4.385-5.143-7.455-9.37-8.599a13.733 13.733 0 0 0-2.762-1.857 12.251 12.251 0 0 1 4.002-.679c1.271 0 2.521.186 3.713.528a12.67 12.67 0 0 1 3.467 4.964s.159.364.604.338c.429-.023.346-.338.346-.338a13.16 13.16 0 0 0-2.4-4.196 12.664 12.664 0 0 1 6.382 6.893s.163.351.646.319c.381-.026.304-.319.304-.319-1.46-4.23-4.884-7.236-8.914-8.473a14.115 14.115 0 0 0-9.081-3.317c-3.265 0-6.244 1.147-8.653 3.079-2.655.629-5.021 2.027-6.908 3.976-2.481 2.728-4.135 6.365-4.135 10.416 0 4.09 1.613 7.73 4.135 10.417 1.81 1.867 4.062 3.256 6.586 3.928 2.464 2.101 5.563 3.38 8.975 3.38 3.093 0 6.549-1.475 9.24-3.797 3.808-1.432 7.41-4.547 8.881-8.327.37-.869.618-1.943.701-3.061h-5.499c.293-.794.495-1.723.567-2.69zm-5.622 3.602h3.641c-.334.717-.74 1.396-1.204 2.036h-2.986a9.393 9.393 0 0 0 .549-2.036zm-.943 2.946h2.657a14.162 14.162 0 0 1-5.425 3.833c1.143-1.138 2.099-2.43 2.768-3.833zm1.587 6.737c-1.299.45-2.648.693-3.979.693-1.473 0-2.897-.27-4.234-.75a16.35 16.35 0 0 0 2.151-1.372c3.053-.787 6.125-2.732 8.251-5.308h1.672c-.49 2.635-1.926 4.957-3.861 6.737zm-8.912-1.046c.294 0 .59-.02.889-.046-.393.229-.796.439-1.206.625a13.678 13.678 0 0 1-1.304-.682c.532.064 1.073.103 1.621.103zm-9.425.592c-2.231-2.481-3.844-6.035-3.844-9.759 0-.139.007-.281.011-.426a15.28 15.28 0 0 0 3.214 5.207c1.699 1.753 3.788 3.082 6.124 3.794.751.627 1.563 1.18 2.421 1.644-1.312.455-2.674.703-4.018.703-1.057 0-2.089-.136-3.082-.389a15.91 15.91 0 0 1-.826-.774zm.179-12.702c0 3.789 1.385 7.188 3.593 9.806a14.115 14.115 0 0 1-3.771-2.741 15.325 15.325 0 0 1-3.542-6.945c.566-2.665 1.882-5.082 3.542-6.932a14.6 14.6 0 0 1 3.423-2.539c-1.979 2.579-3.245 5.806-3.245 9.351zm-4.023-2.691c0-3.76 1.613-7.275 3.844-9.755.38-.381.785-.738 1.205-1.074a12.19 12.19 0 0 1 2.704-.309c1.405 0 2.781.229 4.086.649a14.422 14.422 0 0 0-3.005 2.108c-2.128.735-4.035 1.978-5.608 3.602a16.073 16.073 0 0 0-3.211 5.269c-.007-.162-.015-.324-.015-.49zm14.963-9.007a14.471 14.471 0 0 0-1.694-.114c-.743 0-1.472.06-2.183.174a14.12 14.12 0 0 1 1.967-1.082c.665.287 1.306.628 1.91 1.022zm-1.694-4.84c2.461 0 4.836.679 6.873 1.922a14.243 14.243 0 0 0-1.94-.138 13.55 13.55 0 0 0-5.203 1.028 14.177 14.177 0 0 0-5.246-1.012c-.339 0-.675.017-1.007.038 1.94-1.145 4.171-1.838 6.523-1.838zm-18.787 16.559c0-3.763 1.613-7.276 3.846-9.756a14.387 14.387 0 0 1 4.698-3.145c-2.368 2.702-3.935 6.25-3.935 10.188 0 .979.095 1.929.27 2.844-.174.907-.27 1.839-.27 2.791 0 3.819 1.404 7.241 3.643 9.867a13.97 13.97 0 0 1-4.405-3.035c-2.234-2.48-3.847-6.035-3.847-9.754zm18.787 16.771c-2.502 0-4.868-.76-6.895-2.043.453.043.912.069 1.378.069 1.639 0 3.38-.417 5.056-1.151a13.43 13.43 0 0 0 5.394 1.132c.704 0 1.43-.083 2.16-.229-2.147 1.406-4.65 2.222-7.093 2.222zm10.912-4.51c.968-1.124 1.755-2.377 2.275-3.714.373-.865.62-1.943.703-3.059h-2.101c.453-.65.84-1.331 1.159-2.036h4.758c-.716 3.842-3.441 7.02-6.794 8.809zm42.863-12.411h-13.765s-.386.06-.386.457c0 .41.386.453.386.453h12.648a11.048 11.048 0 0 1-.49 1.779h-7.227v.023h-10.45s-.406.038-.395.459c.008.406.395.449.395.449h12.65a11.17 11.17 0 0 1-.581 2.017h-6.551s-.417.076-.407.457c.013.406.407.453.407.453h6.149c-.845 1.72-2.1 3.225-3.595 4.421-.888.209-1.787.317-2.678.317-1.224 0-2.413-.185-3.549-.522a14.54 14.54 0 0 1-.944-.879c-2.231-2.481-3.844-6.035-3.844-9.756 0-3.764 1.612-7.277 3.844-9.755.161-.162.325-.321.494-.474a12.363 12.363 0 0 1 3.999-.674c1.116 0 2.211.146 3.268.414a12.653 12.653 0 0 1 3.326 4.845s.162.319.561.319c.411 0 .391-.319.391-.319a13.191 13.191 0 0 0-2.433-4.234c3.109 1.298 5.688 3.774 6.999 7.164 0 0 .173.329.584.317.428-.014.365-.317.365-.317-1.513-4.385-5.144-7.455-9.37-8.599a13.861 13.861 0 0 0-2.76-1.857 12.227 12.227 0 0 1 4.001-.679c1.271 0 2.521.186 3.712.528a12.692 12.692 0 0 1 3.468 4.964s.22.357.692.314c.39-.04.257-.314.257-.314a13.16 13.16 0 0 0-2.4-4.196 12.67 12.67 0 0 1 6.383 6.893s.21.357.655.334c.388-.026.295-.334.295-.334-1.461-4.23-4.884-7.236-8.914-8.473a14.114 14.114 0 0 0-9.079-3.317c-3.267 0-6.244 1.147-8.654 3.079-2.653.629-5.02 2.027-6.908 3.976-2.48 2.728-4.134 6.365-4.134 10.416 0 4.09 1.612 7.73 4.134 10.417 1.811 1.867 4.063 3.256 6.588 3.928 2.462 2.101 5.561 3.38 8.974 3.38 3.093 0 6.546-1.475 9.239-3.797 3.808-1.432 7.41-4.547 8.878-8.327.373-.869.62-1.943.701-3.061h-5.497a9.905 9.905 0 0 0 .568-2.689zm-5.622 3.602h3.642c-.333.717-.74 1.396-1.203 2.036h-2.986a9.28 9.28 0 0 0 .547-2.036zm-.941 2.946h2.657a14.17 14.17 0 0 1-5.425 3.833c1.143-1.138 2.097-2.43 2.768-3.833zm1.589 6.737a12.22 12.22 0 0 1-3.981.693 12.49 12.49 0 0 1-4.233-.75 16.254 16.254 0 0 0 2.148-1.372c3.055-.787 6.125-2.732 8.252-5.308h1.673c-.491 2.635-1.927 4.957-3.859 6.737zm-8.913-1.046c.292 0 .589-.02.888-.046-.394.229-.795.439-1.206.625a13.783 13.783 0 0 1-1.303-.682c.531.064 1.071.103 1.621.103zm-9.424.592c-2.232-2.481-3.844-6.035-3.844-9.759 0-.139.006-.281.011-.426a15.295 15.295 0 0 0 3.214 5.207c1.696 1.753 3.786 3.082 6.122 3.794.75.627 1.562 1.18 2.423 1.644a12.315 12.315 0 0 1-4.02.703c-1.057 0-2.089-.136-3.081-.389-.284-.249-.56-.506-.825-.774zm.178-12.702c0 3.789 1.384 7.188 3.593 9.806a14.052 14.052 0 0 1-3.771-2.741 15.307 15.307 0 0 1-3.543-6.945c.565-2.665 1.882-5.082 3.543-6.932a14.533 14.533 0 0 1 3.422-2.539c-1.978 2.579-3.244 5.806-3.244 9.351zm-4.022-2.691c0-3.76 1.612-7.275 3.844-9.755.379-.381.783-.738 1.203-1.074.877-.199 1.78-.309 2.704-.309 1.405 0 2.783.229 4.086.649a14.357 14.357 0 0 0-3.003 2.108c-2.13.735-4.037 1.978-5.608 3.602a16.093 16.093 0 0 0-3.212 5.269 9.877 9.877 0 0 1-.014-.49zm14.962-9.007a14.53 14.53 0 0 0-1.694-.114c-.745 0-1.472.06-2.184.174a14.074 14.074 0 0 1 1.968-1.082c.663.287 1.303.628 1.91 1.022zm-1.694-4.84c2.46 0 4.834.679 6.87 1.922a13.469 13.469 0 0 0-1.938-.138c-1.844 0-3.594.362-5.202 1.028a14.179 14.179 0 0 0-5.247-1.012c-.339 0-.673.017-1.01.038 1.945-1.145 4.173-1.838 6.527-1.838zm-18.786 16.559c0-3.763 1.612-7.276 3.845-9.756a14.361 14.361 0 0 1 4.698-3.145c-2.367 2.702-3.934 6.25-3.934 10.188 0 .979.093 1.929.268 2.844a14.795 14.795 0 0 0-.268 2.791c0 3.819 1.405 7.241 3.642 9.867a13.997 13.997 0 0 1-4.406-3.035c-2.233-2.48-3.845-6.035-3.845-9.754zm18.786 16.771c-2.503 0-4.87-.76-6.896-2.043.451.043.911.069 1.378.069 1.638 0 3.38-.417 5.055-1.151a13.442 13.442 0 0 0 5.395 1.132c.704 0 1.431-.083 2.161-.229-2.149 1.406-4.652 2.222-7.093 2.222zm10.91-4.51c.967-1.124 1.756-2.377 2.275-3.714.372-.865.62-1.943.702-3.059h-2.101c.453-.65.839-1.331 1.159-2.036h4.759c-.717 3.842-3.439 7.02-6.794 8.809zM24.511 166.914c-1.783-2.418-5.351-2.89-8.66-3.218-1.109-.122-2.248-.261-3.332-.481-.497-.722-.825-1.61-.913-2.739-.123-1.515.203-3.025 1.17-4.262a11.563 11.563 0 0 1 2.538-.314c.627-.014 1.288.039 1.953.148a7.353 7.353 0 0 1 1.127 2.586l.083.413s.12.381.539.321c.37-.05.33-.443.33-.443l-.083-.495a6.918 6.918 0 0 0-.748-2.104c1.481.412 2.885 1.127 3.869 2.132.744.831 1.282 1.988 1.529 3.102l.082.414s.139.371.521.314c.384-.06.348-.437.348-.437l-.083-.497c-.649-3.521-3.617-5.538-7.03-6.134a7.644 7.644 0 0 0-1.641-1.445 11.589 11.589 0 0 1 4.135-.822c.781-.014 1.613.066 2.437.238.588.783 1.017 1.775 1.23 2.73l.082.417s.119.383.545.292c.381-.083.324-.417.324-.417l-.083-.497a6.946 6.946 0 0 0-.78-2.168c1.272.429 2.453 1.084 3.314 1.967.744.827 1.282 1.984 1.529 3.1l.082.412s.095.338.496.284c.423-.053.372-.406.372-.406l-.082-.497c-.62-3.352-3.346-5.343-6.555-6.036-1.775-2.001-4.666-2.98-7.594-2.98-2.952 0-5.898.982-7.782 2.909-2.444.427-4.692 1.551-6.088 3.356-1.075 1.405-1.529 3.268-1.403 4.878.312 4.259 3.281 5.672 6.624 6.303 1.804 2.567 5.461 3.022 8.772 3.363.924.1 1.872.209 2.789.367.256.431.459.906.582 1.458a6.94 6.94 0 0 1 .165 1.531c0 1.753-.688 3.215-1.787 4.358-.647.109-1.305.165-1.955.165a10.88 10.88 0 0 1-2.443-.294c-.861-.926-1.464-2.053-1.637-3.383l-.042-.371s-.101-.455-.494-.429c-.458.032-.416.513-.416.513l.042.369a6.556 6.556 0 0 0 .966 2.811c-2.499-.981-4.636-2.87-4.987-5.581l-.042-.374s-.11-.459-.49-.419c-.424.043-.419.502-.419.502l.042.37c.382 3.635 3.542 5.916 6.899 6.77a8.897 8.897 0 0 0 1.812 1.408 11.766 11.766 0 0 1-4.309.816 10.8 10.8 0 0 1-1.983-.191c-.793-.899-1.346-1.983-1.509-3.244l-.042-.373s-.089-.503-.502-.446c-.48.065-.407.524-.407.524l.042.379a6.533 6.533 0 0 0 .948 2.777c-2.739-.907-5.178-2.875-5.557-5.788l-.041-.374s-.059-.429-.504-.379c-.415.043-.406.462-.406.462l.042.374c.4 3.804 3.84 6.121 7.369 6.875 1.991 2.117 5.219 3.201 8.028 3.201 3.191 0 6.515-1.218 8.483-3.445 3.644-1.038 6.701-3.665 6.701-7.562 0-.579-.083-1.197-.207-1.776-.667-3.066-3.094-4.291-5.905-4.888zm.062 2.403c.123.536.165 1.072.165 1.529 0 .602-.082 1.167-.233 1.698-1.201-1.627-3.209-2.37-5.408-2.78-1.747-2.543-5.392-3.022-8.764-3.36a43 43 0 0 1-2.833-.383c-.444-.698-.743-1.544-.824-2.6a6.714 6.714 0 0 1 .191-2.291c1.125 1.653 3.007 2.45 5.083 2.9 1.837 2.439 5.418 2.89 8.667 3.224 1.096.116 2.22.252 3.287.467.299.459.534.982.669 1.596zm-1.646-2.682c-.713-.103-1.435-.177-2.144-.251-2.621-.283-5.421-.651-7.235-2.072.714.099 1.434.177 2.138.25 2.647.284 5.469.648 7.241 2.073zm-12.19-6.12c.069.927.267 1.72.562 2.396-1.735-.508-3.214-1.348-4.013-2.875.162-.318.354-.626.587-.914.918-1.187 2.238-2.021 3.682-2.542a7.472 7.472 0 0 0-.818 3.935zm-4.062-2.731c-.124-1.527.208-3.059 1.199-4.3.1-.128.206-.254.316-.376a11.655 11.655 0 0 1 1.606-.136 11.412 11.412 0 0 1 4.382.831 8.107 8.107 0 0 0-1.871 1.639c-2.052.533-3.892 1.581-5.096 3.142-.11.146-.209.298-.307.45a6.095 6.095 0 0 1-.229-1.25zm9.655-2.728a12.787 12.787 0 0 0-2.531.093 7.755 7.755 0 0 1 1.319-.9 7.67 7.67 0 0 1 1.212.807zm-1.016-4.795c2.09-.036 4.542.598 6.269 1.875-.36-.033-.725-.053-1.09-.053-1.858 0-3.718.391-5.308 1.16-1.529-.761-3.327-1.141-5.142-1.141-.253 0-.504.014-.756.025 1.713-1.249 3.976-1.836 6.027-1.866zM1.157 160.496c-.125-1.531.206-3.06 1.198-4.299 1.103-1.426 2.782-2.342 4.562-2.82-.86 1.342-1.223 2.995-1.111 4.45.066.893.249 1.66.528 2.324a7.461 7.461 0 0 0-.528 3.311c.064.887.246 1.653.522 2.312-2.703-.676-4.919-2.024-5.171-5.278zm7.252 6.577c.588.079 1.178.142 1.759.201 2.752.297 5.689.685 7.441 2.255a59.806 59.806 0 0 0-1.758-.197c-2.727-.295-5.64-.692-7.442-2.259zm11.761 6.524c0-.576-.083-1.198-.207-1.776a6.266 6.266 0 0 0-.316-1.006c1.912.464 3.567 1.261 4.431 2.818-.977 1.917-2.938 3.258-5.166 3.935a6.767 6.767 0 0 0 1.258-3.971zm4.403 1.356c.123.538.165 1.078.165 1.531a6.068 6.068 0 0 1-1.402 3.918c-.954.245-1.947.37-2.925.37-1.34 0-2.784-.284-4.121-.822a9.087 9.087 0 0 0 1.648-1.251c2.677-.525 5.17-1.881 6.573-3.958.021.073.045.138.062.212zm-10.253 3.939a12.119 12.119 0 0 0 1.93.029c-.301.208-.617.4-.947.576a10.187 10.187 0 0 1-.983-.605zm1.158 4.823c-2.154 0-4.584-.717-6.385-2.089.278.021.553.031.826.031 1.831 0 3.701-.398 5.339-1.16a12.306 12.306 0 0 0 5.111 1.142c.617 0 1.238-.046 1.853-.136-1.798 1.446-4.318 2.212-6.744 2.212zm9.319-3.792a6.779 6.779 0 0 0 .891-3.399c0-.579-.082-1.2-.206-1.776a6.208 6.208 0 0 0-.361-1.111c.362-.83.567-1.745.567-2.747a8.67 8.67 0 0 0-.206-1.779 6.042 6.042 0 0 0-.354-1.096c2.14.616 3.877 1.724 4.377 3.992.124.538.165 1.074.165 1.531 0 3.085-2.13 5.271-4.873 6.385zm38.753-27.985c-.389 0-.441.479-.441.479v21.038c0 3.277-2.187 5.438-4.931 6.512a7.052 7.052 0 0 0 .909-3.525v-26.72s-.056-.448-.457-.448c-.463 0-.452.448-.452.448v21.042c0 3.644-2.703 5.906-5.871 6.831.788-1.131 1.262-2.493 1.262-4.08v-21.081s-.036-.442-.466-.442c-.447 0-.444.442-.444.442v21.042c0 1.825-.678 3.303-1.751 4.44-.665.109-1.333.165-1.991.165a12.06 12.06 0 0 1-2.692-.308c-1.004-1.11-1.635-2.536-1.635-4.278v-21.078s.011-.512-.426-.512c-.479 0-.482.512-.482.512v21.038c0 1.501.414 2.804 1.115 3.898-2.84-1.041-5.138-3.218-5.138-6.547v-21.085s-.032-.513-.435-.513c-.47 0-.476.513-.476.513v26.68c0 1.481.406 2.765 1.088 3.854-3.09-.953-5.696-3.188-5.696-6.74v-21.081s-.014-.452-.458-.452c-.436 0-.45.452-.45.452v21.042c0 4.421 3.58 7.103 7.502 7.939 2 2.122 5.203 3.214 8.182 3.214 3.06 0 6.391-1.17 8.378-3.43 3.592-1.016 6.723-3.617 6.723-7.704v-21.078c.001 0-.03-.479-.467-.479zm-5.373 22.393v2.07c0 1.601-.522 2.934-1.376 4.004a12.07 12.07 0 0 1-7.146-.386 9.3 9.3 0 0 0 1.664-1.263c2.813-.543 5.504-2.034 6.858-4.425zm-8.5 4.632c-.328.225-.675.43-1.034.612a8.617 8.617 0 0 1-1.123-.665c.47.053.937.079 1.397.079.253.001.505-.009.76-.026zm-10.018-2.522v-2.117c1.235 2.196 3.584 3.628 6.134 4.273a8.83 8.83 0 0 0 1.834 1.425 12.026 12.026 0 0 1-6.459.559c-.932-1.091-1.509-2.467-1.509-4.14zm9.258 7.274c-2.317 0-4.801-.684-6.613-2.067.367.033.733.055 1.097.055 1.759 0 3.607-.391 5.241-1.146 1.619.745 3.452 1.122 5.209 1.122.593 0 1.198-.043 1.801-.129-1.823 1.449-4.364 2.165-6.735 2.165zm125.009-3.234h-15.252v-1.822h10.319s.433-.028.433-.438c0-.374-.433-.431-.433-.431h-10.319v-7.506h9.908s.434-.037.434-.46c0-.383-.434-.449-.434-.449h-9.908v-2.018h4.389v-.02h10.447s.407-.036.407-.474c0-.37-.407-.437-.407-.437h-14.836v-1.781h9.908s.384-.053.384-.467c0-.374-.384-.443-.384-.443h-9.908v-7.506h10.236s.418-.047.418-.434c0-.391-.418-.438-.418-.438h-10.236v-2.056h4.719v-.02h10.45s.409.003.409-.421c0-.387-.409-.446-.409-.446h-16.036v.017h-4.065v-1.841h15.169s.404-.043.404-.431c0-.42-.404-.44-.404-.44h-16.035v2.712h-5.52v28.938h5.52v2.923h16.118s.407-.017.407-.417c0-.397-.407-.45-.407-.45h-15.253v-2.056h9.734v-.023h10.45s.406-.043.406-.417c.001-.398-.405-.448-.405-.448zm-16.12-2.691h-4.065v-7.506h4.065zm0-8.415h-4.065v-2.018h4.065zm0-2.928h-4.065v-1.801h4.065zm0-2.711h-4.065v-7.506h4.065zm0-10.433v2.056h-4.065v-2.056zm-9.586 0h4.654v13.144h-4.654zm0 27.199v-13.146h4.654v13.146zm5.521-1.843h4.065v1.844h-4.065zm45.735-11.745c-1.78-2.418-5.353-2.89-8.659-3.218-1.107-.122-2.248-.261-3.331-.481-.499-.722-.828-1.61-.914-2.739-.122-1.515.202-3.025 1.172-4.262a11.538 11.538 0 0 1 2.536-.314c.629-.014 1.288.039 1.952.148a7.39 7.39 0 0 1 1.127 2.586l.083.413s.122.318.51.318c.335 0 .357-.44.357-.44l-.083-.495a6.914 6.914 0 0 0-.745-2.104c1.479.412 2.883 1.127 3.866 2.132.744.831 1.281 1.988 1.531 3.102l.08.414s.116.344.443.344c.382 0 .426-.466.426-.466l-.08-.497c-.653-3.521-3.616-5.538-7.031-6.134a7.698 7.698 0 0 0-1.642-1.445 11.608 11.608 0 0 1 4.137-.822c.781-.014 1.609.066 2.438.238.587.783 1.014 1.775 1.229 2.73l.08.417s.144.378.551.318c.394-.06.318-.443.318-.443l-.08-.497a6.95 6.95 0 0 0-.783-2.168c1.273.429 2.456 1.084 3.314 1.967.745.827 1.282 1.984 1.531 3.1l.08.412s.158.341.469.341c.373 0 .401-.463.401-.463l-.083-.497c-.618-3.352-3.346-5.343-6.555-6.036-1.775-2.001-4.664-2.98-7.597-2.98-2.949 0-5.896.982-7.778 2.909-2.442.427-4.691 1.551-6.087 3.356-1.074 1.405-1.531 3.268-1.406 4.878.312 4.259 3.281 5.672 6.626 6.303 1.803 2.567 5.461 3.022 8.771 3.363.925.1 1.872.209 2.788.367.258.431.46.906.582 1.458.125.54.166 1.078.166 1.531 0 1.753-.689 3.215-1.789 4.358a11.77 11.77 0 0 1-1.952.165c-.795 0-1.623-.103-2.445-.294-.861-.926-1.462-2.053-1.637-3.383l-.041-.371s-.122-.363-.468-.363c-.449 0-.44.447-.44.447l.041.369a6.557 6.557 0 0 0 .967 2.811c-2.501-.981-4.636-2.87-4.99-5.581l-.041-.374s-.053-.364-.487-.364c-.422 0-.422.447-.422.447l.042.37c.382 3.635 3.542 5.916 6.9 6.77a8.96 8.96 0 0 0 1.809 1.408 11.755 11.755 0 0 1-4.306.816c-.646 0-1.312-.065-1.985-.191-.792-.899-1.347-1.983-1.51-3.244l-.041-.373s-.101-.364-.51-.364c-.474 0-.399.442-.399.442l.042.379a6.572 6.572 0 0 0 .947 2.777c-2.739-.907-5.176-2.875-5.556-5.788l-.041-.374s-.066-.366-.443-.366c-.51 0-.468.449-.468.449l.042.374c.401 3.804 3.843 6.121 7.371 6.875 1.991 2.117 5.22 3.201 8.028 3.201 3.187 0 6.513-1.218 8.481-3.445 3.645-1.038 6.699-3.665 6.699-7.562 0-.579-.081-1.197-.205-1.776-.663-3.067-3.089-4.292-5.903-4.889zm.062 2.403c.127.536.169 1.072.169 1.529 0 .602-.084 1.167-.235 1.698-1.202-1.627-3.213-2.37-5.409-2.78-1.747-2.543-5.391-3.022-8.764-3.36-.939-.103-1.9-.217-2.833-.383-.446-.698-.742-1.544-.822-2.6a6.688 6.688 0 0 1 .188-2.291c1.128 1.653 3.011 2.45 5.085 2.9 1.839 2.439 5.419 2.89 8.667 3.224 1.094.116 2.219.252 3.284.467.301.459.534.982.67 1.596zm-1.646-2.682c-.714-.103-1.435-.177-2.144-.251-2.622-.283-5.422-.651-7.235-2.072.715.099 1.435.177 2.138.25 2.648.284 5.469.648 7.241 2.073zm-12.187-6.12c.067.927.264 1.72.562 2.396-1.739-.508-3.218-1.348-4.016-2.875.161-.318.354-.626.588-.914.919-1.187 2.237-2.021 3.683-2.542a7.442 7.442 0 0 0-.817 3.935zm-4.062-2.731c-.125-1.527.204-3.059 1.196-4.3.1-.128.204-.254.318-.376.54-.083 1.077-.129 1.604-.136a11.428 11.428 0 0 1 4.383.831 8.128 8.128 0 0 0-1.871 1.639c-2.053.533-3.892 1.584-5.096 3.142a7.953 7.953 0 0 0-.308.45 6.309 6.309 0 0 1-.226-1.25zm9.654-2.728a12.8 12.8 0 0 0-2.532.093 7.685 7.685 0 0 1 1.32-.9c.436.235.843.505 1.212.807zm-1.017-4.795c2.088-.036 4.542.598 6.27 1.875a12.028 12.028 0 0 0-1.089-.053c-1.86 0-3.719.391-5.311 1.16-1.529-.761-3.326-1.141-5.14-1.141-.255 0-.507.014-.759.025 1.715-1.249 3.977-1.836 6.029-1.866zm-14.156 10.235c-.124-1.531.205-3.06 1.196-4.299 1.105-1.426 2.786-2.342 4.563-2.82-.858 1.342-1.221 2.995-1.11 4.45.063.893.249 1.66.526 2.324a7.48 7.48 0 0 0-.526 3.311c.063.887.244 1.653.521 2.312-2.702-.676-4.918-2.024-5.17-5.278zm7.25 6.577c.59.079 1.183.142 1.761.201 2.75.297 5.688.685 7.441 2.255a60.256 60.256 0 0 0-1.759-.197c-2.727-.295-5.64-.692-7.443-2.259zm11.763 6.524c0-.576-.081-1.198-.208-1.776a5.978 5.978 0 0 0-.315-1.006c1.91.464 3.569 1.261 4.431 2.818-.978 1.917-2.938 3.258-5.165 3.935a6.773 6.773 0 0 0 1.257-3.971zm4.401 1.356c.127.538.169 1.078.169 1.531 0 1.537-.535 2.851-1.404 3.918-.955.245-1.947.37-2.925.37-1.34 0-2.785-.284-4.12-.822a9.065 9.065 0 0 0 1.645-1.251c2.678-.521 5.171-1.881 6.574-3.958.019.073.044.138.061.212zm-10.252 3.939a12.214 12.214 0 0 0 1.93.029c-.299.208-.617.4-.946.576a10.081 10.081 0 0 1-.984-.605zm1.16 4.823c-2.154 0-4.586-.717-6.386-2.089.277.021.554.031.825.031 1.828 0 3.702-.398 5.337-1.16a12.326 12.326 0 0 0 5.114 1.142c.614 0 1.235-.046 1.85-.136-1.797 1.446-4.317 2.212-6.74 2.212zm9.318-3.796a6.752 6.752 0 0 0 .889-3.396c0-.579-.08-1.2-.204-1.776a6.545 6.545 0 0 0-.36-1.111c.362-.83.564-1.745.564-2.747 0-.582-.08-1.201-.204-1.779a6.286 6.286 0 0 0-.354-1.096c2.14.616 3.879 1.724 4.375 3.992.124.538.166 1.074.166 1.531 0 3.086-2.13 5.272-4.872 6.382zm36.618-27.502h-14.854v-1.781h9.923s.407-.038.407-.434c0-.41-.407-.48-.407-.48H210.74s-.404.057-.404.428c0 .412.404.486.404.486h9.922v1.781h-4.99v.017h-10.448s-.407.093-.407.453c0 .41.407.457.407.457h9.92v2.016h-4.403s-.404.055-.404.464c0 .348.404.446.404.446h4.403v25.103s.047.405.42.405c.386 0 .449-.405.449-.405V156.27h4.649v28.026s.024.41.46.41c.349 0 .406-.41.406-.41V156.27h4.065v25.079s.081.407.466.407c.362 0 .401-.407.401-.407V156.27h4.99s.407-.05.407-.446c0-.424-.407-.464-.407-.464h-4.99v-2.036h9.922s.407 0 .407-.46c0-.411-.407-.447-.407-.447zm-20.371 2.942v-2.016h4.649v2.016zm5.516 0v-2.016h4.065v2.016zM120.465-.693c4.417-.624 7.519-4.713 6.902-9.147-.613-4.429-4.728-7.525-9.144-6.906-2.641.366-4.774 1.984-5.975 4.157l-1.376-1.053c1.46-2.515 3.998-4.404 7.111-4.833 5.367-.746 10.357 3.019 11.099 8.396.755 5.372-3.013 10.36-8.378 11.114-3.111.431-6.065-.679-8.167-2.717l1.048-1.375c1.741 1.759 4.246 2.723 6.88 2.364z"/><path d="M120.853 2.112c5.965-.837 10.144-6.368 9.313-12.336-.831-5.981-6.365-10.16-12.336-9.328-3.407.471-6.194 2.505-7.833 5.25l-1.556-1.168c1.953-3.145 5.177-5.461 9.123-6.011 7.028-.983 13.551 3.943 14.531 10.985.979 7.038-3.944 13.56-10.979 14.54-3.938.549-7.676-.808-10.406-3.295l1.166-1.553c2.337 2.193 5.568 3.387 8.977 2.916z"/><path d="M108.896 3.139l1.148-1.511c2.963 2.658 6.99 4.084 11.225 3.493 7.63-1.062 12.977-8.132 11.916-15.774-1.061-7.636-8.141-12.983-15.771-11.926-4.249.601-7.732 3.079-9.845 6.45l-1.517-1.14c2.415-3.76 6.335-6.507 11.099-7.174 8.694-1.211 16.705 4.846 17.915 13.543 1.206 8.666-4.845 16.69-13.528 17.903-4.762.661-9.285-.917-12.642-3.864z"/><path d="M106.583-6.944c.428 3.093 1.976 5.74 4.128 7.69l-.667.881c-2.366-2.131-4.071-5.023-4.546-8.42-.478-3.396.368-6.642 2.071-9.337l.874.658c-1.534 2.481-2.292 5.428-1.86 8.528zm9.325.81l-1.594 2.109c1.506 1.596 3.651 2.569 5.996 2.242 3.826-.532 6.498-4.078 5.962-7.904-.53-3.828-4.069-6.513-7.896-5.979-2.343.325-4.15 1.849-5.159 3.808l2.089 1.577c-.233.557-.358 1.2-.226 2.154a4.45 4.45 0 0 0 .828 1.993zm.779.723l2.453-3.247-3.29-2.487c.645-.963 1.65-1.662 2.894-1.832a4.286 4.286 0 0 1 4.852 3.664 4.286 4.286 0 0 1-3.655 4.852c-1.228.172-2.374-.218-3.254-.95zm4.537 37.615l-1.545 2.048c1.5 1.607 3.649 2.575 5.987 2.251a7.008 7.008 0 0 0 5.969-7.908c-.533-3.83-4.07-6.511-7.9-5.977-2.339.325-4.147 1.846-5.158 3.805l1.997 1.508c-.244.566-.382 1.217-.246 2.197.109.782.458 1.512.896 2.076zm.743.598l2.422-3.206-3.199-2.418c.645-.984 1.658-1.703 2.917-1.874a4.298 4.298 0 0 1 4.857 3.661 4.306 4.306 0 0 1-3.665 4.859c-1.261.179-2.442-.246-3.332-1.022zM103.09 10.764l1.49-1.982c-1.505-1.597-3.647-2.571-5.988-2.244a7.007 7.007 0 0 0 1.935 13.88c2.342-.324 4.142-1.842 5.153-3.804l-1.945-1.469c.265-.583.42-1.247.279-2.267a4.459 4.459 0 0 0-.924-2.114zm-.762-.498l-2.374 3.142 3.156 2.388c-.642 1.018-1.674 1.768-2.962 1.945-2.353.333-4.522-1.324-4.848-3.672a4.302 4.302 0 0 1 3.658-4.856c1.279-.178 2.471.26 3.37 1.053zm10.066-18.02c.208 1.487.965 2.701 1.919 3.729l-.729.968a8.087 8.087 0 0 1-2.271-4.548c-.247-1.79.137-3.509.934-4.984l.968.731c-.632 1.239-1.027 2.618-.821 4.104z"/><path d="M109.596-7.365c.316 2.265 1.409 4.21 2.94 5.683l-.66.875c-1.746-1.643-3.011-3.842-3.367-6.404-.354-2.561.256-5.021 1.488-7.092l.874.661c-1.069 1.845-1.59 4.015-1.275 6.277zM98.436 5.451c-4.421.614-7.523 4.719-6.908 9.146.617 4.427 4.725 7.525 9.149 6.906 2.634-.368 4.774-1.99 5.968-4.159l1.381 1.053c-1.464 2.516-4 4.399-7.108 4.833-5.371.75-10.361-3.019-11.107-8.398-.751-5.368 3.018-10.364 8.385-11.114 3.107-.428 6.058.683 8.166 2.718l-1.05 1.376c-1.74-1.758-4.241-2.733-6.876-2.361z"/><path d="M98.051 2.642c-5.97.83-10.153 6.369-9.319 12.343.828 5.977 6.366 10.16 12.335 9.325 3.406-.475 6.191-2.503 7.833-5.253l1.556 1.171c-1.95 3.143-5.179 5.463-9.123 6.013-7.031.976-13.547-3.945-14.529-10.989-.978-7.04 3.942-13.559 10.971-14.536 3.945-.551 7.686.801 10.412 3.293L107.02 5.56c-2.336-2.192-5.566-3.386-8.969-2.918z"/><path d="M97.361-2.244c4.758-.665 9.29.912 12.635 3.855l-1.145 1.516c-2.965-2.654-6.989-4.082-11.23-3.492-7.627 1.06-12.975 8.136-11.913 15.773 1.064 7.638 8.146 12.987 15.779 11.918 4.243-.589 7.726-3.07 9.838-6.44l.116.088c2.417-3.738 6.327-6.469 11.075-7.134 8.691-1.211 16.701 4.848 17.915 13.543 1.211 8.665-4.849 16.692-13.531 17.896-4.762.666-9.291-.909-12.641-3.854l1.14-1.51c2.967 2.656 6.994 4.08 11.229 3.491 7.632-1.062 12.98-8.138 11.92-15.777-1.067-7.63-8.146-12.979-15.778-11.922-4.241.598-7.724 3.078-9.845 6.445l-.106-.081c-2.418 3.725-6.325 6.472-11.073 7.126-8.693 1.211-16.704-4.845-17.914-13.537-1.209-8.671 4.842-16.688 13.529-17.904z"/><path d="M112.316 11.7c-.434-3.095-1.975-5.742-4.13-7.69l.667-.883c2.37 2.134 4.079 5.022 4.543 8.424.479 3.401-.36 6.639-2.07 9.335l-.87-.658c1.527-2.477 2.287-5.433 1.86-8.528zm-5.814.812c-.208-1.49-.961-2.711-1.922-3.73l.732-.969a8.063 8.063 0 0 1 2.268 4.545c.25 1.794-.129 3.507-.935 4.986l-.966-.73c.636-1.236 1.028-2.619.823-4.102z"/><path d="M109.299 12.118c-.315-2.26-1.407-4.217-2.936-5.682l.656-.875c1.744 1.646 3.009 3.847 3.37 6.409.353 2.558-.257 5.02-1.489 7.087l-.873-.66c1.07-1.848 1.59-4.015 1.272-6.279zM125.82 37.59a8.114 8.114 0 0 0 6.908-9.151c-.615-4.425-4.728-7.52-9.143-6.905-2.641.368-4.778 1.989-5.973 4.161l-1.381-1.057c1.464-2.514 4-4.403 7.113-4.833 5.364-.739 10.354 3.021 11.102 8.402.751 5.368-3.014 10.36-8.385 11.113-3.105.429-6.058-.682-8.164-2.714l1.045-1.381c1.745 1.76 4.251 2.725 6.878 2.365z"/><path d="M126.211 40.393c5.968-.832 10.151-6.366 9.318-12.336-.832-5.977-6.371-10.154-12.338-9.328-3.409.475-6.195 2.506-7.832 5.251l-1.561-1.169c1.958-3.143 5.181-5.46 9.125-6.013 7.033-.979 13.555 3.947 14.534 10.987.977 7.037-3.945 13.561-10.98 14.54-3.937.55-7.678-.806-10.411-3.292l1.172-1.554c2.336 2.188 5.568 3.388 8.973 2.914z"/><path d="M111.943 31.337c.43 3.095 1.975 5.741 4.124 7.695l-.667.883c-2.368-2.135-4.069-5.028-4.542-8.422-.474-3.4.372-6.646 2.068-9.341l.874.659c-1.529 2.478-2.289 5.431-1.857 8.526zm5.817-.808c.207 1.483.962 2.706 1.92 3.724l-.736.973c-1.18-1.199-2.018-2.758-2.266-4.546-.25-1.79.131-3.51.936-4.983l.964.728c-.633 1.238-1.026 2.617-.818 4.104z"/><path d="M114.956 30.918c.316 2.264 1.409 4.213 2.942 5.688l-.659.872c-1.747-1.643-3.007-3.849-3.367-6.405-.354-2.559.255-5.021 1.488-7.093l.872.66c-1.071 1.843-1.589 4.015-1.276 6.278zm-11.157 12.816c-4.419.616-7.519 4.714-6.907 9.144.616 4.427 4.723 7.529 9.146 6.909 2.638-.373 4.776-1.989 5.968-4.162l1.382 1.057c-1.46 2.514-4.001 4.399-7.111 4.829-5.372.752-10.36-3.016-11.104-8.392-.752-5.373 3.017-10.364 8.384-11.114 3.115-.432 6.057.683 8.168 2.711l-1.046 1.375c-1.748-1.752-4.251-2.723-6.88-2.357z"/><path d="M104.323 47.497a4.305 4.305 0 0 0-3.668 4.857c.336 2.349 2.5 4.006 4.859 3.671 1.188-.162 2.16-.813 2.807-1.714l-3.165-2.393 2.486-3.294c.732.552 1.413 1.605 1.573 2.762.121.871.023 1.48-.17 2.003l1.998 1.509c-1.013 1.96-2.814 3.478-5.154 3.803-3.831.535-7.374-2.147-7.906-5.974-.533-3.828 2.138-7.376 5.969-7.907 2.339-.325 4.482.645 5.991 2.243l-1.625 2.16c-.908-1.212-2.39-1.947-3.995-1.726z"/><path d="M103.411 40.929c-5.969.825-10.156 6.369-9.323 12.34.833 5.976 6.374 10.16 12.336 9.325 3.414-.476 6.195-2.502 7.835-5.253l1.559 1.172c-1.957 3.141-5.179 5.462-9.123 6.011-7.034.981-13.55-3.949-14.533-10.985-.979-7.04 3.942-13.559 10.977-14.542 3.938-.547 7.681.807 10.41 3.297l-1.174 1.556c-2.329-2.197-5.561-3.391-8.964-2.921z"/><path d="M115.36 39.895l-1.145 1.519c-2.962-2.659-6.992-4.085-11.227-3.499-7.628 1.066-12.979 8.143-11.914 15.774 1.063 7.64 8.143 12.986 15.774 11.921 4.242-.586 7.725-3.07 9.846-6.443l1.511 1.154c-2.417 3.742-6.336 6.505-11.098 7.162-8.688 1.211-16.705-4.844-17.917-13.536-1.205-8.675 4.842-16.691 13.531-17.908 4.763-.667 9.29.912 12.639 3.856z"/><path d="M117.676 49.986c-.429-3.098-1.976-5.743-4.126-7.693l.665-.879c2.373 2.129 4.08 5.021 4.548 8.416.475 3.406-.371 6.643-2.069 9.337l-.875-.654c1.527-2.476 2.285-5.433 1.857-8.527zm-5.817.812c-.206-1.492-.956-2.712-1.916-3.734l.735-.972c1.178 1.201 2.017 2.76 2.263 4.548.253 1.792-.13 3.505-.935 4.985l-.963-.728c.635-1.235 1.023-2.618.816-4.099z"/><path d="M114.66 50.403c-.312-2.266-1.406-4.211-2.936-5.686l.651-.868c1.755 1.637 3.01 3.845 3.37 6.404.356 2.557-.253 5.017-1.486 7.088l-.872-.658c1.074-1.848 1.595-4.018 1.273-6.28z"/></svg>