<?xml version="1.0" standalone="no"?>
<!DOCTYPE svg PUBLIC "-//W3C//DTD SVG 1.1//EN" "http://www.w3.org/Graphics/SVG/1.1/DTD/svg11.dtd" >
<svg xmlns="http://www.w3.org/2000/svg" xmlns:xlink="http://www.w3.org/1999/xlink" version="1.1">
<metadata>
Created by FontForge 20150318 at Fri Aug 28 13:03:36 2015
 By uniteet7
Copyright (c) 2007 Typodermic Fonts. All Rights Reserved.
</metadata>
<defs>
<font id="OctinTeamHeavy" horiz-adv-x="565" >
  <font-face 
    font-family="OctinTeamHeavy"
    font-weight="900"
    font-stretch="normal"
    units-per-em="1000"
    panose-1="2 0 5 3 2 0 0 2 0 4"
    ascent="800"
    descent="-200"
    x-height="700"
    cap-height="700"
    bbox="-52 -225 1123 920"
    underline-thickness="50"
    underline-position="-50"
    unicode-range="U+0020-FB02"
  />
<missing-glyph horiz-adv-x="629" 
d="M589 -111q0 -114 -113 -114h-322q-114 0 -114 114v767q0 114 114 114h322q113 0 113 -114v-767zM480 595l-227 61l-140 -80l-29 -107l149 -40l11 39l24 14l93 -24l14 -25l-14 -52l-168 -97l-30 -111l135 -36l15 57l209 122l37 140zM283 80l-136 36l-39 -146l136 -36z" />
    <glyph glyph-name=".notdef" horiz-adv-x="629" 
d="M589 -111q0 -114 -113 -114h-322q-114 0 -114 114v767q0 114 114 114h322q113 0 113 -114v-767zM480 595l-227 61l-140 -80l-29 -107l149 -40l11 39l24 14l93 -24l14 -25l-14 -52l-168 -97l-30 -111l135 -36l15 57l209 122l37 140zM283 80l-136 36l-39 -146l136 -36z" />
    <glyph glyph-name=".null" horiz-adv-x="0" 
 />
    <glyph glyph-name="nonmarkingreturn" horiz-adv-x="527" 
 />
    <glyph glyph-name="space" unicode=" " horiz-adv-x="320" 
 />
    <glyph glyph-name="exclam" unicode="!" horiz-adv-x="312" 
d="M224 225h-137l-26 475h190zM227 0h-142v151h142v-151z" />
    <glyph glyph-name="quotedbl" unicode="&#x22;" horiz-adv-x="321" 
d="M262 439h-56l-21 291h98zM115 439h-56l-21 291h97z" />
    <glyph glyph-name="numbersign" unicode="#" horiz-adv-x="482" 
d="M406 505h52v-97h-63l-11 -103h52v-97h-63l-21 -208h-115l22 208h-68l-22 -208h-114l22 208h-54v97h64l11 103h-53v97h64l21 195h114l-21 -195h68l21 195h115zM213 408l-12 -103h69l11 103h-68z" />
    <glyph glyph-name="dollar" unicode="$" horiz-adv-x="481" 
d="M439 449h-141v34l-19 18h-84l-15 -15v-66l14 -14h171l79 -75v-163l-96 -95h-75v-73h-69v73h-67l-100 99v102h142v-41l19 -19h88l16 16v71l-13 13h-170l-81 81v156l91 92h75v57h69v-57h71l95 -95v-99z" />
    <glyph glyph-name="percent" unicode="%" horiz-adv-x="729" 
d="M251 0h-97l321 700h97zM312 409l-61 -61h-152l-62 62v230l61 60h153l61 -60v-231zM147 600l-13 -14v-126l14 -14h52l15 14v126l-14 14h-54zM692 60l-61 -60h-153l-61 61v230l60 60h155l60 -60v-231zM527 251l-14 -13v-126l14 -14h53l14 14v126l-13 13h-54z" />
    <glyph glyph-name="ampersand" unicode="&#x26;" horiz-adv-x="584" 
d="M391 609v-159l-95 -99l61 -82l44 68h130l-95 -170l128 -167h-151l-54 66l-49 -66h-174l-109 108v163l105 96l-80 102v140l91 91h157zM178 227v-66l19 -19h53l25 34l-64 84zM256 558h-56l-14 -15v-50l40 -48l45 47v51z" />
    <glyph glyph-name="quotesingle" unicode="'" horiz-adv-x="172" 
d="M114 439h-56l-21 291h98z" />
    <glyph glyph-name="parenleft" unicode="(" horiz-adv-x="259" 
d="M126 614v-538l91 -176h-88l-92 177v544l92 179h93z" />
    <glyph glyph-name="parenright" unicode=")" horiz-adv-x="259" 
d="M222 621v-544l-92 -177h-88l91 176v538l-96 186h93z" />
    <glyph glyph-name="asterisk" unicode="*" horiz-adv-x="360" 
d="M216 611l106 -23l-15 -64l-105 47l12 -112h-66l12 112l-101 -47l-22 62l111 25l-74 81l50 41l57 -98l55 95l54 -36z" />
    <glyph glyph-name="plus" unicode="+" horiz-adv-x="444" 
d="M406 305h-144v-144h-82v144h-143v82h143v143h82v-143h144v-82z" />
    <glyph glyph-name="comma" unicode="," horiz-adv-x="243" 
d="M206 33l-130 -169l-56 24l44 172v86h142v-113z" />
    <glyph glyph-name="hyphen" unicode="-" horiz-adv-x="309" 
d="M309 305h-307v105h307v-105z" />
    <glyph glyph-name="period" unicode="." horiz-adv-x="216" 
d="M179 0h-142v151h142v-151z" />
    <glyph glyph-name="slash" unicode="/" horiz-adv-x="280" 
d="M71 -82h-94l216 806h94z" />
    <glyph glyph-name="zero" unicode="0" 
d="M528 125q-32 -31 -63.5 -62.5t-63.5 -62.5h-238l-126 125v453l122 122h247l122 -122v-453zM334 527h-103l-22 -21v-311l23 -23h101l23 23v311z" />
    <glyph glyph-name="one" unicode="1" horiz-adv-x="411" 
d="M311 172h63v-172h-315v172h80v344l-67 -23l-35 144l188 63h86v-528z" />
    <glyph glyph-name="two" unicode="2" horiz-adv-x="562" 
d="M524 392l-99 -99h-199l-17 -16v-105h143v59h172v-231h-487v314l96 92h201l17 16v85l-20 20h-95l-20 -20v-44h-174v123l114 114h254l114 -114v-194z" />
    <glyph glyph-name="three" unicode="3" horiz-adv-x="562" 
d="M521 586v-167l-54 -54l58 -58v-189l-119 -118h-251l-118 118v120h172v-45l21 -21h101l21 21v80l-20 20h-177v122h176l20 20v72l-20 20h-101l-20 -20v-37h-170v116l114 114h253z" />
    <glyph glyph-name="four" unicode="4" horiz-adv-x="531" 
d="M444 336h64v-139h-64v-63h64v-134h-318v134h75v63h-248v126l249 377h178v-364zM174 336h91v134z" />
    <glyph glyph-name="five" unicode="5" horiz-adv-x="562" 
d="M518 481h-173v46h-134v-100h217l97 -91v-218l-119 -118h-251l-118 118v140h172v-65l21 -21h101l21 21v105l-16 17h-297v385h479v-219z" />
    <glyph glyph-name="six" unicode="6" horiz-adv-x="562" 
d="M519 586v-122h-173v43l-20 20h-96l-21 -20v-93h219l97 -91v-205l-119 -118h-251l-118 118v468l113 114h255zM209 302v-109l21 -21h101l21 21v92l-16 17h-127z" />
    <glyph glyph-name="seven" unicode="7" horiz-adv-x="513" 
d="M486 522l-194 -522h-186l192 490v54h-138v-111h-140v267h466v-178z" />
    <glyph glyph-name="eight" unicode="8" horiz-adv-x="562" 
d="M521 586v-167l-54 -54l58 -58v-189l-119 -118h-251l-118 118v189l58 58l-55 54v167l114 114h253zM230 300l-21 -20v-87l21 -21h101l21 21v87l-20 20h-102zM230 527l-20 -20v-65l20 -20h101l20 20v65l-20 20h-101z" />
    <glyph glyph-name="nine" unicode="9" horiz-adv-x="562" 
d="M524 117l-117 -117h-252l-117 117v127h172v-52l20 -20h102l20 20v103h-216l-99 98v192l114 115h258l115 -115v-468zM230 527l-21 -21v-82l18 -17h125v99l-21 21h-101z" />
    <glyph glyph-name="colon" unicode=":" horiz-adv-x="216" 
d="M179 391h-142v151h142v-151zM179 137h-142v152h142v-152z" />
    <glyph glyph-name="semicolon" unicode=";" horiz-adv-x="238" 
d="M201 33l-130 -169l-56 24l44 172v86h142v-113zM199 332h-142v151h142v-151z" />
    <glyph glyph-name="less" unicode="&#x3c;" horiz-adv-x="459" 
d="M421 500l-284 -143l284 -145v-111l-384 201v111l384 199v-112z" />
    <glyph glyph-name="equal" unicode="=" horiz-adv-x="444" 
d="M406 242h-369v81h369v-81zM406 388h-369v82h369v-82z" />
    <glyph glyph-name="greater" unicode="&#x3e;" horiz-adv-x="459" 
d="M421 302l-384 -201v111l284 145l-284 143v112l384 -199v-111z" />
    <glyph glyph-name="question" unicode="?" horiz-adv-x="522" 
d="M493 586v-145l-170 -172v-59h-139v115l137 137v54l-20 20h-96l-20 -20v-41h-154v111l114 114h235zM324 0h-141v151h141v-151z" />
    <glyph glyph-name="at" unicode="@" horiz-adv-x="583" 
d="M545 285l-50 -50h-212l-34 34v211l25 25h150v45l-16 16h-178l-41 -41v-305l48 -48h291v-172h-345l-146 145v420l134 135h296l78 -78v-337zM359 431l-13 -13v-78l14 -14h50l14 14v91h-65z" />
    <glyph glyph-name="A" unicode="A" horiz-adv-x="646" 
d="M559 172h72v-172h-296v172h44l-15 62h-126l-14 -62h41v-172h-250v172h64l129 528h239zM256 324h88l-45 187z" />
    <glyph glyph-name="B" unicode="B" horiz-adv-x="620" 
d="M579 418l-55 -54l58 -58v-188l-118 -118h-427v172h63v355h-63v173h428l114 -114v-168zM273 299v-127h116l21 21v86l-20 20h-117zM273 527v-106h116l20 20v66l-20 20h-116z" />
    <glyph glyph-name="C" unicode="C" horiz-adv-x="558" 
d="M520 586v-165h-172v86l-20 20h-95l-24 -23v-308l25 -24h93l21 21v99h172v-174q-29 -30 -59 -59.5t-59 -58.5h-231l-134 134v437l129 129h241z" />
    <glyph glyph-name="D" unicode="D" horiz-adv-x="625" 
d="M588 150l-150 -150h-401v172h63v355h-63v173h405l146 -145v-405zM273 527v-355h106l36 36v284l-35 35h-107z" />
    <glyph glyph-name="E" unicode="E" horiz-adv-x="588" 
d="M551 474h-139v53h-140v-113h89v20h100v-169h-100v29h-89v-122h140v53h140v-225h-515v172h63v355h-63v173h514v-226z" />
    <glyph glyph-name="F" unicode="F" horiz-adv-x="572" 
d="M551 470h-139v57h-140v-121h96v21h100v-167h-100v27h-96v-115h80v-172h-315v172h63v355h-63v173h514v-230z" />
    <glyph glyph-name="G" unicode="G" horiz-adv-x="562" 
d="M528 448h-172v59l-20 20h-103l-24 -23v-308l25 -24h96l26 26v85h-78v108h250v-391h-164v55l-55 -55h-138l-134 134v437l129 129h248l114 -114v-138z" />
    <glyph glyph-name="H" unicode="H" horiz-adv-x="688" 
d="M650 527h-63v-355h63v-172h-274v172h38v119h-141v-119h38v-172h-274v172h63v355h-63v173h274v-173h-38v-105h141v105h-38v173h274v-173z" />
    <glyph glyph-name="I" unicode="I" horiz-adv-x="413" 
d="M355 527h-63v-355h63v-172h-298v172h63v355h-63v173h298v-173z" />
    <glyph glyph-name="J" unicode="J" horiz-adv-x="589" 
d="M579 527h-63v-393l-134 -134h-227l-118 118v206h172v-131l21 -21h89l25 24v331h-88v173h323v-173z" />
    <glyph glyph-name="K" unicode="K" horiz-adv-x="669" 
d="M646 527h-81l-94 -94l116 -261h59v-172h-277v172h41l-65 140l-66 -67v-73h41v-172h-283v172h63v355h-63v173h282v-173h-40v-136l130 136h-41v173h278v-173z" />
    <glyph glyph-name="L" unicode="L" 
d="M344 527h-71v-355h138v95h140v-267h-514v172h63v355h-63v173h307v-173z" />
    <glyph glyph-name="M" unicode="M" horiz-adv-x="802" 
d="M764 527h-62v-355h62v-172h-306v172h80v299l-105 -215h-65l-105 215v-299h80v-172h-306v172h63v355h-63v173h273l99 -215l100 215h255v-173z" />
    <glyph glyph-name="N" unicode="N" horiz-adv-x="684" 
d="M670 527h-63v-527h-168l-193 390v-218h38v-172h-247v172h63v355h-63v173h250l173 -374v201h-38v173h248v-173z" />
    <glyph glyph-name="O" unicode="O" 
d="M528 125l-127 -125h-238l-126 125v453l122 122h247l122 -122v-453zM334 527h-103l-22 -21v-311l23 -23h101l23 23v311z" />
    <glyph glyph-name="P" unicode="P" horiz-adv-x="609" 
d="M586 578v-196l-121 -121h-192v-90h80v-171h-316v172h63v355h-63v173h428zM392 527h-119v-113h119l22 22v70z" />
    <glyph glyph-name="Q" unicode="Q" horiz-adv-x="566" 
d="M529 125l-127 -125h-47v-98h-139v98h-53l-126 125v453l121 122h249l122 -122v-453zM231 527l-22 -22v-311l23 -22h101l22 22v311l-21 22h-103z" />
    <glyph glyph-name="R" unicode="R" horiz-adv-x="620" 
d="M583 586v-189l-83 -84l64 -141h44v-172h-252v172h32l-55 121h-60v-121h30v-172h-266v172h63v355h-63v173h433zM273 527v-114h118l20 20v74l-20 20h-118z" />
    <glyph glyph-name="S" unicode="S" horiz-adv-x="555" 
d="M515 586v-122h-173v43l-20 20h-96l-21 -20v-81l18 -17h201l97 -91v-200l-119 -118h-251l-118 118v126h172v-51l21 -21h101l21 21v87l-16 17h-200l-99 98v191l113 114h255z" />
    <glyph glyph-name="T" unicode="T" horiz-adv-x="607" 
d="M594 411h-139v127h-64v-366h71v-172h-315v172h71v366h-64v-127h-140v289h580v-289z" />
    <glyph glyph-name="U" unicode="U" horiz-adv-x="639" 
d="M623 527h-63v-418l-109 -109h-263l-110 109v418h-63v173h274v-173h-38v-332l22 -23h97l22 23v332h-38v173h269v-173z" />
    <glyph glyph-name="V" unicode="V" horiz-adv-x="646" 
d="M631 527h-57l-141 -527h-230l-133 527h-55v173h295v-173h-41l77 -305l73 305h-39v173h251v-173z" />
    <glyph glyph-name="W" unicode="W" horiz-adv-x="955" 
d="M940 527h-52l-120 -527h-217l-69 309l-73 -309h-231l-112 527h-51v173h280v-173h-38l68 -305l69 305h-39v173h301v-173h-41l72 -305l64 305h-35v173h224v-173z" />
    <glyph glyph-name="X" unicode="X" horiz-adv-x="615" 
d="M596 527h-46l-134 -187l121 -168h63v-172h-314v172h47l-75 112l-69 -112h40v-172h-214v172h44l139 194l-111 161h-69v173h308v-173h-45l73 -106l66 106h-36v173h212v-173z" />
    <glyph glyph-name="Y" unicode="Y" horiz-adv-x="590" 
d="M575 527h-53l-141 -227v-128h71v-172h-315v172h71v127l-142 228h-51v173h269v-173h-34l64 -117l65 117h-35v173h231v-173z" />
    <glyph glyph-name="Z" unicode="Z" horiz-adv-x="539" 
d="M515 558l-259 -394h122v85h140v-249h-500v140l258 396h-117v-87h-140v251h496v-142z" />
    <glyph glyph-name="bracketleft" unicode="[" horiz-adv-x="258" 
d="M220 745h-94v-790h94v-55h-183v900h183v-55z" />
    <glyph glyph-name="backslash" unicode="\" horiz-adv-x="280" 
d="M304 -82h-94l-216 806h94z" />
    <glyph glyph-name="bracketright" unicode="]" horiz-adv-x="258" 
d="M220 -100h-183v55h94v790h-94v55h183v-900z" />
    <glyph glyph-name="asciicircum" unicode="^" horiz-adv-x="374" 
d="M336 495h-96l-54 112l-53 -112h-96l112 205h75z" />
    <glyph glyph-name="underscore" unicode="_" horiz-adv-x="483" 
d="M487 -80h-487v48h487v-48z" />
    <glyph glyph-name="grave" unicode="`" horiz-adv-x="328" 
d="M320 775l-253 72v67l253 -72v-67z" />
    <glyph glyph-name="a" unicode="a" horiz-adv-x="646" 
d="M559 172h72v-172h-296v172h44l-15 62h-126l-14 -62h41v-172h-250v172h64l129 528h239zM256 324h88l-45 187z" />
    <glyph glyph-name="b" unicode="b" horiz-adv-x="620" 
d="M579 418l-55 -54l58 -58v-188l-118 -118h-427v172h63v355h-63v173h428l114 -114v-168zM273 299v-127h116l21 21v86l-20 20h-117zM273 527v-106h116l20 20v66l-20 20h-116z" />
    <glyph glyph-name="c" unicode="c" horiz-adv-x="558" 
d="M520 586v-165h-172v86l-20 20h-95l-24 -23v-308l25 -24h93l21 21v99h172v-174q-29 -30 -59 -59.5t-59 -58.5h-231l-134 134v437l129 129h241z" />
    <glyph glyph-name="d" unicode="d" horiz-adv-x="625" 
d="M588 150l-150 -150h-401v172h63v355h-63v173h405l146 -145v-405zM273 527v-355h106l36 36v284l-35 35h-107z" />
    <glyph glyph-name="e" unicode="e" horiz-adv-x="588" 
d="M551 474h-139v53h-140v-113h89v20h100v-169h-100v29h-89v-122h140v53h140v-225h-515v172h63v355h-63v173h514v-226z" />
    <glyph glyph-name="f" unicode="f" horiz-adv-x="572" 
d="M551 470h-139v57h-140v-121h96v21h100v-167h-100v27h-96v-115h80v-172h-315v172h63v355h-63v173h514v-230z" />
    <glyph glyph-name="g" unicode="g" horiz-adv-x="562" 
d="M528 448h-172v59l-20 20h-103l-24 -23v-308l25 -24h96l26 26v85h-78v108h250v-391h-164v55l-55 -55h-138l-134 134v437l129 129h248l114 -114v-138z" />
    <glyph glyph-name="h" unicode="h" horiz-adv-x="688" 
d="M650 527h-63v-355h63v-172h-274v172h38v119h-141v-119h38v-172h-274v172h63v355h-63v173h274v-173h-38v-105h141v105h-38v173h274v-173z" />
    <glyph glyph-name="i" unicode="i" horiz-adv-x="413" 
d="M355 527h-63v-355h63v-172h-298v172h63v355h-63v173h298v-173z" />
    <glyph glyph-name="j" unicode="j" horiz-adv-x="589" 
d="M579 527h-63v-393l-134 -134h-227l-118 118v206h172v-131l21 -21h89l25 24v331h-88v173h323v-173z" />
    <glyph glyph-name="k" unicode="k" horiz-adv-x="669" 
d="M646 527h-81l-94 -94l116 -261h59v-172h-277v172h41l-65 140l-66 -67v-73h41v-172h-283v172h63v355h-63v173h282v-173h-40v-136l130 136h-41v173h278v-173z" />
    <glyph glyph-name="l" unicode="l" 
d="M344 527h-71v-355h138v95h140v-267h-514v172h63v355h-63v173h307v-173z" />
    <glyph glyph-name="m" unicode="m" horiz-adv-x="802" 
d="M764 527h-62v-355h62v-172h-306v172h80v299l-105 -215h-65l-105 215v-299h80v-172h-306v172h63v355h-63v173h273l99 -215l100 215h255v-173z" />
    <glyph glyph-name="n" unicode="n" horiz-adv-x="684" 
d="M670 527h-63v-527h-168l-193 390v-218h38v-172h-247v172h63v355h-63v173h250l173 -374v201h-38v173h248v-173z" />
    <glyph glyph-name="o" unicode="o" 
d="M528 125l-127 -125h-238l-126 125v453l122 122h247l122 -122v-453zM334 527h-103l-22 -21v-311l23 -23h101l23 23v311z" />
    <glyph glyph-name="p" unicode="p" horiz-adv-x="609" 
d="M586 578v-196l-121 -121h-192v-90h80v-171h-316v172h63v355h-63v173h428zM392 527h-119v-113h119l22 22v70z" />
    <glyph glyph-name="q" unicode="q" horiz-adv-x="566" 
d="M529 125l-127 -125h-47v-98h-139v98h-53l-126 125v453l121 122h249l122 -122v-453zM231 527l-22 -22v-311l23 -22h101l22 22v311l-21 22h-103z" />
    <glyph glyph-name="r" unicode="r" horiz-adv-x="620" 
d="M583 586v-189l-83 -84l64 -141h44v-172h-252v172h32l-55 121h-60v-121h30v-172h-266v172h63v355h-63v173h433zM273 527v-114h118l20 20v74l-20 20h-118z" />
    <glyph glyph-name="s" unicode="s" horiz-adv-x="555" 
d="M515 586v-122h-173v43l-20 20h-96l-21 -20v-81l18 -17h201l97 -91v-200l-119 -118h-251l-118 118v126h172v-51l21 -21h101l21 21v87l-16 17h-200l-99 98v191l113 114h255z" />
    <glyph glyph-name="t" unicode="t" horiz-adv-x="607" 
d="M594 411h-139v127h-64v-366h71v-172h-315v172h71v366h-64v-127h-140v289h580v-289z" />
    <glyph glyph-name="u" unicode="u" horiz-adv-x="639" 
d="M623 527h-63v-418l-109 -109h-263l-110 109v418h-63v173h274v-173h-38v-332l22 -23h97l22 23v332h-38v173h269v-173z" />
    <glyph glyph-name="v" unicode="v" horiz-adv-x="646" 
d="M631 527h-57l-141 -527h-230l-133 527h-55v173h295v-173h-41l77 -305l73 305h-39v173h251v-173z" />
    <glyph glyph-name="w" unicode="w" horiz-adv-x="955" 
d="M940 527h-52l-120 -527h-217l-69 309l-73 -309h-231l-112 527h-51v173h280v-173h-38l68 -305l69 305h-39v173h301v-173h-41l72 -305l64 305h-35v173h224v-173z" />
    <glyph glyph-name="x" unicode="x" horiz-adv-x="615" 
d="M596 527h-46l-134 -187l121 -168h63v-172h-314v172h47l-75 112l-69 -112h40v-172h-214v172h44l139 194l-111 161h-69v173h308v-173h-45l73 -106l66 106h-36v173h212v-173z" />
    <glyph glyph-name="y" unicode="y" horiz-adv-x="590" 
d="M575 527h-53l-141 -227v-128h71v-172h-315v172h71v127l-142 228h-51v173h269v-173h-34l64 -117l65 117h-35v173h231v-173z" />
    <glyph glyph-name="z" unicode="z" horiz-adv-x="539" 
d="M515 558l-259 -394h122v85h140v-249h-500v140l258 396h-117v-87h-140v251h496v-142z" />
    <glyph glyph-name="braceleft" unicode="{" horiz-adv-x="351" 
d="M313 745h-78l-34 -34v-306l-49 -55l49 -54v-308l34 -33h78v-55h-104l-97 96v289l-19 31h-56v69h56l19 30v288l97 97h104v-55z" />
    <glyph glyph-name="bar" unicode="|" horiz-adv-x="164" 
d="M126 -95h-89v819h89v-819z" />
    <glyph glyph-name="braceright" unicode="}" horiz-adv-x="351" 
d="M238 415l19 -30h56v-69h-56l-19 -31v-289l-97 -96h-104v55h79l33 33v308l50 54l-50 55v306l-33 34h-79v55h104l97 -97v-288z" />
    <glyph glyph-name="asciitilde" unicode="~" horiz-adv-x="379" 
d="M343 304q-26 -44 -72 -44q-17 0 -38.5 11t-44 24t-44 24t-38.5 11q-39 0 -66 -47v105q22 42 70 42q21 0 41.5 -11t41.5 -24t42 -24t44 -11q37 0 64 44v-100z" />
    <glyph glyph-name="nonbreakingspace" unicode="&#xa0;" horiz-adv-x="320" 
 />
    <glyph glyph-name="exclamdown" unicode="&#xa1;" horiz-adv-x="278" 
d="M234 0h-190l26 475h137zM209 549h-141v151h141v-151z" />
    <glyph glyph-name="cent" unicode="&#xa2;" horiz-adv-x="468" 
d="M430 551v-133h-135v68l-15 15h-87l-15 -15v-256l16 -16h86l16 16v83h134v-145l-95 -95h-64v-73h-69v73h-59l-106 105v363l102 102h63v57h69v-57h68z" />
    <glyph glyph-name="sterling" unicode="&#xa3;" horiz-adv-x="586" 
d="M524 602v-145h-150v92l-16 17h-68l-17 -17v-146h183v-94h-183v-137h136v76h140v-248h-512v172h63v137h-63v94h63v199l98 98h229z" />
    <glyph glyph-name="yen" unicode="&#xa5;" horiz-adv-x="647" 
d="M409 351v-15h159v-76h-159v-100h159v-77h-159v-83h-173v83h-154v77h154v100h-154v76h154v15l-199 349h190l107 -213l106 213h169z" />
    <glyph glyph-name="section" unicode="&#xa7;" horiz-adv-x="555" 
d="M515 586v-122h-173v43l-20 20h-96l-21 -20v-81l18 -17h201l97 -91v-134l-47 -47l47 -44v-200l-119 -118h-251l-118 118v126h172v-51l21 -21h101l21 21v87l-16 17h-200l-99 98v125l50 50l-50 50v191l113 114h255zM223 184h104l21 21v75l-16 17h-114l-13 -12v-84z" />
    <glyph glyph-name="dieresis" unicode="&#xa8;" horiz-adv-x="412" 
d="M374 787h-116v118h116v-118zM154 787h-117v118h117v-118z" />
    <glyph glyph-name="copyright" unicode="&#xa9;" horiz-adv-x="617" 
d="M580 109l-110 -109h-324l-109 109v487q53 51 104 104h335q51 -53 104 -104v-487zM452 640h-288l-67 -67v-442l72 -72h279l72 72v442zM447 491v-94h-59v71l-29 28h-97l-30 -28v-232l35 -32h87l34 32v75h59v-96l-70 -72h-132l-73 72v276l66 65h145z" />
    <glyph glyph-name="ordfeminine" unicode="&#xaa;" horiz-adv-x="321" 
d="M284 390l-59 -60h-128l-60 60v111l46 46h143v77l-19 18h-87l-18 -18v-33h-58v55l54 54h132l54 -54v-256zM105 488l-10 -10v-68l23 -24h85l23 24v78h-121z" />
    <glyph glyph-name="guillemotleft" unicode="&#xab;" horiz-adv-x="347" 
d="M98 373l77 -122h-86l-74 122l74 122h86zM255 373l77 -122h-86l-75 122l75 122h86z" />
    <glyph glyph-name="logicalnot" unicode="&#xac;" horiz-adv-x="444" 
d="M406 61h-82v244h-287v82h369v-326z" />
    <glyph glyph-name="registered" unicode="&#xae;" horiz-adv-x="553" 
d="M515 596v-338l-107 -108h-263l-108 108v338l102 104h275zM162 640l-67 -66v-295l72 -70h219l71 70v295l-66 66h-229zM389 444l-51 -47h-14l37 -70h41v-58h-120v58h12l-32 68h-15v-68h13v-58h-104v58h32v207h-32v59h183l50 -48v-101zM317 534h-70v-80h70l13 13v55z" />
    <glyph glyph-name="macron" unicode="&#xaf;" horiz-adv-x="356" 
d="M319 801h-282v94h282v-94z" />
    <glyph glyph-name="degree" unicode="&#xb0;" horiz-adv-x="297" 
d="M259 662v-124l-38 -38h-146l-38 38v124l37 38h148zM105 645l-13 -14v-62l14 -14h84l14 14v62l-13 14h-86z" />
    <glyph glyph-name="plusminus" unicode="&#xb1;" horiz-adv-x="447" 
d="M406 379h-144v-144h-82v144h-143v82h143v143h82v-143h144v-82zM395 85h-370v82h370v-82z" />
    <glyph glyph-name="acute" unicode="&#xb4;" horiz-adv-x="328" 
d="M260 847l-253 -72v67l253 72v-67z" />
    <glyph glyph-name="mu" unicode="&#xb5;" horiz-adv-x="639" 
d="M251 195l22 -23h97l22 23v141h-38v173h269v-173h-63v-227l-109 -109h-200v-53h63v-172h-298v172h62v389h-63v173h274v-173h-38v-141z" />
    <glyph glyph-name="paragraph" unicode="&#xb6;" horiz-adv-x="695" 
d="M108 700h560v-119h-88v-677h-119v677h-101v-677h-119v493h-133l-83 84v135z" />
    <glyph glyph-name="periodcentered" unicode="&#xb7;" horiz-adv-x="258" 
d="M201 279h-142v151h142v-151z" />
    <glyph glyph-name="cedilla" unicode="&#xb8;" horiz-adv-x="192" 
d="M107 -148h-70l26 128h92z" />
    <glyph glyph-name="ordmasculine" unicode="&#xba;" horiz-adv-x="308" 
d="M271 389l-60 -59h-115l-59 59v257l53 54h127l54 -54v-257zM195 642h-81l-20 -18v-214l24 -24h72l24 24v214z" />
    <glyph glyph-name="guillemotright" unicode="&#xbb;" horiz-adv-x="347" 
d="M175 373l-74 -122h-86l77 122l-77 122h86zM332 373l-75 -122h-86l78 122l-78 122h86z" />
    <glyph glyph-name="questiondown" unicode="&#xbf;" horiz-adv-x="533" 
d="M345 374l-137 -137v-54l20 -20h96l20 20v42h154v-112l-114 -113h-235l-113 113v145l170 172v60h139v-116zM346 549h-142v151h142v-151z" />
    <glyph glyph-name="Agrave" unicode="&#xc0;" horiz-adv-x="646" 
d="M559 172h72v-172h-296v172h44l-15 62h-126l-14 -62h41v-172h-250v172h64l129 528h239zM256 324h88l-45 187zM446 775l-253 72v67l253 -72v-67z" />
    <glyph glyph-name="Aacute" unicode="&#xc1;" horiz-adv-x="646" 
d="M559 172h72v-172h-296v172h44l-15 62h-126l-14 -62h41v-172h-250v172h64l129 528h239zM256 324h88l-45 187zM446 847l-253 -72v67l253 72v-67z" />
    <glyph glyph-name="Acircumflex" unicode="&#xc2;" horiz-adv-x="646" 
d="M559 172h72v-172h-296v172h44l-15 62h-126l-14 -62h41v-172h-250v172h64l129 528h239zM256 324h88l-45 187zM477 770h-90l-66 91l-69 -91h-90l121 150h76z" />
    <glyph glyph-name="Atilde" unicode="&#xc3;" horiz-adv-x="646" 
d="M559 172h72v-172h-296v172h44l-15 62h-126l-14 -62h41v-172h-250v172h64l129 528h239zM256 324h88l-45 187zM445 811q-12 -12 -26.5 -19t-34.5 -7t-37.5 7.5t-33 16.5t-31.5 16.5t-33 7.5q-16 0 -29 -8.5t-27 -24.5v87q11 12 25.5 19t34.5 7q21 0 37.5 -7.5t32 -16.5
t31 -16.5t35.5 -7.5q31 0 56 33v-87z" />
    <glyph glyph-name="Adieresis" unicode="&#xc4;" horiz-adv-x="646" 
d="M559 172h72v-172h-296v172h44l-15 62h-126l-14 -62h41v-172h-250v172h64l129 528h239zM256 324h88l-45 187zM491 787h-116v118h116v-118zM271 787h-117v118h117v-118z" />
    <glyph glyph-name="Aring" unicode="&#xc5;" horiz-adv-x="646" 
d="M559 172h72v-172h-296v172h44l-15 62h-126l-14 -62h41v-172h-250v172h64l129 528h239zM256 324h88l-45 187zM404 805l-35 -35h-93l-35 35v81l34 34h95l34 -34v-81zM303 865l-7 -7v-26l8 -7h37l8 7v26l-7 7h-39z" />
    <glyph glyph-name="AE" unicode="&#xc6;" horiz-adv-x="857" 
d="M819 474h-140v53h-136v-113h89v20h100v-169h-100v29h-89v-122h137v53h140v-225h-492v172h43v61h-136q-3 -15 -6 -30.5t-7 -30.5h50v-172h-254v172h63l110 528h628v-226zM293 527l-41 -203h119v203h-78z" />
    <glyph glyph-name="Ccedilla" unicode="&#xc7;" horiz-adv-x="558" 
d="M520 586v-165h-172v86l-20 20h-95l-24 -23v-308l25 -24h93l21 21v99h172v-174q-29 -30 -59 -59.5t-59 -58.5h-231l-134 134v437l129 129h241zM289 -148h-70l26 128h92z" />
    <glyph glyph-name="Egrave" unicode="&#xc8;" horiz-adv-x="588" 
d="M551 474h-139v53h-140v-113h89v20h100v-169h-100v29h-89v-122h140v53h140v-225h-515v172h63v355h-63v173h514v-226zM420 775l-253 72v67l253 -72v-67z" />
    <glyph glyph-name="Eacute" unicode="&#xc9;" horiz-adv-x="588" 
d="M551 474h-139v53h-140v-113h89v20h100v-169h-100v29h-89v-122h140v53h140v-225h-515v172h63v355h-63v173h514v-226zM420 847l-253 -72v67l253 72v-67z" />
    <glyph glyph-name="Ecircumflex" unicode="&#xca;" horiz-adv-x="588" 
d="M551 474h-139v53h-140v-113h89v20h100v-169h-100v29h-89v-122h140v53h140v-225h-515v172h63v355h-63v173h514v-226zM450 770h-90l-66 91l-69 -91h-90l121 150h76z" />
    <glyph glyph-name="Edieresis" unicode="&#xcb;" horiz-adv-x="588" 
d="M551 474h-139v53h-140v-113h89v20h100v-169h-100v29h-89v-122h140v53h140v-225h-515v172h63v355h-63v173h514v-226zM461 787h-116v118h116v-118zM241 787h-117v118h117v-118z" />
    <glyph glyph-name="Igrave" unicode="&#xcc;" horiz-adv-x="413" 
d="M355 527h-63v-355h63v-172h-298v172h63v355h-63v173h298v-173zM332 775l-253 72v67l253 -72v-67z" />
    <glyph glyph-name="Iacute" unicode="&#xcd;" horiz-adv-x="413" 
d="M355 527h-63v-355h63v-172h-298v172h63v355h-63v173h298v-173zM332 847l-253 -72v67l253 72v-67z" />
    <glyph glyph-name="Icircumflex" unicode="&#xce;" horiz-adv-x="413" 
d="M355 527h-63v-355h63v-172h-298v172h63v355h-63v173h298v-173zM363 770h-90l-66 91l-69 -91h-90l121 150h76z" />
    <glyph glyph-name="Idieresis" unicode="&#xcf;" horiz-adv-x="413" 
d="M355 527h-63v-355h63v-172h-298v172h63v355h-63v173h298v-173zM374 787h-116v118h116v-118zM154 787h-117v118h117v-118z" />
    <glyph glyph-name="Ntilde" unicode="&#xd1;" horiz-adv-x="684" 
d="M670 527h-63v-527h-168l-193 390v-218h38v-172h-247v172h63v355h-63v173h250l173 -374v201h-38v173h248v-173zM467 811q-12 -12 -26.5 -19t-34.5 -7t-37.5 7.5t-33 16.5t-31.5 16.5t-33 7.5q-16 0 -29 -8.5t-27 -24.5v87q11 12 25.5 19t34.5 7q21 0 37.5 -7.5t32 -16.5
t31 -16.5t35.5 -7.5q31 0 56 33v-87z" />
    <glyph glyph-name="Ograve" unicode="&#xd2;" 
d="M528 125l-127 -125h-238l-126 125v453l122 122h247l122 -122v-453zM334 527h-103l-22 -21v-311l23 -23h101l23 23v311zM408 775l-253 72v67l253 -72v-67z" />
    <glyph glyph-name="Oacute" unicode="&#xd3;" 
d="M528 125l-127 -125h-238l-126 125v453l122 122h247l122 -122v-453zM334 527h-103l-22 -21v-311l23 -23h101l23 23v311zM408 847l-253 -72v67l253 72v-67z" />
    <glyph glyph-name="Ocircumflex" unicode="&#xd4;" 
d="M528 125l-127 -125h-238l-126 125v453l122 122h247l122 -122v-453zM334 527h-103l-22 -21v-311l23 -23h101l23 23v311zM439 770h-90l-66 91l-69 -91h-90l121 150h76z" />
    <glyph glyph-name="Otilde" unicode="&#xd5;" 
d="M528 125l-127 -125h-238l-126 125v453l122 122h247l122 -122v-453zM334 527h-103l-22 -21v-311l23 -23h101l23 23v311zM408 811q-12 -12 -26.5 -19t-34.5 -7t-37.5 7.5t-33 16.5t-31.5 16.5t-33 7.5q-16 0 -29 -8.5t-27 -24.5v87q11 12 25.5 19t34.5 7q21 0 37.5 -7.5
t32 -16.5t31 -16.5t35.5 -7.5q31 0 56 33v-87z" />
    <glyph glyph-name="Odieresis" unicode="&#xd6;" 
d="M528 125l-127 -125h-238l-126 125v453l122 122h247l122 -122v-453zM334 527h-103l-22 -21v-311l23 -23h101l23 23v311zM450 787h-116v118h116v-118zM230 787h-117v118h117v-118z" />
    <glyph glyph-name="Oslash" unicode="&#xd8;" 
d="M407 699l121 -121v-453q-32 -31 -63.5 -62.5t-63.5 -62.5h-187l-12 -43l-50 13l9 32l-124 123v453l122 122h195l12 42l49 -13zM231 527l-22 -21v-330l97 351h-75zM261 172h72l23 23v320z" />
    <glyph glyph-name="Ugrave" unicode="&#xd9;" horiz-adv-x="639" 
d="M623 527h-63v-418l-109 -109h-263l-110 109v418h-63v173h274v-173h-38v-332l22 -23h97l22 23v332h-38v173h269v-173zM438 775l-253 72v67l253 -72v-67z" />
    <glyph glyph-name="Uacute" unicode="&#xda;" horiz-adv-x="639" 
d="M623 527h-63v-418l-109 -109h-263l-110 109v418h-63v173h274v-173h-38v-332l22 -23h97l22 23v332h-38v173h269v-173zM438 847l-253 -72v67l253 72v-67z" />
    <glyph glyph-name="Ucircumflex" unicode="&#xdb;" horiz-adv-x="639" 
d="M623 527h-63v-418l-109 -109h-263l-110 109v418h-63v173h274v-173h-38v-332l22 -23h97l22 23v332h-38v173h269v-173zM469 770h-90l-66 91l-69 -91h-90l121 150h76z" />
    <glyph glyph-name="Udieresis" unicode="&#xdc;" horiz-adv-x="639" 
d="M623 527h-63v-418l-109 -109h-263l-110 109v418h-63v173h274v-173h-38v-332l22 -23h97l22 23v332h-38v173h269v-173zM480 787h-116v118h116v-118zM260 787h-117v118h117v-118z" />
    <glyph glyph-name="germandbls" unicode="&#xdf;" horiz-adv-x="1111" 
d="M1070 586v-122h-173v43l-20 20h-96l-21 -20v-81l18 -17h201l97 -91v-200l-119 -118h-251l-118 118v126h172v-51l21 -21h101l21 21v87l-16 17h-200l-99 98v191l113 114h255zM515 586v-122h-173v43l-20 20h-96l-21 -20v-81l18 -17h201l97 -91v-200l-119 -118h-251l-118 118
v126h172v-51l21 -21h101l21 21v87l-16 17h-200l-99 98v191l113 114h255z" />
    <glyph glyph-name="agrave" unicode="&#xe0;" horiz-adv-x="646" 
d="M559 172h72v-172h-296v172h44l-15 62h-126l-14 -62h41v-172h-250v172h64l129 528h239zM256 324h88l-45 187zM446 775l-253 72v67l253 -72v-67z" />
    <glyph glyph-name="aacute" unicode="&#xe1;" horiz-adv-x="646" 
d="M559 172h72v-172h-296v172h44l-15 62h-126l-14 -62h41v-172h-250v172h64l129 528h239zM256 324h88l-45 187zM446 847l-253 -72v67l253 72v-67z" />
    <glyph glyph-name="acircumflex" unicode="&#xe2;" horiz-adv-x="646" 
d="M559 172h72v-172h-296v172h44l-15 62h-126l-14 -62h41v-172h-250v172h64l129 528h239zM256 324h88l-45 187zM477 770h-90l-66 91l-69 -91h-90l121 150h76z" />
    <glyph glyph-name="atilde" unicode="&#xe3;" horiz-adv-x="646" 
d="M559 172h72v-172h-296v172h44l-15 62h-126l-14 -62h41v-172h-250v172h64l129 528h239zM256 324h88l-45 187zM445 811q-12 -12 -26.5 -19t-34.5 -7t-37.5 7.5t-33 16.5t-31.5 16.5t-33 7.5q-16 0 -29 -8.5t-27 -24.5v87q11 12 25.5 19t34.5 7q21 0 37.5 -7.5t32 -16.5
t31 -16.5t35.5 -7.5q31 0 56 33v-87z" />
    <glyph glyph-name="adieresis" unicode="&#xe4;" horiz-adv-x="646" 
d="M559 172h72v-172h-296v172h44l-15 62h-126l-14 -62h41v-172h-250v172h64l129 528h239zM256 324h88l-45 187zM488 787h-116v118h116v-118zM268 787h-117v118h117v-118z" />
    <glyph glyph-name="aring" unicode="&#xe5;" horiz-adv-x="646" 
d="M559 172h72v-172h-296v172h44l-15 62h-126l-14 -62h41v-172h-250v172h64l129 528h239zM256 324h88l-45 187zM401 805l-35 -35h-93l-35 35v81l34 34h95l34 -34v-81zM300 865l-7 -7v-26l8 -7h37l8 7v26l-7 7h-39z" />
    <glyph glyph-name="ae" unicode="&#xe6;" horiz-adv-x="857" 
d="M819 474h-140v53h-136v-113h89v20h100v-169h-100v29h-89v-122h137v53h140v-225h-492v172h43v61h-136q-3 -15 -6 -30.5t-7 -30.5h50v-172h-254v172h63l110 528h628v-226zM293 527l-41 -203h119v203h-78z" />
    <glyph glyph-name="ccedilla" unicode="&#xe7;" horiz-adv-x="558" 
d="M520 586v-165h-172v86l-20 20h-95l-24 -23v-308l25 -24h93l21 21v99h172v-174q-29 -30 -59 -59.5t-59 -58.5h-231l-134 134v437l129 129h241zM289 -148h-70l26 128h92z" />
    <glyph glyph-name="egrave" unicode="&#xe8;" horiz-adv-x="588" 
d="M551 474h-139v53h-140v-113h89v20h100v-169h-100v29h-89v-122h140v53h140v-225h-515v172h63v355h-63v173h514v-226zM420 775l-253 72v67l253 -72v-67z" />
    <glyph glyph-name="eacute" unicode="&#xe9;" horiz-adv-x="588" 
d="M551 474h-139v53h-140v-113h89v20h100v-169h-100v29h-89v-122h140v53h140v-225h-515v172h63v355h-63v173h514v-226zM420 847l-253 -72v67l253 72v-67z" />
    <glyph glyph-name="ecircumflex" unicode="&#xea;" horiz-adv-x="588" 
d="M551 474h-139v53h-140v-113h89v20h100v-169h-100v29h-89v-122h140v53h140v-225h-515v172h63v355h-63v173h514v-226zM450 770h-90l-66 91l-69 -91h-90l121 150h76z" />
    <glyph glyph-name="edieresis" unicode="&#xeb;" horiz-adv-x="588" 
d="M551 474h-139v53h-140v-113h89v20h100v-169h-100v29h-89v-122h140v53h140v-225h-515v172h63v355h-63v173h514v-226zM461 787h-116v118h116v-118zM241 787h-117v118h117v-118z" />
    <glyph glyph-name="igrave" unicode="&#xec;" horiz-adv-x="413" 
d="M355 527h-63v-355h63v-172h-298v172h63v355h-63v173h298v-173zM332 775l-253 72v67l253 -72v-67z" />
    <glyph glyph-name="iacute" unicode="&#xed;" horiz-adv-x="413" 
d="M355 527h-63v-355h63v-172h-298v172h63v355h-63v173h298v-173zM332 847l-253 -72v67l253 72v-67z" />
    <glyph glyph-name="icircumflex" unicode="&#xee;" horiz-adv-x="413" 
d="M355 527h-63v-355h63v-172h-298v172h63v355h-63v173h298v-173zM363 770h-90l-66 91l-69 -91h-90l121 150h76z" />
    <glyph glyph-name="idieresis" unicode="&#xef;" horiz-adv-x="413" 
d="M355 527h-63v-355h63v-172h-298v172h63v355h-63v173h298v-173zM374 787h-116v118h116v-118zM154 787h-117v118h117v-118z" />
    <glyph glyph-name="ntilde" unicode="&#xf1;" horiz-adv-x="684" 
d="M670 527h-63v-527h-168l-193 390v-218h38v-172h-247v172h63v355h-63v173h250l173 -374v201h-38v173h248v-173zM467 811q-12 -12 -26.5 -19t-34.5 -7t-37.5 7.5t-33 16.5t-31.5 16.5t-33 7.5q-16 0 -29 -8.5t-27 -24.5v87q11 12 25.5 19t34.5 7q21 0 37.5 -7.5t32 -16.5
t31 -16.5t35.5 -7.5q31 0 56 33v-87z" />
    <glyph glyph-name="ograve" unicode="&#xf2;" 
d="M528 125l-127 -125h-238l-126 125v453l122 122h247l122 -122v-453zM334 527h-103l-22 -21v-311l23 -23h101l23 23v311zM408 775l-253 72v67l253 -72v-67z" />
    <glyph glyph-name="oacute" unicode="&#xf3;" 
d="M528 125l-127 -125h-238l-126 125v453l122 122h247l122 -122v-453zM334 527h-103l-22 -21v-311l23 -23h101l23 23v311zM408 847l-253 -72v67l253 72v-67z" />
    <glyph glyph-name="ocircumflex" unicode="&#xf4;" 
d="M528 125l-127 -125h-238l-126 125v453l122 122h247l122 -122v-453zM334 527h-103l-22 -21v-311l23 -23h101l23 23v311zM439 770h-90l-66 91l-69 -91h-90l121 150h76z" />
    <glyph glyph-name="otilde" unicode="&#xf5;" 
d="M528 125l-127 -125h-238l-126 125v453l122 122h247l122 -122v-453zM334 527h-103l-22 -21v-311l23 -23h101l23 23v311zM408 811q-12 -12 -26.5 -19t-34.5 -7t-37.5 7.5t-33 16.5t-31.5 16.5t-33 7.5q-16 0 -29 -8.5t-27 -24.5v87q11 12 25.5 19t34.5 7q21 0 37.5 -7.5
t32 -16.5t31 -16.5t35.5 -7.5q31 0 56 33v-87z" />
    <glyph glyph-name="odieresis" unicode="&#xf6;" 
d="M528 125l-127 -125h-238l-126 125v453l122 122h247l122 -122v-453zM334 527h-103l-22 -21v-311l23 -23h101l23 23v311zM450 787h-116v118h116v-118zM230 787h-117v118h117v-118z" />
    <glyph glyph-name="divide" unicode="&#xf7;" horiz-adv-x="430" 
d="M400 305h-370v82h370v-82zM276 477h-112v121h112v-121zM276 92h-112v122h112v-122z" />
    <glyph glyph-name="oslash" unicode="&#xf8;" 
d="M407 699l121 -121v-453q-32 -31 -63.5 -62.5t-63.5 -62.5h-187l-12 -43l-50 13l9 32l-124 123v453l122 122h195l12 42l49 -13zM231 527l-22 -21v-330l97 351h-75zM261 172h72l23 23v320z" />
    <glyph glyph-name="ugrave" unicode="&#xf9;" horiz-adv-x="639" 
d="M623 527h-63v-418l-109 -109h-263l-110 109v418h-63v173h274v-173h-38v-332l22 -23h97l22 23v332h-38v173h269v-173zM438 775l-253 72v67l253 -72v-67z" />
    <glyph glyph-name="uacute" unicode="&#xfa;" horiz-adv-x="639" 
d="M623 527h-63v-418l-109 -109h-263l-110 109v418h-63v173h274v-173h-38v-332l22 -23h97l22 23v332h-38v173h269v-173zM438 847l-253 -72v67l253 72v-67z" />
    <glyph glyph-name="ucircumflex" unicode="&#xfb;" horiz-adv-x="639" 
d="M623 527h-63v-418l-109 -109h-263l-110 109v418h-63v173h274v-173h-38v-332l22 -23h97l22 23v332h-38v173h269v-173zM469 770h-90l-66 91l-69 -91h-90l121 150h76z" />
    <glyph glyph-name="udieresis" unicode="&#xfc;" horiz-adv-x="639" 
d="M623 527h-63v-418l-109 -109h-263l-110 109v418h-63v173h274v-173h-38v-332l22 -23h97l22 23v332h-38v173h269v-173zM480 787h-116v118h116v-118zM260 787h-117v118h117v-118z" />
    <glyph glyph-name="ydieresis" unicode="&#xff;" horiz-adv-x="590" 
d="M575 527h-53l-141 -227v-128h71v-172h-315v172h71v127l-142 228h-51v173h269v-173h-34l64 -117l65 117h-35v173h231v-173zM463 787h-116v118h116v-118zM243 787h-117v118h117v-118z" />
    <glyph glyph-name="dotlessi" unicode="&#x131;" horiz-adv-x="413" 
d="M355 527h-63v-355h63v-172h-298v172h63v355h-63v173h298v-173z" />
    <glyph glyph-name="OE" unicode="&#x152;" horiz-adv-x="839" 
d="M800 474h-139v53h-137v-113h86v20h100v-169h-100v29h-86v-122h137v53h140v-225h-401v43l-44 -43h-193l-126 125v453l121 122h203l39 -40v40h400v-226zM231 527l-22 -22v-311l23 -22h98l22 22v311l-22 22h-99z" />
    <glyph glyph-name="oe" unicode="&#x153;" horiz-adv-x="839" 
d="M800 474h-139v53h-137v-113h86v20h100v-169h-100v29h-86v-122h137v53h140v-225h-401v43l-44 -43h-193l-126 125v453l121 122h203l39 -40v40h400v-226zM231 527l-22 -22v-311l23 -22h98l22 22v311l-22 22h-99z" />
    <glyph glyph-name="Ydieresis" unicode="&#x178;" horiz-adv-x="590" 
d="M575 527h-53l-141 -227v-128h71v-172h-315v172h71v127l-142 228h-51v173h269v-173h-34l64 -117l65 117h-35v173h231v-173zM463 787h-116v118h116v-118zM243 787h-117v118h117v-118z" />
    <glyph glyph-name="florin" unicode="&#x192;" horiz-adv-x="448" 
d="M119 -138h-111v138h78l19 16l51 289h-79v105h97l34 193l113 97h112v-138h-79l-19 -16l-24 -136h91v-105h-109l-61 -346z" />
    <glyph glyph-name="circumflex" unicode="&#x2c6;" horiz-adv-x="390" 
d="M352 770h-90l-66 91l-69 -91h-90l121 150h76z" />
    <glyph glyph-name="caron" unicode="&#x2c7;" horiz-adv-x="390" 
d="M232 770h-76l-119 150h90l67 -92l68 92h90z" />
    <glyph glyph-name="breve" unicode="&#x2d8;" horiz-adv-x="369" 
d="M332 920q0 -26 -10 -52.5t-29 -47.5t-46.5 -34t-62.5 -13t-62.5 13t-46 34t-28.5 47.5t-10 52.5h67q0 -33 21 -60t59 -27t58 27t20 60h70z" />
    <glyph glyph-name="dotaccent" unicode="&#x2d9;" horiz-adv-x="191" 
d="M154 787h-117v118h117v-118z" />
    <glyph glyph-name="ring" unicode="&#x2da;" horiz-adv-x="237" 
d="M200 805l-35 -35h-93l-35 35v81l34 34h95l34 -34v-81zM99 865l-7 -7v-26l8 -7h37l8 7v26l-7 7h-39z" />
    <glyph glyph-name="ogonek" unicode="&#x2db;" horiz-adv-x="242" 
d="M117 -65v-48l15 -15h72v-97h-140l-27 27v144l53 54h91z" />
    <glyph glyph-name="tilde" unicode="&#x2dc;" horiz-adv-x="327" 
d="M289 811q-12 -12 -26.5 -19t-34.5 -7t-37.5 7.5t-33 16.5t-31.5 16.5t-33 7.5q-16 0 -29 -8.5t-27 -24.5v87q11 12 25.5 19t34.5 7q21 0 37.5 -7.5t32 -16.5t31 -16.5t35.5 -7.5q31 0 56 33v-87z" />
    <glyph glyph-name="hungarumlaut" unicode="&#x2dd;" horiz-adv-x="465" 
d="M342 770h-84l111 150h84zM146 770h-84l111 150h84z" />
    <glyph glyph-name="dotbelowcomb" unicode="&#x323;" horiz-adv-x="191" 
d="M154 -225h-117v118h117v-118z" />
    <glyph glyph-name="commaaccent" unicode="&#x326;" horiz-adv-x="180" 
d="M143 -95l-62 -78l-58 9l18 80v42h102v-53z" />
    <glyph glyph-name="uni037E" unicode="&#x37e;" horiz-adv-x="238" 
d="M201 33l-130 -169l-56 24l44 172v86h142v-113zM199 332h-142v151h142v-151z" />
    <glyph glyph-name="u0384" unicode="&#x384;" horiz-adv-x="290" 
d="M260 700l-143 -198l-87 50l99 224z" />
    <glyph glyph-name="u03A9" unicode="&#x3a9;" horiz-adv-x="610" 
d="M232 506v-210l40 -101v-195h-252v172h115l-75 74v332l122 122h246l122 -122v-332l-75 -74h115v-172h-252v195l40 101v210l-22 21h-102z" />
    <glyph glyph-name="u03B1" unicode="&#x3b1;" horiz-adv-x="646" 
d="M559 172h72v-172h-296v172h44l-15 62h-126l-14 -62h41v-172h-250v172h64l129 528h239zM256 324h88l-45 187z" />
    <glyph glyph-name="u03B2" unicode="&#x3b2;" horiz-adv-x="620" 
d="M579 418l-55 -54l58 -58v-188l-118 -118h-427v172h63v355h-63v173h428l114 -114v-168zM273 299v-127h116l21 21v86l-20 20h-117zM273 527v-106h116l20 20v66l-20 20h-116z" />
    <glyph glyph-name="u03B3" unicode="&#x3b3;" horiz-adv-x="569" 
d="M551 411h-139v116h-140v-355h80v-172h-315v172h63v355h-63v173h514v-289z" />
    <glyph glyph-name="u03B4" unicode="&#x3b4;" horiz-adv-x="652" 
d="M18 173h57l141 527h230l133 -527h55v-173h-616v173zM230 173h150l-77 305z" />
    <glyph glyph-name="u03B5" unicode="&#x3b5;" horiz-adv-x="588" 
d="M551 474h-139v53h-140v-113h89v20h100v-169h-100v29h-89v-122h140v53h140v-225h-515v172h63v355h-63v173h514v-226z" />
    <glyph glyph-name="u03B6" unicode="&#x3b6;" horiz-adv-x="539" 
d="M515 558l-259 -394h122v85h140v-249h-500v140l258 396h-117v-87h-140v251h496v-142z" />
    <glyph glyph-name="u03B7" unicode="&#x3b7;" horiz-adv-x="688" 
d="M650 527h-63v-355h63v-172h-274v172h38v119h-141v-119h38v-172h-274v172h63v355h-63v173h274v-173h-38v-105h141v105h-38v173h274v-173z" />
    <glyph glyph-name="u03B8" unicode="&#x3b8;" 
d="M528 125l-127 -125h-238l-126 125v453l122 122h247l122 -122v-453zM334 527h-103l-22 -21v-311l23 -23h101l23 23v311zM235 422h95v-131h-95v131z" />
    <glyph glyph-name="u03B9" unicode="&#x3b9;" horiz-adv-x="413" 
d="M355 527h-63v-355h63v-172h-298v172h63v355h-63v173h298v-173z" />
    <glyph glyph-name="u03BA" unicode="&#x3ba;" horiz-adv-x="669" 
d="M646 527h-81l-94 -94l116 -261h59v-172h-277v172h41l-65 140l-66 -67v-73h41v-172h-283v172h63v355h-63v173h282v-173h-40v-136l130 136h-41v173h278v-173z" />
    <glyph glyph-name="u03BB" unicode="&#x3bb;" horiz-adv-x="646" 
d="M15 172h57l141 528h230l133 -528h55v-172h-295v172h41l-77 306l-73 -306h39v-172h-251v172z" />
    <glyph glyph-name="u03BC" unicode="&#x3bc;" horiz-adv-x="802" 
d="M764 527h-62v-355h62v-172h-306v172h80v299l-105 -215h-65l-105 215v-299h80v-172h-306v172h63v355h-63v173h273l99 -215l100 215h255v-173z" />
    <glyph glyph-name="u03BD" unicode="&#x3bd;" horiz-adv-x="684" 
d="M670 527h-63v-527h-168l-193 390v-218h38v-172h-247v172h63v355h-63v173h250l173 -374v201h-38v173h248v-173z" />
    <glyph glyph-name="u03BE" unicode="&#x3be;" horiz-adv-x="587" 
d="M176 172h235v83h140v-255h-515v255h140v-83zM176 527v-73h-140v246h514v-246h-139v73h-235zM196 422h195v-131h-195v131z" />
    <glyph glyph-name="u03BF" unicode="&#x3bf;" 
d="M528 125l-127 -125h-238l-126 125v453l122 122h247l122 -122v-453zM334 527h-103l-22 -21v-311l23 -23h101l23 23v311z" />
    <glyph glyph-name="u03C1" unicode="&#x3c1;" horiz-adv-x="609" 
d="M586 578v-196l-121 -121h-192v-90h80v-171h-316v172h63v355h-63v173h428zM392 527h-119v-113h119l22 22v70z" />
    <glyph glyph-name="u03C2" unicode="&#x3c2;" horiz-adv-x="587" 
d="M550 449h-139v87h-140l98 -167v-40l-98 -165h140v85h140v-249h-515v122l128 227l-128 228v123h514v-251z" />
    <glyph glyph-name="u03C3" unicode="&#x3c3;" horiz-adv-x="587" 
d="M550 449h-139v87h-140l98 -167v-40l-98 -165h140v85h140v-249h-515v122l128 227l-128 228v123h514v-251z" />
    <glyph glyph-name="u03C4" unicode="&#x3c4;" horiz-adv-x="607" 
d="M594 411h-139v127h-64v-366h71v-172h-315v172h71v366h-64v-127h-140v289h580v-289z" />
    <glyph glyph-name="u03C5" unicode="&#x3c5;" horiz-adv-x="590" 
d="M575 527h-53l-141 -227v-128h71v-172h-315v172h71v127l-142 228h-51v173h269v-173h-34l64 -117l65 117h-35v173h231v-173z" />
    <glyph glyph-name="u03C6" unicode="&#x3c6;" horiz-adv-x="769" 
d="M471 55v-55h-173v55h-152l-114 114v365l114 114h152v52h173v-52h152l114 -114v-365l-114 -114h-152zM471 517v-331h76l20 20v291l-20 20h-76zM222 517l-20 -20v-291l20 -20h76v331h-76z" />
    <glyph glyph-name="u03C7" unicode="&#x3c7;" horiz-adv-x="615" 
d="M596 527h-46l-134 -187l121 -168h63v-172h-314v172h47l-75 112l-69 -112h40v-172h-214v172h44l139 194l-111 161h-69v173h308v-173h-45l73 -106l66 106h-36v173h212v-173z" />
    <glyph glyph-name="u03C8" unicode="&#x3c8;" horiz-adv-x="817" 
d="M18 700h208v-327l20 -20h76v174h-38v173h249v-173h-38v-174h76l20 20v327h208v-173h-38v-191l-114 -114h-152v-50h63v-172h-299v172h63v50h-152l-114 114v191h-38v173z" />
    <glyph glyph-name="u03C9" unicode="&#x3c9;" horiz-adv-x="610" 
d="M232 506v-210l40 -101v-195h-252v172h115l-75 74v332l122 122h246l122 -122v-332l-75 -74h115v-172h-252v195l40 101v210l-22 21h-102z" />
    <glyph glyph-name="u03CA" unicode="&#x3ca;" horiz-adv-x="413" 
d="M356 527h-63v-355h63v-172h-298v172h63v355h-63v173h298v-173zM375 787h-116v118h116v-118zM155 787h-117v118h117v-118z" />
    <glyph glyph-name="u03CB" unicode="&#x3cb;" horiz-adv-x="590" 
d="M575 527h-53l-141 -227v-128h71v-172h-315v172h71v127l-142 228h-51v173h269v-173h-34l64 -117l65 117h-35v173h231v-173zM463 787h-116v118h116v-118zM243 787h-117v118h117v-118z" />
    <glyph glyph-name="u03CC" unicode="&#x3cc;" 
d="M528 125l-127 -125h-238l-126 125v453l122 122h247l122 -122v-453zM334 527h-103l-22 -21v-311l23 -23h101l23 23v311z" />
    <glyph glyph-name="u03CD" unicode="&#x3cd;" horiz-adv-x="590" 
d="M575 527h-53l-141 -227v-128h71v-172h-315v172h71v127l-142 228h-51v173h269v-173h-34l64 -117l65 117h-35v173h231v-173z" />
    <glyph glyph-name="u03CE" unicode="&#x3ce;" horiz-adv-x="610" 
d="M232 506v-210l40 -101v-195h-252v172h115l-75 74v332l122 122h246l122 -122v-332l-75 -74h115v-172h-252v195l40 101v210l-22 21h-102z" />
    <glyph glyph-name="u0401" unicode="&#x401;" horiz-adv-x="588" 
d="M551 474h-139v53h-140v-113h89v20h100v-169h-100v29h-89v-122h140v53h140v-225h-515v172h63v355h-63v173h514v-226zM461 787h-116v118h116v-118zM241 787h-117v118h117v-118z" />
    <glyph glyph-name="u0402" unicode="&#x402;" horiz-adv-x="713" 
d="M594 461h-139v77h-64v-108h180l118 -118v-280l-73 -133l-143 80l43 79v218l-20 21h-105v-125h38v-172h-282v172h71v366h-64v-77h-140v239h580v-239z" />
    <glyph glyph-name="u0403" unicode="&#x403;" horiz-adv-x="569" 
d="M551 411h-139v116h-140v-355h80v-172h-315v172h63v355h-63v173h514v-289zM441 847l-253 -72v67l253 72v-67z" />
    <glyph glyph-name="u0404" unicode="&#x404;" horiz-adv-x="557" 
d="M308 276h-99v-80l25 -24h93l21 21v99h172v-174q-29 -30 -59 -59.5t-59 -58.5h-231l-134 134v437l129 129h241l113 -114v-165h-172v86l-20 20h-95l-24 -23v-77h99v-151z" />
    <glyph glyph-name="u0405" unicode="&#x405;" horiz-adv-x="555" 
d="M515 586v-122h-173v43l-20 20h-96l-21 -20v-81l18 -17h201l97 -91v-200l-119 -118h-251l-118 118v126h172v-51l21 -21h101l21 21v87l-16 17h-200l-99 98v191l113 114h255z" />
    <glyph glyph-name="u0406" unicode="&#x406;" horiz-adv-x="413" 
d="M355 527h-63v-355h63v-172h-298v172h63v355h-63v173h298v-173z" />
    <glyph glyph-name="u0407" unicode="&#x407;" horiz-adv-x="413" 
d="M355 527h-63v-355h63v-172h-298v172h63v355h-63v173h298v-173zM374 787h-116v118h116v-118zM154 787h-117v118h117v-118z" />
    <glyph glyph-name="u0408" unicode="&#x408;" horiz-adv-x="575" 
d="M560 527h-63v-393l-134 -134h-227l-118 118v206h172v-131l21 -21h89l25 24v331h-88v173h323v-173z" />
    <glyph glyph-name="u0409" unicode="&#x409;" horiz-adv-x="868" 
d="M349 0v172h38v355h-94l-59 -465l-60 -62h-154v209h79l43 318h-58v173h539v-173h-63v-89h172l121 -121v-195l-121 -122h-383zM681 193v70l-22 22h-99v-113h99z" />
    <glyph glyph-name="u040A" unicode="&#x40a;" horiz-adv-x="885" 
d="M366 0v172h38v119h-131v-119h38v-172h-274v172h63v355h-63v173h274v-173h-38v-105h131v105h-38v173h274v-173h-63v-89h172l121 -121v-195l-121 -122h-383zM698 193v70l-22 22h-99v-113h99z" />
    <glyph glyph-name="u040B" unicode="&#x40b;" horiz-adv-x="770" 
d="M594 461h-139v77h-64v-108h180l118 -118v-139h63v-173h-274v173h38v103l-20 21h-105v-125h38v-172h-282v172h71v366h-64v-77h-140v239h580v-239z" />
    <glyph glyph-name="u040C" unicode="&#x40c;" horiz-adv-x="689" 
d="M666 527h-71l-130 -164l152 -191h49v-172h-297v172h41l-131 169v-169h41v-172h-283v172h63v355h-63v173h282v-173h-40v-169l130 169h-41v173h298v-173zM511 847l-253 -72v67l253 72v-67z" />
    <glyph glyph-name="u040E" unicode="&#x40e;" horiz-adv-x="651" 
d="M636 527h-57l-207 -527h-254v173h118l-161 354h-55v173h295v-173h-41l80 -190l72 190h-41v173h251v-173zM133 905h156v-19q0 -29 13 -46t49 -17q37 0 50 17t13 46v19h156v-67q0 -44 -53.5 -74.5t-165.5 -30.5q-111 0 -164.5 30.5t-53.5 74.5v67z" />
    <glyph glyph-name="u040F" unicode="&#x40f;" horiz-adv-x="688" 
d="M258 0h-221v172h63v356h-63v172h274v-172h-38v-356h141v356h-38v172h274v-172h-63v-356h63v-172h-222v-150h-170v150z" />
    <glyph glyph-name="u0410" unicode="&#x410;" horiz-adv-x="646" 
d="M559 172h72v-172h-296v172h44l-15 62h-126l-14 -62h41v-172h-250v172h64l129 528h239zM256 324h88l-45 187z" />
    <glyph glyph-name="u0411" unicode="&#x411;" horiz-adv-x="623" 
d="M465 0h-428v172h63v355h-63v173h529v-226h-139v53h-155v-99h193l121 -121v-186zM414 193v60l-22 22h-119v-103h119z" />
    <glyph glyph-name="u0412" unicode="&#x412;" horiz-adv-x="620" 
d="M579 418l-55 -54l58 -58v-188l-118 -118h-427v172h63v355h-63v173h428l114 -114v-168zM273 299v-127h116l21 21v86l-20 20h-117zM273 527v-106h116l20 20v66l-20 20h-116z" />
    <glyph glyph-name="u0413" unicode="&#x413;" horiz-adv-x="569" 
d="M551 411h-139v116h-140v-355h80v-172h-315v172h63v355h-63v173h514v-289z" />
    <glyph glyph-name="u0414" unicode="&#x414;" horiz-adv-x="716" 
d="M22 172h93l49 355h-58v173h549v-173h-63v-355h94v-272h-150v100h-364v-100h-150v272zM270 172h149v355h-104z" />
    <glyph glyph-name="u0415" unicode="&#x415;" horiz-adv-x="588" 
d="M551 474h-139v53h-140v-113h89v20h100v-169h-100v29h-89v-122h140v53h140v-225h-515v172h63v355h-63v173h514v-226z" />
    <glyph glyph-name="u0416" unicode="&#x416;" horiz-adv-x="939" 
d="M339 527v173h260v-173h-40v-169l110 169h-41v173h288v-173h-61l-130 -164l152 -191h39v-172h-287v172h41l-111 169v-169h41v-172h-261v172h41v169l-111 -169h41v-172h-287v172h39l152 191l-130 164h-61v173h288v-173h-41l110 -169v169h-41z" />
    <glyph glyph-name="u0417" unicode="&#x417;" horiz-adv-x="562" 
d="M521 586v-167l-54 -54l58 -58v-189l-119 -118h-251l-118 118v120h172v-45l21 -21h101l21 21v80l-20 20h-147v122h146l20 20v72l-20 20h-101l-20 -20v-37h-170v116l114 114h253z" />
    <glyph glyph-name="u0418" unicode="&#x418;" horiz-adv-x="707" 
d="M670 527h-63v-355h63v-172h-274v172h38v186l-225 -358h-172v172h63v355h-63v173h274v-173h-38v-187l224 360h173v-173z" />
    <glyph glyph-name="u0419" unicode="&#x419;" horiz-adv-x="707" 
d="M161 905h156v-19q0 -29 13 -46t49 -17q37 0 50 17t13 46v19h156v-67q0 -44 -53.5 -74.5t-165.5 -30.5q-111 0 -164.5 30.5t-53.5 74.5v67zM670 527h-63v-355h63v-172h-274v172h38v186l-225 -358h-172v172h63v355h-63v173h274v-173h-38v-187l224 360h173v-173z" />
    <glyph glyph-name="u041A" unicode="&#x41a;" horiz-adv-x="689" 
d="M666 527h-71l-130 -164l152 -191h49v-172h-297v172h41l-131 169v-169h41v-172h-283v172h63v355h-63v173h282v-173h-40v-169l130 169h-41v173h298v-173z" />
    <glyph glyph-name="u041B" unicode="&#x41b;" horiz-adv-x="670" 
d="M633 527h-63v-355h63v-172h-274v172h38v355h-104l-59 -465l-60 -62h-154v209h79l43 318h-58v173h549v-173z" />
    <glyph glyph-name="u041C" unicode="&#x41c;" horiz-adv-x="802" 
d="M764 527h-62v-355h62v-172h-306v172h80v299l-105 -215h-65l-105 215v-299h80v-172h-306v172h63v355h-63v173h273l99 -215l100 215h255v-173z" />
    <glyph glyph-name="u041D" unicode="&#x41d;" horiz-adv-x="688" 
d="M650 527h-63v-355h63v-172h-274v172h38v119h-141v-119h38v-172h-274v172h63v355h-63v173h274v-173h-38v-105h141v105h-38v173h274v-173z" />
    <glyph glyph-name="u041E" unicode="&#x41e;" 
d="M528 125l-127 -125h-238l-126 125v453l122 122h247l122 -122v-453zM334 527h-103l-22 -21v-311l23 -23h101l23 23v311z" />
    <glyph glyph-name="u041F" unicode="&#x41f;" horiz-adv-x="688" 
d="M650 527h-63v-355h63v-172h-274v172h38v355h-141v-355h38v-172h-274v172h63v355h-63v173h613v-173z" />
    <glyph glyph-name="u0420" unicode="&#x420;" horiz-adv-x="609" 
d="M586 578v-196l-121 -121h-192v-90h80v-171h-316v172h63v355h-63v173h428zM392 527h-119v-113h119l22 22v70z" />
    <glyph glyph-name="u0421" unicode="&#x421;" horiz-adv-x="558" 
d="M520 586v-165h-172v86l-20 20h-95l-24 -23v-308l25 -24h93l21 21v99h172v-174q-29 -30 -59 -59.5t-59 -58.5h-231l-134 134v437l129 129h241z" />
    <glyph glyph-name="u0422" unicode="&#x422;" horiz-adv-x="607" 
d="M594 411h-139v127h-64v-366h71v-172h-315v172h71v366h-64v-127h-140v289h580v-289z" />
    <glyph glyph-name="u0423" unicode="&#x423;" horiz-adv-x="651" 
d="M636 527h-57l-207 -527h-254v173h118l-161 354h-55v173h295v-173h-41l80 -190l72 190h-41v173h251v-173z" />
    <glyph glyph-name="u0424" unicode="&#x424;" horiz-adv-x="769" 
d="M471 55v-55h-173v55h-152l-114 114v365l114 114h152v52h173v-52h152l114 -114v-365l-114 -114h-152zM471 517v-331h76l20 20v291l-20 20h-76zM222 517l-20 -20v-291l20 -20h76v331h-76z" />
    <glyph glyph-name="u0425" unicode="&#x425;" horiz-adv-x="615" 
d="M596 527h-46l-134 -187l121 -168h63v-172h-314v172h47l-75 112l-69 -112h40v-172h-214v172h44l139 194l-111 161h-69v173h308v-173h-45l73 -106l66 106h-36v173h212v-173z" />
    <glyph glyph-name="u0426" unicode="&#x426;" horiz-adv-x="711" 
d="M531 -100v100h-494v172h63v355h-63v173h274v-173h-38v-355h141v355h-38v173h274v-173h-63v-355h94v-272h-150z" />
    <glyph glyph-name="u0427" unicode="&#x427;" horiz-adv-x="669" 
d="M631 527h-63v-355h63v-172h-274v172h38v88h-196l-118 118v149h-63v173h274v-173h-38v-113l20 -21h121v134h-38v173h274v-173z" />
    <glyph glyph-name="u0428" unicode="&#x428;" horiz-adv-x="981" 
d="M404 527h-38v173h249v-173h-38v-355h131v355h-38v173h274v-173h-63v-355h63v-172h-907v172h63v355h-63v173h274v-173h-38v-355h131v355z" />
    <glyph glyph-name="u0429" unicode="&#x429;" horiz-adv-x="1005" 
d="M404 527h-38v173h249v-173h-38v-355h131v355h-38v173h274v-173h-63v-355h94v-272h-150v100h-788v172h63v355h-63v173h274v-173h-38v-355h131v355z" />
    <glyph glyph-name="u042A" unicode="&#x42a;" horiz-adv-x="740" 
d="M10 700h482v-173h-80v-89h192l121 -121v-195l-121 -122h-428v172h63v355h-79v-116h-150v289zM553 193v70l-22 22h-119v-113h119z" />
    <glyph glyph-name="u042B" unicode="&#x42b;" horiz-adv-x="911" 
d="M435 0h-398v172h63v355h-63v173h316v-173h-80v-89h162l121 -121v-195zM384 193v70l-22 22h-89v-113h89zM638 527h-63v173h299v-173h-63v-355h63v-172h-274v172h38v355z" />
    <glyph glyph-name="u042C" unicode="&#x42c;" horiz-adv-x="601" 
d="M465 0h-428v172h63v355h-63v173h316v-173h-80v-89h192l121 -121v-195zM414 193v70l-22 22h-119v-113h119z" />
    <glyph glyph-name="u042D" unicode="&#x42d;" horiz-adv-x="558" 
d="M249 427h99v77l-24 23h-95l-20 -20v-86h-172v165l113 114h241l129 -129v-437l-134 -134h-231q-29 29 -59 58.5t-59 59.5v174h172v-99l21 -21h93l25 24v80h-99v151z" />
    <glyph glyph-name="u042E" unicode="&#x42e;" horiz-adv-x="881" 
d="M844 125l-127 -125h-218l-126 125v166h-100v-119h38v-172h-274v172h63v355h-63v173h274v-173h-38v-105h100v156l122 122h227l122 -122v-453zM650 527h-83l-22 -21v-311l23 -23h81l23 23v311z" />
    <glyph glyph-name="u042F" unicode="&#x42f;" horiz-adv-x="620" 
d="M150 700h433v-173h-63v-355h63v-172h-266v172h30v121h-60l-96 -293h-179v172h54l54 141l-83 84v189zM229 527l-20 -20v-74l20 -20h118v114h-118z" />
    <glyph glyph-name="u0430" unicode="&#x430;" horiz-adv-x="646" 
d="M559 172h72v-172h-296v172h44l-15 62h-126l-14 -62h41v-172h-250v172h64l129 528h239zM256 324h88l-45 187z" />
    <glyph glyph-name="u0431" unicode="&#x431;" horiz-adv-x="623" 
d="M465 0h-428v172h63v355h-63v173h529v-226h-139v53h-155v-99h193l121 -121v-186zM414 193v60l-22 22h-119v-103h119z" />
    <glyph glyph-name="u0432" unicode="&#x432;" horiz-adv-x="620" 
d="M579 418l-55 -54l58 -58v-188l-118 -118h-427v172h63v355h-63v173h428l114 -114v-168zM273 299v-127h116l21 21v86l-20 20h-117zM273 527v-106h116l20 20v66l-20 20h-116z" />
    <glyph glyph-name="u0433" unicode="&#x433;" horiz-adv-x="569" 
d="M551 411h-139v116h-140v-355h80v-172h-315v172h63v355h-63v173h514v-289z" />
    <glyph glyph-name="u0434" unicode="&#x434;" horiz-adv-x="716" 
d="M22 172h93l49 355h-58v173h549v-173h-63v-355h94v-272h-150v100h-364v-100h-150v272zM270 172h149v355h-104z" />
    <glyph glyph-name="u0435" unicode="&#x435;" horiz-adv-x="588" 
d="M551 474h-139v53h-140v-113h89v20h100v-169h-100v29h-89v-122h140v53h140v-225h-515v172h63v355h-63v173h514v-226z" />
    <glyph glyph-name="u0436" unicode="&#x436;" horiz-adv-x="939" 
d="M339 527v173h260v-173h-40v-169l110 169h-41v173h288v-173h-61l-130 -164l152 -191h39v-172h-287v172h41l-111 169v-169h41v-172h-261v172h41v169l-111 -169h41v-172h-287v172h39l152 191l-130 164h-61v173h288v-173h-41l110 -169v169h-41z" />
    <glyph glyph-name="u0437" unicode="&#x437;" horiz-adv-x="562" 
d="M521 586v-167l-54 -54l58 -58v-189l-119 -118h-251l-118 118v120h172v-45l21 -21h101l21 21v80l-20 20h-147v122h146l20 20v72l-20 20h-101l-20 -20v-37h-170v116l114 114h253z" />
    <glyph glyph-name="u0438" unicode="&#x438;" horiz-adv-x="707" 
d="M670 527h-63v-355h63v-172h-274v172h38v186l-225 -358h-172v172h63v355h-63v173h274v-173h-38v-187l224 360h173v-173z" />
    <glyph glyph-name="u0439" unicode="&#x439;" horiz-adv-x="707" 
d="M161 905h156v-19q0 -29 13 -46t49 -17q37 0 50 17t13 46v19h156v-67q0 -44 -53.5 -74.5t-165.5 -30.5q-111 0 -164.5 30.5t-53.5 74.5v67zM670 527h-63v-355h63v-172h-274v172h38v186l-225 -358h-172v172h63v355h-63v173h274v-173h-38v-187l224 360h173v-173z" />
    <glyph glyph-name="u043A" unicode="&#x43a;" horiz-adv-x="689" 
d="M666 527h-71l-130 -164l152 -191h49v-172h-297v172h41l-131 169v-169h41v-172h-283v172h63v355h-63v173h282v-173h-40v-169l130 169h-41v173h298v-173z" />
    <glyph glyph-name="u043B" unicode="&#x43b;" horiz-adv-x="670" 
d="M633 527h-63v-355h63v-172h-274v172h38v355h-104l-59 -465l-60 -62h-154v209h79l43 318h-58v173h549v-173z" />
    <glyph glyph-name="u043C" unicode="&#x43c;" horiz-adv-x="802" 
d="M764 527h-62v-355h62v-172h-306v172h80v299l-105 -215h-65l-105 215v-299h80v-172h-306v172h63v355h-63v173h273l99 -215l100 215h255v-173z" />
    <glyph glyph-name="u043D" unicode="&#x43d;" horiz-adv-x="688" 
d="M650 527h-63v-355h63v-172h-274v172h38v119h-141v-119h38v-172h-274v172h63v355h-63v173h274v-173h-38v-105h141v105h-38v173h274v-173z" />
    <glyph glyph-name="u043E" unicode="&#x43e;" 
d="M528 125l-127 -125h-238l-126 125v453l122 122h247l122 -122v-453zM334 527h-103l-22 -21v-311l23 -23h101l23 23v311z" />
    <glyph glyph-name="u043F" unicode="&#x43f;" horiz-adv-x="688" 
d="M650 527h-63v-355h63v-172h-274v172h38v355h-141v-355h38v-172h-274v172h63v355h-63v173h613v-173z" />
    <glyph glyph-name="u0440" unicode="&#x440;" horiz-adv-x="609" 
d="M586 578v-196l-121 -121h-192v-90h80v-171h-316v172h63v355h-63v173h428zM392 527h-119v-113h119l22 22v70z" />
    <glyph glyph-name="u0441" unicode="&#x441;" horiz-adv-x="558" 
d="M520 586v-165h-172v86l-20 20h-95l-24 -23v-308l25 -24h93l21 21v99h172v-174q-29 -30 -59 -59.5t-59 -58.5h-231l-134 134v437l129 129h241z" />
    <glyph glyph-name="u0442" unicode="&#x442;" horiz-adv-x="607" 
d="M594 411h-139v127h-64v-366h71v-172h-315v172h71v366h-64v-127h-140v289h580v-289z" />
    <glyph glyph-name="u0443" unicode="&#x443;" horiz-adv-x="651" 
d="M636 527h-57l-207 -527h-254v173h118l-161 354h-55v173h295v-173h-41l80 -190l72 190h-41v173h251v-173z" />
    <glyph glyph-name="u0444" unicode="&#x444;" horiz-adv-x="769" 
d="M471 55v-55h-173v55h-152l-114 114v365l114 114h152v52h173v-52h152l114 -114v-365l-114 -114h-152zM471 517v-331h76l20 20v291l-20 20h-76zM222 517l-20 -20v-291l20 -20h76v331h-76z" />
    <glyph glyph-name="u0445" unicode="&#x445;" horiz-adv-x="615" 
d="M596 527h-46l-134 -187l121 -168h63v-172h-314v172h47l-75 112l-69 -112h40v-172h-214v172h44l139 194l-111 161h-69v173h308v-173h-45l73 -106l66 106h-36v173h212v-173z" />
    <glyph glyph-name="u0446" unicode="&#x446;" horiz-adv-x="711" 
d="M531 -100v100h-494v172h63v355h-63v173h274v-173h-38v-355h141v355h-38v173h274v-173h-63v-355h94v-272h-150z" />
    <glyph glyph-name="u0447" unicode="&#x447;" horiz-adv-x="669" 
d="M631 527h-63v-355h63v-172h-274v172h38v88h-196l-118 118v149h-63v173h274v-173h-38v-113l20 -21h121v134h-38v173h274v-173z" />
    <glyph glyph-name="u0448" unicode="&#x448;" horiz-adv-x="981" 
d="M404 527h-38v173h249v-173h-38v-355h131v355h-38v173h274v-173h-63v-355h63v-172h-907v172h63v355h-63v173h274v-173h-38v-355h131v355z" />
    <glyph glyph-name="u0449" unicode="&#x449;" horiz-adv-x="1005" 
d="M404 527h-38v173h249v-173h-38v-355h131v355h-38v173h274v-173h-63v-355h94v-272h-150v100h-788v172h63v355h-63v173h274v-173h-38v-355h131v355z" />
    <glyph glyph-name="u044A" unicode="&#x44a;" horiz-adv-x="740" 
d="M10 700h482v-173h-80v-89h192l121 -121v-195l-121 -122h-428v172h63v355h-79v-116h-150v289zM553 193v70l-22 22h-119v-113h119z" />
    <glyph glyph-name="u044B" unicode="&#x44b;" horiz-adv-x="911" 
d="M435 0h-398v172h63v355h-63v173h316v-173h-80v-89h162l121 -121v-195zM384 193v70l-22 22h-89v-113h89zM638 527h-63v173h299v-173h-63v-355h63v-172h-274v172h38v355z" />
    <glyph glyph-name="u044C" unicode="&#x44c;" horiz-adv-x="601" 
d="M465 0h-428v172h63v355h-63v173h316v-173h-80v-89h192l121 -121v-195zM414 193v70l-22 22h-119v-113h119z" />
    <glyph glyph-name="u044D" unicode="&#x44d;" horiz-adv-x="558" 
d="M249 427h99v77l-24 23h-95l-20 -20v-86h-172v165l113 114h241l129 -129v-437l-134 -134h-231q-29 29 -59 58.5t-59 59.5v174h172v-99l21 -21h93l25 24v80h-99v151z" />
    <glyph glyph-name="u044E" unicode="&#x44e;" horiz-adv-x="881" 
d="M844 125l-127 -125h-218l-126 125v166h-100v-119h38v-172h-274v172h63v355h-63v173h274v-173h-38v-105h100v156l122 122h227l122 -122v-453zM650 527h-83l-22 -21v-311l23 -23h81l23 23v311z" />
    <glyph glyph-name="u044F" unicode="&#x44f;" horiz-adv-x="620" 
d="M150 700h433v-173h-63v-355h63v-172h-266v172h30v121h-60l-96 -293h-179v172h54l54 141l-83 84v189zM229 527l-20 -20v-74l20 -20h118v114h-118z" />
    <glyph glyph-name="u0451" unicode="&#x451;" horiz-adv-x="588" 
d="M551 474h-139v53h-140v-113h89v20h100v-169h-100v29h-89v-122h140v53h140v-225h-515v172h63v355h-63v173h514v-226zM461 787h-116v118h116v-118zM241 787h-117v118h117v-118z" />
    <glyph glyph-name="endash" unicode="&#x2013;" horiz-adv-x="617" 
d="M603 305h-588v105h588v-105z" />
    <glyph glyph-name="emdash" unicode="&#x2014;" horiz-adv-x="871" 
d="M856 305h-841v105h841v-105z" />
    <glyph glyph-name="quoteleft" unicode="&#x2018;" horiz-adv-x="219" 
d="M147 634l35 -172l-44 -25l-101 169v114h110v-86z" />
    <glyph glyph-name="quoteright" unicode="&#x2019;" horiz-adv-x="219" 
d="M182 606l-101 -169l-44 25l35 172v86h110v-114z" />
    <glyph glyph-name="quotesinglbase" unicode="&#x201a;" horiz-adv-x="219" 
d="M182 33l-101 -169l-44 24l35 172v86h110v-113z" />
    <glyph glyph-name="quotedblleft" unicode="&#x201c;" horiz-adv-x="389" 
d="M147 634l35 -172l-44 -25l-101 169v114h110v-86zM317 634l35 -172l-44 -25l-101 169v114h110v-86z" />
    <glyph glyph-name="quotedblright" unicode="&#x201d;" horiz-adv-x="389" 
d="M182 606l-101 -169l-44 25l35 172v86h110v-114zM352 606l-101 -169l-44 25l35 172v86h110v-114z" />
    <glyph glyph-name="quotedblbase" unicode="&#x201e;" horiz-adv-x="389" 
d="M182 33l-101 -169l-44 24l35 172v86h110v-113zM352 33l-101 -169l-44 24l35 172v86h110v-113z" />
    <glyph glyph-name="dagger" unicode="&#x2020;" horiz-adv-x="374" 
d="M222 566h114v-72h-114v-494h-73v494h-112v72h112v164h73v-164z" />
    <glyph glyph-name="daggerdbl" unicode="&#x2021;" horiz-adv-x="374" 
d="M222 570h114v-72h-114v-271h114v-72h-114v-155h-73v155h-112v72h112v271h-112v72h112v160h73v-160z" />
    <glyph glyph-name="bullet" unicode="&#x2022;" horiz-adv-x="387" 
d="M349 280l-91 -90h-130l-91 90v149l91 91h130l91 -91v-149z" />
    <glyph glyph-name="ellipsis" unicode="&#x2026;" horiz-adv-x="911" 
d="M179 0h-142v151h142v-151zM526 0h-141v151h141v-151zM873 0h-141v151h141v-151z" />
    <glyph glyph-name="perthousand" unicode="&#x2030;" horiz-adv-x="776" 
d="M738 291v-231l-45 -60h-104l-46 61v230l45 60h106zM623 251l-11 -13v-126l12 -14h33l12 14v126l-11 13h-35zM186 0h-70l237 700h70zM235 640v-231l-45 -61h-104l-46 62v230l45 60h106zM119 600l-11 -14v-126l12 -14h34l12 14v126l-11 14h-36zM500 291v-231l-45 -60h-104
l-46 61v230l45 60h106zM385 251l-11 -13v-126l12 -14h33l12 14v126l-11 13h-35z" />
    <glyph glyph-name="guilsinglleft" unicode="&#x2039;" horiz-adv-x="190" 
d="M98 373l77 -122h-86l-74 122l74 122h86z" />
    <glyph glyph-name="guilsinglright" unicode="&#x203a;" horiz-adv-x="190" 
d="M175 373l-74 -122h-86l77 122l-77 122h86z" />
    <glyph glyph-name="fraction" unicode="&#x2044;" horiz-adv-x="313" 
d="M39 0h-91l319 700h93z" />
    <glyph glyph-name="Euro" unicode="&#x20ac;" horiz-adv-x="568" 
d="M477 527h-192l-24 -23v-67h190l-17 -57h-173v-58h157l-18 -58h-139v-68l25 -24h235v-172h-298l-134 134v130h-52v58h52v58h-52v57h52v134l129 129h310z" />
    <glyph glyph-name="trademark" unicode="&#x2122;" horiz-adv-x="511" 
d="M220 643h-64v-242h-56v242h-63v57h183v-57zM474 401h-48v162l-34 -162h-60l-33 160v-160h-49v299h69l43 -224l43 224h69v-299z" />
    <glyph glyph-name="partialdiff" unicode="&#x2202;" horiz-adv-x="562" 
d="M251 700h211l70 -114l-98 -468l-123 -118h-208l-73 118l42 205l100 91h181l19 93l-12 20h-80l-21 -20l-9 -43h-144l26 122zM224 302l-16 -17l-19 -92l12 -21h84l22 21l22 109h-105z" />
    <glyph glyph-name="uni2206" unicode="&#x2206;" horiz-adv-x="646" 
d="M15 173h57l141 527h230l133 -527h55v-173h-616v173zM227 173h150l-77 305z" />
    <glyph glyph-name="product" unicode="&#x220f;" horiz-adv-x="542" 
d="M489 -225h-111v822h-214v-822h-111v925h436v-925z" />
    <glyph glyph-name="summation" unicode="&#x2211;" horiz-adv-x="552" 
d="M39 -62l211 299l-211 300v163h473v-116h-334v-40l209 -307l-209 -306v-40h334v-116h-473v163z" />
    <glyph glyph-name="radical" unicode="&#x221a;" horiz-adv-x="547" 
d="M525 700l-193 -700h-196l-58 252h-56v131h171l36 -214l149 531h147z" />
    <glyph glyph-name="infinity" unicode="&#x221e;" horiz-adv-x="562" 
d="M523 441v-183l-82 -82h-121l-39 39l-39 -39h-121l-82 82v183l82 82h121l39 -39l39 39h121zM398 386l-14 14h-47l-15 -14v-73l15 -15h47l14 15v73zM164 313l14 -15h47l15 15v73l-15 14h-47l-14 -14v-73z" />
    <glyph glyph-name="integral" unicode="&#x222b;" horiz-adv-x="341" 
d="M142 -225h-112v138h55l17 16v674l97 97h112v-138h-55l-17 -16v-674z" />
    <glyph glyph-name="approxequal" unicode="&#x2248;" horiz-adv-x="379" 
d="M343 204q-26 -44 -72 -44q-17 0 -38.5 11t-44 24t-44 24t-38.5 11q-39 0 -66 -47v105q22 42 70 42q21 0 41.5 -11t41.5 -24t42 -24t44 -11q37 0 64 44v-100zM341 404q-26 -44 -72 -44q-17 0 -38.5 11t-44 24t-44 24t-38.5 11q-39 0 -66 -47v105q22 42 70 42
q21 0 41.5 -11t41.5 -24t42 -24t44 -11q37 0 64 44v-100z" />
    <glyph glyph-name="notequal" unicode="&#x2260;" horiz-adv-x="444" 
d="M406 388h-120l-30 -65h150v-81h-187l-111 -242h-91l110 242h-90v81h127l30 65h-157v82h194l105 230h93l-106 -230h83v-82z" />
    <glyph glyph-name="lessequal" unicode="&#x2264;" horiz-adv-x="459" 
d="M421 500l-284 -143l284 -145v-111l-384 201v111l384 199v-112zM412 -1h-370v82h370v-82z" />
    <glyph glyph-name="greaterequal" unicode="&#x2265;" horiz-adv-x="459" 
d="M421 302l-384 -201v111l284 145l-284 143v112l384 -199v-111zM412 -1h-370v82h370v-82z" />
    <glyph glyph-name="lozenge" unicode="&#x25ca;" horiz-adv-x="522" 
d="M31 350l172 350h116l172 -350l-172 -350h-116zM179 350l83 -191l81 191l-83 191z" />
    <glyph glyph-name="uniF8FF" unicode="&#xf8ff;" horiz-adv-x="320" 
 />
    <glyph glyph-name="fi" unicode="&#xfb01;" horiz-adv-x="985" 
d="M551 470h-139v57h-140v-121h96v21h100v-167h-100v27h-96v-115h80v-172h-315v172h63v355h-63v173h514v-230zM927 527h-63v-355h63v-172h-298v172h63v355h-63v173h298v-173z" />
    <glyph glyph-name="fl" unicode="&#xfb02;" horiz-adv-x="1137" 
d="M551 470h-139v57h-140v-121h96v21h100v-167h-100v27h-96v-115h80v-172h-315v172h63v355h-63v173h514v-230zM916 527h-71v-355h138v95h140v-267h-514v172h63v355h-63v173h307v-173z" />
    <glyph glyph-name="Delta" horiz-adv-x="646" 
d="M15 173h57l141 527h230l133 -527h55v-173h-616v173zM227 173h150l-77 305z" />
    <glyph glyph-name="Omega" 
d="M209 506v-160l50 -117v-229h-222v191h110v-27h69l-179 147v267l122 122h246l122 -122v-267l-179 -147h69v27h110v-191h-222v229l50 117v160l-22 21h-102z" />
    <glyph glyph-name="uni03BC" horiz-adv-x="639" 
d="M251 195l22 -23h97l22 23v141h-38v173h269v-173h-63v-227l-109 -109h-200v-53h63v-172h-298v172h62v389h-63v173h274v-173h-38v-141z" />
    <glyph glyph-name="pi" horiz-adv-x="688" 
d="M650 354h-63v-182h63v-172h-274v172h38v182h-141v-182h38v-172h-274v172h63v182h-63v173h613v-173z" />
    </font>
</defs>
</svg>
