<svg xmlns="http://www.w3.org/2000/svg" width="41" height="130.5" viewBox="0 0 41 130.5"><path d="M10.51 113.345c.084.322.233.426.57.424 3.95-.014 7.9-.014 11.85 0 .347.002.495-.098.61-.428 1.652-4.807 3.325-9.61 4.982-14.416.164-.477.447-.768.918-.943 1.255-.472 2.496-.976 3.746-1.462.22-.085.44-.167.672-.216.46-.1.904.17 1.058.608.187.535-.065 1.016-.69 1.266-1.184.472-2.37.94-3.56 1.394-.27.102-.414.25-.51.528-1.548 4.496-3.108 8.99-4.673 13.48-.107.31-.243.584.155.785.068.034.11.145.144.23.482 1.33.98 2.66 1.44 4.003.2.578-.165 1.058-.778 1.092-.203.013-.41.002-.636.002.914 1.798.82 3.08-.273 4.048-1.01.895-2.444 1.018-3.536.27-.708-.478-1.13-1.15-1.255-2.012-.125-.854.156-1.588.667-2.303h-6.07c-.033 0-.067.02-.103.033.886 1.748.8 3.02-.266 3.986-.997.904-2.42 1.045-3.536.314-.716-.468-1.142-1.14-1.28-1.994-.142-.867.147-1.613.64-2.31-.39-.033-.735-.03-1.067-.098-.352-.065-.577-.403-.57-.753.005-.364.265-.684.633-.75.192-.032.393-.036.59-.036 4.79-.003 9.58-.003 14.372-.003h.58c-.31-.86-.595-1.656-.865-2.408H10.248c-.812 0-1.064-.185-1.314-.966-1.277-3.993-2.556-7.983-3.832-11.976-.308-.963.09-1.503 1.104-1.503 6.016-.002 12.03-.002 18.046 0 .184 0 .37.02.547.06.42.1.716.5.704.93-.01.434-.318.812-.746.895-.208.036-.42.05-.63.05H7.265c.198.623.397 1.19.552 1.77.083.307.22.402.544.4 4.58-.01 9.16-.008 13.74-.006.21 0 .428.01.626.063.377.104.596.375.647.763.053.386-.064.73-.415.906-.247.12-.55.177-.828.177-4.357.01-8.714.006-13.07.006h-.49c.24.758.473 1.426.66 2.106.088.312.23.398.55.396 3.737-.013 7.475-.01 11.213-.01.826 0 1.275.343 1.273.962 0 .62-.444.955-1.277.955H9.984c.192.612.38 1.14.523 1.684zm3.77 8.254c-.01-.7-.6-1.27-1.297-1.26-.7.006-1.276.6-1.267 1.293.01.706.59 1.265 1.3 1.257.703-.01 1.28-.595 1.266-1.29zm10.59.037c.014-.697-.56-1.29-1.26-1.3-.704-.01-1.282.552-1.295 1.26-.012.712.543 1.284 1.255 1.294.702.013 1.29-.554 1.3-1.253z" fill="#949494"/><path d="M10.51 22.347c.082.322.23.426.57.424 3.95-.013 7.897-.013 11.847 0 .348.003.496-.097.61-.427 1.653-4.807 3.326-9.608 4.983-14.415.162-.478.445-.77.916-.946 1.255-.47 2.496-.975 3.746-1.46.22-.087.44-.17.672-.218.46-.098.904.168 1.058.61.187.534-.065 1.013-.69 1.263-1.184.473-2.37.94-3.56 1.395-.27.102-.414.25-.51.528-1.548 4.496-3.108 8.99-4.673 13.48-.11.308-.246.583.152.784.068.034.11.145.144.23.483 1.33.98 2.66 1.44 4.003.2.58-.164 1.06-.777 1.093-.204.013-.41.002-.637.002.914 1.798.82 3.08-.273 4.048-1.01.895-2.443 1.018-3.535.27-.707-.478-1.128-1.15-1.254-2.012-.123-.852.158-1.586.67-2.3h-6.07c-.034 0-.068.02-.104.032.887 1.75.8 3.022-.265 3.987-.996.903-2.42 1.044-3.535.313-.716-.467-1.142-1.14-1.28-1.993-.142-.867.147-1.613.64-2.31-.39-.033-.735-.03-1.067-.098-.35-.07-.575-.41-.57-.76.007-.365.267-.685.635-.75.192-.033.393-.038.59-.038 4.79-.002 9.58-.002 14.372-.002h.58l-.865-2.406H10.248c-.812 0-1.064-.185-1.314-.966-1.277-3.99-2.556-7.98-3.832-11.973-.308-.963.09-1.504 1.104-1.504h18.046c.184 0 .37.02.547.063.42.1.72.498.706.927-.01.434-.318.812-.746.895-.206.036-.417.05-.63.05H7.267c.198.624.397 1.19.552 1.77.082.308.22.403.543.4 4.58-.01 9.16-.007 13.74-.005.21 0 .427.012.625.065.377.104.596.375.647.763.052.385-.065.73-.416.904-.248.12-.55.176-.828.176-4.358.012-8.715.008-13.07.008h-.49c.24.76.474 1.427.662 2.107.087.31.23.398.55.396 3.736-.013 7.474-.01 11.212-.01.826 0 1.275.343 1.273.962 0 .62-.445.955-1.278.955-3.487.002-6.975 0-10.462 0h-.54c.19.62.377 1.148.52 1.69zm3.77 8.254c-.013-.7-.6-1.27-1.3-1.26-.7.007-1.275.6-1.266 1.294.01.707.59 1.266 1.3 1.258.703-.01 1.28-.596 1.266-1.29zm10.59.038c.012-.7-.56-1.29-1.26-1.3-.706-.013-1.284.55-1.297 1.257-.012.713.543 1.285 1.255 1.295.703.012 1.29-.555 1.3-1.254z" fill="#fff"/></svg>