<?xml version="1.0" encoding="UTF-8" standalone="no"?>
<svg
   xmlns:dc="http://purl.org/dc/elements/1.1/"
   xmlns:cc="http://creativecommons.org/ns#"
   xmlns:rdf="http://www.w3.org/1999/02/22-rdf-syntax-ns#"
   xmlns:svg="http://www.w3.org/2000/svg"
   xmlns="http://www.w3.org/2000/svg"
   xmlns:sodipodi="http://sodipodi.sourceforge.net/DTD/sodipodi-0.dtd"
   xmlns:inkscape="http://www.inkscape.org/namespaces/inkscape"
   width="41"
   height="130.5"
   viewBox="0 0 41 130.5"
   version="1.1"
   id="svg6"
   sodipodi:docname="cart.svg"
   inkscape:version="0.92.1 r">
  <metadata
     id="metadata12">
    <rdf:RDF>
      <cc:Work
         rdf:about="">
        <dc:format>image/svg+xml</dc:format>
        <dc:type
           rdf:resource="http://purl.org/dc/dcmitype/StillImage" />
      </cc:Work>
    </rdf:RDF>
  </metadata>
  <defs
     id="defs10" />
  <sodipodi:namedview
     pagecolor="#ffffff"
     bordercolor="#666666"
     borderopacity="1"
     objecttolerance="10"
     gridtolerance="10"
     guidetolerance="10"
     inkscape:pageopacity="0"
     inkscape:pageshadow="2"
     inkscape:window-width="948"
     inkscape:window-height="686"
     id="namedview8"
     showgrid="false"
     inkscape:zoom="3.6168582"
     inkscape:cx="-3.1973296"
     inkscape:cy="73.229169"
     inkscape:window-x="0"
     inkscape:window-y="27"
     inkscape:window-maximized="0"
     inkscape:current-layer="svg6" />
  <path
     d="m 10.51073,113.34508 c 0.083,0.322 0.232,0.426 0.57,0.424 3.95,-0.013 7.898,-0.013 11.848,0 0.348,0.003 0.496,-0.097 0.61,-0.427 1.653,-4.807 3.326,-9.61 4.983,-14.415997 0.164,-0.477 0.447,-0.768 0.918,-0.943 1.255,-0.472 2.496,-0.976 3.746,-1.462 0.22,-0.086 0.44,-0.168 0.672,-0.217 0.46,-0.1 0.904,0.17 1.058,0.608 0.187,0.535 -0.065,1.016 -0.69,1.266 -1.184,0.472 -2.37,0.94 -3.56,1.394 -0.27,0.102 -0.414,0.25 -0.51,0.527997 -1.548,4.496 -3.108,8.99 -4.673,13.48 -0.107,0.31 -0.243,0.584 0.155,0.785 0.068,0.034 0.11,0.145 0.144,0.23 0.482,1.33 0.98,2.66 1.44,4.003 0.2,0.578 -0.165,1.058 -0.778,1.092 -0.203,0.013 -0.41,0.002 -0.636,0.002 0.914,1.798 0.82,3.08 -0.273,4.048 -1.01,0.895 -2.444,1.018 -3.536,0.27 -0.707,-0.478 -1.128,-1.15 -1.254,-2.012 -0.125,-0.854 0.156,-1.588 0.667,-2.303 h -6.07 c -0.033,0 -0.067,0.02 -0.103,0.033 0.887,1.748 0.8,3.02 -0.265,3.986 -0.997,0.904 -2.42,1.045 -3.536,0.314 -0.716,-0.468 -1.142,-1.14 -1.28,-1.994 -0.142,-0.867 0.147,-1.613 0.64,-2.31 -0.39,-0.033 -0.735,-0.03 -1.0669997,-0.098 -0.353,-0.065 -0.578,-0.403 -0.57,-0.753 0.004,-0.364 0.264,-0.684 0.632,-0.75 0.192,-0.032 0.3929997,-0.036 0.5899997,-0.036 4.79,-0.003 9.58,-0.003 14.372,-0.003 h 0.58 c -0.31,-0.86 -0.595,-1.656 -0.865,-2.408 h -14.222 c -0.8119997,0 -1.0639997,-0.185 -1.3139997,-0.966 -1.277,-3.993 -2.556,-7.983 -3.832,-11.976 -0.308,-0.963 0.09,-1.503 1.104,-1.503 6.0159997,-0.003 12.0299997,-0.003 18.0459997,0 0.184,0 0.37,0.02 0.547,0.06 0.42,0.1 0.717,0.5 0.705,0.928 -0.01,0.435 -0.318,0.813 -0.746,0.896 -0.208,0.036 -0.42,0.05 -0.63,0.05 H 7.2647303 c 0.198,0.623 0.397,1.19 0.552,1.77 0.083,0.307 0.22,0.402 0.544,0.4 4.5799997,-0.01 9.1599997,-0.008 13.7399997,-0.006 0.21,0 0.427,0.01 0.625,0.064 0.377,0.104 0.596,0.375 0.647,0.763 0.053,0.386 -0.064,0.73 -0.415,0.906 -0.247,0.12 -0.55,0.177 -0.828,0.177 -4.357,0.01 -8.714,0.007 -13.0699997,0.007 h -0.49 c 0.24,0.758 0.473,1.426 0.66,2.106 0.088,0.312 0.23,0.398 0.55,0.396 3.7369997,-0.013 7.4749997,-0.01 11.2129997,-0.01 0.826,0 1.275,0.343 1.273,0.962 0,0.62 -0.444,0.955 -1.277,0.955 H 9.9847303 c 0.1919997,0.612 0.3799997,1.14 0.5229997,1.684 z m 3.77,8.254 c -0.012,-0.7 -0.6,-1.27 -1.298,-1.26 -0.7,0.007 -1.276,0.6 -1.267,1.294 0.01,0.706 0.59,1.265 1.3,1.257 0.703,-0.01 1.28,-0.595 1.266,-1.29 z m 10.59,0.038 c 0.013,-0.697 -0.56,-1.29 -1.26,-1.3 -0.705,-0.01 -1.283,0.552 -1.296,1.26 -0.012,0.712 0.543,1.284 1.255,1.294 0.702,0.012 1.29,-0.555 1.3,-1.254 z"
     id="path2"
     inkscape:connector-curvature="0"
     style="fill:#949494" />
  <path
     d="m 10.50873,22.347083 c 0.083,0.322 0.232,0.426 0.57,0.424 3.95,-0.014 7.898,-0.014 11.848,0 0.348,0.002 0.496,-0.098 0.61,-0.428 1.653,-4.807 3.326,-9.608 4.983,-14.4149998 0.162,-0.478 0.445,-0.77 0.916,-0.946 1.255,-0.47 2.496,-0.975 3.746,-1.46 0.22,-0.087 0.44,-0.17 0.672,-0.218 0.46,-0.098 0.904,0.168 1.058,0.61 0.187,0.534 -0.065,1.013 -0.69,1.263 -1.184,0.473 -2.37,0.94 -3.56,1.395 -0.27,0.102 -0.414,0.25 -0.51,0.528 -1.548,4.4959998 -3.108,8.9899998 -4.673,13.4799998 -0.11,0.308 -0.245,0.583 0.153,0.784 0.068,0.034 0.11,0.145 0.144,0.23 0.483,1.33 0.98,2.66 1.44,4.003 0.2,0.58 -0.164,1.06 -0.777,1.093 -0.203,0.013 -0.41,0.002 -0.636,0.002 0.914,1.798 0.82,3.08 -0.273,4.048 -1.01,0.895 -2.443,1.018 -3.535,0.27 -0.707,-0.478 -1.128,-1.15 -1.254,-2.012 -0.124,-0.852 0.157,-1.586 0.668,-2.3 h -6.07 c -0.033,0 -0.067,0.02 -0.103,0.032 0.887,1.75 0.8,3.022 -0.265,3.987 -0.997,0.903 -2.42,1.044 -3.536,0.313 -0.716,-0.467 -1.142,-1.14 -1.28,-1.993 -0.142,-0.867 0.147,-1.613 0.64,-2.31 -0.39,-0.033 -0.735,-0.03 -1.0669997,-0.098 -0.35,-0.07 -0.575,-0.41 -0.57,-0.76 0.007,-0.364 0.267,-0.684 0.635,-0.75 0.192,-0.032 0.3929997,-0.037 0.5899997,-0.037 4.79,-0.002 9.58,-0.002 14.372,-0.002 h 0.58 l -0.865,-2.406 h -14.222 c -0.8119997,0 -1.0639997,-0.185 -1.3139997,-0.966 -1.277,-3.99 -2.556,-7.98 -3.832,-11.973 -0.308,-0.963 0.09,-1.504 1.104,-1.504 6.0159997,-0.002 12.0299997,-0.002 18.0459997,0 0.184,0 0.37,0.02 0.547,0.062 0.422,0.1 0.72,0.498 0.707,0.927 -0.01,0.434 -0.318,0.812 -0.746,0.895 -0.206,0.036 -0.417,0.05 -0.63,0.05 H 7.2667303 c 0.198,0.624 0.397,1.19 0.552,1.77 0.083,0.308 0.22,0.403 0.544,0.4 4.5799997,-0.01 9.1599997,-0.007 13.7399997,-0.005 0.21,0 0.427,0.012 0.625,0.065 0.377,0.104 0.596,0.375 0.647,0.763 0.052,0.385 -0.065,0.73 -0.416,0.904 -0.247,0.12 -0.55,0.176 -0.827,0.176 -4.358,0.012 -8.715,0.008 -13.0699997,0.008 h -0.49 c 0.24,0.76 0.474,1.427 0.662,2.107 0.087,0.31 0.23,0.398 0.55,0.396 3.7359997,-0.012 7.4739997,-0.01 11.2119997,-0.01 0.826,0 1.275,0.344 1.273,0.963 0,0.62 -0.444,0.955 -1.277,0.955 -3.487,0.002 -6.975,0 -10.462,0 H 9.9897303 c 0.1899997,0.62 0.3769997,1.148 0.5199997,1.69 z m 3.77,8.254 c -0.012,-0.7 -0.6,-1.27 -1.298,-1.262 -0.7,0.008 -1.276,0.6 -1.267,1.295 0.01,0.707 0.59,1.266 1.3,1.258 0.703,-0.01 1.28,-0.596 1.266,-1.29 z m 10.59,0.037 c 0.013,-0.7 -0.56,-1.29 -1.26,-1.3 -0.705,-0.013 -1.283,0.55 -1.296,1.257 -0.012,0.713 0.543,1.285 1.255,1.295 0.703,0.012 1.29,-0.555 1.3,-1.254 z"
     id="path4"
     inkscape:connector-curvature="0"
     style="fill:#ffffff" />
</svg>
