<svg xmlns="http://www.w3.org/2000/svg" width="40" height="198" viewBox="0 0 40 198"><g fill="#aaacad"><path d="M22.645 168.332v-2.83h-5.007v2.718C12.63 169.277 8 174.154 8 180c0 6.618 5.453 12 12.078 12C26.703 192 32 186.618 32 180c0-5.668-3.347-10.42-9.355-11.668zm-2.504 21.67c-5.52 0-10.012-4.487-10.012-10s4.492-10 10.013-10c5.523 0 10.015 4.485 10.015 10s-4.492 10-10.014 10z"/><path d="M21.307 180.5l-3.712-3.956c-.39-.392-1.025-.517-1.416-.126-.393.39-.392.96 0 1.352l4.004 4.22c.187.187.443.51.708.51H26.9c.553 0 1.002-.447 1.002-1 0-.553-.45-1-1.002-1h-5.593z"/></g><g fill="#00ba94"><path d="M22.645 128.332v-2.83h-5.007v2.718C12.63 129.278 8 134.155 8 140c0 6.618 5.453 12 12.078 12C26.703 152 32 146.618 32 140c0-5.668-3.347-10.42-9.355-11.668zm-2.504 21.67c-5.52 0-10.012-4.486-10.012-10 0-5.515 4.492-10 10.013-10 5.523 0 10.015 4.485 10.015 10 0 5.513-4.492 10-10.014 10z"/><path d="M21.307 140.5l-3.712-3.956c-.39-.392-1.025-.517-1.416-.125-.393.39-.392.96 0 1.352l4.004 4.22c.187.187.443.51.708.51H26.9c.553 0 1.002-.446 1.002-1 0-.55-.45-1-1.002-1h-5.593z"/></g><g transform="matrix(.99478 0 0 1 -.393 23.92)"><circle r="12.063" cy="76.016" cx="20.5" fill="#f73e39"/><path d="M25.938 78.015H15.062c-1.104 0-2-.896-2-2s.896-2 2-2h10.875c1.104 0 2 .896 2 2s-.895 2-2 2z" fill="#fff"/></g><path d="M23.705 56.19l-4.24 5.23-2.478-2.14c-.418-.36-1.05-.314-1.41.103-.36.418-.314 1.05.104 1.41l3.26 2.815c.184.158.416.242.654.242.03 0 .06 0 .088-.004.272-.023.52-.156.69-.365l4.888-6.03c.35-.43.282-1.06-.146-1.406-.43-.345-1.06-.28-1.407.147z" fill="#00ba94"/><path d="M20 48c-6.617 0-12 5.383-12 12s5.383 12 12 12 12-5.383 12-12-5.383-12-12-12zm0 22c-5.514 0-10-4.486-10-10s4.486-10 10-10 10 4.486 10 10-4.486 10-10 10z" fill="#3492d1"/><g fill="#3492d1"><path d="M23.193 19.01l-2.107-1.04-2.108 1.04-2.108-1.04-2.11 1.04-2.288-1.126c-.197-.097-.278-.335-.18-.532.096-.196.335-.278.53-.18l1.938.95 2.11-1.037 2.11 1.038 2.107-1.038 2.106 1.038 2.105-1.04 2.277 1.126c.197.096.277.334.18.53-.097.2-.336.277-.53.18l-1.927-.95z"/><path d="M23.293 20.897l-2.107-1.04-2.107 1.04-2.11-1.04-2.11 1.04-2.288-1.126c-.197-.096-.278-.334-.18-.53.096-.197.334-.278.53-.18l1.938.95 2.112-1.038 2.108 1.038 2.108-1.038 2.106 1.038 2.104-1.04 2.277 1.126c.197.096.277.334.182.53-.098.2-.338.278-.532.182l-1.927-.95-2.105 1.037zm-.1 1.986l-2.107-1.038-2.108 1.038-2.108-1.038-2.11 1.038-2.29-1.126c-.197-.096-.278-.334-.18-.53.096-.197.335-.28.53-.182l1.938.952 2.11-1.038 2.11 1.037 2.107-1.038 2.106 1.037 2.106-1.04 2.277 1.126c.197.097.277.335.18.532-.097.198-.336.277-.53.18l-1.927-.95-2.105 1.038z"/><path d="M20 8C13.383 8 8 13.383 8 20s5.383 12 12 12 12-5.383 12-12S26.617 8 20 8zm0 22c-5.514 0-10-4.486-10-10s4.486-10 10-10 10 4.486 10 10c0 5.513-4.486 10-10 10z"/></g></svg>