<?xml version="1.0" encoding="UTF-8" standalone="no"?>
<svg
   xmlns:dc="http://purl.org/dc/elements/1.1/"
   xmlns:cc="http://creativecommons.org/ns#"
   xmlns:rdf="http://www.w3.org/1999/02/22-rdf-syntax-ns#"
   xmlns:svg="http://www.w3.org/2000/svg"
   xmlns="http://www.w3.org/2000/svg"
   xmlns:sodipodi="http://sodipodi.sourceforge.net/DTD/sodipodi-0.dtd"
   xmlns:inkscape="http://www.inkscape.org/namespaces/inkscape"
   width="184"
   height="26.497999"
   viewBox="0 0 184 26.497999"
   version="1.1"
   id="svg32"
   sodipodi:docname="item-statuses.svg"
   inkscape:version="0.92.1 r">
  <metadata
     id="metadata38">
    <rdf:RDF>
      <cc:Work
         rdf:about="">
        <dc:format>image/svg+xml</dc:format>
        <dc:type
           rdf:resource="http://purl.org/dc/dcmitype/StillImage" />
        <dc:title></dc:title>
      </cc:Work>
    </rdf:RDF>
  </metadata>
  <defs
     id="defs36" />
  <sodipodi:namedview
     pagecolor="#ffffff"
     bordercolor="#666666"
     borderopacity="1"
     objecttolerance="10"
     gridtolerance="10"
     guidetolerance="10"
     inkscape:pageopacity="0"
     inkscape:pageshadow="2"
     inkscape:window-width="1168"
     inkscape:window-height="819"
     id="namedview34"
     showgrid="false"
     fit-margin-top="0"
     fit-margin-left="0"
     fit-margin-right="0"
     fit-margin-bottom="0"
     inkscape:zoom="2.3838384"
     inkscape:cx="0.59615582"
     inkscape:cy="-71.713848"
     inkscape:window-x="0"
     inkscape:window-y="27"
     inkscape:window-maximized="0"
     inkscape:current-layer="svg32" />
  <g
     id="g6"
     transform="translate(152,-165.502)"
     style="fill:#aaacad">
    <path
       d="m 22.645,168.332 v -2.83 h -5.007 v 2.718 C 12.63,169.277 8,174.154 8,180 c 0,6.618 5.453,12 12.078,12 6.625,0 11.922,-5.382 11.922,-12 0,-5.668 -3.347,-10.42 -9.355,-11.668 z m -2.504,21.67 c -5.52,0 -10.012,-4.487 -10.012,-10 0,-5.513 4.492,-10 10.013,-10 5.523,0 10.015,4.485 10.015,10 0,5.515 -4.492,10 -10.014,10 z"
       id="path2"
       inkscape:connector-curvature="0" />
    <path
       d="m 21.307,180.5 -3.712,-3.956 c -0.39,-0.392 -1.025,-0.517 -1.416,-0.126 -0.393,0.39 -0.392,0.96 0,1.352 l 4.004,4.22 c 0.187,0.187 0.443,0.51 0.708,0.51 H 26.9 c 0.553,0 1.002,-0.447 1.002,-1 0,-0.553 -0.45,-1 -1.002,-1 z"
       id="path4"
       inkscape:connector-curvature="0" />
  </g>
  <g
     id="g12"
     transform="translate(112,-125.502)"
     style="fill:#00ba94">
    <path
       d="m 22.645,128.332 v -2.83 h -5.007 v 2.718 C 12.63,129.278 8,134.155 8,140 c 0,6.618 5.453,12 12.078,12 6.625,0 11.922,-5.382 11.922,-12 0,-5.668 -3.347,-10.42 -9.355,-11.668 z m -2.504,21.67 c -5.52,0 -10.012,-4.486 -10.012,-10 0,-5.515 4.492,-10 10.013,-10 5.523,0 10.015,4.485 10.015,10 0,5.513 -4.492,10 -10.014,10 z"
       id="path8"
       inkscape:connector-curvature="0" />
    <path
       d="m 21.307,140.5 -3.712,-3.956 c -0.39,-0.392 -1.025,-0.517 -1.416,-0.125 -0.393,0.39 -0.392,0.96 0,1.352 l 4.004,4.22 c 0.187,0.187 0.443,0.51 0.708,0.51 H 26.9 c 0.553,0 1.002,-0.446 1.002,-1 0,-0.55 -0.45,-1 -1.002,-1 h -5.593 z"
       id="path10"
       inkscape:connector-curvature="0" />
  </g>
  <g
     transform="matrix(0.99478,0,0,1,71.607041,-61.580999)"
     id="g18">
    <circle
       r="12.063"
       cy="76.015999"
       cx="20.5"
       id="circle14"
       style="fill:#f73e39" />
    <path
       d="M 25.938,78.015 H 15.062 c -1.104,0 -2,-0.896 -2,-2 0,-1.104 0.896,-2 2,-2 h 10.875 c 1.104,0 2,0.896 2,2 0,1.104 -0.895,2 -2,2 z"
       id="path16"
       inkscape:connector-curvature="0"
       style="fill:#ffffff" />
  </g>
  <g
     id="g4517"
     transform="translate(32,-45.502)">
    <path
       id="path20"
       d="m 23.705,56.19 -4.24,5.23 -2.478,-2.14 c -0.418,-0.36 -1.05,-0.314 -1.41,0.103 -0.36,0.418 -0.314,1.05 0.104,1.41 l 3.26,2.815 c 0.184,0.158 0.416,0.242 0.654,0.242 0.03,0 0.06,0 0.088,-0.004 0.272,-0.023 0.52,-0.156 0.69,-0.365 l 4.888,-6.03 c 0.35,-0.43 0.282,-1.06 -0.146,-1.406 -0.43,-0.345 -1.06,-0.28 -1.407,0.147 z"
       inkscape:connector-curvature="0"
       style="fill:#00ba94" />
    <path
       id="path22"
       d="M 20,48 C 13.383,48 8,53.383 8,60 8,66.617 13.383,72 20,72 26.617,72 32,66.617 32,60 32,53.383 26.617,48 20,48 Z m 0,22 c -5.514,0 -10,-4.486 -10,-10 0,-5.514 4.486,-10 10,-10 5.514,0 10,4.486 10,10 0,5.514 -4.486,10 -10,10 z"
       inkscape:connector-curvature="0"
       style="fill:#3492d1" />
  </g>
  <g
     id="g30"
     style="fill:#3492d1"
     transform="translate(-8,-5.502)">
    <path
       d="m 23.193,19.01 -2.107,-1.04 -2.108,1.04 -2.108,-1.04 -2.11,1.04 -2.288,-1.126 c -0.197,-0.097 -0.278,-0.335 -0.18,-0.532 0.096,-0.196 0.335,-0.278 0.53,-0.18 l 1.938,0.95 2.11,-1.037 2.11,1.038 2.107,-1.038 2.106,1.038 2.105,-1.04 2.277,1.126 c 0.197,0.096 0.277,0.334 0.18,0.53 -0.097,0.2 -0.336,0.277 -0.53,0.18 l -1.927,-0.95 z"
       id="path24"
       inkscape:connector-curvature="0" />
    <path
       d="m 23.293,20.897 -2.107,-1.04 -2.107,1.04 -2.11,-1.04 -2.11,1.04 -2.288,-1.126 c -0.197,-0.096 -0.278,-0.334 -0.18,-0.53 0.096,-0.197 0.334,-0.278 0.53,-0.18 l 1.938,0.95 2.112,-1.038 2.108,1.038 2.108,-1.038 2.106,1.038 2.104,-1.04 2.277,1.126 c 0.197,0.096 0.277,0.334 0.182,0.53 -0.098,0.2 -0.338,0.278 -0.532,0.182 l -1.927,-0.95 -2.105,1.037 z m -0.1,1.986 -2.107,-1.038 -2.108,1.038 -2.108,-1.038 -2.11,1.038 -2.29,-1.126 c -0.197,-0.096 -0.278,-0.334 -0.18,-0.53 0.096,-0.197 0.335,-0.28 0.53,-0.182 l 1.938,0.952 2.11,-1.038 2.11,1.037 2.107,-1.038 2.106,1.037 2.106,-1.04 2.277,1.126 c 0.197,0.097 0.277,0.335 0.18,0.532 -0.097,0.198 -0.336,0.277 -0.53,0.18 l -1.927,-0.95 -2.105,1.038 z"
       id="path26"
       inkscape:connector-curvature="0" />
    <path
       d="M 20,8 C 13.383,8 8,13.383 8,20 8,26.617 13.383,32 20,32 26.617,32 32,26.617 32,20 32,13.383 26.617,8 20,8 Z m 0,22 c -5.514,0 -10,-4.486 -10,-10 0,-5.514 4.486,-10 10,-10 5.514,0 10,4.486 10,10 0,5.513 -4.486,10 -10,10 z"
       id="path28"
       inkscape:connector-curvature="0" />
  </g>
</svg>
