<svg xmlns="http://www.w3.org/2000/svg" width="184" height="26.498" viewBox="0 0 184 26.497999"><g fill="#aaacad"><path d="M174.645 2.83V0h-5.007v2.718C164.63 3.775 160 8.652 160 14.498c0 6.618 5.453 12 12.078 12 6.625 0 11.922-5.382 11.922-12 0-5.668-3.347-10.42-9.355-11.668zM172.14 24.5c-5.52 0-10.01-4.487-10.01-10s4.49-10 10.012-10c5.523 0 10.015 4.485 10.015 10s-4.492 10-10.014 10z"/><path d="M173.307 14.998l-3.712-3.956c-.39-.392-1.025-.517-1.416-.126-.394.39-.393.96 0 1.352l4.003 4.22c.187.187.443.51.708.51h6.01c.553 0 1.002-.447 1.002-1 0-.553-.45-1-1.002-1z"/></g><g fill="#00ba94"><path d="M134.645 2.83V0h-5.007v2.718C124.63 3.776 120 8.653 120 14.498c0 6.618 5.453 12 12.078 12 6.625 0 11.922-5.382 11.922-12 0-5.668-3.347-10.42-9.355-11.668zM132.14 24.5c-5.52 0-10.01-4.486-10.01-10 0-5.515 4.49-10 10.012-10 5.523 0 10.015 4.485 10.015 10 0 5.513-4.492 10-10.014 10z"/><path d="M133.307 14.998l-3.712-3.956c-.39-.392-1.025-.517-1.416-.125-.394.39-.393.96 0 1.352l4.003 4.22c.187.186.443.51.708.51h6.01c.553 0 1.002-.447 1.002-1 0-.55-.45-1-1.002-1h-5.593z"/></g><g transform="matrix(.99478 0 0 1 71.607 -61.58)"><circle r="12.063" cy="76.016" cx="20.5" fill="#f73e39"/><path d="M25.938 78.015H15.062c-1.104 0-2-.896-2-2s.896-2 2-2h10.875c1.104 0 2 .896 2 2s-.895 2-2 2z" fill="#fff"/></g><path d="M55.705 10.688l-4.24 5.23-2.478-2.14c-.418-.36-1.05-.314-1.41.103-.36.42-.314 1.05.104 1.41l3.26 2.816c.185.158.417.242.655.242.03 0 .06 0 .088-.004.272-.023.52-.156.69-.365l4.888-6.03c.35-.43.283-1.06-.145-1.407-.43-.345-1.06-.28-1.407.147z" fill="#00ba94"/><path d="M52 2.498c-6.617 0-12 5.383-12 12s5.383 12 12 12 12-5.383 12-12-5.383-12-12-12zm0 22c-5.514 0-10-4.486-10-10s4.486-10 10-10 10 4.486 10 10-4.486 10-10 10z" fill="#3492d1"/><g fill="#3492d1"><path d="M15.193 13.508l-2.107-1.04-2.108 1.04-2.108-1.04-2.11 1.04-2.288-1.126c-.197-.097-.278-.335-.18-.532.096-.196.335-.278.53-.18l1.938.95 2.11-1.037 2.11 1.038 2.107-1.037 2.106 1.038 2.105-1.04 2.277 1.127c.197.096.277.334.18.53-.097.2-.336.277-.53.18l-1.927-.95z"/><path d="M15.293 15.395l-2.107-1.04-2.107 1.04-2.11-1.04-2.11 1.04-2.29-1.126c-.196-.097-.277-.335-.18-.53.097-.198.335-.28.53-.18l1.94.95 2.11-1.04 2.11 1.04 2.107-1.04 2.106 1.04 2.104-1.04 2.277 1.125c.197.096.277.334.182.53-.098.2-.338.278-.532.182l-1.927-.95-2.105 1.037zm-.1 1.986l-2.107-1.037-2.108 1.038-2.108-1.037-2.11 1.038-2.29-1.125c-.197-.096-.278-.334-.18-.53.096-.197.335-.28.53-.182l1.938.952 2.11-1.038 2.11 1.037 2.107-1.038 2.106 1.037 2.107-1.04 2.277 1.126c.197.096.277.334.18.53-.097.2-.336.278-.53.18l-1.927-.95-2.105 1.04z"/><path d="M12 2.498c-6.617 0-12 5.383-12 12s5.383 12 12 12 12-5.383 12-12-5.383-12-12-12zm0 22c-5.514 0-10-4.486-10-10s4.486-10 10-10 10 4.486 10 10c0 5.513-4.486 10-10 10z"/></g></svg>