<svg xmlns="http://www.w3.org/2000/svg" width="41" height="130.5" viewBox="0 0 41 130.5"><g fill="#949494"><path d="M22.04 99.78v-2.718h-4.8v2.61C12.438 100.686 8 105.37 8 110.982c0 6.353 5.228 11.518 11.58 11.518 6.35 0 11.43-5.165 11.43-11.52 0-5.44-3.21-10-8.97-11.2zm-2.4 20.8c-5.296 0-9.6-4.304-9.6-9.6 0-5.29 4.304-9.6 9.6-9.6 5.292 0 9.6 4.31 9.6 9.6-.003 5.296-4.308 9.6-9.6 9.6z"/><path d="M20.758 111.462l-3.56-3.8c-.376-.375-.98-.496-1.356-.12-.376.377-.376.924 0 1.3l3.837 4.05c.18.18.422.492.68.492h5.76c.526 0 .956-.43.956-.96 0-.532-.43-.96-.957-.96z"/></g><g fill="#fff"><path d="M22.04 8.778v-2.72h-4.8v2.61C12.438 9.684 8 14.368 8 19.98c0 6.354 5.228 11.52 11.58 11.52 6.35 0 11.43-5.166 11.43-11.52 0-5.44-3.21-10-8.97-11.2zm-2.4 20.8c-5.296 0-9.6-4.304-9.6-9.6 0-5.29 4.304-9.6 9.6-9.6 5.292 0 9.6 4.31 9.6 9.6-.003 5.296-4.308 9.6-9.6 9.6z"/><path d="M20.758 20.46l-3.56-3.8c-.376-.375-.98-.496-1.356-.12-.376.377-.376.924 0 1.3l3.837 4.05c.18.18.422.492.68.492h5.76c.526 0 .956-.43.956-.96 0-.532-.43-.96-.957-.96z"/></g></svg>