<svg xmlns="http://www.w3.org/2000/svg" width="165.5" height="127.333" viewBox="0 0 165.5 127.333"><path fill="#3FB7B8" d="M152.723 127.352V93.194h-5.77v-5.93h18.507l-.997 5.574-.348.354h-5.162v34.158l-6.23.002zM28.918 99.504l.35-.332v-6.844c0-2.847-2.24-5.04-4.798-5.04h-8.488c-2.416 0-4.73 2.266-4.73 4.608v12.873c0 2.41 2.546 4.463 4.554 4.463 1.52 0 5.126.017 6.195.017.646 0 1.37.318 1.37 1.55v9.266c0 .712-.47 1.366-1.36 1.366h-4.065c-.798 0-1.34-.582-1.34-1.396v-4.877H11.63l-.34.34v7.348c0 2.04 1.63 4.534 4.682 4.534 2.158 0 7.53.013 8.27.013 2.76 0 4.977-2.222 4.977-4.853l.003-14.086c0-2.2-1.684-5.002-4.853-5.002h-5.927c-.777 0-1.332-.57-1.332-1.512s-.007-6.148-.007-7.288.874-1.464 1.316-1.464h4.04c.55 0 1.31.484 1.31 1.284v5.028l5.148.002zM34.21 122.532V87.286l6.342-.006.013 32.858c0 .517.43 1.29 1.248 1.29h4.645c.713 0 1.214-.717 1.214-1.248l-.012-32.894h6.06v35.26c0 2.354-2.228 4.812-4.667 4.812H38.758c-1.626-.002-4.548-1.752-4.548-4.826zM143.637 99.504l.35-.332v-6.844c0-2.847-2.238-5.04-4.797-5.04h-8.488c-2.416 0-4.73 2.266-4.73 4.608v12.873c0 2.41 2.546 4.463 4.554 4.463 1.52 0 5.127.017 6.195.017.646 0 1.37.318 1.37 1.55v9.266c0 .712-.47 1.366-1.36 1.366h-4.064c-.797 0-1.338-.582-1.338-1.396v-4.877h-4.978l-.342.34.002 7.348c0 2.04 1.63 4.534 4.682 4.534 2.158 0 7.53.013 8.27.013 2.76 0 4.976-2.222 4.976-4.853l.004-14.086c0-2.2-1.682-5.002-4.85-5.002h-5.928c-.777 0-1.334-.57-1.334-1.512l-.006-7.288s.873-1.464 1.316-1.464h4.04c.55 0 1.308.484 1.308 1.284v5.028l5.15.002zM63.57 127.363c-1.942 0-4.858-1.552-4.858-5.124V92.533c0-4.06 3.346-5.242 4.78-5.242h8.88c2.455 0 4.63 2.475 4.63 4.562v7.64h-5.147l-.332-.333v-4.71c0-.695-.644-1.27-1.273-1.27h-3.965c-.457 0-1.225.458-1.225 1.238v25.8c0 .764.81 1.212 1.187 1.212h4.136c.31 0 1.133-.36 1.133-1.258l-.007-10.94-3.497-.006.972-5.446.348-.344h7.67v19.22c0 2.072-1.968 4.708-4.74 4.708H63.57zM86.846 127.363c-1.945 0-4.86-1.552-4.86-5.124V92.533c0-4.06 3.346-5.242 4.78-5.242h8.88c2.454 0 4.628 2.475 4.628 4.562v7.64h-5.146l-.332-.333v-4.71c0-.695-.644-1.27-1.272-1.27H89.56c-.458 0-1.226.458-1.226 1.238v25.8c0 .764.81 1.212 1.188 1.212h4.136c.31 0 1.132-.36 1.132-1.258l-.008-10.94-3.494-.006.972-5.446.35-.344h7.667v19.22c0 2.072-1.965 4.708-4.74 4.708h-8.69zM105.252 127.346v-40.1h17.564l-1.016 5.603-.336.337h-9.977l-.006 10.252h8.933l.34.337-.81 5.105-.35.343h-8.114v12.212h10.387l.327.328v5.582h-16.942z"/><g fill="#FEF1E2"><path d="M.047 99.495H6.3v27.854H.047zM6.317 92.83l-.37.35H.353L0 92.824v-5.23l.34-.34h5.626l.332.33z"/></g></svg>