<svg xmlns="http://www.w3.org/2000/svg" width="239.833" height="135" viewBox="0 0 239.833 135"><path fill="#3FB7B8" d="M185.642 127.385l-.33-.335 7.153-39.76h8.147l7.207 39.76-.322.335H201.2l-1.287-7.062-7.086.015-1.31 7.05-5.875-.003zm7.954-12.227l5.473.023-2.59-16h-.233l-2.65 15.978zM145.913 127.385l-.328-.335 7.152-39.76h8.148l7.207 39.76-.323.335h-6.3l-1.287-7.062-7.086.015-1.308 7.05-5.877-.003zm7.955-12.227l5.473.023-2.59-16h-.23l-2.652 15.978z"/><g fill="#3FB7B8"><path d="M44.12 127.39h-6.226V93.214h-6.462v34.182h-6.226V87.29H44.12v40.1zM50.08 127.393V87.29h13.99c2.392 0 4.808 2.015 4.808 5.09v17.792c0 3.03-2.392 4.996-4.942 4.996h-7.628v12.225H50.08zm11.3-18.136c.574 0 1.273-.57 1.273-1.253V94.516c0-.627-.58-1.33-1.314-1.293l-5.032-.01v16.043h5.072zM118.45 134.898h-5.238v-7.51h-16.12v7.51h-5.24v-13.44h2.27c.776-1.164 1.388-3.028 1.835-4.894.445-1.86.707-4.23.787-7.102l.52-22.175h18.277v34.17h2.91v13.44zm-15.54-26.25c-.077 1.787-.184 3.328-.318 4.63-.136 1.3-.302 2.424-.495 3.374-.193.95-1.125 4.226-1.398 4.807h8.612V93.2h-5.82l-.58 15.446zM142.12 127.4h-6.23V93.213h-5.82v16.926c-.015 5.384-1.266 14.106-3.114 17.266h-6.566c3.38-7.11 3.46-15.218 3.46-16.437V87.644l.36-.354h17.91v40.11zM187.597 87.29l-1.01 5.577-.36.357h-7.773v34.16h-6.23V87.29h15.373zM226.187 127.385c-1.697 0-4.692-1.578-4.692-4.848v-13.29h-4.646v18.138h-6.23v-40.11h6.23v16.192h4.645V92.46c0-3.325 2.438-5.17 4.938-5.17h8.77c1.708 0 4.743 1.55 4.743 4.923v29.936c0 3.478-2.78 5.235-4.785 5.235h-8.973zm1.535-7.1c0 .387.45 1.173 1.17 1.173h3.578c.854 0 1.245-.81 1.245-1.336V94.545c0-.92-.854-1.324-1.16-1.324h-3.672c-.483 0-1.16.536-1.16 1.165v25.9z"/></g><path fill="#3FB7B8" d="M72.44 127.377V87.275h17.566l-1.018 5.604-.334.336h-9.98l-.005 10.253h8.93l.343.34-.813 5.103-.347.342H78.67v12.214h10.385l.328.326v5.582H72.44z"/><path fill="#FEF1E2" d="M13.17 127.368v-15.433h-2.946c-1.137 4.2-4.19 15.444-4.19 15.444H.34l-.34-.347 4.6-16.9c-2.31-.42-4.158-2.072-4.158-5.13L.465 92.51c0-2.636 1.74-5.232 5.138-5.232h13.79v40.093l-6.223-.002zm.06-34.157H8.323c-.948 0-1.49.7-1.49 1.377v8.796c0 .58.212 1.162.64 1.744.424.583 1.084.873 1.974.873h3.78V93.21z"/></svg>