<svg xmlns="http://www.w3.org/2000/svg" width="239.833" height="135" viewBox="0 0 239.833 135"><path fill="#3C2A46" d="M56.417 19h98v98h-98z"/><path fill="#FEF1E2" d="M95.745 73.293c2.95-7.002 5.74-12.897 7.344-14.613 3.758-4.004 10.262-4.034 14.494-.062 4.247 3.972 4.66 10.476.896 14.48-2.41 2.57-7.418 3.65-11.828 3.65-4.057 0-7.816-1.28-10.907-3.455zm26.02-19.14c-6.69-6.276-17.072-6.124-23.145.346-1.982 2.122-4.777 7.775-7.535 14.13-2.168-3.084-3.44-6.836-3.44-10.885 0-10.48 8.524-19.007 19.007-19.007l19.038-.004c-.004 4.047-.008 12.042-.014 20.877-.9-1.996-2.205-3.86-3.91-5.457zm6.985-21.54c-1.453 0-16.26.006-22.098.006-13.855 0-25.128 11.27-25.128 25.124 0 6.678 2.624 12.75 6.892 17.256-3.402 8.37-6.296 16.383-6.888 18.037l5.76 2.062c1.648-4.604 3.833-10.406 6.09-16.04 3.855 2.408 8.403 3.806 13.274 3.806 6.544 0 11-1.55 14.127-3.967 2.66-2.057 4.212-4.19 4.886-5.626-.008 12.412-.014 24.093-.014 25.176 0 2.248 6.117 2.31 6.117 0 0-2.312.04-60.658.04-62.776s-1.128-3.06-3.06-3.06z"/><path opacity=".6" fill="#3F2445" enable-background="new" d="M95.745 73.282l-2.377 5.847s2.345 1.2 2.58 1.317c.167-.4 2.206-5.674 2.206-5.674l-2.41-1.49z"/><path fill="#FEF1E2" d="M100.184 87.885l-5.62-2.287-9.597 6.88L82.78 80.93l-5.654-2.2s3.633 19.427 3.844 20.436c.217 1.01 1.387 1.677 2.654.77 1.267-.91 16.56-12.05 16.56-12.05z"/></svg>