<?xml version="1.0" standalone="no"?>
<!DOCTYPE svg PUBLIC "-//W3C//DTD SVG 1.1//EN" "http://www.w3.org/Graphics/SVG/1.1/DTD/svg11.dtd" >
<svg xmlns="http://www.w3.org/2000/svg" xmlns:xlink="http://www.w3.org/1999/xlink" version="1.1">
<metadata>
Created by FontForge 20150318 at Fri Aug 28 13:43:19 2015
 By uniteet7
Copyright (c) 2010 by MRFrukta - Font Firma (Alexey Frolov). All rights reserved.
</metadata>
<defs>
<font id="perforama" horiz-adv-x="1142" >
  <font-face 
    font-family="perforama"
    font-weight="400"
    font-stretch="normal"
    units-per-em="2048"
    panose-1="2 0 0 0 0 0 0 0 0 0"
    ascent="1536"
    descent="-512"
    x-height="1546"
    cap-height="1935"
    bbox="-31 -203 2138 2298"
    underline-thickness="102"
    underline-position="-102"
    unicode-range="U+000D-2014"
  />
<missing-glyph horiz-adv-x="748" 
d="M68 0v1365h544v-1365h-544zM136 68h408v1229h-408v-1229z" />
    <glyph glyph-name=".notdef" horiz-adv-x="748" 
d="M68 0v1365h544v-1365h-544zM136 68h408v1229h-408v-1229z" />
    <glyph glyph-name="glyph1" horiz-adv-x="0" 
 />
    <glyph glyph-name="uni000D" unicode="&#xd;" horiz-adv-x="1024" 
 />
    <glyph glyph-name="glyph3" horiz-adv-x="0" 
 />
    <glyph glyph-name="glyph3" horiz-adv-x="0" 
 />
    <glyph glyph-name="space" unicode=" " horiz-adv-x="1024" 
 />
    <glyph glyph-name="exclam" unicode="!" horiz-adv-x="440" 
d="M96 1391.5q-2 25.5 7.5 45t34 31t75.5 11.5q49 0 72.5 -11.5t33 -31t7.5 -45t-2 -52.5l-25 -1020h-176l-25 1020q0 27 -2 52.5zM100 127q0 14 1 34.5t9.5 39t26 34t47.5 21.5q25 2 49 0q31 -6 48.5 -20.5t25.5 -33t10 -39t2 -36.5t-2 -35.5t-10 -38t-25.5 -34
t-48.5 -21.5q-25 -4 -49 0q-31 6 -48 21.5t-25.5 35t-9.5 39t-1 33.5z" />
    <glyph glyph-name="quotedbl" unicode="&#x22;" horiz-adv-x="512" 
d="M70 1538h151l-31 -377h-84zM289 1538h157l-36 -377h-84z" />
    <glyph glyph-name="numbersign" unicode="#" horiz-adv-x="819" 
d="M25 377v151h94l71 617h-114v151h131l22 189h156l-23 -189h152l23 189h155l-22 -189h123v-151h-142l-71 -617h108v-151h-125l-26 -225h-152l27 225h-156l-27 -225h-153l26 225h-77zM272 528h156l70 617h-154z" />
    <glyph glyph-name="dollar" unicode="$" horiz-adv-x="727" 
d="M70 133v186h196l-6 -186h201v285q0 182 -10.5 220t-53.5 89l-231 236q-96 152 -96 282v158q0 41 60 84t130 43l6 131h195v-131q70 0 131 -42t61 -85v-158h-192v158h-201l6 -158q0 -55 8.5 -100t57.5 -109l256 -276q41 -45 53 -116t12 -286v-225q0 -45 -61.5 -87
t-130.5 -42v-149h-195v149q-74 0 -135 42t-61 87z" />
    <glyph glyph-name="percent" unicode="%" horiz-adv-x="1579" 
d="M139 913q0 94 8.5 150.5t34 86.5t75.5 39t136 9q74 0 118 -9t66.5 -43t29.5 -99.5t7 -178.5q0 -106 -6 -166.5t-29.5 -91t-69.5 -38t-126 -7.5q-82 0 -130 6.5t-73.5 40t-33 104t-7.5 197.5zM299 806.5q0 -22.5 1 -43t1 -30.5q0 -20 2 -35.5t9 -25.5t23.5 -15.5
t45.5 -5.5q33 0 49 9.5t23.5 36t7.5 70.5v116q0 55 1 97t-5 70.5t-23.5 43t-52.5 14.5t-51.5 -9t-23.5 -35t-7 -70v-113v-31v-43.5zM328 2l778 1309l164 2l-776 -1311h-166zM944 446q0 94 8.5 150.5t34 86.5t75.5 39t136 9q74 0 118 -9t66.5 -43t29.5 -99.5t7 -178.5
q0 -106 -6 -166.5t-29.5 -91t-69.5 -38t-126 -7.5q-82 0 -130 6.5t-74 40t-33 104t-7 197.5zM1104 339.5q0 -22.5 1 -43t1 -30.5q0 -20 2 -35.5t9 -25.5t23.5 -15.5t45.5 -5.5q33 0 49 9.5t23.5 36t7.5 70.5v116q0 55 1 97t-5.5 70.5t-23.5 43t-52 14.5t-51.5 -9t-23.5 -35
t-7 -70v-113v-31v-43.5z" />
    <glyph glyph-name="ampersand" unicode="&#x26;" horiz-adv-x="698" 
d="M35 152v600q0 102 39 163q20 33 112 125l-71 291q-8 39 -9 74q0 70 35 100.5t103 34.5h202q111 0 138.5 -38t27.5 -118v-153h-137v153h-209l213 -909l172 277v-256l-121 -189l17 -102q27 -53 104 -53v-152h-88q-70 0 -108 37q-29 27 -60 92q-20 -63 -35 -86
q-31 -43 -86 -43h-118q-47 0 -84 50t-37 102zM186 135h54l102 189l-115 507q-23 -25 -32 -91t-9 -177v-428z" />
    <glyph glyph-name="quotesingle" unicode="'" horiz-adv-x="215" 
d="M27 1640h151l-31 -376h-84z" />
    <glyph glyph-name="parenleft" unicode="(" horiz-adv-x="292" 
d="M41 0v1640q0 63 44 107.5t108 44.5h53v-152q-53 0 -53 -67v-1505q0 -68 53 -68v-152h-53q-59 0 -105.5 39t-46.5 113z" />
    <glyph glyph-name="parenright" unicode=")" horiz-adv-x="286" 
d="M29 0q51 0 51 68v1505q0 68 -51 67v152h51q63 0 108 -45t45 -107v-1640q0 -74 -51 -117q-43 -35 -102 -35h-51v152z" />
    <glyph glyph-name="asterisk" unicode="*" horiz-adv-x="649" 
d="M18 1397l52 131l180 -72v184h156v-184l167 72l58 -127l-185 -80l127 -158l-110 -92l-129 166l-123 -170l-129 96l125 158z" />
    <glyph glyph-name="plus" unicode="+" horiz-adv-x="495" 
d="M16 752v151h461v-151h-461zM168 596v461h156v-461h-156z" />
    <glyph glyph-name="comma" unicode="," horiz-adv-x="100" 
d="M-31 82q0 63 66 63q70 0 69 -63q0 -18 -6 -82q-4 -66 -32 -70v11v14t2 20q2 43 -33 43q-66 -10 -66 64zM10 78q0 -23 25 -23t24 23q1 26 -24 26t-25 -26z" />
    <glyph glyph-name="hyphen" unicode="-" horiz-adv-x="512" 
d="M41 752v151h408v-151h-408z" />
    <glyph glyph-name="period" unicode="." horiz-adv-x="100" 
d="M-10 66q-1 75 65 75q70 0 70 -75q0 -78 -70 -78q-66 0 -65 78zM31 59q0 -27 24 -26q25 0 25 26q0 33 -25 33t-24 -33z" />
    <glyph glyph-name="slash" unicode="/" horiz-adv-x="471" 
d="M8 0l307 1640h154l-309 -1640h-152z" />
    <glyph glyph-name="zero" unicode="0" horiz-adv-x="1310" 
d="M80 545v336v387v303q0 211 82 287t325 75h402v-121q-53 -2 -93 -2h-67q-27 2 -66.5 2h-93.5q-231 10 -297 -55q-66 -66 -65 -186v-41q0 -20 -1 -50t-1 -71l-4 -365v-199t-2 -194v-250q0 -121 71.5 -181t255.5 -60h275q236 -2 278 84q23 45 34 84t13 73l-6 1170
q2 184 -98 209q-51 14 -84 21t-49 11v121q190 -6 274 -75q84 -70 82 -287v-1170q0 -201 -82 -282q-78 -82 -360 -78h-98h-181q-272 -2 -358 74q-84 78 -84 288v35q0 16 -1 44t-1 63zM233 442v158q2 80 2.5 169t0.5 189v383q2 92 2 150.5v83.5q0 47 13 86t47 65.5t90 41
t142 12.5t139.5 -2h78.5q12 0 21 1t15 1h13q127 0 207 -39q84 -37 83 -168l5 -1131q0 -168 -82 -206q-84 -43 -215 -46h-263q-160 0 -229.5 54.5t-69.5 197.5zM352 453q0 -145 180 -144h119h82q158 -10 197 35q41 47 43 109v43q0 23 -1 53.5t-1 73.5v372v194.5t-2 178.5v170
q0 37 -11.5 60.5t-36 37t-65.5 17.5t-102 2h-183q-35 0 -70.5 -3t-72.5 -7q-72 -10 -72 -107v-61t-2 -127v-344v-181.5t-2 -169.5v-202z" />
    <glyph glyph-name="one" unicode="1" horiz-adv-x="688" 
d="M80 1546q106 70 213.5 165t181.5 224h182v-147h-120v27h-31q-4 -66 -92 -154q-45 -45 -97.5 -87t-111.5 -83l8 -25q10 10 27 21q14 10 34.5 23.5t49.5 33.5q111 78 182 195v-1573h31v1622h120l-2 -1745h-34q-16 0 -42 -1t-61 -1h-135v223v235t-2 257v495v226
q-66 -63 -134.5 -105.5t-131.5 -79.5q-10 63 -18.5 127t-16.5 127z" />
    <glyph glyph-name="two" unicode="2" horiz-adv-x="1323" 
d="M82 1454v121q-10 240 102 299q113 59 340 63h330q242 0 324 -75q82 -76 82 -287v-293v-78q0 -211 -86 -286q-82 -76 -357 -76h-297q-59 0 -108 -21q-49 -18 -50 -96v-35q0 -16 -1 -40.5t-1 -59.5q-2 -35 -2 -60.5v-42.5v-32q0 -98 64 -123q70 -23 117 -21h106h111h71h158
h160h74l-2 -270h-15q-8 0 -18 -1t-25 -1h-111.5t-224.5 2h-106h-189q-274 0 -358 76q-84 78 -84 286v70v285q0 55 5 109.5t28 109.5q63 137 211 133q74 -2 139.5 -2t122.5 4h106h111q25 -2 52.5 4t60.5 17q66 25 65 122l-1 44t-2 98.5t-1 99.5v45q-2 98 -76 107
q-37 4 -71.5 7t-67.5 3h-197q-53 0 -92 -2t-66.5 -14.5t-42 -36t-14.5 -64.5v-88h-274zM199 1575l39 2q0 43 8 66.5t16 42.5q6 14 23.5 33.5t64.5 39.5q49 23 117 23q16 0 29.5 1t23.5 1h17h112h154q39 0 106 -6q70 -6 121 -39q51 -35 62 -86q2 -12 4 -21.5t4 -15.5
q2 -8 2 -12q-2 0 -1 -52.5t3 -115.5q2 -74 2 -166q4 -143 -53 -209q-59 -68 -244 -68h-21h-24t-35 2q-39 2 -80 3t-86 1q-92 0 -161.5 -9t-122.5 -46q-55 -41 -62 -106l-6 -68l-1 -51q-1 -51 -2 -117.5t-2 -129t-1 -83.5q0 -43 14 -88t66 -86q51 -41 143 -47q23 -2 41 -3
t31 -1q14 -2 22 -2h125h193h262v33h-113h-112h-35q-18 0 -46 -1t-63 -1h-217q-162 0 -229 75q-39 39 -43 107q-2 16 -2 28.5v22.5q0 8 -2 16q0 29 1 82.5t3 130.5q0 39 1 68t1 49q0 23 2 39q18 63 61 104q47 43 262 50q217 4 392 12q174 8 178 227v35q0 18 -1 45t-1 64
q-2 72 -2 122t-2 76q-4 104 -19 150q-25 61 -112 98q-47 16 -119 21q-16 0 -29.5 1t-21.5 1h-17q-72 0 -145.5 -2.5t-145.5 2.5q-113 6 -225 -41q-109 -47 -102 -201z" />
    <glyph glyph-name="three" unicode="3" horiz-adv-x="1024" 
d="M80 41v119h444q184 0 256 60.5t72 180.5v130t-2 149v160q2 203 -154 227q94 20 126 90t28 211q0 47 1 100.5t1 102.5q0 147 -92 194q-90 47 -236 47l-321 3v-33l-121 2v149h444q244 0 346 -67q104 -68 99 -295q-2 -55 -2 -97t2 -104q0 -4 -1 -40t-3 -107
q-4 -141 -72 -152q51 -27 63.5 -87t12.5 -146v-435q0 -213 -86 -288q-84 -78 -359 -74h-360h-86zM80 160l2 151q111 0 218.5 -1t217.5 -1q41 0 109 19q70 20 71 127v364q0 86 -65 103q-33 8 -71 12t-79 2l-239 2v123h118q31 -2 47.5 -2h18.5h27.5t68.5 2q84 0 140.5 -13.5
t90 -41t48 -65.5t14.5 -87v-254v-158q0 -143 -69.5 -197.5t-229.5 -54.5h-305v-30h-82h-51zM82 1661v45v78h35q16 0 41.5 -1t60.5 -1q70 -2 145.5 -1t161.5 3t142.5 -12.5t90.5 -41t47 -65.5t13 -86v-238q0 -74 -16.5 -122t-53 -76.5t-93 -40.5t-136.5 -12q-43 0 -73.5 -1.5
t-49.5 -1.5h-35v-26h-118v145h123h151q37 0 68.5 6.5t56.5 21.5t40 44t15 74v190q0 78 -55 98.5t-160 18.5h-29h-75h-97.5h-96.5t-73 1z" />
    <glyph glyph-name="four" unicode="4" horiz-adv-x="1353" 
d="M78 1933l266 -2v-121v-266v-264v-121q4 -94 47 -135q35 -33 133 -33h156h180l-4 471q-2 137 -2 254v217h268l2 -942h166v-266h-166v-109v-235v-234v-106h-266v106v112.5t-2 125.5v238v108l-14 -1q-15 -1 -39.5 -1t-55 -1t-61.5 -1q-76 -2 -170 -4q-297 -8 -369 88
q-72 92 -67 274q2 211 0 422t-2 426zM197 1812l2 -776q0 -12 6 -50t37 -71q59 -74 182 -75q61 -2 123.5 -3t128.5 1h190q27 0 47.5 1t34.5 1h27v-107v-231q2 -63 2 -121.5v-112.5v-104h29l-2 674l165 2v32h-168l-4 940h-28q2 -236 4 -471t2 -471h-115h-182h-211
q-137 0 -188 68q-39 49 -45.5 95t-2.5 124v24.5t-2 41.5l-4 589h-28z" />
    <glyph glyph-name="five" unicode="5" horiz-adv-x="1273" 
d="M39 1204v78v293q0 211 82 287t323 75h115h250h252q29 0 50.5 1t35.5 1h29v-278q-162 -2 -324 -2h-322q-33 0 -67.5 -3t-73.5 -7q-74 -10 -74 -107q0 -80 -2 -143q-2 -53 -3 -98.5t1 -45.5q0 -98 64 -122q70 -23 117 -21h106h109q57 -4 121.5 -4t136.5 2q147 4 215 -133
q20 -53 26 -108.5t6 -110.5v-178t-2 -107v-70q0 -211 -86 -286q-82 -76 -356 -76h-106h-236h-238h-106l-2 270h680q27 -2 54.5 4.5t59.5 16.5q63 25 64 123v32q0 16 -1 42t-1 61v135q0 39 -14.5 62.5t-37 36t-50 15.5t-56.5 3q-150 2 -297 0q-274 0 -358 76q-84 78 -84 286z
M158 1204q0 -217 176 -227q174 -10 393 -12q213 -6 260 -50q45 -39 64 -104q2 -16 2 -39v-49t2 -68q2 -78 3 -130t1 -81q-2 -8 -2 -16q0 -10 -1 -22.5t-1 -28.5q-4 -70 -43 -109q-70 -74 -230 -75h-92h-203q-53 2 -103 2h-97h-90v-33h577q8 0 23 2q12 0 29.5 1t41.5 3
q92 6 146 49q49 39 63.5 84t16.5 88q0 20 -1 83t-3.5 129.5t-2.5 117.5v51q0 6 -2 16q-2 14 -6 52q-6 66 -59 106q-55 39 -126 47t-159 8q-45 0 -87 -1t-81 -3q-20 -2 -33.5 -2h-23.5h-18q-188 2 -248 68q-55 66 -51 209v24v62t1 81t2 80.5t1 62.5v26q0 4 2 12q2 6 2 15
t4 22q10 51 63 84q25 18 56.5 27.5t63.5 13.5t60.5 4h47.5h108h193h180h82v33h-90h-199h-201h-88h-16q-10 0 -23.5 -1t-29.5 -1q-74 -4 -117 -21q-92 -35 -113 -98q-18 -47 -18 -150q-2 -27 -2 -77t-2 -121q-2 -37 -2 -64v-45v-35z" />
    <glyph glyph-name="six" unicode="6" horiz-adv-x="1314" 
d="M80 403v1172q-4 100 15.5 165.5t53 104.5t78.5 56.5t91.5 24.5t90.5 7t78 4l734 -4v-118v-31h-121v31l-578 2q-29 -2 -74 -3.5t-90 -13.5q-63 -14 -112 -67t-41 -187l-6 -1157q-4 -160 114 -194q123 -35 203 -35h291q182 0 255 60.5t73 180.5v130t-2 153v162
q-4 123 -70 184q-66 63 -295 55h-66q-65 0 -153 1t-178 1h-140l7 519q8 117 98 147q88 31 203 31h682v-119h-727q-43 0 -93 -16q-41 -14 -45 -107l-6 -334h500q244 0 321 -75q80 -78 80 -287v-445q0 -211 -86 -286q-84 -78 -354 -74q-76 0 -147.5 -1t-141.5 1
q-225 4 -336 57q-113 57 -106 305zM231 1057q20 -2 52 -2q25 0 62.5 -1t88.5 -1q104 -2 195.5 -1t177.5 3q86 0 142.5 -13.5t90 -41t47 -65.5t13.5 -87v-252v-154q0 -143 -69.5 -197.5t-229.5 -54.5q-61 0 -136 -1t-149 1q-102 2 -197 43q-94 43 -86 211zM352 455
q0 -106 70 -125q70 -16 110 -19h29q14 0 35.5 -1t50.5 -1h154q180 -2 180 144v188v172q0 96 -74 107q-37 4 -71.5 7t-69.5 3h-115.5t-142.5 2q-39 0 -67.5 1t-47.5 1h-39q0 -123 -1 -242t-1 -237z" />
    <glyph glyph-name="seven" unicode="7" 
d="M80 1665v121l856 2l-2 -1622h31v1649h-764v-29h-121v29v120h1005l2 -1894h-61h-61h-150v1624h-735z" />
    <glyph glyph-name="eight" unicode="8" horiz-adv-x="1275" 
d="M80 381v508q4 119 29 147q31 33 47 43q-72 18 -76 232q0 74 1 149.5t1 151.5q0 254 139 282q72 16 135.5 25.5t122.5 13.5h293q252 0 348 -67q96 -66 94 -293v-195q2 -158 -17 -223t-60 -78l-4 4l-3 2q45 -18 64.5 -65t19.5 -156v-459q0 -211 -86 -286q-82 -76 -356 -76
h-72t-94 -2h-89t-64 2q-182 8 -279 68q-94 61 -94 272zM199 403q4 -172 106 -204q106 -35 178 -37h285q88 0 209 31q121 35 119 210q-2 88 -2 166v144v135q0 20 -2 43q-2 18 -6.5 40.5t-14.5 45.5q-33 68 -82 82q-12 4 -21.5 7t-15.5 5q-8 2 -12 4q109 25 131 103
q10 39 15.5 89t7.5 109v160q0 10 1 16.5t1 10.5v10q-2 6 -2 14q0 6 -1 16.5t-1 24.5q-2 53 -39 98q-39 43 -102.5 66t-182.5 23h-279q-29 -4 -72.5 -12.5t-103.5 -22.5q-119 -29 -114 -207l2 -197q0 -78 6 -130t24.5 -87t48 -54.5t74.5 -29.5q-43 -6 -96 -51
q-53 -43 -57 -170q0 -113 -1 -225.5t-1 -225.5zM231 442q0 104 1 204t1 204q0 143 97 174q94 31 194 31h120t126 2q84 0 139.5 -13.5t89 -41t49 -65.5t15.5 -87v-252v-156q0 -143 -70.5 -196t-228.5 -53h-186h-95q-96 6 -174 45q-82 41 -78 204zM231 1350q6 -6 2 80v143
q0 143 86 168l119 33q31 2 80 2h103.5t148.5 2q84 2 139.5 -12.5t89 -41t48 -65.5t14.5 -86v-238q0 -143 -69.5 -197.5t-227.5 -54.5h-152h-86q-127 4 -213 45q-88 43 -82 222zM354 459q-2 -111 66 -129q66 -16 106 -21h99h137q174 -2 178 144v190v170q0 96 -72 107
q-35 4 -71.5 7t-71.5 3h-109h-104q-68 0 -113 -22.5t-45 -94.5v-354zM354 1346q4 -109 72 -127q72 -16 109 -19h94q47 2 80.5 2h52.5q178 -4 178 144v104v86q0 96 -74 106q-35 4 -70.5 7.5t-70.5 3.5h-113h-106q-145 0 -152 -111v-196z" />
    <glyph glyph-name="nine" unicode="9" horiz-adv-x="1318" 
d="M80 1130v443q0 209 84 287q82 76 356 75q74 -2 146.5 -2h142.5q111 -2 192.5 -16t139.5 -43q115 -59 108 -303l2 -1172q4 -100 -15 -165.5t-54 -104.5t-80 -56.5t-91 -24.5t-90 -7t-77 -4l-733 4v121v28h120v-28l578 -4q29 0 74 2t90 12q63 14 112 68q49 53 41 188
q0 291 2 577.5t5 579.5q0 162 -119 195q-121 35 -201 35h-289q-184 0 -255.5 -60.5t-71.5 -181.5v-285q0 -41 1 -70.5t1 -50.5v-39q2 -121 67 -186q63 -63 297 -53l31 -1t79 -1h107.5h120h112.5h87l-8 -516q-8 -119 -97 -152q-92 -31 -202 -29h-682v119l727 -2q43 0 88 17
q45 18 49 108l6 334h-500q-246 0 -323 76q-78 78 -78 288zM231 1126v250v156q0 143 70 196.5t229 55.5h283q104 -4 197 -45q96 -43 88 -209l2 -610h-51h-65t-89 2q-102 2 -194.5 1t-178.5 -3q-84 0 -139 13t-89 39.5t-48.5 65.5t-14.5 88zM350 1161q0 -96 72 -106
q37 -4 72.5 -7.5t70.5 -3.5h114.5t141.5 -2q39 -2 68 -2h49h39q0 123 1 242t1 238q0 104 -72 122q-66 16 -108 21h-117h-95t-57 2q-180 0 -180 -143v-191v-170z" />
    <glyph glyph-name="colon" unicode=":" horiz-adv-x="217" 
d="M33 0v152h151v-152h-151zM33 903v158h151v-158h-151z" />
    <glyph glyph-name="semicolon" unicode=";" horiz-adv-x="215" 
d="M29 377h151l-30 -377h-84zM29 903v158h151v-158h-151z" />
    <glyph glyph-name="less" unicode="&#x3c;" horiz-adv-x="999" 
d="M39 860v47q2 25 2 43.5v30.5h8q10 0 21 2h26.5t28.5 2t31 4l6 -10q117 -4 174 -92q33 -53 68.5 -115.5t76.5 -138.5q35 -70 73 -137.5t77 -135.5q39 -66 63.5 -110.5t36.5 -67.5h19h16q-16 31 -98 172q-45 76 -84 146.5t-72 136.5q-94 193 -156 268q-66 86 -141 88l23 2
q18 2 55 19q129 57 186 192q51 125 80 221q18 78 80 236q61 154 172 154v26q-121 -4 -186 -149q-66 -150 -93 -267q-20 -74 -49.5 -143.5t-70.5 -134.5q-70 -123 -224 -135v-37h-16q-6 0 -10 2l-6 10q-6 -2 -15 -2q-8 -2 -18 -2t-25 -2l-57 -2v156l115 2q80 -4 139 55
q29 29 52.5 62.5t43.5 72.5q39 78 55 139l19 64q20 66 43.5 138.5t48.5 152.5q45 156 264 159q10 0 25.5 -1t40.5 -1h43v-286l-68 2q-66 4 -106 -49q-41 -49 -68 -117q-10 -35 -20.5 -67.5t-18.5 -65.5l-20 -94q-10 -37 -29.5 -84.5t-46.5 -104.5q-53 -109 -158 -127
q94 -33 164 -176q35 -74 60.5 -125t39.5 -84l293 -543h-143h-141l-78 119q-39 57 -79 133t-83 174l-80 168q-47 94 -104 154q-53 49 -68 49z" />
    <glyph glyph-name="equal" unicode="=" horiz-adv-x="495" 
d="M41 596v156h408v-156h-408zM41 903v158h408v-158h-408z" />
    <glyph glyph-name="greater" unicode="&#x3e;" horiz-adv-x="999" 
d="M39 59l293 543q14 33 39.5 84t60.5 125q70 141 166 176q-104 18 -158 127q-29 57 -48 104.5t-30 84.5l-20 94q-8 33 -18.5 65.5t-20.5 67.5q-29 68 -67 117q-41 53 -107 49l-68 -2v286h45q20 0 37 1t27 1q217 -2 266 -159q23 -80 46.5 -153t43.5 -138l19 -64
q16 -63 55 -139q20 -37 44 -70.5t52 -64.5q59 -59 140 -55l116 -2v-156q0 -2 -59 2q-16 2 -25.5 2t-17.5 2q-8 0 -14 2l-7 -10q-6 -2 -10 -2h-14v37q-152 12 -225 135q-86 135 -119 278q-29 117 -94 267q-68 147 -187 149v-26q113 0 172 -154q29 -76 50.5 -135.5
t31.5 -100.5q12 -45 31.5 -100t46.5 -121q57 -133 186 -192q33 -14 58 -19l20 -2q-74 -2 -139 -88q-66 -82 -158 -268q-37 -74 -75.5 -143.5t-77.5 -139.5l-101 -172h19h16l100 178q39 68 77 135.5t73 137.5q78 145 147 254q57 88 172 92l7 10q16 -2 30 -4q12 -2 26.5 -2
h29.5q8 -2 20 -2h10v-74v-47l-137 -4q-14 0 -65 -49q-59 -57 -107 -154q-23 -47 -42 -90t-38 -78q-45 -100 -86 -177t-76 -130l-75 -119h-144h-143z" />
    <glyph glyph-name="question" unicode="?" horiz-adv-x="1579" 
d="M158 1231q66 190 237 328q176 137 408 133q281 -4 452 -166q172 -164 209 -379q41 -215 -73 -428q-111 -211 -402 -309l-115 -170l-16 8q-8 4 -19.5 9t-27.5 15l-137 78q-37 23 -71 42.5t-66 35.5q-59 33 -68 41q-242 150 -309 358q-66 219 -2 404zM332 1159l65 -295
l19 -133l45 -12l90 29l-82 272l152 -150l69 21l51 205l43 -258l33 -19l98 35l-133 442l-86 -32l-73 -269l-226 207zM682 612l16 -30l15 8l32 -51l41 18l-32 53l20 13l-8 24l-29 -6l-6 14l33 52l-37 16l-41 -70l8 -28zM768 670l49 -95l41 19l-33 63l37 9l-14 39zM854 715
l70 -84l88 43l-60 96l-34 -18l36 -64l-14 -16l-45 67zM854 1313l107 -385l-5 -47l33 -13l96 29l-45 150l201 -115h29l53 90l-158 84l45 2l50 86l-39 141l-105 56zM944 809l84 -127l29 16l-8 31l30 -20l21 14l2 29l-43 12l14 41l-33 12l-16 -45l-41 53zM983 1245l104 33
l37 -21l2 -40l-120 -56zM1065 868l18 -32l-16 -9l16 -22l13 4l30 -59l25 -5l45 27l-2 25l-27 4l-16 -13l-23 31l23 12l-12 29l-23 -8l-16 29zM1157 874l17 -30l45 30l6 -10l-41 -26l-2 -19l24 -33h19l82 43l-62 84h-24zM1225 834l22 18l6 -16l-22 -19z" />
    <glyph glyph-name="A" unicode="A" horiz-adv-x="1327" 
d="M80 41l442 1894h467l277 -1894h-117l-21 121l-26 188l-223 1467h-267l-385 -1655h29l-27 -121h-149zM229 41l70 311h772l47 -311h-119l-30 195h-582l-41 -195h-117zM305 383l334 1403h215l213 -1403h-762zM457 504h469l-178 1163h-13z" />
    <glyph glyph-name="B" unicode="B" horiz-adv-x="1177" 
d="M80 41l2 1894l596 -2q252 0 348 -67q94 -65 94 -284v-9v-195v-29q0 -135 -18 -194q-20 -65 -60 -78l-6 6q45 -18 64.5 -65t19.5 -156v-459q0 -211 -86 -286q-82 -76 -356 -76h-598zM203 162h471q88 0 209 31q118 34 118 202v8q-2 88 -2 166v144v135q0 20 -2 43
q-2 18 -5 40.5t-13 45.5q-33 66 -84 82q-12 4 -21.5 7t-15.5 5q-8 2 -12 4q109 25 131 103q10 39 15 89t7 109v160q0 10 1 16.5t1 10.5v10q-2 6 -2 14q0 6 -1 16.5t-1 24.5q-2 53 -41 98q-37 43 -101 66t-181 23h-295h-176v-1653zM231 193l2 864h33q16 0 42 -1t61 -1
q47 -1 96 -1h49q76 1 162 3q84 0 139 -13.5t89 -41t48.5 -65.5t14.5 -87v-254v-154q0 -72 -16.5 -120t-52.5 -76.5t-92 -40.5t-136 -12q-78 -2 -153 -2.5t-146 -0.5q-35 0 -61.5 1.5t-43.5 1.5h-35zM231 1083l2 695h33q16 0 42 -1t61 -1h145.5t161.5 2h20q71 0 119 -12
q55 -14 89 -41t48.5 -66t14.5 -86v-238q0 -143 -70 -197.5t-227 -54.5h-299h-140zM354 309h138h176h9q169 0 169 144v190q2 57 2 99v71q0 96 -74 107q-37 4 -71.5 7t-69.5 3h-191q-23 0 -39 1t-26 1h-23v-623zM354 1202h138h176h9q169 0 169 144v104v86q0 96 -74 106
q-35 4 -69.5 7.5t-69.5 3.5h-191q-23 0 -39 1t-26 1h-23v-453z" />
    <glyph glyph-name="C" unicode="C" horiz-adv-x="1329" 
d="M80 541v336v387v305q0 211 82 286q82 76 325 76h330q225 -4 338 -63q106 -54 106 -262q0 -18 -1 -37v-121h-119l2 121v12q-1 59 -19 97q-20 42 -54 70t-75 40t-78.5 17t-66.5 5h-37h-71.5t-51.5 -2h-121q-31 1 -59 1q-181 0 -238 -56q-66 -61 -65 -184v-41q0 -20 -1 -50
t-1 -71v-170t-2 -195q-2 -102 -2 -199.5v-193.5v-250q0 -121 70.5 -181t254.5 -60h287h20q218 0 263 86q23 45 34 83t13 72l-2 121h59h60v-121q0 -201 -82 -282q-76 -80 -336 -80h-25h-106h-187q-274 0 -358 76q-84 78 -84 286v35q0 16 -1 44t-1 63zM233 440v158
q2 80 2.5 169t0.5 189v383q2 92 2 149.5v82.5q0 49 13 87t47 65.5t90 41t142 13.5q86 -2 140 -3h34q31 0 50 1q14 0 24 1t19 1h14q127 0 207 -39q84 -37 86 -168v-2h39l-2 -121h-39h-119v88q0 41 -14.5 64.5t-41 36t-66.5 14.5t-93 2h-98h-97q-33 0 -67.5 -3t-73.5 -8
q-74 -10 -74 -106q-2 -272 -3 -541.5t-1 -543.5q0 -98 62 -123q64 -21 108 -21h8h109h109q18 -1 36 -1q72 0 129 20q72 25 72 125v69h154l2 -121h-37q-12 -137 -92 -174q-76 -33 -205 -37h-61q-34 0 -86 -1h-37q-41 0 -93 1q-160 0 -229.5 54.5t-69.5 197.5z" />
    <glyph glyph-name="D" unicode="D" horiz-adv-x="1302" 
d="M80 41v293v651v653v297q117 -2 215 -3t184 -1q86 2 185.5 2h216.5v-121h-129h-148h-147.5t-129 1.5t-91.5 1.5h-33v-261v-567v-567v-258h22q10 0 27.5 -1t40.5 -1h203h202h93h20q220 0 260 84q23 45 34 84t13 73l-6 1170v7q0 177 -98 202q-51 14 -84 21t-49 11v121
q188 -6 272 -75q84 -63 84 -268v-19v-1170q0 -201 -82 -282q-74 -78 -334 -78h-26h-158h-242h-219h-96zM233 193v247v545q2 150 2.5 286t0.5 261q0 61 1 108.5t1 77.5v64h20q10 0 26.5 -1t39.5 -1h188h188h88q127 0 207 -39q84 -37 84 -168l4 -1131q0 -168 -82 -206
q-84 -43 -215 -46h-88h-190q-51 2 -98.5 2.5t-90.5 0.5h-86zM354 309l371 2q25 -1 48 -1q115 0 147 34q43 49 45 109v43q0 23 -1 53.5t-1 73.5v372v194.5t-2 178.5v170q0 37 -11.5 60.5t-36 37t-65.5 17.5q-27 3 -64 3q-18 0 -39 -1h-258q-33 0 -56 1t-40 1h-33z" />
    <glyph glyph-name="E" unicode="E" 
d="M80 41l2 1894h1005v-120l3 -31h-123v31h-764v-1651l766 -2v28h-738v869h736v26l-736 5v694h859l-3 -121h-735v-453l735 -2v-272h-735l2 -625l733 -2v-266q-254 0 -503.5 -1t-503.5 -1z" />
    <glyph glyph-name="F" unicode="F" 
d="M80 41l2 1894h1005v-120l3 -31h-123v31h-764v-1651h28v895l736 -2v28l-736 5v694h859l-3 -121h-735v-453l735 -2v-272h-735v-895h-137h-135z" />
    <glyph glyph-name="G" unicode="G" horiz-adv-x="1329" 
d="M80 545v336v387v303q0 211 82 287q81 75 319 75h6h330q225 -4 338 -63q106 -54 106 -262q0 -18 -1 -37v-121h-119v123q1 10 1 20q0 50 -18 86q-20 43 -54 70t-75 40t-78.5 18t-66.5 5h-37h-123h-121q-31 1 -59 1q-181 0 -238 -56q-66 -66 -65 -186v-41q0 -20 -1 -50
t-1 -71l-4 -365v-199t-2 -194v-250q0 -121 71.5 -180t255.5 -59h287h19q221 0 262 90q23 47 34 85t13 64l-2 168h61h64l-4 -166q0 -203 -82 -284q-78 -78 -335 -78h-26h-106h-189h-26q-252 0 -330 74q-84 78 -84 288v35q0 16 -1 44t-1 63zM233 442v158q2 80 2.5 169t0.5 189
v383q2 92 2 150.5v83.5q0 47 13 86t47 65.5t90 41.5q49 12 122 12h20q86 -2 140.5 -2h83.5q14 0 24 1t19 1h14h22q108 0 185 -37q84 -41 84 -168v-2h39v-123h-39h-119v88q-2 84 -57 102q-48 15 -137 15h-21h-98h-99q-33 0 -67.5 -3t-71.5 -7q-74 -8 -76 -107
q0 -272 -1 -541.5t-3 -541.5q0 -102 64 -123q68 -23 116 -23h109q16 2 43 2h66q22 -2 43 -2q66 0 120 19q72 29 74 127v69v17q0 73 -31 107q-33 34 -128 34h-21h-164l-2 279h215h37q287 0 324 -119q41 -129 47 -273h-64h-61q0 4 -1 43t-10 82q-10 39 -34.5 72t-85.5 51
q-76 24 -141 24q-14 0 -27 -1q-39 -2 -59.5 -2t-22.5 2q0 2 0 -15.5t2 -17.5q34 2 64 2q122 0 169 -27q59 -35 78 -55q12 -16 18.5 -33.5t10.5 -31.5q4 -18 6 -33v-97q1 -48 1 -80t-1 -49q-16 -141 -94 -174q-39 -16 -89.5 -26t-113.5 -13h-277q-160 2 -229.5 55.5
t-69.5 196.5z" />
    <glyph glyph-name="H" unicode="H" horiz-adv-x="1372" 
d="M82 41v1894h147v-120h-28v-1653h28v735h13l106 -20l2 -836h-162h-106zM229 852v162h926l2 -852h27v1653h-29v-773h-926v893h121v-770l684 2v768h273v-1894h-273v852l-686 2l-119 2v-45z" />
    <glyph glyph-name="I" unicode="I" horiz-adv-x="370" 
d="M80 1935h135h137v-1742h-121v1619h-28v-1650h28v31h121v-152h-270z" />
    <glyph glyph-name="J" unicode="J" horiz-adv-x="1193" 
d="M82 403v121h57h60v-123q2 -35 13 -72.5t34 -82.5q44 -84 269 -84h11h166q184 0 256 59.5t72 179.5v104.5t-2 160.5v419l-4 314v172q-2 37 -2 92v127v145h61h64v-77q2 -39 2 -110v-177v-303v-387v-336v-142q0 -213 -86 -288q-80 -74 -333 -74h-26h-172h-13q-268 0 -349 78
q-78 82 -78 274v10zM199 403v121h153v-69q0 -100 72 -125q58 -20 132 -20q17 0 36 1h51t-4 -2h47q47 0 115 23q61 20 65 123v57q0 29 -1 71t-1 101v510v510v231h58h57h33v-120h-33v-216q2 -106 2 -224v-247q2 -129 2 -246.5v-226.5q0 -53 1 -93t1 -66v-54q0 -143 -69.5 -196
t-229.5 -56h-156h2q-123 2 -206 39q-80 35 -90 174h-37z" />
    <glyph glyph-name="K" unicode="K" horiz-adv-x="1189" 
d="M80 41q2 475 2 946v948h147v-53v-67h-26q1 -414 1 -827t-1 -826h26l2 -121h-151zM229 276.5v221.5v460h70h49q111 0 176 -102q35 -51 71 -112.5t75 -137.5q39 -74 76.5 -141.5t70.5 -125.5t58.5 -103.5t39.5 -73.5h35q-10 18 -33.5 61t-64.5 109q-41 68 -79 137.5
t-73 140.5q-90 184 -154.5 266t-137.5 87q10 0 20 2t23.5 5t31.5 13q127 59 183 191q57 129 79 217q10 41 31 98l49 133q59 152 170 152v26q-121 -4 -184 -147t-92 -262q-37 -147 -119 -277q-78 -129 -252 -133h-119v834v120h123l-4 -829h9q34 0 65 14q35 16 63.5 42
t52 60.5t42.5 71.5q18 37 31.5 72t23.5 64q10 33 18 63q23 66 45.5 137.5t44.5 149.5q45 154 263 157h24t37 -2h45v-282l-68 2h-7q-39 -1 -67 -21q-32 -22 -55.5 -59t-40 -83t-27.5 -89t-19.5 -80t-12.5 -55q-10 -39 -29.5 -86t-46.5 -101q-51 -106 -155 -125
q94 -33 161 -176l101 -202l289 -537h-144h-139q-8 10 -18 29q-10 14 -24.5 36.5t-33.5 51.5q-78 119 -160 303l-79 166q-23 47 -48.5 85t-54.5 66q-23 23 -39 34t-26 15q-12 6 -21 7v-125v-273q2 -74 2 -141.5v-130.5q0 -31 1 -53.5t1 -38.5v-31h-121q-2 123 -2 235.5z" />
    <glyph glyph-name="L" unicode="L" 
d="M80 1935h135h137v-1624h735l3 -118l-859 -3v1622h-28v-1650h764v31h123l-3 -31v-121h-1005z" />
    <glyph glyph-name="M" unicode="M" horiz-adv-x="1880" 
d="M80 41l2 1894h362l119 -485l373 -1049l371 1051l127 483h358l-2 -1894h-268l-2 1329l18 80l90 246l-108 -244l-445 -1411h-280l-445 1411l-106 244l88 -246l18 -80v-1329h-270zM203 162h26v1622h60l137 -330l494 -1292h30l496 1288l135 334h59v-1622h29v1653h-108
l-146 -365l-479 -1257l-481 1263l-146 359h-106v-1653z" />
    <glyph glyph-name="N" unicode="N" horiz-adv-x="1396" 
d="M80 41v1894h321l625 -1290l109 -244l-88 246v1288h131l-11 -1724l-923 1604h-31v-404v-1249h27v1208v402l927 -1610h31l2 1653h-22v120h151v-1894h-123h-200l-625 1208l-109 244l88 -246v-1206h-280z" />
    <glyph glyph-name="O" unicode="O" horiz-adv-x="1427" 
d="M80 545v336v387v303q0 213 82 287q81 75 319 75h6h512v-121h-430q-31 1 -59 1q-181 0 -238 -56q-66 -66 -65 -186v-41q0 -20 -1 -49t-1 -70l-4 -364v-199.5t-2 -194.5v-250q0 -121 71.5 -182t255.5 -61h385h20q220 0 261 86q45 88 45 157l-4 1168v7q0 179 -100 204
q-51 12 -84 19t-50 11v121q188 -4 275 -73q84 -70 84 -279v-10v-1168q0 -203 -82 -284q-82 -78 -350 -78h-13h-153h-236q-274 0 -358 76q-84 78 -84 286v35q0 16 -1 44t-1 63zM233 442v158q2 80 2.5 169t0.5 189v383q2 92 2 150.5v83.5q0 47 13 86t47 65q34 28 90 42
q49 13 122 12h20q56 -1 106 -1h48q70 1 119 1h104h22q109 0 185 -37q84 -37 86 -168l4 -1133q-4 -166 -84 -206q-80 -41 -215 -43h-28q-14 0 -34 -1.5t-48 -1.5h-119t-144 3q-80 0 -136 12t-93 40.5t-53.5 77t-16.5 119.5zM352 455q0 -144 178 -144h2h175h139q24 -1 46 -1
q116 0 148 36q41 47 43 109v41q0 23 -1 53.5t-1 73.5v372v194.5t-2 178.5v170q0 37 -11 60.5t-35.5 37t-65.5 17.5t-103 4h-96h-197q-70 0 -143 -12q-72 -10 -72 -107v-61t-2 -125v-346v-181.5t-2 -169.5v-200z" />
    <glyph glyph-name="P" unicode="P" horiz-adv-x="1175" 
d="M80 41v1894q70 -2 162 -2h436q274 0 356 -75q86 -78 86 -287v-443q0 -213 -82 -288q-80 -74 -321 -74h-363l-2 -578h-121v699h252h152q31 -1 59 -1q181 0 238 56q66 66 67 186v160q2 82 2 152.5v132.5q0 119 -71.5 180.5t-255.5 61.5h-473v-1655h30v28h121v-28v-119h-272
zM231 1784h140h297q160 -2 229.5 -55.5t69.5 -196.5v-156v-252q0 -49 -14.5 -88t-48.5 -65.5t-89 -39.5q-48 -11 -117 -11h-22q-85 1 -161.5 1t-145.5 -1h-136zM354 1042h88q45 2 92.5 2h98.5q35 0 70.5 3.5t70.5 7.5q74 8 74 104v170v191q-4 143 -175 143h-5h-174h-140
v-621z" />
    <glyph glyph-name="Q" unicode="Q" horiz-adv-x="1425" 
d="M80 403v142v336v387v303q0 213 82 287q81 75 319 75h6h510l2 -121h-430q-31 1 -59 1q-181 0 -240 -56q-66 -66 -65 -186v-41q0 -20 -1 -49t-1 -70v-170t-2 -194v-199.5t-2 -194.5v-250q0 -61 16 -106t54 -76t101.5 -45t155.5 -14h310l165 -244l35 6l-164 238h37h20
q220 0 263 84q45 88 45 157l-6 1168v7q0 179 -98 204q-51 12 -84 19t-50 11l-2 121q190 -4 277 -73q82 -67 82 -270v-19v-1168q0 -164 -49 -245q-51 -86 -207 -107q8 -12 18 -26t22.5 -33t30.5 -45q18 -29 32 -47.5t24 -32.5q10 -16 18 -27q-86 -10 -153 -18
q-29 -4 -56.5 -8t-49 -7.5t-34.5 -6.5l-12 -3l-26 38q-27 38 -58 84t-58 84l-26 38h-100h-150q-274 0 -358 76q-84 78 -84 286zM233 442v158v358q2 100 2.5 195.5t0.5 187.5q2 92 2 150.5v83.5q0 49 14 87t48 65.5t89 41t139 13.5q67 -3 125 -3h29q70 1 119 1q57 0 104 2
q127 0 207 -39q84 -37 86 -168l4 -1133q-4 -166 -84 -206q-80 -41 -215 -43q-6 -2 -14 -3h-37q-68 96 -121 175q-23 33 -44 63.5t-38.5 55t-26.5 40.5l-10 15l-24 -17l9 -14q9 -14 24.5 -38t35 -53.5t41.5 -60.5q23 -31 42.5 -61.5t35.5 -52.5q18 -27 37 -52h-123t-160 3
q-160 0 -230 53q-67 52 -67 188v8zM352 455q0 -144 178 -144h2h56q-49 68 -86 121q-33 45 -59.5 84t-24.5 39q10 10 26 20q14 10 35 23.5t49 34.5q29 20 49.5 34.5t34.5 24.5q17 11 29 21q2 -8 10 -17q4 -8 13.5 -19t19.5 -28l94 -139q27 -37 50.5 -70.5t45.5 -66.5
q20 -29 35 -47q8 -8 11 -15q102 2 131 45q31 47 32 99v41q0 23 -1 53.5t-1 73.5v178t-2 194v373v170q-2 37 -12 60.5t-34.5 37t-65.5 17.5t-103 4h-96h-197q-70 0 -143 -12q-72 -10 -72 -107v-61t-2 -125v-165t-2 -181v-351v-200z" />
    <glyph glyph-name="R" unicode="R" horiz-adv-x="1267" 
d="M82 41v1892h162q78 0 188 -1h76q79 0 170 1q274 0 356 -75q86 -78 86 -287v-443q0 -184 -57 -262q-55 -82 -223 -96q12 -23 24 -49q10 -23 24.5 -55.5t31.5 -69.5q2 -10 10 -23q6 -10 14 -26.5t21 -38.5l98 -191l98 -190q10 -23 19.5 -39t15.5 -27q8 -12 10 -20h-280
q-57 86 -120 197.5t-116 236.5q-31 74 -65.5 149.5t-83.5 141.5h-187v-578l-121 -2v701h189h176q2 0 49 -78q23 -39 47.5 -84t48.5 -98q35 -72 72 -139.5t72 -133.5q76 -131 102 -188h35q-23 41 -51.5 93t-65.5 114q-35 63 -68.5 127.5t-62.5 130.5q-61 127 -102 192
q-23 37 -41 64h4q31 -1 59 -1q181 0 238 56q66 66 65 186v160q2 82 2 152.5v130.5q0 121 -70.5 182.5t-254.5 61.5h-473v-1655h30v26l121 2v-30v-117h-272zM231 1782h142q72 2 145.5 2h151.5q160 -2 229.5 -55.5t69.5 -196.5v-156v-252q0 -96 -62 -153q-55 -51 -208 -51h-23
q-84 1 -160 1t-145 -1h-138zM356 1040h23h26.5t38.5 2q45 2 91.5 2h97.5q35 0 71.5 3.5t71.5 7.5q72 10 72 104v170v191q0 143 -173 143h-5h-176h-138v-623z" />
    <glyph glyph-name="S" unicode="S" horiz-adv-x="1335" 
d="M80 524h272v-71q0 -96 72 -125q56 -19 124 -19q22 0 44 2h65.5t40.5 -2h111q47 0 115 23q63 20 63 121v32q0 16 -1 42t-1 61q-2 35 -2 60.5v41.5v35q-4 78 -51 96q-47 16 -107 21h-295h-27q-252 0 -333 73q-84 78 -84 287v80v291q0 211 82 287q81 75 320 75h6h329
q227 -4 336 -63q107 -54 107 -275v-24v-121h-277v88q-2 43 -16.5 66.5t-41 35t-66.5 14.5t-91 3h-196q-66 -4 -140 -12t-76 -107l-1 -45t-1 -98.5t-1 -98.5l-1 -45q0 -100 64 -120q68 -23 117 -23h106q16 2 43 2h68q56 -4 120 -5h44q45 0 94 1h8q143 0 205 -133
q20 -53 27.5 -107.5t7.5 -111.5v-177t-2 -106v-70q0 -213 -86 -288q-80 -74 -331 -74h-26h-190h-105h-13q-268 0 -349 78q-78 82 -78 274v10zM199 403q18 -158 102 -200q88 -41 205 -41h190h127q8 0 23 2q12 0 29.5 1t42.5 3q92 6 145 47q47 41 62.5 86t15.5 86v31.5
t-1 51.5t-2 63.5t-1 66.5q-2 78 -2 170q-2 8 -2 16q-2 8 -2.5 20.5t-2.5 29.5q-6 66 -61 106q-53 39 -124 47t-159 8h-87t-81 -2q-20 -2 -33.5 -2h-23.5h-20q-188 0 -246 68q-53 62 -53 191v18v13v36.5t1 54.5t1 62l4 168q0 4 2 12q2 6 2 15t4 22q8 51 61 86q27 16 59 25.5
t62.5 13.5t59 5t49.5 1q20 -2 57 -2h94h115h16q8 0 21.5 -1t30.5 -1q74 0 116 -21q47 -20 64.5 -39.5t25.5 -36.5q6 -16 14.5 -39.5t8.5 -68.5h39v17q0 140 -96 184q-92 42 -203 42q-14 0 -29 -1q-47 -4 -95 -4q-24 0 -50 1q-74 3 -144 3q-6 -2 -16 -2t-23.5 -1.5
t-29.5 -1.5q-72 -4 -119 -20q-88 -33 -113 -96q-14 -49 -18 -152q-2 -27 -2 -76t-2 -120v-144q0 -221 174 -229q174 -10 393 -12q215 -6 262 -50q45 -39 64 -102v-39v-50t2 -69l6 -211l-6 -67q-4 -66 -43 -109q-68 -74 -230 -76h-91t-126 3q-37 0 -63.5 1t-44.5 1h-35
q-94 2 -160.5 53t-72.5 155h-37z" />
    <glyph glyph-name="T" unicode="T" horiz-adv-x="1638" 
d="M82 1665v270h1479v-120v-29h-121v29h-633h-604v-29l604 2v-1622h31v1622l723 -2v-121h-605l-104 2l104 -18v-1608h-149h-62h-61v1624h-602z" />
    <glyph glyph-name="U" unicode="U" horiz-adv-x="1320" 
d="M80 403v240v526v527v239h278q0 -39 -1 -77.5t-1 -77.5h-118v35h-35v-50q0 -25 -1 -62.5t-1 -86.5v-212t-2 -237v-477v-287q0 -61 16 -106t54 -74.5t101.5 -45t155.5 -15.5h287h20q220 0 261 84q23 45 34 84t13 73v1532h57h59v-18v-37l3 -1477q0 -201 -82 -282
q-76 -80 -338 -80h-25h-104h-189q-274 0 -358 76q-84 78 -84 286zM233 442v209v459q2 127 2.5 241.5t0.5 219.5q0 53 1 91t1 64v54h59h59q1 -134 1 -267q0 -199 -2 -397q-3 -330 -3 -661q0 -98 64 -123q64 -21 108 -21h8h107h109q18 -1 36 -1q72 0 129 20q72 25 72 125v1427
v33v20h156v-82l-31 2v-57q0 -29 -1 -70.5t-1 -99.5v-238.5t-2 -261.5v-261t-2 -238v-226q-12 -137 -92 -174q-76 -33 -205 -36h-62q-33 1 -84 -1q-17 0 -37 -1q-40 0 -92 2q-162 0 -232 53q-68 52 -67 188v8z" />
    <glyph glyph-name="V" unicode="V" horiz-adv-x="1327" 
d="M82 1935h147l27 -120l-29 -3l324 -1652h266l285 1464l28 191l19 118l117 2l-338 -1894h-467zM229 1935h117l330 -1628h10l283 1434l30 194l150 -2l-19 -118h-30l-29 -193l-278 -1432h-215z" />
    <glyph glyph-name="W" unicode="W" horiz-adv-x="2244" 
d="M82 1935h147h117l330 -1628h10l283 1434l10 65l-25 129h148h117l329 -1628h13l280 1434l31 194h149h117l-338 -1894h-467l-215 1071l-190 -1071h-467zM227 1812l324 -1652h266l285 1464l14 100l21 -100l286 -1464h269l284 1464l27 191h-31l-26 -193l-281 -1432h-215
l-324 1625h-26l-29 -193l-278 -1432h-215l-324 1625z" />
    <glyph glyph-name="X" unicode="X" horiz-adv-x="1734" 
d="M80 41q2 8 10 20q6 10 14.5 26.5t20.5 39.5l98 190l101 191q10 23 19 39t15 26q8 12 11 23q45 111 92 199q20 37 41.5 72.5t43 64.5t43 47t42.5 20q-92 33 -164 181q-35 74 -59.5 127t-38.5 86l-289 555h282l19 -31q10 -16 23.5 -39t31.5 -51q39 -59 79 -137t83 -177
q16 -39 35.5 -81.5t42.5 -92.5q45 -94 102 -155q23 -25 39.5 -36t26.5 -15q12 -6 22 -5v-2v-127q-111 0 -178 105q-33 53 -68.5 116.5t-74.5 141.5q-39 76 -77 146.5t-70.5 131t-58.5 106.5t-40 77h-35q10 -20 34 -64.5t62 -113.5q41 -70 79 -141.5t73 -145.5
q45 -94 83 -162t72.5 -113t68.5 -66.5t71 -23.5h-5q-93 0 -171 -141q-41 -72 -70 -127t-49 -94q-53 -113 -120.5 -232.5t-127.5 -232.5h35l92 172q94 174 154 289q47 92 94 180t109 139q27 14 55 20.5t63 8.5v-125v-4l-45 -2q-8 -6 -18 -15.5t-25 -23.5q-57 -66 -99 -152
t-81 -178q-37 -86 -76 -161.5t-80 -141.5q-20 -35 -34.5 -58.5t-24.5 -39.5q-12 -20 -21 -33h-151h-131zM866 909v66q115 -4 178 -107q33 -53 69 -116.5t75 -141.5t77 -147.5t70.5 -129t58 -106.5t42.5 -77h32q-10 20 -33.5 63t-64.5 113q-39 70 -77 141.5t-72 146.5
q-45 94 -83 163t-73 113t-68.5 65.5t-70.5 23.5h5q95 0 171 139q41 72 69.5 128.5t49.5 94.5q55 111 121.5 232t125.5 233h-32q-8 -18 -23 -43q-23 -41 -72 -131q-47 -86 -85.5 -157.5t-67.5 -128.5q-45 -92 -93 -180.5t-108 -139.5h-2q-51 -27 -119 -27v129l45 2
q4 0 20.5 15.5t22.5 21.5q57 66 100.5 152t82.5 178q35 86 72.5 161t78.5 140q20 33 35.5 58.5t26.5 41.5q12 20 20 33h150h133q-2 -10 -11 -22q-6 -10 -15 -26.5t-19 -39.5l-101 -190l-98 -191l-43 -86q-45 -111 -92 -198q-20 -37 -42 -74t-44.5 -65.5t-45 -46t-40.5 -19.5
q92 -33 164 -182q35 -72 59.5 -125.5t40.5 -85.5l287 -555h-283l-18 30q-10 16 -24.5 38t-33.5 52q-74 121 -157 316l-80 172q-45 94 -103 155q-45 43 -65 54q-12 6 -21 4v16q0 8 -1 19.5t-1 27.5z" />
    <glyph glyph-name="Y" unicode="Y" horiz-adv-x="2011" 
d="M82 1935h139h144q8 -10 18 -28q10 -16 23.5 -39t31.5 -51q78 -119 160 -304l80 -167q45 -92 102 -150q23 -23 39.5 -34t26.5 -15q12 -6 20 -4q37 -2 74 -2h72v-123h-144q-115 0 -178 100q-33 51 -68.5 112.5t-74.5 137.5q-41 74 -79 141.5t-70.5 126t-58.5 103.5t-40 76
h-35q16 -35 98 -175q41 -66 79 -135t73 -141q76 -152 154 -264q72 -107 188 -107h12l119 -4l-2 -827h29v-70v-51h-150l2 827q-168 2 -266 125q-98 129 -231 406zM1012 989l118 4q12 0 93 21q84 23 188 209q16 29 35.5 64.5t38.5 76.5q35 72 71.5 141.5t77.5 134.5
q82 139 99 175h-35q-14 -31 -40 -76t-58.5 -103.5t-70.5 -126t-77 -141.5q-39 -76 -75 -137.5t-70 -112.5q-63 -100 -177 -100h-49h-69v108v-49v-47v111h69q12 0 21.5 1t15.5 1h12q10 -2 23 4q10 4 26.5 15.5t39.5 33.5q53 53 100 150l82 167q41 94 81 169t77 135
q18 29 32.5 51t24.5 39q10 18 18 28h283l-289 -536q-29 -61 -77 -152.5t-111.5 -176.5t-141.5 -144q-76 -58 -162 -58h-6l5 -827h-121v121z" />
    <glyph glyph-name="Z" unicode="Z" horiz-adv-x="1314" 
d="M78 403v21v24.5t2 34.5q0 20 1 34.5t1 25.5v20q14 16 35 39q16 18 42.5 46t61.5 67l305 338l308 336l141 153q-4 96 -76 105q-74 8 -139 12h-197h-69h-154h-156h-69v278q33 -2 86 -2h313h330q242 0 323 -75q84 -74 84 -287v-17q0 -8 -1 -18t-1 -27v-61q-74 -94 -223 -260
l-301 -330q-76 -82 -140.5 -153.5t-121.5 -131.5q-55 -57 -84 -90q-16 -18 -29 -30q0 -102 64 -123t108 -21h8h107h108h19q10 0 22.5 -1t30.5 -1h160h160h71v-268h-14q-8 0 -18.5 -1t-24.5 -1h-113t-225 2h-104h-189q-272 0 -358 74q-84 78 -84 288zM197 389q0 -43 14 -88
t65 -86t144 -47q23 -2 41 -3t31 -1q14 -2 22 -2h125h192h263v33h-115h-113h-35q-18 0 -45.5 -1t-62.5 -1q-70 -2 -124 -2t-91 2q-162 0 -229 73q-39 43 -43 109q-2 16 -2.5 28.5t-0.5 22.5q0 8 -2 16v9q0 10 2 20q0 8 1.5 13t1.5 10v8q14 16 34 39q16 18 43 46.5t62 67.5
q70 78 145.5 163t159.5 177l307 340q35 39 61.5 68t45.5 49q20 23 34 39l-2 55q-4 104 -18 150q-25 63 -113 96q-45 18 -118 23q-16 0 -29.5 1t-22.5 1h-16h-92h-199h-199h-90q0 -10 1 -15.5t1 -9.5v-8h21q10 0 24.5 -1t34.5 -1h181h190h73.5t39.5 2q39 0 106 -6
q70 -6 121 -39q51 -35 61 -86q2 -12 4.5 -21.5t4.5 -15.5q2 -8 2 -12v-13q0 -6 -1 -15t-1 -22v-49q-14 -16 -35 -39q-18 -20 -45 -48.5t-62 -67.5q-70 -78 -145.5 -163t-161.5 -179l-305 -342q-35 -39 -61.5 -68t-43.5 -47q-20 -23 -34 -39v-16q0 -8 -1 -18.5t-1 -26.5v-62z
" />
    <glyph glyph-name="bracketleft" unicode="[" horiz-adv-x="999" 
d="M39 860v47q2 25 2 43.5v30.5h8q10 0 21 2h26.5t28.5 2t31 4l6 -10q117 -4 174 -92q33 -53 68.5 -115.5t76.5 -138.5q35 -70 73 -137.5t77 -135.5q39 -66 63.5 -110.5t36.5 -67.5h19h16q-16 31 -98 172q-45 76 -84 146.5t-72 136.5q-94 193 -156 268q-66 86 -141 88l23 2
q18 2 55 19q129 57 186 192q51 125 80 221q18 78 80 236q61 154 172 154v26q-121 -4 -186 -149q-66 -150 -93 -267q-20 -74 -49.5 -143.5t-70.5 -134.5q-70 -123 -224 -135v-37h-16q-6 0 -10 2l-6 10q-6 -2 -15 -2q-8 -2 -18 -2t-25 -2l-57 -2v156l115 2q80 -4 139 55
q29 29 52.5 62.5t43.5 72.5q39 78 55 139l19 64q20 66 43.5 138.5t48.5 152.5q45 156 264 159q10 0 25.5 -1t40.5 -1h43v-286l-68 2q-66 4 -106 -49q-41 -49 -68 -117q-10 -35 -20.5 -67.5t-18.5 -65.5l-20 -94q-10 -37 -29.5 -84.5t-46.5 -104.5q-53 -109 -158 -127
q94 -33 164 -176q35 -74 60.5 -125t39.5 -84l293 -543h-143h-141l-78 119q-39 57 -79 133t-83 174l-80 168q-47 94 -104 154q-53 49 -68 49z" />
    <glyph glyph-name="backslash" unicode="\" horiz-adv-x="1579" 
d="M158 1231q66 190 237 328q176 137 408 133q281 -4 452 -166q172 -164 209 -379q41 -215 -73 -428q-111 -211 -402 -309l-115 -170l-16 8q-8 4 -19.5 9t-27.5 15l-137 78q-37 23 -71 42.5t-66 35.5q-59 33 -68 41q-242 150 -309 358q-66 219 -2 404zM332 1159l65 -295
l19 -133l45 -12l90 29l-82 272l152 -150l69 21l51 205l43 -258l33 -19l98 35l-133 442l-86 -32l-73 -269l-226 207zM682 612l16 -30l15 8l32 -51l41 18l-32 53l20 13l-8 24l-29 -6l-6 14l33 52l-37 16l-41 -70l8 -28zM768 670l49 -95l41 19l-33 63l37 9l-14 39zM854 715
l70 -84l88 43l-60 96l-34 -18l36 -64l-14 -16l-45 67zM854 1313l107 -385l-5 -47l33 -13l96 29l-45 150l201 -115h29l53 90l-158 84l45 2l50 86l-39 141l-105 56zM944 809l84 -127l29 16l-8 31l30 -20l21 14l2 29l-43 12l14 41l-33 12l-16 -45l-41 53zM983 1245l104 33
l37 -21l2 -40l-120 -56zM1065 868l18 -32l-16 -9l16 -22l13 4l30 -59l25 -5l45 27l-2 25l-27 4l-16 -13l-23 31l23 12l-12 29l-23 -8l-16 29zM1157 874l17 -30l45 30l6 -10l-41 -26l-2 -19l24 -33h19l82 43l-62 84h-24zM1225 834l22 18l6 -16l-22 -19z" />
    <glyph glyph-name="bracketright" unicode="]" horiz-adv-x="999" 
d="M39 59l293 543q14 33 39.5 84t60.5 125q70 141 166 176q-104 18 -158 127q-29 57 -48 104.5t-30 84.5l-20 94q-8 33 -18.5 65.5t-20.5 67.5q-29 68 -67 117q-41 53 -107 49l-68 -2v286h45q20 0 37 1t27 1q217 -2 266 -159q23 -80 46.5 -153t43.5 -138l19 -64
q16 -63 55 -139q20 -37 44 -70.5t52 -64.5q59 -59 140 -55l116 -2v-156q0 -2 -59 2q-16 2 -25.5 2t-17.5 2q-8 0 -14 2l-7 -10q-6 -2 -10 -2h-14v37q-152 12 -225 135q-86 135 -119 278q-29 117 -94 267q-68 147 -187 149v-26q113 0 172 -154q29 -76 50.5 -135.5
t31.5 -100.5q12 -45 31.5 -100t46.5 -121q57 -133 186 -192q33 -14 58 -19l20 -2q-74 -2 -139 -88q-66 -82 -158 -268q-37 -74 -75.5 -143.5t-77.5 -139.5l-101 -172h19h16l100 178q39 68 77 135.5t73 137.5q78 145 147 254q57 88 172 92l7 10q16 -2 30 -4q12 -2 26.5 -2
h29.5q8 -2 20 -2h10v-74v-47l-137 -4q-14 0 -65 -49q-59 -57 -107 -154q-23 -47 -42 -90t-38 -78q-45 -100 -86 -177t-76 -130l-75 -119h-144h-143z" />
    <glyph glyph-name="a" unicode="a" horiz-adv-x="1060" 
d="M63 33l355 1515h373l221 -1515h-92l-17 96l-22 152l-179 1173h-213l-307 -1325h23l-21 -96h-121zM184 33l56 250h616l39 -250h-96l-25 155h-465l-33 -155h-92zM244 307l268 1123h172l170 -1123h-610zM365 403h376l-143 930h-10z" />
    <glyph glyph-name="b" unicode="b" horiz-adv-x="942" 
d="M63 33l3 1515l477 -2q199 0 276 -53q78 -53 78 -236v-155q0 -125 -15.5 -177.5t-47.5 -62.5l-5 4q35 -14 51.5 -52t16.5 -124v-366q0 -170 -70 -232q-70 -59 -284 -59h-480zM162 129h377q72 0 168 25q94 28 94 164v6q-2 70 -2 131v114v109q2 16 0 35q-2 16 -5 33.5
t-12 35.5q-29 53 -67 66q-10 4 -17.5 5t-11.5 3q-6 2 -10 4q92 23 106 82q16 66 17 160v127q0 20 2 28q-2 2 -2 11q0 6 -1 14t-1 21q-2 43 -31 77q-31 35 -82 53.5t-145 18.5h-236h-141v-1323zM184 154l2 692h27q14 0 33.5 -1t48.5 -1q37 -1 76 -1h41q62 1 129 3h11
q126 0 173 -43q49 -45 49 -123v-203v-123q0 -115 -56 -157.5t-181 -42.5q-63 -2 -123 -2h-117q-29 0 -49.5 1t-34.5 1h-29zM184 866l2 555h109h246h21q118 0 163 -42q49 -46 49 -122v-188q0 -115 -56 -159t-181 -44h-240h-113zM283 248h110h142h9q132 0 132 114v152
q2 45 2 80v57q0 74 -60 84q-29 4 -56 6t-56 2h-154q-18 0 -30.5 1t-22.5 1h-16v-497zM283 963h110h142h9q132 0 132 114v82v70q0 78 -58 86q-29 4 -56 6t-56 2h-154h-69v-360z" />
    <glyph glyph-name="c" unicode="c" horiz-adv-x="1062" 
d="M63 432v268v312v243q0 168 66 228q68 61 260 61h264q180 0 271 -49q84 -46 84 -217v-23v-96h-95v96v15q-1 67 -33 103q-36 40 -84 56.5t-91 17.5t-54 1h-58.5t-39.5 -2h-98q-29 2 -55 2q-137 0 -183 -45q-51 -49 -51 -148v-32q0 -16 -1 -40t-1 -57v-138.5t-2 -153.5
q-2 -82 -2 -160v-154v-201q0 -98 57 -145t205 -47h229h19q171 0 207 68q37 70 36 124v97h48h47v-97q0 -160 -66 -225q-65 -65 -282 -65h-7h-84h-149q-219 0 -287 61t-67 229v29q0 14 -1.5 34.5t-1.5 49.5zM186 352v127q2 63 2 135v152v305q2 72 2 119v67q0 76 50 121
q47 43 173 43h11q45 -1 80 -1h31q43 1 69 1h45q98 0 164 -30q66 -27 70 -134v-2h30v-96h-32h-95v70q-2 66 -44 80t-128 14h-79h-76q-27 0 -55.5 -2t-57.5 -6q-59 -10 -59 -86q-2 -217 -3 -434t-1 -435q0 -78 49 -98q50 -16 86 -16h8h86h88q18 -1 36 -1t36 1q35 2 61.5 14
t42 35.5t15.5 64.5v56h122v-97h-28q-6 -55 -24.5 -87.5t-48.5 -51t-72 -23.5t-93 -5h-49q-27 0 -69 -1h-30q-32 0 -73 1q-127 0 -183.5 43t-56.5 157z" />
    <glyph glyph-name="d" unicode="d" horiz-adv-x="1042" 
d="M63 33v233v522v523v237q92 -2 172 -3t148 -1q70 2 149.5 2h172.5v-96q-45 -1 -102 -1h-59q-93 1 -179 1q-98 0 -203 2v-209v-455v-452v-207h18q10 0 22.5 -1t30.5 -1h162h164h74h20q172 0 205 68q33 70 37 127l-6 935v7q0 139 -78 161q-80 23 -106 25v96q147 -2 219 -59
q65 -49 65 -207v-23v-935q0 -162 -65 -228q-61 -61 -258 -61h-31h-320h-252zM186 154v198v436q2 121 2 229.5v209.5q0 49 1 87t1 62v49h17q8 0 21.5 -1t29.5 -1h152h151h70q98 0 166 -30q68 -29 67 -136l2 -903q0 -131 -65 -166q-66 -35 -172 -36h-70h-153q-41 2 -79 2h-73
h-68zM283 248l297 2q23 -2 44 -2q86 0 111 28q33 33 37 86v33q0 16 -1 42t-1 61v299v155.5t-2 141.5v137q-2 59 -37 77q-29 15 -101 16q-16 0 -34 -1h-205q-27 0 -46 1t-32 1h-26z" />
    <glyph glyph-name="e" unicode="e" horiz-adv-x="913" 
d="M63 33l3 1515h804v-96l2 -25h-98v25h-612v-1321l612 -2v23h-590v696h590v20l-590 4v555h688l-2 -96h-587v-362l587 -2v-217h-587v-500l587 -2v-213q-205 0 -403.5 -1t-403.5 -1z" />
    <glyph glyph-name="f" unicode="f" horiz-adv-x="913" 
d="M63 33l3 1515h804v-96l2 -25h-98v25h-612v-1321h22v717l590 -2v22l-590 4v555h688l-2 -96h-587v-362l587 -2v-217h-587v-717h-111h-109z" />
    <glyph glyph-name="g" unicode="g" horiz-adv-x="1062" 
d="M63 436v269v309v243q0 168 66 228q68 61 260 61h264q182 -4 271 -51q84 -44 84 -215v-23v-98h-95v98v15q0 67 -33 103q-36 40 -84 56.5t-91 17.5t-54 1h-98h-98q-20 1 -38 1q-153 0 -200 -46q-51 -49 -51 -148v-32q0 -16 -1 -40t-1 -57l-4 -292v-314v-200
q0 -98 57 -145.5t205 -47.5h229h18q172 0 205 74q35 74 39 119l-2 133h50h51l-4 -131q0 -164 -66 -230q-61 -61 -258 -61h-31h-84h-151h-14q-203 0 -271 57q-68 61 -67 234v28q0 14 -1.5 35t-1.5 49zM186 354v127q2 63 2 135v152v305q2 74 2 120v67q0 76 50 122
q45 41 163 41h21q45 -1 80 -1h31q43 1 69 1h45q49 0 91 -5t74 -23.5t49.5 -51t17.5 -83.5v-3h32v-98h-32h-95v72q-2 68 -44 81q-36 11 -106 11h-22h-79h-78q-27 0 -54.5 -2t-56.5 -6q-57 -6 -61 -84q0 -217 -1 -433t-1 -433q0 -82 49 -101q55 -16 94 -16h86q12 2 33.5 2
h54.5q25 -3 48 -3q12 0 24 1q35 2 60.5 14t42 37t16.5 66v55v9q0 61 -27 89q-26 27 -99 27h-20h-131l-2 223h172q19 1 36 1q224 0 253 -95q33 -98 39 -219h-51h-50q0 4 -1 34.5t-7 65.5q-8 31 -27.5 57.5t-68.5 40.5q-70 19 -129 19h-6q-30 -2 -47 -2t-19 2q0 2 0 -12.5
t2 -14.5q30 2 57 2q91 0 130 -22q45 -29 61 -43q10 -12 15.5 -26.5t9.5 -25.5q4 -14 4 -26v-78q2 -39 2 -64.5t-2 -37.5q-12 -115 -76 -142q-61 -29 -162 -30h-221q-127 2 -183.5 45t-56.5 157z" />
    <glyph glyph-name="h" unicode="h" horiz-adv-x="1097" 
d="M66 33v1515h118v-96h-24v-1323h24v588h9l86 -17l2 -667h-129h-86zM184 682v129h740l2 -682h20v1323h-22v-618h-740v714h97v-616l546 2v614h217v-1515h-217v682l-548 2h-95v-35z" />
    <glyph glyph-name="i" unicode="i" horiz-adv-x="296" 
d="M63 1548h109h111v-1394h-99v1296h-22v-1321h22v25h99v-121h-217z" />
    <glyph glyph-name="j" unicode="j" horiz-adv-x="954" 
d="M66 324v96h47h47v-98q0 -55 37 -125q35 -68 206 -68h19h131q147 0 204.5 47t57.5 146v210v336l-4 250v139q-2 29 -2 72v103v116h49h51v-61q0 -35 1 -90.5t1 -139.5v-243v-309v-269v-112q0 -172 -69 -234q-68 -57 -273 -57h-14h-137h-26q-203 0 -265 61q-61 61 -61 207v23
zM160 324v96h123v-55q0 -82 57 -103q43 -14 96 -14q18 0 37 2h42t-3 -2h37q37 0 92 16q51 18 51 101v184v405v408v186h45h45h27v-96h-27v-172q2 -86 2 -179v-198q2 -104 2 -198.5v-180.5q0 -43 1 -73.5t1 -53.5v-43q0 -115 -56 -157.5t-183 -44.5h-125h2q-102 2 -166 30
q-61 27 -72 142h-28z" />
    <glyph glyph-name="k" unicode="k" horiz-adv-x="952" 
d="M63 33q2 381 2.5 756.5t0.5 758.5h118v-43v-53h-22q2 -331 2 -661.5t-2 -661.5h22v-96h-121zM184 33v733h56h39q90 0 141 -82q27 -41 55.5 -90t61.5 -109q61 -119 116.5 -214t79.5 -142h27q-8 16 -26.5 50t-51.5 87t-62.5 108.5t-58.5 112.5q-74 147 -125 213t-110 70
q8 0 16 2q18 4 45 14q100 45 145 152q23 53 38.5 96t25.5 78q8 33 24.5 80t38.5 106q49 121 138 121v21q-98 -4 -150 -119q-27 -57 -44 -109.5t-28 -99.5q-31 -111 -96 -221q-63 -104 -200 -107h-95v668v96h99l-4 -663h7q36 -1 68 19q34 22 62 55.5t47.5 74.5t33 76t19.5 60
l6 24q16 53 34.5 109.5t37.5 119.5q39 125 211 127h20.5t28.5 -2h35v-225h-53h-5q-48 0 -79 -37q-33 -39 -53.5 -92t-31 -105.5t-16.5 -74.5q-14 -57 -59 -148q-43 -86 -125 -100q76 -29 129 -141l80 -162l231 -430h-225l-61 92q-29 47 -61 107.5t-66 136.5
q-12 29 -28.5 63.5t-35 69.5t-39 66.5t-43.5 54.5q-18 18 -31.5 27t-21.5 14q-10 4 -16 4v-101v-217q2 -59 2 -113.5v-105.5q0 -25 1 -43t1 -31v-24h-99z" />
    <glyph glyph-name="l" unicode="l" horiz-adv-x="913" 
d="M63 1548h109h111v-1298h587l2 -96l-688 -2v1298h-22v-1321h612v25h98l-2 -25v-96h-804z" />
    <glyph glyph-name="m" unicode="m" horiz-adv-x="1503" 
d="M63 33l3 1515h290l95 -389l299 -837l294 839l103 387h287l-2 -1515h-215v1063l14 63l72 197l-86 -195l-357 -1128h-225l-354 1128l-86 195l71 -197l15 -63v-1063h-218zM162 129h22v1298h47l109 -264l395 -1034h25l397 1030l109 268h47v-1298h22v1323h-86l-116 -293
l-383 -1005l-385 1011l-117 287h-86v-1323z" />
    <glyph glyph-name="n" unicode="n" horiz-adv-x="1118" 
d="M63 33v1515h259l499 -1032l86 -194l-69 196v1030h104l-8 -1380l-739 1284h-25v-324v-999h23v967v321l741 -1288h24l3 1323h-19v96h121v-1515h-98h-160l-500 966l-88 195l72 -197v-964h-226z" />
    <glyph glyph-name="o" unicode="o" 
d="M63 436v269v309v243q0 170 66 230q70 59 260 59h410v-96h-344q-20 1 -38 1q-154 0 -200 -46q-51 -49 -51 -148v-32q0 -16 -1 -40t-1 -57l-4 -290v-316v-198q0 -98 57 -147.5t205 -49.5h307q193 0 225 70q35 74 35 127l-2 933q0 147 -82 168q-80 23 -106 25v96
q154 -4 219 -59q67 -53 67 -216v-14v-933q0 -164 -65 -230q-61 -61 -258 -61h-31h-123h-188q-217 0 -287 59q-68 61 -67 232v28q0 14 -1.5 35t-1.5 49zM186 354v127q2 63 2 135v152v305q2 74 2 120v67q0 76 50 122q46 42 163 41h21q45 -1 84 -1h38q54 1 95 1h84q49 0 92 -5
t75 -23.5t50.5 -51t18.5 -83.5l2 -906q0 -131 -66 -166q-33 -16 -76 -24t-96 -10h-88q-41 0 -95 -1h-38q-38 0 -78 1q-127 0 -183.5 43t-56.5 157zM283 365q0 -115 138 -115h5h139h111q23 -2 44 -2q86 0 111 28q31 35 35 89v32q0 16 -1 42t-1 61v297v297v137q-2 59 -38 77
q-32 17 -115 17h-19h-78h-157q-29 0 -57.5 -3t-57.5 -7q-57 -8 -57 -84v-48t-2 -102v-276v-281v-159z" />
    <glyph glyph-name="p" unicode="p" horiz-adv-x="940" 
d="M63 33v1515q55 -2 130 -2h350q217 0 284 -61q70 -57 70 -228v-354q0 -170 -66 -231q-66 -59 -258 -60h-290v-460h-99v557h203h121q20 -1 38 -1q153 0 199 46q53 53 54 149v127q2 66 2 122v105q0 98 -57.5 146.5t-204.5 48.5h-379v-1325h24v25h99v-25v-94h-220zM184 1427
h113h238q127 -2 183 -45t56 -157v-125v-201q0 -76 -49 -121q-47 -43 -173 -43h-11q-67 1 -129 1t-117 -1h-109zM283 834h69q35 2 74 2h80q29 0 56.5 2t55.5 6q59 10 60 84v135v154q-4 114 -141 114h-2h-142h-110v-497z" />
    <glyph glyph-name="q" unicode="q" horiz-adv-x="1140" 
d="M63 324v112v269v309v243q0 170 66 230q66 59 260 59h410v-96h-344q-20 1 -38 1q-153 0 -200 -46q-53 -49 -53 -148v-32q0 -16 -1 -40t-1 -57v-135.5t-2 -154.5v-316v-198q0 -98 56 -148q54 -47 194 -47h12h246l133 -195l28 5l-131 190h29h20q172 0 205 68q37 70 37 127
l-4 933v7q0 140 -80 161q-80 23 -106 25v96q154 -4 219 -59q67 -53 67 -216v-14v-933q0 -66 -8 -115t-31.5 -83t-63.5 -55.5t-101 -29.5q6 -8 14 -21q8 -10 17.5 -26.5t25.5 -36.5q14 -23 24.5 -38t18.5 -25l14 -21l-37 -5q-38 -5 -84.5 -11.5t-84 -11.5t-37.5 -7
q-2 -2 -22.5 29t-45.5 67l-66 99h-81h-119q-215 0 -287 59q-68 61 -68 232zM186 354v127v287q2 80 2 156.5v148.5q2 74 2 120v67q0 78 50 122q47 43 171 43h11q54 -3 100 -3h23q55 1 96 1q47 0 84 2q49 0 91 -6t74 -24.5t50 -51t18 -83.5l5 -906q-4 -133 -68 -166
q-33 -16 -76 -24t-96 -10q-6 -2 -12 -2h-29l-14 22q-15 21 -36.5 51.5t-46 66.5t-46 66.5t-35.5 51.5l-15 20l-18 -12q-2 0 11.5 -20.5t33 -49.5t43 -63.5t45 -63t34.5 -49.5l13 -20h-99t-128 2q-127 0 -184 43q-54 42 -54 149v8zM283 365q0 -115 138 -115h5h45l-21 30
q-22 29 -48.5 66t-47.5 68l-20 30q10 6 22 15q10 8 26.5 19t39.5 28q23 16 40 27.5t27 19.5q12 8 23 16l111 -159q20 -31 40.5 -59.5t36 -51.5t25.5 -36l10 -13q43 0 67.5 10t39 25.5t19.5 36t5 43.5v32q0 16 -1 42t-1 61v297v297v137q-4 59 -38 77q-32 17 -115 17h-19h-78
h-157q-29 0 -57.5 -3t-57.5 -7q-57 -8 -57 -84v-48t-2 -102v-276v-281v-159z" />
    <glyph glyph-name="r" unicode="r" horiz-adv-x="1013" 
d="M66 33v1513h129q61 0 149 -1h61q64 0 138 1q217 0 284 -61q70 -57 70 -228v-354q0 -74 -10 -125t-35 -85t-69 -52t-111 -25q8 -16 18 -38q10 -18 21.5 -45t23.5 -56l8 -16q4 -10 10.5 -23.5t16.5 -29.5l80 -154q45 -84 80 -154q8 -16 15 -29.5t11 -21.5l9 -16h-224
q-47 70 -97 159t-91 189q-25 57 -53.5 118.5t-67.5 112.5h-149v-460l-97 -2v559h152h141q18 -29 39 -62q16 -29 35.5 -66.5t40.5 -78.5q29 -57 57.5 -111.5t57.5 -105.5t50 -89t32 -63h28q-35 68 -93 166t-105 205q-25 51 -45.5 89t-36.5 64q-18 31 -33 52h4q19 -1 37 -1
q152 0 198 46q53 53 54 149v127q2 66 2 122v105q0 98 -56.5 146.5t-203.5 48.5h-379v-1325h24v23l97 2v-25v-94h-217zM184 1425h113q57 2 116.5 2h123.5q127 -2 182 -45t55 -157v-125v-201q0 -76 -49 -121q-47 -43 -173 -43h-11q-68 1 -129.5 1t-116.5 -1h-109zM285 831h16
h22.5t30.5 3q35 2 73 2h79q29 0 57.5 2t57.5 6q57 8 57 84v135v154q0 114 -139 114h-2h-142h-110v-500z" />
    <glyph glyph-name="s" unicode="s" horiz-adv-x="1069" 
d="M63 420h220v-58q0 -41 15 -64.5t42 -35.5q28 -12 62 -14q12 -1 23 -1q24 0 48 3h54.5t31.5 -2h88q37 0 92 16q51 18 52 98v27q0 14 -1.5 33.5t-1.5 48.5q-2 27 -2 47.5v34.5v27q0 31 -11 49t-28.5 28.5t-40 13.5t-47.5 3h-235h-14q-205 0 -273 57q-68 61 -67 232v294
q0 170 65 230q63 61 260 61h264q180 -2 269 -51q84 -44 84 -216v-24v-96h-221v72q-2 66 -44 80t-129 14h-155q-27 -2 -55.5 -4t-57.5 -6q-59 -6 -59 -84l-1 -36q-1 -36 -1 -79t-1 -78l-1 -36q0 -80 51 -99q55 -16 92 -16h86h88q44 -4 96 -5h36q36 0 75 1h4q116 0 166 -105
q16 -43 22.5 -86t6.5 -90v-141t-2 -84v-55q0 -172 -68 -234q-68 -57 -273 -57h-14h-151h-84h-26q-203 0 -265 61q-61 61 -61 207v23zM160 324q16 -129 82 -162t164 -33h151h102q8 2 19 2h23.5t31.5 2q78 6 117 39t51 68.5t12 68.5q0 16 -1 66.5t-3 103.5q-2 63 -2 137
q-2 6 -2 15q-2 6 -2 15t-2 24q-4 53 -47 84t-99.5 38t-127.5 7h-69t-66 -2q-16 -2 -27.5 -2h-20.5h-14q-74 0 -122 13t-74 41q-24 28 -34 70q-7 32 -8 71q0 12 1 26v41q0 41 1 92t2 92l1 41q0 4 2 10q0 4 1 12.5t3 18.5q6 39 49 68q43 27 97 31.5t87 4.5q16 -2 46 -2h75h92
h15q6 0 15 -1t23 -1q51 0 95 -16q37 -16 51 -31.5t20 -27.5q4 -14 11.5 -33t7.5 -55h31v6q0 120 -78 155q-72 33 -165 33h-20q-37 -4 -76 -4q-19 0 -39 1q-60 3 -116 3q-6 -2 -14 -2t-17.5 -1t-23.5 -1q-29 -2 -51.5 -5t-43.5 -11q-72 -29 -90 -78q-8 -20 -11 -50t-5 -71
v-59t-2 -99v-114q0 -172 139 -183q72 -4 149.5 -6t163.5 -4q172 -2 209 -39q39 -35 54 -82v-33v-39.5t2 -54.5q2 -63 2 -104t2 -64q-2 -6 -2 -14q0 -6 -1 -16.5t-1 -22.5q-4 -53 -35 -88q-55 -59 -184 -61h-73t-102 2q-29 0 -50 1t-36 1h-28q-76 2 -129 44t-58 124h-28z" />
    <glyph glyph-name="t" unicode="t" horiz-adv-x="1310" 
d="M66 1331v217h1183v-96v-22h-98v22h-506h-483v-22h483v-1297h25v1297h579v-99h-483l-84 2l84 -14v-1286h-121h-49h-49v1298h-481z" />
    <glyph glyph-name="u" unicode="u" horiz-adv-x="1056" 
d="M63 324v190v422v420v192h224q0 -31 -1 -62.5t-1 -62.5h-95v29h-28v-41q0 -20 -1 -49t-1 -70v-358v-381v-229q0 -98 56 -146.5t206 -48.5h229h19q170 0 204 68q35 68 39 127v1224h45h48v-14v-31l2 -1179q0 -162 -66 -228q-63 -63 -272 -63h-19h-84h-149q-215 0 -287 59
q-68 61 -68 232zM186 354v166v369q2 100 2 191v175q0 41 1 73t1 54v41h48h47q1 -133 1 -265.5t-1 -264.5q-2 -264 -2 -528q0 -80 49 -99q50 -16 86 -16h8h86h86q22 -2 43 -2q16 0 31 1q35 3 60.5 15t40.5 36t15 65v1140v27v16h125v-65l-24 2v-45q0 -23 -1 -57.5t-1 -79.5
v-191.5t-2 -210.5v-208t-2 -189v-180q-10 -113 -74 -140q-61 -27 -164 -30h-49q-27 0 -68 -1h-30q-32 0 -72 1q-130 0 -186 43q-55 42 -54 149v8z" />
    <glyph glyph-name="v" unicode="v" horiz-adv-x="1060" 
d="M66 1548h118l21 -96l-23 -2l258 -1323h213l228 1171l24 154l15 94l92 2l-271 -1515h-372zM184 1548h92l265 -1302h8l225 1147l25 155l121 -2l-15 -94h-24l-25 -154l-221 -1146h-172z" />
    <glyph glyph-name="w" unicode="w" horiz-adv-x="1796" 
d="M66 1548h118h92l265 -1302h8l225 1147l8 53l-18 102h117h94l264 -1302h10l224 1147l24 155h121h92l-270 -1515h-373l-172 856l-154 -856h-372zM182 1450l258 -1323h213l228 1171l12 82l16 -82l230 -1171h215l227 1171l21 154h-25l-21 -154l-225 -1146h-172l-258 1300h-20
l-25 -154l-221 -1146h-172l-260 1300z" />
    <glyph glyph-name="x" unicode="x" horiz-adv-x="1388" 
d="M63 33l9 16q4 8 10 21.5t16 29.5l80 154q45 82 80 154q10 16 16.5 29.5t10.5 23.5q6 10 10 16l21 49q22 49 52.5 108.5t67.5 110t68 54.5q-72 27 -131 145q-29 59 -48.5 101t-29.5 69l-232 445h228q6 -10 14 -25q8 -12 18.5 -30.5t26.5 -43.5q57 -92 129 -250
q12 -31 27.5 -66.5t34 -71.5t39 -68.5t43.5 -57.5q35 -35 53 -41q8 -4 16 -2v-2v-102q-88 0 -141 84q-55 86 -115 207q-31 61 -61.5 117.5t-57 104.5t-46 85t-31.5 61h-29q8 -16 26.5 -51t51.5 -92q33 -55 62.5 -112.5t58.5 -117.5q72 -150 124 -218t111 -72h-5
q-75 0 -136 -113q-33 -57 -55.5 -101t-38.5 -77q-43 -92 -97.5 -185.5t-101.5 -185.5h29q8 14 18 35q10 16 23.5 42t31.5 60q39 70 70 127.5t53 104.5q37 72 75 143.5t87 112.5q20 10 44 15t50 7v-100v-4h-35q-8 -4 -16 -13.5t-18 -19.5q-45 -51 -79 -119.5t-65 -142.5
q-29 -70 -60.5 -130.5t-64.5 -113.5q-16 -27 -27.5 -46t-19.5 -32q-8 -16 -16 -26h-123h-105zM692 727v53q92 -4 144 -86q55 -86 114 -207q61 -123 117.5 -221t81.5 -147h27q-8 16 -28 52t-52 91q-31 55 -60.5 112.5t-58.5 117.5q-72 154 -124 221t-112 69h3q73 0 137 113
q33 59 56.5 103t39.5 75q43 88 96 184.5t103 188.5h-27q-8 -14 -19 -35q-10 -16 -24 -43t-33 -61q-39 -70 -69.5 -127.5t-53.5 -102.5q-37 -74 -74.5 -144.5t-84.5 -111.5h-3q-43 -22 -92 -22h-4v104l37 2q4 0 16.5 12.5t18.5 16.5q45 53 80 121.5t65 142.5q53 131 121 240
q16 27 28.5 46t20.5 34q8 16 17 26h121h106q-4 -6 -10 -16q-4 -10 -10.5 -23.5t-16.5 -29.5l-80 -152q-23 -41 -42 -79t-36 -73l-26 -53l-8 -16l-10 -24q-11 -23 -27.5 -58t-38 -77t-45 -78t-48 -60.5t-44.5 -26.5q76 -27 131 -145q29 -59 49 -101.5t33 -68.5l229 -443h-227
l-15 25q-8 12 -19 29.5t-26 42.5q-29 47 -60.5 110.5t-66.5 141.5q-14 29 -29.5 63.5t-35.5 73.5q-37 78 -80 125q-18 18 -31.5 27.5t-21.5 13.5q-10 4 -17 4v12q0 6 -1 15.5t-1 23.5z" />
    <glyph glyph-name="y" unicode="y" horiz-adv-x="1609" 
d="M66 1548h225q6 -8 14 -22q8 -12 18.5 -30.5t26.5 -41.5q31 -47 62.5 -107.5t66.5 -136.5q12 -29 28.5 -63.5t35 -69.5t39 -66.5t43.5 -54.5q16 -18 29.5 -26t21.5 -12t16 -5h117v-98h-115q-92 0 -143 80q-49 76 -113 199q-66 119 -121 215t-77 143h-29q8 -16 26.5 -51
t51.5 -88q63 -109 123 -221q59 -121 120 -211q62 -86 158 -86h4l97 -4l-3 -662h23v-55v-41h-119v661q-135 4 -211 101q-39 51 -86 131t-100 192zM809 791l96 4q4 0 74 16q68 18 149 168q14 23 30 51.5t30 61.5q29 57 57.5 112.5t61.5 108.5t52 88t27 51h-28
q-12 -25 -32.5 -61.5t-46.5 -82.5t-56.5 -100.5t-61.5 -113.5t-59.5 -108.5t-54.5 -90.5q-53 -80 -142 -80h-41h-55v86v-39v-39v90h55h41q6 0 17 5q8 4 21 12t32 26q23 23 43 54.5t38.5 66.5t35 70t28.5 63q35 76 67 136.5t60 107.5q14 23 25.5 41t19.5 31q8 14 15 22h227
l-231 -430q-23 -49 -61 -121.5t-89 -140.5t-115 -116q-60 -46 -127 -46h-6l2 -661h-96v96z" />
    <glyph glyph-name="z" unicode="z" horiz-adv-x="1052" 
d="M61 324v16v19.5t2 27.5q0 16 1.5 27.5t1.5 19.5v17q10 12 26 30q14 16 34.5 38t49.5 52l246 271q66 74 127 141.5t119 126.5q29 31 49 53.5t35 38.5q16 18 28 31q-4 78 -61 84q-29 4 -56.5 6t-54.5 4h-157h-359v223q27 -2 70 -2h250h264q193 0 258 -59q68 -59 67 -232
v-12q0 -6 -1 -15t-1 -22v-49q-29 -37 -74.5 -89t-105.5 -118l-239 -264l-209 -227q-23 -25 -40.5 -42.5t-27.5 -29.5q-12 -14 -22 -24q0 -82 49 -101q27 -8 49 -12t45 -2h86h86l28 -1q27 -1 68 -1h89h90h69h27v-215h-11q-6 0 -15 -1t-19 -1h-90.5t-180.5 2h-84h-151
q-215 0 -287 59q-68 57 -68 232zM158 311q0 -35 11 -70.5t52 -68.5q39 -33 115 -39q18 -2 32.5 -2h24.5t19 -2h100h154h208v27h-92h-90h-28q-14 0 -36 -1t-50 -1q-58 -2 -101 -2t-71 2q-129 0 -183 59q-31 35 -35 88q-2 12 -2 22.5v16.5q0 8 -2 14l4 47l111 123l246 273
q66 76 127 143.5t119 128.5q29 31 49 53.5t34 38.5q16 18 29 31l-2 45q-4 86 -14 119q-20 51 -90 78q-41 16 -95 18q-14 0 -24 1t-16 1h-15h-74h-159h-158h-72v-27q29 -2 64 -2h145h79h74t57.5 1t31.5 1q33 0 86 -5t96 -31q39 -29 49 -68q2 -23 6 -31q2 -6 2 -10v-10
q0 -4 -1 -11.5t-1 -17.5v-39q-12 -12 -28 -30l-35 -40t-49 -55q-55 -63 -116.5 -130.5t-129.5 -143.5q-66 -74 -127 -141.5t-117 -131.5l-110 -122v-13q0 -6 -1 -15t-1 -22v-49z" />
    <glyph glyph-name="uni00A0" unicode="&#xa0;" horiz-adv-x="1024" 
 />
    <glyph glyph-name="uni00AD" unicode="&#xad;" horiz-adv-x="512" 
d="M41 752v151h408v-151h-408z" />
    <glyph glyph-name="afii10023" unicode="&#x401;" horiz-adv-x="1144" 
d="M80 41l4 1894h1003v-120l3 -31h-123v31h-764v-1651l766 -2v28h-738v869h736v26l-736 5v694h859l-3 -121h-735v-453l735 -2v-272h-735l2 -625l733 -2v-266q-125 0 -249.5 -1t-253.5 -1h-504zM260 2298h201l-15 -324h-163zM344 2038l29 -2l4 200h-29zM670 2298h204
l-20 -322h-166zM756 2038l28 -2l2 200l-26 2z" />
    <glyph glyph-name="afii10017" unicode="&#x410;" horiz-adv-x="1327" 
d="M80 41l442 1894h467l277 -1894h-117l-21 121l-26 188l-223 1467h-267l-385 -1655h29l-27 -121h-149zM229 41l70 311h772l47 -311h-119l-30 195h-582l-41 -195h-117zM305 383l334 1403h215l213 -1403h-762zM457 504h469l-178 1163h-13z" />
    <glyph glyph-name="afii10018" unicode="&#x411;" horiz-adv-x="1175" 
d="M80 41l2 1894h1005v-120v-29h-120v29h-764v-1653h473q182 0 253.5 60.5t71.5 180.5v129t-2 152v164q-4 119 -67 184q-66 66 -297 55h-152h-252v701l856 -2v-121h-735v-457h367q244 0 321 -75q80 -74 80 -287v-443q0 -211 -86 -286q-82 -76 -356 -76h-598zM231 193l2 864
h33q16 0 42 -1t61 -1q70 -2 145.5 -1t161.5 3q84 0 139 -13.5t89 -41t48.5 -65.5t14.5 -87v-252v-156q0 -72 -16.5 -120t-52.5 -76.5t-92 -40.5t-136 -12q-78 -2 -153 -2.5t-146 -0.5q-35 0 -61.5 1.5t-43.5 1.5h-35zM354 311h140h174q180 -2 180 144v188v172q0 94 -74 105
q-72 12 -141 12h-191q-23 0 -39 1t-26 1h-23v-623z" />
    <glyph glyph-name="afii10019" unicode="&#x412;" horiz-adv-x="1177" 
d="M80 41l2 1894l596 -2q252 0 348 -67q96 -66 94 -293v-195q2 -158 -17.5 -223t-60.5 -78l-6 6q45 -18 64.5 -65t19.5 -156v-459q0 -211 -86 -286q-82 -76 -356 -76h-598zM203 162h471q88 0 209 31q121 35 118 210q-2 88 -2 166v144v135q0 20 -2 43q-2 18 -5 40.5t-13 45.5
q-33 66 -84 82q-12 4 -21.5 7t-15.5 5q-8 2 -12 4q109 25 131 103q10 39 15 89t7 109v160q0 10 1 16.5t1 10.5v10q-2 6 -2 14q0 6 -1 16.5t-1 24.5q-2 53 -41 98q-37 43 -101 66t-181 23h-295h-176v-1653zM231 193l2 864h33q16 0 42 -1t61 -1q70 -2 145.5 -1t161.5 3
q84 0 139 -13.5t89 -41t48.5 -65.5t14.5 -87v-254v-154q0 -72 -16.5 -120t-52.5 -76.5t-92 -40.5t-136 -12q-78 -2 -153 -2.5t-146 -0.5q-35 0 -61.5 1.5t-43.5 1.5h-35zM231 1083l2 695h33q16 0 42 -1t61 -1h145.5t161.5 2q84 2 139 -12.5t89 -41t48.5 -65.5t14.5 -86v-238
q0 -143 -70 -197.5t-227 -54.5h-299h-140zM354 309h138h176q178 -4 178 144v190q2 57 2 99v71q0 96 -74 107q-37 4 -71.5 7t-69.5 3h-191q-23 0 -39 1t-26 1h-23v-623zM354 1202h138h176q178 -4 178 144v104v86q0 96 -74 106q-35 4 -69.5 7.5t-69.5 3.5h-191q-23 0 -39 1
t-26 1h-23v-453z" />
    <glyph glyph-name="afii10020" unicode="&#x413;" 
d="M80 41l2 1894h1005v-120v-29h-120v29h-764v-1649h30l-2 1622l856 -2v-121h-735v-1624h-149h-62h-61z" />
    <glyph glyph-name="afii10021" unicode="&#x414;" horiz-adv-x="1439" 
d="M80 494h115q49 74 114 348q66 274 62 856v237h929v-1441h72l-2 -574h-147v455l-43 -2l-2 1442h-29h-647v-111q-8 -143 -17.5 -325.5t-34 -367t-71.5 -353.5t-131 -285h-45v-332h30v-121h-30h-121zM233 -80v422l957 2l2 -303h31v-121h-152l-2 322h-715v-322h-121zM281 373
q6 0 36 61q8 16 14.5 26.5t10.5 18.5q6 8 8 17q111 233 142 594q16 182 27 343.5t20 309.5v43l610 -2v-1411h-868zM475 494h551v1173h-387v-14l-11 -236.5t-22 -329.5q-18 -266 -76 -428z" />
    <glyph glyph-name="afii10022" unicode="&#x415;" 
d="M80 41l2 1894h1005v-120l3 -31h-123v31h-764v-1651l766 -2v28h-738v869h736v26l-736 5v694h859l-3 -121h-735v-453l735 -2v-272h-735l2 -625l733 -2v-266q-254 0 -503.5 -1t-503.5 -1z" />
    <glyph glyph-name="afii10024" unicode="&#x416;" horiz-adv-x="2011" 
d="M80 41l289 537q27 61 98 202q70 143 164 176q-106 18 -158 125q-51 104 -74 187q-6 18 -13 54t-19.5 80t-28.5 89t-40 82t-55.5 59.5t-72.5 20.5h-70v282h45q23 2 38.5 2h25.5q217 -4 262 -159q23 -78 45.5 -148.5t42.5 -136.5q8 -31 19 -63q10 -29 23 -64t32 -72
q18 -37 42.5 -71.5t53.5 -62t62.5 -43t74.5 -11.5l-4 829h150v-53v-67h-29l4 -834h-121q-172 4 -254 133q-41 66 -69.5 135.5t-44.5 141.5q-14 59 -38 124.5t-57 137.5q-66 143 -184 147v-26q109 0 168 -152q29 -76 50.5 -133t31.5 -98q20 -82 78 -217q55 -133 184 -191
q16 -10 30.5 -13t24.5 -5t21 -2q-37 -2 -71 -22.5t-68.5 -63.5t-72.5 -109t-83 -158q-35 -72 -73 -141.5t-79 -136.5q-39 -66 -62.5 -109t-33.5 -61h35q14 27 40 73t58.5 103t70.5 125.5t77 142.5q39 76 74.5 137.5t68.5 112.5q66 98 178 102h13q6 0 15 -1t21 -1h72
q0 -211 -2 -400t-2 -394h29v-121h-150v123v272q2 76 2 143.5v129.5q0 31 1 54t1 40v31q-10 0 -22 -7q-10 -4 -26.5 -15t-39.5 -34q-57 -57 -102 -151q-23 -47 -42.5 -89t-35.5 -77q-86 -188 -162 -303l-74 -117h-282zM1012 41v457v460h69h49q111 0 177 -102
q33 -51 68.5 -112.5t74.5 -137.5q80 -147 148.5 -267t99.5 -177h35q-10 18 -34 61t-65 109q-41 68 -78.5 137.5t-72.5 140.5q-90 184 -154.5 266t-138.5 87q10 0 20 2t23.5 5t32.5 13q127 59 182 191q29 66 48.5 121t31.5 96q10 41 29.5 98t48.5 133q59 152 170 152l2 26
q-121 -4 -185 -147q-33 -72 -56.5 -137.5t-37.5 -124.5q-35 -145 -117 -277q-78 -129 -254 -133h-116v834v120h121l-3 -829q39 -2 73 13.5t63.5 42t53 61t42.5 71.5q18 37 31.5 72t23.5 64q10 33 19 63q20 66 42.5 137.5t45.5 149.5q49 154 264 157h24.5t36.5 -2h45v-282
l-67 2q-43 2 -75 -20.5t-55.5 -59.5t-41 -83t-28.5 -89t-18 -80t-12 -55q-10 -39 -29.5 -86t-45.5 -101q-51 -106 -156 -125q92 -33 162 -176l100 -202l289 -537h-285q-8 10 -18 29q-10 14 -24.5 36.5t-33.5 51.5q-37 59 -76.5 134t-80.5 169l-80 166q-47 94 -102 151
q-23 23 -39.5 34t-26.5 15q-12 6 -21 7v-125v-273q2 -74 2.5 -141.5t0.5 -130.5q0 -31 1 -53.5t1 -38.5v-31h-123z" />
    <glyph glyph-name="afii10025" unicode="&#x417;" horiz-adv-x="1325" 
d="M82 403v121h57h60v-121q0 -29 4 -64.5t20 -68.5q23 -47 87.5 -75.5t215.5 -32.5h287q184 0 256 59.5t72 181.5v63.5t-1 101t-1 127v143.5q0 57 -31 135q-27 76 -127 92q-23 2 -16.5 0t26 2t47 17.5t52 46t39 89t6.5 146.5v102v103q-2 121 -68 186q-66 66 -297 55h-123
h-121q-12 0 -67.5 -1t-114.5 -20t-105 -69.5t-40 -148.5l2 -123h-119v121q-10 242 102 299q113 59 338 63h332q242 0 324 -75q82 -76 82 -287q0 -12 -1.5 -36t-3.5 -51.5t-2 -58t2 -57.5q10 -231 -34 -266q-10 -10 -18.5 -16.5t-12.5 -10.5q-6 -6 -10 -8q55 -23 67 -98
q12 -78 13 -133v-306v-127q0 -213 -86 -288q-84 -74 -357 -74h-190h-105q-279 -2 -362 78q-80 84 -78 284zM199 403v121h153v-69q0 -100 72 -125t168 -19h106h111q27 -2 54.5 4.5t60.5 16.5q63 20 63 123q0 92 -1 181t-1 181q0 74 -50 95.5t-167 21.5h-121q-31 0 -52.5 1
t-37.5 1h-29v133v135h138h137q121 -4 149 51q31 51 31 93v190q-2 98 -76 107q-74 8 -139 12h-98h-99q-53 0 -92 -3t-66.5 -14.5t-42 -35t-14.5 -66.5v-88h-118h-37l-2 123h39v2q0 131 84 168q82 39 208 37h15q6 0 16 -1t25 -1h84t141 2q84 2 139.5 -12.5t89 -41t48 -65.5
t14.5 -86v-98q2 -41 2 -80v-74q0 -92 -51 -164q-49 -74 -248 -72h-21q-10 0 -24.5 -1t-34.5 -1h-78v-28h82q20 0 35.5 1t26.5 1h20q233 8 262 -94q29 -104 29 -113v-179t2 -128q2 -61 4 -103q0 -143 -70.5 -196t-228.5 -56h-277q-229 2 -272 95q-18 37 -24 118h-37z" />
    <glyph glyph-name="afii10026" unicode="&#x418;" horiz-adv-x="1396" 
d="M80 41v1894h151v-120h-22l2 -1653h31l927 1610v-402v-1208h27v1249v404h-31l-923 -1604l-11 1724h131v-1288l-88 -246l109 244l625 1290h321v-1894h-280v1206l88 246l-109 -244l-625 -1208h-200h-123z" />
    <glyph glyph-name="afii10027" unicode="&#x419;" horiz-adv-x="1396" 
d="M80 41v1894h151v-120h-20l2 -1653h29l927 1610v-404v-1206h27v1247v406h-31l-923 -1604l-11 1724h131v-1288l-88 -246l109 244l625 1290h321v-1894h-280v1204l88 248l-109 -246l-625 -1206h-200h-123zM172 1989v268h322h213h213h137t184 2v-268h-184t-137 -2h-213h-213
h-322zM279 2103l856 6v29l-856 -6v-29z" />
    <glyph glyph-name="afii10028" unicode="&#x41a;" horiz-adv-x="1189" 
d="M80 41q2 475 2 946v948h147v-53v-67h-26q2 -827 0 -1653h26l2 -121h-151zM229 276.5v221.5v460h70h49q111 0 176 -102q35 -51 71 -112.5t75 -137.5q39 -74 76.5 -141.5t70.5 -125.5t58.5 -103.5t39.5 -73.5h35q-10 18 -33.5 61t-64.5 109q-41 68 -79 137.5t-73 140.5
q-90 184 -154.5 266t-137.5 87q10 0 20 2t23.5 5t31.5 13q127 59 183 191q57 129 79 217q10 41 31 98l49 133q59 152 170 152v26q-121 -4 -184 -147t-92 -262q-37 -147 -119 -277q-78 -129 -252 -133h-119v834v120h123l-4 -829q39 -2 74 13.5t63.5 42t52 61t42.5 71.5
q18 37 31.5 72t23.5 64q10 33 18 63q23 66 45.5 137.5t44.5 149.5q45 154 263 157h24t37 -2h45v-282l-68 2q-43 2 -74.5 -20.5t-55 -59.5t-40 -83t-27.5 -89t-19.5 -80t-12.5 -55q-10 -39 -29.5 -86t-46.5 -101q-51 -106 -155 -125q94 -33 161 -176l101 -202l289 -537h-144
h-139q-8 10 -18 29q-10 14 -24.5 36.5t-33.5 51.5q-78 119 -160 303l-79 166q-23 47 -48.5 85t-54.5 66q-23 23 -39 34t-26 15q-12 6 -21 7v-125v-273q2 -74 2 -141.5v-130.5q0 -31 1 -53.5t1 -38.5v-31h-121q-2 123 -2 235.5z" />
    <glyph glyph-name="afii10029" unicode="&#x41b;" horiz-adv-x="1523" 
d="M80 41l41 264q55 -27 102 -26q51 0 81 21.5t44 41.5q27 29 33 133q4 53 6 95t2 75v1290h1061v-1894h-270v1622h-525v-926q-2 -74 -3 -189.5t-23 -246.5q-8 -45 -34 -106.5t-79 -108.5q-84 -80 -219 -78q-33 0 -97.5 8.5t-119.5 24.5zM205 145q166 -74 248 56
q84 133 82 323v213v1049h765v-1624h27v1653h-823l2 -1291q2 -150 -70 -293q-70 -143 -225 -51z" />
    <glyph glyph-name="afii10030" unicode="&#x41c;" horiz-adv-x="1880" 
d="M80 41l2 1894h362l119 -485l373 -1049l371 1051l127 483h358l-2 -1894h-268l-2 1329l18 80l90 246l-108 -244l-445 -1411h-280l-445 1411l-106 244l88 -246l18 -80v-1329h-270zM203 162h26v1622h60l137 -330l494 -1292h30l496 1288l135 334h59v-1622h29v1653h-108
l-146 -365l-479 -1257l-481 1263l-146 359h-106v-1653z" />
    <glyph glyph-name="afii10031" unicode="&#x41d;" horiz-adv-x="1372" 
d="M82 41v1894h147v-120h-28v-1653h28v735h13l106 -20l2 -836h-162h-106zM229 852v162h926l2 -852h27v1653h-29v-773h-926v893h121v-770l684 2v768h273v-1894h-273v852l-686 2l-119 2v-45z" />
    <glyph glyph-name="afii10032" unicode="&#x41e;" horiz-adv-x="1427" 
d="M80 545v336v387v303q0 213 82 287q82 76 325 75h512v-121h-430q-231 10 -297 -55q-66 -66 -65 -186v-41q0 -20 -1 -49t-1 -70l-4 -364v-199.5t-2 -194.5v-250q0 -121 71.5 -182t255.5 -61h385q238 -4 281 86q45 88 45 157l-4 1168q2 186 -100 211q-51 12 -84 19t-50 11
v121q188 -4 275 -73q86 -72 84 -289v-1168q0 -203 -82 -284q-84 -80 -363 -78h-153h-236q-274 0 -358 76q-84 78 -84 286v35q0 16 -1 44t-1 63zM233 442v158q2 80 2.5 169t0.5 189v383q2 92 2 150.5v83.5q0 47 13 86t47 65.5t90 41t142 12.5q84 -2 154 -1t119 1h104
q123 4 207 -37q84 -37 86 -168l4 -1133q-4 -166 -84 -206q-80 -41 -215 -43h-28q-14 0 -34 -1.5t-48 -1.5h-119t-144 3q-80 0 -136 12t-93 40.5t-53.5 77t-16.5 119.5zM352 455q0 -145 180 -144h175h139q156 -8 194 35q41 47 43 109v41q0 23 -1 53.5t-1 73.5v372v194.5
t-2 178.5v170q0 37 -11 60.5t-35.5 37t-65.5 17.5t-103 4h-96h-197q-70 0 -143 -12q-72 -10 -72 -107v-61t-2 -125v-346v-181.5t-2 -169.5v-200z" />
    <glyph glyph-name="afii10033" unicode="&#x41f;" horiz-adv-x="1372" 
d="M80 41h270l-2 1608l-106 20h-13v-1507h-28v1653h28v120h-149v-1894zM229 1622v164h926l2 -1624h27v1653h-955v120h1078v-1894h-273v1622l-805 6v-47z" />
    <glyph glyph-name="afii10034" unicode="&#x420;" horiz-adv-x="1175" 
d="M80 41v1894q70 -2 162 -2h436q274 0 356 -75q86 -78 86 -287v-443q0 -213 -82 -288q-80 -74 -321 -74h-363l-2 -578h-121v699h252h152q231 -10 297 55q66 66 67 186v160q2 82 2 152.5v132.5q0 119 -71.5 180.5t-255.5 61.5h-473v-1655h30v28h121v-28v-119h-272zM231 1784
h140h297q160 -2 229.5 -55.5t69.5 -196.5v-156v-252q0 -49 -14.5 -88t-48.5 -65.5t-89 -39.5t-139 -11q-170 2 -307 0h-136zM354 1042h88q45 2 92.5 2h98.5q35 0 70.5 3.5t70.5 7.5q74 8 74 104v170v191q-4 145 -180 143h-174h-140v-621z" />
    <glyph glyph-name="afii10035" unicode="&#x421;" horiz-adv-x="1329" 
d="M80 541v336v387v305q0 211 82 286q82 76 325 76h330q225 -4 338 -63q115 -59 105 -299v-121h-119l2 121q2 66 -18.5 108.5t-54.5 70.5t-75 40t-78.5 17t-66.5 5h-37h-71.5t-51.5 -2h-121q-231 10 -297 -55q-66 -61 -65 -184v-41q0 -20 -1 -50t-1 -71v-170t-2 -195
q-2 -102 -2 -199.5v-193.5v-250q0 -121 70.5 -181t254.5 -60h287q236 -4 283 86q23 45 34 83t13 72l-2 121h59h60v-121q0 -201 -82 -282q-80 -84 -361 -80h-106h-187q-274 0 -358 76q-84 78 -84 286v35q0 16 -1 44t-1 63zM233 440v158q2 80 2.5 169t0.5 189v383
q2 92 2 149.5v82.5q0 49 13 87t47 65.5t90 41t142 13.5q86 -2 140.5 -3t83.5 1q14 0 24 1t19 1h14q127 0 207 -39q84 -37 86 -168v-2h39l-2 -121h-39h-119v88q0 41 -14.5 64.5t-41 36t-66.5 14.5t-93 2h-98h-97q-33 0 -67.5 -3t-73.5 -8q-74 -10 -74 -106q-2 -272 -3 -541.5
t-1 -543.5q0 -98 62 -123q70 -23 116 -21h109h109q94 -6 165 19q72 25 72 125v69h154l2 -121h-37q-12 -137 -92 -174q-76 -33 -205 -37h-61q-33 0 -85.5 -1t-130.5 1q-160 0 -229.5 54.5t-69.5 197.5z" />
    <glyph glyph-name="afii10036" unicode="&#x422;" horiz-adv-x="1638" 
d="M82 1665v270h1479v-120v-29h-121v29h-633h-604v-29l604 2v-1622h31v1622l723 -2v-121h-605l-104 2l104 -18v-1608h-149h-62h-61v1624h-602z" />
    <glyph glyph-name="afii10037" unicode="&#x423;" horiz-adv-x="1193" 
d="M78 1087v132v290v291v133h135h135v-127v-260v-262v-125q4 -92 47 -133q47 -41 195 -31q10 -2 22 -2h70q133 -4 156 58q25 61 24 86v187.5t-2 238.5q-2 135 -2 227v145h60h61h33v-120h-33v-117v-252q2 -70 2 -132.5v-121.5v-115q0 -154 -109 -176q-53 -10 -101 -16
t-89 -11q-2 -2 -6 -2t-8 -1t-9 -1q-16 -2 -129 4q-27 2 -66.5 5.5t-92.5 11.5q-104 14 -133 149l-5 123v124t-2 136v263v129h-36v-129v-263q2 -72 2 -136v-124q0 -121 2 -125q16 -158 151 -176q68 -8 111 -12t63 -4q145 -4 146 -2q2 2 18 2q193 -2 244 49l51 51v-387
q0 -72 2 -117q0 -143 -69.5 -196t-229.5 -56h-156h2q-123 2 -206 39q-80 35 -90 174h-37v121h153v-69q0 -100 72 -125t168 -19h51t-4 -2h47q47 0 115 23q63 20 63 123v114v164q-27 -2 -53 -4q-25 -2 -54.5 -4t-64.5 0h-125h-47q-295 -8 -370 86q-74 96 -72 276zM80 403v121
h59h60v-123q0 -68 45 -155q45 -88 282 -84h166q184 0 256 59.5t72 179.5v104.5t-2 160.5v198.5t-2 220.5v150t-2 164v172q-2 37 -2 92v127v145h61h64v-168v-407v-504q2 -131 2 -243.5v-209.5q0 -213 -86 -288q-84 -78 -359 -74h-172q-279 -2 -362 78q-80 82 -80 284z" />
    <glyph glyph-name="afii10038" unicode="&#x424;" horiz-adv-x="1980" 
d="M80 1087q0 -213 80 -288q80 -74 323 -74h363l2 -684h151v121h-30v684h-252h-152q-231 -10 -297 55q-66 66 -67 186v46q0 23 -1 55.5t-1 79.5v305q0 119 71.5 180.5t255.5 61.5h471l2 118h-102h-375q-274 0 -358 -75q-84 -78 -84 -287v-135v-349zM233 1085v271v176
q0 143 70 196.5t229 55.5h295h142v-905h-35h-42t-61 2q-70 2 -145.5 1t-161.5 -3q-84 -2 -139 11t-89 40.5t-48.5 66.5t-14.5 88zM352 1118q0 -94 72 -104q37 -4 72.5 -7t70.5 -3h98.5t92.5 -3h88v662h-139h-175q-180 2 -180 -143v-211v-191zM997 1784h142h297
q158 -2 228.5 -55.5t70.5 -196.5v-176v-271q0 -49 -13.5 -88t-47.5 -66.5t-90 -40.5t-142 -11t-161 3t-144 -1q-35 -2 -60.5 -2h-42.5h-35zM997 1815l2 118h86h359q274 0 356 -75q86 -78 86 -287v-135v-349q0 -213 -80 -288q-80 -74 -321 -74h-365v-684h-121v119v686h250
h154q229 -10 295 55q68 63 69 186v181v305q0 119 -70.5 180.5t-254.5 61.5h-445zM1122 1001h88q45 2 92.5 2.5t98.5 0.5q35 0 69.5 3t71.5 7q74 8 74 106v189v211q0 145 -180 143h-176h-138v-662z" />
    <glyph glyph-name="afii10039" unicode="&#x425;" horiz-adv-x="1734" 
d="M80 41q2 8 10 20q6 10 14.5 26.5t20.5 39.5l98 190l101 191q10 23 19 39t15 26q8 12 11 23q45 111 92 199q20 37 41.5 72.5t43 64.5t43 47t42.5 20q-92 33 -164 181q-35 74 -59.5 127t-38.5 86l-289 555h282l19 -31q10 -16 23.5 -39t31.5 -51q39 -59 79 -137t83 -177
q16 -39 35.5 -81.5t42.5 -92.5q45 -94 102 -155q23 -25 39.5 -36t26.5 -15q12 -6 22 -5v-2v-127q-111 0 -178 105q-33 53 -68.5 116.5t-74.5 141.5q-39 76 -77 146.5t-70.5 131t-58.5 106.5t-40 77h-35q10 -20 34 -64.5t62 -113.5q41 -70 79 -141.5t73 -145.5
q45 -94 83 -162t72.5 -113t68.5 -66.5t71 -23.5q-96 4 -176 -141q-41 -72 -70 -127t-49 -94q-53 -113 -120.5 -232.5t-127.5 -232.5h35l92 172q94 174 154 289q47 92 94 180t109 139q27 14 55 20.5t63 8.5v-125v-4l-45 -2q-8 -6 -18 -15.5t-25 -23.5q-57 -66 -99 -152
t-81 -178q-37 -86 -76 -161.5t-80 -141.5q-20 -35 -34.5 -58.5t-24.5 -39.5q-12 -20 -21 -33h-151h-131zM866 909v66q115 -4 178 -107q33 -53 69 -116.5t75 -141.5t77 -147.5t70.5 -129t58 -106.5t42.5 -77h32q-10 20 -33.5 63t-64.5 113q-39 70 -77 141.5t-72 146.5
q-45 94 -83 163t-73 113t-68.5 65.5t-70.5 23.5q98 -4 176 139q41 72 69.5 128.5t49.5 94.5q55 111 121.5 232t125.5 233h-32q-8 -18 -23 -43q-23 -41 -72 -131q-47 -86 -85.5 -157.5t-67.5 -128.5q-45 -92 -93 -180.5t-108 -139.5h-2q-51 -27 -119 -27v129l45 2
q4 0 20.5 15.5t22.5 21.5q57 66 100.5 152t82.5 178q35 86 72.5 161t78.5 140q20 33 35.5 58.5t26.5 41.5q12 20 20 33h150h133q-2 -10 -11 -22q-6 -10 -15 -26.5t-19 -39.5l-101 -190l-98 -191l-43 -86q-45 -111 -92 -198q-20 -37 -42 -74t-44.5 -65.5t-45 -46t-40.5 -19.5
q92 -33 164 -182q35 -72 59.5 -125.5t40.5 -85.5l287 -555h-283l-18 30q-10 16 -24.5 38t-33.5 52q-74 121 -157 316l-80 172q-45 94 -103 155q-45 43 -65 54q-12 6 -21 4v16q0 8 -1 19.5t-1 27.5z" />
    <glyph glyph-name="afii10040" unicode="&#x426;" horiz-adv-x="1497" 
d="M80 41v1894h270l-2 -1607l-106 -21l-13 -2v1510h-28v-1653h28v-121h-149zM229 41v121h1049v-203l29 2v201v28h-123v1625h-29l-2 -1625h-924v115l805 6v1624h273v-1624h120v-473l-266 2l2 201h-934z" />
    <glyph glyph-name="afii10041" unicode="&#x427;" horiz-adv-x="1183" 
d="M80 1933h33q16 0 40.5 -1t59.5 -1h133q-2 -4 -2 -127v-260v-262q2 -59 2 -90v-33q4 -94 47 -135q45 -39 193 -31q8 -2 22 -2h72q133 -4 156 60q25 61 24 86l-4 426v370h59h62h22v-121h-28v-114v-254q2 -70 2 -132.5v-119.5q0 -29 1 -50.5t1 -35.5v-29q2 -156 -107 -178
q-53 -10 -99 -16t-87 -11q-2 0 -8 -1t-17 -3q-10 -2 -43.5 -1t-87.5 5q-51 4 -157 19q-104 14 -133 147l-5 123v125t-2 137v137.5t-2 125.5v126h-28v-129v-262v-260q2 -59 2 -90v-35q18 -156 149 -174t170 -18q147 -4 148 -2q2 2 18 2q193 -2 242 49q12 12 21 22.5t16 16.5
l12 12v-387q0 -72 2 -117v-172v-104h29v-62v-61h-74h-74l-1 29q-1 28 -1 73v97.5v98.5v78v36v114v164q-25 -2 -51 -4q-23 -2 -52.5 -4t-64.5 0h-172q-299 -10 -368 86q-72 94 -68 276q2 211 0 422t-2 426zM999 1661v127v145h62h63v-75q2 -39 2 -111v-178v-303v-387v-336
v-142v-245v-115h-59h-59v360v102.5t-2 160.5v419l-5 314v172q-2 37 -2 92z" />
    <glyph glyph-name="afii10042" unicode="&#x428;" horiz-adv-x="2062" 
d="M82 41v1894h268l-2 -1607l-106 -21h-13v1508h-28v-1653h28v-121h-147zM229 41v121h805l807 -2v1652h-26v-1624l-781 2v1625h-26v-1625h-779v117l658 4v1624h270v-1628l537 2v1624h270v-1894z" />
    <glyph glyph-name="afii10043" unicode="&#x429;" horiz-adv-x="2189" 
d="M80 41v1894h270l-2 -1607l-106 -21l-13 -2v1510h-28v-1653h28v-121h-149zM229 41v121l805 -2h807h94v-203l29 2v229h-123v1624h-26v-1624h-781v1624h-26v-1624l-779 2v115l658 4v1624h270v-1628l537 4v1624h270v-1624h121v-473l-264 2v201z" />
    <glyph glyph-name="afii10044" unicode="&#x42a;" horiz-adv-x="1386" 
d="M80 1669v266l201 -2h274v-116l-2 -31h-121v29h-31h-200v-29h200v-1626h473q184 0 256 60.5t72 180.5v130t-2 153v162q-2 121 -67 186q-66 66 -297 55h-152h-252v699h121l2 -578h363q244 0 321 -75q82 -76 82 -287v-443q0 -213 -86 -288q-84 -78 -356 -74h-598v1628h-201z
M432 190v865h35q16 0 42 -1t60 -1h146t162 2q84 2 139 -12.5t89 -41t48 -65.5t14 -86v-254v-154q0 -143 -69.5 -197.5t-229.5 -54.5h-297h-139zM555 311h35q16 0 41.5 -1t60.5 -1h176q180 -2 181 146v188v170q0 96 -74 107q-35 4 -71 7t-70 3h-98.5t-92.5 2q-23 0 -39 1
t-26 1h-23v-623z" />
    <glyph glyph-name="afii10045" unicode="&#x42b;" horiz-adv-x="1556" 
d="M80 41l2 1894l270 -2v-116v-29h-121v27h-28v-1653h471q184 0 255.5 60.5t71.5 180.5v129t-2 152v164q-4 119 -67 184q-66 66 -297 55h-152h-252v701h121l2 -580h365q244 0 321 -75q80 -74 80 -287v-443q0 -211 -86 -286q-82 -76 -356 -76h-598zM231 193l2 864h33
q16 0 42 -1t61 -1q70 -2 145.5 -1t161.5 3q84 0 139 -13.5t89 -41t48.5 -65.5t14.5 -87v-252v-154q0 -145 -70 -198t-227 -53q-78 -2 -153 -2.5t-146 -0.5q-35 0 -61.5 1.5t-43.5 1.5h-35zM354 311h140h174q180 -2 180 144v188v172q0 94 -74 105q-72 12 -141 12h-191
q-23 0 -39 1t-26 1h-23v-623zM1208 41v1892l275 2v-149h-123v31l-31 -2l2 -1649h31l-2 1620h123l-2 -1745h-150h-61h-62z" />
    <glyph glyph-name="afii10046" unicode="&#x42c;" horiz-adv-x="1175" 
d="M80 41l2 1894l270 -2v-116v-29h-121v27h-28v-1653h471q184 0 255.5 60.5t71.5 180.5v129t-2 152v164q-4 119 -67 184q-66 66 -297 55h-152h-252v701h121l2 -580h365q244 0 321 -75q80 -74 80 -287v-443q0 -211 -86 -286q-82 -76 -356 -76h-598zM231 193l2 864h33
q16 0 42 -1t61 -1q70 -2 145.5 -1t161.5 3q84 0 139 -13.5t89 -41t48.5 -65.5t14.5 -87v-252v-154q0 -145 -70 -198t-227 -53q-78 -2 -153 -2.5t-146 -0.5q-35 0 -61.5 1.5t-43.5 1.5h-35zM354 311h140h174q180 -2 180 144v188v172q0 94 -74 105q-72 12 -141 12h-191
q-23 0 -39 1t-26 1h-23v-623z" />
    <glyph glyph-name="afii10047" unicode="&#x42d;" horiz-adv-x="1323" 
d="M80 524h59h60v-121q2 -35 13 -73.5t34 -83.5q45 -86 280 -84h287q184 0 256 60.5t72 180.5v46q0 23 -1 56.5t-1 80.5v191.5t-2 209.5v210t-2 192v184q-4 119 -68 184q-66 66 -297 55h-123q-18 2 -49 2.5t-72 0.5h-36.5t-66.5 -5.5t-79 -17.5t-74.5 -39t-54 -71
t-16.5 -109l2 -121h-121l2 121q-10 242 102 299q57 29 141.5 45t196.5 18h330q244 0 326 -75q82 -76 82 -289v-1168q0 -211 -86 -286q-82 -76 -357 -76h-190h-105q-281 -4 -362 80q-80 84 -78 282zM199 403v121h153v-69q0 -100 72 -125t168 -19h106h111q27 -2 54.5 4.5
t60.5 16.5q63 25 63 123v110.5t-2 151.5v172h-18q-10 0 -23.5 -1t-30.5 -1h-157h-156h-72v135v135l34 -1t84 -1h109.5h109.5h84h34v197v188q-4 96 -76 105q-74 8 -139 12h-98h-99q-53 0 -92 -3t-66.5 -14.5t-42 -35t-14.5 -64.5v-88h-118h-37l-2 121h39v2q0 131 84 168
q80 39 208 39h15q6 0 16 -1t25 -1q29 -2 84 -1t141 3q84 0 139.5 -13.5t89 -41t48 -65.5t14.5 -87v-90v-185v-180v-80h-43q-23 0 -54.5 -1t-74.5 -1h-283q-4 -8 -6 -14q-4 -14 6 -14q113 -10 224.5 -5t228.5 5q0 -102 1 -197.5t3 -187.5q0 -47 1 -80t1 -56q0 -27 2 -45
q0 -145 -70.5 -198t-228.5 -53q-80 -2 -132 -1t-85 1h-60q-127 4 -206 36q-82 37 -90 174h-37z" />
    <glyph glyph-name="afii10048" unicode="&#x42e;" horiz-adv-x="1884" 
d="M80 41l2 1894h270v-147v-660h162v445q0 211 82 287t326 75h512v-120h-430q-233 6 -297 -58q-66 -61 -68 -184v-133v-312l-2 -120h-404l-2 809l-30 -2l2 -1649h30l-2 813h406l-2 -576q-2 -121 69.5 -181t256.5 -60h385q238 -4 280 84q23 45 34 84t13 73l-6 1170
q0 184 -100 209q-51 14 -84 21t-49 12v120q190 -6 274 -75q88 -68 84 -287v-1170q0 -201 -82 -282q-82 -82 -360 -78h-156h-236q-274 -4 -360 74q-84 78 -84 286v453l-162 -2v-813h-272zM668 444v158q2 80 2 169v190v382q2 92 2 150.5t2 83.5q0 92 59 152q59 57 232 53
q84 -4 153.5 -3t118.5 1q57 0 104 2q127 0 207 -39q82 -37 86 -166l4 -1133q-4 -168 -84 -206q-84 -43 -215 -45h-108h-264q-80 0 -136.5 12t-93.5 40.5t-53 77t-16 121.5zM788 455q0 -147 179 -144h174q35 0 61.5 1t42.5 1h35q156 -8 195 33q43 49 45 109v43q0 23 -1 53.5
t-1 73.5v178t-2 194v373v170q-2 37 -13.5 60.5t-36 37t-64.5 17.5t-102 2h-96h-196q-35 0 -72 -3t-72 -7q-72 -10 -71 -107v-61t-2 -127v-164t-3 -180v-351v-202z" />
    <glyph glyph-name="afii10049" unicode="&#x42f;" horiz-adv-x="1267" 
d="M82 41l43 86l98 190l101 191q10 23 19 39t15 26q8 12 11 23q16 37 30.5 69.5t24.5 55.5q12 27 25 49q-166 14 -226 96q-55 80 -55 262v443q0 209 84 287q84 76 358 75q135 -2 246 -1t188 1h162v-1892h-272v117v30l121 -2v-26h30v1655h-473q-184 0 -254.5 -61.5
t-70.5 -182.5v-283q0 -41 1 -70.5t1 -50.5v-39q0 -121 65 -186q66 -66 297 -55h4q-18 -27 -41 -64q-20 -33 -46.5 -81t-55.5 -111q-29 -66 -62.5 -130.5t-70.5 -127.5q-35 -61 -63.5 -113.5t-51.5 -93.5h35q14 31 40 78t60 110q37 66 74 133.5t72 139.5q25 53 49 98t47 84
q47 78 49 78h174h191v-701l-121 2v578h-186q-49 -66 -84 -141.5t-66 -149.5q-53 -125 -115.5 -236.5t-120.5 -197.5h-280zM319 1124v252v156q0 143 70 196.5t229 55.5h152t145 -2h142l-2 -862h-137q-137 2 -306 0q-172 -4 -231 51q-61 57 -62 153zM440 1159q0 -94 72 -104
q35 -4 72 -7.5t71 -3.5h97.5t91.5 -2q23 -2 39 -2h26h23v623h-139h-175q-178 2 -178 -143v-191v-170z" />
    <glyph glyph-name="afii10065" unicode="&#x430;" horiz-adv-x="1060" 
d="M63 33l355 1515h373l221 -1515h-92l-17 96l-22 152l-179 1173h-213l-307 -1325h23l-21 -96h-121zM184 33l56 250h616l39 -250h-96l-25 155h-465l-33 -155h-92zM244 307l268 1123h172l170 -1123h-610zM365 403h376l-143 930h-10z" />
    <glyph glyph-name="afii10066" unicode="&#x431;" horiz-adv-x="940" 
d="M63 33l3 1515h804v-96v-22h-96v22h-612v-1323h379q145 0 202.5 48t57.5 147v102t-2 121v131q0 94 -54 147q-51 51 -237 45h-121h-203v560h686v-99h-587v-364h292q190 0 256 -60q66 -59 66 -231v-352q0 -170 -70 -232q-70 -59 -284 -59h-480zM184 154l2 692h27
q14 0 33.5 -1t48.5 -1q55 -2 116.5 -1t129.5 3q135 2 184 -43t49 -123v-203v-123q0 -115 -56 -157.5t-181 -42.5q-63 -2 -123 -2h-117q-29 0 -49.5 1t-34.5 1h-29zM283 250h110h142q143 -2 143 115v149v137q0 74 -60 84q-29 4 -56 7t-56 3h-154q-18 0 -30.5 1.5t-22.5 1.5
h-16v-498z" />
    <glyph glyph-name="afii10067" unicode="&#x432;" horiz-adv-x="942" 
d="M63 33l3 1515l477 -2q199 0 276 -53q78 -53 78 -236v-155q0 -125 -15.5 -177.5t-47.5 -62.5l-5 4q35 -14 51.5 -52t16.5 -124v-366q0 -170 -70 -232q-70 -59 -284 -59h-480zM162 129h377q72 0 168 25q96 29 94 170q-2 70 -2 131v114v109q2 16 0 35q-2 16 -5 33.5
t-12 35.5q-29 53 -67 66q-10 4 -17.5 5t-11.5 3q-6 2 -10 4q92 23 106 82q16 66 17 160v127q0 20 2 28q-2 2 -2 11q0 6 -1 14t-1 21q-2 43 -31 77q-31 35 -82 53.5t-145 18.5h-236h-141v-1323zM184 154l2 692h27q14 0 33.5 -1t48.5 -1q55 -2 116.5 -1t129.5 3q135 2 184 -43
t49 -123v-203v-123q0 -115 -56 -157.5t-181 -42.5q-63 -2 -123 -2h-117q-29 0 -49.5 1t-34.5 1h-29zM184 866l2 555h109h246q135 4 184 -42t49 -122v-188q0 -115 -56 -159t-181 -44h-240h-113zM283 248h110h142q141 -4 141 114v152q2 45 2 80v57q0 74 -60 84q-29 4 -56 6
t-56 2h-154q-18 0 -30.5 1t-22.5 1h-16v-497zM283 963h110h142q141 -4 141 114v82v70q0 78 -58 86q-29 4 -56 6t-56 2h-154h-69v-360z" />
    <glyph glyph-name="afii10068" unicode="&#x433;" horiz-adv-x="913" 
d="M63 33l3 1515h804v-96v-22h-96v22h-612v-1319h24l-2 1297h686v-99h-587v-1298h-121h-49h-50z" />
    <glyph glyph-name="afii10069" unicode="&#x434;" horiz-adv-x="1150" 
d="M63 395h93q39 57 92 279q53 219 49 684v190h743v-1153h58l-2 -458h-117v362h-35l-2 1153h-22h-519v-88q-6 -115 -13 -261.5t-27.5 -295t-57.5 -282.5t-104 -226h-37v-266h24v-96h-24h-96zM186 -63v337h766l2 -241h25v-96h-123v256h-573v-256h-97zM225 299q4 0 29 49
q6 12 11 21.5t9 15.5l7 12q88 184 112 475q27 289 37 523v35l490 -3v-1128h-695zM381 395h440v938h-309v-10q-4 -70 -10 -190.5t-17 -262.5q-8 -106 -22 -192t-37 -152q-12 -35 -20.5 -58.5t-14.5 -39.5q-8 -20 -10 -33z" />
    <glyph glyph-name="afii10070" unicode="&#x435;" horiz-adv-x="913" 
d="M63 33l3 1515h804v-96l2 -25h-98v25h-612v-1321l612 -2v23h-590v696h590v20l-590 4v555h688l-2 -96h-587v-362l587 -2v-217h-587v-500l587 -2v-213q-205 0 -403.5 -1t-403.5 -1z" />
    <glyph glyph-name="afii10072" unicode="&#x436;" horiz-adv-x="1609" 
d="M63 33l232 430q10 25 29.5 64.5t48.5 97.5q59 115 131 141q-82 14 -125 100q-20 43 -34.5 80t-25.5 68q-6 23 -17 75t-31.5 105t-53.5 92t-82 37h-55v225h35q18 2 31.5 2h21.5q172 -4 209 -127q18 -63 35.5 -119.5t33.5 -109.5l8 -24q7 -25 20 -60t32.5 -76t46.5 -74.5
t61.5 -55t77.5 -19.5l-2 663h119v-43v-53h-23l5 -668h-99q-139 4 -203 107q-66 106 -92 221q-10 47 -29.5 99.5t-45.5 109.5q-51 117 -146 119v-21q86 0 133 -123q23 -59 39.5 -105t26.5 -79q18 -63 61 -174q45 -106 150 -152q12 -6 23.5 -9t19.5 -5t16 -2
q-59 -4 -111.5 -69.5t-123.5 -213.5q-29 -57 -58.5 -112.5t-62.5 -108.5t-51.5 -87t-26.5 -50h29q23 45 78 141.5t118 214.5q31 59 59.5 108.5t55.5 90.5q51 82 141 82h41h58q0 -172 -2.5 -321.5t-2.5 -315.5h23v-96h-119v98v219q2 59 2 113.5v103.5v101q-8 0 -16 -4
q-10 -4 -22.5 -13.5t-30.5 -27.5q-23 -23 -43.5 -54.5t-39 -66.5t-33.5 -70t-28 -63q-35 -76 -67.5 -136.5t-61.5 -107.5q-16 -23 -26.5 -41t-18.5 -29q-8 -14 -14 -22h-228zM809 33v733h55h41q88 0 139 -82q27 -41 55.5 -90t59.5 -109q66 -119 120 -214t79 -142h28
q-8 16 -27.5 50t-51.5 87q-33 53 -63 108.5t-58 112.5q-72 147 -123 213t-111 70q8 0 17 2q20 4 43 14q104 47 145 152q23 53 39 96t27 78q16 70 61 186q47 121 137 121v21q-96 -4 -147 -119q-53 -115 -74 -209q-14 -57 -37.5 -112.5t-56.5 -108.5q-63 -102 -203 -107h-94
v668v96h96v-663q41 -2 76 19.5t62.5 55t47 74.5t33 76t19.5 60l6 24q16 53 33.5 109.5t36.5 119.5q39 125 211 127h21t30 -2h35v-225h-54q-49 2 -82.5 -37t-54 -92t-32 -105.5t-15.5 -74.5q-18 -61 -61 -148q-39 -84 -123 -100q74 -29 129 -141l80 -162l231 -430h-227
l-62 92q-29 47 -60.5 107.5t-66.5 136.5q-12 29 -28.5 63.5t-35 69.5t-39 66.5t-42.5 54.5q-18 18 -30.5 27t-20.5 14q-8 4 -17 4v-101v-217v-219q0 -25 1 -43t1 -31v-24h-98z" />
    <glyph glyph-name="afii10073" unicode="&#x437;" horiz-adv-x="1060" 
d="M66 324v96h47h47v-96q0 -25 3 -53.5t15 -53.5q18 -39 69.5 -61.5t174.5 -26.5h229q147 0 204.5 48t57.5 147q0 33 -1 130t-1 216q0 47 -24 108q-20 61 -103 74q-16 2 -12 0t19.5 1t38 14.5t42 37t30.5 71.5t5 118v82v81q-4 98 -55 148q-51 51 -236 45h-98h-96h-54
t-92.5 -16.5t-85 -56.5t-30.5 -120v-98h-94v98q-8 190 81 238q88 47 271 51h266q193 0 258 -61q66 -59 66 -228q0 -23 -3.5 -71.5t-0.5 -91.5q8 -184 -27 -213q-10 -8 -15.5 -12.5t-9.5 -8.5q-6 -4 -8 -6q45 -16 53 -80q4 -31 7.5 -57.5t3.5 -48.5v-244v-100
q0 -174 -68 -232q-70 -59 -287 -59h-151h-84q-225 -4 -291 61q-66 66 -61 230zM160 324v96h123v-55q0 -82 57 -103q57 -18 133 -12h86h88q35 -2 92 14q51 18 52 101q0 72 -1.5 143.5t-1.5 144.5q0 59 -40.5 77t-133.5 18h-96q-25 0 -42 1t-30 1h-24v106v107h110h111
q96 0 119 41q25 43 24 73v154q-4 78 -61 84q-29 4 -56.5 6t-54.5 4h-79h-78q-86 0 -128 -13.5t-44 -80.5v-72h-95h-30v98h30v3q0 104 66 135q70 31 168 28h45q25 0 68 -1t112 1q133 4 182.5 -42t49.5 -121v-78q2 -35 2 -65v-58q0 -72 -41 -131t-199 -58h-16q-8 0 -19.5 -1
t-27.5 -1h-62v-22h66q16 0 28.5 1t20.5 1h16q188 6 209 -76q23 -84 23 -90v-142.5t2 -101.5q2 -49 4 -84q0 -115 -56.5 -157.5t-183.5 -44.5h-221q-184 2 -217 75q-18 35 -21 97h-28z" />
    <glyph glyph-name="afii10074" unicode="&#x438;" horiz-adv-x="1118" 
d="M63 33v1515h121v-96h-16v-1323h25l743 1288v-321v-967h20v999v324h-24l-739 -1284l-9 1380h107v-1030l-72 -196l88 194l500 1032h256v-1515h-223v964l69 197l-86 -195l-499 -966h-162h-99z" />
    <glyph glyph-name="afii10075" unicode="&#x439;" horiz-adv-x="1118" 
d="M63 33v1515h121v-96h-16l2 -1323h23l743 1288v-323v-965h20v997v326h-24l-739 -1284l-9 1380h107v-1030l-72 -196l88 194l500 1032h256v-1515h-223v962l69 199l-86 -197l-499 -964h-162h-99zM137 1591v215h258h170h170h258v-213h-147.5t-110.5 -2h-170h-170h-258z
M223 1683l684 5v22l-684 -4v-23z" />
    <glyph glyph-name="afii10076" unicode="&#x43a;" horiz-adv-x="952" 
d="M63 33q2 381 2.5 756.5t0.5 758.5h118v-43v-53h-22q4 -662 0 -1323h22v-96h-121zM184 33v733h56h39q90 0 141 -82q27 -41 55.5 -90t61.5 -109q61 -119 116.5 -214t79.5 -142h27q-8 16 -26.5 50t-51.5 87t-62.5 108.5t-58.5 112.5q-74 147 -125 213t-110 70q8 0 16 2
q18 4 45 14q100 45 145 152q23 53 38.5 96t25.5 78q8 33 24.5 80t38.5 106q49 121 138 121v21q-98 -4 -150 -119q-27 -57 -44 -109.5t-28 -99.5q-31 -111 -96 -221q-63 -104 -200 -107h-95v668v96h99l-4 -663q41 -2 75.5 19.5t62 55t47 74.5t33 76t19.5 60l6 24
q16 53 34.5 109.5t37.5 119.5q39 125 211 127h20.5t28.5 -2h35v-225h-53q-51 2 -84 -37t-53.5 -92t-31 -105.5t-16.5 -74.5q-14 -57 -59 -148q-43 -86 -125 -100q76 -29 129 -141l80 -162l231 -430h-225l-61 92q-29 47 -61 107.5t-66 136.5q-12 29 -28.5 63.5t-35 69.5
t-39 66.5t-43.5 54.5q-18 18 -31.5 27t-21.5 14q-10 4 -16 4v-101v-217q2 -59 2 -113.5v-105.5q0 -25 1 -43t1 -31v-24h-99z" />
    <glyph glyph-name="afii10077" unicode="&#x43b;" horiz-adv-x="1218" 
d="M63 33l33 211q43 -20 82 -21q41 0 64.5 17.5t36.5 33.5q20 23 26 107q6 82 6 135v1032h848v-1515h-215v1298h-420v-741q-2 -59 -3 -151.5t-17 -196.5q-8 -37 -28.5 -86.5t-61.5 -85.5q-70 -66 -176 -64q-27 0 -78 7t-97 20zM164 117q133 -59 198 43q68 106 66 260v170
v840h612v-1301h21v1323h-658l3 -1032q2 -119 -58 -236q-59 -115 -180 -41z" />
    <glyph glyph-name="afii10078" unicode="&#x43c;" horiz-adv-x="1503" 
d="M63 33l3 1515h290l95 -389l299 -837l294 839l103 387h287l-2 -1515h-215v1063l14 63l72 197l-86 -195l-357 -1128h-225l-354 1128l-86 195l71 -197l15 -63v-1063h-218zM162 129h22v1298h47l109 -264l395 -1034h25l397 1030l109 268h47v-1298h22v1323h-86l-116 -293
l-383 -1005l-385 1011l-117 287h-86v-1323z" />
    <glyph glyph-name="afii10079" unicode="&#x43d;" horiz-adv-x="1097" 
d="M66 33v1515h118v-96h-24v-1323h24v588h9l86 -17l2 -667h-129h-86zM184 682v129h740l2 -682h20v1323h-22v-618h-740v714h97v-616l546 2v614h217v-1515h-217v682l-548 2h-95v-35z" />
    <glyph glyph-name="afii10080" unicode="&#x43e;" 
d="M63 436v269v309v243q0 170 66 230q70 59 260 59h410v-96h-344q-186 6 -238 -45q-51 -49 -51 -148v-32q0 -16 -1 -40t-1 -57l-4 -290v-316v-198q0 -98 57 -147.5t205 -49.5h307q193 0 225 70q35 74 35 127l-2 933q0 147 -82 168q-80 23 -106 25v96q154 -4 219 -59
q70 -55 67 -230v-933q0 -164 -65 -230q-66 -66 -289 -61h-123h-188q-217 0 -287 59q-68 61 -67 232v28q0 14 -1.5 35t-1.5 49zM186 354v127q2 63 2 135v152v305q2 74 2 120v67q0 76 49.5 121.5t184.5 41.5q68 -2 122 -1t95 1h84q49 0 92 -5t75 -23.5t50.5 -51t18.5 -83.5
l2 -906q0 -131 -66 -166q-33 -16 -76 -24t-96 -10h-88q-41 0 -95.5 -1t-115.5 1q-127 0 -183.5 43t-56.5 157zM283 365q0 -117 143 -115h139h111q123 -8 155 26q31 35 35 89v32q0 16 -1 42t-1 61v297v297v137q-2 59 -37.5 77.5t-134.5 16.5h-78h-157q-29 0 -57.5 -3
t-57.5 -7q-57 -8 -57 -84v-48t-2 -102v-276v-281v-159z" />
    <glyph glyph-name="afii10081" unicode="&#x43f;" horiz-adv-x="1097" 
d="M63 33h218l-2 1286l-86 16h-9v-1206h-24v1323h24v96h-121v-1515zM184 1298v132h740l2 -1301h20v1323h-762v96h860v-1515h-217v1298l-643 4v-37z" />
    <glyph glyph-name="afii10082" unicode="&#x440;" horiz-adv-x="940" 
d="M63 33v1515q55 -2 130 -2h350q217 0 284 -61q70 -57 70 -228v-354q0 -170 -66 -231q-66 -59 -258 -60h-290v-460h-99v557h203h121q186 -6 237 45q53 53 54 149v127q2 66 2 122v105q0 98 -57.5 146.5t-204.5 48.5h-379v-1325h24v25h99v-25v-94h-220zM184 1427h113h238
q127 -2 183 -45t56 -157v-125v-201q0 -76 -49 -121t-184 -43t-246 0h-109zM283 834h69q35 2 74 2h80q29 0 56.5 2t55.5 6q59 10 60 84v135v154q-4 115 -143 114h-142h-110v-497z" />
    <glyph glyph-name="afii10083" unicode="&#x441;" horiz-adv-x="1062" 
d="M63 432v268v312v243q0 168 66 228q68 61 260 61h264q180 0 271 -49q90 -49 84 -240v-96h-95v96q4 78 -32.5 118t-84.5 56.5t-91 17.5t-54 1h-58.5t-39.5 -2h-98q-184 10 -238 -43q-51 -49 -51 -148v-32q0 -16 -1 -40t-1 -57v-138.5t-2 -153.5q-2 -82 -2 -160v-154v-201
q0 -98 57 -145t205 -47h229q188 -4 226 68q37 70 36 124v97h48h47v-97q0 -160 -66 -225q-66 -66 -289 -65h-84h-149q-219 0 -287 61t-67 229v29q0 14 -1.5 34.5t-1.5 49.5zM186 352v127q2 63 2 135v152v305q2 72 2 119v67q0 76 49.5 121t184.5 43q68 -2 111 -1t69 1h45
q98 0 164 -30q66 -27 70 -134v-2h30v-96h-32h-95v70q-2 66 -44 80t-128 14h-79h-76q-27 0 -55.5 -2t-57.5 -6q-59 -10 -59 -86q-2 -217 -3 -434t-1 -435q0 -78 49 -98q55 -18 94 -16h86h88q37 -2 72 0t61.5 14t42 35.5t15.5 64.5v56h122v-97h-28q-6 -55 -24.5 -87.5
t-48.5 -51t-72 -23.5t-93 -5h-49q-27 0 -69 -1t-103 1q-127 0 -183.5 43t-56.5 157z" />
    <glyph glyph-name="afii10084" unicode="&#x442;" horiz-adv-x="1310" 
d="M66 1331v217h1183v-96v-22h-98v22h-506h-483v-22h483v-1297h25v1297h579v-99h-483l-84 2l84 -14v-1286h-121h-49h-49v1298h-481z" />
    <glyph glyph-name="afii10085" unicode="&#x443;" horiz-adv-x="954" 
d="M61 870v105v233v232v106h109h109v-100v-209v-209v-100q0 -37 8 -62.5t29.5 -43t58.5 -23.5t96 -2q8 -2 18 -2h56q106 -2 125 45q20 47 20 69v150t-2 190t-2 181v118h47h49h27v-96h-27v-94v-203q2 -53 2 -103.5v-97.5v-92q0 -123 -86 -141q-43 -8 -80.5 -13.5t-72.5 -7.5
q-2 -2 -4 -2t-5.5 -1t-7.5 -1q-12 -2 -104 4q-41 0 -127 13q-86 12 -107 118l-4 99v99t-2 110v211v102h-28v-102v-211q2 -57 2 -109.5v-99.5q0 -96 2 -99q12 -125 121 -141q53 -8 87.5 -11t51.5 -3q29 -2 50.5 -2h37.5h29q0 2 14 2q154 0 194 41l41 41v-309q0 -57 2 -95
q0 -115 -56 -157.5t-183 -44.5h-125h2q-102 2 -166 30q-61 27 -72 142h-28v96h123v-55q0 -82 57 -103q57 -18 133 -12h42t-3 -2h37q37 0 92 16q51 18 51 101v90v131q-20 -2 -43 -4q-20 -2 -43.5 -3t-52.5 1h-137q-238 -6 -295 69q-59 78 -60 221zM63 324v96h48h49v-98
q0 -55 37 -125q37 -72 225 -68h131q147 0 204.5 47t57.5 146v210v160t-2 176v119t-2 131v139q-2 29 -2 72v103v116h49h51v-135v-326v-401q2 -106 2 -196.5v-165.5q0 -172 -69 -234q-70 -59 -287 -57h-137q-225 -4 -291 61q-63 63 -64 230z" />
    <glyph glyph-name="afii10086" unicode="&#x444;" horiz-adv-x="1585" 
d="M63 870v387q0 168 68 228q70 61 287 61h299h82v-94h-377q-147 0 -204.5 -48t-57.5 -147v-243v-144q4 -100 53 -149q51 -51 240 -45h120h201v-547h25v-96h-121l-2 547h-289q-195 0 -260 59q-63 61 -64 231zM186 868v217v140q0 115 56.5 157.5t183.5 44.5h236h112v-725h-29
h-33.5t-47.5 3q-53 2 -115 1t-129 -4q-135 -2 -184.5 43.5t-49.5 122.5zM283 895q0 -76 57 -84q29 -4 57.5 -6t57.5 -2h78.5t72.5 -2h70v530h-111h-139q-143 0 -143 -114v-170v-152zM799 33v94v549h200h123q186 -6 238 45q53 53 53 149v144v243q0 98 -56.5 146.5
t-203.5 48.5h-354v94h69h287q217 0 285 -61q70 -57 69 -228v-387q0 -170 -65 -231q-66 -59 -256 -59h-291v-547h-98zM799 702v725h112h238q125 -2 182.5 -45t57.5 -157v-140v-217q0 -39 -11.5 -70.5t-38 -53t-72.5 -32t-114 -10.5q-66 2 -127 3.5t-117 -0.5q-29 -2 -49 -2.5
t-35 -0.5h-26zM897 801h70q35 2 73.5 2h79.5q29 0 56.5 2t56.5 6q59 10 59 86v150v170q0 115 -143 114h-141h-111v-530z" />
    <glyph glyph-name="afii10087" unicode="&#x445;" horiz-adv-x="1388" 
d="M63 33l9 16q4 8 10 21.5t16 29.5l80 154q45 82 80 154q10 16 16.5 29.5t10.5 23.5q6 10 10 16l21 49q22 49 52.5 108.5t67.5 110t68 54.5q-72 27 -131 145q-29 59 -48.5 101t-29.5 69l-232 445h228q6 -10 14 -25q8 -12 18.5 -30.5t26.5 -43.5q57 -92 129 -250
q12 -31 27.5 -66.5t34 -71.5t39 -68.5t43.5 -57.5q35 -35 53 -41q8 -4 16 -2v-2v-102q-88 0 -141 84q-55 86 -115 207q-31 61 -61.5 117.5t-57 104.5t-46 85t-31.5 61h-29q8 -16 26.5 -51t51.5 -92q33 -55 62.5 -112.5t58.5 -117.5q72 -150 124 -218t111 -72
q-78 4 -141 -113q-33 -57 -55.5 -101t-38.5 -77q-43 -92 -97.5 -185.5t-101.5 -185.5h29q8 14 18 35q10 16 23.5 42t31.5 60q39 70 70 127.5t53 104.5q37 72 75 143.5t87 112.5q20 10 44 15t50 7v-100v-4h-35q-8 -4 -16 -13.5t-18 -19.5q-45 -51 -79 -119.5t-65 -142.5
q-29 -70 -60.5 -130.5t-64.5 -113.5q-16 -27 -27.5 -46t-19.5 -32q-8 -16 -16 -26h-123h-105zM692 727v53q92 -4 144 -86q55 -86 114 -207q61 -123 117.5 -221t81.5 -147h27q-8 16 -28 52t-52 91q-31 55 -60.5 112.5t-58.5 117.5q-72 154 -124 221t-112 69q74 -2 140 113
q33 59 56.5 103t39.5 75q43 88 96 184.5t103 188.5h-27q-8 -14 -19 -35q-10 -16 -24 -43t-33 -61q-39 -70 -69.5 -127.5t-53.5 -102.5q-37 -74 -74.5 -144.5t-84.5 -111.5h-3q-45 -23 -96 -22v104l37 2q4 0 16.5 12.5t18.5 16.5q45 53 80 121.5t65 142.5q53 131 121 240
q16 27 28.5 46t20.5 34q8 16 17 26h121h106q-4 -6 -10 -16q-4 -10 -10.5 -23.5t-16.5 -29.5l-80 -152q-23 -41 -42 -79t-36 -73l-26 -53l-8 -16l-10 -24q-11 -23 -27.5 -58t-38 -77t-45 -78t-48 -60.5t-44.5 -26.5q76 -27 131 -145q29 -59 49 -101.5t33 -68.5l229 -443h-227
l-15 25q-8 12 -19 29.5t-26 42.5q-29 47 -60.5 110.5t-66.5 141.5q-14 29 -29.5 63.5t-35.5 73.5q-37 78 -80 125q-18 18 -31.5 27.5t-21.5 13.5q-10 4 -17 4v12q0 6 -1 15.5t-1 23.5z" />
    <glyph glyph-name="afii10088" unicode="&#x446;" horiz-adv-x="1198" 
d="M63 33v1515h218l-2 -1286l-86 -16l-9 -2v1208h-24v-1323h24v-96h-121zM184 33v96h838v-162l22 2v160v23h-98v1300h-22l-2 -1300h-738v92l643 6v1298h217v-1298h99v-379l-213 2v160h-746z" />
    <glyph glyph-name="afii10089" unicode="&#x447;" horiz-adv-x="946" 
d="M63 1546h27q14 0 32.5 -1t47.5 -1h106q-2 -2 -2 -100v-209v-209q2 -47 2 -71.5v-26.5q0 -37 8.5 -63.5t30 -44t58.5 -23.5t96 -2q6 -2 16 -2h60q106 -2 125 47q18 49 18 69l-4 340v297h49h49h17v-96h-23v-92v-203q2 -55 2 -105.5v-97.5q0 -23 1 -40t1 -27v-23
q2 -125 -84 -143q-43 -8 -80.5 -13.5t-70.5 -7.5q-4 -4 -19 -4q-12 -2 -36.5 -1t-67.5 5q-20 2 -52 5.5t-75 9.5q-86 12 -107 118q-2 0 -4 97v211v109t-2 100v102h-22v-102v-211v-209v-99q14 -123 121 -139q53 -8 86.5 -11t48.5 -3l119 -2q2 2 14 2q152 -2 192 39l41 41
v-404v-137v-84h25v-49v-49h-59h-60l-1 49t-1 109.5v112.5v58v93v131q-16 -2 -39 -4q-18 -2 -42.5 -3t-51.5 -1h-139q-238 -6 -295 69q-57 74 -53 221q2 168 -0.5 337t-2.5 341zM799 1328v102v116h49h51v-59q0 -35 1 -90.5t1 -141.5v-243v-310v-268v-112v-197v-92h-47h-47
v289v81t-2 127v336l-4 250v139q-2 29 -2 73z" />
    <glyph glyph-name="afii10090" unicode="&#x448;" horiz-adv-x="1650" 
d="M66 33v1515h215l-2 -1286l-86 -16h-9v1206h-24v-1323h24v-96h-118zM184 33v96h643l646 -2v1323h-21v-1298h-625v1300h-20v-1300h-623v94l525 4v1298h217v-1302l430 2v1298h215v-1515z" />
    <glyph glyph-name="afii10091" unicode="&#x449;" horiz-adv-x="1751" 
d="M63 33v1515h218l-2 -1286l-86 -16l-9 -2v1208h-24v-1323h24v-96h-121zM184 33v96l643 -2h646h75v-162l23 2v185h-98v1298h-21v-1298h-625v1298h-20v-1298h-623v92l525 4v1298h217v-1302l430 4v1298h215v-1298h96v-379l-211 2v160z" />
    <glyph glyph-name="afii10092" unicode="&#x44a;" horiz-adv-x="1110" 
d="M63 1335v213l162 -2h219v-92l-2 -24h-96v22h-24h-162v-22h162v-1303h378q147 0 205 48t58 147v103t-2 122v129q-2 96 -56 149q-51 51 -237 45h-121h-201v560h96l2 -463h289q193 0 258 -62q66 -59 66 -229v-352q0 -172 -68 -234q-70 -59 -287 -57h-477v1302h-162zM346 152
v692h27q14 0 33.5 -1t48.5 -1h116.5t128.5 2q135 4 184.5 -42t49.5 -122v-203v-123q0 -115 -55.5 -158.5t-184.5 -43.5h-237h-111zM444 250h27q14 0 34.5 -1t49.5 -1h139q145 -4 146 117v149v137q0 74 -60 84q-29 4 -56.5 6t-55.5 2h-80t-74 2q-18 0 -30.5 1.5t-22.5 1.5
h-17v-498z" />
    <glyph glyph-name="afii10093" unicode="&#x44b;" horiz-adv-x="1245" 
d="M63 33l3 1515l217 -2v-92v-24h-99v22h-22v-1323h377q147 0 204.5 48t57.5 147v102t-2 121v131q0 94 -54 147q-51 51 -237 45h-121h-203v560h99v-463h292q190 0 256 -60q66 -59 66 -231v-352q0 -170 -70 -232q-70 -59 -284 -59h-480zM184 154l2 692h27q14 0 33.5 -1
t48.5 -1q55 -2 116.5 -1t129.5 3q135 2 184 -43t49 -123v-201v-123q0 -117 -56 -159.5t-181 -42.5q-63 -2 -123 -2h-117q-29 0 -49.5 1t-34.5 1h-29zM283 250h110h142q143 -2 143 115v149v137q0 74 -60 84q-29 4 -56 7t-56 3h-154q-18 0 -30.5 1.5t-22.5 1.5h-16v-498z
M967 33v1513l219 2v-118h-99v24l-24 -2l2 -1319h25l-3 1297h99l-2 -1397h-119h-49h-49z" />
    <glyph glyph-name="afii10094" unicode="&#x44c;" horiz-adv-x="940" 
d="M63 33l3 1515l217 -2v-92v-24h-99v22h-22v-1323h377q147 0 204.5 48t57.5 147v102t-2 121v131q0 94 -54 147q-51 51 -237 45h-121h-203v560h99v-463h292q190 0 256 -60q66 -59 66 -231v-352q0 -170 -70 -232q-70 -59 -284 -59h-480zM184 154l2 692h27q14 0 33.5 -1
t48.5 -1q55 -2 116.5 -1t129.5 3q135 2 184 -43t49 -123v-201v-123q0 -117 -56 -159.5t-181 -42.5q-63 -2 -123 -2h-117q-29 0 -49.5 1t-34.5 1h-29zM283 250h110h142q143 -2 143 115v149v137q0 74 -60 84q-29 4 -56 7t-56 3h-154q-18 0 -30.5 1.5t-22.5 1.5h-16v-498z" />
    <glyph glyph-name="afii10095" unicode="&#x44d;" horiz-adv-x="1058" 
d="M63 420h48h49v-96q0 -57 37 -127q37 -72 225 -68h229q147 0 204.5 48t57.5 147v36q0 18 -1 45t-1 64v151.5t-2 167.5v169t-2 153v147q-4 98 -55 148q-51 51 -236 45h-98q-16 2 -39.5 2h-56.5q-10 -2 -54 -2t-92.5 -16.5t-85 -56.5t-30.5 -120v-96h-97l3 96q-8 193 81 240
q92 49 271 51h264q195 0 260 -61q66 -59 66 -230v-933q0 -170 -68 -232q-70 -59 -287 -59h-151h-84q-225 -4 -291 63q-66 63 -61 228zM160 324v96h123v-55q0 -82 57 -103q57 -18 133 -12h86h88q37 -2 92 16q51 18 52 99v87t-3 121v138l-15 -1t-41.5 -1h-59.5h-68h-182v108
v109l28 -1q27 -1 67 -1h88h88h67h26v157v152q-2 76 -61 82q-29 4 -56.5 6t-54.5 4h-79h-78q-86 0 -128 -13.5t-44 -78.5v-72h-95h-30v96h30v3q0 51 17.5 83.5t49.5 51t75 24.5t92 6q16 -2 45 -2q25 0 68 -1t112 3q133 2 182.5 -43t49.5 -122v-220v-143v-66h-138h-225l-4 -12
q-4 -12 4 -12q92 -8 181 -4t182 4v-159t2 -148q0 -37 1 -63.5t1 -45.5q0 -23 2 -35q0 -117 -55.5 -159.5t-184.5 -42.5q-66 -2 -106.5 -1t-67.5 1h-47q-102 2 -166 30q-61 27 -72 140h-28z" />
    <glyph glyph-name="afii10096" unicode="&#x44e;" horiz-adv-x="1507" 
d="M63 33l3 1515h217v-118v-527h129v354q0 170 65 230q68 61 260 61h410v-96h-344q-186 4 -238 -47q-53 -49 -53 -148v-106v-248l-2 -96h-324l-2 647l-24 -2l2 -1319h24l-2 649h326l-2 -458q-2 -98 55.5 -146.5t204.5 -48.5h309q188 -4 223 68q35 68 39 127l-6 933
q0 145 -80 168l-106 27v96q150 -2 219 -59q72 -55 68 -232v-933q0 -162 -66 -228t-289 -61h-125h-188q-217 -2 -287 57q-68 61 -67 232v360h-129v-651h-220zM535 356v127q2 63 2 135v152v305v120t2 67q0 37 11 68.5t37.5 53t72 32.5t112.5 9q66 -4 121 -3t96 1q47 0 84 2
q98 0 166 -30q68 -31 68 -133l4 -906q-4 -133 -68 -166q-66 -35 -172 -36h-297q-129 0 -184 43t-55 159zM631 365q0 -117 143 -115h139h111q123 -8 156 26q35 37 37 89v32q0 16 -1.5 42t-1.5 61v141.5t-2 155.5v299v137q-4 57 -38.5 76.5t-133.5 15.5h-77h-156
q-29 0 -57.5 -2t-57.5 -6q-57 -8 -57 -84v-50t-2 -102v-131.5t-2 -144.5v-279v-161z" />
    <glyph glyph-name="afii10097" unicode="&#x44f;" horiz-adv-x="1013" 
d="M66 33l8 16q4 8 10 21.5t16 29.5q16 35 36 74t42 80q45 82 80 154q10 16 16.5 29.5t10.5 23.5q6 10 10 16q12 29 22.5 55.5t20.5 45.5q10 23 20 38q-68 6 -110.5 24.5t-67 52.5t-35 85t-10.5 125v354q0 168 68 228q68 61 284 61q111 -2 199 -1t150 1h129v-1513h-217v94
v25l96 -2v-23h24v1325h-379q-147 0 -203.5 -48t-56.5 -147v-227q0 -33 1 -55.5t1 -38.5v-33q0 -98 52 -149q51 -51 237 -45h4q-14 -20 -32 -52q-16 -27 -38 -64.5t-44 -88.5q-47 -106 -105.5 -204.5t-93.5 -166.5h29q23 53 79 152q29 51 59 105t58 112q18 43 39 79.5
t38 65.5t29 45l11 17h139h152v-559l-96 2v460h-150q-39 -51 -66.5 -112.5t-52.5 -118.5q-43 -100 -93 -189.5t-95 -158.5h-225zM256 899v201v125q0 115 55.5 157.5t184.5 44.5h119.5t115.5 -2h115l-2 -690h-111q-109 4 -244 0q-135 -2 -184 43t-49 121zM352 928
q0 -76 58 -84q29 -4 57.5 -6t56.5 -2h78t72 -2q16 -2 29.5 -2.5t23.5 -0.5h18v500h-110h-139q-143 0 -144 -114v-154v-135z" />
    <glyph glyph-name="afii10071" unicode="&#x451;" horiz-adv-x="1144" 
d="M80 41l4 1894h1003v-120l3 -31h-123v31h-764v-1651l766 -2v28h-738v869h736v26l-736 5v694h859l-3 -121h-735v-453l735 -2v-272h-735l2 -625l733 -2v-266q-125 0 -249.5 -1t-253.5 -1h-504zM260 2298h201l-15 -324h-163zM344 2038l29 -2l4 200h-29zM670 2298h204
l-20 -322h-166zM756 2038l28 -2l2 200l-26 2z" />
    <glyph glyph-name="endash" unicode="&#x2013;" horiz-adv-x="1128" 
d="M41 752v151h1024v-151h-1024z" />
    <glyph glyph-name="emdash" unicode="&#x2014;" horiz-adv-x="2152" 
d="M41 752v151h2048v-151h-2048z" />
    </font>
</defs>
</svg>
