<?xml version="1.0" standalone="no"?>
<!DOCTYPE svg PUBLIC "-//W3C//DTD SVG 1.1//EN" "http://www.w3.org/Graphics/SVG/1.1/DTD/svg11.dtd" >
<svg xmlns="http://www.w3.org/2000/svg" xmlns:xlink="http://www.w3.org/1999/xlink" version="1.1">
<metadata>
Created by FontForge 20150318 at Fri Aug 28 12:36:15 2015
 By uniteet7
Copyright (c) ParaType, Inc., 1999. All rights reserved.
</metadata>
<defs>
<font id="blocextconc" horiz-adv-x="915" >
  <font-face 
    font-family="blocextconc"
    font-weight="400"
    font-stretch="normal"
    units-per-em="2048"
    panose-1="2 0 5 6 4 0 0 2 0 4"
    ascent="1638"
    descent="-410"
    x-height="1176"
    cap-height="1475"
    bbox="-49.5 -483 2079 1774"
    underline-thickness="102"
    underline-position="-102"
    unicode-range="U+000D-2122"
  />
<missing-glyph horiz-adv-x="748" 
d="M68 0v1365h544v-1365h-544zM136 68h408v1229h-408v-1229z" />
    <glyph glyph-name=".notdef" horiz-adv-x="748" 
d="M68 0v1365h544v-1365h-544zM136 68h408v1229h-408v-1229z" />
    <glyph glyph-name="glyph1" horiz-adv-x="2048" 
 />
    <glyph glyph-name="glyph1" horiz-adv-x="2048" 
 />
    <glyph glyph-name="uni000D" unicode="&#xd;" horiz-adv-x="2048" 
 />
    <glyph glyph-name="space" unicode=" " horiz-adv-x="477" 
 />
    <glyph glyph-name="exclam" unicode="!" horiz-adv-x="516" 
d="M78 1430q-2 29 14.5 45t69.5 16h192q59 0 73.5 -19.5t10.5 -82.5l-57 -859q-4 -47 -14.5 -61t-55.5 -14h-104q-29 0 -43 5t-20.5 15t-7.5 23.5t-1 31.5zM94 74v227q0 29 11.5 46.5t64.5 17.5h182q29 0 49.5 -10.5t20.5 -63.5v-228q0 -25 -10.5 -44t-65.5 -19h-182
q-12 0 -24.5 2t-23 9t-16.5 21.5t-6 41.5z" />
    <glyph glyph-name="quotedbl" unicode="&#x22;" horiz-adv-x="677" 
d="M80 879v559h192v-559h-192zM406 879v559h192v-559h-192z" />
    <glyph glyph-name="numbersign" unicode="#" horiz-adv-x="1177" 
d="M72 463l10 82q2 8 10 24.5t39 16.5h160l39 262h-162q-23 0 -31 12t-6 29l10 82q2 8 10.5 24.5t38.5 16.5h162l54 381q2 14 10 27.5t37 13.5h92q20 0 32.5 -12.5t10.5 -28.5l-53 -381h208l54 381q2 14 10 27.5t37 13.5h92q20 0 32.5 -12.5t10.5 -28.5l-53 -381h143
q23 0 32 -8.5t5 -32.5l-10 -82q-2 -16 -14.5 -28.5t-34.5 -12.5h-144l-39 -262h146q23 0 32 -8.5t5 -32.5l-11 -82q-2 -16 -14 -28.5t-35 -12.5h-145l-54 -381q-2 -14 -10 -27.5t-37 -13.5h-92q-20 0 -32.5 12.5t-10.5 28.5l53 381h-208l-54 -381q-2 -14 -10 -27.5
t-37 -13.5h-92q-20 0 -32.5 12.5t-10.5 28.5l53 381h-159q-23 0 -31 12t-6 29zM473 586h209l39 262h-209z" />
    <glyph glyph-name="dollar" unicode="$" 
d="M59 326q0 12 1 30.5t10.5 34t29 26.5t56.5 11q25 0 38 -8t31 -23l23 -16q20 -16 40.5 -19.5t41.5 -3.5q45 0 70.5 9.5t38 22.5t14.5 27.5t2 22.5q0 18 -4.5 33.5t-20.5 34.5q-16 23 -37.5 38t-60.5 48l-90 78q-59 51 -94 101t-54.5 97.5t-26 92.5t-6.5 84q0 172 76 283.5
t223 129.5v127q0 10 1 17.5t26 7.5h109q25 0 27.5 -10.5t2.5 -22.5v-106l95 2q55 2 84.5 -7.5t42 -26t13.5 -41t1 -52.5v-146q0 -66 -18.5 -82t-51.5 -16q-25 0 -55 6l-27 6q-23 4 -39 8t-39 4q-8 0 -22 -1t-29.5 -7t-27 -18t-11.5 -37q0 -35 17 -59q6 -10 22.5 -26.5
t33.5 -34t33.5 -33t24.5 -23.5l105 -96q94 -86 125 -171t31 -182q0 -119 -23 -183t-57 -110q-37 -47 -90.5 -81.5t-137.5 -47.5v-141q0 -12 -3 -22.5t-27 -10.5h-109q-25 0 -26 7.5t-1 17.5v137q-37 -4 -78.5 -1t-79.5 9t-70 17.5t-46 23.5q-23 18 -24 31.5t-1 38.5z" />
    <glyph glyph-name="percent" unicode="%" horiz-adv-x="1343" 
d="M45 1141q0 80 7 147.5t34 116.5t79 76.5t144 27.5q49 0 86 -10t61.5 -23.5t39 -26.5t20.5 -22q43 -53 49 -155.5t6 -251.5q0 -53 -5 -110.5t-31.5 -105.5t-82 -80t-153.5 -32q-86 0 -132 28t-69 56q-41 53 -47 144.5t-6 220.5zM211 51q0 8 4 19.5t8 17.5l744 1399
q4 10 14 21.5t29 13.5h6q4 0 7 -2t7 -4l84 -41q10 -4 13 -13.5t3 -19.5q0 -8 -3 -13.5t-7 -9.5l-739 -1409q-14 -27 -27.5 -34t-21.5 -7q-10 0 -13.5 1t-7.5 3l-80 37q-20 10 -20 41zM260 938q0 -16 6 -35.5t41 -19.5t41 19.5t6 35.5v324q0 16 -6 34.5t-41 18.5t-41 -18.5
t-6 -34.5v-324zM772 416q0 113 14.5 183.5t46 111.5t82 56t121.5 15q98 0 151.5 -32.5t78 -80.5t28.5 -102.5t4 -97.5v-166q0 -70 -8 -130t-35.5 -106.5t-82 -73t-146.5 -26.5q-18 0 -43 2t-52.5 11.5t-55 26t-50.5 44.5q-41 53 -47 144.5t-6 220.5zM987 211q0 -39 15.5 -47
t31.5 -8t31.5 8t15.5 47v324q0 33 -12 43t-35 10q-35 0 -41 -18.5t-6 -34.5v-324z" />
    <glyph glyph-name="ampersand" unicode="&#x26;" horiz-adv-x="1071" 
d="M33 440q0 84 22.5 151.5t57 122t76.5 93.5t83 67q-35 51 -65.5 123t-30.5 150q0 74 25.5 136.5t71.5 108.5t112 71.5t143 25.5q84 0 143.5 -26.5t97.5 -69.5t55.5 -97.5t17.5 -107.5q0 -66 -23.5 -127.5t-57.5 -113.5t-70 -93t-60 -66l96 -204l14 8q4 29 5.5 36t1.5 11v8
v21q0 90 12 111.5t47 19.5l57 -2l80 2q31 0 48.5 -8.5t25.5 -19.5t10 -22.5t2 -17.5q0 -37 -8 -89t-25.5 -112.5t-45 -122t-64.5 -114.5l106 -199q14 -20 15 -39q0 -23 -16.5 -41t-47.5 -16l-133 8l-74 -6q-10 0 -20 8t-19.5 20.5t-16.5 26t-9 23.5q-61 -61 -126 -77.5
t-118 -16.5q-92 0 -165 33.5t-124 95t-78.5 145.5t-27.5 182zM322 453q0 -35 11 -66t31.5 -54.5t45 -37.5t53.5 -14q10 0 33.5 3t62.5 25l-160 307q-41 -35 -59 -77.5t-18 -85.5zM436 1169q0 -25 8.5 -50t19.5 -50t23.5 -45t22.5 -33q72 72 89 116t17 64q0 4 -1 19.5t-9 33
t-26.5 31t-51.5 13.5q-43 0 -67.5 -25.5t-24.5 -73.5z" />
    <glyph glyph-name="quotesingle" unicode="'" horiz-adv-x="352" 
d="M80 879v559h192v-559h-192z" />
    <glyph glyph-name="parenleft" unicode="(" horiz-adv-x="581" 
d="M51 662q0 256 45 418.5t110.5 256t139.5 128t131 34.5q14 0 39 -10t25 -55v-230q0 -18 -4.5 -31.5t-16.5 -25.5q-10 -10 -17 -15.5t-13.5 -9.5t-11.5 -8t-13 -14q-45 -61 -57.5 -156.5t-12.5 -238.5q0 -141 9.5 -232.5t19.5 -145t20.5 -75t12.5 -25.5q8 -14 16 -21
t15.5 -12.5t14.5 -10.5t15 -15t15.5 -24.5t7.5 -37.5v-215q0 -49 -21.5 -60t-44.5 -11q-78 0 -155.5 54t-131.5 140q-45 74 -72.5 160t-42 172t-18.5 168t-4 148z" />
    <glyph glyph-name="parenright" unicode=")" horiz-adv-x="581" 
d="M41 106q0 23 7 37.5t15 24.5t15.5 15t14.5 10.5t14.5 12.5t17.5 21q2 4 12 25.5t20.5 75t19.5 144.5t9 233q0 143 -12 238t-57 157q-8 10 -13.5 14t-11.5 8t-13 9.5t-18 15.5q-12 12 -16 25.5t-4 31.5v230q0 45 24.5 55t38.5 10q57 0 131 -34.5t139.5 -128t110.5 -256
t45 -418.5q0 -66 -4 -148t-18 -168t-42 -172t-73 -160q-53 -86 -131 -140t-156 -54q-23 0 -44 11t-21 60v215z" />
    <glyph glyph-name="asterisk" unicode="*" horiz-adv-x="1024" 
d="M131 1174q0 18 9.5 40.5t24.5 42t33.5 34t39.5 14.5h2q10 0 22 -11.5t27 -21.5q14 -10 17 -12.5t28 -22.5q18 -16 37.5 -31.5t54.5 -38.5q-2 16 -2 33t-2 33q0 8 -1 14t-1 15q-2 31 -4 48t-6 40l-9 65q-4 35 22 58.5t77 23.5q39 0 62.5 -9t35.5 -23.5t16 -29t4 -26.5
q0 -18 -4 -49t-9 -65.5t-11 -67.5t-12 -56l141 86q23 14 39 26.5t37 12.5q16 0 32.5 -13t28.5 -32.5t20.5 -41t8.5 -40.5q0 -35 -29 -54t-72 -32l-139 -41l96 -47q23 -10 46.5 -20t44 -22.5t33 -28t12.5 -35.5q0 -25 -16.5 -52.5t-30.5 -41.5q-10 -10 -30 -22.5t-36 -12.5
q-4 0 -11 3t-24.5 14t-47.5 35t-75 65l-35 30q10 -92 22.5 -154.5t12.5 -103.5q0 -35 -19.5 -50t-78.5 -15q-27 0 -48.5 7t-37.5 30q-10 16 -11 29.5t-1 27.5q0 35 3 45t5 33l12 147l-90 -61q-29 -20 -62.5 -43t-58.5 -23q-16 0 -31.5 13.5t-27.5 33t-19.5 40t-7.5 36.5
q0 33 17.5 51.5t45 29.5t62.5 18.5t70 17.5l47 12q-35 16 -55.5 24.5t-44.5 18.5l-17.5 7l-17.5 7t-20.5 8.5t-20.5 8.5q-47 20 -59.5 37.5t-12.5 34.5z" />
    <glyph glyph-name="plus" unicode="+" horiz-adv-x="1705" 
d="M254 592v61q0 31 14 45q10 10 25.5 11.5t25.5 1.5h435v422q0 10 1 25.5t11 25.5q14 14 45 14h61q39 0 51.5 -3t16.5 -7q10 -10 11 -23.5t1 -21.5v-432h434q10 0 25.5 -1t26.5 -12q14 -14 14 -45v-61q0 -39 -3 -51.5t-7 -16.5q-10 -10 -23.5 -11t-21.5 -1h-445v-457
q0 -8 -1 -21.5t-11 -23.5q-4 -4 -16.5 -7t-51.5 -3h-61q-31 0 -45 14q-10 10 -11 25.5t-1 26.5v446h-445q-8 0 -21.5 1t-23.5 11q-4 4 -7 16.5t-3 51.5z" />
    <glyph glyph-name="comma" unicode="," horiz-adv-x="454" 
d="M63 74v227q0 29 11.5 46.5t64.5 17.5h183q29 0 49 -10.5t20 -63.5v-228q0 -23 -7 -37t-13 -24l-92 -164q-8 -14 -24.5 -21t-35.5 -7h-84q-20 0 -27.5 7t-8.5 16t3 16.5t4 9.5l17 30q10 18 17 31.5t13.5 25t12.5 24t14 30.5h-33q-31 0 -48 4t-25 13.5t-9.5 23.5t-1.5 33z
" />
    <glyph glyph-name="hyphen" unicode="-" horiz-adv-x="595" 
d="M72 539v133q0 31 14 45q10 10 25.5 11t25.5 1h322q10 0 25.5 -1t25.5 -11q14 -14 14 -45v-133q0 -39 -3 -51.5t-7 -16.5q-10 -10 -23.5 -11t-21.5 -1h-342q-8 0 -21.5 1t-23.5 11q-4 4 -7 16.5t-3 51.5z" />
    <glyph glyph-name="period" unicode="." horiz-adv-x="454" 
d="M63 74v227q0 29 11.5 46.5t64.5 17.5h183q29 0 49 -10.5t20 -63.5v-228q0 -25 -10 -44t-66 -19h-182q-12 0 -24.5 2t-22.5 9t-16.5 21.5t-6.5 41.5z" />
    <glyph glyph-name="slash" unicode="/" horiz-adv-x="569" 
d="M-49 -120q2 9 6 24l489 1655q4 16 19.5 31.5t40.5 6.5l98 -28q23 -6 21 -24.5t-4 -22.5l-486 -1672q-12 -41 -30.5 -46t-32.5 -1l-95 25q-8 2 -13 9t-9 18q-6 16 -4 25z" />
    <glyph glyph-name="zero" unicode="0" 
d="M55 827q0 68 1 140.5t9.5 141.5t24.5 130t47 111q41 61 118 106t206 45q78 0 135 -19.5t98 -48t67.5 -64.5t41.5 -66q43 -92 49 -236.5t6 -310.5v-183q0 -61 -1 -118.5t-8 -111.5t-24.5 -105.5t-48.5 -100.5q-45 -70 -121.5 -116t-210.5 -46q-66 0 -115.5 15.5t-86.5 39
t-62.5 50t-40.5 51.5q-33 51 -50 121t-24.5 158t-8.5 192.5t-1 224.5zM377 422q0 -72 23.5 -91.5t52.5 -19.5q14 0 27.5 4t22.5 16.5t15 37t6 67.5v602q0 72 -16 109t-57 37q-27 0 -42.5 -13.5t-22.5 -34t-8 -44t-1 -43.5v-627z" />
    <glyph glyph-name="one" unicode="1" 
d="M63 1059q0 14 5.5 24.5t15.5 20.5l270 330q29 35 54.5 43t60.5 8h156q10 0 20 -1t21 -16q10 -14 13 -32.5t3 -36.5v-1274v-51.5t-7 -39t-26.5 -25.5t-58.5 -9h-191q-27 0 -38 11.5t-15 38t-3 67.5t1 100q0 47 2 91t2 91q0 74 -2 149t-2 148q0 51 1 88t2 76t1 87t-2 120
l-88 -121q-10 -12 -20.5 -16t-18.5 -4q-12 0 -24.5 8t-20.5 14l-82 72q-18 16 -23.5 23.5t-5.5 15.5z" />
    <glyph glyph-name="two" unicode="2" 
d="M78 72v153q0 31 8 55.5t31 47.5l114 108q51 49 100.5 122t87.5 154t61.5 161.5t23.5 146.5q0 29 -1 56.5t-9.5 50t-23.5 37t-44 14.5q-41 0 -51 -34t-10 -85v-68v-33.5t-5.5 -33t-17.5 -25.5t-39 -10h-156q-20 0 -33.5 3t-20.5 15.5t-10 35t-3 61.5v92q0 74 13 130
t32.5 95t40 62.5t33.5 35.5q31 29 66.5 45.5t69.5 24.5t63.5 10t52.5 2q90 0 158.5 -25.5t121.5 -89.5q31 -37 50.5 -78.5t30.5 -84.5t14 -86t3 -82q0 -184 -81.5 -361.5t-260.5 -351.5h240q37 0 56.5 -7t26.5 -20.5t8 -32t1 -42.5v-170q0 -12 -2 -24.5t-11 -23t-27.5 -16.5
t-49.5 -6h-588q-6 0 -17 2t-21.5 9t-17.5 21.5t-7 39.5z" />
    <glyph glyph-name="three" unicode="3" 
d="M16 178q0 18 5.5 24.5t9.5 14.5l110 174q16 23 35 28t23 5q16 0 29.5 -8t33.5 -25q16 -12 41 -29.5t64 -17.5q18 0 39.5 6t38 21.5t27.5 43t11 68.5q0 55 -13 87t-33.5 48.5t-44 20.5t-44.5 4h-53q-37 0 -53.5 14.5t-16.5 63.5v168q0 6 2 17.5t9.5 22.5t22.5 18t44 7h35
q68 0 100.5 37t32.5 78q0 47 -31.5 78t-77.5 31q-41 0 -64.5 -20.5t-33.5 -37.5q-10 -12 -18 -21t-25 -9q-16 0 -24.5 9t-24.5 25l-102 119q-10 10 -13.5 24.5t-3.5 24.5q0 33 31 62.5t70 56.5q41 29 108.5 58.5t171.5 29.5t168 -32.5t100 -73.5q33 -35 66 -98.5t33 -170.5
q0 -43 -8.5 -94t-38.5 -102q-20 -35 -46 -56.5t-55 -37.5q43 -20 72 -47t51 -64q35 -59 46.5 -118.5t11.5 -125.5q0 -88 -24 -184t-97 -180q-20 -23 -49 -46.5t-67 -43t-86 -31.5t-105 -12q-104 0 -183.5 33.5t-128.5 64.5q-41 25 -59.5 42t-18.5 56z" />
    <glyph glyph-name="four" unicode="4" 
d="M35 393v166q0 10 1 16.5t13 34.5l227 508q43 94 71 153.5t46.5 95.5t28.5 53.5t16 27.5q23 33 37 35t41 2h184q14 0 33 -10.5t19 -59.5v-786h71q8 0 23.5 -7.5t15.5 -46.5v-190q0 -51 -20.5 -59.5t-36.5 -8.5h-53v-233q0 -25 -2 -41t-11.5 -25.5t-29 -13.5t-54.5 -4h-166
q-31 0 -46 6t-21 16.5t-6 24.5v31v239h-320q-29 0 -45 9.5t-16 66.5zM281 631h151v366z" />
    <glyph glyph-name="five" unicode="5" 
d="M18 176q0 12 6.5 24.5t16.5 30.5l86 156q27 49 70 49q23 0 41 -13t28 -28l10 -14q16 -25 33 -35t49 -10q45 0 71 22.5t40 55t18.5 70.5t4.5 69q0 27 -4.5 60.5t-19.5 62.5t-45 49t-79 20q-35 0 -60.5 -13t-39.5 -23q-6 -6 -13.5 -12.5t-21.5 -6.5t-31.5 7.5t-31 17.5
t-22.5 22.5t-9 22.5l2 20l4 51v529q0 20 2 42.5t11 41t27.5 30t53.5 11.5h461q76 0 94 -17.5t18 -56.5v-174q0 -23 -8 -37t-63 -14h-262q-31 0 -41 -33q-4 -10 -5 -24.5t-1 -24.5q0 -14 2 -29.5t10 -23.5q10 -10 29 -11l53 2q59 2 105 -13t80 -41.5t57.5 -59.5t39.5 -66
q20 -41 31.5 -87t17 -90t6.5 -81t1 -59q0 -49 -5.5 -102.5t-19.5 -107.5t-37.5 -107.5t-62.5 -100.5q-76 -92 -164 -122t-158 -30q-90 0 -158.5 30t-128.5 67q-25 16 -56.5 42.5t-31.5 61.5z" />
    <glyph glyph-name="six" unicode="6" 
d="M55 657q0 129 16.5 259.5t73.5 259.5q72 160 186.5 241.5t291.5 81.5q80 0 110.5 -10t40.5 -21q23 -20 28 -46.5t5 -45.5v-151q0 -39 -18.5 -59.5t-40.5 -14.5l-27 6q-18 4 -33.5 9t-50.5 5q-90 0 -151.5 -54t-67.5 -156l6 -9q43 29 82 36t74 7q20 0 46.5 -3t56.5 -15
t58.5 -34.5t53.5 -59.5q35 -55 47 -148.5t12 -261.5q0 -45 -3 -95t-14.5 -100.5t-32 -99.5t-56.5 -90q-14 -16 -38 -35.5t-59 -37t-82 -29t-110 -11.5q-190 0 -291 140q-41 55 -63.5 123.5t-33 141.5t-13.5 144.5t-3 132.5zM392 552q1 -38 1 -73q0 -59 3 -98t11.5 -60.5
t23.5 -29.5t38 -8q39 0 56.5 24.5t17.5 83.5v76q0 35 1 76t-5.5 74.5t-23.5 56t-52 22.5q-31 0 -46.5 -20.5t-20.5 -53t-4 -70.5z" />
    <glyph glyph-name="seven" unicode="7" 
d="M94 1255v144q0 35 7.5 52t21.5 25.5t31.5 8.5h40.5h534h49.5t36.5 -23q6 -12 7 -27.5t1 -33.5v-109v-8q0 -31 -12 -61.5t-33 -87.5q-23 -66 -47 -148t-48 -171t-45.5 -181t-35.5 -174q-29 -154 -34 -242t-5 -119v-28q0 -29 -9 -43.5t-21.5 -20.5t-24.5 -7t-19 -1h-235
q-16 0 -30.5 2t-25 11.5t-17.5 27.5t-7 51q0 45 9.5 108.5t36 167t75.5 258t131 384.5l57 161h-313h-26.5t-24.5 6.5t-17.5 24t-7.5 53.5z" />
    <glyph glyph-name="eight" unicode="8" 
d="M37 418q0 51 9 105.5t30.5 103.5t58.5 93t92 77v8q-49 41 -79.5 84t-46 84t-20.5 76.5t-5 62.5q0 119 40 187.5t85 105.5q51 43 121.5 67.5t169.5 24.5q160 0 260 -102q49 -49 75.5 -117t26.5 -158q0 -94 -38 -175t-109 -140v-8q27 -18 57.5 -46t56 -71t42 -103.5
t16.5 -142.5q0 -121 -38 -207t-99.5 -140t-140.5 -79.5t-159 -25.5q-86 0 -160.5 31.5t-129 89t-85 137t-30.5 178.5zM365 449q0 -72 27.5 -103t64.5 -31q8 0 24.5 3.5t30.5 15.5t25.5 35.5t11.5 64.5q0 96 -27.5 144.5t-62.5 70.5q-94 -76 -94 -200zM375 1135
q0 -43 27.5 -84t72.5 -68q25 23 47.5 60.5t22.5 93.5q0 8 -2 23.5t-10.5 31.5t-24.5 28.5t-47 12.5q-47 0 -66.5 -29.5t-19.5 -68.5z" />
    <glyph glyph-name="nine" unicode="9" 
d="M55 999q0 57 5.5 114.5t19.5 111t40.5 100.5t69.5 86q61 53 131 68.5t130 15.5q125 0 197.5 -47t113.5 -119q55 -92 74.5 -215t19.5 -266q0 -160 -20.5 -299t-73.5 -260q-72 -156 -186.5 -235t-284.5 -79q-61 0 -98 6.5t-57.5 20.5t-27 36.5t-6.5 55.5v154
q0 39 18.5 58.5t41.5 12.5l26 -6q16 -4 33 -9t51 -5q41 0 83 13.5t71 39.5q29 27 45 72t21 88l-7 8q-20 -14 -58 -29.5t-97 -15.5q-78 0 -132.5 35t-82.5 80q-18 27 -29.5 62.5t-18 84.5t-9.5 113.5t-3 148.5zM362 919.5q0 -36.5 6.5 -68.5t24 -52.5t51.5 -20.5
q33 0 48.5 16.5t21.5 44t5 62.5t-1 70q0 111 -14.5 162t-69.5 51q-35 0 -53.5 -23.5t-18.5 -83.5v-86v-71.5z" />
    <glyph glyph-name="colon" unicode=":" horiz-adv-x="516" 
d="M94 74v227q0 29 11.5 46.5t64.5 17.5h182q29 0 49.5 -10.5t20.5 -63.5v-228q0 -25 -10.5 -44t-65.5 -19h-182q-12 0 -24.5 2t-23 9t-16.5 21.5t-6 41.5zM94 731v227q0 29 11.5 46.5t64.5 17.5h182q29 0 49.5 -10.5t20.5 -63.5v-227q0 -25 -10.5 -44.5t-65.5 -19.5h-182
q-12 0 -24.5 2.5t-23 9.5t-16.5 21.5t-6 40.5z" />
    <glyph glyph-name="semicolon" unicode=";" horiz-adv-x="485" 
d="M94 74v227q0 29 11.5 46.5t64.5 17.5h182q29 0 49.5 -10.5t20.5 -63.5v-228q0 -23 -7 -37t-14 -24l-92 -164q-8 -14 -24.5 -21t-34.5 -7h-84q-20 0 -27.5 7t-8.5 16t3 16.5t4 9.5l17 30q10 18 17 31.5t13 25t12.5 24t14.5 30.5h-33q-31 0 -48 4t-25.5 13.5t-9.5 23.5
t-1 33zM94 731v227q0 29 11.5 46.5t64.5 17.5h182q29 0 49.5 -10.5t20.5 -63.5v-227q0 -25 -10.5 -44.5t-65.5 -19.5h-182q-12 0 -24.5 2.5t-23 9.5t-16.5 21.5t-6 40.5z" />
    <glyph glyph-name="less" unicode="&#x3c;" horiz-adv-x="1705" 
d="M264 512v199l1178 483v-219l-893 -365l893 -364v-219z" />
    <glyph glyph-name="equal" unicode="=" horiz-adv-x="1705" 
d="M254 377v61q0 31 14 45q10 10 25.5 11.5t25.5 1.5h1067q10 0 25.5 -1t26.5 -12q14 -14 14 -45v-61q0 -39 -3 -51.5t-7 -16.5q-10 -10 -23.5 -11t-21.5 -1h-1088q-8 0 -21.5 1t-23.5 11q-4 4 -7 16.5t-3 51.5zM254 807v61q0 31 14 45q10 10 25.5 11.5t25.5 1.5h1067
q10 0 25.5 -1t26.5 -12q14 -14 14 -45v-61q0 -39 -3 -51.5t-7 -16.5q-10 -10 -23.5 -11t-21.5 -1h-1088q-8 0 -21.5 1t-23.5 11q-4 4 -7 16.5t-3 51.5z" />
    <glyph glyph-name="greater" unicode="&#x3e;" horiz-adv-x="1705" 
d="M264 27v219l895 364l-895 365v219l1178 -483v-199z" />
    <glyph glyph-name="question" unicode="?" horiz-adv-x="663" 
d="M35 1327q0 31 5 61.5t25.5 55t61.5 41t115 16.5q66 0 120 -10t107 -51q55 -43 79.5 -101.5t24.5 -142.5q0 -82 -23.5 -151.5t-62.5 -159.5l-20 -47q-20 -47 -33.5 -102.5t-11.5 -90.5l8 -123q2 -29 -10 -48t-70 -19h-125q-23 0 -35 17t-18 45t-8 64.5t-2 73.5
q0 51 5 98.5t12 85.5t13.5 64.5t8.5 36.5q4 18 11 49t7 60q0 12 -3 30.5t-7 28.5q-6 12 -20.5 23.5t-30.5 7.5l-56 -11q-12 -2 -24 5.5t-21.5 29t-15.5 61.5t-6 103zM147 74v227q0 29 11.5 46.5t64.5 17.5h183q29 0 49 -10.5t20 -63.5v-228q0 -25 -10 -44t-66 -19h-182
q-12 0 -24.5 2t-22.5 9t-16.5 21.5t-6.5 41.5z" />
    <glyph glyph-name="at" unicode="@" horiz-adv-x="1622" 
d="M90 717q0 154 57.5 287t158 232t238.5 156.5t302 57.5q139 0 264 -43t219 -123t149.5 -194.5t55.5 -258.5q0 -88 -26.5 -175t-79 -156.5t-132 -112.5t-186.5 -43q-29 0 -78 8t-82 56q-4 4 -8 12t-10 8q-14 0 -26.5 -9t-34 -21.5t-56.5 -21.5t-90 -9q-82 0 -124 32.5
t-58.5 76.5t-15.5 91t5 76l29 217q2 23 12.5 64t35 80.5t70.5 68.5t120 29q49 0 88 -15q20 -6 28.5 -12t18.5 -6t16 6q6 4 14.5 10.5t24.5 6.5h119q16 0 27.5 -13.5t7.5 -31.5l-58 -402q-2 -10 -3 -28.5t3.5 -36t16.5 -30.5t39 -13q35 0 68.5 20.5t60 58t43 90t16.5 117.5
q0 80 -28.5 160t-88 144.5t-149.5 104.5t-215 40q-117 0 -217.5 -42t-172 -117t-112.5 -176t-41 -220q0 -111 38 -211t108.5 -176t174 -121t234.5 -45q61 0 131 10t131 33l45 16q16 6 35 8t29 -22l24 -72q8 -23 11.5 -39t-29.5 -32l-25 -13q-35 -16 -77.5 -29.5t-91 -22.5
t-97.5 -13t-94 -4q-166 0 -306 57t-241.5 156.5t-158 233.5t-56.5 286zM752 614q-4 -31 9 -44t27 -13q43 0 57.5 26.5t16.5 39.5l35 237q2 12 -5 33.5t-36 21.5q-18 0 -43 -13t-29 -50z" />
    <glyph glyph-name="A" unicode="A" horiz-adv-x="894" 
d="M-14 59q0 25 4 44.5t12 56.5l64 307q2 12 4 21.5t4 19.5t5 26.5t7 43.5q12 88 25.5 169.5t29 163.5t30.5 167t32 179l8 48q6 33 10 63.5t13.5 54t24.5 38t42 14.5h252q18 0 40.5 -2.5t39.5 -22.5q4 -6 8 -16.5t11 -38t17.5 -77.5t28.5 -132l58 -271q10 -49 15 -80.5
t12.5 -80.5t19.5 -131t39 -230q8 -43 18 -89t20.5 -88t17.5 -78t7 -60q0 -37 -26.5 -57.5t-67.5 -20.5h-176q-25 0 -42.5 14.5t-23.5 32.5t-7 34.5t-3 43.5q-2 23 -3 39t-7 35q-10 29 -27.5 44t-58.5 15q-18 0 -39 -3t-38 -10t-28.5 -19.5t-11.5 -30.5l2 -72v-18
q0 -29 -5 -49q-7 -24 -21.5 -37t-32 -16t-37.5 -3h-189q-29 0 -44 7t-23 16.5t-9 19.5t-1 16zM373 616q2 -10 17.5 -22t60.5 -12q27 0 51 9q22 8 22 42v6l-4 45l-65 428l-17 -2l-57 -416l-3 -15t-1 -9t-1 -13.5t-3 -29.5v-11z" />
    <glyph glyph-name="B" unicode="B" horiz-adv-x="933" 
d="M63 158v69q0 76 4.5 152t4.5 151q0 92 -4.5 181.5t-4.5 181.5q0 51 2.5 93t3.5 91t1 116t-7 167v35.5t12.5 41t40.5 31.5q24 11 67 11h14l88 -4h243q53 0 111.5 -12.5t107 -49.5t80 -106.5t31.5 -186.5q0 -143 -33.5 -210.5t-103.5 -96.5q90 -41 124 -126t34 -241
q0 -72 -10.5 -148.5t-51.5 -141.5q-35 -53 -77 -85t-87 -47.5t-92 -19.5t-90 -4h-283q-23 0 -53.5 4t-46.5 14q-10 8 -17.5 33t-7.5 107zM382 387q0 -29 6.5 -46t17 -25.5t21.5 -10.5t22 -2q14 0 33.5 4t37 21.5t29.5 50.5t12 88q0 25 -3 52.5t-14.5 51t-34 39t-60.5 15.5
q-47 0 -57.5 -25t-9.5 -43v-170zM387 977q0 -10 8 -23.5t31 -13.5q123 0 123 131q0 39 -12.5 62.5t-28.5 36t-32.5 15.5t-24.5 3h-14.5t-20.5 -4t-19.5 -13.5t-9.5 -27.5v-166z" />
    <glyph glyph-name="C" unicode="C" horiz-adv-x="722" 
d="M41 760q0 205 26.5 354.5t104.5 233.5q41 43 90 68.5t101.5 37.5t104.5 16.5t95 4.5q20 0 42 -2.5t38 -13.5t25.5 -32.5t9.5 -60.5l-2 -88l4 -76q2 -31 -5 -49t-18.5 -27.5t-25 -12.5t-23.5 -3h-43q-14 0 -27.5 -2t-23.5 -6q-43 -14 -66.5 -45t-34 -78t-11.5 -108.5
t-1 -137.5q0 -82 2.5 -138t7.5 -94t11 -59.5t14 -35.5q12 -24 38 -44q24 -19 60 -18h7l82 4q25 2 37 -10t16 -31.5t5 -43t1 -44.5l4 -115q0 -23 -3 -43t-17.5 -35.5t-43 -23.5t-79.5 -8q-59 0 -113.5 6t-104 22.5t-92.5 48t-77 85.5q-76 111 -95.5 267.5t-19.5 336.5z" />
    <glyph glyph-name="D" unicode="D" horiz-adv-x="966" 
d="M61 1382q0 16 5.5 37t15.5 31q16 16 44 20.5t48 4.5q35 0 68.5 -2.5t68.5 -2.5q41 0 81 2.5t81 2.5q35 0 75 -5.5t80 -19.5t78.5 -39t71.5 -63q51 -61 80 -149.5t42 -184.5t15.5 -192.5t2.5 -172.5q0 -59 -2.5 -123.5t-11.5 -131t-30.5 -132t-60.5 -123.5
q-37 -55 -104.5 -99t-188.5 -44q-10 0 -21.5 1t-21.5 1t-22.5 1t-22.5 1h-113q-47 0 -82.5 -3t-62.5 -4h-9q-23 0 -39 4q-20 5 -36 21q-20 20 -22 41t-2 43v150v21.5t1 14.5t2 17t1 33v56t1 91.5t1 93.5v66v156q0 119 -1 204t-3 144t-3.5 95t-1.5 56zM383 1051q0 -55 3 -82
t3 -51v-476l-2 -41v-11q-1 -36 11 -58q14 -26 61 -27q27 0 45 9.5t35 33.5q20 33 23 86t3 168v127v138.5t-2 99.5t-10 71.5t-23 55.5q-14 23 -31.5 34t-52.5 11q-12 0 -25 -3t-24 -18q-12 -16 -13 -33.5t-1 -33.5z" />
    <glyph glyph-name="E" unicode="E" horiz-adv-x="778" 
d="M61 86l7 98q0 16 2 22.5t4 18t3 34t1 71.5v993l-1 77q0 34 27 56q12 10 39 14.5t86 4.5h394q66 0 86 -22.5t22 -84.5v-31q0 -16 1 -32.5t1 -32.5v-10v-19q0 -37 -9 -57.5t-22.5 -29.5t-32 -11t-36.5 -2l-170 2q-23 0 -41.5 -11.5t-18.5 -70.5v-66q0 -41 23 -53t49 -10
l139 6q29 2 49.5 -2t33 -17.5t18.5 -42t6 -75.5v-60q0 -18 -2 -42.5t-10.5 -46t-25.5 -36t-46 -12.5l-121 6q-17 1 -31 1q-21 0 -35 -2q-22 -3 -31 -11t-9 -21.5v-33.5v-121q0 -51 10 -63.5t57 -12.5l180 2q25 0 41.5 -3t27.5 -18.5t16.5 -46t5.5 -87.5v-76
q0 -45 -11.5 -69.5t-29 -35t-36 -12.5t-32.5 -2q-66 0 -130.5 4t-129.5 4q-55 0 -110.5 -4t-112.5 -4q-29 0 -47.5 8t-29.5 21.5t-14.5 29t-3.5 27.5z" />
    <glyph glyph-name="F" unicode="F" horiz-adv-x="727" 
d="M59 72q0 14 1 23t1 19.5t1 25t1 38.5v1102l-2 96q0 18 1 37t9.5 33t27 22.5t53.5 8.5q27 0 50 -1t62 -1h289q31 0 59 2h12q22 1 40 -5q24 -8 38 -30q12 -20 11 -60v-12l-4 -96q0 -23 -1 -44.5t-10.5 -38.5t-31 -28.5t-62.5 -11.5h-137q-27 0 -50.5 -7t-23.5 -57v-102
q-1 -21 13 -39q11 -15 51 -15q8 0 18 1l164 8q6 0 17.5 -2t20.5 -10t15 -26.5t6 -51.5l-2 -80v-51q0 -25 -2 -47.5t-12 -38t-29.5 -24.5t-54.5 -7l-121 4q-23 0 -38 -2t-25.5 -12t-14.5 -31.5t-4 -58.5v-297l6 -133q2 -27 -6 -42.5t-20.5 -23.5t-26.5 -10t-26 -2
q-33 0 -64 3t-61 3q-23 0 -43.5 -2t-42.5 -2q-8 0 -17.5 1t-16.5 8t-12.5 22.5t-5.5 44.5z" />
    <glyph glyph-name="G" unicode="G" horiz-adv-x="948" 
d="M33 696q0 164 36.5 311.5t133.5 268.5q72 88 174 143.5t260 55.5q86 0 128 -11.5t60 -27.5q29 -25 36 -55.5t7 -55.5v-78q0 -72 -17 -103.5t-56 -31.5q-16 0 -34 5t-38 9q-14 4 -37.5 6.5t-40.5 2.5q-18 0 -46 -4.5t-59.5 -17.5t-62.5 -41t-53 -75q-29 -59 -36 -126.5
t-7 -135.5q0 -78 6 -143.5t23 -124.5q12 -45 29.5 -70.5t36 -39t34.5 -17.5t29 -4q47 0 55 37t8 76v114q0 25 -17.5 35t-31.5 16q-12 6 -23.5 13.5t-20.5 21t-14.5 32.5t-2.5 48l4 98q2 20 6 48t20 45q20 20 52 23t59 3h119q27 0 50 -3t41.5 -16.5t30 -43t11.5 -82.5v-645
q0 -53 -4 -77t-25 -40q-20 -18 -53 -29.5t-71 -19.5t-76 -11.5t-66 -3.5q-111 0 -212.5 43t-178 132.5t-121.5 225.5t-45 320z" />
    <glyph glyph-name="H" unicode="H" horiz-adv-x="933" 
d="M61 84q0 8 1 15t1 16q4 31 4 60q-1 3 -1 7v68v1104q0 33 2 56.5t13 37.5t35.5 20.5t71.5 6.5h91q45 0 70.5 -9.5t37.5 -22.5t14 -31.5t2 -37.5v-14l-14 -365q0 -16 1 -32.5t9.5 -32t24.5 -24.5t45 -9q31 0 47 13.5t24.5 34t9.5 45t1 44.5q0 53 -3 90t-3 78v189
q0 18 1 34.5t13 26.5t40 16.5t81 6.5h96q43 0 69.5 -13.5t26.5 -68.5q0 -16 -1 -33t-3 -41q-2 -63 -2 -89v-38v-805q0 -55 1 -93t2 -67.5t2 -55.5t1 -56q0 -45 -9 -64.5t-15 -25.5q-8 -8 -27.5 -16.5t-44.5 -8.5h-145q-14 0 -30.5 3t-31 15.5t-23.5 36t-9 64.5v180
q0 31 2 47t6 53q4 33 7 53.5t3 45.5q0 47 -21.5 58t-39.5 11q-37 0 -56.5 -11t-29 -28.5t-11.5 -40t-2 -47.5v-323v-41t-10 -38.5t-36.5 -27.5t-82.5 -10h-80h-44t-39.5 7t-30 24.5t-11.5 52.5z" />
    <glyph glyph-name="I" unicode="I" horiz-adv-x="464" 
d="M61 109v110q0 25 1 35t2.5 22.5t1.5 36v76.5v89.5v137t1 160.5t1 161t1 137.5t1 90.5v62q0 23 -2 46t0 46v21.5v7.5t-1 3t-1 11v20q0 31 4 49.5t16 27.5t35.5 12.5t62.5 3.5h95q41 0 64.5 -3.5t35.5 -18.5t16 -47t4 -87l-6 -973l4 -225q0 -37 -4 -60.5t-18.5 -37
t-41 -18.5t-67.5 -5h-71q-31 0 -56.5 1t-42 10t-26 32t-9.5 66z" />
    <glyph glyph-name="J" unicode="J" horiz-adv-x="573" 
d="M29 131v92q0 35 4 54.5t11 28.5t17.5 12.5t24.5 7.5l10 2q16 4 33.5 5t26.5 27q2 6 3 18.5t2 36t1 60.5v94l-2 807q0 37 6 57.5t17.5 30t28.5 10.5t40 1h143q43 0 63.5 -9.5t30 -25t9.5 -35v-39.5v-981q0 -145 -18.5 -226t-52.5 -120t-80 -46t-99 -7q-92 0 -135 5t-62 25
q-20 23 -21 54.5t-1 60.5z" />
    <glyph glyph-name="K" unicode="K" horiz-adv-x="890" 
d="M63 137l3 1030q0 23 -1.5 43.5t-1.5 42.5v52v84q0 49 20.5 67.5t98.5 18.5h121q16 0 30.5 -1t26 -10.5t17.5 -29t6 -54.5v-14l-8 -399h31l114 446q8 31 23.5 46.5t56.5 15.5h213q25 0 41 -7.5t16 -31.5q0 -20 -8 -41t-14 -35l-189 -451q-4 -12 -8 -24.5t-6 -28.5
q31 -117 56.5 -199t48.5 -153l79 -248q8 -29 19.5 -60.5t21 -60.5t15.5 -54.5t6 -39.5t-11.5 -27.5t-54.5 -13.5q-25 0 -48 2t-48 2q-18 0 -37.5 -2t-38.5 -2q-37 0 -58.5 2t-33.5 13.5t-20.5 33t-16.5 62.5l-118 505h-27v-501q0 -43 -6 -65.5t-17.5 -34t-29 -13.5t-39.5 -2
h-97q-49 0 -74.5 6t-37.5 21.5t-13.5 42t-1.5 67.5z" />
    <glyph glyph-name="L" unicode="L" horiz-adv-x="657" 
d="M61 188v1147q0 49 4.5 77t12.5 42t22.5 17.5t32.5 3.5l90 -2l109 4q27 0 39 -9.5t17 -28t4 -44t-1 -58.5l-2 -243q-1 -102 -1 -205t1 -205q2 -53 3 -105.5t1 -105.5v-31.5t4 -38.5q2 -10 5.5 -22t11.5 -22.5t22.5 -16.5t38.5 -4l80 6q33 2 52.5 -9t27.5 -29.5t10 -42
t2 -44.5v-108q0 -8 -2 -26.5t-13 -38t-34 -34t-66 -14.5l-83 2h-256l-52 -4h-7q-18 0 -31 8q-15 10 -23 21q-18 25 -18.5 66.5t-0.5 96.5z" />
    <glyph glyph-name="M" unicode="M" horiz-adv-x="1185" 
d="M68 1397q0 41 17 59.5t87 18.5h190q20 0 39 -2.5t33.5 -14.5t26.5 -38.5t24 -76.5l99 -434h24l119 490q12 53 35.5 64.5t44.5 11.5h225q16 0 33.5 -3.5t32.5 -19.5q12 -14 15 -44t3 -99q0 -84 -1 -135.5t-1 -81t-2 -45t-2 -28.5t-1 -31.5t-1 -53.5l4 -625v-90
q2 -35 3 -56.5t1 -43.5q0 -68 -11 -93.5t-52 -25.5h-185q-47 0 -60 28.5t-13 77.5v394q0 47 -1 77.5t-2 59.5t-2.5 61.5t-3.5 83.5h-28q-25 -127 -48.5 -205.5t-44 -121.5t-36 -58.5t-27.5 -15.5q-25 0 -49.5 38t-46 90t-38.5 105.5t-26 83.5l-26 84h-25v-598v-100t-16 -68
q-8 -10 -29.5 -13t-66.5 -3h-134q-10 0 -23 3t-24.5 14.5t-19.5 35t-8 64.5v958q0 49 1 98.5t1 98.5q0 31 -2 62.5t-2 62.5z" />
    <glyph glyph-name="N" unicode="N" horiz-adv-x="1024" 
d="M63 139v1184q0 53 6.5 83t18.5 45t30.5 19.5t41.5 4.5h186q41 0 56.5 -13.5t21.5 -40.5l12 -47q84 -317 174 -596h41v574q0 29 1 52t9.5 38.5t26 24t47.5 8.5h127q35 0 54.5 -6.5t28.5 -17.5t11 -26.5t2 -33.5l-2 -45v-1174q0 -84 -15 -128t-77 -44h-166q-31 0 -49 3
t-30.5 15.5t-21.5 37t-22 69.5l-165 571h-41v-571q0 -45 -5.5 -70.5t-16.5 -38t-30.5 -14.5t-46.5 -2h-104q-31 0 -51.5 3t-31.5 16.5t-15.5 41t-4.5 78.5z" />
    <glyph glyph-name="O" unicode="O" horiz-adv-x="1034" 
d="M51 725q0 180 13.5 324.5t66.5 244.5q37 70 90 111t109.5 62.5t112 27.5t98.5 6t85 -4t84 -17.5t80.5 -39t73.5 -66.5q41 -49 64.5 -103t35 -112.5t14.5 -118t3 -116.5v-236q0 -51 -2 -114.5t-8 -127t-16.5 -122t-28.5 -101.5q-20 -51 -57.5 -96t-90.5 -79t-126.5 -53.5
t-168.5 -19.5q-37 0 -77.5 4.5t-81.5 19.5t-82 44t-78 78q-31 43 -52.5 97t-35 126t-19.5 166t-6 215zM416 526q0 -68 4 -106.5t22 -61.5q14 -16 32 -22t32 -6q29 0 49 10t37 39q10 18 15 39.5t7 52.5t2 74v104v346q0 66 -24.5 112t-73.5 46q-18 0 -38.5 -8t-35.5 -31
q-12 -18 -17 -41.5t-8 -49.5t-3 -49.5v-39.5v-408z" />
    <glyph glyph-name="P" unicode="P" horiz-adv-x="935" 
d="M63 1368q-1 7 -1 13q0 33 18 61q10 18 23.5 24.5t37.5 8.5l62 4q90 6 176 11q33 2 65 2q50 0 96 -5q76 -8 142 -32.5t115 -78.5q43 -45 66.5 -102t35.5 -116.5t15.5 -115t3.5 -96.5q0 -94 -12.5 -163.5t-29 -120t-36 -83t-33.5 -51.5q-20 -29 -51 -55.5t-69 -48
t-82 -33.5q-38 -10 -76 -10h-13l-39 2q-16 2 -39.5 -2t-36.5 -14q-14 -12 -18 -33t-4 -37v-51t4 -96l4 -72v-7q-1 -47 -25 -59q-26 -12 -51 -12q-20 0 -39.5 3t-38.5 3q-29 0 -55 -6q-20 -4 -41 -4h-14q-41 2 -49 25.5t-8 44.5l2 65l-2 164l8 678q1 51 1 95q0 88 -3 142
q-4 82 -6 111zM369 874q0 -82 11 -125.5t79 -43.5q45 0 65.5 16t30.5 37q16 33 19.5 65.5t3.5 67.5q0 104 -6.5 161.5t-30.5 88.5q-31 39 -82 39q-33 0 -50.5 -13.5t-26.5 -32t-11 -40t-2 -37.5v-183z" />
    <glyph glyph-name="Q" unicode="Q" horiz-adv-x="1071" 
d="M55 827q0 53 2 123t14.5 142.5t38 143.5t72.5 128q55 70 141.5 103.5t219.5 33.5q106 0 192 -31.5t152 -136.5q31 -49 48 -106.5t26.5 -115.5t11.5 -114.5t2 -105.5q0 -133 -3 -219t-3 -148v-12q0 -14 -2 -37.5t-5.5 -50.5t-9.5 -50.5t-12 -37.5q0 -4 7 -10.5t42 -18.5
l29 -10q14 -4 30 -11q13 -6 13 -34v-8l-4 -84l4 -90v-6q0 -22 -11 -40q-14 -22 -55 -22t-94 16.5t-100 47.5q-88 -61 -166 -76t-127 -15q-55 0 -110.5 8.5t-105.5 32t-93 67.5t-74 116q-18 43 -31.5 97t-22 129t-12.5 174t-4 228zM410 512q0 -37 1 -69.5t9 -58.5t25.5 -41
t50.5 -15q20 0 29.5 3t21.5 7q-4 2 -13.5 10t-19.5 20.5t-18.5 27t-8.5 30.5q0 25 15.5 41t38.5 16q16 0 38.5 -9t43.5 -32v553q0 49 -9.5 81t-25 48.5t-32.5 22.5t-36 6q-43 0 -65.5 -20.5t-32.5 -52t-11 -70.5t-1 -76v-422z" />
    <glyph glyph-name="R" unicode="R" horiz-adv-x="1007" 
d="M76 133v1217q0 47 8 73.5t22.5 39t36 14.5t45.5 2l160 -4l225 6q11 1 22 1q73 0 134 -24q70 -26 113 -69q33 -35 54.5 -82t31.5 -102.5t14 -115t4 -116.5q0 -102 -7 -176t-25.5 -128.5t-48 -90t-72.5 -62.5l186 -426q4 -8 7 -15t3 -22q1 -27 -21 -44q-17 -14 -40 -14
q-5 0 -10 1l-46 4h-174h-29.5t-19.5 6t-16 22.5t-21 49.5l-170 438h-36v-432q0 -29 -7.5 -46.5t-17.5 -25.5t-21.5 -10t-21.5 -2h-182q-23 0 -38.5 3t-24.5 16.5t-13 40t-4 73.5zM397 1059l4 -146v-63q0 -31 5.5 -51.5t25.5 -36.5q25 -18 62 -19q57 0 88 37q23 27 27.5 57.5
t4.5 65.5q0 82 -3 134.5t-25 86.5q-29 45 -88 45q-37 0 -54.5 -11t-21.5 -15q-14 -16 -19.5 -39t-5.5 -45z" />
    <glyph glyph-name="S" unicode="S" horiz-adv-x="837" 
d="M51 104v179q0 31 5 53t32 39q14 10 24.5 11t22.5 1q16 0 22.5 -3t30.5 -13q18 -8 50 -21.5t88 -13.5q16 0 41.5 4t42.5 22q8 10 14 25.5t6 38.5q0 57 -36 92t-89 84l-80 72q-29 27 -59.5 62.5t-55 82.5t-41 107.5t-16.5 136.5q0 129 42 209t104 125q39 29 84 45t90 24.5
t90 10.5t84 2q63 0 100 -4.5t55 -24.5q20 -23 21.5 -48.5t1.5 -53.5v-150q0 -43 -4 -60.5t-12 -25.5q-16 -16 -44 -15t-44 5l-41 10q-47 12 -76 12q-16 0 -34.5 -4t-33.5 -14q-12 -10 -20 -24.5t-8 -30.5q0 -20 6 -36t12 -26q27 -41 58.5 -68.5t60.5 -56.5l106 -102
q35 -35 61.5 -72t45.5 -80q23 -47 29 -90t6 -100q0 -106 -21.5 -185t-83.5 -145q-59 -63 -135 -89t-197 -26t-182 15.5t-82 25.5q-18 10 -29.5 28.5t-11.5 59.5z" />
    <glyph glyph-name="T" unicode="T" horiz-adv-x="761" 
d="M6 1288v76q0 14 2 33.5t11.5 36t29 29t53.5 12.5h86l218 -7l149 2q25 0 53.5 2.5t55 2.5t47 -3.5t30.5 -13.5q16 -16 17 -84v-104q0 -45 -6.5 -72t-16.5 -41t-23.5 -18t-25.5 -4h-68q-41 0 -55 -10.5t-14 -39.5l2 -864l6 -135q2 -31 -6 -48.5t-19.5 -25.5t-24.5 -10
t-24 -2h-49l-129 -4q-10 0 -25.5 1t-31 9t-26.5 24.5t-9 47.5l4 108v531v187t2 186v12q0 12 -10 22.5t-51 10.5h-58q-37 0 -55 10t-27.5 30.5t-10.5 49t-1 63.5z" />
    <glyph glyph-name="U" unicode="U" horiz-adv-x="1015" 
d="M63 539v790q0 45 3.5 73t11.5 44t23.5 22.5t39.5 6.5h168q23 0 39.5 -2.5t27.5 -13.5t16 -33.5t5 -63.5v-899q0 -23 3 -48.5t14.5 -46t33 -33.5t58.5 -13q39 0 61.5 14t33.5 32.5t13 37t2 28.5v924q0 18 1 39.5t10.5 38t29 28t58.5 11.5h159q12 0 24.5 -3.5t24 -13.5
t18.5 -31.5t7 -58.5v-893q0 -39 -3 -88t-15 -101.5t-36 -103.5t-65 -94q-37 -39 -82 -61.5t-92 -33.5t-94 -14.5t-86 -3.5q-33 0 -76 4.5t-89 17.5t-91 42t-80 78q-57 80 -66.5 187.5t-9.5 234.5z" />
    <glyph glyph-name="V" unicode="V" horiz-adv-x="919" 
d="M2 1425q0 8 1 16.5t9 15.5t25.5 12.5t52.5 5.5h205q27 0 43 -5.5t24 -23.5q10 -23 19.5 -98.5t18 -176t15.5 -212t13 -203.5l23 -344h26l25 360q12 186 21 301t15.5 179.5t10.5 92t8 41.5q4 23 8 39.5t15 26.5q16 16 37.5 19.5t35.5 3.5h185q37 0 54 -7q18 -6 24 -15
q5 -7 4 -17v-6q-2 -14 -5 -29l-73 -455q-14 -86 -30.5 -177l-33 -182t-31 -178t-24.5 -161q-14 -102 -23.5 -151.5t-25.5 -69.5q-22 -29 -51 -29h-3q-32 2 -65 2h-244q-16 0 -27.5 1t-21.5 24q-14 29 -22.5 81t-14.5 97l-14 96q-4 20 -11 62t-16.5 91.5t-19.5 98.5t-17 86
q-12 59 -21 105t-20 96q-6 35 -11 61.5t-9 50t-8 48t-10 55.5l-50 274l-12 61.5t-4 36.5z" />
    <glyph glyph-name="W" unicode="W" horiz-adv-x="1337" 
d="M10 1438q0 27 23.5 32t38.5 5h139q31 0 64.5 2t56.5 -19q14 -12 22 -45t15 -96l75 -696h25l90 346l-80 432q-6 37 10.5 56.5t49.5 23.5q12 1 25 1q18 0 36 -2q30 -3 59 -3q20 0 41 2t41 2q41 0 55.5 -20.5t20.5 -96.5l57 -741h23l90 735q4 23 3 50.5t18 49.5
q10 14 25.5 18.5t34.5 4.5t47 -2t63 -2h53l65 2q41 0 41 -41q0 -25 -6 -60t-10 -49l-227 -1218q-6 -33 -11.5 -55.5t-17.5 -35.5q-14 -16 -31.5 -18t-27.5 -2q-16 0 -34 3t-34 3q-20 0 -38.5 -4t-39.5 -4q-12 0 -24.5 3t-28.5 19q-29 29 -35 67t-12 73l-80 411h-23l-69 -467
q-2 -14 -8.5 -38.5t-20.5 -38.5q-16 -16 -41.5 -20.5t-46.5 -4.5q-12 0 -25.5 1t-25.5 1q-16 0 -33.5 -2t-34.5 -2q-41 0 -59.5 9t-30.5 28q-20 29 -22 52.5t-9 55.5l-211 1227q-4 14 -7 29.5t-3 38.5z" />
    <glyph glyph-name="X" unicode="X" horiz-adv-x="919" 
d="M-6 41q0 12 7 33.5t11 31.5l234 662l-74 223q-25 76 -38 111t-23 67q-23 66 -34 100t-24 70q-14 43 -19 59.5t-5 26.5q0 18 9 28.5t20.5 16t22.5 5.5h15q27 0 52.5 -1t50.5 -1q23 0 45 1t45 1q57 0 73.5 -22.5t20.5 -45.5l72 -330h22l64 336q7 35 27 51q18 14 37 13h5
l49 -4q4 0 10.5 -1.5t10.5 -1.5q6 0 13 -1t14 -1q8 0 15 -1t15 -1q25 0 49.5 4.5t49.5 2.5q10 0 22 -3.5t19 -9.5q12 -12 12 -33q0 -10 -17 -57l-219 -602l248 -676q12 -35 14.5 -47t2.5 -16q0 -6 -4.5 -11.5t-8.5 -9.5q-10 -8 -21.5 -9t-23.5 -1q-33 0 -65.5 1t-65.5 1
q-29 0 -55.5 -1t-55.5 -1q-23 0 -39 9t-30 61l-94 352h-19l-78 -357q-10 -47 -35.5 -55t-48.5 -8q-29 0 -54 3t-52 3q-25 0 -50.5 -3t-49.5 -3h-37q-12 0 -24.5 6t-12.5 35z" />
    <glyph glyph-name="Y" unicode="Y" horiz-adv-x="890" 
d="M6 1417q0 39 25.5 48.5t50.5 9.5t48.5 -2.5t45.5 -2.5q23 0 47.5 2.5t48.5 2.5q31 0 50.5 -7.5t29.5 -18.5t14.5 -26.5t6.5 -29.5l73 -469h17l65 415q4 35 13.5 73t38.5 50q10 4 32.5 7.5t47 4.5t46 1h27.5h68q31 0 64.5 -8.5t33.5 -45.5q0 -14 -6 -36.5t-12 -41.5
l-232 -702q-6 -18 -17 -61t-11 -129v-295l4 -88q2 -29 -12.5 -48.5t-75.5 -19.5h-80l-117 -2q-18 0 -29.5 2t-21.5 18q-10 18 -8 46t2 79v379q0 23 -5.5 55.5t-17.5 67.5l-237 696q-2 4 -9.5 30t-7.5 46z" />
    <glyph glyph-name="Z" unicode="Z" horiz-adv-x="833" 
d="M39 78v168q0 31 5 54.5t14.5 46t19.5 45t22 50.5l115 277q2 4 6 13t14.5 32.5t28 62.5t45.5 103q29 66 44.5 96.5t21.5 52.5q4 16 7 24.5t3 16.5q0 23 -24.5 24t-41.5 1l-178 -4h-7q-42 -1 -60 23q-18 23 -17 78v11q0 10 1 20.5t1 20.5q0 27 -1 51.5t-1 51.5
q2 35 19.5 56.5t91.5 21.5h545q14 0 27.5 -1t23.5 -12q16 -16 18 -47t2 -69v-74q0 -16 -8 -41t-14 -41l-328 -801q-10 -23 -10 -35t28.5 -14t41.5 -2h94q47 0 73.5 2t38.5 4l31 2q18 2 35.5 -15.5t21.5 -58.5q1 -12 1 -25q0 -17 -2 -35q-3 -30 -3 -58q0 -16 1 -29.5t1 -30.5
q0 -37 -7 -55.5t-18 -27.5t-24.5 -10t-25.5 -1h-123q-41 0 -81 2t-81 2q-59 0 -120.5 -4t-121.5 -4h-86q-23 0 -41 11t-18 71z" />
    <glyph glyph-name="bracketleft" unicode="[" horiz-adv-x="587" 
d="M80 -80v1434q0 45 5 69.5t15.5 35.5t25.5 13.5t36 2.5h287q27 0 47 -12.5t20 -69.5v-150q0 -41 -16.5 -51t-32.5 -8l-27 2q-16 2 -24 -6.5t-12.5 -20.5t-5.5 -26.5t-1 -22.5v-922q0 -23 5.5 -35t12.5 -17t14 -6t11 -1h21q12 0 33.5 -7t21.5 -46v-201q0 -20 -10 -30.5
t-57 -10.5h-312h-22.5t-17.5 7t-12 24.5t-5 54.5z" />
    <glyph glyph-name="backslash" unicode="\" horiz-adv-x="569" 
d="M-49 1544.5q-2 18.5 20 24.5l99 28q25 8 40 -7t19 -31l489 -1655q4 -14 6.5 -23.5t-3.5 -25.5q-4 -10 -9.5 -17.5t-13.5 -9.5l-94 -25q-14 -4 -32.5 1.5t-31.5 45.5l-485 1672q-2 4 -4 22.5z" />
    <glyph glyph-name="bracketright" unicode="]" horiz-adv-x="587" 
d="M66 76q0 39 21.5 46t33.5 7h20q4 0 11.5 1t14.5 6t12 17.5t5 34.5v922q0 8 -1 22.5t-5 26.5t-13 20.5t-24 6.5l-26 -2q-16 -2 -32.5 8t-16.5 51v150q0 57 20 69.5t47 12.5h287q20 0 35.5 -2.5t26 -13.5t15.5 -35.5t5 -69.5v-1434q0 -37 -5 -54.5t-12.5 -24.5t-17.5 -7
h-23h-311q-47 0 -57 10.5t-10 30.5v201z" />
    <glyph glyph-name="asciicircum" unicode="^" horiz-adv-x="1460" 
d="M416 952q0 10 10 31l242 426q23 41 61 41q37 0 62 -41l241 -426q10 -20 10 -31q0 -14 -9 -22t-19 -8h-125q-29 0 -34 9t-15 25l-111 195l-111 -195q-10 -16 -17 -25t-32 -9h-125q-10 0 -19 8t-9 22z" />
    <glyph glyph-name="underscore" unicode="_" horiz-adv-x="1024" 
d="M0 -279h1024v-204h-1024v204z" />
    <glyph glyph-name="grave" unicode="`" horiz-adv-x="1024" 
d="M250 1456v2q0 4 4 10.5t18 6.5h234q18 0 28.5 -4.5t14.5 -6.5q10 -6 14 -12l99 -172q4 -8 4 -12t-5.5 -10.5t-15.5 -6.5h-145q-23 0 -34 5.5t-17 11.5l-191 176l-5 5t-3 7z" />
    <glyph glyph-name="a" unicode="a" horiz-adv-x="839" 
d="M41 399q0 88 21.5 180.5t68.5 153.5q35 45 85 71.5t103 26.5q27 0 51.5 -6t41.5 -10q10 -4 22 -7t23 -3q18 0 22 13t4 20q0 51 -30 75q-16 16 -42 22.5t-55 6.5q-41 0 -74.5 -9t-54.5 -15q-43 -12 -53 -13q-35 0 -41 25.5t-6 42.5v102q0 31 3 42t5 13q6 10 20.5 16.5
t26.5 10.5q39 12 94.5 25.5t149.5 13.5q31 0 68.5 -3t74.5 -10t70 -21.5t57 -37.5q47 -47 59.5 -113.5t12.5 -119.5v-785l2 -38v-14q0 -20 -4 -30q-6 -14 -18.5 -19t-31 -5h-38.5h-141h-21.5t-20 6t-13.5 21.5t-3 48.5h-14q-20 -53 -63.5 -74.5t-90.5 -21.5t-98 22.5
t-92 85.5q-20 31 -50 105.5t-30 205.5zM328 352q0 -66 23.5 -84t49.5 -18q37 0 55.5 22.5t18.5 94.5v122q0 16 -1 35t-8 34t-20.5 25.5t-37.5 10.5q-29 0 -45.5 -12.5t-23.5 -29.5t-9 -36.5t-2 -32.5v-131z" />
    <glyph glyph-name="b" unicode="b" horiz-adv-x="868" 
d="M72 80l4 127v1184q0 27 -1 45t6 29.5t24.5 16.5t54.5 5h131h41t26.5 -8.5t14.5 -31t4 -65.5v-241q41 35 83 45t68 10q92 0 147.5 -55.5t88.5 -159.5q23 -72 33 -163t10 -179q0 -29 -1 -78t-4 -108.5t-11.5 -124t-22.5 -121.5q-8 -31 -22.5 -68t-41 -70.5t-67.5 -56
t-102 -22.5q-47 0 -91.5 22.5t-78.5 61.5q-4 -45 -16.5 -59.5t-59.5 -14.5h-125q-68 0 -81 22q-11 20 -11 49v9zM367 420q0 -76 23.5 -98.5t49.5 -22.5q49 0 60.5 38t11.5 116v288q0 59 -9 97.5t-63 38.5q-31 0 -46 -14.5t-21 -38t-6 -50v-51.5v-303z" />
    <glyph glyph-name="c" unicode="c" horiz-adv-x="575" 
d="M57 567q0 123 8.5 210t20.5 146.5t29.5 96.5t36.5 59q51 63 133 92q41 14 83 19.5t76 5.5q35 0 53.5 -9t26.5 -22.5t9.5 -28t1.5 -24.5v-168q0 -31 -7.5 -46t-18.5 -22.5t-22.5 -8.5t-19.5 -3l-12 -2q-31 -6 -48.5 -18.5t-26.5 -42t-11 -78.5t-2 -127t4 -126t14 -74.5
t27.5 -36t42.5 -9.5h22q23 0 40.5 -9t17.5 -62v-213q0 -12 -2.5 -25.5t-12.5 -25t-30.5 -18.5t-55.5 -7q-84 0 -162.5 24.5t-132.5 102.5q-16 25 -31.5 58.5t-26.5 86.5t-17.5 127t-6.5 178z" />
    <glyph glyph-name="d" unicode="d" horiz-adv-x="868" 
d="M61 598q0 98 8.5 203.5t37 193.5t85 144.5t154.5 56.5q20 0 59 -10t82 -45v241q0 43 5.5 65.5t16.5 31t27.5 8.5h38.5h130q37 0 54 -5t24.5 -16.5t6 -30t-1.5 -44.5v-1184l5 -127v-8q1 -30 -13 -50q-16 -22 -82 -22h-120q-41 0 -57.5 12.5t-20.5 61.5q-35 -41 -83 -62.5
t-95 -21.5q-68 0 -113 32.5t-74 85t-44 118t-21.5 133t-7.5 131t-1 108.5zM356 455q0 -78 11.5 -117t60.5 -39q8 0 21.5 3t24.5 15.5t19.5 37t8.5 67.5v305q0 33 -1 60.5t-7.5 48t-21.5 33t-44 12.5q-53 0 -62.5 -38t-9.5 -98v-290z" />
    <glyph glyph-name="e" unicode="e" horiz-adv-x="858" 
d="M55 600q0 68 4 141.5t19.5 144t46.5 132t84 104.5q41 33 99.5 53.5t131.5 20.5q68 0 119 -17.5t89 -45t63.5 -59.5t40.5 -60q39 -74 44 -169t5 -212q0 -33 -1 -62.5t-9.5 -52t-23.5 -36t-42 -13.5h-330q-14 0 -22 -8q-10 -10 -11 -33q0 -45 25 -80q27 -37 69 -46t70 -9
q55 0 85 11t53 24q16 10 27 14t26 4q29 0 48 -20.5t19 -55.5v-157q0 -31 -5 -44.5t-15 -21.5q-20 -16 -90 -39.5t-168 -23.5q-135 0 -229.5 49t-153.5 168q-49 98 -58.5 196.5t-9.5 202.5zM360 780q0 -27 7.5 -49t35.5 -22h64q20 0 35.5 7t15.5 44v33q0 18 -3 46.5t-17 49.5
q-8 12 -23.5 22.5t-42.5 10.5q-25 0 -39 -11.5t-21 -28t-9.5 -37t-2.5 -38.5v-27z" />
    <glyph glyph-name="f" unicode="f" horiz-adv-x="569" 
d="M53 868.5v34.5v141q0 29 10.5 50.5t42.5 17.5l23 -2v186q0 18 4 51t23.5 66t61.5 57.5t118 24.5h84q45 0 68.5 -4t32.5 -13.5t9 -24.5v-36v-147q0 -29 -13 -47.5t-38 -14.5l-37 4q-25 4 -34 -14t-7 -41l2 -37l3 -10h77q35 0 41 -24.5t6 -41.5v-149q0 -29 -10 -49.5
t-71 -20.5h-29v-739q0 -66 -20.5 -79t-59.5 -11l-70 4l-77 -6h-9q-20 0 -32 7q-13 9 -18 24.5t-5 35v35.5v725l-27 -2q-20 -2 -30.5 4t-14.5 17.5t-4 28z" />
    <glyph glyph-name="g" unicode="g" horiz-adv-x="845" 
d="M55 674q0 172 27 266t53 135q39 61 93.5 87t107.5 26q27 0 64.5 -13.5t78.5 -62.5v18q0 8 5 27t30 19h197h6q18 0 28.5 -14.5t15.5 -33t6 -35t1 -22.5l2 -887q0 -47 -2 -84t-10 -67.5t-24.5 -55t-43.5 -49.5q-59 -53 -151.5 -78.5t-208.5 -25.5q-25 0 -49.5 1t-53.5 5
t-47 10t-35 23q-20 23 -23 57.5t-3 59.5v6q0 16 1 38.5t7 43t19.5 35t35.5 14.5q16 0 30.5 -8.5t31.5 -14.5q51 -22 102 -22h4q72 0 103 34q10 12 18 34t8 48v9l-2 45q-49 -41 -88 -50.5t-55 -9.5q-53 0 -101.5 22.5t-82.5 69.5q-14 18 -31 49t-31 79.5t-23.5 115
t-9.5 156.5zM336 668q0 -37 1 -73t9 -64.5t25.5 -47t48.5 -18.5q25 0 38 11t20 28.5t8 39t1 44.5v10v18v172q0 12 -2 29t-10 31t-22.5 23.5t-38.5 9.5q-29 0 -45.5 -17.5t-23.5 -45t-8 -60.5t-1 -66v-12v-12z" />
    <glyph glyph-name="h" unicode="h" horiz-adv-x="921" 
d="M70 1360v16q0 34 7 56q9 26 25.5 37.5t41 12.5t55.5 1h116q41 0 55.5 -8.5t14.5 -44.5v-336l14 -2q29 41 79 72.5t122 31.5q92 0 142.5 -44t74 -106.5t27.5 -132t4 -118.5v-631q0 -57 -5 -90t-16.5 -49.5t-31 -20.5t-47.5 -4h-78q-29 0 -52.5 1t-40 10t-25.5 33t-9 71
v536v78t-6.5 69.5t-21.5 50t-46 19.5q-12 0 -27.5 -5t-29 -20.5t-22.5 -46t-9 -79.5v-443l10 -184q1 -8 1 -16q0 -44 -22 -58q-24 -16 -83 -16h-137h-25.5t-25 9t-18.5 33t-7 69v1128z" />
    <glyph glyph-name="i" unicode="i" horiz-adv-x="468" 
d="M68 1083v9q0 55 24 69q26 15 86 15h39l84 4h13q34 0 54 -10q22 -12 23 -54v-1020q0 -37 -4 -57.5t-13 -30.5t-23.5 -11t-35.5 -1l-88 4l-100 -2q-23 0 -35 5t-17 17.5t-5 30v39.5v901zM70 1391q0 45 7 68.5t18 32.5t26.5 9h34.5l84 -2l65 2q25 0 42.5 -1t27.5 -12t14 -38
t4 -76q0 -51 -6 -77.5t-20.5 -39t-37 -14.5t-55.5 -2h-55q-35 0 -72.5 2t-56.5 23q-12 14 -16 42.5t-4 82.5z" />
    <glyph glyph-name="j" unicode="j" horiz-adv-x="503" 
d="M4 -86.5q0 31.5 2 70.5l2 61l-2 68q-2 45 15.5 52t33.5 9l25 2q23 2 26 34t3 64v717l-3 94q0 55 25 76q14 10 31.5 13.5t34.5 3.5q18 0 35.5 -1t35.5 -1q23 0 42.5 1t41.5 1q27 0 52.5 -8.5t25.5 -53.5v-991q0 -53 -9 -119.5t-48 -109.5t-97.5 -54.5t-109.5 -11.5
q-47 0 -81 6t-54 23q-27 23 -27 54.5zM109 1395q0 39 6 61.5t16 33.5t26.5 12t37.5 1l84 -2l65 2q23 0 39 -1t27.5 -12t16.5 -38t5 -76q0 -51 -6 -77.5t-20.5 -39t-37 -14.5t-53.5 -2h-63q-25 0 -65 2t-60 25q-10 12 -14 38.5t-4 86.5z" />
    <glyph glyph-name="k" unicode="k" horiz-adv-x="864" 
d="M70 1397v9q0 52 22 72q21 18 72 18q9 0 20 -1l43 -2q31 -1 55 -1h21q29 1 44 -3t19.5 -17.5t4.5 -41.5l-2 -70v-588h26q47 90 69.5 163t37.5 126l16 65q6 27 20.5 38.5t61.5 11.5h129q14 0 31.5 -1t33 -8.5t24.5 -23t9 -41.5q0 -29 -20.5 -92.5t-49 -136t-58 -143.5
t-50.5 -116l191 -520q4 -10 8 -29.5t4 -29.5q0 -31 -21.5 -33t-37.5 -2h-197q-37 0 -54.5 19.5t-35.5 82.5l-103 363h-34v-371q0 -12 1 -29.5t-3.5 -33t-20.5 -25.5q-13 -8 -38 -8h-11l-78 4l-90 -4h-5q-36 0 -44 26q-8 28 -8 76v1209z" />
    <glyph glyph-name="l" unicode="l" horiz-adv-x="454" 
d="M76 1397q0 33 7 52t19.5 29.5t25.5 13.5t24 3l75 -2l99 2h7q38 1 47 -19q9 -22 9 -46v-1336q-1 -72 -17 -86q-14 -12 -47 -12h-10l-88 4l-90 -4h-6q-36 0 -44 22q-9 24 -9 97v1194z" />
    <glyph glyph-name="m" unicode="m" horiz-adv-x="1388" 
d="M70 1053v16q0 35 7 57q9 26 25.5 37t41 12t55.5 1h116q55 0 64.5 -20.5t9.5 -51.5v-14l10 -3q25 37 51.5 57.5t53 32t51.5 14.5t41 3q49 0 87 -12.5t67.5 -32t50 -43t33.5 -43.5q6 8 23 29.5t47 44t72 40t95 17.5q92 0 142.5 -45t74 -107.5t27.5 -131t4 -115.5v-631
q0 -57 -5 -90t-16.5 -49.5t-31 -20.5t-47.5 -4h-78q-29 0 -53.5 1t-41 10t-25.5 33t-9 71v536v80t-5.5 69.5t-20.5 49t-46 18.5q-29 0 -47.5 -14t-27.5 -35.5t-12 -45t-3 -44.5v-565q0 -57 -5 -90t-17.5 -49.5t-32 -20.5t-47.5 -4h-78q-29 0 -52.5 1t-40 10t-25.5 33t-9 71
v536v78t-6.5 69.5t-21.5 50t-46 19.5q-12 0 -27.5 -5t-29 -20.5t-22.5 -46t-9 -79.5v-443l10 -184q1 -8 1 -16q0 -44 -22 -58q-24 -16 -83 -16h-137h-25.5t-25 9t-18.5 33t-7 69v821z" />
    <glyph glyph-name="n" unicode="n" horiz-adv-x="923" 
d="M70 1053v16q0 35 7 57q9 26 25.5 37t41 12t55.5 1h116q55 0 64.5 -20.5t9.5 -51.5v-14l10 -3q27 37 56.5 59.5t57.5 33t50.5 13.5t36.5 3q92 0 142.5 -44t74 -106.5t27.5 -132t4 -118.5v-631q0 -57 -5 -90t-16.5 -49.5t-31 -20.5t-47.5 -4h-78q-29 0 -52.5 1t-40 10
t-25.5 33t-9 71v536v78t-6.5 69.5t-21.5 50t-46 19.5q-12 0 -27.5 -5t-29 -20.5t-22.5 -46t-9 -79.5v-443l10 -184q1 -8 1 -16q0 -44 -22 -58q-24 -16 -83 -16h-137h-25.5t-25 9t-18.5 33t-7 69v821z" />
    <glyph glyph-name="o" unicode="o" horiz-adv-x="847" 
d="M57 594q0 143 8.5 257t59.5 198q31 49 68.5 77.5t77.5 44t81 20.5t78 5q96 0 165 -27.5t112 -92t63.5 -169t20.5 -258.5q0 -88 -1.5 -158.5t-5.5 -129t-13 -104.5t-26 -85q-39 -88 -120.5 -140t-208.5 -52q-70 0 -121 15t-88 43t-62.5 67.5t-44.5 91.5q-29 86 -36 185
t-7 212zM352 393q0 -12 2 -28.5t9.5 -31t21.5 -24.5t39 -10q27 0 42 11.5t22.5 26.5t8.5 30.5t1 25.5v350q0 51 -4.5 74t-12.5 33q-12 16 -27.5 21.5t-29.5 5.5q-33 0 -52.5 -19.5t-19.5 -79.5v-385z" />
    <glyph glyph-name="p" unicode="p" horiz-adv-x="862" 
d="M74 1102q-1 7 -1 14q0 40 23 50q25 10 68 10h125q41 0 59.5 -14.5t16.5 -59.5q23 27 67.5 55.5t110.5 28.5q74 0 123 -39t77 -105q8 -16 18.5 -45.5t20 -81t16.5 -126t7 -181.5q0 -66 -3 -139.5t-12.5 -144t-28 -132t-46.5 -102.5q-25 -35 -72 -67.5t-123 -32.5
q-53 0 -88 18.5t-55 34.5v-119q0 -43 -5 -65.5t-16.5 -30.5t-28 -8h-36.5h-131q-37 0 -54.5 5t-24.5 16.5t-6 29.5t1 45v1139zM365 440q0 -68 11 -104.5t64 -36.5q51 0 60.5 37t9.5 98v291q0 70 -10.5 113t-61.5 43q-27 0 -50 -22.5t-23 -98.5v-320z" />
    <glyph glyph-name="q" unicode="q" horiz-adv-x="860" 
d="M59 608q0 106 7.5 181t16.5 126.5t19.5 81t18.5 45.5q29 66 78 105t123 39q66 0 110.5 -29t67.5 -55q-2 45 16.5 59.5t58.5 14.5h123q43 0 69 -10q22 -9 22 -48q0 -7 -1 -16l-2 -47v-1139q0 -27 1 -45t-6 -29.5t-24.5 -16.5t-54.5 -5h-129h-38t-26 8t-16.5 30.5
t-5.5 65.5v119q-20 -16 -55 -34.5t-88 -18.5q-76 0 -123 32.5t-71 67.5q-29 41 -47.5 102.5t-27.5 132t-12.5 144.5t-3.5 139zM354 434q0 -31 1 -55.5t7.5 -43t20.5 -27.5t41 -9q53 0 64.5 37t11.5 104v320q0 76 -23.5 98.5t-50.5 22.5q-53 0 -62.5 -43t-9.5 -113v-291z" />
    <glyph glyph-name="r" unicode="r" horiz-adv-x="567" 
d="M68 1055v18q0 33 6 53q8 24 24.5 36t41 13t55.5 1h100q18 0 30.5 -1t19.5 -11.5t11 -33t4 -63.5v-10l15 -2q6 20 16 45.5t24.5 48t32 37t35.5 14.5q41 0 52.5 -35t11.5 -82v-219q0 -55 -11.5 -67.5t-29.5 -14.5l-14 -2q-49 -8 -78 -34.5t-29 -98.5v-375l8 -172
q1 -12 1 -22q0 -50 -16 -63q-20 -15 -67 -15h-164q-16 0 -29.5 1t-23.5 11.5t-16 32t-6 64.5v827z" />
    <glyph glyph-name="s" unicode="s" horiz-adv-x="671" 
d="M45 111v129q0 14 1 29.5t6 28.5t16.5 22.5t29.5 9.5q8 0 15.5 -2t19.5 -6q20 -6 41 -10.5t53 -4.5q20 0 42 4t34 25q12 18 12 45q0 23 -9 41t-21.5 32.5t-26.5 26t-25 21.5l-38 35q-49 43 -78 89t-44.5 88t-20.5 78.5t-5 63.5q0 70 18.5 129t71.5 115q20 20 44 38.5
t54.5 31t70.5 19.5t93 7q66 0 104 -6t57.5 -19.5t24.5 -33t5 -43.5v-119q0 -51 -21.5 -71.5t-48.5 -14.5l-18 4q-8 2 -20.5 4t-18.5 2h-19q-12 0 -26.5 -3t-26.5 -13q-20 -16 -20 -52q0 -16 6 -27l12 -22q14 -20 30.5 -35.5t29.5 -29.5l61 -66q82 -88 104.5 -165.5
t22.5 -137.5q0 -92 -25.5 -158.5t-70.5 -111.5q-55 -55 -124 -76.5t-147 -21.5q-23 0 -52.5 1t-58 5t-53 12t-36.5 20q-16 16 -20.5 41t-4.5 52z" />
    <glyph glyph-name="t" unicode="t" horiz-adv-x="583" 
d="M10 940v66.5t8.5 55t26.5 38t55 14.5h21v172q0 49 5 74.5t16.5 36t29.5 11.5t47 1h33l115 2h6q45 1 53 -27q8 -30 8 -75v-193h15q35 0 54 -7t28.5 -19.5t10.5 -27.5t1 -32v-121q0 -18 -2 -41.5t-15 -33.5q-10 -10 -40.5 -13.5t-51.5 -1.5v-444q0 -25 7.5 -36t29.5 -11
q8 0 14.5 1t14.5 -1q27 -4 31 -26.5t4 -53.5v-160q0 -33 -7.5 -50.5t-19.5 -25.5t-27.5 -10t-31.5 -2h-82q-66 0 -117 5t-80 32q-18 18 -28.5 47t-15.5 62.5t-5 71.5v73v530h-12q-16 0 -41 3t-41 22q-8 10 -12.5 30.5t-4.5 63.5z" />
    <glyph glyph-name="u" unicode="u" 
d="M66 381v631q0 57 5 90t16 49t30.5 20.5t48.5 4.5h78q47 0 72.5 -6.5t38 -19.5t14.5 -34.5t2 -52.5v-539v-79.5t6 -69.5t21.5 -49.5t45.5 -18.5q12 0 27.5 5t29 20.5t22.5 46.5t9 80v442l-10 184q-1 8 -1 16q-1 46 21 59q24 16 85 16h137q16 0 29.5 -1t23.5 -11.5
t16.5 -32t6.5 -64.5v-823l4 -121v-17q0 -36 -6 -56q-8 -26 -24.5 -37t-41 -12t-57.5 -1h-117q-55 0 -64.5 20.5t-9.5 51.5v14l-10 2q-35 -53 -87 -78.5t-114 -25.5q-92 0 -142 44t-73.5 106.5t-27.5 130t-4 116.5z" />
    <glyph glyph-name="v" unicode="v" horiz-adv-x="796" 
d="M0 1120q-1 4 -1 8q0 10 4 19q5 12 22.5 20.5t52.5 8.5h160q16 0 30 2h6q10 0 17 -4q10 -6 17 -28t11 -67l66 -723h21l71 731q2 31 9.5 49.5t21.5 26.5t35.5 10.5t54.5 2.5h127q45 0 54 -23t9 -35q0 -8 -2 -16t-6 -31l-24 -147q-8 -53 -18.5 -105.5t-27 -131.5t-39 -194.5
t-55.5 -293.5q-12 -66 -18 -105t-17.5 -59.5t-34 -27.5t-65.5 -7h-188q-37 0 -55.5 5t-26.5 17.5t-11 32t-10 47.5l-116 613q-12 61 -24.5 122.5t-22.5 123.5q-4 16 -5.5 29.5t-5.5 29.5l-12 70q-2 14 -4 30z" />
    <glyph glyph-name="w" unicode="w" horiz-adv-x="1165" 
d="M20 1114q-1 5 -1 9q0 27 24 39q27 14 74 14h137q31 0 41 -17.5t16 -64.5l80 -658h35l53 264l-45 385q-2 14 -2 29.5t6 29t21.5 23t44.5 9.5h135q20 0 33.5 -1t23 -10.5t13.5 -28t6 -53.5l35 -647h38l74 662q2 16 2 30.5t6.5 24.5t19.5 16.5t42 6.5h147q31 0 45.5 -6.5
t19.5 -14.5q4 -7 4 -14l-1 -21l-21 -153q-16 -119 -29.5 -206t-24.5 -155.5t-21.5 -126t-21.5 -116t-22.5 -127t-25.5 -160.5q-6 -35 -12 -52q-5 -16 -15 -21q-8 -4 -17 -4h-4q-11 1 -24 1h-209q-12 0 -24 2t-22.5 11.5t-17.5 28.5t-9 54l-35 312h-31l-53 -359
q-4 -29 -20.5 -39t-71.5 -10h-150q-25 0 -41 1t-26.5 9t-17.5 28.5t-13 57.5z" />
    <glyph glyph-name="x" unicode="x" horiz-adv-x="849" 
d="M12 45q0 4 3 20.5t20 57.5l215 506l-207 444q-4 8 -8 28.5t-4 31.5q0 33 26.5 38t51.5 5h190q18 0 38.5 -4.5t27.5 -30.5l59 -287h20l60 270q10 41 32.5 46.5t43.5 5.5h184q55 0 55 -46q0 -29 -10 -50t-18 -40l-166 -403l178 -502q4 -12 10 -36.5t6 -45.5q0 -25 -9 -37
q-8 -12 -24 -15q-12 -2 -27 -2h-9q-20 1 -41 1h-121q-12 0 -26.5 1t-28 9t-24.5 27.5t-17 54.5l-56 283h-24l-62 -303q-4 -14 -7 -25.5t-13 -21.5q-18 -20 -41 -22.5t-45 -2.5h-185q-47 0 -47 45z" />
    <glyph glyph-name="y" unicode="y" horiz-adv-x="792" 
d="M14 1118q0 20 17.5 39t54.5 19h176q29 0 41 -12.5t19 -71.5l67 -732h37l57 758q0 6 3 20.5t16 24.5q10 8 26.5 10.5t26.5 2.5h150q55 0 68 -24t13 -40q0 -12 -3 -28.5t-5 -24.5l-205 -965q-12 -59 -32.5 -113.5t-65.5 -97.5t-96 -56t-111 -13q-37 0 -85 4t-81 16
q-18 6 -34.5 19.5t-16.5 46.5v176q0 27 7.5 51.5t41.5 24.5q16 0 29 -7q10 -4 17.5 -8t19.5 -4q16 0 24 8t9 23q0 10 -2 26.5t-4 26.5l-175 877q-4 20 -4 24z" />
    <glyph glyph-name="z" unicode="z" horiz-adv-x="669" 
d="M31 82v68q0 31 4 57t14 55l51 135q20 53 45 112.5t60 149.5q18 45 27.5 68t13.5 35t7 18t7 17q14 35 17.5 49t3.5 20q0 23 -20.5 22t-55.5 -3l-86 -2q-29 0 -43.5 7t-19.5 17.5t-5 23.5v23v58q0 12 -1 17t-1 11.5t-1 14.5t-1 24q0 70 31 85.5t86 15.5h28.5h28t35.5 -1
t53 -3q47 0 72 -2.5t47 -2.5q45 0 68.5 3.5t38.5 3.5l38 2h5q30 0 38 -25q8 -27 9 -76v-63q0 -23 -3.5 -42.5t-9.5 -41.5q-10 -35 -21 -58.5t-18 -39.5l-165 -441q-4 -10 -8.5 -22.5t-4.5 -16.5v-8q0 -4 9.5 -14t52.5 -10q14 0 44.5 1t59.5 5l31 4q18 2 27.5 -12.5t13.5 -35
t5 -44t1 -37.5v-90q0 -74 -13.5 -93.5t-41.5 -19.5q-10 0 -24.5 1t-35.5 3q-6 0 -21.5 1t-32.5 1t-33.5 1t-26.5 1q-57 0 -98.5 -2t-73 -4t-55 -4t-44.5 -2l-45 -2h-6q-37 0 -47 22q-10 24 -10 66z" />
    <glyph glyph-name="braceleft" unicode="{" horiz-adv-x="673" 
d="M61 547v102q0 20 8.5 39t49.5 19h20q8 0 21.5 2t24 12t18.5 30.5t8 55.5v448q0 39 5 89.5t27.5 93.5t70.5 72.5t132 29.5h109q41 0 49 -18.5t8 -38.5v-94q0 -33 -18.5 -39.5t-26.5 -6.5h-16q-25 0 -40 -8t-22.5 -20t-9.5 -26.5t-2 -24.5v-478q0 -37 -3 -63.5t-13 -47
t-28.5 -37.5t-47.5 -36v-8q59 -35 75.5 -73t16.5 -111v-478q0 -10 2 -24t9.5 -26.5t22.5 -20.5t40 -8h16q8 0 26.5 -6.5t18.5 -39.5v-94q0 -41 -18.5 -49t-38.5 -8h-109q-84 0 -132 29.5t-70.5 72.5t-27.5 92.5t-5 90.5v448q0 35 -8 55.5t-18.5 30.5t-24 12t-21.5 2h-20
q-41 0 -49.5 18.5t-8.5 39.5z" />
    <glyph glyph-name="bar" unicode="|" horiz-adv-x="1024" 
d="M410 -483v2048h206v-2048h-206z" />
    <glyph glyph-name="braceright" unicode="}" horiz-adv-x="673" 
d="M61 -193q0 33 18.5 39.5t26.5 6.5h17q25 0 40 8t22.5 20.5t9.5 26.5t2 24v478q0 74 16 111.5t76 72.5v8q-29 18 -47.5 35.5t-28.5 38t-13 47.5t-3 63v478q0 10 -2 24.5t-9.5 26.5t-23 20t-39.5 8h-17q-8 0 -26.5 6.5t-18.5 39.5v94q0 20 8.5 38.5t49.5 18.5h108
q84 0 131.5 -29.5t71 -72.5t28.5 -93.5t5 -89.5v-448q0 -35 8 -55.5t18.5 -30.5t22.5 -12t23 -2h20q41 0 49 -18.5t8 -39.5v-102q0 -41 -18.5 -49.5t-38.5 -8.5h-20q-10 0 -22.5 -2t-23 -12t-18.5 -30.5t-8 -55.5v-448q0 -41 -5 -90.5t-28.5 -92.5t-71 -72.5t-131.5 -29.5
h-108q-41 0 -49.5 18.5t-8.5 38.5v94z" />
    <glyph glyph-name="asciitilde" unicode="~" horiz-adv-x="964" 
d="M82 648q-2 24 35 79q37 53 86 92t127 39q59 0 105 -21.5t87 -45.5q23 -14 52.5 -27.5t64.5 -13.5q41 0 74 32q12 14 18 24.5t17 27.5q4 6 11 12t19 6q8 0 15.5 -5t15.5 -9l61 -43q12 -8 13.5 -21.5t-4 -29t-14.5 -31t-17 -27.5q-33 -51 -79 -92t-134 -41q-53 0 -89 14.5
t-67 30.5q-37 20 -73.5 42t-75.5 22q-43 0 -72 -27q-10 -10 -18.5 -22.5t-16.5 -25t-16 -20.5t-21 -8q-8 0 -15 5t-15 9l-62 43q-10 8 -12 32z" />
    <glyph glyph-name="uni00A0" unicode="&#xa0;" horiz-adv-x="477" 
 />
    <glyph glyph-name="sterling" unicode="&#xa3;" 
d="M53 602v164q0 20 21 20h71q-35 94 -47 176t-12 132q0 90 27.5 173t83.5 138q41 41 111.5 70.5t174.5 29.5q57 0 99.5 -10t73 -25.5t52 -37t40.5 -41.5q31 -37 49 -74t28.5 -80t13.5 -94t3 -119v-14q0 -41 -3 -64.5t-11.5 -35t-21.5 -14.5t-34 -3h-160q-18 0 -29.5 2
t-19.5 12.5t-11 29.5t-3 54v39q0 31 -1 61.5t-13 59.5q-4 6 -14.5 18.5t-35.5 12.5q-14 0 -25 -7.5t-18 -17.5q-8 -12 -12 -32.5t-6 -43t-3 -42t-1 -29.5q0 -49 14.5 -112.5t36.5 -111.5h231q25 0 29 -10t4 -22v-140q0 -16 -8 -23t-18 -7h-213l2 -17l2 -59q2 -41 -9.5 -85
t-29.5 -81h297q39 0 58.5 -7t27.5 -20.5t8 -32v-42.5v-170q0 -27 -10.5 -41.5t-24.5 -20.5t-30.5 -7t-26.5 -1h-654q-10 0 -22 7t-12 36v150q0 29 10 41t24 26l9 8q45 45 53 88t10 93v45v11t-1 11t-2 22.5t-1 45.5h-98q-16 0 -19.5 7t-3.5 11z" />
    <glyph glyph-name="dieresis" unicode="&#xa8;" horiz-adv-x="1024" 
d="M229 1300v127q0 16 9.5 26.5t44.5 10.5h125q29 0 39 -9t10 -32v-127q0 -29 -19.5 -31.5t-34.5 -2.5h-124q-35 0 -42.5 11t-7.5 27zM567 1300v127q0 16 9.5 26.5t44.5 10.5h124q29 0 39.5 -9t10.5 -32v-127q0 -29 -19.5 -31.5t-34.5 -2.5h-127q-8 0 -27.5 4t-19.5 34z" />
    <glyph glyph-name="copyright" unicode="&#xa9;" horiz-adv-x="1630" 
d="M82 733q0 152 57.5 286t156.5 233.5t233.5 156.5t285.5 57q152 0 286 -57t233.5 -156.5t156.5 -233.5t57 -286t-57 -286t-156.5 -233t-233.5 -156.5t-286 -57.5t-286 57.5t-233 156.5t-156.5 233t-57.5 286zM244 733q0 -119 44 -222t121.5 -181t181 -123t224.5 -45
q119 0 223.5 45t182 123t121.5 181t44 222t-45 223.5t-121.5 182.5t-181 123t-223.5 45t-223.5 -45t-181 -123t-121.5 -182.5t-45 -223.5zM539 713q0 37 2 86t9 99t22.5 96t41.5 77q23 27 51.5 41t55.5 23q37 10 65.5 13t63.5 3q68 0 80 -15.5t12 -41.5v-117q0 -16 -8 -36.5
t-47 -20.5h-29q-31 0 -45 -15.5t-20.5 -41t-6.5 -59.5v-71q0 -59 6.5 -94t18.5 -52.5t28.5 -21.5t39.5 -4h16q29 0 38 -11t9 -40v-150q0 -29 -21.5 -41t-84.5 -12q-164 0 -232 90q-35 45 -50 119t-15 197z" />
    <glyph glyph-name="guillemotleft" unicode="&#xab;" horiz-adv-x="901" 
d="M74 461v256q0 6 2 18.5t14 24.5l281 280q6 6 12 9h4q14 -2 16.5 -9.5t2.5 -9.5v-258q0 -10 -4.5 -24.5t-12.5 -22.5l-104 -111q-4 -4 -8.5 -8t-4.5 -12q0 -10 9 -19l100 -110q20 -23 23.5 -38t3.5 -19v-252q0 -10 -7.5 -15.5t-13.5 -5.5q-10 0 -13 3l-7 7l-275 273
q-8 8 -13 21.5t-5 21.5zM487 461v256q0 6 2.5 18.5t14.5 24.5l280 280q6 6 13 9h4q14 -2 16 -9.5t2 -9.5v-258q0 -10 -4 -24.5t-12 -22.5l-105 -111l-8 -8t-4 -12q0 -10 8 -19l101 -110q20 -23 23 -38t3 -19v-252q0 -10 -7 -15.5t-13 -5.5q-10 0 -13.5 3t-7.5 7l-274 273
q-8 8 -13.5 21.5t-5.5 21.5z" />
    <glyph glyph-name="uni00AD" unicode="&#xad;" horiz-adv-x="595" 
d="M72 539v133q0 31 14 45q10 10 25.5 11t25.5 1h322q10 0 25.5 -1t25.5 -11q14 -14 14 -45v-133q0 -39 -3 -51.5t-7 -16.5q-10 -10 -23.5 -11t-21.5 -1h-342q-8 0 -21.5 1t-23.5 11q-4 4 -7 16.5t-3 51.5z" />
    <glyph glyph-name="registered" unicode="&#xae;" horiz-adv-x="1630" 
d="M82 717q0 152 57.5 286t156.5 233t233.5 156.5t285.5 57.5q152 0 286 -57.5t233.5 -156.5t156.5 -233.5t57 -285.5q0 -152 -57 -286t-156.5 -233.5t-233.5 -156.5t-286 -57t-286 57t-233 156.5t-156.5 233.5t-57.5 286zM244 717q0 -119 44 -222.5t121.5 -181t181 -123
t224.5 -45.5q119 0 223.5 45.5t182 123t121.5 181t44 222.5t-45 223t-121.5 182t-181 123t-223.5 45t-223.5 -45t-181 -123t-121.5 -182t-45 -223zM543 377v692q0 31 18.5 35t28.5 4h244q51 0 106 -9t98 -50q47 -41 55.5 -92.5t8.5 -98.5q0 -16 -3 -45t-14.5 -61.5
t-34 -65.5t-63.5 -53l113 -254q16 -41 -25 -41h-143q-10 0 -27.5 3t-23.5 21l-90 242q-2 6 -10.5 10t-16.5 4h-10q-14 0 -15 -12v-229q0 -29 -14 -34t-31 -5h-104q-10 0 -28.5 4t-18.5 35zM739 811q0 -23 12.5 -35t30.5 -12h37q25 0 43.5 22.5t18.5 63.5q0 29 -8.5 45
t-20.5 25.5t-26.5 11.5t-26.5 2h-21q-14 0 -26.5 -12.5t-12.5 -28.5v-82z" />
    <glyph glyph-name="acute" unicode="&#xb4;" horiz-adv-x="1024" 
d="M356 1268q0 4 4 12l99 172q4 6 16 14.5t41 8.5h234q4 0 12 -2.5t10 -14.5v-4q0 -2 -8 -10l-189 -176q-16 -16 -53 -17h-145q-10 0 -15.5 6.5t-5.5 10.5z" />
    <glyph glyph-name="guillemotright" unicode="&#xbb;" horiz-adv-x="901" 
d="M80 156v252q0 4 3 19t23 38l101 110q8 8 8 19q0 8 -4 12l-8 8l-105 111q-8 8 -12 22.5t-4 24.5v258q0 2 2 9.5t16 9.5h4q6 -2 13 -9l280 -280q12 -12 14.5 -24.5t2.5 -18.5v-256q0 -8 -5.5 -21.5t-13.5 -21.5l-274 -273l-7 -7t-14 -3q-6 0 -13 5t-7 16zM485 156v252
q0 4 3.5 19t23.5 38l100 110q8 8 9 19q0 8 -4.5 12t-8.5 8l-104 111q-8 8 -12.5 22.5t-4.5 24.5v258q0 2 2.5 9.5t16.5 9.5h4q6 -2 12 -9l281 -280q12 -12 14 -24.5t2 -18.5v-256q0 -8 -5 -21.5t-13 -21.5l-275 -273l-7 -7t-13 -3q-6 0 -13.5 5t-7.5 16z" />
    <glyph glyph-name="afii10023" unicode="&#x401;" horiz-adv-x="798" 
d="M63 86l7 98q0 16 2 22.5t4 18t3 34t1 71.5v993q0 39 -1 75t27 58q12 10 39 14.5t86 4.5h394q66 0 86 -22.5t22 -84.5v-31q0 -16 1 -32.5t1 -32.5v-10v-19q0 -37 -9 -57.5t-22.5 -29.5t-32 -11t-36.5 -2l-170 2q-23 0 -41 -11.5t-18 -70.5v-66q0 -41 22.5 -53t48.5 -10
l139 6q29 2 49.5 -2t33 -17.5t18.5 -42t6 -75.5v-60q0 -18 -2 -42.5t-10.5 -46t-25.5 -36t-46 -12.5l-121 6q-43 2 -65.5 -1t-31.5 -11t-9 -21.5v-33.5v-121q0 -51 10 -63.5t57 -12.5l180 2q25 0 41.5 -3t27.5 -18.5t16.5 -46t5.5 -87.5v-76q0 -45 -11.5 -69.5t-29 -35
t-36 -12.5t-32.5 -2q-66 0 -130.5 4t-129.5 4q-55 0 -110.5 -4t-112.5 -4q-29 0 -47.5 8t-29.5 21.5t-14.5 29t-3.5 27.5zM106 1571v127q0 16 9.5 30.5t50.5 14.5h139q29 0 41 -10.5t12 -38.5v-129q0 -35 -17 -38t-42 -3h-139q-41 0 -47.5 12t-6.5 35zM459 1571v127
q0 16 9 30.5t50 14.5h139q29 0 41.5 -10.5t12.5 -38.5v-129q0 -35 -17.5 -38t-42.5 -3h-139q-41 0 -47 12t-6 35z" />
    <glyph glyph-name="afii10017" unicode="&#x410;" horiz-adv-x="894" 
d="M-14 59q0 25 4 44.5t12 56.5l64 307q2 12 4 21.5t4 19.5t5 26.5t7 43.5q12 88 25.5 169.5t29 163.5t30.5 167t32 179l8 48q6 33 10 63.5t13.5 54t24.5 38t42 14.5h252q18 0 40.5 -2.5t39.5 -22.5q4 -6 8 -16.5t11 -38t17.5 -77.5t28.5 -132l58 -271q10 -49 15 -80.5
t12.5 -80.5t19.5 -131t39 -230q8 -43 18 -89t20.5 -88t17.5 -78t7 -60q0 -37 -26.5 -57.5t-67.5 -20.5h-176q-25 0 -42.5 14.5t-23.5 32.5t-7 34.5t-3 43.5q-2 23 -3 39t-7 35q-10 29 -27.5 44t-58.5 15q-18 0 -39 -3t-38 -10t-28.5 -19.5t-11.5 -30.5l2 -72q2 -43 -5 -67.5
t-21.5 -37t-32 -15.5t-37.5 -3h-189q-29 0 -44 7t-23 16.5t-9 19.5t-1 16zM373 616q2 -10 17.5 -22t60.5 -12q27 0 51 9t22 48l-4 45l-65 428l-17 -2l-57 -416l-3 -15t-1 -9t-1 -13.5t-3 -29.5v-11z" />
    <glyph glyph-name="afii10018" unicode="&#x411;" horiz-adv-x="929" 
d="M63 158v69q0 76 4.5 152t4.5 151q0 92 -4.5 181.5t-4.5 181.5q0 51 2.5 93t3.5 91t1 116t-7 167q0 18 2.5 40.5t14.5 42t39.5 31t77.5 5.5l-52 -2h44.5h25.5t18.5 -1t24.5 -1h379q31 0 59.5 2t52 -5.5t37 -30t11.5 -71.5l-4 -96q0 -23 -1 -44.5t-10.5 -38.5t-31 -28.5
t-62.5 -11.5h-227q-27 0 -50.5 -7t-23.5 -57v-77v-30.5t10 -31.5q6 -10 16.5 -13t26 -3h37t51.5 -2q113 -10 182.5 -51t106.5 -105.5t49.5 -148.5t12.5 -179q0 -152 -38 -239.5t-97.5 -133.5t-132 -59.5t-140.5 -13.5h-283q-23 0 -53.5 4t-46.5 14q-10 8 -17.5 33t-7.5 107z
M381 387q0 -29 7 -46t17.5 -25.5t21.5 -10.5t22 -2q35 0 54 18.5t29.5 44t13.5 53t3 48.5q0 47 -9.5 77.5t-23.5 48t-32.5 25t-34.5 7.5q-47 0 -57.5 -26t-10.5 -42v-170z" />
    <glyph glyph-name="afii10019" unicode="&#x412;" horiz-adv-x="933" 
d="M63 158v69q0 76 4.5 152t4.5 151q0 92 -4.5 181.5t-4.5 181.5q0 51 2.5 93t3.5 91t1 116t-7 167v35.5t12.5 41t40 32t81.5 10.5l88 -4h243q53 0 111.5 -12.5t107 -49.5t80 -106.5t31.5 -186.5q0 -143 -33.5 -210.5t-103.5 -96.5q90 -41 124 -126t34 -241
q0 -72 -10.5 -148.5t-51.5 -141.5q-35 -53 -77 -85t-87 -47.5t-92 -19.5t-90 -4h-283q-23 0 -53.5 4t-46.5 14q-10 8 -17.5 33t-7.5 107zM381 387q0 -29 7 -46t17.5 -25.5t21.5 -10.5t22 -2q14 0 33.5 4t37 21.5t29.5 50.5t12 88q0 25 -3 52.5t-14.5 51t-34 39t-60.5 15.5
q-47 0 -57.5 -25t-10.5 -43v-170zM387 977q0 -10 8 -23.5t31 -13.5q123 0 123 131q0 39 -12.5 62.5t-28.5 36t-32.5 15.5t-24.5 3h-14.5t-20.5 -4t-19.5 -13.5t-9.5 -27.5v-166z" />
    <glyph glyph-name="afii10020" unicode="&#x413;" horiz-adv-x="681" 
d="M59 72q0 14 1 23t1 19.5t1 25t1 38.5v1102l-2 96q0 18 1 37t9.5 33t27 22.5t53.5 8.5q27 0 50 -1t62 -1h252q31 0 60.5 2t52 -5.5t36 -30t11.5 -71.5l-4 -115q0 -23 -1 -44t-10.5 -38.5t-31 -28.5t-62.5 -11h-100q-12 0 -24.5 -1.5t-22.5 -6.5t-17.5 -18t-7.5 -38v-864
l6 -133q2 -27 -6 -42.5t-20.5 -23.5t-26.5 -10t-26 -2q-33 0 -64 4t-61 4q-23 0 -43.5 -3t-42.5 -3q-8 0 -17.5 1t-16.5 8t-12.5 22.5t-5.5 44.5z" />
    <glyph glyph-name="afii10021" unicode="&#x414;" horiz-adv-x="1034" 
d="M-10 -104q0 39 2 79.5t2 77.5q0 45 -1 88t-1 90q0 49 19.5 61.5t41.5 12.5h17q8 0 17 18.5t16.5 40t13.5 41t6 23.5q12 45 26.5 107.5t27.5 159t24.5 233.5t17.5 334l4 131q2 47 27.5 64.5t68.5 17.5h498q33 0 50.5 -11.5t25.5 -29t10 -38t2 -36.5v-311q0 -45 -1 -88
t-3 -89v-90v-92q2 -51 3 -102t1 -103v-92q0 -31 10.5 -59.5t36.5 -28.5h6q23 0 45.5 -17.5t20.5 -74.5q0 -35 -3 -67.5t-3 -65.5q0 -45 3 -91t3 -93q0 -55 -23.5 -64.5t-50.5 -9.5h-192q-49 0 -62.5 24.5t-7.5 49.5l4 18q8 39 -3 57.5t-32.5 24.5t-49 5t-52.5 -1h-98
q-29 0 -53.5 5t-47.5 -7q-27 -16 -27.5 -40t-2.5 -44l-4 -39q-2 -14 -15.5 -33.5t-70.5 -19.5q-23 0 -47.5 3t-47.5 3t-43 -3t-43 -3q-25 0 -45 10t-20 64zM401 322q0 -16 17 -25q6 -4 20.5 -7t24.5 -3h41q16 0 38.5 4t37.5 24q10 12 11 40t1 89v122t-2 88t-3 71t-3 70
q-2 53 -1 88t2 62.5t3 55t2 66.5v29.5t-2 34t-7.5 27.5t-15.5 11h-20q-25 0 -29 -22.5t-6 -40.5l-10 -170q-4 -61 -8.5 -105.5t-8.5 -83t-10 -77.5t-14 -90q-10 -53 -19.5 -106.5t-25.5 -100.5q-12 -35 -13 -51z" />
    <glyph glyph-name="afii10022" unicode="&#x415;" horiz-adv-x="778" 
d="M61 86l7 98q0 16 2 22.5t4 18t3 34t1 71.5v993q0 39 -1 75t27 58q12 10 39 14.5t86 4.5h394q66 0 86 -22.5t22 -84.5v-31q0 -16 1 -32.5t1 -32.5v-10v-19q0 -37 -9 -57.5t-22.5 -29.5t-32 -11t-36.5 -2l-170 2q-23 0 -41.5 -11.5t-18.5 -70.5v-66q0 -41 23 -53t49 -10
l139 6q29 2 49.5 -2t33 -17.5t18.5 -42t6 -75.5v-60q0 -18 -2 -42.5t-10.5 -46t-25.5 -36t-46 -12.5l-121 6q-43 2 -65.5 -1t-31.5 -11t-9 -21.5v-33.5v-121q0 -51 10 -63.5t57 -12.5l180 2q25 0 41.5 -3t27.5 -18.5t16.5 -46t5.5 -87.5v-76q0 -45 -11.5 -69.5t-29 -35
t-36 -12.5t-32.5 -2q-66 0 -130.5 4t-129.5 4q-55 0 -110.5 -4t-112.5 -4q-29 0 -47.5 8t-29.5 21.5t-14.5 29t-3.5 27.5z" />
    <glyph glyph-name="afii10024" unicode="&#x416;" horiz-adv-x="1347" 
d="M14 41q0 14 6.5 39.5t15.5 54.5t19.5 60.5t20.5 60.5l80 248q23 66 48 150.5t56 191.5q-4 29 -7 43t-7 20l-189 451q-6 14 -14 34.5t-8 41.5q0 25 16.5 32t40.5 7h203q41 0 56.5 -15.5t23.5 -46.5l114 -446h41l-12 233q0 20 -1 34.5t-1 25v20.5v25v84q0 49 20.5 67.5
t98.5 18.5h121q16 0 30.5 -1t25.5 -10.5t17.5 -29t6.5 -54.5v-14l-19 -399h41l115 446q8 31 23.5 46.5t56.5 15.5h202q25 0 41.5 -7.5t16.5 -31.5q0 -20 -8.5 -41t-14.5 -35l-188 -451q-6 -16 -10.5 -30.5t-4.5 -32.5q31 -106 56.5 -191.5t48.5 -150.5l80 -248
q8 -29 19.5 -60.5t20.5 -60.5t15 -54.5t6 -39.5q0 -12 -11 -26.5t-54 -14.5q-23 0 -43.5 2t-42.5 2q-18 0 -38 -2t-38 -2q-37 0 -58.5 2t-34 13.5t-20.5 33t-16 62.5l-119 505h-41l14 -501q2 -43 -5 -65.5t-19 -34t-29.5 -13.5t-38.5 -2h-96q-39 0 -63.5 2t-40 15.5
t-20.5 41t-3 78.5l14 479h-41l-118 -505q-10 -41 -17.5 -62.5t-19.5 -33t-33.5 -13.5t-58.5 -2q-18 0 -38 2t-38 2q-23 0 -43.5 -2t-42.5 -2q-43 0 -54.5 14.5t-11.5 26.5z" />
    <glyph glyph-name="afii10025" unicode="&#x417;" horiz-adv-x="743" 
d="M20 104v164q0 20 6.5 43t45.5 27q14 2 28 0q16 -4 31.5 -9t46.5 -5q35 0 69 8t58 43q16 23 20.5 44t4.5 42q0 18 -5.5 41.5t-23.5 44.5q-33 37 -90 37h-33q-14 0 -26.5 1t-22.5 8t-16.5 21.5t-6.5 40.5v181q0 27 10.5 44t61.5 17h29q16 0 35.5 7t31.5 18q12 10 23.5 29.5
t11.5 54.5q0 16 -4 33.5t-14 33.5q-18 27 -46 36t-57 9q-18 0 -28 -2t-18.5 -5t-18.5 -5t-31 -2q-35 0 -48 18.5t-13 85.5v140q0 29 1 56.5t36 51.5q23 16 55.5 19.5t79.5 3.5q39 0 82 -2t86 -13.5t86 -34t86 -63.5q74 -72 97.5 -151.5t23.5 -151.5q0 -84 -18.5 -138.5
t-45.5 -88t-53.5 -51t-44.5 -25.5v-6q57 -18 93 -52t57.5 -78t29.5 -96.5t8 -107.5q0 -82 -21.5 -164t-86.5 -156q-61 -70 -139 -97.5t-171 -27.5q-59 0 -102 5.5t-96 27.5q-18 8 -29.5 22.5t-16.5 29t-6.5 26.5t-1.5 18z" />
    <glyph glyph-name="afii10026" unicode="&#x418;" horiz-adv-x="1024" 
d="M63 1391q0 18 2.5 33.5t11.5 26.5t28.5 17.5t54.5 6.5h127q31 0 48 -8.5t25.5 -24t9.5 -39t1 -51.5v-574h41q90 279 174 596l12 47q6 27 21.5 40.5t56.5 13.5h186q23 0 41.5 -4.5t30.5 -19.5t18 -45t6 -83v-1184q0 -51 -4 -78.5t-15 -41t-31.5 -16.5t-51.5 -3h-104
q-29 0 -47.5 2t-29.5 14.5t-16.5 38t-5.5 70.5v571h-41l-166 -571q-12 -45 -21 -69.5t-21.5 -37t-31 -15.5t-48.5 -3h-166q-61 0 -76.5 44t-15.5 128v1174z" />
    <glyph glyph-name="afii10027" unicode="&#x419;" horiz-adv-x="1026" 
d="M66 1391q0 18 2 33.5t11 26.5t28.5 17.5t54.5 6.5h127q31 0 48 -8.5t25.5 -24t9.5 -39t1 -51.5v-574h41q90 279 174 596l12 47q6 27 21.5 40.5t56.5 13.5h186q23 0 41.5 -4.5t30.5 -19.5t18.5 -45t6.5 -83v-1184q0 -51 -4.5 -78.5t-15.5 -41t-31.5 -16.5t-51.5 -3h-104
q-29 0 -47.5 2t-29.5 14.5t-16.5 38t-5.5 70.5v571h-41l-165 -571q-12 -45 -21.5 -69.5t-22 -37t-31 -15.5t-48.5 -3h-166q-61 0 -76.5 44t-15.5 128v1174zM236 1726v19q2 8 7 18.5t23 10.5h113q18 0 24 -11q4 -6 6.5 -16t12.5 -31q6 -12 25.5 -31.5t66.5 -19.5
q41 0 61.5 16.5t30.5 34.5q10 16 12.5 23.5t6.5 17.5t9 13.5t15 3.5h113q8 0 17 -4.5t14 -24.5v-19q-4 -51 -21.5 -87.5t-52.5 -65.5q-41 -35 -90 -48.5t-115 -13.5q-53 0 -109.5 11.5t-103.5 56.5q-35 35 -48 74t-17 73z" />
    <glyph glyph-name="afii10028" unicode="&#x41a;" horiz-adv-x="890" 
d="M63 137l3 1030q0 23 -1.5 43.5t-1.5 42.5v52v84q0 49 20.5 67.5t98.5 18.5h121q16 0 30.5 -1t26 -10.5t17.5 -29t6 -54.5v-14l-8 -399h31l114 446q8 31 23.5 46.5t56.5 15.5h213q25 0 41 -7.5t16 -31.5q0 -20 -8 -41t-14 -35l-189 -451q-4 -12 -8 -24.5t-6 -28.5
q31 -117 56.5 -199t48.5 -153l79 -248q8 -29 19.5 -60.5t21 -60.5t15.5 -54.5t6 -39.5t-11.5 -27.5t-54.5 -13.5q-25 0 -48 2t-48 2q-18 0 -37.5 -2t-38.5 -2q-37 0 -58.5 2t-33.5 13.5t-20.5 33t-16.5 62.5l-118 505h-27v-501q0 -43 -6 -65.5t-17.5 -34t-29 -13.5t-39.5 -2
h-97q-49 0 -74.5 6t-37.5 21.5t-13.5 42t-1.5 67.5z" />
    <glyph glyph-name="afii10029" unicode="&#x41b;" horiz-adv-x="991" 
d="M0 61v218q0 18 7 31.5t42 13.5h10q37 0 56.5 17t30 52t13.5 87t7 120q6 109 8 238t2 237v283q0 18 1 38.5t12.5 38t35 29t66.5 11.5h543q43 0 69.5 -13.5t26.5 -68.5q0 -16 -1 -33t-3 -41q-2 -57 -2 -84v-43l2 -938q0 -82 4 -134t-23 -89q-14 -18 -30.5 -24.5t-42.5 -6.5
h-146q-14 0 -30.5 3t-31 15.5t-23.5 36t-9 64.5v790q0 57 2 85t4 43.5t4 27.5t2 43q0 51 -17.5 60.5t-37.5 9.5h-33q-20 0 -29.5 -10.5t-12.5 -24t-2 -29.5t1 -29v-137v-71t-1 -95t-2 -91t-1 -56q0 -23 -2 -60.5t-4 -83t-6 -91.5t-8 -83q-4 -27 -10.5 -61.5t-19.5 -70
t-36 -69.5t-57 -61q-41 -29 -96.5 -45t-102.5 -16q-78 0 -103.5 14.5t-25.5 52.5z" />
    <glyph glyph-name="afii10030" unicode="&#x41c;" horiz-adv-x="1185" 
d="M68 1397q0 41 17 59.5t87 18.5h190q20 0 39 -2.5t33.5 -14.5t26.5 -38.5t24 -76.5l99 -434h24l119 490q12 53 35.5 64.5t44.5 11.5h225q16 0 33.5 -3.5t32.5 -19.5q12 -14 15 -44t3 -99q0 -84 -1 -135.5t-1 -81t-2 -45t-2 -28.5t-1 -31.5t-1 -53.5l4 -625v-90
q2 -35 3 -56.5t1 -43.5q0 -68 -11 -93.5t-52 -25.5h-185q-47 0 -60 28.5t-13 77.5v394q0 47 -1 77.5t-2 59.5t-2.5 61.5t-3.5 83.5h-28q-25 -127 -48.5 -205.5t-44 -121.5t-36 -58.5t-27.5 -15.5q-25 0 -49.5 38t-46 90t-38.5 105.5t-26 83.5l-26 84h-25v-598v-100t-16 -68
q-8 -10 -29.5 -13t-66.5 -3h-134q-10 0 -23 3t-24.5 14.5t-19.5 35t-8 64.5v958q0 49 1 98.5t1 98.5q0 31 -2 62.5t-2 62.5z" />
    <glyph glyph-name="afii10031" unicode="&#x41d;" horiz-adv-x="933" 
d="M61 84q0 8 1 15t1 16q4 35 3.5 67.5t-0.5 67.5v1104q0 33 2 56.5t13 37.5t35.5 20.5t71.5 6.5h91q45 0 70.5 -9.5t37.5 -22.5t14 -31.5t2 -37.5v-14l-14 -365q0 -16 1 -32.5t9.5 -32t24.5 -24.5t45 -9q31 0 47 13.5t24.5 34t9.5 45t1 44.5q0 53 -3 90t-3 78v189
q0 18 1 34.5t13 26.5t40 16.5t81 6.5h96q43 0 69.5 -13.5t26.5 -68.5q0 -16 -1 -33t-3 -41q-2 -63 -2 -89v-38v-805q0 -55 1 -93t2 -67.5t2 -55.5t1 -56q0 -45 -9 -64.5t-15 -25.5q-8 -8 -27.5 -16.5t-44.5 -8.5h-145q-14 0 -30.5 3t-31 15.5t-23.5 36t-9 64.5v180
q0 31 2 47t6 53q4 33 7 53.5t3 45.5q0 47 -21.5 58t-39.5 11q-37 0 -56.5 -11t-29 -28.5t-11.5 -40t-2 -47.5v-323v-41t-10 -38.5t-36.5 -27.5t-82.5 -10h-80h-44t-39.5 7t-30 24.5t-11.5 52.5z" />
    <glyph glyph-name="afii10032" unicode="&#x41e;" horiz-adv-x="1034" 
d="M51 725q0 180 13.5 324.5t66.5 244.5q37 70 90 111t109.5 62.5t112 27.5t98.5 6t85 -4t84 -17.5t80.5 -39t73.5 -66.5q41 -49 64.5 -103t35 -112.5t14.5 -118t3 -116.5v-236q0 -51 -2 -114.5t-8 -127t-16.5 -122t-28.5 -101.5q-20 -51 -57.5 -96t-90.5 -79t-126.5 -53.5
t-168.5 -19.5q-37 0 -77.5 4.5t-81.5 19.5t-82 44t-78 78q-31 43 -52.5 97t-35 126t-19.5 166t-6 215zM416 526q0 -68 4 -106.5t22 -61.5q14 -16 32 -22t32 -6q29 0 49 10t37 39q10 18 15 39.5t7 52.5t2 74v104v346q0 66 -24.5 112t-73.5 46q-18 0 -38.5 -8t-35.5 -31
q-12 -18 -17 -41.5t-8 -49.5t-3 -49.5v-39.5v-408z" />
    <glyph glyph-name="afii10033" unicode="&#x41f;" horiz-adv-x="933" 
d="M61 84q0 8 1 15t1 16q4 35 3.5 67.5t-0.5 67.5v1104q0 33 2 56.5t13 37.5t35.5 20.5t71.5 6.5h588q43 0 69.5 -13.5t26.5 -68.5q0 -16 -1 -33t-3 -41q-2 -63 -2 -89v-38v-805q0 -68 1 -104.5t2 -61t2 -47t1 -59.5t-8 -59.5t-22.5 -35t-30.5 -16.5t-35 -4h-145
q-14 0 -30.5 3t-31 15.5t-23.5 36t-9 64.5v790q0 31 2 47.5t6 53.5q4 33 7 53t3 45q0 47 -21.5 58.5t-39.5 11.5q-37 0 -56.5 -11.5t-29 -29t-11.5 -40t-2 -46.5v-934v-41t-10 -38.5t-36.5 -27.5t-82.5 -10h-80h-44t-39.5 7t-30 24.5t-11.5 52.5z" />
    <glyph glyph-name="afii10034" unicode="&#x420;" horiz-adv-x="935" 
d="M63 1368q-4 41 17 74q10 18 23.5 24.5t37.5 8.5l62 4q90 6 176 11t161.5 -3t141.5 -32.5t115 -78.5q43 -45 66.5 -102t35.5 -116.5t15.5 -115t3.5 -96.5q0 -94 -12.5 -163.5t-29 -120t-36 -83t-33.5 -51.5q-20 -29 -51 -55.5t-69 -48t-82 -33.5t-89 -10l-39 2
q-16 2 -39.5 -2t-36.5 -14q-14 -12 -18 -33t-4 -37v-51t4 -96l4 -72q2 -53 -24.5 -65.5t-51.5 -12.5q-20 0 -39.5 3t-38.5 3q-29 0 -55 -6t-55 -4q-41 2 -49 25.5t-8 44.5l2 65l-2 164l8 678q2 154 -2 236.5t-6 111.5zM369 874q0 -82 11 -125.5t79 -43.5q45 0 65.5 16
t30.5 37q16 33 19.5 65.5t3.5 67.5q0 104 -6.5 161.5t-30.5 88.5q-31 39 -82 39q-33 0 -50.5 -13.5t-26.5 -32t-11 -40t-2 -37.5v-183z" />
    <glyph glyph-name="afii10035" unicode="&#x421;" horiz-adv-x="724" 
d="M43 760q0 205 26.5 354.5t104.5 233.5q41 43 90 68.5t101.5 37.5t104.5 16.5t95 4.5q20 0 42 -2.5t38.5 -13.5t25.5 -32.5t9 -60.5l-2 -88l4 -76q2 -31 -5 -49t-18.5 -27.5t-24.5 -12.5t-24 -3h-43q-14 0 -27.5 -2t-23.5 -6q-43 -14 -66.5 -45t-33.5 -78t-11.5 -108.5
t-1.5 -137.5q0 -82 2.5 -138t7.5 -94t11 -59.5t14 -35.5q12 -23 38 -43.5t67 -18.5l82 4q25 2 37 -10t16 -31.5t5 -43t1 -44.5l4 -115q0 -23 -3 -43t-17.5 -35.5t-43 -23.5t-79.5 -8q-59 0 -113.5 6t-103.5 22.5t-92 48t-78 85.5q-76 111 -95.5 267.5t-19.5 336.5z" />
    <glyph glyph-name="afii10036" unicode="&#x422;" horiz-adv-x="761" 
d="M6 1288v76q0 14 2 33.5t11.5 36t29 29t53.5 12.5h86l218 -7l149 2q25 0 53.5 2.5t55 2.5t47 -3.5t30.5 -13.5q16 -16 17 -84v-104q0 -45 -6.5 -72t-16.5 -41t-23.5 -18t-25.5 -4h-68q-41 0 -55 -10.5t-14 -39.5l2 -864l6 -135q2 -31 -6 -48.5t-19.5 -25.5t-24.5 -10
t-24 -2h-49l-129 -4q-10 0 -25.5 1t-31 9t-26.5 24.5t-9 47.5l4 108v531v187t2 186v12q0 12 -10 22.5t-51 10.5h-58q-37 0 -55 10t-27.5 30.5t-10.5 49t-1 63.5z" />
    <glyph glyph-name="afii10037" unicode="&#x423;" horiz-adv-x="952" 
d="M-4 1395.5v29.5q0 8 1 16.5t9 15.5t25.5 12.5t50.5 5.5h223q33 0 48.5 -6.5t21.5 -22.5q8 -20 22.5 -99t28.5 -189.5t26.5 -243t20.5 -257.5h43q4 57 9 129t10.5 146t9.5 143.5t8 120.5q2 43 4 69.5t4 45t4 35t4 40.5q2 16 5.5 34t17.5 32q16 16 35.5 19.5t36.5 3.5h174
q37 0 55 -5.5t24.5 -15.5t4.5 -24.5t-4 -32.5l-68 -430q-33 -211 -69 -380t-64 -306q-12 -59 -30.5 -111.5t-68.5 -99.5q-57 -53 -129.5 -70.5t-142.5 -17.5q-23 0 -50.5 1t-55 4t-53 7t-42.5 10q-35 12 -43 30.5t-8 51.5l-2 197q0 16 1 32.5t11 28.5q12 14 35 14
q6 0 14.5 -2t14.5 -4q8 -4 16.5 -7t20.5 -3q39 0 55 16q4 4 9 13.5t5 25.5q0 18 -7 40t-17 59l-14.5 43.5t-14.5 48.5l-207 739q-4 10 -7 20.5t-7 20.5q-4 14 -4 27.5z" />
    <glyph glyph-name="afii10038" unicode="&#x424;" horiz-adv-x="1368" 
d="M47 655v224q0 139 31 231t84 147.5t123.5 79t148.5 23.5h58q12 0 21 4t7 25l-4 61q-2 37 2 58.5t18.5 32.5t39 14.5t63.5 3.5h94q76 0 98.5 -21.5t20.5 -75.5l-4 -73q-2 -20 7 -24.5t22 -4.5h57q78 0 148.5 -23.5t124 -79t84 -147.5t30.5 -231v-224q0 -172 -36 -271
t-92 -150.5t-125 -65.5t-134 -14h-57q-23 0 -27 -11.5t-2 -27.5l4 -64q2 -35 -7 -54.5t-26.5 -29.5t-43 -12t-54.5 -2h-72q-23 0 -47 1t-44.5 8t-32 25.5t-9.5 55.5l4 72q2 16 -2 27.5t-26 11.5h-58q-66 0 -134.5 14t-124.5 65.5t-92 150.5t-36 271zM384 871.5
q1 -46.5 1 -85.5v-116v-54t6 -67t21.5 -56.5t48.5 -23.5q29 0 44 12.5t21 30.5t6 40.5v41.5v233q0 49 1.5 90t-5 70t-24 45.5t-51.5 16.5q-31 0 -46.5 -26t-19.5 -65.5t-3 -86zM835 917.5q1 -40.5 1 -90.5v-233v-41t6 -41t21.5 -30.5t43.5 -12.5q33 0 48.5 23.5t21.5 56.5
t6 66.5v54.5v116q0 39 1 85.5t-3 86t-19.5 65.5t-46.5 26q-35 0 -52 -16.5t-23 -45.5t-5 -69.5z" />
    <glyph glyph-name="afii10039" unicode="&#x425;" horiz-adv-x="919" 
d="M-6 41q0 12 7 33.5t11 31.5l234 662l-74 223q-25 76 -38 111t-23 67q-23 66 -34 100t-24 70q-14 43 -19 59.5t-5 26.5q0 18 9 28.5t20.5 16t22.5 5.5h15q27 0 52.5 -1t50.5 -1q23 0 45 1t45 1q57 0 73.5 -22.5t20.5 -45.5l72 -330h22l64 336q6 35 26.5 50.5t42.5 13.5
l49 -4q4 0 10.5 -1.5t10.5 -1.5q6 0 13 -1t14 -1q8 0 15 -1t15 -1q25 0 49.5 4.5t49.5 2.5q10 0 22 -3.5t19 -9.5q12 -12 12 -33q0 -10 -17 -57l-219 -602l248 -676q12 -35 14.5 -47t2.5 -16q0 -6 -4.5 -11.5t-8.5 -9.5q-10 -8 -21.5 -9t-23.5 -1q-33 0 -65.5 1t-65.5 1
q-29 0 -55.5 -1t-55.5 -1q-23 0 -39 9t-30 61l-94 352h-19l-78 -357q-10 -47 -35.5 -55t-48.5 -8q-29 0 -54 3t-52 3q-25 0 -50.5 -3t-49.5 -3h-37q-12 0 -24.5 6t-12.5 35z" />
    <glyph glyph-name="afii10040" unicode="&#x426;" horiz-adv-x="985" 
d="M61 1391q0 8 1 21t8.5 27.5t24 25t44.5 10.5q12 0 24.5 -2.5t24.5 -2.5q25 0 48.5 2.5t48.5 2.5q43 0 65.5 -10.5t32.5 -27t11 -38t1 -41.5v-934q0 -23 2 -45.5t9.5 -41t25 -29.5t47.5 -11q10 0 23.5 2t25 8t19.5 20.5t8 39.5t-3 47t-7 51q-4 37 -6 53.5t-2 46.5v791
q0 41 9 64.5t23.5 35.5t30.5 15.5t31 3.5h145q18 0 35.5 -4.5t34.5 -20.5q16 -16 21 -40t5 -50q0 -31 -1 -51.5t-2 -45t-2 -64.5t-1 -112v-694q0 -31 10.5 -59.5t36.5 -28.5h7q31 0 49 -25.5t16 -66.5q0 -29 -7 -54.5t-7 -52.5q0 -53 6 -105t8 -105q0 -29 -6 -43.5
t-17.5 -21.5t-24.5 -8t-26 -1h-192q-12 0 -24.5 1t-22.5 8t-16.5 21.5t-6.5 43.5v18q0 25 -1 41t-14 26.5t-42 16.5t-84 6q-35 0 -72 1t-74 1q-45 0 -88 -3t-86 -3q-47 0 -71.5 7t-35.5 20.5t-13 36t-2 57.5v1104q0 35 1 67.5t-4 67.5q0 8 -1 15t-1 16z" />
    <glyph glyph-name="afii10041" unicode="&#x427;" horiz-adv-x="903" 
d="M35 881v473q0 33 2 56.5t13 37.5t36 20.5t72 6.5h90q45 0 70.5 -9.5t38 -22.5t14.5 -31.5t2 -37.5v-14l-15 -453q0 -20 2 -42.5t21 -39.5q16 -16 57 -16q33 0 56 22q16 16 21 42t5 51q0 33 -1 48t-2 30.5t-2 39t-1 72.5v277q0 18 1 34.5t13.5 26.5t40 16.5t80.5 6.5h96
q43 0 70 -13.5t27 -68.5q0 -16 -1 -33t-3 -41q-2 -63 -2 -89v-38v-805l6 -266q0 -20 -3 -44t-12 -36q-14 -27 -37.5 -34t-44.5 -7h-145q-23 0 -40 2t-29.5 13.5t-18.5 35t-6 68.5v117q0 55 2 94t4 65.5t4 45t2 36.5q0 29 -11 37t-20 8q-10 0 -27.5 -8t-41.5 -14
q-23 -6 -45.5 -10.5t-53.5 -4.5q-53 0 -111 13.5t-104 64.5q-27 31 -41 71t-20 82t-7 85t-1 80z" />
    <glyph glyph-name="afii10042" unicode="&#x428;" horiz-adv-x="1404" 
d="M61 1391q0 35 11.5 52t30 24.5t40 7.5h43.5h80q55 0 82 -10.5t37 -28t10 -38v-40.5v-834v-109.5t13 -72.5q10 -20 26.5 -32.5t48.5 -12.5q8 0 19.5 2t22 8t17.5 20.5t7 39.5q0 12 -1 25.5t-3 25.5q0 8 -1 14t-1 14v39q-2 23 -4 33t-2 47v791q0 41 9 64.5t23.5 35.5
t30.5 15.5t31 3.5h145q18 0 34.5 -4.5t31 -16.5t22.5 -34.5t8 -59.5q0 -33 -1 -58.5t-2 -54t-2 -65.5t-1 -95v-600q0 -72 3 -100.5t10 -44.5q20 -45 73 -45q25 0 38.5 8t19.5 19.5t8 22.5t2 20q0 12 -1 25.5t-3 25.5q0 8 -1 14t-1 14v39q-2 23 -4 33t-2 47v791q0 41 9 64.5
t23.5 35.5t30.5 15.5t31 3.5h145q33 0 52.5 -11.5t28.5 -29t12 -37t3 -37.5q0 -41 -1 -72t-2 -60.5t-2 -62t-1 -78.5v-804v-38t2 -89q2 -25 3 -41.5t1 -32.5q0 -55 -26.5 -68.5t-69.5 -13.5h-1059q-47 0 -71.5 6t-35.5 20.5t-13 38t-2 56.5v1104q0 35 1 67.5t-4 67.5
q0 8 -1 15t-1 16z" />
    <glyph glyph-name="afii10043" unicode="&#x429;" horiz-adv-x="1456" 
d="M61 1391q0 35 11.5 52t30 24.5t40 7.5h43.5h80q55 0 82 -10.5t37 -28t10 -38v-40.5v-823q0 -27 1 -51.5t-1 -51.5q0 -16 -1 -29.5t-1 -29.5q0 -53 24.5 -64.5t47.5 -11.5q53 0 68.5 23.5t15.5 46.5q0 43 -2 52l-4 18t-4 33t-2 95v791q0 41 9 64.5t23.5 35.5t30.5 15.5
t31 3.5h145q18 0 34.5 -4.5t31 -16.5t22.5 -34.5t8 -59.5q0 -70 -1 -95.5t-2 -41t-2 -41t-1 -95.5v-552v-126t13 -67q10 -20 26.5 -32.5t46.5 -12.5q25 0 38.5 8t19.5 19.5t8 22.5t2 20q0 12 -1 25.5t-3 25.5q0 8 -1 14t-1 14v39q-2 23 -4 33t-2 47v791q0 41 9 64.5
t23.5 35.5t30.5 15.5t31 3.5h145q18 0 34.5 -4.5t31 -16.5t22.5 -34.5t8 -59.5q0 -33 -1 -58.5t-2 -54t-2 -65.5t-1 -95v-694q0 -31 10.5 -59.5t36.5 -28.5h7q31 0 49 -25.5t16 -66.5q0 -29 -7 -54.5t-7 -52.5q0 -53 6 -105t8 -105q0 -29 -6 -43.5t-17.5 -21.5t-24.5 -8
t-26 -1h-192q-12 0 -24.5 1t-22.5 8t-16.5 21.5t-6.5 43.5v18q0 23 1 39t-10 26.5t-41 15.5t-91 5h-848q-25 0 -38 12.5t-19 30.5t-7 38.5t-1 39.5v1104q0 35 1 67.5t-4 67.5q0 8 -1 15t-1 16z" />
    <glyph glyph-name="afii10044" unicode="&#x42a;" horiz-adv-x="1046" 
d="M0 1288v76q0 14 2 33.5t11.5 36t28.5 29t54 12.5h318q41 0 65.5 -3.5t36.5 -18.5t15.5 -47t3.5 -87v-283q0 -43 4 -65.5t12 -31.5t20.5 -10t26.5 -1h80q61 0 106 -15.5t78 -38t54.5 -52t35.5 -56.5q41 -74 52.5 -137.5t11.5 -141.5q0 -76 -6 -131t-15.5 -95t-20.5 -65.5
t-20 -39.5q-33 -53 -74.5 -85t-89 -47.5t-94.5 -19.5t-88 -4h-272q-23 0 -53.5 4t-46.5 14q-10 8 -17.5 33t-7.5 107v69q0 76 4 152t4 151q0 47 -3 93.5t-3 93.5v373q0 16 -6 30.5t-55 14.5h-58q-37 0 -55.5 10t-27.5 30.5t-10 49t-1 63.5zM518 387q0 -29 7 -46t17.5 -25.5
t21.5 -10.5t22 -2q53 0 82 49q16 29 18 57.5t2 57.5q0 33 -4 65.5t-22 57.5q-16 23 -36 29t-40 6q-47 0 -57.5 -25t-10.5 -43v-170z" />
    <glyph glyph-name="afii10045" unicode="&#x42b;" horiz-adv-x="1351" 
d="M63 1257v125q0 31 4.5 49.5t16.5 27.5t35.5 12.5t62.5 3.5h94q41 0 66 -3.5t37 -18.5t15 -47t3 -87v-283q0 -43 4.5 -65.5t12.5 -31.5t20 -10t27 -1h80q68 0 117 -20.5t81 -45.5q78 -59 109 -155.5t31 -245.5q0 -72 -7.5 -124t-16.5 -89t-20.5 -58.5t-17.5 -33.5
q-31 -53 -71.5 -85t-86 -47.5t-91.5 -19.5t-87 -4h-282q-23 0 -53.5 4t-47.5 14q-10 8 -17 33t-7 107v69q0 76 4 152t4 151q0 145 -1 241.5t-3 158t-5 99.5t-5 71t-3.5 67.5t-1.5 89.5zM391 387q0 -29 7.5 -46t17.5 -25.5t21.5 -10.5t21.5 -2q14 0 32.5 6t34 24.5t25.5 53.5
t10 94q0 25 -3 49.5t-14.5 46t-31.5 35t-53 13.5q-25 0 -38 -7.5t-19.5 -18.5t-8.5 -22.5t-2 -19.5v-170zM948 109v110q0 25 1 35t2 22.5t1 36v76.5v89.5v137t1 160.5t1 161t1 137.5t1 90.5v62q0 23 -2 46t0 46v21.5v7.5t-1 3t-1 11v20q0 31 4.5 49.5t16.5 27.5t35.5 12.5
t62.5 3.5h94q41 0 64.5 -3.5t36 -18.5t16.5 -47t4 -87l-6 -973l4 -225q0 -37 -4 -60.5t-18.5 -37t-41 -18.5t-67.5 -5h-72q-31 0 -56.5 1t-41.5 10t-25.5 32t-9.5 66z" />
    <glyph glyph-name="afii10046" unicode="&#x42c;" horiz-adv-x="909" 
d="M63 1257v125q0 31 4.5 49.5t16.5 27.5t35.5 12.5t62.5 3.5h94q41 0 66 -3.5t37 -18.5t15 -47t3 -87v-301q0 -33 3 -59.5t18 -36.5q10 -8 28.5 -8.5t53.5 -0.5h24q20 0 49 -5t57.5 -14t56.5 -21.5t48 -26.5q51 -35 80 -83t43 -99.5t17.5 -102.5t3.5 -92q0 -72 -8.5 -156
t-53.5 -157q-33 -53 -74 -85t-85 -47.5t-89 -19.5t-88 -4h-282q-23 0 -53.5 4t-47.5 14q-10 8 -17 33t-7 107v69q0 76 3 152t3 151q0 92 -2 181.5t-4 181.5q-2 68 -2 136.5t-4 135.5q-2 23 -3.5 46.5t-1.5 45.5zM391 387q0 -29 7.5 -46t17.5 -25.5t21.5 -10.5t21.5 -2
q35 0 53 15.5t29 31.5q10 18 15 52t5 65q0 84 -33 127q-6 8 -21 19.5t-48 11.5q-25 0 -38 -7.5t-19.5 -18.5t-8.5 -22.5t-2 -19.5v-170z" />
    <glyph glyph-name="afii10047" unicode="&#x42d;" horiz-adv-x="759" 
d="M51 104l4 115q2 31 1 59.5t10 51.5q6 10 18 21t31 9l92 -4q33 -2 57.5 10.5t46.5 47.5q20 31 29.5 73.5t5.5 77.5q-2 12 -6 21.5t-23 9.5h-135q-16 0 -28.5 12.5t-12.5 32.5v225q0 41 41 41h135q20 0 24.5 11.5t4.5 21.5q0 29 -7 64.5t-28 60.5q-31 37 -78 49
q-10 4 -23 6t-28 2h-55q-10 0 -23.5 3t-24.5 12.5t-18.5 28t-5.5 48.5l4 76l-2 76q0 39 9.5 61.5t26 32.5t37 12.5t42.5 2.5q49 0 103.5 -4.5t107.5 -16.5t102.5 -37.5t89.5 -68.5q78 -84 105 -233.5t27 -354.5q0 -180 -19.5 -337t-95.5 -267q-41 -59 -89 -92t-98.5 -48.5
t-101.5 -18.5t-98 -3q-55 0 -87 9t-47.5 24.5t-17.5 35t-2 41.5z" />
    <glyph glyph-name="afii10048" unicode="&#x42e;" horiz-adv-x="1474" 
d="M61 84q0 8 1 15t1 16q4 35 3.5 67.5t-0.5 67.5v1104q0 33 2 56.5t13 37.5t35.5 20.5t71.5 6.5h91q45 0 70.5 -9.5t37.5 -22.5t14 -31.5t2 -37.5v-14l-14 -365q-2 -35 5 -55t18.5 -30.5t25 -13.5t25.5 -3q16 0 34.5 14.5t18.5 36.5v10q0 33 4 88.5t19.5 119t45 126
t83.5 109.5q68 59 147.5 81.5t165.5 22.5q43 0 85 -4t84 -17.5t81 -39t74 -66.5q41 -49 64.5 -103t34.5 -112.5t14 -118t3 -116.5v-236q0 -51 -2 -114.5t-8 -127t-16.5 -122t-28.5 -101.5q-20 -51 -57 -96t-90.5 -79t-127 -53.5t-167.5 -19.5q-33 0 -72 4.5t-80 19.5t-81 44
t-75 78q-27 37 -46 84t-31.5 98t-17.5 102.5t-5 96.5v24q0 18 -16.5 28.5t-38.5 10.5q-31 0 -45.5 -10t-18.5 -27.5t-3 -40t1 -47.5v-323v-41t-10 -38.5t-36.5 -27.5t-82.5 -10h-80h-44t-39.5 7t-30 24.5t-11.5 52.5zM856 526q0 -68 4 -106.5t23 -61.5q14 -16 31.5 -22
t31.5 -6q29 0 49.5 10t36.5 39q10 18 15.5 39.5t7.5 52.5t2 74v104v346q0 66 -24.5 112t-74.5 46q-18 0 -38.5 -8t-34.5 -31q-12 -18 -17.5 -41.5t-8.5 -49.5t-3 -49.5v-39.5v-408z" />
    <glyph glyph-name="afii10049" unicode="&#x42f;" horiz-adv-x="997" 
d="M20 53q0 23 3.5 26t7.5 11l186 426q-23 12 -57.5 42t-59.5 95q-12 33 -19 74t-11 83t-5.5 84t-1.5 79q0 57 4.5 116.5t14.5 115t30.5 102.5t55.5 82q43 43 112.5 69.5t155.5 22.5l226 -6l159 4q25 0 46.5 -2t36 -14.5t22.5 -39t8 -73.5v-1217q0 -47 -4 -73.5t-13.5 -40
t-24.5 -16.5t-38 -3h-182q-10 0 -21.5 2t-22 10t-17.5 25.5t-7 46.5v432h-37l-170 -438q-12 -33 -20 -49.5t-16.5 -22.5t-19.5 -6h-30h-174l-45 -4q-35 -4 -53.5 15.5t-18.5 41.5zM395 881q0 -43 9.5 -62.5t23.5 -36.5q14 -16 30.5 -27.5t51.5 -11.5q14 0 39.5 4.5
t42.5 28.5q4 8 12 35t8 102v146q0 66 -32 92q-10 10 -26.5 14t-33.5 4q-29 0 -53.5 -8t-42.5 -37q-6 -8 -11 -23.5t-9.5 -43t-6.5 -70.5t-2 -106z" />
    <glyph glyph-name="afii10065" unicode="&#x430;" horiz-adv-x="839" 
d="M41 399q0 88 21.5 180.5t68.5 153.5q35 45 85 71.5t103 26.5q27 0 51.5 -6t41.5 -10q10 -4 22 -7t23 -3q18 0 22 13t4 20q0 51 -30 75q-16 16 -42 22.5t-55 6.5q-41 0 -74.5 -9t-54.5 -15q-43 -12 -53 -13q-35 0 -41 25.5t-6 42.5v102q0 31 3 42t5 13q6 10 20.5 16.5
t26.5 10.5q39 12 94.5 25.5t149.5 13.5q31 0 68.5 -3t74.5 -10t70 -21.5t57 -37.5q47 -47 59.5 -113.5t12.5 -119.5v-785l2 -38q2 -29 -4 -43.5t-18.5 -19.5t-31 -5h-38.5h-141h-21.5t-20 6t-13.5 21.5t-3 48.5h-14q-20 -53 -63.5 -74.5t-90.5 -21.5t-98 22.5t-92 85.5
q-20 31 -50 105.5t-30 205.5zM328 352q0 -66 23.5 -84t49.5 -18q37 0 55.5 22.5t18.5 94.5v122q0 16 -1 35t-8 34t-20.5 25.5t-37.5 10.5q-29 0 -45.5 -12.5t-23.5 -29.5t-9 -36.5t-2 -32.5v-131z" />
    <glyph glyph-name="afii10066" unicode="&#x431;" horiz-adv-x="847" 
d="M57 594v305q0 43 3 90t13.5 94t31 92.5t55.5 84.5q33 37 85 71.5t105 50.5l105 35q45 16 52 25.5t13 23.5q4 12 10.5 14.5t18.5 2.5h186q10 0 21.5 -3t11.5 -30q0 -47 -12.5 -89t-40.5 -73q-37 -41 -86 -57.5t-101 -26.5l-98 -20q-20 -4 -54 -16.5t-50 -22.5t-21.5 -21.5
t-5.5 -21.5q0 -14 10 -21q8 -6 23 -6q10 0 25.5 7.5t33.5 11.5q20 6 46 9t48 3q66 0 119 -22.5t88 -57.5q39 -39 59.5 -92t28.5 -111.5t9.5 -116t1.5 -104.5q0 -150 -4.5 -249t-41.5 -181q-16 -35 -41.5 -68.5t-65.5 -61.5t-93 -44t-125 -16q-106 0 -183 40.5t-124 145.5
q-14 33 -24.5 73t-18 91t-10.5 115.5t-3 146.5zM352 393q0 -12 2 -28.5t9.5 -31t21.5 -24.5t39 -10q27 0 42 11.5t22.5 26.5t8.5 30.5t1 25.5v281q0 51 -4.5 73.5t-12.5 32.5q-12 16 -27.5 21.5t-29.5 5.5q-33 0 -52.5 -19.5t-19.5 -78.5v-316z" />
    <glyph glyph-name="afii10067" unicode="&#x432;" horiz-adv-x="917" 
d="M76 109v46t2 46q0 16 1 33.5t1 33.5v750l-4 98q0 20 12 33.5t30.5 20t41 8.5t43.5 2l86 -4h235q61 0 123 -11.5t119 -64.5q35 -33 56.5 -80t21.5 -127q0 -70 -11.5 -113t-27.5 -67q-10 -18 -32.5 -39t-61.5 -33q37 -12 66.5 -35.5t51.5 -64.5q23 -45 28 -94.5t5 -90.5
q0 -72 -15.5 -137t-68.5 -121q-33 -35 -71.5 -54t-78.5 -28.5t-81 -12.5t-78 -3h-272q-23 0 -53.5 3t-45.5 11q-10 4 -16 22.5t-6 72.5zM387 309q0 -16 9.5 -41.5t49.5 -25.5q25 0 46.5 9t35.5 23q20 23 25.5 50.5t5.5 48.5q0 31 -6 58.5t-31 45.5q-27 20 -76 21
q-43 0 -51 -20.5t-8 -33.5v-135zM387 778q0 -12 8 -20q6 -6 14.5 -7t14.5 -1q27 0 48.5 4t41.5 20q31 27 31 74q0 31 -9.5 47t-19.5 27q-14 12 -30.5 18t-45.5 6q-16 0 -24 -2t-15 -6q-14 -10 -14 -27v-133z" />
    <glyph glyph-name="afii10068" unicode="&#x433;" horiz-adv-x="663" 
d="M76 1053q-4 80 22.5 101.5t79.5 21.5q27 0 52.5 -2.5t52.5 -2.5q61 0 122.5 4.5t120.5 4.5q55 0 86 -15.5t31 -85.5q0 -16 -1 -24t-1 -14.5t-1 -11.5t-1 -17v-58v-23t-5 -23.5t-19.5 -17.5t-43.5 -7l-137 4q-18 0 -32.5 -8.5t-14.5 -47.5v-557l10 -184q4 -59 -20.5 -74.5
t-83.5 -15.5h-137h-25.5t-25 9t-18.5 33t-7 69v821z" />
    <glyph glyph-name="afii10069" unicode="&#x434;" horiz-adv-x="917" 
d="M10 -90q0 33 4 62.5t4 70.5q2 53 -4 95t-4 71q2 51 33 55l12 2q14 2 21.5 7.5t11.5 11.5q10 14 20.5 51t20.5 87t19.5 112.5t17.5 128.5q14 125 19 224t10 177l2 43q0 8 2 19.5t8 22.5t20.5 18.5t42.5 7.5h490q8 0 19.5 -3.5t20.5 -13.5t14 -29.5t3 -50.5q-6 -88 -8 -145
t-2 -100t1 -78t1 -76q0 -63 -1 -125.5t-1 -124.5q0 -27 3 -52.5t3 -51.5q0 -14 4 -33t29 -25l8 -2q20 -4 36.5 -19.5t12.5 -62.5q-2 -31 -4 -51t-4 -35.5l-4 -31t-2 -37.5q0 -27 1 -40.5t4 -23.5t5 -21.5t4 -33.5q0 -20 -5 -31.5t-14.5 -17.5t-19.5 -7t-18 -1q-23 0 -43.5 3
t-42.5 3q-23 0 -43.5 -3t-42.5 -3q-41 -2 -49.5 17t-8.5 40v31v16t-9 19.5t-30.5 16.5t-64.5 7h-104q-66 0 -89.5 -14.5t-23.5 -48.5v-27q0 -41 -18.5 -49t-36.5 -8q-23 0 -43.5 3t-42.5 3q-23 0 -43.5 -3t-42.5 -3q-41 0 -49.5 18t-8.5 39zM375 322q0 -18 12 -35
q6 -8 17.5 -14.5t23.5 -6.5h21q18 0 35.5 6.5t27.5 16.5q14 14 16 31.5t2 27.5q0 16 -1 34.5t-3 35.5q-2 14 -2 28.5v28.5l-4 391q0 39 -37 39h-6q-18 0 -22 -23.5t-4 -37.5l-2 -72q0 -27 -3.5 -54.5t-7.5 -62t-11 -79t-15 -103.5q-6 -47 -13.5 -73.5t-12.5 -41t-8 -21.5
t-3 -15z" />
    <glyph glyph-name="afii10070" unicode="&#x435;" horiz-adv-x="858" 
d="M55 600q0 68 4 141.5t19.5 144t46.5 132t84 104.5q41 33 99.5 53.5t131.5 20.5q68 0 119 -17.5t89 -45t63.5 -59.5t40.5 -60q39 -74 44 -169t5 -212q0 -33 -1 -62.5t-9.5 -52t-23.5 -36t-42 -13.5h-330q-14 0 -22 -8q-10 -10 -11 -33q0 -45 25 -80q27 -37 69 -46t70 -9
q55 0 85 11t53 24q16 10 27 14t26 4q29 0 48 -20.5t19 -55.5v-157q0 -31 -5 -44.5t-15 -21.5q-20 -16 -90 -39.5t-168 -23.5q-135 0 -229.5 49t-153.5 168q-49 98 -58.5 196.5t-9.5 202.5zM360 780q0 -27 7.5 -49t35.5 -22h64q20 0 35.5 7t15.5 44v33q0 18 -3 46.5t-17 49.5
q-8 12 -23.5 22.5t-42.5 10.5q-25 0 -39 -11.5t-21 -28t-9.5 -37t-2.5 -38.5v-27z" />
    <glyph glyph-name="afii10072" unicode="&#x436;" horiz-adv-x="1218" 
d="M31 35q0 10 4 29.5t8 29.5l201 508q-57 127 -94 214t-57.5 144.5t-29 90t-8.5 51.5q0 27 9.5 42t24.5 22.5t31.5 8.5t33.5 1h98q23 0 47.5 -4.5t34.5 -45.5l18 -86q6 -27 11.5 -53t16.5 -62t28.5 -85t48.5 -117h26l-20 317q-4 43 -4 71t10 43t33.5 19.5t68.5 2.5l43 -2
q35 -2 65 2t58 -13q16 -10 18.5 -23.5t2.5 -29.5l-2 -70l-21 -317h27q53 129 74.5 203.5t29.5 111.5l19 88q8 39 33.5 44.5t48.5 5.5h98q14 0 31.5 -1t33 -8.5t24.5 -23t9 -41.5q0 -18 -8 -51t-28.5 -90.5t-57.5 -144.5t-94 -214l201 -508q4 -10 8 -29.5t4 -29.5
q0 -31 -21.5 -33t-38.5 -2h-165q-35 0 -54.5 19.5t-36.5 82.5l-102 375h-35l21 -383q0 -18 1 -35.5t-5.5 -32t-21.5 -22.5t-46 -6l-78 4l-90 -4q-25 0 -36 9t-15 24.5t-3 33t1 29.5l20 383h-34l-103 -375q-16 -63 -35.5 -82.5t-54.5 -19.5h-166q-16 0 -37.5 2t-21.5 33z" />
    <glyph glyph-name="afii10073" unicode="&#x437;" horiz-adv-x="630" 
d="M23 78v139q0 41 14 57.5t35 16.5q4 0 12 -1t29 -5q12 -4 23 -5t32 -1q23 0 45.5 8t38.5 30q4 4 11 20.5t7 45.5q0 18 -5 37.5t-17 32.5q-16 16 -38 19t-36 3h-39q-16 0 -36.5 8.5t-20.5 51.5v135q0 41 18.5 50t38.5 9h31q18 0 32.5 7t22.5 16q12 12 15.5 26.5t3.5 24.5
q0 31 -7.5 47t-15.5 24q-10 12 -26.5 18.5t-32.5 6.5q-10 0 -21.5 -1t-21.5 -3t-17.5 -3t-17.5 -1q-8 0 -19.5 3t-15.5 7q-10 6 -16 23.5t-6 31.5v160q0 16 5 30.5t21.5 25t46 16.5t76.5 6h18q68 0 131.5 -12.5t122.5 -65.5q57 -51 76 -112.5t19 -124.5q0 -33 -6.5 -73
t-28.5 -81q-23 -43 -64 -78q23 -12 49.5 -35.5t49.5 -64.5q23 -43 31 -92t8 -95q0 -82 -19.5 -145t-73.5 -119q-51 -53 -126.5 -82.5t-176.5 -29.5q-59 0 -91 7t-47 19.5t-18 29.5t-3 38z" />
    <glyph glyph-name="afii10074" unicode="&#x438;" horiz-adv-x="974" 
d="M76 123l4 121v821q0 45 7 68.5t18.5 33t24.5 9.5h26h137q59 0 83.5 -15.5t20.5 -75.5l-10 -184l-41 -373l33 -10l203 592q14 41 25 54.5t30 13.5q14 0 23.5 -1t25.5 -1h137h25.5t25 -9.5t18.5 -33t7 -68.5v-954q0 -45 -7 -69t-18.5 -33t-24.5 -9h-26h-137
q-59 0 -83.5 15.5t-20.5 74.5l10 184l41 373l-33 8l-203 -589q-14 -41 -25.5 -54.5t-29.5 -13.5q-14 0 -23.5 1t-25.5 1h-88q-31 0 -55.5 1t-41 12.5t-25.5 37t-7 72.5z" />
    <glyph glyph-name="afii10075" unicode="&#x439;" horiz-adv-x="974" 
d="M76 123l4 121v821q0 45 7 68.5t18.5 33t24.5 9.5h26h137q59 0 83.5 -15.5t20.5 -75.5l-10 -184l-41 -373l33 -10l203 592q14 41 25 54.5t30 13.5q14 0 23.5 -1t25.5 -1h137h25.5t25 -9.5t18.5 -33t7 -68.5v-954q0 -45 -7 -69t-18.5 -33t-24.5 -9h-26h-137
q-59 0 -83.5 15.5t-20.5 74.5l10 184l41 373l-33 8l-203 -589q-14 -41 -25.5 -54.5t-29.5 -13.5q-14 0 -23.5 1t-25.5 1h-88q-31 0 -55.5 1t-41 12.5t-25.5 37t-7 72.5zM203 1462v19q4 23 14 26.5t19 3.5h114q20 0 26.5 -21.5t14.5 -37.5q10 -18 31.5 -34.5t62.5 -16.5
q25 0 49.5 8t45.5 43q10 16 14 37.5t27 21.5h114q8 0 18.5 -4t14.5 -26v-19q-4 -39 -18.5 -76.5t-46 -68.5t-85 -49.5t-133.5 -18.5t-133 18.5t-84.5 49.5t-47 68.5t-17.5 76.5z" />
    <glyph glyph-name="afii10076" unicode="&#x43a;" horiz-adv-x="888" 
d="M76 1077q-2 59 22.5 81t91.5 18l43 -2h27.5h10.5t10.5 1t31.5 1q12 0 27.5 -3.5t26.5 -13.5q8 -10 9 -25.5t1 -23.5l-2 -70v-301h26q49 119 73 201t34 121l16 65q6 27 20.5 38.5t61.5 11.5h129q14 0 31.5 -1t33 -8.5t25 -23t9.5 -41.5q0 -31 -20.5 -95.5t-49.5 -138
t-58.5 -146.5t-50.5 -120l191 -508q4 -10 8 -29.5t4 -29.5q0 -31 -21.5 -33t-37.5 -2h-197q-41 0 -57.5 23.5t-32.5 78.5l-102 351h-35v-359q0 -12 1 -29.5t-3 -33t-20.5 -25.5t-49.5 -8l-78 4l-90 -4q-41 -2 -49 25.5t-8 76.5v889z" />
    <glyph glyph-name="afii10077" unicode="&#x43b;" horiz-adv-x="917" 
d="M0 35v158q0 4 1 13t5 19.5t12.5 17.5t24.5 7h16q27 0 43.5 28.5t25.5 74.5t11 101.5t2 109.5t-2 100.5t-2 72.5v381q0 20 10.5 39t57.5 19h557h25.5t24.5 -9.5t18.5 -33t7.5 -68.5v-821l4 -121q2 -47 -7.5 -72.5t-25.5 -37t-41 -12.5t-55 -1h-117q-55 0 -64.5 20.5
t-9.5 51.5q0 102 5 197.5t3 193.5l-6 270q0 18 1 39t5 49q2 16 3.5 25.5t1.5 19.5q0 18 -9.5 30.5t-29.5 12.5h-13q-33 0 -49 -16q-12 -12 -15 -29.5t-3 -34.5v-19t2 -19q2 -14 3 -28.5t1 -29.5v-96q0 -23 -1 -76t-6 -119.5t-13.5 -134t-22.5 -117.5q-16 -57 -48 -106
t-98 -78q-31 -14 -61.5 -18t-62.5 -4q-45 0 -77 7t-32 44z" />
    <glyph glyph-name="afii10078" unicode="&#x43c;" horiz-adv-x="1093" 
d="M68 1096q0 45 16 62.5t88 17.5h154q47 0 73.5 -17.5t44.5 -87.5l95 -346h24l115 389q14 47 35.5 54.5t42.5 7.5h186q16 0 34.5 -4.5t29.5 -14.5q18 -18 18 -86q0 -45 -2 -90l-4 -90q-2 -37 -2 -74v-74l4 -497v-70q2 -29 3 -47t1 -35q0 -43 -5 -59.5t-13 -22.5
q-6 -4 -19.5 -8t-23.5 -4h-148q-14 0 -27.5 3t-23.5 17q-4 4 -14.5 30t-6.5 97l19 512h-27l-45 -147q-8 -25 -21.5 -63.5t-30.5 -75.5t-38.5 -63.5t-42.5 -26.5q-10 0 -23.5 8t-30 34.5t-39 75t-52.5 125.5l-52 133h-26l18 -512v-26.5t-1 -33.5t-2 -32.5t-3 -23.5
q-8 -23 -28.5 -27t-73.5 -4h-99q-27 0 -41 10t-18 19q-8 10 -11 28.5t-3 34.5v764q0 70 -1 111t-1 65.5t-1 37.5t-1 26z" />
    <glyph glyph-name="afii10079" unicode="&#x43d;" horiz-adv-x="909" 
d="M76 68q0 6 1 12t1 12q2 27 1 53.5t-1 53.5v880q0 27 2 45.5t12 29.5t35 16.5t70 5.5h75q43 0 68 -7.5t36 -18.5t14 -25.5t3 -28.5v-13l-14 -290q-2 -27 10 -52.5t68 -25.5q10 0 24.5 2t26.5 13t20.5 32.5t8.5 60.5q0 27 -1 44.5t-2.5 31.5t-2.5 27.5t-1 31.5v150
q0 18 3.5 30.5t15.5 20.5t38.5 12.5t74.5 4.5h79q37 0 55.5 -7.5t26.5 -16.5t9.5 -21.5t1.5 -20.5q0 -10 -1.5 -18.5t-1.5 -18.5v-47q0 -18 -1 -37.5t-1 -38.5v-641q0 -39 1 -67.5t1 -53t1.5 -47t1.5 -49.5q0 -20 -4.5 -39.5t-18.5 -32.5q-10 -8 -29.5 -14t-40.5 -6h-129
q-10 0 -25.5 2t-29.5 11.5t-24.5 27.5t-10.5 53v144q0 18 2 36.5t8 59.5q4 16 6.5 31.5t2.5 31.5q0 39 -21.5 47.5t-42.5 8.5q-14 0 -32.5 -3.5t-32.5 -13.5q-20 -16 -23.5 -39.5t-3.5 -46.5v-258q0 -20 -1 -36.5t-11.5 -29t-37 -19.5t-75.5 -7h-63q-47 0 -72 4t-36 13.5
t-12 21.5t-1 29z" />
    <glyph glyph-name="afii10080" unicode="&#x43e;" horiz-adv-x="847" 
d="M57 594q0 143 8.5 257t59.5 198q31 49 68.5 77.5t77.5 44t81 20.5t78 5q96 0 165 -27.5t112 -92t63.5 -169t20.5 -258.5q0 -88 -1.5 -158.5t-5.5 -129t-13 -104.5t-26 -85q-39 -88 -120.5 -140t-208.5 -52q-70 0 -121 15t-88 43t-62.5 67.5t-44.5 91.5q-29 86 -36 185
t-7 212zM352 393q0 -12 2 -28.5t9.5 -31t21.5 -24.5t39 -10q27 0 42 11.5t22.5 26.5t8.5 30.5t1 25.5v350q0 51 -4.5 74t-12.5 33q-12 16 -27.5 21.5t-29.5 5.5q-33 0 -52.5 -19.5t-19.5 -79.5v-385z" />
    <glyph glyph-name="afii10081" unicode="&#x43f;" horiz-adv-x="880" 
d="M61 68q0 6 1 12t1 12q2 27 1 53.5t-1 53.5v880q0 27 2.5 45.5t12.5 29.5t34.5 16.5t69.5 5.5h545q37 0 55.5 -7.5t26.5 -16.5t9 -21.5t1 -20.5q0 -10 -1 -18.5t-1 -18.5v-47q0 -18 -1 -37.5t-1 -38.5v-641v-53.5t2 -52.5q2 -29 2 -55.5v-55.5q0 -12 -1 -27.5t-10 -30
t-27.5 -24.5t-53.5 -10h-129q-10 0 -25.5 2t-30 11.5t-24.5 27.5t-10 53v600q0 18 2 37t8 60q4 16 6 31.5t2 31.5q0 39 -21.5 47t-37.5 8q-35 0 -54.5 -9t-28.5 -23.5t-11 -33t-2 -36.5v-715q0 -20 -1 -36.5t-11.5 -29t-37 -19.5t-75.5 -7h-64q-47 0 -71.5 4t-36 13.5
t-12.5 21.5t-1 29z" />
    <glyph glyph-name="afii10082" unicode="&#x440;" horiz-adv-x="862" 
d="M76 1102q-4 53 21.5 63.5t68.5 10.5h123q41 0 59.5 -14.5t16.5 -59.5q23 27 67.5 55.5t110.5 28.5q74 0 123 -39t77 -105q8 -16 18.5 -45.5t20 -81t16.5 -126t7 -181.5q0 -66 -3 -139.5t-12.5 -144t-28 -132t-46.5 -102.5q-25 -35 -72 -67.5t-123 -32.5q-53 0 -88 18.5
t-55 34.5v-119q0 -43 -5 -65.5t-16.5 -30.5t-28 -8h-36.5h-129q-37 0 -54.5 5t-24.5 16.5t-6 29.5t1 45v1139zM365 440q0 -68 11 -104.5t64 -36.5q51 0 60.5 37t9.5 98v291q0 70 -10.5 113t-61.5 43q-27 0 -50 -22.5t-23 -98.5v-320z" />
    <glyph glyph-name="afii10083" unicode="&#x441;" horiz-adv-x="575" 
d="M57 567q0 123 8.5 210t20.5 146.5t29.5 96.5t36.5 59q51 63 133 92q41 14 83 19.5t76 5.5q35 0 53.5 -9t26.5 -22.5t9.5 -28t1.5 -24.5v-168q0 -31 -7.5 -46t-18.5 -22.5t-22.5 -8.5t-19.5 -3l-12 -2q-31 -6 -48.5 -18.5t-26.5 -42t-11 -78.5t-2 -127t4 -126t14 -74.5
t27.5 -36t42.5 -9.5h22q23 0 40.5 -9t17.5 -62v-213q0 -12 -2.5 -25.5t-12.5 -25t-30.5 -18.5t-55.5 -7q-84 0 -162.5 24.5t-132.5 102.5q-16 25 -31.5 58.5t-26.5 86.5t-17.5 127t-6.5 178z" />
    <glyph glyph-name="afii10084" unicode="&#x442;" horiz-adv-x="696" 
d="M10 977.5v48.5v57q2 63 31 78t63 15q25 0 49.5 -2.5t49.5 -2.5q41 0 84 2.5t84 2.5h129l94 4q16 0 39.5 -2t34.5 -11q14 -12 14 -36.5t2 -38.5l2 -19v-61q0 -74 -22.5 -90.5t-49.5 -16.5h-45q-47 0 -57 -12t-10 -29v-688q0 -29 1 -40t3 -19t3 -18.5t1 -35.5
q0 -23 -12.5 -43t-59.5 -20h-35l-124 -4q-29 0 -46.5 5t-26.5 15.5t-12.5 21.5t-3.5 23t1.5 20.5t1.5 15.5t1 18.5t1 34.5v692q0 16 1 22t1 15q0 16 -11.5 21t-29.5 5h-54q-37 0 -56 9.5t-27.5 25.5t-8.5 37.5z" />
    <glyph glyph-name="afii10085" unicode="&#x443;" horiz-adv-x="792" 
d="M14 1118q0 20 17.5 39t54.5 19h176q29 0 41 -12.5t19 -71.5l67 -732h37l57 758q0 6 3 20.5t16 24.5q10 8 26.5 10.5t26.5 2.5h150q55 0 68 -24t13 -40q0 -12 -3 -28.5t-5 -24.5l-205 -965q-12 -59 -32.5 -113.5t-65.5 -97.5t-96 -56t-111 -13q-37 0 -85 4t-81 16
q-18 6 -34.5 19.5t-16.5 46.5v176q0 27 7.5 51.5t41.5 24.5q16 0 29 -7q10 -4 17.5 -8t19.5 -4q16 0 24 8t9 23q0 10 -2 26.5t-4 26.5l-175 877q-4 20 -4 24z" />
    <glyph glyph-name="afii10086" unicode="&#x444;" horiz-adv-x="1241" 
d="M57 561q0 129 7.5 216t16.5 142.5t19.5 84t14.5 38.5q35 80 84 107t116 27q37 0 77 -9.5t79 -44.5v156q0 27 -1 45t6 29.5t24.5 16.5t54.5 5h129h36.5t28 -8t16.5 -30.5t5 -65.5v-148q43 37 86 45.5t78 8.5q63 0 110.5 -26t81.5 -108q4 -10 14.5 -38.5t19.5 -84
t16.5 -142.5t7.5 -214q0 -121 -10.5 -205t-23.5 -139t-28.5 -85t-23.5 -44q-37 -53 -84 -76.5t-101 -23.5q-23 0 -62.5 9t-80.5 44v-119q0 -43 -5 -65.5t-16.5 -30.5t-27.5 -8h-37h-129q-37 0 -54.5 5t-24.5 16.5t-6 29.5t1 45v127q-41 -35 -81 -44t-62 -9
q-53 0 -100.5 23.5t-84.5 76.5q-10 14 -24.5 44t-27.5 85t-23.5 138t-10.5 204zM344 434q0 -31 1 -55.5t7 -43t20.5 -27.5t41.5 -9q53 0 64 37t11 104v320q0 76 -23.5 98.5t-49.5 22.5q-53 0 -62.5 -43t-9.5 -113v-291zM752 440q0 -68 11 -104.5t64 -36.5q51 0 60.5 37
t9.5 98v291q0 70 -10 113t-62 43q-27 0 -50 -22.5t-23 -98.5v-320z" />
    <glyph glyph-name="afii10087" unicode="&#x445;" horiz-adv-x="849" 
d="M12 45q0 4 3 20.5t20 57.5l215 506l-207 444q-4 8 -8 28.5t-4 31.5q0 33 26.5 38t51.5 5h190q18 0 38.5 -4.5t27.5 -30.5l59 -287h20l60 270q10 41 32.5 46.5t43.5 5.5h184q55 0 55 -46q0 -29 -10 -50t-18 -40l-166 -403l178 -502q4 -12 10 -36.5t6 -45.5q0 -25 -9 -37
t-24.5 -15t-36 -2t-40.5 1h-121q-12 0 -26.5 1t-28 9t-24.5 27.5t-17 54.5l-56 283h-24l-62 -303q-4 -14 -7 -25.5t-13 -21.5q-18 -20 -41 -22.5t-45 -2.5h-185q-47 0 -47 45z" />
    <glyph glyph-name="afii10088" unicode="&#x446;" horiz-adv-x="935" 
d="M74 1090.5q4 39.5 23.5 62.5t70.5 23h129q10 0 25.5 -2.5t30 -11.5t24.5 -28.5t10 -52.5v-600v-63v-14.5t-2 -30.5q-2 -14 -4 -26.5t-2 -24.5q0 -41 18.5 -48.5t30.5 -7.5q35 0 54.5 9.5t28.5 24.5t11 32.5t2 36.5v714q0 20 1 37t11.5 29t37 19.5t75.5 7.5h64
q47 0 71.5 -4.5t35.5 -13.5t12.5 -21.5t1.5 -28.5q0 -6 -1.5 -12t-1.5 -13q-2 -27 -1 -53t1 -53v-651q0 -12 4.5 -32t28.5 -26l8 -2q20 -4 37 -19.5t13 -62.5q-2 -31 -4.5 -51t-4.5 -35.5l-4 -31t-2 -37.5q0 -27 1 -40.5t4 -23.5t5.5 -21.5t4.5 -33.5q0 -20 -5.5 -31.5
t-14.5 -17.5t-19.5 -7t-18.5 -1q-23 0 -43 3t-43 3t-43 -3t-43 -3q-41 -2 -49 17t-8 40v31v16t-9.5 19.5t-31 16.5t-64.5 7h-362q-37 0 -55.5 7t-26.5 16.5t-9 20.5t-1 22q0 10 1 18t1 18v48q0 18 1 37.5t1 37.5v641q0 70 -5 127.5t-1 97z" />
    <glyph glyph-name="afii10089" unicode="&#x447;" horiz-adv-x="874" 
d="M53 679v71v329q0 27 2 45.5t12.5 29.5t35 16.5t69.5 5.5h76q43 0 67.5 -7.5t35.5 -18.5t14.5 -25.5t3.5 -28.5v-13l-15 -387q0 -12 1 -26.5t7.5 -27.5t20.5 -21.5t39 -8.5q29 0 44 10.5t22.5 28t8.5 38t1 38.5v55v30.5t-1 17t-1 13.5v19v246q0 18 3 30.5t15 20.5t39 12.5
t74 4.5h80q37 0 55 -7.5t26.5 -16.5t9.5 -21.5t1 -20.5q0 -10 -1 -18.5t-1 -18.5v-47q0 -18 -1 -37.5t-1 -38.5v-641q0 -61 1 -83.5t1 -35t1 -30t1 -68.5q0 -23 -4 -41t-15 -28q-10 -10 -33.5 -16.5t-39.5 -6.5h-129q-29 0 -43.5 5t-28.5 26q-8 12 -13.5 26.5t-5.5 36.5v250
q0 8 -2 15.5t-16 7.5q-10 0 -20.5 -4.5t-38.5 -8.5q-25 -4 -46.5 -7t-41.5 -3q-53 0 -112.5 24.5t-94.5 69.5q-27 33 -39.5 75t-17.5 84t-5 82z" />
    <glyph glyph-name="afii10090" unicode="&#x448;" horiz-adv-x="1284" 
d="M76 1108q0 16 1 28.5t12 21.5t36 13.5t72 4.5h43q49 0 75.5 -7.5t36.5 -19.5t11.5 -28.5t1.5 -37.5v-714q0 -37 10 -70t65 -33q12 0 26.5 3t25.5 20q4 6 7 22.5t3 63.5v706q0 33 10 52.5t24.5 28.5t30 11.5t25.5 2.5h104q39 0 58.5 -13.5t26.5 -32t6 -40t-1 -35.5l-2 -39
v-647q0 -37 10.5 -70t65.5 -33q12 0 26.5 3t24.5 20q6 10 8.5 33.5t2.5 83.5v675q0 33 10 52.5t24.5 28.5t29.5 11.5t26 2.5h104q35 0 53.5 -10.5t27.5 -25t10 -29.5t1 -28v-76.5t-1 -38t-1 -17.5t-1 -12t-1 -22.5v-50.5v-641q0 -18 1 -37.5t1 -37.5v-48q0 -10 1 -18t1 -18
t-1 -21.5t-9 -21t-26.5 -16.5t-55.5 -7h-919q-45 0 -70 5t-35 16.5t-12 30t-2 44.5v881q0 31 -1 62.5t-1 68.5z" />
    <glyph glyph-name="afii10091" unicode="&#x449;" horiz-adv-x="1308" 
d="M76 1108q0 16 1 28.5t12 21.5t36 13.5t72 4.5h43q78 0 102 -19q20 -16 21.5 -36.5t1.5 -37.5v-714q0 -37 10 -70t65 -33q12 0 26.5 3t25.5 20q4 6 7 22.5t3 57.5v712q0 33 10 52.5t24.5 28.5t30 11.5t25.5 2.5h104q41 0 68 -21q14 -10 19 -25.5t5 -46.5q0 -20 -1 -29.5
t-1 -14.5t-1 -10t-1 -13v-647q0 -37 10.5 -70t65.5 -33q12 0 26.5 3t24.5 20q4 8 7.5 26.5t3.5 65.5v700q0 33 10 52.5t24.5 28.5t29.5 11.5t26 2.5h104q16 0 37 -6.5t31 -12.5q16 -12 20 -36.5t4 -45.5q0 -23 -1 -44t-1 -44q-2 -31 -2 -60.5v-60.5v-540q0 -12 4 -32t29 -26
l8 -2q20 -4 36.5 -19.5t12.5 -62.5q-2 -31 -4 -51t-4 -35.5l-4 -31t-2 -37.5q0 -27 1 -40.5t4 -23.5t5 -21.5t4 -33.5q0 -20 -5 -31.5t-14 -17.5t-19.5 -7t-18.5 -1q-23 0 -43 3t-43 3t-43.5 -3t-42.5 -3q-41 -2 -49 17t-8 40v31v16t-9.5 19.5t-31 16.5t-64.5 7h-706
q-45 0 -70 5t-35 16.5t-12 30t-2 44.5v881q0 31 -1 62.5t-1 68.5z" />
    <glyph glyph-name="afii10092" unicode="&#x44a;" horiz-adv-x="1028" 
d="M0 977.5v48.5v57q2 66 30.5 79.5t63.5 13.5q84 -2 146.5 -5.5t140.5 5.5q29 4 68.5 4t56.5 -29q12 -23 12 -57q0 -16 -1 -29.5t-3 -30.5q-2 -14 -2 -28.5v-28.5v-160q0 -10 2 -20.5t9 -19.5t23.5 -15t45.5 -6h41q27 0 60.5 -3t69.5 -12.5t69.5 -25t60.5 -41.5
q37 -37 65.5 -112t28.5 -206q0 -29 -2 -62.5t-11 -69.5t-26.5 -69.5t-46.5 -62.5q-61 -59 -145 -75.5t-162 -16.5h-272q-6 0 -22.5 1t-33 3t-32 6t-21.5 13q-10 14 -11 50t-1 52q0 61 2 91t2 52v574q0 16 1 22t1 15q0 16 -11.5 21t-29.5 5h-74q-37 0 -56.5 9.5t-27.5 25.5
t-8 37.5zM512 309q0 -23 7 -36t16.5 -20t19.5 -9t16 -2q14 0 34 4t37 17t29.5 40t12.5 70t-10 67.5t-27.5 36.5t-37 16.5t-38.5 4.5q-43 0 -51 -19.5t-8 -34.5v-135z" />
    <glyph glyph-name="afii10093" unicode="&#x44b;" horiz-adv-x="1304" 
d="M66 125q0 59 2 89t2 54v750v33q0 6 -1 13t-1 13q-2 20 3 44t19 36q16 16 47 17.5t45 1.5l43 -2q25 -2 47.5 0t42.5 2q12 0 27.5 -3.5t26.5 -13.5q8 -10 9 -25.5t1 -23.5l-2 -70v-223q0 -10 2 -20.5t9 -19.5t23.5 -15t45.5 -6h41q66 0 132 -20.5t111 -59.5
q37 -33 58.5 -75t31 -85t11.5 -84t2 -74q0 -35 -2 -72.5t-13.5 -74.5t-32 -71t-57.5 -64q-35 -27 -74.5 -42.5t-78.5 -22.5t-73 -9t-54 -2h-273q-23 0 -53.5 3t-44.5 11q-8 4 -15 22.5t-7 88.5zM377 309q0 -23 7 -36t16.5 -20t19.5 -9t16 -2q14 0 33.5 4t37 17t30 40
t12.5 70t-10.5 67.5t-27.5 36.5t-36.5 16.5t-38.5 4.5q-43 0 -51 -19.5t-8 -34.5v-135zM922 68q0 6 1 12t1 12q2 27 1 53.5t-1 53.5v880q0 27 2 45.5t12 29.5t34.5 16.5t69.5 5.5h76q43 0 67.5 -7.5t36 -18.5t14.5 -25.5t3 -28.5v-13l-8 -174v-817q0 -20 -1 -36.5t-11.5 -29
t-37 -19.5t-75.5 -7h-64q-47 0 -71.5 4t-35.5 13.5t-12 21.5t-1 29z" />
    <glyph glyph-name="afii10094" unicode="&#x44c;" horiz-adv-x="868" 
d="M66 125q0 59 2 89t2 54v750v33q0 6 -1 13t-1 13q-2 20 3 44t19 36q16 16 47 17.5t45 1.5l43 -2q25 -2 47.5 0t42.5 2q12 0 27.5 -3.5t26.5 -13.5q8 -10 9 -25.5t1 -23.5l-2 -70v-223q0 -10 2 -20.5t9 -19.5t23.5 -15t45.5 -6h41q66 0 132 -20.5t111 -59.5
q37 -33 58.5 -75t31 -85t11.5 -84t2 -74q0 -35 -2 -72.5t-13.5 -74.5t-32 -71t-57.5 -64q-35 -27 -74.5 -42.5t-78.5 -22.5t-73 -9t-54 -2h-273q-23 0 -53.5 3t-44.5 11q-8 4 -15 22.5t-7 88.5zM377 309q0 -23 7 -36t16.5 -20t19.5 -9t16 -2q14 0 33.5 4t37 17t30 40
t12.5 70t-10.5 67.5t-27.5 36.5t-36.5 16.5t-38.5 4.5q-43 0 -51 -19.5t-8 -34.5v-135z" />
    <glyph glyph-name="afii10095" unicode="&#x44d;" horiz-adv-x="618" 
d="M33 66v157q0 53 17.5 62.5t39.5 9.5h74q25 0 42 11t27 28q8 12 14.5 34.5t6.5 41.5v30q0 27 -20.5 31t-24.5 4h-86q-16 0 -36.5 8.5t-20.5 51.5v135q0 41 18 50t39 9h96q10 0 20.5 6t10.5 35v14q0 18 -5 40t-18 36q-10 10 -25.5 18.5t-37.5 8.5l-64 2q-10 0 -25.5 3
t-27.5 17q-10 12 -12 25.5t-2 30.5v147q0 12 2 29.5t18 34.5q18 16 48 18t49 2q47 0 95 -5t89 -20q82 -29 133 -92q47 -59 70.5 -176t23.5 -336q0 -39 -2 -95t-9 -116.5t-23.5 -119t-43.5 -103.5q-31 -49 -72.5 -78.5t-85.5 -44t-89.5 -18.5t-81.5 -4q-53 0 -75 7t-30 17
q-16 20 -16 54z" />
    <glyph glyph-name="afii10096" unicode="&#x44e;" horiz-adv-x="1263" 
d="M76 68q0 6 1 12t1 12q2 27 1 53.5t-1 53.5v880q0 27 2 45.5t12 29.5t35 16.5t70 5.5h75q43 0 68 -7.5t36 -18.5t14 -25.5t3 -28.5v-13l-14 -290q-2 -35 4 -58.5t39 -23.5h27q31 0 39 14t8 43v55q0 53 14 115.5t43 110.5q29 49 65.5 77.5t75.5 44t78 19.5t74 4
q37 0 74.5 -4t73.5 -17.5t70 -39t62 -68.5q29 -43 45.5 -95t23.5 -106.5t9 -109t2 -105.5q0 -102 -2 -177t-6 -130t-13 -96t-24 -74q-43 -96 -131 -143t-199 -47q-61 0 -108 14t-81 37.5t-56.5 53.5t-36.5 58q-12 23 -21.5 54.5t-16.5 65.5t-11 64.5t-4 53.5v27
q0 29 -14.5 36t-28.5 7h-15q-41 0 -47 -28t-6 -75v-258q0 -20 -1 -36.5t-11.5 -29t-37 -19.5t-75.5 -7h-63q-47 0 -72 4t-36 13.5t-12 21.5t-1 29zM768 393q0 -12 2 -28.5t9 -31t21.5 -24.5t39.5 -10q27 0 42 11.5t22 26.5t8 30.5t1 25.5v350q0 51 -4 74t-12 33
q-12 16 -27.5 21.5t-29.5 5.5q-33 0 -52.5 -19.5t-19.5 -79.5v-385z" />
    <glyph glyph-name="afii10097" unicode="&#x44f;" horiz-adv-x="874" 
d="M14 43q0 16 3 19.5t8 9.5l157 399q-29 10 -52.5 30.5t-43.5 57.5q-16 33 -29.5 88t-13.5 154q0 25 2 63.5t12.5 81.5t29.5 86t56 74q47 41 121 58.5t139 15.5l144 -4l141 2h39t36 -9.5t25.5 -31t10.5 -62.5v-969q0 -59 -12.5 -82.5t-65.5 -23.5h-164q-23 0 -36 7
t-19 18.5t-8 22.5t-2 20v374h-35l-121 -381q-16 -47 -34.5 -54t-47.5 -7h-127l-43 -4q-23 -2 -46.5 11t-23.5 36zM350 752q0 -10 2 -26.5t9.5 -32t21.5 -27t37 -11.5q29 0 43 9.5t20 25t7.5 32.5t1.5 34v116q0 20 -8.5 44t-53.5 24q-33 0 -49 -18.5t-23.5 -46t-7.5 -61.5
v-62z" />
    <glyph glyph-name="afii10071" unicode="&#x451;" horiz-adv-x="856" 
d="M53 600q0 68 4 141.5t19.5 144t46.5 132t84 104.5q41 33 99.5 51.5t131.5 18.5q68 0 119 -17.5t89 -43t63.5 -57.5t40.5 -60q39 -74 44 -169t5 -212q0 -33 -1 -62.5t-9.5 -52t-23.5 -36t-42 -13.5h-330q-14 0 -22 -8q-10 -10 -11 -33q0 -45 25 -80q27 -37 69 -46t70 -9
q55 0 85 11t53 24q16 10 27 14t26 4q29 0 48 -20.5t19 -55.5v-157q0 -31 -5 -44.5t-15 -21.5q-20 -16 -90 -39.5t-168 -23.5q-135 0 -229.5 49t-153.5 168q-49 98 -58.5 196.5t-9.5 202.5zM154 1303v133q0 14 10 26.5t47 12.5h131q35 0 43 -13.5t8 -29.5v-134
q0 -23 -10 -29.5t-47 -6.5h-131q-35 0 -43 10t-8 31zM358 780q0 -27 7.5 -49t35.5 -22h64q20 0 35.5 7t15.5 44v33q0 18 -3 46.5t-17 49.5q-8 12 -23.5 22.5t-42.5 10.5q-25 0 -39 -11.5t-21.5 -28t-9.5 -37t-2 -38.5v-27zM494 1303v133q0 14 10 26.5t47 12.5h131
q35 0 43 -13.5t8 -29.5v-134q0 -23 -10 -29.5t-47 -6.5h-131q-35 0 -43 10t-8 31z" />
    <glyph glyph-name="endash" unicode="&#x2013;" horiz-adv-x="1126" 
d="M51 553v94q0 31 15 45q10 10 25 11.5t26 1.5h893q10 0 25.5 -1.5t25.5 -11.5q14 -14 14 -45v-94q0 -39 -3 -51.5t-7 -16.5q-10 -10 -23.5 -11t-21.5 -1h-914q-8 0 -21 1t-24 11q-4 4 -7 16.5t-3 51.5z" />
    <glyph glyph-name="emdash" unicode="&#x2014;" horiz-adv-x="2109" 
d="M31 553v94q0 31 14 45q10 10 25.5 11.5t25.5 1.5h1917q10 0 25.5 -1.5t25.5 -11.5q14 -14 15 -45v-94q0 -39 -3 -51.5t-8 -16.5q-10 -10 -23 -11t-22 -1h-1937q-8 0 -21.5 1t-23.5 11q-4 4 -7 16.5t-3 51.5z" />
    <glyph glyph-name="quoteleft" unicode="&#x2018;" horiz-adv-x="454" 
d="M63 995v228q0 23 7.5 37t13.5 24l92 164q8 14 24.5 21.5t35.5 7.5h83q20 0 27.5 -7.5t8.5 -16.5t-3 -16t-4 -10l-16 -30q-10 -18 -18.5 -31.5t-14.5 -25t-11 -23.5t-14 -31h33q31 0 48.5 -4t25.5 -13t9 -23.5t1 -33.5v-227q0 -29 -11 -46t-65 -17h-182q-29 0 -49.5 10
t-20.5 63z" />
    <glyph glyph-name="quoteright" unicode="&#x2019;" horiz-adv-x="454" 
d="M63 1174v227q0 29 11.5 46t64.5 17h183q29 0 49 -10t20 -63v-228q0 -23 -7 -37t-13 -24l-92 -164q-8 -14 -24.5 -21.5t-35.5 -7.5h-84q-20 0 -27.5 7.5t-8.5 16.5t3 16t4 9l17 31q10 18 17 31.5t13.5 25t12.5 23.5t14 31h-33q-31 0 -48 4t-25 13t-9.5 23.5t-1.5 33.5z
" />
    <glyph glyph-name="quotedblleft" unicode="&#x201c;" horiz-adv-x="870" 
d="M63 995v228q0 23 7.5 37t13.5 24l92 164q8 14 24.5 21.5t35.5 7.5h83q20 0 27.5 -7.5t8.5 -16.5t-3 -16t-4 -10l-16 -30q-10 -18 -18.5 -31.5t-14.5 -25t-11 -23.5t-14 -31h33q31 0 48.5 -4t25.5 -13t9 -23.5t1 -33.5v-227q0 -29 -11 -46t-65 -17h-182q-29 0 -49.5 10
t-20.5 63zM479 995v228q0 23 7.5 37t13.5 24l92 164q8 14 24.5 21.5t34.5 7.5h84q20 0 27.5 -7.5t8.5 -16.5t-3 -16t-4 -10l-16 -30q-10 -18 -18.5 -31.5t-14.5 -25t-11.5 -23.5t-13.5 -31h33q31 0 48 -4t25.5 -13t9.5 -23.5t1 -33.5v-227q0 -29 -11.5 -46t-64.5 -17h-182
q-29 0 -49.5 10t-20.5 63z" />
    <glyph glyph-name="quotedblright" unicode="&#x201d;" horiz-adv-x="870" 
d="M63 1174v227q0 29 11.5 46t64.5 17h183q29 0 49 -10t20 -63v-228q0 -23 -7 -37t-13 -24l-92 -164q-8 -14 -24.5 -21.5t-35.5 -7.5h-84q-20 0 -27.5 7.5t-8.5 16.5t3 16t4 9l17 31q10 18 17 31.5t13.5 25t12.5 23.5t14 31h-33q-31 0 -48 4t-25 13t-9.5 23.5t-1.5 33.5z
M479 1174v227q0 29 11.5 46t64.5 17h182q29 0 49.5 -10t20.5 -63v-228q0 -23 -7 -37t-14 -24l-92 -164q-8 -14 -24.5 -21.5t-34.5 -7.5h-84q-20 0 -27.5 7.5t-8.5 16.5t3 16t4 9l17 31q10 18 17 31.5t13 25t12.5 23.5t14.5 31h-33q-31 0 -48 4t-25.5 13t-9.5 23.5t-1 33.5z
" />
    <glyph glyph-name="quotedblbase" unicode="&#x201e;" horiz-adv-x="870" 
d="M63 74v227q0 29 11.5 46.5t64.5 17.5h183q29 0 49 -10.5t20 -63.5v-228q0 -23 -7 -37t-13 -24l-92 -164q-8 -14 -24.5 -21t-35.5 -7h-84q-20 0 -27.5 7t-8.5 16t3 16.5t4 9.5l17 30q10 18 17 31.5t13.5 25t12.5 24t14 30.5h-33q-31 0 -48 4t-25 13.5t-9.5 23.5t-1.5 33z
M479 74v227q0 29 11.5 46.5t64.5 17.5h182q29 0 49.5 -10.5t20.5 -63.5v-228q0 -23 -7 -37t-14 -24l-92 -164q-8 -14 -24.5 -21t-34.5 -7h-84q-20 0 -27.5 7t-8.5 16t3 16.5t4 9.5l17 30q10 18 17 31.5t13 25t12.5 24t14.5 30.5h-33q-31 0 -48 4t-25.5 13.5t-9.5 23.5t-1 33
z" />
    <glyph glyph-name="bullet" unicode="&#x2022;" horiz-adv-x="1208" 
d="M307 762q0 61 23.5 114.5t63.5 93.5t94.5 63.5t115.5 23.5t114.5 -23.5t93.5 -63.5t63.5 -93.5t23.5 -114.5t-23.5 -114.5t-63.5 -94.5t-94 -64.5t-116 -23.5q-61 0 -114.5 23.5t-93.5 63.5t-63.5 94.5t-23.5 115.5z" />
    <glyph glyph-name="ellipsis" unicode="&#x2026;" horiz-adv-x="1519" 
d="M51 74v227q0 29 11.5 46.5t64.5 17.5h182q29 0 49.5 -10.5t20.5 -63.5v-228q0 -25 -10.5 -44t-65.5 -19h-182q-12 0 -24.5 2t-23 9t-16.5 21.5t-6 41.5zM596 74v227q0 29 11 46.5t65 17.5h182q29 0 49.5 -10.5t20.5 -63.5v-228q0 -25 -10.5 -44t-65.5 -19h-182
q-12 0 -24.5 2t-23 9t-16.5 21.5t-6 41.5zM1141 74v227q0 29 11 46.5t65 17.5h182q29 0 49 -10.5t20 -63.5v-228q0 -25 -10 -44t-65 -19h-183q-12 0 -24 2t-22.5 9t-16.5 21.5t-6 41.5z" />
    <glyph glyph-name="trademark" unicode="&#x2122;" horiz-adv-x="1318" 
d="M33 1300v109q0 25 22 25h477q10 0 17.5 -4.5t7.5 -14.5v-115q0 -10 -5 -15t-22 -5h-137q-18 0 -18 -20v-521q0 -29 -11.5 -33t-27.5 -4h-86q-10 0 -23.5 4.5t-13.5 32.5v521q0 20 -18 20h-140q-8 0 -15 2t-7 18zM616 739v658q0 29 12.5 33t26.5 4h97q12 0 23 -7.5
t16 -17.5l124 -240q4 -4 4.5 -11t6.5 -7q8 0 8 6t4 10l127 238q10 18 20.5 23.5t20.5 5.5h90q12 0 24.5 -3.5t12.5 -33.5v-658q0 -31 -12.5 -34t-24.5 -3h-84q-10 0 -24.5 4.5t-14.5 32.5v398l-98 -219q-2 -4 -8 -15.5t-23 -11.5h-35q-14 0 -20 8t-10 19l-105 219v-398
q0 -12 -3 -24.5t-32 -12.5h-84q-12 0 -25.5 4.5t-13.5 32.5z" />
  </font>
</defs>
</svg>
