<svg xmlns="http://www.w3.org/2000/svg" width="41" height="130.5"><circle fill="#949494" cx="18.849" cy="102.918" r=".724"/><circle fill="#949494" cx="15.577" cy="108.352" r="1.352"/><circle fill="#949494" cx="11.895" cy="106.684" r=".917"/><circle fill="#949494" cx="10.771" cy="111.494" r=".966"/><circle fill="#949494" cx="14.003" cy="112.601" r="1.047"/><circle fill="#949494" cx="23.437" cy="119.965" r="1.449"/><circle fill="#949494" cx="27.734" cy="115.57" r="1.304"/><circle fill="#949494" cx="25.111" cy="109.634" r=".917"/><circle fill="#949494" cx="29.662" cy="108.923" r="1.159"/><circle fill="#949494" cx="29.489" cy="103.92" r=".724"/><g fill="none" stroke="#949494" stroke-width=".5" stroke-miterlimit="10"><path d="M27.62 114.891a22.98 22.98 0 0 1 1.022 6.441 13.539 13.539 0 0 0 5.152-10.64c0-.986-.107-1.947-.308-2.874-1.286.471-2.615.85-3.98 1.131a17.73 17.73 0 0 1-1.886 5.942z"/><path d="M23.487 120.096l.106.132a12.585 12.585 0 0 1 3.905 1.918c.396-.252.777-.522 1.144-.813a23.016 23.016 0 0 0-1.022-6.441 17.965 17.965 0 0 1-4.133 5.204zM28.332 99.811a17.801 17.801 0 0 1 1.175 9.138 27.962 27.962 0 0 0 3.98-1.131 13.568 13.568 0 0 0-5.155-8.007z"/><path d="M23.594 120.228l-.106-.132-.089.076.195.056zM10.685 111.454c1.102.337 2.173.742 3.208 1.214a33.824 33.824 0 0 1 1.697-4.328 28.323 28.323 0 0 1-3.792-1.441 27.841 27.841 0 0 1-1.113 4.555zM27.62 114.891a17.764 17.764 0 0 0 1.887-5.941 28.498 28.498 0 0 1-4.375.551 22.884 22.884 0 0 1 2.488 5.39z"/><path d="M23.751 109.533c-2.837 0-5.576-.418-8.161-1.193a33.735 33.735 0 0 0-1.697 4.328 26.493 26.493 0 0 1 9.595 7.428 17.956 17.956 0 0 0 4.133-5.205 22.91 22.91 0 0 0-2.488-5.391c-.459.021-.919.033-1.382.033zM23.641 97.557a13.583 13.583 0 0 0-3.415-.434c-2.967 0-5.71.955-7.943 2.57a22.93 22.93 0 0 1 6.553 3.186 34.055 34.055 0 0 1 4.805-5.322z"/><path d="M12.137 102.531c0 1.485-.116 2.943-.339 4.367a28.188 28.188 0 0 0 3.792 1.441 33.888 33.888 0 0 1 3.245-5.461 22.917 22.917 0 0 0-6.553-3.186c-.091.066-.181.131-.27.199.082.871.125 1.75.125 2.64zM18.835 102.879a23.132 23.132 0 0 1 6.297 6.621 28.498 28.498 0 0 0 4.375-.551 17.798 17.798 0 0 0-1.175-9.138 13.51 13.51 0 0 0-4.691-2.254 34.11 34.11 0 0 0-4.806 5.322z"/><path d="M23.751 109.533c.463 0 .923-.012 1.381-.033a23.132 23.132 0 0 0-6.297-6.621 33.888 33.888 0 0 0-3.245 5.461 28.374 28.374 0 0 0 8.161 1.193zM11.798 106.898a28.47 28.47 0 0 1-3.784-2.127 13.484 13.484 0 0 0-1.354 5.793c1.379.193 2.724.492 4.025.89a27.828 27.828 0 0 0 1.113-4.556z"/><path d="M12.137 102.531c0-.891-.043-1.77-.124-2.639a13.604 13.604 0 0 0-3.999 4.879 28.47 28.47 0 0 0 3.784 2.127c.223-1.423.339-2.881.339-4.367zM8.166 116.912a13.621 13.621 0 0 0 4.186 4.828 33.939 33.939 0 0 1 1.541-9.072 26.177 26.177 0 0 0-3.208-1.214 27.816 27.816 0 0 1-2.519 5.458z"/><path d="M13.893 112.668a33.9 33.9 0 0 0-1.541 9.072c.139.1.279.197.423.292a12.59 12.59 0 0 1 7.282-2.31c1.157 0 2.277.158 3.342.449l.089-.076a26.501 26.501 0 0 0-9.595-7.427zM8.166 116.912a27.816 27.816 0 0 0 2.519-5.458 26.405 26.405 0 0 0-4.025-.89c-.001.043-.004.085-.004.128a13.49 13.49 0 0 0 1.51 6.22zM27.499 122.146a12.585 12.585 0 0 0-3.905-1.918 26.432 26.432 0 0 1 2.029 2.916c.654-.285 1.28-.62 1.876-.998z"/><path d="M16.651 123.783a13.55 13.55 0 0 0 3.574.479c1.919 0 3.743-.399 5.397-1.118a26.432 26.432 0 0 0-2.029-2.916l-.195-.056a17.806 17.806 0 0 1-6.747 3.611z"/><path d="M23.398 120.172a12.655 12.655 0 0 0-3.342-.449 12.58 12.58 0 0 0-7.282 2.31 13.525 13.525 0 0 0 3.877 1.751 17.821 17.821 0 0 0 6.747-3.612z"/></g><circle fill="none" stroke="#949494" stroke-miterlimit="10" cx="20.322" cy="110.499" r="13.57"/><g><circle fill="#FFF" cx="18.849" cy="14.203" r=".724"/><circle fill="#FFF" cx="15.577" cy="19.637" r="1.352"/><circle fill="#FFF" cx="11.895" cy="17.969" r=".917"/><circle fill="#FFF" cx="10.771" cy="22.779" r=".966"/><circle fill="#FFF" cx="14.003" cy="23.886" r="1.047"/><circle fill="#FFF" cx="23.437" cy="31.25" r="1.449"/><circle fill="#FFF" cx="27.734" cy="26.855" r="1.304"/><circle fill="#FFF" cx="25.111" cy="20.919" r=".917"/><circle fill="#FFF" cx="29.662" cy="20.208" r="1.159"/><circle fill="#FFF" cx="29.489" cy="15.205" r=".724"/><g fill="none" stroke="#FFF" stroke-width=".5" stroke-miterlimit="10"><path d="M27.62 26.176a22.98 22.98 0 0 1 1.022 6.441 13.539 13.539 0 0 0 5.152-10.64c0-.986-.107-1.947-.308-2.874-1.286.471-2.615.85-3.98 1.131a17.73 17.73 0 0 1-1.886 5.942z"/><path d="M23.487 31.381l.106.132a12.585 12.585 0 0 1 3.905 1.918c.396-.252.777-.522 1.144-.813a23.016 23.016 0 0 0-1.022-6.441 17.965 17.965 0 0 1-4.133 5.204zM28.332 11.096a17.801 17.801 0 0 1 1.175 9.138 27.962 27.962 0 0 0 3.98-1.131 13.568 13.568 0 0 0-5.155-8.007z"/><path d="M23.594 31.513l-.106-.132-.089.076.195.056zM10.685 22.739c1.102.337 2.173.742 3.208 1.214a33.824 33.824 0 0 1 1.697-4.328 28.323 28.323 0 0 1-3.792-1.441 27.841 27.841 0 0 1-1.113 4.555zM27.62 26.176a17.764 17.764 0 0 0 1.887-5.941 28.498 28.498 0 0 1-4.375.551 22.884 22.884 0 0 1 2.488 5.39z"/><path d="M23.751 20.818c-2.837 0-5.576-.418-8.161-1.193a33.735 33.735 0 0 0-1.697 4.328 26.493 26.493 0 0 1 9.595 7.428 17.956 17.956 0 0 0 4.133-5.205 22.91 22.91 0 0 0-2.488-5.391c-.459.022-.919.033-1.382.033zM23.641 8.842a13.583 13.583 0 0 0-3.415-.434c-2.967 0-5.71.955-7.943 2.57a22.93 22.93 0 0 1 6.553 3.186 34.1 34.1 0 0 1 4.805-5.322z"/><path d="M12.137 13.816c0 1.485-.116 2.943-.339 4.367a28.188 28.188 0 0 0 3.792 1.441 33.888 33.888 0 0 1 3.245-5.461 22.917 22.917 0 0 0-6.553-3.186c-.091.066-.181.131-.27.199.082.871.125 1.75.125 2.64zM18.835 14.164a23.132 23.132 0 0 1 6.297 6.621 28.498 28.498 0 0 0 4.375-.551 17.798 17.798 0 0 0-1.175-9.138 13.51 13.51 0 0 0-4.691-2.254 34.156 34.156 0 0 0-4.806 5.322z"/><path d="M23.751 20.818c.463 0 .923-.012 1.381-.033a23.132 23.132 0 0 0-6.297-6.621 33.888 33.888 0 0 0-3.245 5.461 28.374 28.374 0 0 0 8.161 1.193zM11.798 18.184a28.47 28.47 0 0 1-3.784-2.127A13.484 13.484 0 0 0 6.66 21.85c1.379.193 2.724.492 4.025.89a27.878 27.878 0 0 0 1.113-4.556z"/><path d="M12.137 13.816c0-.891-.043-1.77-.124-2.639a13.604 13.604 0 0 0-3.999 4.879 28.47 28.47 0 0 0 3.784 2.127c.223-1.423.339-2.881.339-4.367zM8.166 28.197a13.621 13.621 0 0 0 4.186 4.828 33.939 33.939 0 0 1 1.541-9.072 26.177 26.177 0 0 0-3.208-1.214 27.816 27.816 0 0 1-2.519 5.458z"/><path d="M13.893 23.953a33.9 33.9 0 0 0-1.541 9.072c.139.1.279.197.423.292a12.59 12.59 0 0 1 7.282-2.31c1.157 0 2.277.158 3.342.449l.089-.076a26.501 26.501 0 0 0-9.595-7.427zM8.166 28.197a27.816 27.816 0 0 0 2.519-5.458 26.405 26.405 0 0 0-4.025-.89c-.001.043-.004.085-.004.128a13.49 13.49 0 0 0 1.51 6.22zM27.499 33.431a12.585 12.585 0 0 0-3.905-1.918 26.432 26.432 0 0 1 2.029 2.916c.654-.284 1.28-.619 1.876-.998z"/><path d="M16.651 35.068a13.55 13.55 0 0 0 3.574.479c1.919 0 3.743-.399 5.397-1.118a26.432 26.432 0 0 0-2.029-2.916l-.195-.056a17.806 17.806 0 0 1-6.747 3.611z"/><path d="M23.398 31.457a12.655 12.655 0 0 0-3.342-.449 12.58 12.58 0 0 0-7.282 2.31 13.525 13.525 0 0 0 3.877 1.751 17.821 17.821 0 0 0 6.747-3.612z"/></g><circle fill="none" stroke="#FFF" stroke-miterlimit="10" cx="20.322" cy="21.784" r="13.57"/></g></svg>