<svg xmlns="http://www.w3.org/2000/svg" width="41" height="130.5"><g fill="none" stroke="#949494" stroke-miterlimit="10"><path d="M28.939 120.947a2.394 2.394 0 0 1-2.393 2.392h-13.01a2.392 2.392 0 0 1-2.392-2.392v-16.57a2.393 2.393 0 0 1 2.392-2.392h13.011a2.394 2.394 0 0 1 2.393 2.392v16.57zM14.412 107.399h7.213M14.412 112.596h7.213M14.412 117.792h7.213"/><path d="M23.152 107.705l1.039 1.223 2.813-2.934M23.152 112.614l1.039 1.223 2.813-2.934M23.744 118.981l2.811-2.934M26.617 118.92l-2.934-2.813"/></g><g fill="none" stroke="#FFF" stroke-width="1.196" stroke-miterlimit="10"><path d="M28.939 32.197a2.394 2.394 0 0 1-2.393 2.392h-13.01a2.392 2.392 0 0 1-2.392-2.392v-16.57a2.393 2.393 0 0 1 2.392-2.392h13.011a2.394 2.394 0 0 1 2.393 2.392v16.57zM14.412 18.649h7.213M14.412 23.846h7.213M14.412 29.042h7.213"/><path d="M23.152 18.955l1.039 1.223 2.813-2.934M23.152 23.864l1.039 1.223 2.813-2.934M23.744 30.231l2.811-2.934M26.617 30.17l-2.934-2.813"/></g></svg>