<svg xmlns="http://www.w3.org/2000/svg" width="41" height="130.5"><g clip-rule="evenodd"><path fill-rule="evenodd" fill="#949494" d="M24.357 101.06c2.047.012 3.828 1.582 4.002 3.526.201 2.229-1.199 4.132-3.324 4.506a3.944 3.944 0 0 1-.9.065c-.922-.046-1.555.63-1.559 1.428-.004.757.631 1.474 1.588 1.439 1.186-.043 2.219.375 3.055 1.222 1.611 1.63 1.582 4.129-.053 5.738-1.57 1.545-4.121 1.522-5.705-.05-1.318-1.31-1.569-3.274-.606-4.911.338-.575.465-1.151.099-1.737-.582-.933-1.871-.88-2.475.062-.295.461-.586.954-.985 1.313-1.211 1.082-2.641 1.249-4.115.684-1.488-.57-2.344-1.701-2.569-3.297-.297-2.103 1.306-4.43 3.889-4.511 1.64-.052 2.887.717 3.708 2.15.37.647.887.937 1.498.849 1.031-.15 1.555-1.143 1.116-2.09-.231-.498-.51-.993-.623-1.521a3.99 3.99 0 0 1 3.959-4.865z"/><circle fill="none" stroke="#949494" stroke-miterlimit="10" cx="21.055" cy="110.594" r="13.332"/></g><g clip-rule="evenodd"><path fill-rule="evenodd" fill="#FCFCFC" d="M24.357 13.185c2.047.012 3.828 1.582 4.002 3.526.201 2.229-1.199 4.132-3.324 4.506a3.944 3.944 0 0 1-.9.065c-.922-.046-1.555.63-1.559 1.428-.004.757.631 1.474 1.588 1.439 1.186-.043 2.219.375 3.055 1.222 1.611 1.63 1.582 4.129-.053 5.738-1.57 1.545-4.121 1.522-5.705-.05-1.318-1.31-1.569-3.274-.606-4.911.338-.575.465-1.151.099-1.737-.582-.933-1.871-.88-2.475.062-.295.461-.586.954-.985 1.313-1.211 1.082-2.641 1.249-4.115.684-1.488-.57-2.344-1.701-2.569-3.297-.297-2.103 1.306-4.43 3.889-4.511 1.64-.052 2.887.717 3.708 2.15.37.647.887.937 1.498.849 1.031-.15 1.555-1.143 1.116-2.09-.231-.498-.51-.993-.623-1.521a3.99 3.99 0 0 1 3.959-4.865z"/><circle fill="none" stroke="#FFF" stroke-miterlimit="10" cx="21.055" cy="22.719" r="13.332"/></g></svg>