<svg xmlns="http://www.w3.org/2000/svg" width="41" height="130.5"><path fill="#949494" d="M24.811 99.212c2.349.013 4.393 1.814 4.592 4.045.23 2.558-1.376 4.742-3.814 5.171-.338.061-.69.093-1.033.074-1.058-.052-1.784.723-1.788 1.639-.005.868.724 1.691 1.822 1.651 1.36-.05 2.546.431 3.505 1.402 1.85 1.87 1.815 4.738-.061 6.585-1.802 1.772-4.729 1.746-6.547-.059-1.513-1.502-1.8-3.756-.694-5.635.387-.66.533-1.321.112-1.993-.668-1.07-2.146-1.01-2.841.071-.338.528-.672 1.095-1.129 1.507-1.39 1.241-3.031 1.433-4.722.784-1.708-.653-2.69-1.95-2.947-3.783-.341-2.413 1.498-5.083 4.461-5.176 1.882-.061 3.313.822 4.255 2.468.424.741 1.018 1.074 1.718.973 1.183-.172 1.785-1.312 1.281-2.398-.266-.57-.584-1.139-.714-1.745a4.577 4.577 0 0 1 4.544-5.581z"/><path fill="#FCFCFC" d="M24.811 12.221c2.349.014 4.393 1.815 4.592 4.046.23 2.558-1.376 4.742-3.814 5.171-.338.061-.69.093-1.033.075-1.058-.053-1.784.723-1.788 1.639-.005.868.724 1.691 1.822 1.651 1.36-.049 2.546.431 3.505 1.402 1.85 1.871 1.815 4.738-.061 6.584-1.802 1.772-4.729 1.746-6.547-.058-1.513-1.503-1.8-3.756-.694-5.635.387-.66.533-1.321.112-1.993-.668-1.07-2.146-1.009-2.841.071-.338.529-.672 1.095-1.129 1.507-1.39 1.242-3.031 1.433-4.722.785-1.708-.654-2.69-1.952-2.947-3.783-.341-2.414 1.498-5.083 4.461-5.177 1.882-.06 3.313.823 4.255 2.467.424.742 1.018 1.075 1.718.974 1.183-.172 1.785-1.311 1.281-2.398-.266-.571-.584-1.139-.714-1.745a4.58 4.58 0 0 1 4.544-5.583z"/></svg>