<svg xmlns="http://www.w3.org/2000/svg" width="41" height="130.5"><path fill="#949494" d="M37.176 105.887c-.031.145-.054.289-.096.43-.309 1.033-.969 1.75-2.016 2-1.28.307-2.457-.205-3.074-1.26-.151-.26-.248-.555-.352-.84-.041-.109-.072-.174-.205-.188-.539-.045-1.078-.105-1.617-.156-.264-.025-.262-.02-.326.242a7.97 7.97 0 0 1-2.438 4.08c-.717.65-1.552 1.111-2.445 1.469-.258.104-.266.1-.207.373.109.523.225 1.049.345 1.57a.22.22 0 0 0 .126.133c.134.043.275.061.414.092a2.824 2.824 0 0 1 2.213 2.783c-.021 1.322-1.002 2.469-2.32 2.711-1.478.271-2.998-.822-3.219-2.312-.148-1.012.184-1.854.906-2.551.119-.115.271-.199.408-.293.098-.064.144-.133.111-.262a60.82 60.82 0 0 1-.365-1.6c-.032-.154-.14-.166-.258-.17-.367-.01-.736-.016-1.104-.021-2.696-.053-5.231-1.598-6.517-3.971-.093-.172-.194-.338-.284-.51-.048-.092-.103-.109-.201-.076-.887.295-1.774.588-2.664.873-.104.033-.115.1-.133.186-.081.385-.118.787-.264 1.146-.735 1.814-2.943 2.166-4.24 1.152-.601-.469-1.009-1.066-1.092-1.85-.002-.02-.016-.039-.023-.059v-.6c.022-.105.045-.215.069-.32a2.807 2.807 0 0 1 2.773-2.201c.736.012 1.368.297 1.898.805.129.125.243.264.373.387.036.035.113.062.157.049.929-.301 1.855-.609 2.782-.918.01-.002.018-.01.047-.027-.2-1.143-.275-2.297-.01-3.449a8.36 8.36 0 0 1 1.462-3.143c-.25-.254-.494-.506-.745-.748-.025-.025-.105-.004-.154.014-.292.102-.575.24-.875.305-1.487.309-2.939-.666-3.265-2.15-.361-1.652.834-3.082 2.18-3.326 1.568-.287 3.273.828 3.317 2.629.011.465-.055.912-.26 1.332-.06.121-.037.191.062.275.235.199.461.412.691.621 2.614-2.037 5.439-2.467 8.511-1.172.024-.039.056-.082.081-.127.527-.891 1.053-1.783 1.584-2.67.062-.105.059-.17-.02-.26-.473-.559-.719-1.205-.707-1.939.021-1.369 1.121-2.537 2.479-2.725 1.066-.146 2.543.418 3.002 1.918.376 1.23.025 2.414-1.111 3.188-.644.436-1.357.547-2.11.42-.128-.021-.198.002-.263.1-.131.203-.271.402-.396.609-.437.723-.87 1.451-1.317 2.197 2.064 1.609 3.162 3.719 3.227 6.355.374.041.723.082 1.072.119.234.025.472.037.707.066.172.02.279-.053.354-.199.163-.32.356-.619.631-.859.849-.738 1.839-.922 2.874-.559 1.018.355 1.611 1.139 1.805 2.209.006.035.02.068.028.104.004.19.004.379.004.569zm-10.365 2.388c1.877-2.256 1.85-5.832-.267-8.117-2.295-2.479-6.199-2.867-8.974-.295-2.332 2.162-2.568 5.959-.568 8.41.043-.121.092-.23.12-.348.107-.432.377-.701.799-.832.716-.223 1.39-.541 2.051-.889.059-.031.122-.053.195-.084l.059.18c.293.908.584 1.818.879 2.729.025.084.068.162.115.268.033-.053.049-.068.055-.088.104-.285.216-.568.31-.859a.362.362 0 0 0-.012-.232c-.091-.225-.197-.441-.296-.662a.361.361 0 0 1 .035-.359c.178-.277.67-.365 1.019-.186.254.131.31.377.164.742-.009.025-.015.055-.031.072-.313.365-.237.744-.05 1.131.05.105.081.219.123.324.018.041.041.078.072.139.033-.084.058-.143.076-.201.305-.93.605-1.857.91-2.785.062-.189.065-.193.25-.115.734.311 1.469.625 2.201.938.33.141.547.381.646.727.038.123.076.246.119.392z"/><path fill="#949494" d="M21.734 99.609c.59.018 1.102.188 1.525.604.119.117.25.23.395.312.276.158.396.4.416.699.022.34.02.684.041 1.023.018.238.062.475.086.713.012.109.025.227-.004.33-.082.291-.178.58-.291.859-.037.092-.152.146-.224.229a.67.67 0 0 0-.112.18c-.096.227-.174.461-.277.684-.434.922-1.5 1.117-2.248.852-.613-.219-.969-.668-1.191-1.258-.1-.266-.229-.518-.353-.771a2.686 2.686 0 0 1-.289-.99c-.011-.145 0-.277.123-.391.049-.043.062-.143.067-.217.015-.205.028-.41.021-.615-.017-.422.14-.781.382-1.109a2.892 2.892 0 0 1 1.275-.998c.205-.081.438-.093.658-.136z"/><path fill="#FFF" d="M37.176 24.742c-.031.144-.054.289-.096.43-.309 1.032-.969 1.749-2.016 1.999-1.28.307-2.457-.205-3.074-1.259-.151-.261-.248-.555-.352-.84-.041-.11-.072-.175-.205-.187-.539-.046-1.078-.107-1.617-.158-.264-.024-.262-.019-.326.242a7.97 7.97 0 0 1-2.438 4.081c-.717.651-1.552 1.111-2.445 1.469-.258.103-.266.099-.207.373.109.524.225 1.048.345 1.57a.219.219 0 0 0 .126.132c.134.043.275.062.414.093a2.823 2.823 0 0 1 2.213 2.782c-.021 1.323-1.002 2.47-2.32 2.712-1.478.271-2.998-.822-3.219-2.313-.148-1.011.184-1.853.906-2.551.119-.115.271-.199.408-.293.098-.064.144-.133.111-.262-.129-.53-.25-1.062-.365-1.598-.032-.154-.14-.167-.258-.171-.367-.01-.736-.016-1.104-.022-2.696-.051-5.231-1.597-6.517-3.97-.093-.171-.194-.338-.284-.51-.048-.091-.103-.108-.201-.076-.887.295-1.774.588-2.664.874-.104.033-.115.098-.133.184-.081.385-.118.788-.264 1.147-.735 1.815-2.943 2.166-4.24 1.153-.601-.469-1.009-1.067-1.092-1.85-.002-.02-.016-.038-.023-.058v-.6c.022-.106.045-.214.069-.32a2.809 2.809 0 0 1 2.773-2.202c.736.012 1.368.297 1.898.806.129.124.243.263.373.386.036.034.113.063.157.049.929-.302 1.855-.61 2.782-.918.01-.003.018-.011.047-.028-.2-1.142-.275-2.296-.01-3.449a8.34 8.34 0 0 1 1.462-3.142c-.25-.254-.494-.506-.745-.749-.025-.024-.105-.003-.154.014-.292.101-.575.241-.875.304-1.487.31-2.939-.665-3.265-2.149-.361-1.653.834-3.082 2.18-3.327 1.568-.287 3.273.829 3.317 2.629.011.465-.055.912-.26 1.332-.06.121-.037.191.062.275.235.2.461.413.691.621 2.614-2.037 5.439-2.466 8.511-1.171.024-.04.056-.082.081-.127.527-.891 1.053-1.783 1.584-2.671.062-.104.059-.169-.02-.259-.473-.559-.719-1.205-.707-1.94.021-1.368 1.121-2.537 2.479-2.724 1.066-.146 2.543.418 3.002 1.918.376 1.231.025 2.415-1.111 3.188-.644.436-1.357.546-2.11.419-.128-.021-.198.003-.263.101-.131.203-.271.401-.396.608-.437.724-.87 1.451-1.317 2.198 2.064 1.61 3.162 3.719 3.227 6.355.374.042.723.083 1.072.12.234.024.472.037.707.065.172.021.279-.051.354-.198.163-.32.356-.62.631-.859.849-.739 1.839-.923 2.874-.56 1.018.356 1.611 1.139 1.805 2.21.006.035.02.068.028.103.004.189.004.378.004.569zM26.811 27.13c1.877-2.256 1.85-5.833-.267-8.118-2.295-2.479-6.199-2.867-8.974-.295-2.332 2.163-2.568 5.959-.568 8.41.043-.121.092-.231.12-.347.107-.433.377-.702.799-.833.716-.222 1.39-.541 2.051-.888.059-.031.122-.053.195-.084l.059.179c.293.909.584 1.819.879 2.729.025.084.068.163.115.268.033-.054.049-.069.055-.088.104-.285.216-.569.31-.859a.368.368 0 0 0-.012-.234c-.091-.224-.197-.44-.296-.661a.363.363 0 0 1 .035-.36c.178-.276.67-.365 1.019-.186.254.131.31.378.164.744-.009.024-.015.053-.031.072-.313.364-.237.744-.05 1.131.05.104.081.217.123.324.018.04.041.077.072.138.033-.084.058-.142.076-.201.305-.929.605-1.857.91-2.786.062-.189.065-.193.25-.115l2.201.938c.33.141.547.381.646.727.038.124.076.248.119.395z"/><path fill="#FFF" d="M21.734 18.463c.59.017 1.102.188 1.525.604.119.117.25.23.395.312.276.158.396.401.416.699.022.341.02.684.041 1.024.018.238.062.475.086.713.012.109.025.227-.004.329a8.36 8.36 0 0 1-.291.86c-.037.091-.152.147-.224.229a.65.65 0 0 0-.112.179c-.096.227-.174.462-.277.684-.434.921-1.5 1.118-2.248.852-.613-.219-.969-.669-1.191-1.259-.1-.264-.229-.516-.353-.77a2.701 2.701 0 0 1-.289-.992c-.011-.144 0-.277.123-.389.049-.044.062-.143.067-.218.015-.204.028-.41.021-.615-.017-.422.14-.781.382-1.11.332-.45.757-.792 1.275-.997.205-.079.438-.092.658-.135z"/></svg>