<svg xmlns="http://www.w3.org/2000/svg" width="41" height="130.5"><path fill-rule="evenodd" clip-rule="evenodd" fill="#949494" d="M36.511 109.678c-.031.144-.053.289-.095.43-.308 1.032-.969 1.749-2.015 1.999-1.281.307-2.458-.205-3.075-1.259-.151-.261-.248-.555-.352-.84-.04-.11-.072-.175-.204-.187-.54-.046-1.078-.107-1.617-.158-.265-.024-.263-.019-.327.242a7.981 7.981 0 0 1-2.437 4.081c-.717.651-1.552 1.111-2.446 1.469-.258.103-.265.099-.207.373.11.524.225 1.048.345 1.57a.219.219 0 0 0 .126.132c.134.043.276.062.414.093a2.822 2.822 0 0 1 2.213 2.782c-.021 1.323-1.002 2.47-2.32 2.712-1.478.271-2.999-.822-3.219-2.313-.149-1.011.184-1.853.906-2.551.119-.115.271-.199.409-.293.097-.064.143-.133.111-.262-.129-.53-.25-1.063-.365-1.598-.033-.154-.14-.167-.258-.171-.368-.01-.736-.016-1.104-.022-2.696-.051-5.231-1.597-6.517-3.97-.093-.171-.194-.338-.284-.51-.048-.091-.103-.108-.201-.076-.887.295-1.774.588-2.664.874-.104.033-.115.098-.133.184-.081.385-.118.788-.264 1.147-.735 1.815-2.943 2.166-4.24 1.153-.601-.469-1.009-1.067-1.092-1.85-.002-.02-.016-.038-.023-.058v-.6c.022-.106.045-.214.069-.32a2.809 2.809 0 0 1 2.773-2.202c.736.012 1.368.297 1.898.806.129.124.243.263.373.386.036.034.113.063.157.049.929-.302 1.855-.61 2.782-.918.01-.003.018-.011.047-.028-.2-1.142-.275-2.296-.01-3.449a8.34 8.34 0 0 1 1.462-3.142c-.25-.254-.494-.506-.745-.749-.025-.024-.105-.003-.154.014-.292.101-.575.241-.875.304-1.487.31-2.939-.665-3.265-2.149-.361-1.653.834-3.082 2.18-3.327 1.568-.287 3.273.829 3.317 2.629.011.465-.055.912-.26 1.332-.06.121-.037.191.062.275.235.2.461.413.691.621 2.614-2.037 5.439-2.466 8.511-1.171.025-.04.055-.082.081-.127.527-.891 1.052-1.783 1.584-2.671.062-.104.058-.169-.019-.259a2.852 2.852 0 0 1-.708-1.94c.022-1.368 1.122-2.537 2.479-2.724 1.066-.146 2.543.418 3.002 1.918.376 1.231.025 2.415-1.112 3.188-.643.436-1.357.546-2.11.419-.128-.021-.198.003-.262.101-.132.203-.271.401-.396.608-.437.724-.87 1.451-1.317 2.198 2.064 1.61 3.162 3.719 3.226 6.355.374.042.723.083 1.072.12.235.024.472.037.707.065.173.021.28-.051.355-.198.163-.32.357-.62.631-.859.849-.739 1.839-.923 2.874-.56 1.017.356 1.611 1.139 1.804 2.21.006.035.02.068.029.103.002.19.002.379.002.569zm-10.364 2.389c1.877-2.256 1.849-5.833-.267-8.118-2.295-2.479-6.199-2.867-8.974-.295-2.332 2.163-2.568 5.959-.568 8.41.043-.121.092-.231.12-.347.107-.433.377-.702.799-.833.716-.222 1.39-.541 2.051-.888.059-.031.122-.053.195-.084l.059.179c.293.909.584 1.819.879 2.729.026.084.069.163.115.268.034-.054.049-.069.056-.088.104-.285.215-.569.309-.859a.368.368 0 0 0-.012-.234c-.09-.224-.197-.44-.295-.661a.36.36 0 0 1 .034-.36c.178-.276.67-.365 1.019-.186.254.131.309.378.164.744-.009.024-.015.053-.031.072-.313.364-.238.744-.05 1.131.05.104.081.217.123.324.017.04.041.077.073.138.032-.084.057-.142.076-.201l.909-2.786c.062-.189.066-.193.251-.115l2.201.938c.33.141.547.381.647.727l.117.395z"/><path fill-rule="evenodd" clip-rule="evenodd" fill="#949494" d="M21.262 103.4c.589.017 1.102.188 1.525.604.119.117.25.23.394.312.277.158.396.401.416.699.023.341.02.684.042 1.024.017.238.062.475.086.713.011.109.025.227-.004.329-.083.291-.178.58-.291.86-.037.091-.152.147-.224.229a.65.65 0 0 0-.112.179c-.096.227-.174.462-.278.684-.433.921-1.499 1.118-2.247.852-.614-.219-.97-.669-1.192-1.259-.1-.264-.229-.516-.353-.77a2.701 2.701 0 0 1-.289-.992c-.011-.144 0-.277.123-.389.049-.044.062-.143.067-.218.015-.204.028-.41.021-.615-.017-.422.14-.781.382-1.11.332-.45.757-.792 1.276-.997.205-.08.437-.092.658-.135z"/><path fill-rule="evenodd" clip-rule="evenodd" fill="#FFF" d="M36.511 28.532c-.031.144-.053.289-.095.43-.308 1.032-.969 1.749-2.015 1.999-1.281.307-2.458-.205-3.075-1.259-.151-.261-.248-.555-.352-.84-.04-.11-.072-.175-.204-.187-.54-.046-1.078-.107-1.617-.158-.265-.024-.263-.019-.327.242a7.981 7.981 0 0 1-2.437 4.081c-.717.651-1.552 1.111-2.446 1.469-.258.103-.265.099-.207.373.11.524.225 1.048.345 1.57a.219.219 0 0 0 .126.132c.134.043.276.062.414.093a2.822 2.822 0 0 1 2.213 2.782c-.021 1.323-1.002 2.47-2.32 2.712-1.478.271-2.999-.822-3.219-2.313-.149-1.011.184-1.853.906-2.551.119-.115.271-.199.409-.293.097-.064.143-.133.111-.262-.129-.53-.25-1.063-.365-1.598-.033-.154-.14-.167-.258-.171-.368-.01-.736-.016-1.104-.022-2.696-.051-5.231-1.597-6.517-3.97-.093-.171-.194-.338-.284-.51-.048-.091-.103-.108-.201-.076-.887.295-1.774.588-2.664.874-.104.033-.115.098-.133.184-.081.385-.118.788-.264 1.147-.735 1.815-2.943 2.166-4.24 1.153-.601-.469-1.009-1.067-1.092-1.85-.002-.02-.016-.038-.023-.058v-.6c.022-.106.045-.214.069-.32a2.809 2.809 0 0 1 2.773-2.202c.736.012 1.368.297 1.898.806.129.124.243.263.373.386.036.034.113.063.157.049.929-.302 1.855-.61 2.782-.918.01-.003.018-.011.047-.028-.2-1.142-.275-2.296-.01-3.449a8.34 8.34 0 0 1 1.462-3.142c-.25-.254-.494-.506-.745-.749-.025-.024-.105-.003-.154.014-.292.101-.575.241-.875.304-1.487.31-2.939-.665-3.265-2.149-.361-1.653.834-3.082 2.18-3.327 1.568-.287 3.273.829 3.317 2.629.011.465-.055.912-.26 1.332-.06.121-.037.191.062.275.235.2.461.413.691.621 2.614-2.037 5.439-2.466 8.511-1.171.025-.04.055-.082.081-.127.527-.891 1.052-1.783 1.584-2.671.062-.104.058-.169-.019-.259a2.852 2.852 0 0 1-.708-1.94c.022-1.368 1.122-2.537 2.479-2.724 1.066-.146 2.543.418 3.002 1.918.376 1.231.025 2.415-1.112 3.188-.643.436-1.357.546-2.11.419-.128-.021-.198.003-.262.101-.132.203-.271.401-.396.608-.437.724-.87 1.451-1.317 2.198 2.064 1.61 3.162 3.719 3.226 6.355.374.042.723.083 1.072.12.235.024.472.037.707.065.173.021.28-.051.355-.198.163-.32.357-.62.631-.859.849-.739 1.839-.923 2.874-.56 1.017.356 1.611 1.139 1.804 2.21.006.035.02.068.029.103.002.19.002.379.002.569zm-10.364 2.389c1.877-2.256 1.849-5.833-.267-8.118-2.295-2.479-6.199-2.867-8.974-.295-2.332 2.163-2.568 5.959-.568 8.41.043-.121.092-.231.12-.347.107-.433.377-.702.799-.833.716-.222 1.39-.541 2.051-.888.059-.031.122-.053.195-.084l.059.179c.293.909.584 1.819.879 2.729.026.084.069.163.115.268.034-.054.049-.069.056-.088.104-.285.215-.569.309-.859a.368.368 0 0 0-.012-.234c-.09-.224-.197-.44-.295-.661a.36.36 0 0 1 .034-.36c.178-.276.67-.365 1.019-.186.254.131.309.378.164.744-.009.024-.015.053-.031.072-.313.364-.238.744-.05 1.131.05.104.081.217.123.324.017.04.041.077.073.138.032-.084.057-.142.076-.201l.909-2.786c.062-.189.066-.193.251-.115l2.201.938c.33.141.547.381.647.727l.117.395z"/><path fill-rule="evenodd" clip-rule="evenodd" fill="#FFF" d="M21.262 22.254c.589.017 1.102.188 1.525.604.119.117.25.23.394.312.277.158.396.401.416.699.023.341.02.684.042 1.024.017.238.062.475.086.713.011.109.025.227-.004.329-.083.291-.178.58-.291.86-.037.091-.152.147-.224.229a.65.65 0 0 0-.112.179c-.096.227-.174.462-.278.684-.433.921-1.499 1.118-2.247.852-.614-.219-.97-.669-1.192-1.259-.1-.264-.229-.516-.353-.77a2.701 2.701 0 0 1-.289-.992c-.011-.144 0-.277.123-.389.049-.044.062-.143.067-.218.015-.204.028-.41.021-.615-.017-.422.14-.781.382-1.11.332-.45.757-.792 1.276-.997.205-.08.437-.092.658-.135z"/></svg>