<svg xmlns="http://www.w3.org/2000/svg" width="41" height="130.5"><path fill="none" stroke="#949494" stroke-width=".481" stroke-miterlimit="10" d="M20.468 118.182l-3.768-8.578-4.005-8.564 6.804-2.112 7.561 1.144-3.355 9.09z"/><path fill="#949494" d="M19.531 99.281l-6.297 1.953 7.736 1.32 5.592-2.226zM21.011 102.693l-.602 14.539 6.103-16.663z"/><g><path fill="#FFF" stroke="#FFF" stroke-width=".524" stroke-miterlimit="10" d="M20.601 41.717l-3.77-8.578-4.004-8.563 6.805-2.112 7.559 1.145-3.353 9.087z"/><path fill="#333" d="M19.803 22.805l-6.129 1.889 7.431 1.393 5.26-2.122z"/><path fill="#2D2D2D" d="M21.143 26.228l-.518 13.673 5.648-15.692z"/><path fill="#00B994" d="M21.248 24.111l-.062-.012-11.593-1.984 9.827-2.894 10.518 1.829-8.69 3.061zm-9.555-2.118l9.511 1.628 6.856-2.414-8.614-1.498-7.753 2.284z"/><g fill="#00B994"><path opacity=".5" stroke="#00B994" stroke-width=".475" stroke-miterlimit="10" d="M19.171 19.513l-8.354 2.453L21.4 23.778l7.773-2.735z"/><circle cx="9.685" cy="22.079" r=".787"/><circle cx="30.057" cy="21.078" r=".787"/><circle cx="21.548" cy="23.885" r=".939"/><circle cx="19.384" cy="19.429" r=".786"/></g></g></svg>