<svg xmlns="http://www.w3.org/2000/svg" width="41" height="130.5"><path fill="none" stroke="#949494" stroke-width=".85" stroke-miterlimit="10" d="M20.869 125.307l-6.658-15.159-7.076-15.132 12.023-3.731 13.36 2.023-5.926 16.059z"/><path fill="#333" d="M19.393 91.676L7.806 95.31l13.954 2.378 10.104-4.012z"/><path fill="#2D2D2D" d="M21.829 97.936l-.991 26.047 10.958-30.021z"/><g fill="#818284" stroke="#818284" stroke-width=".7" stroke-miterlimit="10"><path opacity=".5" d="M18.801 91.383L7.75 94.843l14.146 2.422 10.389-3.658z"/><circle cx="6.939" cy="94.81" r=".946"/><circle cx="32.991" cy="93.539" r=".945"/><circle cx="22.083" cy="97.457" r="1.128"/><circle cx="18.801" cy="91.421" r=".945"/></g><g><path fill="#FFF" stroke="#FFF" stroke-width=".925" stroke-miterlimit="10" d="M21.102 46.651l-6.657-15.158-7.076-15.134 12.024-3.731 13.358 2.024-5.926 16.06z"/><path fill="#333" d="M19.692 13.231L8.861 16.568l13.131 2.465 9.299-3.752z"/><path fill="#2D2D2D" d="M22.062 19.279l-.914 24.164 9.982-27.73z"/><path fill="#00B994" d="M22.247 17.136l-.108-.019-20.487-3.506 17.365-5.114 18.585 3.233-15.355 5.406zM5.363 13.394l16.81 2.877 12.116-4.264-15.223-2.648-13.703 4.035z"/><g fill="#00B994"><path opacity=".5" stroke="#00B994" stroke-width=".84" stroke-miterlimit="10" d="M18.577 9.011L3.816 13.348l18.703 3.201 13.735-4.835z"/><circle cx="2.743" cy="13.304" r="1.25"/><circle cx="37.188" cy="11.624" r="1.25"/><circle cx="22.766" cy="16.805" r="1.492"/><circle cx="18.425" cy="8.824" r="1.25"/></g></g></svg>