<svg xmlns="http://www.w3.org/2000/svg" width="41" height="130.5"><g fill="#949494"><path d="M22.731 122.105h-.081c-.025-.007-.051-.018-.077-.021-.856-.117-1.714-.234-2.57-.353-.917-.125-1.835-.253-2.752-.379l-2.46-.334-2.772-.381c-.359-.05-.717-.1-1.078-.148v-16.774l11.789-1.574v1.67h6.07c.777 0 1.331.55 1.332 1.323l-.001 13.923c0 .081-.001.164-.015.244-.113.65-.632 1.085-1.302 1.085-1.986.002-3.973.001-5.959.001h-.123l-.001 1.718zm.005-17.561v3.569h5.523v8.496h-5.53v2.903c0 .144 0 .144.142.144h5.928c.376 0 .601-.224.601-.603.001-4.638.001-9.273-.001-13.911a.717.717 0 0 0-.02-.191c-.068-.262-.279-.406-.584-.406h-5.927l-.132-.001zm-.003 6.98c.388-.104.606-.554.469-.956-.021-.062-.017-.104.034-.151.111-.104.219-.213.324-.323.042-.044.08-.057.142-.036a.746.746 0 0 0 .94-.391c.026-.053.055-.077.114-.076.16.003.319.003.479 0 .06-.001.092.019.118.072.185.372.548.521.947.397.037-.011.096 0 .122.025.122.11.236.226.347.346a.146.146 0 0 1 .025.122c-.122.401.025.759.396.952a.164.164 0 0 1 .076.111c.009.163.007.326.001.488a.148.148 0 0 1-.063.101c-.39.213-.527.545-.401.965.01.034-.009.08-.026.115-.019.038-.052.069-.079.105l-.017-.044c-.094-.001-.188-.007-.28 0-.079.007-.127-.02-.164-.088-.102-.196-.578-.225-.709-.046a.246.246 0 0 0-.025.045c-.04.086-.105.103-.193.078-.192-.052-.54.23-.533.432a.27.27 0 0 0 .012.069c.034.139.012.178-.128.221-.004-.006-.01-.011-.012-.016a.767.767 0 0 0-.965-.386c-.03.013-.085-.009-.111-.033-.109-.102-.211-.212-.319-.314-.056-.052-.072-.096-.044-.175a.747.747 0 0 0-.473-.951v3.991h5.084v-7.629h-5.086c-.002.999-.002 1.99-.002 2.98zm-1.883-.473l.215-.738c-.012-.011-.016-.019-.021-.021l-.076-.028a2.906 2.906 0 0 0-1.115-.128c-.346.023-.675.11-.97.303-.633.415-.775 1.359-.007 1.847.196.124.418.205.628.306.177.085.363.154.528.258a.38.38 0 0 1 .145.507c-.079.149-.22.205-.375.233a1.648 1.648 0 0 1-.745-.054c-.191-.052-.376-.124-.572-.191-.057.223-.116.447-.168.674-.005.022.025.07.05.08.131.055.263.111.399.148.551.149 1.104.185 1.654-.003.591-.202.908-.705.821-1.291-.058-.396-.296-.665-.634-.846-.208-.111-.434-.189-.651-.284-.158-.069-.318-.136-.47-.216a.323.323 0 0 1-.181-.288c-.003-.168.101-.3.297-.367.208-.072.422-.068.634-.036.202.03.4.087.614.135zm-4.796 3.096l.849.038v-.12c0-.469-.001-.937.002-1.405a.37.37 0 0 1 .045-.172c.388-.699.78-1.396 1.171-2.095.021-.037.04-.076.068-.13-.329.014-.64.023-.95.041-.027.001-.063.045-.076.076-.207.508-.41 1.018-.614 1.527-.009.023-.021.045-.034.071l-.668-1.627-.92.036c.022.046.036.079.053.111.344.67.69 1.338 1.031 2.008a.387.387 0 0 1 .042.173c.003.448.002.896.002 1.344l-.001.124zm-3.481-.972c-.043.19-.079.37-.126.547-.023.086.004.124.083.161.39.178.797.237 1.22.173.482-.073.829-.388.913-.821.096-.494-.078-.9-.514-1.161-.153-.093-.324-.154-.484-.234-.115-.057-.235-.108-.337-.186a.31.31 0 0 1 .055-.541.786.786 0 0 1 .284-.066 1.49 1.49 0 0 1 .707.15l.171-.663c-.013-.01-.021-.018-.029-.021-.472-.18-.947-.208-1.416-.003-.383.168-.595.474-.627.892-.03.399.146.704.478.914.156.1.333.166.497.253.111.058.228.111.321.191.231.2.154.54-.139.625a.947.947 0 0 1-.271.028c-.278-.008-.532-.1-.786-.238zm13.55-1.318a1.125 1.125 0 1 0-2.25-.002 1.125 1.125 0 0 0 2.25.002z"/><path fill-rule="evenodd" clip-rule="evenodd" d="M26.709 113.687c-.059.221 0 .372.183.476.019.011.032.041.036.064.005.043-.003.088.003.132.007.076-.011.127-.087.172a.317.317 0 0 0-.143.37c.022.074 0 .118-.052.155-.061.043-.085.146-.182.122-.195-.047-.339.011-.441.183-.013.021-.045.036-.07.041-.04.007-.081-.001-.122.002-.079.008-.134-.007-.181-.088a.323.323 0 0 0-.371-.145c-.061.017-.098.006-.142-.037-.088-.083-.158-.153-.122-.3.032-.126-.043-.246-.162-.313-.062-.034-.079-.073-.073-.138a.515.515 0 0 0 0-.111c-.006-.064.014-.102.075-.138a.33.33 0 0 0 .155-.375c-.021-.073.001-.114.05-.156a.655.655 0 0 0 .079-.079c.036-.043.07-.055.132-.041.167.043.302-.022.401-.166a.181.181 0 0 1 .103-.059.384.384 0 0 1 .151 0 .179.179 0 0 1 .104.057c.1.145.235.211.402.168.06-.016.094-.005.132.037.036.04.077.076.113.116.017.017.025.043.029.051zm-.327.648a.53.53 0 0 0-.52-.541.533.533 0 1 0-.014 1.065.525.525 0 0 0 .534-.524z"/></g><g fill="#FFF"><path d="M22.731 33.48h-.081c-.025-.007-.051-.018-.077-.021-.856-.117-1.714-.234-2.57-.353-.917-.125-1.835-.253-2.752-.379l-2.46-.334-2.772-.381c-.359-.05-.717-.1-1.078-.148V15.09l11.789-1.574v1.67h6.07c.777 0 1.331.55 1.332 1.323l-.001 13.923c0 .081-.001.164-.015.244-.113.65-.632 1.085-1.302 1.085-1.986.002-3.973.001-5.959.001h-.123l-.001 1.718zm.005-17.561v3.569h5.523v8.496h-5.53v2.903c0 .144 0 .144.142.144h5.928c.376 0 .601-.224.601-.603.001-4.638.001-9.273-.001-13.911a.717.717 0 0 0-.02-.191c-.068-.262-.279-.406-.584-.406h-5.927l-.132-.001zm-.003 6.98c.388-.104.606-.554.469-.956-.021-.062-.017-.104.034-.151.111-.104.219-.213.324-.323.042-.044.08-.057.142-.036a.746.746 0 0 0 .94-.391c.026-.053.055-.077.114-.076.16.003.319.003.479 0 .06-.001.092.019.118.072.185.372.548.521.947.397.037-.011.096 0 .122.025.122.11.236.226.347.346a.146.146 0 0 1 .025.122c-.122.401.025.759.396.952a.164.164 0 0 1 .076.111c.009.163.007.326.001.488a.148.148 0 0 1-.063.101c-.39.213-.527.545-.401.965.01.034-.009.08-.026.115-.019.038-.052.069-.079.105l-.017-.044c-.094-.001-.188-.007-.28 0-.079.007-.127-.02-.164-.088-.102-.196-.578-.225-.709-.046a.246.246 0 0 0-.025.045c-.04.086-.105.103-.193.078-.192-.052-.54.23-.533.432a.27.27 0 0 0 .012.069c.034.139.012.178-.128.221-.004-.006-.01-.011-.012-.016a.767.767 0 0 0-.965-.386c-.03.013-.085-.009-.111-.033-.109-.102-.211-.212-.319-.314-.056-.052-.072-.096-.044-.175a.747.747 0 0 0-.473-.951v3.991h5.084v-7.629h-5.086c-.002.999-.002 1.99-.002 2.98zm-1.883-.473l.215-.738c-.012-.011-.016-.019-.021-.021l-.076-.028a2.906 2.906 0 0 0-1.115-.128c-.346.023-.675.11-.97.303-.633.415-.775 1.359-.007 1.847.196.124.418.205.628.306.177.085.363.154.528.258a.38.38 0 0 1 .145.507c-.079.149-.22.205-.375.233a1.648 1.648 0 0 1-.745-.054c-.191-.052-.376-.124-.572-.191-.057.223-.116.447-.168.674-.005.022.025.07.05.08.131.055.263.111.399.148.551.149 1.104.185 1.654-.003.591-.202.908-.705.821-1.291-.058-.396-.296-.665-.634-.846-.208-.111-.434-.189-.651-.284-.158-.069-.318-.136-.47-.216a.323.323 0 0 1-.181-.288c-.003-.168.101-.3.297-.367.208-.072.422-.068.634-.036.202.03.4.087.614.135zm-4.796 3.096l.849.038v-.12c0-.469-.001-.937.002-1.405a.37.37 0 0 1 .045-.172c.388-.699.78-1.396 1.171-2.095.021-.037.04-.076.068-.13-.329.014-.64.023-.95.041-.027.001-.063.045-.076.076-.207.508-.41 1.018-.614 1.527-.009.023-.021.045-.034.071l-.668-1.627-.92.036c.022.046.036.079.053.111.344.67.69 1.338 1.031 2.008a.387.387 0 0 1 .042.173c.003.448.002.896.002 1.344l-.001.124zm-3.481-.972c-.043.19-.079.37-.126.547-.023.086.004.124.083.161.39.178.797.237 1.22.173.482-.073.829-.388.913-.821.096-.494-.078-.9-.514-1.161-.153-.093-.324-.154-.484-.234-.115-.057-.235-.108-.337-.186a.31.31 0 0 1 .055-.541.786.786 0 0 1 .284-.066 1.49 1.49 0 0 1 .707.15l.171-.663c-.013-.01-.021-.018-.029-.021-.472-.18-.947-.208-1.416-.003-.383.168-.595.474-.627.892-.03.399.146.704.478.914.156.1.333.166.497.253.111.058.228.111.321.191.231.2.154.54-.139.625a.947.947 0 0 1-.271.028c-.278-.008-.532-.1-.786-.238zm13.55-1.318a1.125 1.125 0 1 0-2.25-.002 1.125 1.125 0 0 0 2.25.002z"/><path fill-rule="evenodd" clip-rule="evenodd" d="M26.709 25.062c-.059.221 0 .372.183.476.019.011.032.041.036.064.005.043-.003.088.003.132.007.076-.011.127-.087.172a.317.317 0 0 0-.143.37c.022.074 0 .118-.052.155-.061.043-.085.146-.182.122-.195-.047-.339.011-.441.183-.013.021-.045.036-.07.041-.04.007-.081-.001-.122.002-.079.008-.134-.007-.181-.088a.323.323 0 0 0-.371-.145c-.061.017-.098.006-.142-.037-.088-.083-.158-.153-.122-.3.032-.126-.043-.246-.162-.313-.062-.034-.079-.073-.073-.138a.515.515 0 0 0 0-.111c-.006-.064.014-.102.075-.138a.33.33 0 0 0 .155-.375c-.021-.073.001-.114.05-.156a.655.655 0 0 0 .079-.079c.036-.043.07-.055.132-.041.167.043.302-.022.401-.166a.181.181 0 0 1 .103-.059.384.384 0 0 1 .151 0 .179.179 0 0 1 .104.057c.1.145.235.211.402.168.06-.016.094-.005.132.037.036.04.077.076.113.116.017.017.025.043.029.051zm-.327.648a.53.53 0 0 0-.52-.541.533.533 0 1 0-.014 1.065.525.525 0 0 0 .534-.524z"/></g></svg>