<svg xmlns="http://www.w3.org/2000/svg" width="512" height="512"><path fill="#E2E2E2" d="M256.001 8.257C119.177 8.257 8.258 119.177 8.258 256c0 136.824 110.919 247.74 247.743 247.74 136.823 0 247.744-110.916 247.744-247.74 0-136.823-110.921-247.743-247.744-247.743zm103.775 351.887c.072-1.561.12-3.12.12-4.697 0-56.978-46.187-103.163-103.163-103.163-56.977 0-103.164 46.185-103.164 103.163 0 2.07.08 4.121.2 6.162-27.615-26.73-44.832-64.142-44.832-105.608 0-81.216 65.848-147.063 147.068-147.063 81.211 0 147.058 65.847 147.058 147.063 0 40.704-16.555 77.519-43.287 104.143z"/><g fill-rule="evenodd" clip-rule="evenodd"><path fill="#FF000D" d="M402.573 316.985c-1.091 2.46-.12 4.897.338 7.228 4.837 24.586 3.243 48.695-4.514 72.519-8.11 24.892-22.116 45.872-41.322 63.466-8.969 8.214-18.996 14.966-29.785 20.582-.658.347-1.309.805-2.131.606.414-.372.779-.832 1.248-1.102 7.799-4.445 15.286-9.35 22.105-15.2 3.615-3.103 7.574-5.867 10.307-9.906.345-.034.562-.215.598-.579.164-.165.337-.32.511-.478.642-.156 1.048-.538 1.1-1.222.408-.157.996-.338.572-.874-.39-.486-.779-.079-1.03.338-.529.226-1.059.448-1.18 1.098-.174.209-.354.417-.529.615-.181.202-.363.4-.544.599-.824.582-1.743 1.077-2.473 1.778-7.271 6.994-15.426 12.844-24.143 17.834-15.513 8.883-32.195 14.533-49.899 17.272-21.623 3.337-42.819 1.317-63.863-4.142-4.472-1.162-8.102-3.891-12.237-5.652-1.967-.831-4-2.288-6.073-1.819-1.613.366-2.679.018-3.97-.563-15.185-6.864-27.741-17.149-38.435-29.77-1.579-1.863-4.248-2.944-4.759-5.952 2.66-.113 4.862 1.18 7.228 1.524 6.457.955 12.801-.233 19.11-1.412 1.344-.25 2.323-.51 3.623.469 8.146 6.118 17.731 9.55 26.884 13.7 6.125 2.782 12.763 4.611 19.438 5.877 5.623 1.073 11.335 1.734 17.003 2.582-2.73-1.196-5.547-1.89-8.398-2.322-9.488-1.413-18.512-4.567-27.474-7.73-6.385-2.262-12.459-5.47-18.492-8.605-3.12-1.631-6.595-3.094-8.45-6.448-7.148-12.87-12.853-26.302-16.396-40.653-5.043-20.427-6.552-41.036-4.185-61.947 1.282-11.415 3.63-22.583 6.898-33.591 4.411-14.88 10.72-28.884 18.841-42.093.719-1.151 1.655-1.933 2.929-2.53 10.01-4.724 20.158-9.03 30.886-11.96 9.151-2.503 18.408-4.401 27.812-5.208 10.336-.884 20.685-1.213 31.136-.113 10.08 1.058 19.802 3.241 29.38 6.196 10.503 3.25 20.59 7.6 30.062 13.285 1.379.824 2.186.736 3.58-.536 1.646-1.498.347-2.931.822-4.316.91-2.677 2.037-5.426 2.201-8.189.236-4.091.85-8.675-3.439-11.423-5.443-3.484-10.885-7.01-16.555-10.104-15.945-8.701-33.104-13.762-51.051-16.163-14.839-1.977-29.605-1.196-44.336 1.352-4.011.693-7.766 2.305-11.692 3.007-3.985.711-7.643 2.313-11.421 3.485-4.568 1.412-8.978 3.414-13.304 5.598-5.709 2.894-11.549 5.521-16.898 9.091-5.167 3.448-10.426 6.786-15.105 10.859-6.075 5.295-11.577 11.214-16.777 17.375-7.697 9.11-14.888 18.565-20.063 29.406-1.629 3.413-3.172 6.924-5.747 9.801 5.392-16.985 15.696-31.189 27.542-43.886 26.363-28.261 59.132-44.77 97.816-47.847 39.96-3.18 75.716 8.458 106.907 33.599 7.245 5.843 14.118 12.263 19.118 20.323-5.426-5.253-10.287-11.094-16.735-15.322-.719 1.3 0 2.124.294 2.955 1.468 4.169 1.822 8.502 2.021 12.854.045.839.295 1.958-.406 2.434-1.786 1.23-.574 1.942.267 2.816.452.478.869.997 1.259 1.534 9.169 12.523 15.2 26.676 19.896 41.26 5.472 16.979 7.281 34.605 5.851 52.448-.91 11.346-2.426 22.672-6.204 33.42-3.753 10.676-8.572 20.972-13.788 31.05-1.474 2.834-1.151 3.856 1.915 4.638 1.265.329 2.6.329 3.708-.157-1.266 2.228.305 4.237 1.57 5.339 1.377 1.204 2.166-1.085 3.032-2.036 10.635-11.596 16.353-25.886 21.988-40.212 4.288-10.918 5.597-22.49 7.14-33.989 1.689-12.603.068-25.098-2.01-37.518-.852-5.078-2.264-10.068-3.434-15.096-.008-.051-.096-.088-.146-.122l.286.061c1.478 2.094 1.652 5.057 4.171 6.514zm-154.969 70.18a22.683 22.683 0 0 1-.572-.433c-.624-.174-1.577-.157-1.82-.555-1.907-3.241-5.278-3.388-8.354-3.996-8.702-1.732-17.134 1.689-21.63 8.598-7.219 11.11-3.875 28.528 7.123 37.812 8.543 7.201 18.519 10.47 29.49 11.04 13.441.695 26.05-1.889 37.274-9.749 12.582-8.813 18.762-21.103 20.003-36.217 1.532-18.686-5.166-33.895-19.086-46.138-1.005-.895-2.01-2.142-3.647-1.112-.398 0-.919-.119-.865-.502.476-3.597-2.072-4.826-4.647-6.065-1.638-1.994-3.925-3.138-5.988-4.577-.32-.346-.588-.762-.951-1.039-5.677-4.368-11.596-8.407-16.97-13.164-.674-.607-1.567-1.007-2.6-.937-3.604.243-6.255-2.695-5.433-6.092.208-.85-.026-1.465-.33-2.141-1.741-3.996-1.568-8.164-.807-12.263.633-3.424 2.305-6.413 5.564-8.137 4.144-2.202 8.492-2.089 12.895-.989-.372 1.827-.753 3.658-1.136 5.494-2.944 6.475-.953 14.516 4.533 18.9 4.837 3.884 10.253 5.104 16.388 4.663 5.044-.362 8.978-2.287 11.985-6.264 2.34-1.64 3.708-4.015 4.611-6.604 3.275-9.343 1.369-20.15-8.546-28.885-1.593-1.874-3.57-3.208-5.798-4.213a27.54 27.54 0 0 0-5.468-2.911c-9.03-3.536-18.382-4.082-27.87-2.817-6.023.814-11.779 2.565-16.933 5.944-2.619 1.025-4.958 2.454-6.795 4.619-1.067.772-2.229 1.45-3.189 2.332-7.834 7.185-12.532 16.042-13.745 26.633-1.388 12.141-.373 23.996 6.761 34.335 6.422 9.307 14.886 16.788 23.614 23.928 1.248 1.014 2.298.302 3.449.182-.207 1.482.893 2.132 1.803 2.965 2.729 2.496 6.231 4.09 8.449 7.185.208 1.273 1.334 1.751 2.147 2.47 3.746 3.267 7.516 6.49 10.67 10.372 1.057 1.293 1.552 3.025 3.102 3.918 2.194 4.515 1.603 9.274 1.196 14.015-3.31 5.242-7.332 9.618-13.918 10.425-3.976.493-8.042.866-11.281-2.384-.919-1.611-1.396-3.319-.946-5.173.574-2.393 1.067-4.812 1.839-7.144 1.782-5.405.258-10.008-3.165-14.228l.138.05a61.857 61.857 0 0 0-.633-1.221l.089.07zm101.681-124.032c-.441.062-.626.321-.435.719.209.425.599.667 1.093.633.433-.034.633-.295.443-.701-.208-.435-.608-.642-1.101-.651zm22.238 177.512c.164-.537-.183-.555-.399-.598-.094-.018-.355.217-.337.303.024.209.182.407.285.609.181-.133.366-.254.451-.314zm-26.242-179.254c.251.104.485.217.737.26.052.009.232-.398.207-.406a2.807 2.807 0 0 0-.685-.357c-.024-.008-.145.276-.259.503zm6.414 3.754c.06.102.131.225.198.345.062-.068.183-.14.165-.181-.027-.13-.104-.243-.174-.365-.051.061-.112.121-.189.201zm1.143.605c.052.097.122.208.183.312.061-.052.173-.12.164-.165-.035-.119-.104-.225-.164-.338-.061.061-.114.113-.183.191zm16.969 176.81c-.061-.06-.129-.183-.174-.172-.13.024-.243.104-.364.164.052.062.121.19.175.183.119-.029.242-.104.363-.175zm.088-1.231c.069.131.128.252.198.372.062-.059.183-.138.172-.181-.023-.138-.109-.252-.172-.381-.061.059-.129.121-.198.19z"/><path fill="#1E0607" d="M402.573 316.985c-2.52-1.457-2.693-4.42-4.176-6.518l-.286-.061c.051.034.139.071.146.122 1.17 5.027 2.582 10.018 3.434 15.096 2.078 12.42 3.699 24.915 2.01 37.518-1.543 11.499-2.852 23.071-7.14 33.989-5.636 14.326-11.354 28.616-21.988 40.212-.866.951-1.655 3.24-3.032 2.036-1.266-1.102-2.836-3.111-1.57-5.339-1.108.486-2.443.486-3.708.157-3.066-.781-3.389-1.804-1.915-4.638 5.216-10.078 10.035-20.374 13.788-31.05 3.778-10.748 5.294-22.074 6.204-33.42 1.431-17.843-.379-35.469-5.851-52.448-4.695-14.584-10.727-28.736-19.896-41.26a15.282 15.282 0 0 0-1.259-1.534c-.841-.874-2.053-1.586-.267-2.816.701-.476.451-1.595.406-2.434-.198-4.352-.553-8.685-2.021-12.854-.294-.831-1.013-1.655-.294-2.955 6.448 4.228 11.31 10.069 16.735 15.322-5-8.061-11.873-14.48-19.118-20.323-31.191-25.141-66.947-36.779-106.907-33.599-38.685 3.077-71.453 19.586-97.816 47.847-11.846 12.696-22.15 26.9-27.542 43.886 2.575-2.877 4.118-6.388 5.747-9.801 5.175-10.841 12.366-20.296 20.063-29.406 5.2-6.161 10.703-12.079 16.777-17.375 4.68-4.073 9.939-7.411 15.105-10.859 5.349-3.571 11.189-6.197 16.898-9.091 4.327-2.184 8.736-4.186 13.304-5.598 3.778-1.171 7.436-2.774 11.421-3.485 3.927-.702 7.681-2.313 11.692-3.007 14.731-2.548 29.498-3.328 44.336-1.352 17.947 2.4 35.105 7.461 51.051 16.163 5.67 3.094 11.111 6.62 16.555 10.104 4.289 2.748 3.676 7.332 3.439 11.423-.164 2.764-1.291 5.512-2.201 8.189-.476 1.386.823 2.818-.822 4.316-1.395 1.272-2.201 1.36-3.58.536-9.473-5.685-19.56-10.035-30.062-13.285-9.578-2.956-19.3-5.139-29.38-6.196-10.451-1.101-20.8-.771-31.136.113-9.403.806-18.66 2.704-27.812 5.208-10.729 2.93-20.876 7.236-30.886 11.96-1.274.598-2.21 1.379-2.929 2.53-8.121 13.209-14.43 27.213-18.841 42.093-3.269 11.008-5.616 22.176-6.898 33.591-2.367 20.911-.858 41.521 4.185 61.947 3.544 14.352 9.248 27.783 16.396 40.653 1.855 3.354 5.33 4.817 8.45 6.448 6.033 3.136 12.107 6.344 18.492 8.605 8.962 3.163 17.986 6.317 27.474 7.73 2.851.433 5.667 1.126 8.398 2.322-5.667-.848-11.38-1.509-17.003-2.582-6.674-1.266-13.313-3.095-19.438-5.877-9.153-4.15-18.737-7.582-26.884-13.7-1.3-.979-2.279-.719-3.623-.469-6.309 1.179-12.653 2.367-19.11 1.412-2.365-.345-4.568-1.638-7.228-1.524.512 3.008 3.18 4.089 4.759 5.952 10.694 12.62 23.25 22.905 38.435 29.77 1.291.581 2.356.93 3.97.563 2.072-.469 4.106.988 6.073 1.819 4.136 1.762 7.766 4.49 12.237 5.652 21.044 5.459 42.24 7.479 63.863 4.142 17.704-2.739 34.387-8.39 49.899-17.272 8.717-4.99 16.872-10.84 24.143-17.834.729-.701 1.648-1.196 2.473-1.778.172.165.338.339.503.514-2.732 4.028-6.691 6.793-10.307 9.896-6.819 5.851-14.307 10.755-22.105 15.2-.469.27-.834.729-1.248 1.102-.191.087-.383.182-.574.27-1.316.059-2.485.397-3.222 1.611 0 0-.167.086-.174.086-2.184.191-3.979 1.223-5.607 2.608l-1.273.521c-.954-.011-1.907.009-2.471.987-.746.287-1.5.564-2.255.849-.762 0-1.55-.041-2.019.746-21.016 7.844-42.697 10.192-64.943 8.035-13.642-1.326-26.727-4.863-39.485-9.759-.398-.685-1.012-.832-1.75-.712-1.751-.779-3.509-1.56-5.27-2.339-.232-.452-.606-.615-1.102-.521-.667-.321-1.334-.633-2.001-.953-.243-.702-.771-.842-1.429-.736-.521-.261-1.05-.512-1.569-.772-.155-.789-.649-.96-1.351-.772l-.08-.023c-.052-.894-.727-1.293-1.377-1.655-10.01-5.573-18.936-12.603-27.265-20.4-1.222-1.137-2.506-1.561-4.099-1.239l-1.968-1.892c-1.584-2.363-3.482-4.411-5.84-6.013-.839-.97-1.689-1.94-2.539-2.902.078-.32-.043-.469-.372-.443-14.221-16.345-24.024-35.143-29.813-55.905-5.762-20.695-6.767-41.773-2.937-62.996.486-2.694.927-5.408 1.455-8.095.157-.772.131-1.395-.181-2.158-10.062-24.396-13.268-49.728-10.469-75.899 2.096-19.63 7.912-38.149 17.012-55.552 9.541-18.251 22.559-33.79 38.581-46.78.148-.113.26-.26.398-.399.651 0 1.006-.364 1.196-.953l.131-.07c.901-.13 1.593-.52 1.899-1.43l.128-.096c1.032-.061 1.751-.528 2.037-1.551l-.069.043c.917.026 1.612-.486 2.313-.962 3.891-2.679 7.912-5.14 12.021-7.479 19.889-11.31 41.284-17.766 64.024-19.725 13.832-1.187 27.595-.337 41.261 2.193 32.785 6.048 60.568 21.44 84.149 44.744 5.52 5.451 10.41 11.483 15.419 17.401.441.521.709 2.713 2.329 1.023.253.381.514.771.772 1.162-.529.416-.57.979-.259 1.473.311.502.762.364 1.117-.052 14.63 22.368 23.173 46.815 25.262 73.507 1.82 23.399-1.491 46.027-9.81 67.954-.191.53-.338 1.086-.513 1.622zm-10.319-27.273c.136-.415.327-.831.424-1.266 4.592-20.765 4.54-41.546-.424-62.197-8.035-33.366-25.723-60.647-53.438-80.9-36.883-26.952-78.005-35.004-121.666-21.891-50.957 15.296-83.05 50.074-96.578 101.577-4.671 17.801-4.913 35.957-2.106 54.131.658 4.193 1.708 8.336 2.634 12.486.123.556-.069 1.526.852 1.554.788.017.857-.886 1.186-1.414.191-.32.26-.71.416-1.058 6.145-13.06 13.919-25.009 23.469-35.886 9.56-10.894 20.582-19.985 32.862-27.481 19.682-12.012 41.122-19.049 64.096-21.12a153.673 153.673 0 0 1 34.275.744c10.27 1.378 20.261 3.831 29.977 7.28 9.179 3.25 18.078 7.219 26.423 12.35 6.673 4.099 12.861 8.856 19.127 13.502 5.427 4.021 9.775 9.22 14.238 14.221 4.846 5.426 9.707 10.885 13.442 17.195 3.544 5.998 7.558 11.743 10.791 18.173zM230.48 244.153c-1.12 0-1.794-.095-2.438.018-10.91 1.907-21.509 4.87-31.796 8.979-2.989 1.195-6.04 2.235-8.881 3.785-.626.348-1.641.651-1.327 1.562.338.971 1.386.885 2.22.633.899-.27 1.741-.728 2.615-1.1 6.518-2.739 12.94-5.78 19.604-8.122 6.389-2.254 13.034-3.778 20.003-5.755zM119.932 303.7l.103-.183-.138-.026.035.209z"/><path fill="#1E0607" d="M439.9 415.807c23.693-28.398 41-60.152 50.506-96.021 7.125-26.9 9.576-54.233 7.376-81.931-2.357-29.639-9.82-57.995-22.723-84.801-14.342-29.787-33.618-55.915-58.411-77.945-29.553-26.258-63.411-44.449-101.664-54.251-28.895-7.409-58.229-9.212-87.92-5.711-43.921 5.183-83.368 21.345-118.354 48.202-32.457 24.916-57.051 56.193-73.725 93.614-12.583 28.243-19.413 57.804-20.644 88.725-1.455 36.451 4.896 71.454 19.058 105.003 11.57 27.392 27.758 51.849 48.331 73.323 28.158 29.389 61.549 50.638 100.199 63.378 28.151 9.281 57.095 13.154 86.751 11.715 38.339-1.854 74.15-12.296 107.522-31.171 4.447-2.514 8.822-5.184 13.035-8.052 3.06-2.088 6.135-3.172 9.801-2.21.703.174 1.482.027 2.514.027-1.464 1.976-3.345 3.318-5.199 4.515-14.481 9.307-29.389 17.843-45.396 24.326-16.969 6.881-34.422 11.959-52.492 15.027-20.556 3.484-41.225 4.489-61.972 2.737-21.665-1.828-42.801-6.326-63.272-13.761-6.578-2.393-12.956-5.234-19.429-7.87-7.297-2.972-14.075-6.932-20.973-10.598-6.699-3.562-12.766-8.321-19.099-12.575-8.85-5.937-16.717-13.069-24.788-19.967-14.724-12.603-26.598-27.646-37.559-43.42-17.939-25.791-30.176-54.173-37.273-84.763-6.726-28.99-8.104-58.283-4.447-87.765 3.12-25.158 10.096-49.251 20.635-72.338 12.73-27.863 30.228-52.328 52.006-73.793 29.354-28.92 63.922-49.034 103.345-60.708 29.545-8.745 59.763-11.587 90.493-8.961 25.767 2.209 50.508 8.345 74.408 18.207 22.819 9.403 43.601 22.125 62.556 37.786 34.361 28.373 59.416 63.523 75.24 105.164 7.697 20.246 12.463 41.219 14.673 62.814 1.829 17.802 1.759 35.567-.26 53.297-3.57 31.312-12.663 60.995-27.577 88.813-8.613 16.059-18.624 31.171-30.878 44.727-.51.563-1.084 1.067-1.622 1.595.184-2.165-2.199-2.694-2.772-4.383z"/><path fill="#FF000D" d="M386.012 171.322c-1.62 1.69-1.888-.502-2.329-1.023-5.009-5.918-9.899-11.95-15.419-17.401-23.581-23.304-51.364-38.696-84.149-44.744-13.666-2.53-27.429-3.38-41.261-2.193-22.74 1.959-44.135 8.416-64.024 19.725-4.109 2.34-8.131 4.801-12.021 7.479-.702.476-1.396.988-2.313.962 2.912-3.562 6.949-5.59 10.763-7.939 16.448-10.148 34.121-17.185 53.134-20.756 27.42-5.148 54.303-2.938 80.621 6.196 8.061 2.799 15.851 6.275 23.261 10.503 7.973 4.542 15.772 9.36 22.852 15.253 10.955 9.117 20.844 19.223 29.058 30.904.435.607.755 1.301 1.129 1.95l-.147-.069v-.165c.274.434.561.875.845 1.318zM155.845 457.216c1.593-.321 2.877.103 4.099 1.239 8.33 7.798 17.255 14.827 27.265 20.4.65.362 1.325.762 1.377 1.655-1.724 0-2.972-1.128-4.349-1.892-9.388-5.207-18.07-11.404-25.976-18.665-.892-.822-1.921-1.55-2.416-2.737zM439.9 415.807c.572 1.689 2.956 2.219 2.771 4.386-1.888 2.434-2.684-.189-3.63-.944-1.854-1.499.227-2.357.859-3.442zM148.036 449.312c2.358 1.602 4.256 3.649 5.84 6.013-2.554-1.412-4.443-3.474-5.84-6.013z"/><path fill="#FA4347" d="M315.582 485.961c1.629-1.386 3.424-2.417 5.607-2.608-1.57 1.5-3.492 2.261-5.607 2.608zM321.363 483.267c.736-1.214 1.905-1.553 3.222-1.611-.708 1.264-1.956 1.453-3.222 1.611zM164.563 134.083c-.286 1.022-1.005 1.49-2.037 1.551.338-.971.953-1.559 2.037-1.551zM311.838 487.469c.563-.979 1.517-.998 2.471-.987-.608.875-1.543.927-2.471.987zM387.643 173.905c-.355.416-.807.554-1.117.052-.312-.495-.271-1.058.259-1.473.527.32.779.814.858 1.421zM307.564 489.063c.469-.787 1.257-.746 2.019-.746-.51.685-1.237.807-2.019.746zM162.398 135.729c-.307.91-.998 1.3-1.899 1.43.338-.875 1.024-1.282 1.899-1.43zM201.387 486.628c.738-.12 1.352.027 1.75.712-.702.069-1.326-.069-1.75-.712zM160.368 137.229c-.19.589-.545.953-1.196.953.182-.58.625-.849 1.196-.953z"/><path fill="#1E0607" d="M385.164 170.005v.165l.147.069c.035-.043.078-.095.112-.146-.085-.028-.173-.062-.259-.088z"/><path fill="#FA4347" d="M191.585 482.079c.659-.105 1.186.034 1.429.736-.622.044-1.117-.164-1.429-.736zM188.666 480.534c.702-.188 1.196-.017 1.351.772-.624.046-1.093-.18-1.351-.772zM195.016 483.769c.495-.095.869.068 1.102.521-.476.06-.84-.113-1.102-.521zM145.125 445.966c.329-.025.45.123.372.443-.121-.15-.25-.297-.372-.443z"/><path fill="#1E0607" d="M248.011 388.267c.424 2.857 1.924 5.573 1.1 8.604-.041-.017-.25-.017-.267-.077-3.077-9.655-6.812-10.92-16.458-11.196-8.345-.242-14.526 4.627-16.986 12.451-3.439 10.939 1.405 23.921 11.579 31.218 9.967 7.149 21.302 9.1 33.181 8.39 16.91-1.024 30.688-8.112 39.849-22.621 10.451-16.552 8.311-42.057-4.263-57.092a109.15 109.15 0 0 0-8.304-8.936c-.753-.71-1.689-1.317-1.065-2.593 1.646-1.029 2.651.218 3.656 1.112 13.92 12.243 20.618 27.452 19.086 46.138-1.241 15.114-7.421 27.403-20.003 36.217-11.224 7.86-23.833 10.444-37.274 9.749-10.972-.57-20.947-3.839-29.49-11.04-10.998-9.283-14.341-26.701-7.123-37.812 4.496-6.908 12.928-10.33 21.63-8.598 3.075.608 6.447.755 8.354 3.996.243.397 1.196.381 1.82.555.086.284.034.753.572.433l-.088-.069c-.443.745-.136 1.108.633 1.221l-.139-.05zM231.225 278.437c.969.331 2.036-.431 3.207.39-1.42 1.207-2.791 2.315-4.099 3.485-10.305 9.229-14.049 21.023-13.633 34.534.398 13.104 5.894 23.807 14.907 32.986 4.315 4.392 8.822 8.553 13.494 12.558 1.143.987 2.85 1.585 3.015 3.456-1.151.12-2.201.832-3.449-.182-8.728-7.14-17.191-14.621-23.614-23.928-7.133-10.339-8.148-22.194-6.761-34.335 1.213-10.591 5.911-19.448 13.745-26.633.96-.881 2.121-1.559 3.188-2.331z"/><path fill="#1E0607" d="M275.482 406.77c1.222-.443 1.039-2.221 2.783-2.548.328 2.704-.643 5.147-1.891 7.338-4.384 7.774-15.252 11.796-23.729 9.065-1.429-.459-2.468-1.489-3.813-2.096-.995-.441-2.201-1.786-1.55-3.286.648-1.491 2.072.313 3-.433 3.239 3.25 7.306 2.877 11.281 2.384 6.587-.806 10.61-5.182 13.919-10.424zM288.291 273.602c-1.732.85-3.406.581-5.131-.129-12.902-5.244-25.859-5.278-38.79-.166-2.139.85-4.192.869-6.35.511 5.154-3.379 10.91-5.13 16.933-5.944 9.488-1.265 18.84-.719 27.87 2.817a27.488 27.488 0 0 1 5.468 2.911zM298.023 313.304c-1.542-.824-1.924-1.726-.728-3.338 5.938-8.06 4.775-16.267.295-24.491-.694-1.265-2.028-2.305-1.316-4.09.267-.66-.219-1.006-.962-.849-.443.093-1.005.319-1.345.146-.908-.46-2.072-1.11-2.01-2.124.059-1.073 1.403-.46 2.131-.744 9.915 8.734 11.821 19.542 8.546 28.885-.903 2.59-2.271 4.965-4.611 6.605zM258.367 375.995c5.755 3.535 10.782 7.903 14.759 13.382.684.934 1.463 2.019 1.16 3.378-1.55-.893-2.045-2.625-3.102-3.918-3.154-3.882-6.924-7.105-10.67-10.372-.813-.719-1.939-1.196-2.147-2.47zM280.872 339.848c-1.022 1.698-2.182 2.104-3.785.606-1.611-1.508-3.701-2.453-5.287-4.394 1.162-.295 2.124-.54 3.084-.79 2.063 1.44 4.35 2.584 5.988 4.578zM266.253 290.51c.14-1.11.667-2.184 1.795-2.027.476.059.962 1.438 1.125 2.288.65 3.276-1.117 5.493-4.056 5.233.383-1.836.764-3.667 1.136-5.494zM349.285 263.133c.493.009.893.216 1.102.65.189.406-.011.667-.443.701a1.086 1.086 0 0 1-1.093-.633c-.192-.397-.007-.656.434-.718zM361.027 452.899c-.052.684-.458 1.065-1.1 1.222-.183-.226-.356-.441-.538-.66.121-.649.65-.872 1.18-1.098.155.172.301.355.458.536z"/><path fill="#CDD7DF" d="M248.149 388.316c-.769-.112-1.076-.476-.633-1.221.219.408.426.814.633 1.221z"/><path fill="#1E0607" d="M371.523 440.645c-.086.061-.271.182-.451.314-.104-.202-.261-.4-.285-.609-.019-.086.243-.32.337-.303.217.043.564.06.399.598zM360.569 452.363c.251-.417.641-.824 1.03-.338.424.536-.164.717-.572.874-.157-.181-.303-.364-.458-.536zM345.281 261.391c.113-.227.234-.511.26-.504.243.088.478.209.685.357.025.008-.155.415-.207.406-.252-.043-.487-.155-.738-.259zM351.695 265.145c.077-.079.138-.14.189-.201.07.122.146.235.174.365.018.041-.104.112-.165.181a13.56 13.56 0 0 0-.198-.345zM352.838 265.75c.069-.078.122-.13.183-.191.061.113.129.219.164.338.009.045-.104.113-.164.165-.061-.104-.131-.215-.183-.312zM358.316 454.675c.181-.198.363-.396.544-.599.183.175.373.349.557.522-.036.364-.253.545-.598.579-.165-.163-.331-.337-.503-.502z"/><path fill="#1E0607" d="M358.86 454.076c.175-.198.355-.406.529-.615.182.219.355.435.538.66-.174.157-.347.312-.511.478-.183-.174-.373-.348-.556-.523zM369.807 442.568c-.121.062-.243.138-.363.166-.054.008-.123-.121-.175-.183.121-.061.234-.14.364-.164.045-.01.113.113.174.181zM369.895 441.329c.069-.069.138-.131.198-.189.062.129.148.243.172.381.011.043-.109.122-.172.181-.071-.121-.129-.242-.198-.373z"/><path fill="#CDD7DF" d="M247.604 387.165c-.538.32-.486-.148-.572-.433.192.149.383.295.572.433z"/><path fill="#FF000D" d="M230.48 244.153c-6.969 1.977-13.614 3.501-20.002 5.754-6.664 2.342-13.087 5.383-19.604 8.122-.874.372-1.715.83-2.615 1.1-.834.252-1.882.338-2.22-.633-.314-.91.701-1.214 1.327-1.562 2.841-1.55 5.892-2.589 8.881-3.785 10.288-4.108 20.887-7.072 31.796-8.979.643-.111 1.317-.017 2.437-.017z"/><path fill="#FA4347" d="M119.932 303.7l-.035-.209.138.027z"/><path fill="#1E0607" d="M245.993 296.074c.095-1.795 1.029-3.07 2.106-4.265.416-.467.891-1.134 1.593-.329.557.642.364 1.075-.319 1.595-1.162.893-2.203 1.941-3.38 2.999zM269.597 312.004c-1.255-1.137-2.26-2.428-1.956-4.517.935 1.336 1.87 2.66 2.798 3.987-.278.181-.564.355-.842.53zM266.791 306.091v-2.096c-.547.859.615 1.368 0 2.096z"/></g></svg>