<?xml version="1.0" encoding="utf-8"?>
<!-- Generator: Adobe Illustrator 16.0.0, SVG Export Plug-In . SVG Version: 6.00 Build 0)  -->
<!DOCTYPE svg PUBLIC "-//W3C//DTD SVG 1.1//EN" "http://www.w3.org/Graphics/SVG/1.1/DTD/svg11.dtd">
<svg version="1.1" id="Layer_1" xmlns="http://www.w3.org/2000/svg" xmlns:xlink="http://www.w3.org/1999/xlink" x="0px" y="0px"
	 width="512px" height="512px" viewBox="0 0 512 512" enable-background="new 0 0 512 512" xml:space="preserve">
<g>
	<path fill="#D8CBBA" d="M256.02,7.064c-137.469,0-248.91,111.442-248.91,248.91c0,137.469,111.441,248.91,248.91,248.91
		s248.91-111.441,248.91-248.91C504.93,118.506,393.488,7.064,256.02,7.064z M256.02,407.94
		c-83.93,0-151.966-68.035-151.966-151.966c0-83.93,68.036-151.966,151.966-151.966c83.925,0,151.966,68.036,151.966,151.966
		C407.985,339.905,339.944,407.94,256.02,407.94z"/>
	<path fill="none" stroke="#000000" stroke-width="3.7135" stroke-miterlimit="10" d="M506.895,255.975
		c0,138.554-112.327,250.875-250.875,250.875c-138.556,0-250.875-112.321-250.875-250.875C5.145,117.421,117.463,5.1,256.02,5.1
		C394.567,5.1,506.895,117.421,506.895,255.975z"/>
	<path fill="none" stroke="#000000" stroke-width="11.1406" stroke-miterlimit="10" d="M406.016,255.975
		c0,82.84-67.156,149.996-149.996,149.996c-82.846,0-150.001-67.156-150.001-149.996c0-82.846,67.155-149.996,150.001-149.996
		C338.859,105.979,406.016,173.129,406.016,255.975z"/>
	<path fill="#FF0000" d="M256.02,199.796c-83.93,0-151.966,68.036-151.966,151.966c0,83.931,68.036,151.967,151.966,151.967
		c83.925,0,151.966-68.036,151.966-151.967C407.985,267.832,339.944,199.796,256.02,199.796z"/>
	<path d="M266.397,339.496v-62.074c0-11.494-3.521-14.048-10.225-14.048c-7.016,0-10.534,2.554-10.534,14.048v28.1
		c0,16.288,54.605,65.461,54.605,88.454v40.232c0,29.691-23.31,38.319-44.386,38.319c-20.759,0-44.061-8.628-44.061-38.319v-52.371
		l33.841-14.615v64.116c0,11.493,3.519,14.047,10.534,14.047c6.704,0,10.225-2.554,10.225-14.047v-23.955
		c0-31.922-54.6-63.226-54.6-100.265v-32.572c0-29.691,23.302-38.314,44.061-38.314c21.076,0,44.386,8.623,44.386,38.314v50.34
		L266.397,339.496z"/>
	<path fill="#D8CBBA" d="M266.397,334.256v-62.074c0-11.494-3.521-14.048-10.225-14.048c-7.016,0-10.534,2.554-10.534,14.048v28.1
		c0,16.288,54.605,65.461,54.605,88.454v40.232c0,29.691-23.31,38.319-44.386,38.319c-20.759,0-44.061-8.628-44.061-38.319v-52.371
		l33.841-14.615v64.116c0,11.493,3.519,14.047,10.534,14.047c6.704,0,10.225-2.554,10.225-14.047v-23.955
		c0-31.922-54.6-63.226-54.6-100.265v-32.572c0-29.691,23.302-38.314,44.061-38.314c21.076,0,44.386,8.623,44.386,38.314v50.34
		L266.397,334.256z"/>
</g>
</svg>
