<svg xmlns="http://www.w3.org/2000/svg" width="276" height="397" viewBox="118.5 58.5 276 397"><g fill="#D8CBBA"><path d="M196.967 370.582c.627-.132 1.616-.231 2.622-.231 1.436 0 2.359.248 3.052.809.577.429.924 1.089.924 1.963 0 1.072-.709 2.013-1.881 2.441v.032c1.056.265 2.292 1.139 2.292 2.788 0 .957-.378 1.683-.94 2.227-.774.71-2.028 1.039-3.843 1.039-.99 0-1.748-.065-2.227-.132v-10.936zm1.434 4.553h1.304c1.517 0 2.408-.792 2.408-1.864 0-1.303-.99-1.814-2.441-1.814-.66 0-1.039.05-1.271.099v3.579zm0 5.327c.28.05.693.066 1.204.066 1.484 0 2.854-.545 2.854-2.161 0-1.518-1.303-2.145-2.87-2.145h-1.188v4.24zM207.56 370.434h1.435v9.913h4.751v1.204h-6.186v-11.117zM217.84 370.434v6.581c0 2.491 1.105 3.547 2.59 3.547 1.649 0 2.705-1.089 2.705-3.547v-6.581h1.451v6.482c0 3.414-1.798 4.816-4.206 4.816-2.277 0-3.991-1.304-3.991-4.751v-6.548h1.451zM234.488 376.339h-4.322v4.008h4.816v1.204h-6.251v-11.117h6.004v1.204h-4.569v3.513h4.322v1.188zM240.876 371.654h-3.382v-1.221h8.231v1.221h-3.398v9.896h-1.451v-9.896zM257.671 375.877c0 3.826-2.326 5.855-5.163 5.855-2.937 0-4.998-2.276-4.998-5.642 0-3.529 2.194-5.839 5.163-5.839 3.035.001 4.998 2.327 4.998 5.626zm-8.627.181c0 2.376 1.286 4.504 3.546 4.504 2.276 0 3.563-2.096 3.563-4.619 0-2.21-1.155-4.52-3.547-4.52-2.375 0-3.562 2.194-3.562 4.635zM270.69 375.877c0 3.826-2.326 5.855-5.163 5.855-2.937 0-4.998-2.276-4.998-5.642 0-3.529 2.194-5.839 5.163-5.839 3.035.001 4.998 2.327 4.998 5.626zm-8.627.181c0 2.376 1.286 4.504 3.546 4.504 2.276 0 3.563-2.096 3.563-4.619 0-2.21-1.155-4.52-3.547-4.52-2.374 0-3.562 2.194-3.562 4.635zM275.908 371.654h-3.382v-1.221h8.231v1.221h-3.398v9.896h-1.451v-9.896zM285.083 370.434v4.651h5.378v-4.651h1.451v11.117h-1.451v-5.212h-5.378v5.212h-1.435v-11.117h1.435zM301.205 370.434h1.435v9.913h4.751v1.204h-6.186v-11.117zM316.4 376.339h-4.322v4.008h4.816v1.204h-6.252v-11.117h6.005v1.204h-4.569v3.513h4.322v1.188z"/></g><path d="M265.848 436.006c.513-.686.944-1.438 1.294-2.252.581-1.35.869-2.773.869-4.287a10.82 10.82 0 0 0-.869-4.318c-.581-1.34-1.361-2.52-2.365-3.525a11.315 11.315 0 0 0-3.517-2.385c-1.347-.57-2.786-.85-4.311-.85-1.535 0-2.974.279-4.328.85a11.465 11.465 0 0 0-3.524 2.385c-1.016 1.006-1.797 2.186-2.377 3.525a10.821 10.821 0 0 0-.87 4.318c0 1.514.289 2.938.87 4.287a11.386 11.386 0 0 0 2.162 3.287l8.086 9.834 8.88-10.869z"/><path fill="red" d="M253.091 427.846c.198-.502.503-.949.896-1.336a4.057 4.057 0 0 1 1.324-.895 4.133 4.133 0 0 1 1.632-.322c.581 0 1.121.109 1.624.322.5.211.948.512 1.314.895.373.387.668.834.886 1.336.214.502.322 1.043.322 1.621 0 .58-.108 1.125-.322 1.623a3.951 3.951 0 0 1-.886 1.314 3.991 3.991 0 0 1-1.314.891 4.116 4.116 0 0 1-1.624.318 4.201 4.201 0 0 1-1.632-.318 4.152 4.152 0 0 1-1.324-.891 3.499 3.499 0 0 1-.896-1.314c-.225-.498-.321-1.043-.321-1.623 0-.578.096-1.119.321-1.621z"/><g fill="#D8CBBA"><path d="M129.568 333.428c0-3.51 1.552-5.1 4.322-5.1 2.623 0 4.137 1.293 4.137 4.582v2.881c0 .369-.258.666-.628.666-.369 0-.628-.297-.591-.666v-2.955c0-2.254-.812-3.324-2.918-3.324-2.364 0-3.029 1.551-3.029 3.951v.814c0 4.691 7.093 7.793 7.093 14.518v1.293c0 3.51-1.478 5.135-4.249 5.135-2.623 0-4.137-1.662-4.137-4.951v-3.324c0-.369.259-.664.628-.664s.628.295.591.664v3.398c0 2.254.812 3.695 2.918 3.695 2.365 0 3.03-1.553 3.03-3.953v-1.293c0-5.652-7.167-9.236-7.167-14.518v-.849zM152.027 349.793c-.037-3.473-.147-5.801-.147-8.275s.11-4.582.11-12.375c0-.371.222-.666.628-.666.37 0 .628.295.628.666-.074 6.98-.221 9.936-.221 12.375 0 2.438.221 5.615.221 8.275 0 3.361-1.7 5.504-4.47 5.504s-4.47-2.143-4.47-5.504c0-2.66.222-5.838.222-8.275 0-2.439-.147-5.395-.222-12.375 0-.371.259-.666.628-.666.406 0 .628.295.628.666 0 7.793.111 9.9.111 12.375s-.111 4.803-.148 8.275c0 2.4.998 4.32 3.251 4.32 2.364 0 3.251-1.92 3.251-4.32zM164.143 354.188c2.623 0 3.214-1.736 3.214-4.285 0-1.33-.258-6.096-.073-8.865h-2.734c-.406 0-.591-.295-.591-.592 0-.295.185-.627.591-.627h3.916c0 .627-.073 1.699-.073 2.732 0 2.771.147 6.096.147 7.242 0 2.807-.775 5.504-4.396 5.504-2.771 0-4.396-1.996-4.396-5.504 0-2.66.259-5.615.259-8.055 0-2.438-.259-5.393-.259-8.053 0-3.51 1.625-5.504 4.396-5.504 2.623 0 4.285 1.293 4.285 4.58v3.029c0 .369-.258.666-.628.666-.369 0-.628-.297-.591-.666v-3.104c0-2.252-.96-3.324-3.066-3.324-2.364 0-3.177 1.922-3.177 4.322 0 3.473.222 5.578.222 8.053s-.222 4.582-.222 8.055c-.001 2.401.812 4.396 3.176 4.396zM179.104 354.188c2.623 0 3.214-1.736 3.214-4.285 0-1.33-.258-6.096-.073-8.865h-2.734c-.406 0-.591-.295-.591-.592 0-.295.185-.627.591-.627h3.916c0 .627-.073 1.699-.073 2.732 0 2.771.147 6.096.147 7.242 0 2.807-.775 5.504-4.396 5.504-2.771 0-4.396-1.996-4.396-5.504 0-2.66.259-5.615.259-8.055 0-2.438-.259-5.393-.259-8.053 0-3.51 1.625-5.504 4.396-5.504 2.623 0 4.285 1.293 4.285 4.58v3.029c0 .369-.258.666-.628.666-.369 0-.628-.297-.591-.666v-3.104c0-2.252-.96-3.324-3.066-3.324-2.364 0-3.177 1.922-3.177 4.322 0 3.473.222 5.578.222 8.053s-.222 4.582-.222 8.055c-.001 2.401.812 4.396 3.176 4.396zM189.816 328.439h6.539c.406 0 .591.295.591.592 0 .295-.185.627-.591.627h-5.283v10.16h4.544c.406 0 .59.295.59.59 0 .297-.184.592-.59.592h-4.544v12.67h5.283c.406 0 .591.334.591.629s-.185.629-.591.629h-6.539v-26.489zM202.302 333.428c0-3.51 1.552-5.1 4.322-5.1 2.623 0 4.137 1.293 4.137 4.582v2.881c0 .369-.258.666-.628.666-.369 0-.628-.297-.591-.666v-2.955c0-2.254-.812-3.324-2.918-3.324-2.364 0-3.029 1.551-3.029 3.951v.814c0 4.691 7.093 7.793 7.093 14.518v1.293c0 3.51-1.478 5.135-4.248 5.135-2.623 0-4.138-1.662-4.138-4.951v-3.324c0-.369.259-.664.628-.664s.628.295.591.664v3.398c0 2.254.812 3.695 2.919 3.695 2.364 0 3.029-1.553 3.029-3.953v-1.293c0-5.652-7.167-9.236-7.167-14.518v-.849zM219.701 354.299v-24.307h-3.73c-.407 0-.592-.297-.592-.592s.185-.629.592-.629h8.755c.406 0 .591.334.591.629s-.185.592-.591.592h-3.769v24.307c0 .369-.257.664-.627.664-.371 0-.629-.295-.629-.664zM246.998 354.299v-24.307h-3.73c-.407 0-.592-.297-.592-.592s.185-.629.592-.629h8.755c.406 0 .591.334.591.629s-.185.592-.591.592h-3.769v24.307c0 .369-.258.664-.628.664-.369 0-.628-.295-.628-.664zM258.154 328.439h6.539c.406 0 .592.295.592.592 0 .295-.186.627-.592.627h-5.283v10.16h4.545c.406 0 .59.295.59.59 0 .297-.184.592-.59.592h-4.545v12.67h5.283c.406 0 .592.334.592.629s-.186.629-.592.629h-6.539v-26.489zM275.295 354.113c3.619 0 3.176-3.914 2.954-7.129 0-.443.259-.664.593-.664.332 0 .59.332.59.701.186 3.842.518 8.275-4.137 8.275-2.771 0-4.248-1.996-4.248-5.504 0-2.66.258-5.615.258-8.055 0-2.438-.258-5.393-.258-8.053 0-3.51 1.477-5.504 4.248-5.504 4.654 0 4.322 4.432 4.137 8.275 0 .369-.258.701-.59.701-.334 0-.593-.223-.593-.666.222-3.213.665-7.129-2.954-7.129-2.365 0-3.029 1.922-3.029 4.322 0 3.473.221 5.578.221 8.053s-.221 4.582-.221 8.055c0 2.402.664 4.322 3.029 4.322zM286.154 329.143c0-.371.259-.666.629-.666.369 0 .627.295.627.666v10.676h5.912v-10.676c0-.371.258-.666.627-.666s.629.295.629.666v25.156c0 .369-.26.664-.629.664s-.627-.295-.627-.664V341h-5.912v13.299c0 .369-.258.664-.627.664-.37 0-.629-.295-.629-.664v-25.156zM309.611 354.299c0 .406-.221.775-.701.775s-.666-.406-.738-.664l-4.508-18.25c-.59-2.438-1.07-4.84-1.07-4.84h-.111c0 .334.258 4.471.258 7.758v15.332c0 .369-.184.664-.553.664-.371 0-.592-.295-.592-.664v-25.158c0-.406.258-.775.738-.775.443 0 .629.443.703.701l4.58 18.471c.627 2.477.923 4.582.923 4.582h.185c-.037-.369-.258-4.471-.258-7.758v-15.33c0-.371.186-.666.555-.666s.59.295.59.666v25.156zM325.57 333.686c0 2.66-.258 5.615-.258 8.053 0 2.439.258 5.395.258 8.055 0 3.508-1.367 5.504-4.471 5.504-3.103 0-4.469-1.996-4.469-5.504 0-2.66.258-5.615.258-8.055 0-2.438-.258-5.393-.258-8.053 0-3.51 1.699-5.504 4.469-5.504 2.772 0 4.471 1.994 4.471 5.504zm-7.72 0c0 3.473.221 5.578.221 8.053s-.184 4.582-.221 8.055c0 2.4.887 4.32 3.25 4.32 2.365 0 3.252-1.92 3.252-4.32-.037-3.473-.223-5.58-.223-8.055s.223-4.58.223-8.053c0-2.068-.961-4.322-3.252-4.322-2.289-.001-3.25 2.253-3.25 4.322zM333.844 353.744h5.062c.406 0 .59.334.59.629s-.184.59-.59.59h-5.283c-.775 0-1.035-.664-1.035-1.328v-24.492c0-.371.26-.666.629-.666s.627.295.627.666v24.601zM352.463 333.686c0 2.66-.258 5.615-.258 8.053 0 2.439.258 5.395.258 8.055 0 3.508-1.367 5.504-4.471 5.504-3.102 0-4.469-1.996-4.469-5.504 0-2.66.258-5.615.258-8.055 0-2.438-.258-5.393-.258-8.053 0-3.51 1.699-5.504 4.469-5.504 2.772 0 4.471 1.994 4.471 5.504zm-7.721 0c0 3.473.221 5.578.221 8.053s-.184 4.582-.221 8.055c0 2.4.887 4.32 3.25 4.32 2.365 0 3.252-1.92 3.252-4.32-.038-3.473-.223-5.58-.223-8.055s.223-4.58.223-8.053c0-2.068-.961-4.322-3.252-4.322-2.289-.001-3.25 2.253-3.25 4.322zM363.729 354.188c2.623 0 3.215-1.736 3.215-4.285 0-1.33-.258-6.096-.074-8.865h-2.734c-.406 0-.59-.295-.59-.592 0-.295.184-.627.59-.627h3.916c0 .627-.072 1.699-.072 2.732 0 2.771.146 6.096.146 7.242 0 2.807-.775 5.504-4.396 5.504-2.771 0-4.396-1.996-4.396-5.504 0-2.66.259-5.615.259-8.055 0-2.438-.259-5.393-.259-8.053 0-3.51 1.625-5.504 4.396-5.504 2.623 0 4.285 1.293 4.285 4.58v3.029c0 .369-.258.666-.627.666s-.629-.297-.592-.666v-3.104c0-2.252-.959-3.324-3.066-3.324-2.363 0-3.176 1.922-3.176 4.322 0 3.473.221 5.578.221 8.053s-.221 4.582-.221 8.055c-.001 2.401.811 4.396 3.175 4.396zM378.949 340.076l4.062-11.045c.111-.369.406-.592.74-.518.369.037.627.406.516.738l-4.691 12.34v12.707c0 .369-.258.664-.627.664s-.629-.295-.629-.664v-12.635l-4.58-12.412c-.111-.332.148-.701.518-.738.332-.074.627.148.738.518l3.953 11.045z"/></g><g><path fill="#D8CBBA" d="M256.931 66.089c-26.233 0-47.5 21.267-47.5 47.5s21.267 47.5 47.5 47.5 47.5-21.267 47.5-47.5-21.267-47.5-47.5-47.5zm0 76.5c-16.017 0-29-12.983-29-29s12.983-29 29-29c16.016 0 29 12.983 29 29s-12.985 29-29 29z"/><circle fill="none" stroke="#000" stroke-width=".709" stroke-miterlimit="10" cx="256.931" cy="113.589" r="47.875"/><circle fill="none" stroke="#000" stroke-width="2.126" stroke-miterlimit="10" cx="256.93" cy="113.589" r="28.625"/><circle fill="red" cx="256.931" cy="131.868" r="29"/><path d="M258.911 129.527v-11.846c0-2.193-.672-2.681-1.951-2.681-1.339 0-2.011.487-2.011 2.681v5.362c0 3.108 10.421 12.492 10.421 16.88v7.678c0 5.666-4.448 7.312-8.471 7.312-3.961 0-8.408-1.646-8.408-7.312v-9.994l6.458-2.789v12.235c0 2.193.672 2.681 2.011 2.681 1.279 0 1.951-.487 1.951-2.681v-4.571c0-6.092-10.42-12.065-10.42-19.134v-6.216c0-5.666 4.447-7.312 8.408-7.312 4.022 0 8.471 1.646 8.471 7.312v9.606l-6.459 2.789z"/><path fill="#D8CBBA" d="M258.911 128.527v-11.846c0-2.193-.672-2.681-1.951-2.681-1.339 0-2.011.487-2.011 2.681v5.362c0 3.108 10.421 12.492 10.421 16.88v7.678c0 5.666-4.448 7.312-8.471 7.312-3.961 0-8.408-1.646-8.408-7.312v-9.994l6.458-2.789v12.235c0 2.193.672 2.681 2.011 2.681 1.279 0 1.951-.487 1.951-2.681v-4.571c0-6.092-10.42-12.065-10.42-19.134v-6.216c0-5.666 4.447-7.312 8.408-7.312 4.022 0 8.471 1.646 8.471 7.312v9.606l-6.459 2.789z"/></g></svg>